<?xml version="1.0" encoding="UTF-8" standalone="no"?><!-- Generator: Gravit.io --><svg xmlns="http://www.w3.org/2000/svg" xmlns:xlink="http://www.w3.org/1999/xlink" style="isolation:isolate" viewBox="0 0 1024 1024" width="1024pt" height="1024pt"><rect x="0" y="0" width="1024" height="1024" transform="matrix(1,0,0,1,0,0)" fill="rgb(62,80,98)"/><path d=" M 90.914 237.352 L 943.45 237.352 L 943.45 627.497 L 90.914 627.497 L 90.914 237.352 L 90.914 237.352 L 90.914 237.352 Z  M 382.37 330.699 L 382.37 538.045 L 449.014 538.045 L 449.014 330.699 L 382.37 330.699 L 382.37 330.699 L 382.37 330.699 L 382.37 330.699 L 382.37 330.699 Z  M 490.484 330.699 L 490.484 538.045 L 558.609 538.045 L 558.609 453.995 L 623.775 538.045 L 702.569 538.045 L 617.261 427.856 L 698.126 330.699 L 622.294 330.699 L 558.609 407.443 L 558.609 330.699 L 490.484 330.699 L 490.484 330.699 L 490.484 330.699 L 490.484 330.699 L 490.484 330.699 Z  M 721.818 330.699 L 721.818 538.045 L 784.022 538.045 L 871.403 538.045 L 871.403 486.209 L 784.022 486.209 L 784.022 456.585 L 865.476 456.585 L 865.476 406.23 L 784.022 406.23 L 784.022 382.536 L 871.403 382.536 L 871.403 330.699 L 784.022 330.699 L 721.818 330.699 L 721.818 330.699 L 721.818 330.699 L 721.818 330.699 L 721.818 330.699 Z  M 231.896 379.571 L 248.185 379.571 C 255.688 379.571 261.168 380.807 264.626 383.275 C 268.082 385.746 269.811 389.643 269.811 394.973 C 269.811 398.53 269.023 401.59 267.443 404.157 C 265.864 406.723 263.491 408.701 260.333 410.083 C 257.174 411.466 253.122 412.157 248.188 412.157 L 231.896 412.157 L 231.896 379.571 L 231.896 379.571 L 231.896 379.571 L 231.896 379.571 L 231.896 379.571 Z  M 231.896 455.102 L 254.114 455.102 C 257.865 455.102 261.367 455.298 264.628 455.694 C 267.885 456.089 270.799 456.831 273.365 457.916 C 275.932 459.007 277.956 460.586 279.437 462.659 C 280.918 464.732 281.659 467.448 281.659 470.804 C 281.659 476.333 280.373 480.382 277.806 482.949 C 275.239 485.516 271.879 487.196 267.733 487.984 C 263.587 488.773 259.046 489.168 254.112 489.168 L 231.896 489.168 L 231.896 455.102 L 231.896 455.102 L 231.896 455.102 L 231.896 455.102 L 231.896 455.102 Z  M 166.733 330.697 L 166.733 538.042 L 262.998 538.042 C 281.365 538.042 297.015 536.166 309.949 532.415 C 322.883 528.665 332.754 522.64 339.567 514.346 C 346.383 506.054 349.79 494.994 349.79 481.169 C 349.79 470.113 347.172 460.687 341.938 452.884 C 336.704 445.081 329.841 438.712 321.353 433.778 C 317.445 431.507 313.352 429.531 309.09 427.824 C 316.324 424.064 322.405 419.4 327.277 413.785 C 334.385 405.589 337.941 395.668 337.941 384.017 C 337.941 372.168 334.385 362.295 327.277 354.394 C 320.166 346.497 310.541 340.573 298.395 336.623 C 286.25 332.674 272.476 330.697 257.074 330.697 L 166.733 330.697 L 166.733 330.697 L 166.733 330.697 L 166.733 330.697 L 166.733 330.697 Z " fill-rule="evenodd" fill="rgb(129,202,159)"/><path d=" M 181.011 656.752 L 149.563 719.65 L 130.9 662.8 L 85.109 662.8 L 140.405 791.534 L 181.011 731.401 L 221.618 791.534 L 276.913 662.8 L 231.123 662.8 L 212.461 719.65 L 181.011 656.752 L 181.011 656.752 L 181.011 656.752 Z  M 722.485 676.622 L 722.485 704.27 L 707.797 704.27 L 707.797 731.054 L 722.485 731.054 L 722.485 783.757 L 754.452 783.757 L 754.452 731.054 L 769.141 731.054 L 769.141 704.27 L 754.452 704.27 L 754.452 676.622 L 722.485 676.622 L 722.485 676.622 L 722.485 676.622 Z  M 420.563 702.196 C 415.726 702.196 411.147 703.666 406.827 706.602 C 403.634 708.775 400.9 711.501 398.62 714.774 L 398.62 704.271 L 365.788 704.271 L 365.788 783.757 L 398.62 783.757 L 398.62 750.06 C 398.62 746.26 399.223 743.15 400.434 740.73 C 401.642 738.31 403.228 736.524 405.186 735.374 C 407.143 734.224 409.102 733.646 411.061 733.646 C 413.364 733.646 415.323 734.109 416.936 735.03 C 418.548 735.951 419.873 737.104 420.91 738.483 L 434.561 709.455 C 433.523 707.496 431.65 705.797 428.944 704.356 C 426.236 702.917 423.443 702.196 420.563 702.196 Z  M 937.233 702.196 C 932.396 702.196 927.817 703.666 923.497 706.602 C 920.303 708.775 917.568 711.502 915.288 714.776 L 915.288 704.271 L 882.457 704.271 L 882.457 783.757 L 915.288 783.757 L 915.288 750.057 L 915.289 750.06 C 915.289 746.26 915.893 743.15 917.104 740.73 C 918.312 738.31 919.898 736.524 921.856 735.374 C 923.813 734.224 925.772 733.646 927.731 733.646 C 930.034 733.646 931.993 734.109 933.606 735.03 C 935.216 735.951 936.542 737.104 937.58 738.483 L 951.231 709.455 C 950.193 707.496 948.32 705.797 945.614 704.356 C 942.905 702.917 940.112 702.196 937.233 702.196 Z  M 306.053 702.369 C 296.836 702.369 288.598 704.04 281.343 707.381 C 274.084 710.724 268.383 715.504 264.236 721.725 C 260.089 727.945 258.015 735.374 258.015 744.015 C 258.015 752.54 260.089 759.914 264.236 766.133 C 268.383 772.355 274.084 777.136 281.343 780.477 C 288.6 783.817 296.836 785.488 306.053 785.488 C 315.268 785.488 323.503 783.817 330.762 780.477 C 338.018 777.134 343.722 772.354 347.869 766.133 C 352.016 759.914 354.089 752.54 354.089 744.015 C 354.089 735.376 352.016 727.947 347.869 721.725 C 343.722 715.503 338.018 710.722 330.762 707.381 C 323.503 704.04 315.268 702.369 306.053 702.369 Z  M 483.131 702.537 C 473.684 702.537 465.275 704.209 457.903 707.55 C 450.529 710.893 444.742 715.643 440.537 721.807 C 436.331 727.971 434.23 735.372 434.23 744.011 C 434.23 752.536 436.331 759.91 440.537 766.129 C 444.742 772.351 450.529 777.131 457.903 780.472 C 465.273 783.812 473.684 785.483 483.131 785.483 C 489.465 785.483 494.389 784.964 497.904 783.929 C 501.417 782.893 504.556 781.626 507.322 780.127 L 507.322 749.715 C 505.594 752.135 503.579 754.094 501.274 755.59 C 498.971 757.088 496.581 758.183 494.105 758.874 C 491.626 759.564 489.122 759.91 486.589 759.91 C 483.479 759.91 480.569 759.307 477.862 758.096 C 475.155 756.887 472.995 755.101 471.382 752.74 C 469.769 750.379 468.964 747.471 468.962 744.011 C 468.962 741.017 469.767 738.34 471.381 735.976 C 472.994 733.614 475.154 731.713 477.861 730.273 C 480.566 728.833 483.477 728.112 486.588 728.112 C 488.544 728.112 490.79 728.431 493.327 729.065 C 495.861 729.697 498.395 730.734 500.929 732.173 C 503.463 733.614 505.594 735.601 507.322 738.135 L 507.322 707.55 C 504.556 706.284 501.417 705.131 497.904 704.093 C 494.388 703.057 489.465 702.537 483.131 702.537 Z  M 566.355 702.542 C 556.216 702.542 547.576 704.183 540.435 707.468 C 533.291 710.752 527.821 715.476 524.018 721.639 C 520.215 727.801 518.315 735.26 518.315 744.014 C 518.315 752.654 520.301 760.057 524.276 766.218 C 528.25 772.382 533.951 777.134 541.383 780.475 C 548.811 783.814 557.71 785.485 568.082 785.483 C 579.141 785.483 588.442 783.382 595.989 779.176 C 603.535 774.971 609.44 768.608 613.702 760.083 L 582.943 755.244 C 581.56 757.781 579.487 759.71 576.722 761.034 C 573.957 762.359 570.503 763.02 566.356 763.02 C 563.244 763.02 560.621 762.272 558.492 760.774 C 556.361 759.278 554.747 757.118 553.654 754.294 C 553.25 753.254 552.93 752.13 552.69 750.926 L 612.145 750.926 C 612.376 749.659 612.491 748.306 612.491 746.865 L 612.491 742.459 C 612.491 733.819 610.733 726.533 607.219 720.6 C 603.704 714.669 598.521 710.176 591.668 707.122 C 584.814 704.069 576.375 702.542 566.355 702.542 Z  M 825.351 702.542 C 815.213 702.542 806.573 704.183 799.432 707.468 C 792.287 710.752 786.817 715.476 783.015 721.639 C 779.211 727.801 777.311 735.26 777.311 744.014 C 777.311 752.654 779.298 760.057 783.272 766.218 C 787.247 772.382 792.947 777.134 800.379 780.475 C 807.808 783.814 816.707 785.485 827.079 785.483 C 838.138 785.483 847.439 783.382 854.985 779.176 C 862.532 774.971 868.436 768.608 872.698 760.083 L 841.939 755.244 C 840.557 757.781 838.483 759.71 835.719 761.034 C 832.954 762.359 829.499 763.02 825.352 763.02 C 822.241 763.02 819.617 762.272 817.488 760.774 C 815.357 759.278 813.744 757.118 812.65 754.294 C 812.246 753.254 811.926 752.13 811.687 750.926 L 871.141 750.926 C 871.372 749.659 871.487 748.306 871.487 746.865 L 871.487 742.459 C 871.487 733.819 869.729 726.533 866.215 720.6 C 862.7 714.669 857.518 710.176 850.664 707.122 C 843.81 704.069 835.371 702.542 825.351 702.542 Z  M 658.213 702.543 C 651.646 702.543 645.973 703.466 641.193 705.309 C 636.413 707.152 632.697 709.83 630.048 713.344 C 627.396 716.86 626.074 721.09 626.074 726.043 C 626.074 731.345 627.109 735.665 629.182 739.006 C 631.256 742.347 633.991 744.967 637.39 746.867 C 640.79 748.769 644.445 750.352 648.363 751.618 C 653.316 753.115 656.944 754.355 659.249 755.334 C 661.553 756.314 663.022 757.207 663.655 758.013 C 664.288 758.819 664.607 759.74 664.607 760.775 C 664.607 761.928 664.23 762.88 663.483 763.628 C 662.734 764.375 661.437 764.75 659.596 764.75 C 658.673 764.75 656.973 764.519 654.497 764.058 C 652.021 763.598 648.796 762.476 644.822 760.69 C 640.846 758.904 636.093 756.052 630.566 752.137 L 619.68 775.81 C 624.517 778.347 629.357 780.535 634.195 782.379 C 639.033 784.22 644.101 785.632 649.401 786.612 C 654.698 787.588 660.344 788.08 666.335 788.08 C 676.587 788.08 684.42 785.976 689.834 781.773 C 695.247 777.569 697.955 770.743 697.955 761.298 C 697.955 756.229 696.917 752.198 694.846 749.201 C 692.773 746.206 690.066 743.787 686.725 741.945 C 683.383 740.102 679.813 738.489 676.012 737.105 C 671.404 735.378 667.688 734.111 664.866 733.305 C 662.042 732.499 659.968 731.662 658.646 730.799 C 657.32 729.935 656.658 728.754 656.658 727.256 C 656.658 726.45 657.003 725.701 657.694 725.009 C 658.385 724.318 659.768 723.971 661.844 723.971 C 665.069 723.971 669.13 724.98 674.024 726.996 C 678.919 729.013 683.326 731.69 687.243 735.03 L 695.537 712.05 C 691.621 710.208 687.707 708.595 683.789 707.212 C 679.871 705.83 675.839 704.706 671.692 703.841 C 667.545 702.977 663.052 702.543 658.213 702.543 Z  M 565.489 723.277 C 567.792 723.277 569.779 723.797 571.45 724.832 C 573.119 725.868 574.416 727.366 575.337 729.325 C 576.058 730.86 576.489 732.651 576.646 734.682 L 552.953 734.682 C 553.128 733.79 553.331 732.953 553.565 732.176 C 554.486 729.124 555.926 726.878 557.884 725.437 C 559.843 723.998 562.377 723.277 565.489 723.277 Z  M 824.485 723.277 C 826.788 723.277 828.776 723.797 830.447 724.832 C 832.115 725.868 833.413 727.366 834.333 729.325 C 835.055 730.86 835.485 732.651 835.642 734.682 L 811.949 734.682 C 812.124 733.79 812.327 732.953 812.561 732.176 C 813.481 729.124 814.922 726.878 816.881 725.437 C 818.839 723.998 821.374 723.277 824.485 723.277 Z  M 306.055 729.155 C 308.357 729.155 310.517 729.731 312.532 730.883 C 314.547 732.034 316.191 733.706 317.458 735.894 C 318.724 738.082 319.359 740.789 319.359 744.015 C 319.359 747.242 318.724 749.948 317.458 752.137 C 316.191 754.326 314.547 755.968 312.532 757.061 C 310.517 758.155 308.357 758.702 306.055 758.702 C 303.748 758.702 301.589 758.155 299.572 757.061 C 297.556 755.968 295.914 754.325 294.648 752.137 C 293.379 749.947 292.747 747.242 292.747 744.015 C 292.747 740.789 293.38 738.082 294.648 735.894 C 295.914 733.704 297.556 732.033 299.572 730.883 C 301.589 729.733 303.749 729.155 306.055 729.155 Z " fill="rgb(255,255,255)"/></svg>