<?xml version="1.0" encoding="UTF-8" standalone="no"?><!-- Generator: Gravit.io --><svg xmlns="http://www.w3.org/2000/svg" xmlns:xlink="http://www.w3.org/1999/xlink" style="isolation:isolate" viewBox="0 0 1024 512" width="1024pt" height="512pt"><rect x="0" y="0" width="1024.04" height="512" transform="matrix(1,0,0,1,0,0)" fill="rgb(62,80,98)"/><path d=" M 105.088 180.716 L 403.667 180.716 L 403.667 317.284 L 105.088 317.284 L 105.088 180.716 L 105.088 180.716 Z  M 207.163 213.392 L 207.163 285.972 L 230.503 285.972 L 230.503 213.392 L 207.163 213.392 L 207.163 213.392 L 207.163 213.392 L 207.163 213.392 Z  M 245.027 213.392 L 245.027 285.972 L 268.886 285.972 L 268.886 256.551 L 291.709 285.972 L 319.305 285.972 L 289.428 247.401 L 317.749 213.392 L 291.19 213.392 L 268.886 240.255 L 268.886 213.392 L 245.027 213.392 L 245.027 213.392 L 245.027 213.392 L 245.027 213.392 Z  M 326.046 213.392 L 326.046 285.972 L 347.832 285.972 L 378.434 285.972 L 378.434 267.827 L 347.832 267.827 L 347.832 257.458 L 376.359 257.458 L 376.359 239.831 L 347.832 239.831 L 347.832 231.537 L 378.434 231.537 L 378.434 213.392 L 347.832 213.392 L 326.046 213.392 L 326.046 213.392 L 326.046 213.392 L 326.046 213.392 Z  M 154.463 230.499 L 160.168 230.499 C 162.796 230.499 164.715 230.931 165.926 231.796 C 167.137 232.661 167.742 234.025 167.742 235.89 C 167.742 237.136 167.466 238.206 166.913 239.105 C 166.36 240.003 165.529 240.695 164.423 241.179 C 163.316 241.664 161.897 241.906 160.169 241.906 L 154.463 241.906 L 154.463 230.499 L 154.463 230.499 L 154.463 230.499 L 154.463 230.499 Z  M 154.463 256.938 L 162.244 256.938 C 163.558 256.938 164.785 257.007 165.927 257.145 C 167.067 257.284 168.088 257.543 168.987 257.924 C 169.886 258.305 170.595 258.858 171.113 259.584 C 171.632 260.309 171.891 261.26 171.891 262.435 C 171.891 264.37 171.441 265.787 170.542 266.686 C 169.643 267.584 168.467 268.173 167.014 268.448 C 165.562 268.724 163.972 268.863 162.243 268.863 L 154.463 268.863 L 154.463 256.938 L 154.463 256.938 L 154.463 256.938 L 154.463 256.938 Z  M 131.642 213.391 L 131.642 285.971 L 165.356 285.971 C 171.788 285.971 177.27 285.314 181.8 284.001 C 186.329 282.688 189.787 280.58 192.172 277.676 C 194.559 274.773 195.752 270.902 195.752 266.063 C 195.752 262.193 194.836 258.893 193.003 256.162 C 191.17 253.431 188.766 251.201 185.793 249.474 C 184.424 248.679 182.991 247.988 181.499 247.389 C 184.032 246.074 186.162 244.441 187.868 242.475 C 190.357 239.607 191.603 236.134 191.603 232.055 C 191.603 227.908 190.357 224.451 187.868 221.686 C 185.377 218.922 182.007 216.848 177.753 215.466 C 173.499 214.083 168.675 213.391 163.281 213.391 L 131.642 213.391 L 131.642 213.391 L 131.642 213.391 L 131.642 213.391 Z " fill-rule="evenodd" fill="rgb(129,202,159)"/><path d=" M 489.304 210.301 L 471.111 246.671 L 460.313 213.798 L 433.821 213.798 L 465.812 288.238 L 489.304 253.467 L 512.797 288.238 L 544.788 213.798 L 518.297 213.798 L 507.5 246.671 L 489.304 210.301 L 489.304 210.301 L 489.304 210.301 Z  M 802.572 221.791 L 802.572 237.777 L 794.074 237.777 L 794.074 253.266 L 802.572 253.266 L 802.572 283.741 L 821.067 283.741 L 821.067 253.266 L 829.565 253.266 L 829.565 237.777 L 821.067 237.777 L 821.067 221.791 L 802.572 221.791 L 802.572 221.791 L 802.572 221.791 Z  M 627.897 236.579 C 625.098 236.579 622.449 237.429 619.95 239.127 C 618.103 240.383 616.521 241.959 615.202 243.852 L 615.202 237.778 L 596.207 237.778 L 596.207 283.741 L 615.202 283.741 L 615.202 264.256 C 615.202 262.058 615.551 260.26 616.251 258.86 C 616.95 257.461 617.868 256.429 619 255.764 C 620.133 255.099 621.266 254.764 622.399 254.764 C 623.731 254.764 624.865 255.033 625.798 255.565 C 626.73 256.097 627.498 256.764 628.097 257.561 L 635.995 240.776 C 635.395 239.643 634.311 238.661 632.745 237.828 C 631.178 236.995 629.563 236.579 627.897 236.579 Z  M 926.813 236.579 C 924.016 236.579 921.366 237.429 918.867 239.127 C 917.019 240.383 915.436 241.96 914.117 243.853 L 914.117 237.778 L 895.124 237.778 L 895.124 283.741 L 914.117 283.741 L 914.117 264.254 L 914.118 264.256 C 914.118 262.058 914.467 260.26 915.168 258.86 C 915.867 257.461 916.784 256.429 917.917 255.764 C 919.049 255.099 920.183 254.764 921.316 254.764 C 922.649 254.764 923.782 255.033 924.715 255.565 C 925.647 256.097 926.414 256.764 927.015 257.561 L 934.912 240.776 C 934.312 239.643 933.228 238.661 931.662 237.828 C 930.096 236.995 928.48 236.579 926.813 236.579 Z  M 561.648 236.679 C 556.315 236.679 551.549 237.645 547.351 239.577 C 543.152 241.51 539.854 244.274 537.454 247.871 C 535.055 251.468 533.855 255.764 533.855 260.761 C 533.855 265.69 535.055 269.954 537.454 273.55 C 539.854 277.148 543.152 279.912 547.351 281.844 C 551.55 283.775 556.315 284.742 561.648 284.742 C 566.979 284.742 571.743 283.775 575.943 281.844 C 580.14 279.911 583.44 277.147 585.84 273.55 C 588.239 269.954 589.438 265.69 589.438 260.761 C 589.438 255.765 588.239 251.469 585.84 247.871 C 583.44 244.273 580.14 241.509 575.943 239.577 C 571.743 237.645 566.979 236.679 561.648 236.679 Z  M 664.095 236.776 C 658.63 236.776 653.764 237.742 649.499 239.674 C 645.233 241.607 641.885 244.354 639.452 247.918 C 637.019 251.483 635.803 255.762 635.803 260.758 C 635.803 265.688 637.019 269.951 639.452 273.548 C 641.885 277.145 645.233 279.909 649.499 281.841 C 653.763 283.772 658.63 284.739 664.095 284.739 C 667.759 284.739 670.608 284.438 672.641 283.84 C 674.675 283.242 676.491 282.508 678.09 281.642 L 678.09 264.056 C 677.091 265.456 675.925 266.588 674.592 267.453 C 673.259 268.32 671.876 268.953 670.444 269.353 C 669.01 269.751 667.561 269.951 666.096 269.951 C 664.297 269.951 662.612 269.603 661.047 268.902 C 659.481 268.203 658.231 267.17 657.298 265.805 C 656.364 264.44 655.899 262.759 655.898 260.758 C 655.898 259.027 656.364 257.478 657.297 256.111 C 658.23 254.745 659.48 253.647 661.046 252.814 C 662.611 251.981 664.295 251.565 666.095 251.565 C 667.227 251.565 668.526 251.749 669.994 252.115 C 671.46 252.481 672.926 253.081 674.392 253.913 C 675.858 254.745 677.091 255.895 678.09 257.36 L 678.09 239.674 C 676.491 238.942 674.675 238.276 672.641 237.676 C 670.607 237.076 667.759 236.776 664.095 236.776 Z  M 712.244 236.778 C 706.378 236.778 701.379 237.728 697.248 239.627 C 693.115 241.526 689.95 244.258 687.75 247.821 C 685.55 251.385 684.451 255.698 684.451 260.76 C 684.451 265.756 685.6 270.036 687.9 273.599 C 690.199 277.163 693.497 279.911 697.796 281.843 C 702.094 283.773 707.243 284.74 713.244 284.739 C 719.641 284.739 725.022 283.524 729.388 281.092 C 733.754 278.66 737.17 274.981 739.636 270.051 L 721.841 267.253 C 721.041 268.72 719.841 269.836 718.241 270.602 C 716.642 271.367 714.644 271.75 712.245 271.75 C 710.444 271.75 708.926 271.318 707.695 270.451 C 706.461 269.586 705.528 268.337 704.896 266.704 C 704.662 266.102 704.476 265.453 704.338 264.756 L 738.736 264.756 C 738.869 264.025 738.936 263.241 738.936 262.409 L 738.936 259.86 C 738.936 254.864 737.919 250.651 735.885 247.221 C 733.852 243.791 730.853 241.193 726.889 239.428 C 722.923 237.661 718.041 236.778 712.244 236.778 Z  M 862.085 236.778 C 856.219 236.778 851.22 237.728 847.089 239.627 C 842.956 241.526 839.792 244.258 837.591 247.821 C 835.391 251.385 834.292 255.698 834.292 260.76 C 834.292 265.756 835.441 270.036 837.74 273.599 C 840.04 277.163 843.338 279.911 847.637 281.843 C 851.935 283.773 857.084 284.74 863.085 284.739 C 869.483 284.739 874.864 283.524 879.23 281.092 C 883.596 278.66 887.011 274.981 889.477 270.051 L 871.682 267.253 C 870.882 268.72 869.682 269.836 868.082 270.602 C 866.483 271.367 864.485 271.75 862.086 271.75 C 860.285 271.75 858.767 271.318 857.536 270.451 C 856.303 269.586 855.37 268.337 854.737 266.704 C 854.503 266.102 854.318 265.453 854.179 264.756 L 888.576 264.756 C 888.71 264.025 888.777 263.241 888.777 262.409 L 888.777 259.86 C 888.777 254.864 887.76 250.651 885.726 247.221 C 883.693 243.791 880.695 241.193 876.729 239.428 C 872.764 237.661 867.882 236.778 862.085 236.778 Z  M 765.388 236.779 C 761.588 236.779 758.307 237.313 755.541 238.379 C 752.775 239.445 750.626 240.993 749.093 243.025 C 747.559 245.058 746.794 247.504 746.794 250.368 C 746.794 253.434 747.392 255.931 748.593 257.863 C 749.792 259.795 751.374 261.311 753.341 262.409 C 755.307 263.509 757.423 264.425 759.689 265.157 C 762.555 266.022 764.654 266.739 765.988 267.305 C 767.32 267.871 768.17 268.389 768.537 268.855 C 768.903 269.321 769.088 269.853 769.088 270.452 C 769.088 271.118 768.869 271.669 768.436 272.102 C 768.004 272.533 767.253 272.75 766.188 272.75 C 765.654 272.75 764.67 272.616 763.238 272.35 C 761.806 272.084 759.94 271.436 757.641 270.403 C 755.341 269.37 752.59 267.72 749.393 265.456 L 743.095 279.146 C 745.893 280.612 748.693 281.877 751.492 282.944 C 754.292 284.008 757.223 284.825 760.29 285.392 C 763.355 285.956 766.62 286.241 770.086 286.241 C 776.018 286.241 780.55 285.024 783.682 282.594 C 786.813 280.162 788.38 276.216 788.38 270.754 C 788.38 267.823 787.78 265.491 786.582 263.759 C 785.382 262.027 783.816 260.629 781.883 259.563 C 779.95 258.498 777.884 257.565 775.685 256.765 C 773.02 255.766 770.869 255.033 769.237 254.567 C 767.603 254.101 766.403 253.617 765.638 253.119 C 764.871 252.618 764.488 251.935 764.488 251.07 C 764.488 250.604 764.687 250.17 765.088 249.77 C 765.487 249.371 766.287 249.17 767.489 249.17 C 769.354 249.17 771.703 249.753 774.535 250.919 C 777.367 252.086 779.916 253.633 782.183 255.565 L 786.982 242.276 C 784.716 241.212 782.451 240.279 780.184 239.479 C 777.918 238.68 775.585 238.03 773.186 237.53 C 770.786 237.03 768.188 236.779 765.388 236.779 Z  M 711.743 248.769 C 713.075 248.769 714.225 249.069 715.192 249.668 C 716.157 250.267 716.908 251.134 717.44 252.266 C 717.858 253.154 718.107 254.189 718.197 255.364 L 704.49 255.364 C 704.592 254.847 704.709 254.363 704.844 253.914 C 705.376 252.149 706.21 250.851 707.343 250.018 C 708.476 249.185 709.943 248.769 711.743 248.769 Z  M 861.584 248.769 C 862.916 248.769 864.066 249.069 865.033 249.668 C 865.998 250.267 866.749 251.134 867.282 252.266 C 867.699 253.154 867.947 254.189 868.038 255.364 L 854.331 255.364 C 854.432 254.847 854.55 254.363 854.686 253.914 C 855.217 252.149 856.052 250.851 857.185 250.018 C 858.317 249.185 859.783 248.769 861.584 248.769 Z  M 561.649 252.167 C 562.98 252.167 564.229 252.501 565.396 253.166 C 566.562 253.832 567.513 254.799 568.246 256.065 C 568.979 257.33 569.346 258.895 569.346 260.761 C 569.346 262.626 568.979 264.191 568.246 265.456 C 567.513 266.723 566.562 267.672 565.396 268.304 C 564.229 268.937 562.98 269.253 561.649 269.253 C 560.313 269.253 559.065 268.937 557.898 268.304 C 556.731 267.672 555.782 266.722 555.049 265.456 C 554.315 264.19 553.95 262.626 553.95 260.761 C 553.95 258.895 554.316 257.33 555.049 256.065 C 555.782 254.799 556.731 253.832 557.898 253.166 C 559.065 252.501 560.314 252.167 561.649 252.167 Z " fill="#e3e3e3"/></svg>
