<?xml version="1.0" encoding="UTF-8" standalone="no"?><!-- Generator: Gravit.io --><svg xmlns="http://www.w3.org/2000/svg" xmlns:xlink="http://www.w3.org/1999/xlink" style="isolation:isolate" viewBox="0 0 1024 576" width="1024pt" height="576pt"><rect x="0" y="0" width="1024" height="576" transform="matrix(1,0,0,1,0,0)" fill="rgb(255,255,255)"/><g><path d=" M 272 217.534 L 752 217.534 L 752 338.466 L 272 338.466 L 272 217.534 Z " fill="rgb(62,80,98)"/><path d=" M 298.139 242.43 L 453.671 242.43 L 453.671 313.57 L 298.139 313.57 L 298.139 242.43 Z  M 351.311 259.451 L 351.311 297.259 L 363.469 297.259 L 363.469 259.451 L 351.311 259.451 Z  M 371.034 259.451 L 371.034 297.259 L 383.463 297.259 L 383.463 281.933 L 395.351 297.259 L 409.726 297.259 L 394.163 277.167 L 408.916 259.451 L 395.081 259.451 L 383.463 273.445 L 383.463 259.451 L 371.034 259.451 Z  M 413.238 259.451 L 413.238 297.259 L 440.527 297.259 L 440.527 287.807 L 424.586 287.807 L 424.586 282.406 L 439.446 282.406 L 439.446 273.224 L 424.586 273.224 L 424.586 268.903 L 440.527 268.903 L 440.527 259.451 L 413.238 259.451 Z  M 323.859 268.363 L 326.831 268.363 Q 328.884 268.363 329.83 269.038 Q 330.776 269.714 330.776 271.171 Q 330.776 272.144 330.344 272.846 Q 329.912 273.548 329.047 273.926 Q 328.182 274.305 326.831 274.305 L 323.859 274.305 L 323.859 268.363 Z  M 323.859 282.135 L 327.912 282.135 Q 328.938 282.135 329.831 282.243 Q 330.722 282.351 331.424 282.648 Q 332.127 282.946 332.532 283.513 Q 332.937 284.08 332.937 284.998 Q 332.937 286.51 332.234 287.213 Q 331.531 287.916 330.397 288.131 Q 329.263 288.346 327.912 288.347 L 323.859 288.347 L 323.859 282.135 Z  M 311.971 259.451 L 311.971 297.258 L 329.533 297.258 Q 334.559 297.258 338.099 296.232 Q 341.638 295.206 343.502 292.938 Q 345.367 290.669 345.367 286.888 Q 345.367 283.864 343.934 281.731 Q 342.502 279.597 340.179 278.247 C 339.461 277.831 338.713 277.468 337.942 277.161 C 339.262 276.476 340.371 275.625 341.26 274.601 Q 343.205 272.36 343.205 269.173 Q 343.205 265.933 341.26 263.772 Q 339.314 261.612 335.991 260.532 Q 332.667 259.451 328.452 259.451 L 311.971 259.451 Z " fill-rule="evenodd" fill="rgb(129,202,159)"/><path d=" M 498.28 257.841 L 488.803 276.787 L 483.178 259.663 L 469.378 259.663 L 486.043 298.44 L 498.28 280.327 L 510.517 298.44 L 527.182 259.663 L 513.382 259.663 L 507.758 276.787 L 498.28 257.841 Z  M 661.463 263.826 L 661.463 272.154 L 657.036 272.154 L 657.036 280.222 L 661.463 280.222 L 661.463 296.097 L 671.097 296.097 L 671.097 280.222 L 675.524 280.222 L 675.524 272.154 L 671.097 272.154 L 671.097 263.826 L 661.463 263.826 Z  M 570.473 271.53 Q 568.287 271.53 566.334 272.857 Q 564.891 273.839 563.86 275.318 L 563.86 272.154 L 553.966 272.154 L 553.966 296.097 L 563.86 296.097 L 563.86 285.947 Q 563.86 284.23 564.407 283.136 Q 564.954 282.043 565.839 281.523 Q 566.724 281.003 567.61 281.003 Q 568.65 281.003 569.38 281.42 Q 570.109 281.836 570.578 282.46 L 574.692 273.716 Q 574.223 272.831 572.999 272.18 Q 571.775 271.53 570.473 271.53 M 726.181 271.53 Q 723.995 271.53 722.041 272.857 Q 720.598 273.839 719.568 275.319 L 719.568 272.154 L 709.674 272.154 L 709.674 296.097 L 719.568 296.097 L 719.568 285.946 L 719.568 285.947 Q 719.568 284.23 720.115 283.136 Q 720.661 282.043 721.547 281.523 Q 722.432 281.003 723.317 281.003 Q 724.359 281.003 725.088 281.42 Q 725.816 281.836 726.286 282.46 L 730.399 273.716 Q 729.931 272.831 728.707 272.18 Q 727.483 271.53 726.181 271.53 M 535.964 271.582 Q 531.797 271.582 528.517 273.091 Q 525.236 274.602 523.361 277.412 Q 521.487 280.222 521.487 284.126 Q 521.487 287.978 523.361 290.788 Q 525.236 293.599 528.517 295.109 Q 531.797 296.618 535.964 296.618 Q 540.13 296.618 543.41 295.109 Q 546.69 293.598 548.566 290.788 Q 550.44 287.978 550.44 284.126 Q 550.44 280.223 548.566 277.412 Q 546.69 274.601 543.41 273.091 Q 540.129 271.582 535.964 271.582 Z  M 589.329 271.632 Q 585.059 271.632 581.726 273.142 Q 578.393 274.652 576.493 277.437 Q 574.592 280.221 574.592 284.125 Q 574.592 287.976 576.493 290.787 Q 578.393 293.598 581.726 295.107 Q 585.059 296.617 589.329 296.617 Q 592.192 296.617 593.781 296.148 Q 595.37 295.681 596.62 295.003 L 596.62 285.843 Q 595.838 286.937 594.797 287.612 Q 593.756 288.29 592.636 288.602 C 591.899 288.808 591.137 288.913 590.371 288.913 Q 588.965 288.914 587.741 288.367 Q 586.518 287.821 585.789 286.754 Q 585.059 285.687 585.059 284.125 Q 585.059 282.772 585.788 281.704 Q 586.518 280.637 587.741 279.986 C 588.55 279.555 589.454 279.331 590.371 279.336 Q 591.255 279.336 592.402 279.623 Q 593.548 279.909 594.693 280.559 Q 595.839 281.21 596.62 282.355 L 596.62 273.142 Q 595.37 272.57 593.781 272.101 Q 592.192 271.632 589.329 271.632 M 614.41 271.634 Q 609.827 271.634 606.599 273.118 Q 603.37 274.601 601.651 277.386 Q 599.933 280.17 599.933 284.126 Q 599.933 288.03 601.729 290.814 Q 603.525 293.598 606.884 295.108 Q 610.242 296.617 614.931 296.617 Q 619.93 296.617 623.341 294.717 Q 626.753 292.818 628.679 288.966 L 619.409 287.508 Q 618.785 288.654 617.534 289.252 Q 616.285 289.85 614.411 289.85 Q 613.003 289.85 612.041 289.174 Q 611.077 288.498 610.583 287.222 C 610.457 286.893 610.359 286.554 610.292 286.207 L 628.21 286.207 Q 628.314 285.636 628.314 284.985 L 628.314 283.657 Q 628.314 279.754 626.725 277.073 Q 625.136 274.393 622.039 273.014 Q 618.94 271.634 614.41 271.634 M 692.464 271.634 Q 687.88 271.634 684.652 273.118 Q 681.424 274.601 679.705 277.386 Q 677.986 280.171 677.986 284.126 Q 677.986 288.03 679.782 290.814 Q 681.579 293.598 684.938 295.108 Q 688.296 296.617 692.984 296.617 Q 697.983 296.617 701.394 294.717 Q 704.806 292.818 706.732 288.966 L 697.463 287.508 Q 696.838 288.654 695.588 289.252 Q 694.338 289.85 692.464 289.85 Q 691.056 289.85 690.094 289.174 Q 689.13 288.498 688.636 287.222 C 688.51 286.893 688.413 286.554 688.345 286.207 L 706.263 286.207 Q 706.368 285.636 706.368 284.985 L 706.368 283.657 Q 706.368 279.754 704.779 277.073 Q 703.19 274.393 700.092 273.014 Q 696.994 271.634 692.464 271.634 M 642.094 271.634 Q 639.125 271.634 636.964 272.468 Q 634.803 273.3 633.605 274.888 Q 632.408 276.475 632.408 278.712 Q 632.407 281.108 633.345 282.617 C 633.952 283.606 634.804 284.422 635.818 284.985 C 636.871 285.57 637.978 286.049 639.125 286.416 Q 641.364 287.093 642.406 287.535 Q 643.447 287.978 643.734 288.343 Q 644.02 288.706 644.021 289.175 Q 644.02 289.695 643.681 290.034 Q 643.343 290.371 642.51 290.372 Q 642.093 290.372 640.973 290.163 Q 639.855 289.955 638.058 289.149 Q 636.26 288.342 633.761 286.572 L 630.481 293.703 C 631.898 294.449 633.359 295.109 634.855 295.681 C 636.341 296.244 637.875 296.671 639.438 296.957 Q 641.833 297.398 644.541 297.399 Q 649.176 297.399 651.623 295.499 Q 654.07 293.599 654.07 289.332 Q 654.07 287.041 653.134 285.688 Q 652.196 284.335 650.686 283.502 C 649.649 282.934 648.569 282.447 647.457 282.045 Q 645.374 281.264 644.098 280.9 Q 642.822 280.535 642.224 280.145 Q 641.624 279.754 641.625 279.078 Q 641.625 278.713 641.937 278.401 Q 642.249 278.089 643.188 278.089 Q 644.645 278.089 646.858 279 Q 649.071 279.911 650.842 281.42 L 653.342 274.498 C 652.186 273.953 651.005 273.467 649.801 273.04 C 648.61 272.621 647.392 272.282 646.156 272.025 Q 644.281 271.635 642.094 271.634 M 614.149 277.88 Q 615.191 277.88 615.946 278.348 Q 616.701 278.817 617.117 279.701 C 617.335 280.164 617.465 280.703 617.511 281.315 L 610.371 281.315 Q 610.45 280.911 610.556 280.56 Q 610.972 279.181 611.858 278.53 Q 612.743 277.88 614.149 277.88 M 692.202 277.88 Q 693.244 277.88 693.999 278.348 Q 694.754 278.817 695.17 279.701 C 695.388 280.164 695.517 280.703 695.565 281.315 L 688.424 281.315 Q 688.503 280.911 688.609 280.56 Q 689.025 279.181 689.911 278.53 Q 690.796 277.88 692.202 277.88 M 535.964 279.65 Q 537.005 279.65 537.916 280.17 Q 538.828 280.691 539.401 281.68 Q 539.973 282.669 539.974 284.126 Q 539.974 285.584 539.401 286.572 Q 538.828 287.562 537.916 288.056 C 537.318 288.383 536.646 288.553 535.964 288.55 C 535.282 288.553 534.61 288.383 534.011 288.056 Q 533.099 287.562 532.527 286.572 Q 531.953 285.583 531.954 284.126 Q 531.954 282.669 532.527 281.68 Q 533.099 280.691 534.011 280.17 C 534.605 279.828 535.279 279.648 535.964 279.65 Z " fill="rgb(227,227,227)"/></g></svg>