<?xml version="1.0" encoding="UTF-8" standalone="no"?><!-- Generator: Gravit.io --><svg xmlns="http://www.w3.org/2000/svg" xmlns:xlink="http://www.w3.org/1999/xlink" style="isolation:isolate" viewBox="0 0 1024 258" width="1024pt" height="258pt"><rect x="0" y="0" width="1024.04" height="258" transform="matrix(1,0,0,1,0,0)" fill="rgb(62,80,98)"/><path d=" M 55.766 53.115 L 387.58 53.115 L 387.58 204.885 L 55.766 204.885 L 55.766 53.115 L 55.766 53.115 L 55.766 53.115 Z  M 169.203 89.428 L 169.203 170.087 L 195.141 170.087 L 195.141 89.428 L 169.203 89.428 L 169.203 89.428 L 169.203 89.428 L 169.203 89.428 L 169.203 89.428 Z  M 211.281 89.428 L 211.281 170.087 L 237.796 170.087 L 237.796 137.391 L 263.159 170.087 L 293.827 170.087 L 260.624 127.223 L 292.098 89.428 L 262.583 89.428 L 237.796 119.282 L 237.796 89.428 L 211.281 89.428 L 211.281 89.428 L 211.281 89.428 L 211.281 89.428 L 211.281 89.428 Z  M 301.319 89.428 L 301.319 170.087 L 325.529 170.087 L 359.538 170.087 L 359.538 149.923 L 325.529 149.923 L 325.529 138.399 L 357.232 138.399 L 357.232 118.81 L 325.529 118.81 L 325.529 109.593 L 359.538 109.593 L 359.538 89.428 L 325.529 89.428 L 301.319 89.428 L 301.319 89.428 L 301.319 89.428 L 301.319 89.428 L 301.319 89.428 Z  M 110.637 108.44 L 116.977 108.44 C 119.897 108.44 122.03 108.92 123.376 109.881 C 124.721 110.842 125.394 112.358 125.394 114.431 C 125.394 115.815 125.087 117.005 124.472 118.004 C 123.858 119.002 122.934 119.771 121.705 120.309 C 120.475 120.847 118.898 121.116 116.978 121.116 L 110.637 121.116 L 110.637 108.44 L 110.637 108.44 L 110.637 108.44 L 110.637 108.44 L 110.637 108.44 Z  M 110.637 137.822 L 119.284 137.822 C 120.744 137.822 122.107 137.898 123.377 138.052 C 124.644 138.206 125.778 138.494 126.777 138.917 C 127.776 139.341 128.564 139.955 129.14 140.762 C 129.717 141.568 130.005 142.625 130.005 143.93 C 130.005 146.081 129.504 147.656 128.505 148.655 C 127.506 149.653 126.199 150.307 124.585 150.613 C 122.971 150.92 121.204 151.074 119.283 151.074 L 110.637 151.074 L 110.637 137.822 L 110.637 137.822 L 110.637 137.822 L 110.637 137.822 L 110.637 137.822 Z  M 85.275 89.427 L 85.275 170.086 L 122.742 170.086 C 129.89 170.086 135.982 169.356 141.016 167.897 C 146.05 166.438 149.892 164.095 152.543 160.868 C 155.196 157.642 156.522 153.34 156.522 147.962 C 156.522 143.661 155.503 139.994 153.466 136.959 C 151.429 133.924 148.758 131.446 145.454 129.527 C 143.933 128.643 142.34 127.875 140.682 127.21 C 143.497 125.748 145.864 123.933 147.76 121.749 C 150.526 118.561 151.911 114.702 151.911 110.169 C 151.911 105.56 150.526 101.719 147.76 98.646 C 144.992 95.574 141.246 93.269 136.519 91.733 C 131.792 90.196 126.431 89.427 120.436 89.427 L 85.275 89.427 L 85.275 89.427 L 85.275 89.427 L 85.275 89.427 L 85.275 89.427 Z " fill-rule="evenodd" fill="rgb(129,202,159)"/><path d=" M 482.749 85.993 L 462.531 126.412 L 450.531 89.88 L 421.09 89.88 L 456.642 172.606 L 482.749 133.964 L 508.857 172.606 L 544.409 89.88 L 514.969 89.88 L 502.97 126.412 L 482.749 85.993 L 482.749 85.993 L 482.749 85.993 L 482.749 85.993 Z  M 830.887 98.762 L 830.887 116.528 L 821.443 116.528 L 821.443 133.741 L 830.887 133.741 L 830.887 167.608 L 851.44 167.608 L 851.44 133.741 L 860.884 133.741 L 860.884 116.528 L 851.44 116.528 L 851.44 98.762 L 830.887 98.762 L 830.887 98.762 L 830.887 98.762 L 830.887 98.762 Z  M 636.768 115.196 C 633.658 115.196 630.714 116.141 627.937 118.028 C 625.884 119.424 624.126 121.175 622.66 123.279 L 622.66 116.529 L 601.551 116.529 L 601.551 167.608 L 622.66 167.608 L 622.66 145.954 C 622.66 143.512 623.048 141.513 623.826 139.958 C 624.603 138.403 625.623 137.256 626.881 136.517 C 628.14 135.778 629.399 135.406 630.659 135.406 C 632.139 135.406 633.399 135.704 634.436 136.296 C 635.472 136.887 636.325 137.628 636.991 138.514 L 645.768 119.861 C 645.101 118.602 643.897 117.51 642.156 116.584 C 640.415 115.659 638.62 115.196 636.768 115.196 Z  M 968.957 115.196 C 965.848 115.196 962.904 116.141 960.126 118.028 C 958.073 119.424 956.314 121.176 954.848 123.28 L 954.848 116.529 L 933.74 116.529 L 933.74 167.608 L 954.848 167.608 L 954.848 145.952 L 954.849 145.954 C 954.849 143.512 955.237 141.513 956.016 139.958 C 956.792 138.403 957.812 137.256 959.071 136.517 C 960.329 135.778 961.589 135.406 962.848 135.406 C 964.329 135.406 965.588 135.704 966.625 136.296 C 967.661 136.887 968.513 137.628 969.181 138.514 L 977.957 119.861 C 977.29 118.602 976.086 117.51 974.346 116.584 C 972.605 115.659 970.809 115.196 968.957 115.196 Z  M 563.145 115.307 C 557.219 115.307 551.922 116.381 547.257 118.528 C 542.59 120.676 538.925 123.748 536.258 127.745 C 533.592 131.743 532.259 136.517 532.259 142.07 C 532.259 147.548 533.592 152.286 536.258 156.283 C 538.925 160.281 542.59 163.353 547.257 165.5 C 551.923 167.646 557.219 168.72 563.145 168.72 C 569.07 168.72 574.364 167.646 579.031 165.5 C 583.696 163.352 587.363 160.28 590.03 156.283 C 592.696 152.286 594.029 147.548 594.029 142.07 C 594.029 136.518 592.696 131.744 590.03 127.745 C 587.363 123.747 583.696 120.675 579.031 118.528 C 574.364 116.381 569.07 115.307 563.145 115.307 Z  M 676.996 115.415 C 670.922 115.415 665.515 116.489 660.775 118.636 C 656.034 120.784 652.314 123.837 649.61 127.798 C 646.906 131.759 645.555 136.515 645.555 142.067 C 645.555 147.545 646.906 152.283 649.61 156.28 C 652.314 160.278 656.034 163.35 660.775 165.497 C 665.514 167.643 670.922 168.717 676.996 168.717 C 681.068 168.717 684.234 168.383 686.493 167.718 C 688.753 167.053 690.771 166.238 692.549 165.275 L 692.549 145.732 C 691.438 147.288 690.142 148.546 688.661 149.507 C 687.18 150.47 685.643 151.174 684.051 151.618 C 682.458 152.061 680.848 152.283 679.219 152.283 C 677.22 152.283 675.348 151.896 673.608 151.117 C 671.868 150.341 670.479 149.193 669.442 147.676 C 668.404 146.159 667.887 144.29 667.886 142.067 C 667.886 140.143 668.404 138.422 669.441 136.903 C 670.478 135.385 671.867 134.164 673.607 133.238 C 675.346 132.313 677.218 131.85 679.218 131.85 C 680.476 131.85 681.92 132.055 683.551 132.462 C 685.18 132.869 686.81 133.535 688.439 134.46 C 690.068 135.385 691.438 136.662 692.549 138.291 L 692.549 118.636 C 690.771 117.823 688.753 117.082 686.493 116.415 C 684.233 115.749 681.068 115.415 676.996 115.415 Z  M 730.504 115.418 C 723.985 115.418 718.43 116.473 713.839 118.584 C 709.246 120.694 705.729 123.73 703.284 127.69 C 700.839 131.65 699.617 136.443 699.617 142.069 C 699.617 147.621 700.894 152.378 703.45 156.337 C 706.005 160.298 709.67 163.352 714.448 165.499 C 719.224 167.644 724.946 168.718 731.615 168.717 C 738.725 168.717 744.705 167.367 749.557 164.664 C 754.409 161.962 758.205 157.873 760.945 152.394 L 741.169 149.285 C 740.28 150.915 738.947 152.155 737.169 153.006 C 735.392 153.857 733.171 154.282 730.505 154.282 C 728.504 154.282 726.817 153.802 725.449 152.839 C 724.078 151.877 723.041 150.489 722.338 148.675 C 722.078 148.006 721.872 147.284 721.718 146.51 L 759.945 146.51 C 760.093 145.697 760.167 144.826 760.167 143.901 L 760.167 141.069 C 760.167 135.517 759.037 130.835 756.777 127.023 C 754.517 123.211 751.185 120.324 746.779 118.362 C 742.372 116.399 736.946 115.418 730.504 115.418 Z  M 897.024 115.418 C 890.505 115.418 884.95 116.473 880.359 118.584 C 875.766 120.694 872.249 123.73 869.804 127.69 C 867.359 131.65 866.137 136.443 866.137 142.069 C 866.137 147.621 867.414 152.378 869.969 156.337 C 872.525 160.298 876.19 163.352 880.968 165.499 C 885.744 167.644 891.466 168.718 898.135 168.717 C 905.245 168.717 911.225 167.367 916.077 164.664 C 920.929 161.962 924.725 157.873 927.465 152.394 L 907.689 149.285 C 906.8 150.915 905.467 152.155 903.689 153.006 C 901.912 153.857 899.691 154.282 897.025 154.282 C 895.024 154.282 893.337 153.802 891.969 152.839 C 890.598 151.877 889.561 150.489 888.858 148.675 C 888.598 148.006 888.392 147.284 888.238 146.51 L 926.464 146.51 C 926.613 145.697 926.687 144.826 926.687 143.901 L 926.687 141.069 C 926.687 135.517 925.557 130.835 923.297 127.023 C 921.037 123.211 917.705 120.324 913.298 118.362 C 908.892 116.399 903.466 115.418 897.024 115.418 Z  M 789.564 115.419 C 785.341 115.419 781.694 116.012 778.621 117.197 C 775.547 118.381 773.158 120.102 771.455 122.36 C 769.75 124.619 768.9 127.337 768.9 130.52 C 768.9 133.927 769.565 136.703 770.899 138.85 C 772.232 140.997 773.99 142.681 776.176 143.902 C 778.361 145.124 780.712 146.142 783.23 146.955 C 786.415 147.917 788.748 148.714 790.23 149.343 C 791.711 149.972 792.655 150.547 793.063 151.065 C 793.47 151.583 793.675 152.174 793.675 152.84 C 793.675 153.58 793.432 154.192 792.951 154.673 C 792.471 155.153 791.636 155.394 790.453 155.394 C 789.859 155.394 788.766 155.245 787.174 154.949 C 785.583 154.653 783.509 153.933 780.954 152.785 C 778.398 151.637 775.341 149.804 771.788 147.288 L 764.789 162.501 C 767.899 164.131 771.01 165.537 774.121 166.722 C 777.232 167.905 780.49 168.813 783.898 169.443 C 787.304 170.07 790.933 170.386 794.785 170.386 C 801.377 170.386 806.413 169.034 809.894 166.333 C 813.374 163.631 815.115 159.245 815.115 153.175 C 815.115 149.918 814.448 147.327 813.117 145.402 C 811.783 143.477 810.043 141.923 807.895 140.739 C 805.747 139.555 803.451 138.518 801.007 137.629 C 798.045 136.519 795.655 135.705 793.841 135.187 C 792.025 134.669 790.692 134.131 789.842 133.577 C 788.989 133.021 788.564 132.262 788.564 131.3 C 788.564 130.782 788.785 130.3 789.23 129.856 C 789.674 129.412 790.563 129.189 791.898 129.189 C 793.971 129.189 796.582 129.837 799.729 131.133 C 802.876 132.429 805.709 134.149 808.228 136.296 L 813.561 121.528 C 811.043 120.345 808.526 119.308 806.007 118.419 C 803.488 117.531 800.896 116.809 798.23 116.253 C 795.563 115.698 792.675 115.419 789.564 115.419 Z  M 729.947 128.743 C 731.428 128.743 732.706 129.077 733.78 129.742 C 734.853 130.408 735.687 131.371 736.279 132.629 C 736.743 133.616 737.02 134.767 737.12 136.072 L 721.887 136.072 C 722 135.498 722.13 134.96 722.281 134.461 C 722.872 132.5 723.799 131.057 725.058 130.131 C 726.317 129.206 727.947 128.743 729.947 128.743 Z  M 896.467 128.743 C 897.948 128.743 899.225 129.077 900.3 129.742 C 901.373 130.408 902.207 131.371 902.799 132.629 C 903.263 133.616 903.539 134.767 903.64 136.072 L 888.407 136.072 C 888.519 135.498 888.65 134.96 888.801 134.461 C 889.392 132.5 890.319 131.057 891.578 130.131 C 892.837 129.206 894.466 128.743 896.467 128.743 Z  M 563.146 132.52 C 564.626 132.52 566.014 132.891 567.31 133.63 C 568.606 134.37 569.663 135.444 570.478 136.851 C 571.292 138.257 571.7 139.996 571.7 142.07 C 571.7 144.143 571.292 145.882 570.478 147.288 C 569.663 148.696 568.606 149.75 567.31 150.453 C 566.014 151.156 564.626 151.507 563.146 151.507 C 561.662 151.507 560.275 151.156 558.978 150.453 C 557.681 149.75 556.626 148.695 555.812 147.288 C 554.996 145.881 554.59 144.143 554.59 142.07 C 554.59 139.996 554.997 138.257 555.812 136.851 C 556.626 135.444 557.681 134.37 558.978 133.63 C 560.275 132.891 561.663 132.52 563.146 132.52 Z " fill="rgb(255,255,255)"/></svg>