<svg xmlns="http://www.w3.org/2000/svg" style="isolation:isolate" viewBox="0 0 1024 1024"><path fill="#CA81AC" fill-rule="evenodd" d="M0 0h1024v1024H0zm382.37 330.699v207.346h66.644V330.699zm108.114 0v207.346h68.125v-84.05l65.166 84.05h78.794l-85.308-110.189 80.865-97.157h-75.832l-63.685 76.744v-76.744zm231.334 0v207.346h149.585v-51.836h-87.381v-29.624h81.454V406.23h-81.454v-23.694h87.381v-51.837zm-489.922 48.872h16.289q11.254.001 16.441 3.704 5.185 3.705 5.185 11.698.001 5.334-2.368 9.184c-1.579 2.566-3.952 4.544-7.11 5.926s-7.211 2.074-12.145 2.074h-16.292zm0 75.531h22.218q5.625-.001 10.514.592 4.887.594 8.737 2.222 3.85 1.635 6.072 4.743 2.222 3.111 2.222 8.145-.001 8.294-3.853 12.145-3.852 3.852-10.073 5.035-6.22 1.184-13.621 1.184h-22.216zm-50.885 201.65-31.448 62.898L130.9 662.8H85.109l55.296 128.734 40.606-60.133 40.607 60.133L276.913 662.8h-45.79l-18.662 56.85zm541.474 19.87v27.648h-14.688v26.784h14.688v52.703h31.967v-52.703h14.689V704.27h-14.689v-27.648zm-301.922 25.574q-7.256.001-13.736 4.406-4.788 3.261-8.207 8.172v-10.503h-32.832v79.486h32.832V750.06q-.001-5.7 1.814-9.33t4.752-5.356 5.875-1.728q3.455.001 5.875 1.384 2.418 1.383 3.974 3.453l13.651-29.028q-1.558-2.938-5.617-5.099-4.061-2.16-8.381-2.16m516.67 0q-7.256.001-13.736 4.406-4.79 3.261-8.209 8.174v-10.505h-32.831v79.486h32.831v-33.7l.001.003q0-5.7 1.815-9.33 1.813-3.63 4.752-5.356 2.936-1.726 5.875-1.728 3.455.001 5.875 1.384 2.416 1.383 3.974 3.453l13.651-29.028q-1.558-2.938-5.617-5.099-4.063-2.16-8.381-2.16m-454.102.341q-14.17 0-25.228 5.013-11.06 5.013-17.366 14.257-6.308 9.246-6.307 22.204-.001 12.789 6.307 22.118 6.306 9.332 17.366 14.343 11.056 5.01 25.228 5.011 9.5 0 14.773-1.554 5.27-1.554 9.418-3.802v-30.412q-2.591 3.63-6.048 5.875-3.455 2.247-7.169 3.284a28 28 0 0 1-7.516 1.036q-4.666 0-8.727-1.814-4.06-1.814-6.48-5.356-2.418-3.54-2.42-8.729-.001-4.49 2.419-8.035 2.42-3.543 6.48-5.703 4.059-2.16 8.727-2.161 2.934.001 6.739.953 3.801.949 7.602 3.108 3.801 2.161 6.393 5.962V707.55q-4.149-1.9-9.418-3.457-5.273-1.555-14.773-1.556m175.082.006q-9.85 0-17.02 2.766-7.17 2.764-11.145 8.035c-2.652 3.516-3.974 7.746-3.974 12.699q0 7.952 3.108 12.963 3.11 5.011 8.208 7.861 5.098 2.852 10.973 4.751 7.429 2.247 10.886 3.716t4.406 2.679q.95 1.21.952 2.762-.002 1.73-1.124 2.853-1.125 1.121-3.887 1.122-1.385 0-5.099-.692-3.714-.69-9.675-3.368-5.965-2.68-14.256-8.553L619.68 775.81a134 134 0 0 0 14.515 6.569q7.256 2.762 15.206 4.233 7.947 1.466 16.934 1.468 15.378-.001 23.499-6.307 8.12-6.307 8.121-20.475-.001-7.602-3.109-12.097-3.11-4.493-8.121-7.256t-10.713-4.84q-6.912-2.59-11.146-3.8-4.236-1.21-6.22-2.506-1.989-1.296-1.988-3.543 0-1.209 1.036-2.247t4.15-1.038q4.838 0 12.18 3.025 7.343 3.025 13.219 8.034l8.294-22.98a127 127 0 0 0-11.748-4.838 94 94 0 0 0-12.097-3.371q-6.22-1.297-13.479-1.298m-92.724 20.734q3.455.001 5.961 1.555 2.505 1.554 3.887 4.493c.721 1.535 1.152 3.326 1.309 5.357h-23.693q.262-1.34.612-2.506 1.382-4.578 4.319-6.739 2.939-2.16 7.605-2.16m258.996 0q3.454.001 5.962 1.555 2.504 1.554 3.886 4.493c.722 1.535 1.152 3.326 1.309 5.357h-23.693q.262-1.34.612-2.506 1.382-4.578 4.32-6.739 2.937-2.16 7.604-2.16m-518.43 5.878q3.454 0 6.477 1.728t4.926 5.011q1.9 3.282 1.901 8.121-.001 4.84-1.901 8.122-1.902 3.284-4.926 4.924a13.4 13.4 0 0 1-6.477 1.641q-3.459 0-6.483-1.641-3.025-1.64-4.924-4.924-1.902-3.283-1.901-8.122t1.901-8.121q1.9-3.285 4.924-5.011a12.9 12.9 0 0 1 6.483-1.728m-.002-26.786q-13.827 0-24.71 5.012-10.887 5.014-17.107 14.344t-6.221 22.29q0 12.789 6.221 22.118 6.22 9.333 17.107 14.344 10.885 5.01 24.71 5.011 13.822 0 24.709-5.011 10.885-5.013 17.107-14.344 6.22-9.33 6.22-22.118 0-12.958-6.22-22.29-6.222-9.333-17.107-14.344-10.887-5.012-24.709-5.012m260.302.173q-15.208 0-25.92 4.926-10.714 4.926-16.417 14.171-5.704 9.243-5.703 22.375 0 12.961 5.961 22.204 5.96 9.246 17.107 14.257 11.141 5.01 26.699 5.008 16.587.001 27.907-6.307 11.32-6.307 17.713-19.093l-30.759-4.839q-2.074 3.805-6.221 5.79-4.147 1.987-10.366 1.986-4.67 0-7.864-2.246-3.197-2.244-4.838-6.48a20 20 0 0 1-.963-3.368h59.454q.346-1.9.346-4.061v-4.406q0-12.96-5.272-21.859-5.272-8.897-15.551-13.478-10.282-4.58-25.313-4.58m258.996 0q-15.207 0-25.919 4.926-10.716 4.926-16.417 14.171-5.705 9.243-5.704 22.375 0 12.961 5.961 22.204 5.96 9.246 17.107 14.257 11.143 5.01 26.7 5.008 16.587.001 27.906-6.307 11.32-6.307 17.713-19.093l-30.759-4.839q-2.073 3.805-6.22 5.79-4.147 1.987-10.367 1.986-4.668 0-7.864-2.246-3.197-2.244-4.838-6.48a20 20 0 0 1-.963-3.368h59.454q.346-1.9.346-4.061v-4.406q0-12.96-5.271-21.859-5.272-8.897-15.552-13.478-10.282-4.58-25.313-4.58M166.733 330.697v207.345h96.265q27.55 0 46.951-5.627 19.4-5.626 29.618-18.069 10.224-12.439 10.223-33.177 0-16.582-7.852-28.285-7.852-11.705-20.585-19.106a94 94 0 0 0-12.263-5.954c7.234-3.76 13.315-8.424 18.187-14.039q10.663-12.293 10.664-29.768-.001-17.773-10.664-29.623-10.665-11.846-28.882-17.771t-41.321-5.926zm-75.819-93.345H943.45v390.145H90.914z"/></svg>