<svg xmlns="http://www.w3.org/2000/svg" style="isolation:isolate" viewBox="0 0 1024 258"><path fill="#3E5062" d="M0 0h1024.04v258H0z"/><path fill="#81CA9F" fill-rule="evenodd" d="M55.766 53.115H387.58v151.77H55.766zm113.437 36.313v80.659h25.938V89.428zm42.078 0v80.659h26.515v-32.696l25.363 32.696h30.668l-33.203-42.864 31.474-37.795h-29.515l-24.787 29.854V89.428zm90.038 0v80.659h58.219v-20.164h-34.009v-11.524h31.703V118.81h-31.703v-9.217h34.009V89.428zM110.637 108.44h6.34q4.38 0 6.399 1.441 2.018 1.441 2.018 4.55 0 2.075-.922 3.573t-2.767 2.305q-1.846.807-4.727.807h-6.341zm0 29.382h8.647q2.189 0 4.093.23 1.901.23 3.4.865t2.363 1.845q.865 1.21.865 3.168 0 3.226-1.5 4.725t-3.92 1.958q-2.42.46-5.302.461h-8.646zM85.275 89.427v80.659h37.467q10.723 0 18.274-2.189 7.55-2.189 11.527-7.029 3.98-4.839 3.979-12.906 0-6.451-3.056-11.003t-8.012-7.432a36.6 36.6 0 0 0-4.772-2.317c2.815-1.462 5.182-3.277 7.078-5.461q4.15-4.781 4.151-11.58-.001-6.913-4.151-11.523-4.151-4.609-11.241-6.913-7.09-2.306-16.083-2.306z"/><path fill="#FFFFFF" d="m482.749 85.993-20.218 40.419-12-36.532H421.09l35.552 82.726 26.107-38.642 26.108 38.642 35.552-82.726h-29.44l-11.999 36.532zm348.138 12.769v17.766h-9.444v17.213h9.444v33.867h20.553v-33.867h9.444v-17.213h-9.444V98.762zm-194.119 16.434q-4.665 0-8.831 2.832-3.079 2.095-5.277 5.251v-6.75h-21.109v51.079h21.109v-21.654q0-3.663 1.166-5.996 1.167-2.333 3.055-3.441 1.888-1.11 3.778-1.111 2.22.001 3.777.89 1.555.888 2.555 2.218l8.777-18.653q-1-1.888-3.612-3.277-2.61-1.388-5.388-1.388m332.189 0q-4.664 0-8.831 2.832-3.08 2.095-5.278 5.252v-6.751H933.74v51.079h21.108v-21.656l.001.002q0-3.663 1.167-5.996 1.165-2.333 3.055-3.441 1.888-1.11 3.777-1.111 2.222.001 3.777.89 1.554.888 2.556 2.218l8.776-18.653q-1-1.888-3.611-3.277-2.611-1.388-5.389-1.388m-405.812.111q-8.89 0-15.888 3.221-7 3.222-10.999 9.217t-3.999 14.325q0 8.217 3.999 14.213 4 5.997 10.999 9.217t15.888 3.22q8.887 0 15.886-3.22 6.998-3.222 10.999-9.217 3.999-5.996 3.999-14.213 0-8.327-3.999-14.325-4.001-5.997-10.999-9.217-7-3.22-15.886-3.221m113.851.108q-9.111 0-16.221 3.221t-11.165 9.162-4.055 14.269q0 8.217 4.055 14.213 4.055 5.997 11.165 9.217t16.221 3.22q6.108 0 9.497-.999 3.39-.998 6.056-2.443v-19.543q-1.667 2.334-3.888 3.775-2.222 1.445-4.61 2.111a18 18 0 0 1-4.832.665q-3 .001-5.611-1.166-2.61-1.165-4.166-3.441t-1.556-5.609q0-2.886 1.555-5.164 1.556-2.277 4.166-3.665a11.8 11.8 0 0 1 5.611-1.388q1.887 0 4.333.612 2.444.61 4.888 1.998t4.11 3.831v-19.655q-2.666-1.22-6.056-2.221-3.39-1-9.497-1m53.508.003q-9.779 0-16.665 3.166-6.889 3.165-10.555 9.106-3.667 5.94-3.667 14.379 0 8.329 3.833 14.268 3.832 5.941 10.998 9.162 7.164 3.219 17.167 3.218 10.665 0 17.942-4.053 7.278-4.052 11.388-12.27l-19.776-3.109q-1.333 2.445-4 3.721-2.665 1.276-6.664 1.276-3.003 0-5.056-1.443-2.057-1.443-3.111-4.164a13 13 0 0 1-.62-2.165h38.227q.222-1.22.222-2.609v-2.832q0-8.328-3.39-14.046t-9.998-8.661q-6.611-2.944-16.275-2.944m166.52 0q-9.778 0-16.665 3.166-6.888 3.165-10.555 9.106t-3.667 14.379q0 8.329 3.832 14.268 3.833 5.941 10.999 9.162 7.164 3.219 17.167 3.218 10.665 0 17.942-4.053 7.278-4.052 11.388-12.27l-19.776-3.109q-1.333 2.445-4 3.721-2.665 1.276-6.664 1.276-3.003 0-5.056-1.443-2.057-1.443-3.111-4.164a13 13 0 0 1-.62-2.165h38.226q.223-1.22.223-2.609v-2.832q0-8.328-3.39-14.046t-9.999-8.661-16.274-2.944m-107.46.001q-6.334 0-10.943 1.778-4.611 1.776-7.166 5.163t-2.555 8.16q-.001 5.11 1.999 8.33a14.37 14.37 0 0 0 5.277 5.052 39 39 0 0 0 7.054 3.053q4.777 1.444 7 2.388 2.221.944 2.833 1.722.611.776.612 1.775-.001 1.11-.724 1.833-.722.72-2.498.721-.891 0-3.279-.445-2.387-.443-6.22-2.164-3.835-1.722-9.166-5.497l-6.999 15.213a86 86 0 0 0 9.332 4.221 56 56 0 0 0 9.777 2.721q5.109.942 10.887.943 9.888 0 15.109-4.053 5.22-4.053 5.221-13.158 0-4.886-1.998-7.773-2-2.887-5.222-4.663a49 49 0 0 0-6.888-3.11q-4.444-1.665-7.166-2.442-2.724-.778-3.999-1.61-1.279-.834-1.278-2.277 0-.778.666-1.444t2.668-.667q3.11 0 7.831 1.944 4.72 1.943 8.499 5.163l5.333-14.768a82 82 0 0 0-7.554-3.109 60.5 60.5 0 0 0-7.777-2.166q-4-.833-8.666-.834m-59.617 13.324q2.222 0 3.833.999 1.61 1 2.499 2.887c.464.987.741 2.138.841 3.443h-15.233q.168-.862.394-1.611.888-2.941 2.777-4.33 1.889-1.388 4.889-1.388m166.52 0q2.221 0 3.833.999 1.61 1 2.499 2.887c.464.987.74 2.138.841 3.443h-15.233q.168-.862.394-1.611.888-2.941 2.777-4.33 1.888-1.388 4.889-1.388m-333.321 3.777q2.22 0 4.164 1.11 1.945 1.11 3.168 3.221 1.221 2.109 1.222 5.219t-1.222 5.218q-1.223 2.111-3.168 3.165a8.6 8.6 0 0 1-4.164 1.054 8.6 8.6 0 0 1-4.168-1.054q-1.945-1.054-3.166-3.165-1.223-2.11-1.222-5.218 0-3.11 1.222-5.219 1.22-2.11 3.166-3.221a8.3 8.3 0 0 1 4.168-1.11"/></svg>