<svg xmlns="http://www.w3.org/2000/svg" viewBox="0 0 270.93 127.77"><path d="M146.62 175.9a1.85 1.85 0 0 0-1.63.99l-1.96 3.71a2 2 0 0 0-.27-.42 1.9 1.9 0 0 0 .3-.47v-1.37a1.85 1.85 0 0 0-.78-1.51 3.75 3.75 0 0 0-2.37-.75c-.54 0-1.1.08-1.61.26a3.95 3.95 0 0 0-2.37 2.19v-.47a1.85 1.85 0 0 0-1.85-1.85h-1.37a1.85 1.85 0 0 0-1.85 1.85v.88c-.08-.28-.06-.58-.22-.84a3.8 3.8 0 0 0-1.6-1.46 4.74 4.74 0 0 0-2.07-.43h-1.67a1.85 1.85 0 0 0-1.8 1.8 1.85 1.85 0 0 0-1.82-1.8h-1.36a1.85 1.85 0 0 0-1.51 1.5 1.85 1.85 0 0 0-1.75-1.5h-1.55a1.85 1.85 0 0 0-.89.41 1.9 1.9 0 0 0-.42-.41h-1.4a1.85 1.85 0 0 0-1.84 1.85v4.24a1.85 1.85 0 0 0 1.73 1.83 1.9 1.9 0 0 0-.27.64l-1.86 10.5a1.85 1.85 0 0 0 1.83 2.16h3.35a1.85 1.85 0 0 0 1.72-1.52 1.85 1.85 0 0 0 2.4 0 1.85 1.85 0 0 0 1.73 1.52h3.35a2 2 0 0 0 .24-.07 2 2 0 0 0 .12.07h3.57a1.85 1.85 0 0 0 1.62-.96l.18-.32h.53l.2.34a1.85 1.85 0 0 0 1.6.94h3.57a1.85 1.85 0 0 0 1.31-.64c.34.19.63.46 1 .6a7.4 7.4 0 0 0 4.67.18c.66-.2 1.3-.5 1.85-.9.3-.21.48-.54.73-.82.06.06.09.15.16.21a6.7 6.7 0 0 0 2.17 1.32 7.4 7.4 0 0 0 4.68.2c.66-.2 1.3-.5 1.85-.9a5 5 0 0 0 1.47-1.67l.01-.01c.39-.72.56-1.54.56-2.34a4.5 4.5 0 0 0-1.14-3.14c-.05-.06-.13-.1-.18-.16l.37-.2a1.85 1.85 0 0 0 .74-2.49 6 6 0 0 0-2.6-2.51h1.03a1.85 1.85 0 0 0 1.85-1.86v-1.12a1.85 1.85 0 0 0-1.73-1.73v-1.4a1.85 1.85 0 0 0-1.85-1.84h-1.34a1.85 1.85 0 0 0-1.85 1.85v2.76l-2.07-3.93a1.85 1.85 0 0 0-1.64-.99" style="color:#000000;font-style:normal;font-variant:normal;font-weight:400;font-stretch:normal;font-size:medium;line-height:normal;font-family:sans-serif;-inkscape-font-specification:&quot;Jost Heavy&quot;;font-variant-ligatures:normal;font-variant-position:normal;font-variant-caps:normal;font-variant-numeric:normal;font-variant-alternates:normal;font-variant-east-asian:normal;font-feature-settings:normal;font-variation-settings:normal;text-indent:0;text-align:start;text-decoration-line:none;text-decoration-style:solid;text-decoration-color:#000000;letter-spacing:normal;word-spacing:normal;text-transform:none;writing-mode:lr-tb;direction:ltr;text-orientation:mixed;dominant-baseline:auto;baseline-shift:baseline;text-anchor:start;white-space:normal;shape-padding:0;shape-margin:0;inline-size:0;clip-rule:nonzero;display:inline;overflow:visible;visibility:visible;isolation:auto;mix-blend-mode:normal;color-interpolation:sRGB;color-interpolation-filters:linearRGB;solid-color:#000000;solid-opacity:1;vector-effect:none;fill:#8187CA;fill-opacity:1;fill-rule:nonzero;stroke:none;stroke-linecap:round;stroke-linejoin:round;stroke-miterlimit:4;stroke-dasharray:none;stroke-dashoffset:0;stroke-opacity:1;-inkscape-stroke:none;paint-order:stroke fill markers;color-rendering:auto;image-rendering:auto;shape-rendering:auto;text-rendering:auto;stop-color:#000000" transform="translate(-643.2 -1023.55)scale(5.81883)"/><path d="m116.25 191.5 2.41 3.16 2.42-3.16.51 4.08h3.35l-1.85-10.49-4.43 5.4-4.42-5.4-1.85 10.5h3.35zm12.08 2.8h5.28v-2.26h-5.28zm2.6-4.17 1.23 2.76-.2.81 1.05 1.88h3.56l-5.63-10.7-5.64 10.7h3.57l1.08-1.98-.24-.71zm8.11 1.66-2.1 1.54q.33.76 1 1.37.68.61 1.59.96.93.35 2 .35.77 0 1.5-.21.72-.22 1.3-.63t.92-1.04q.34-.64.34-1.47 0-.59-.17-1.06-.17-.48-.51-.87-.33-.38-.8-.67-.47-.3-1.07-.51-.59-.22-1.07-.37-.49-.18-.79-.36-.28-.2-.28-.5 0-.24.2-.36.21-.11.54-.11.27 0 .56.1.28.1.55.31.29.2.52.56l2.32-1.28q-.27-.52-.8-1.03-.5-.52-1.32-.86-.8-.34-1.93-.34-1.04 0-1.91.34t-1.4 1.01q-.53.68-.53 1.66 0 .76.27 1.31.29.56.7.94.43.39.89.63.47.25.82.39.82.31 1.22.5.4.18.53.33.14.14.14.34 0 .33-.26.48t-.63.15q-.44 0-.88-.19-.43-.18-.8-.54-.37-.37-.66-.87m9.6 0-2.12 1.54q.34.76 1.01 1.37.68.61 1.59.96.93.35 2 .35.77 0 1.5-.21.72-.22 1.3-.63t.92-1.04q.34-.64.34-1.47 0-.59-.17-1.06-.17-.48-.51-.87-.33-.38-.8-.67-.47-.3-1.07-.51-.59-.22-1.07-.37-.49-.18-.79-.36-.28-.2-.28-.5 0-.24.2-.36.21-.11.54-.11.27 0 .56.1.28.1.55.31.29.2.52.56l2.32-1.28q-.27-.52-.8-1.03-.5-.52-1.32-.86-.8-.34-1.93-.34-1.04 0-1.91.34t-1.4 1.01q-.53.68-.53 1.66 0 .76.27 1.31.29.56.7.94.43.39.89.63.47.25.82.39.82.31 1.22.5.4.18.53.33.14.14.14.34 0 .33-.26.48t-.63.15q-.44 0-.88-.19-.43-.18-.8-.54-.37-.37-.66-.87z" style="-inkscape-font-specification:&quot;Jost Heavy&quot;;fill:#000000;stroke-linecap:round;stroke-linejoin:round;paint-order:stroke fill markers" transform="translate(-643.2 -1023.55)scale(5.81883)"/><path d="M112.8 178.06v4.25h1.4v-4.25zm2.71 0-1.69 2.03 1.72 2.22h1.62l-1.75-2.26 1.65-2zm4.8 0v4.25h1.37v-4.25zm4.99 0v4.25h1.39v-4.25zm1.67 4.25q.74 0 1.27-.26.53-.25.81-.73.29-.48.29-1.14 0-.67-.29-1.14-.28-.47-.81-.73-.53-.25-1.27-.25h-.75v1.15h.69q.17 0 .36.03.18.03.33.13t.24.29q.1.2.1.52 0 .33-.1.52-.09.2-.24.3t-.33.12q-.19.03-.36.03h-.69v1.16zm5.74-4.25v4.25h1.37v-4.25zm6.21 2.12q0-.33.15-.55t.39-.33q.25-.1.55-.1t.52.07.38.2q.17.12.3.24v-1.37q-.24-.17-.54-.29t-.76-.12q-.55 0-1 .16-.46.16-.79.46-.32.3-.5.7-.17.42-.17.93t.18.92q.17.42.5.71.32.3.77.46.46.16 1.01.16.47 0 .76-.12.3-.12.54-.29v-1.37q-.13.13-.3.25-.16.11-.38.2-.22.07-.52.07t-.55-.1q-.24-.12-.4-.34-.14-.22-.14-.55m6.6 1.58h2.24v-.96h-2.25zm1.1-1.77.52 1.17-.09.34.45.8h1.52l-2.4-4.55-2.4 4.56h1.52l.46-.85-.1-.3zm5.56-1.93v4.25h3.07v-1.13h-1.73v-3.12z" style="color:#000000;font-style:normal;font-variant:normal;font-weight:400;font-stretch:normal;font-size:medium;line-height:normal;font-family:sans-serif;-inkscape-font-specification:&quot;Jost Heavy&quot;;font-variant-ligatures:normal;font-variant-position:normal;font-variant-caps:normal;font-variant-numeric:normal;font-variant-alternates:normal;font-variant-east-asian:normal;font-feature-settings:normal;font-variation-settings:normal;text-indent:0;text-align:start;text-decoration-line:none;text-decoration-style:solid;text-decoration-color:#000000;letter-spacing:normal;word-spacing:normal;text-transform:none;writing-mode:lr-tb;direction:ltr;text-orientation:mixed;dominant-baseline:auto;baseline-shift:baseline;text-anchor:start;white-space:normal;shape-padding:0;shape-margin:0;inline-size:0;clip-rule:nonzero;display:inline;overflow:visible;visibility:visible;isolation:auto;mix-blend-mode:normal;color-interpolation:sRGB;color-interpolation-filters:linearRGB;solid-color:#000000;solid-opacity:1;vector-effect:none;fill:#000000;fill-opacity:1;fill-rule:nonzero;stroke:none;stroke-linecap:round;stroke-linejoin:round;stroke-miterlimit:4;stroke-dasharray:none;stroke-dashoffset:0;stroke-opacity:1;-inkscape-stroke:none;paint-order:stroke fill markers;color-rendering:auto;image-rendering:auto;shape-rendering:auto;text-rendering:auto;stop-color:#000000" transform="translate(-643.2 -1023.55)scale(5.81883)"/></svg>