<svg xmlns="http://www.w3.org/2000/svg" xml:space="preserve" viewBox="0 0 270.93 270.93"><circle cx="135.47" cy="135.47" r="135.47" style="fill:#1C1C1C;stroke:none;stroke-width:4.91649;-inkscape-stroke:none;stop-color:#E3E3E3;fill-opacity:1"/><path d="M23.93 58.625A135.5 135.5 0 0 0 2.97 107.58h265.06a135.5 135.5 0 0 0-21.012-48.956zm143.536 7.8q3.154 0 5.453 1.036 2.343 1.035 3.874 2.614 1.533 1.576 2.344 3.199l-5.813 3.244a8.4 8.4 0 0 0-1.577-1.938 6 6 0 0 0-1.938-1.306 5.15 5.15 0 0 0-2.253-.496q-1.621 0-2.478.72-.856.677-.856 1.713 0 1.08.81 1.893.857.81 2.39 1.487 1.576.675 3.784 1.442a20 20 0 0 1 3.11 1.487q1.44.81 2.523 1.982a8.6 8.6 0 0 1 1.757 2.704q.63 1.531.63 3.515 0 2.387-.99 4.28a9 9 0 0 1-2.614 3.11q-1.623 1.26-3.74 1.892a13.7 13.7 0 0 1-4.28.676q-3.064 0-5.723-1.082-2.614-1.126-4.551-3.019t-3.02-4.145l5.318-3.83q.946 1.71 2.118 2.973 1.216 1.262 2.613 1.938a7 7 0 0 0 3.02.676q1.666 0 2.748-.811 1.08-.855 1.081-2.298 0-1.216-.63-1.938-.631-.765-2.028-1.442-1.397-.675-3.696-1.532a27 27 0 0 1-2.613-1.126 13.4 13.4 0 0 1-2.748-1.848 10 10 0 0 1-2.163-2.793q-.856-1.668-.856-4.01 0-2.794 1.442-4.822 1.487-2.028 3.965-3.064 2.523-1.082 5.587-1.082m-72.816.72h11.58q3.29 0 5.768.902 2.523.856 3.965 2.658 1.487 1.758 1.487 4.461 0 2.478-1.487 4.236-1.186 1.444-3.103 2.34 1.348.47 2.517 1.22a8.3 8.3 0 0 1 2.794 2.793q1.081 1.666 1.081 4.056 0 3.153-1.532 5.092-1.486 1.936-4.235 2.883-2.748.902-6.488.902H94.65zm29.694 0h7.615v20.638q0 2.388 1.262 3.875t3.785 1.487q2.568 0 3.83-1.487t1.262-3.875V67.146h7.615v21.178q0 2.974-.991 5.181-.946 2.208-2.704 3.65-1.713 1.397-4.056 2.118-2.298.72-4.956.721-2.659 0-4.957-.721-2.298-.72-4.055-2.118-1.712-1.442-2.703-3.65-.947-2.208-.947-5.181zm-22.079 5.903v6.624h3.154q1.307 0 2.208-.405.946-.405 1.442-1.127.495-.766.495-1.847 0-1.623-1.126-2.433-1.08-.812-3.019-.812zm0 11.942v7.795h3.875q1.488 0 2.659-.361 1.171-.404 1.847-1.262.72-.9.72-2.433 0-.99-.404-1.712a3.24 3.24 0 0 0-1.127-1.172q-.72-.45-1.667-.63a8.4 8.4 0 0 0-2.028-.225z" style="stroke-width:5.33032;stop-color:#E3E3E3;fill:#E3E3E3;fill-opacity:1"/><g style="font-weight:900;font-size:77.2703px;line-height:.85;font-family:Jost;-inkscape-font-specification:&quot;Jost Heavy&quot;;stroke-width:135.223;stop-color:#E3E3E3;fill:#E3E3E3;fill-opacity:1"><path d="m46.004 172.553-9.35 11.668q2.164 1.159 5.023 2.163 2.781 1.082 6.104 1.777 3.323.696 6.877.696 4.173 0 8.036-.85 3.864-.773 6.877-2.55t4.791-4.79q1.777-2.937 1.777-7.264V115.45H57.208v53.703q0 3.245-1.545 4.482-1.546 1.313-3.323 1.313-1.468 0-3.168-.773-1.777-.772-3.168-1.622m55.521-30.058q0-4.018 1.469-6.955 1.468-3.013 4.172-4.636 2.705-1.7 6.49-1.7 4.019 0 6.646 1.7 2.705 1.623 4.095 4.636 1.391 2.937 1.391 6.955 0 3.94-1.468 6.954t-4.172 4.713q-2.705 1.623-6.491 1.623t-6.49-1.623q-2.705-1.7-4.173-4.713-1.469-3.014-1.469-6.954m-18.004 0q0 6.49 2.164 11.9 2.24 5.33 6.259 9.272 4.018 3.94 9.504 6.027 5.564 2.163 12.209 2.163t12.131-2.163q5.564-2.087 9.582-6.027t6.181-9.273q2.241-5.409 2.241-11.9 0-6.49-2.24-11.744-2.241-5.255-6.337-9.041-4.095-3.786-9.581-5.795t-11.977-2.01q-6.336 0-11.822 2.01-5.487 2.009-9.582 5.795t-6.413 9.04-2.319 11.746m67.654-27.045v54.09h17.385v-54.09zm61.465 0v24.495l-35.158-27.2v56.794h16.227v-24.494l35.158 27.199V115.45zM86.725 181.13v36.317q0 5.795 1.854 9.813 1.932 3.94 5.255 6.414 3.322 2.395 7.572 3.477 4.327 1.159 9.118 1.159 4.79 0 9.04-1.16 4.328-1.081 7.65-3.476 3.323-2.473 5.178-6.414 1.931-4.018 1.931-9.813V181.13h-17v34.77q0 3.246-1.699 5.332-1.623 2.01-5.1 2.01t-5.177-2.01q-1.623-2.086-1.623-5.332v-34.77zm64.307 33.535-11.436 8.345q1.854 4.096 5.486 7.418t8.577 5.177q5.022 1.932 10.818 1.932 4.172 0 8.113-1.159t7.032-3.4q3.168-2.24 5.022-5.64 1.855-3.478 1.855-7.96 0-3.168-.928-5.717-.927-2.628-2.781-4.714-1.778-2.086-4.327-3.632-2.55-1.622-5.796-2.781-3.168-1.16-5.795-2.01-2.627-.927-4.25-1.931-1.545-1.082-1.545-2.705 0-1.313 1.081-1.931 1.16-.619 2.937-.619 1.468 0 3.013.541 1.546.541 3.014 1.7 1.545 1.082 2.782 3.014l12.595-6.954q-1.469-2.782-4.328-5.564-2.781-2.782-7.186-4.636-4.327-1.855-10.431-1.855-5.64 0-10.354 1.855t-7.573 5.486-2.859 8.963q0 4.096 1.468 7.11 1.546 3.013 3.787 5.1 2.318 2.085 4.79 3.399 2.55 1.314 4.482 2.086 4.404 1.7 6.568 2.705 2.164 1.004 2.859 1.777.773.773.773 1.854 0 1.778-1.391 2.628-1.391.772-3.4.772-2.395 0-4.79-1.004-2.319-1.005-4.328-2.936-2.009-2.01-3.554-4.714" aria-label="JOIN US" style="text-align:center;text-anchor:middle;fill:#E3E3E3;fill-opacity:1"/></g><path d="m40.004 199.17-10.7 7.741 1.498 2.072 1.013-.733q-.242.647-.207 1.299.05.905.615 1.687.566.782 1.436 1.176a3.64 3.64 0 0 0 1.916.308q1.058-.097 2.114-.862 1.07-.774 1.48-1.739.42-.951.307-1.915a3.56 3.56 0 0 0-.668-1.732 3.1 3.1 0 0 0-1.41-1.112 3.2 3.2 0 0 0-1.298-.21l5.403-3.91zm196.055 3.78q-.54.177-1.052.457a5.5 5.5 0 0 0-.97.66q-.458.381-.85.933-.492.69-.668 1.375-.166.672.008 1.273.184.589.763 1.001.607.432 1.18.446.573.012 1.092-.22a8 8 0 0 0 1.005-.594 7 7 0 0 1 .86-.594q.353-.205.594-.221a.6.6 0 0 1 .433.121q.22.157.25.408.03.249-.196.567a2.5 2.5 0 0 1-.456.465 5 5 0 0 1-.818.478q-.51.219-1.254.417l.76 1.85a9 9 0 0 0 1.266-.49q.615-.31 1.18-.782.587-.475 1.07-1.151.814-1.145.746-2.13-.072-1.006-1.093-1.734-.593-.422-1.138-.415a2.4 2.4 0 0 0-1.074.253q-.53.247-1.063.615a25 25 0 0 0-.86.594 2.5 2.5 0 0 1-.615.31.53.53 0 0 1-.463-.08.43.43 0 0 1-.19-.345q-.003-.23.203-.52.305-.427.916-.76a4.2 4.2 0 0 1 1.256-.479zm-200.82 3.335q.379.009.7.151.44.204.7.56.296.412.34.904.054.482-.166.956-.209.465-.702.821a2.16 2.16 0 0 1-1.013.42 1.9 1.9 0 0 1-.96-.142 1.9 1.9 0 0 1-.737-.616 1.75 1.75 0 0 1-.315-.839q-.046-.468.152-.945.21-.487.72-.855.507-.367 1.022-.406.132-.011.259-.009m9.582 2.107a1.24 1.24 0 0 0-.83.306 1.27 1.27 0 0 0-.491.975q-.021.588.366 1.058.398.484.968.564.58.092 1.051-.295.471-.388.48-.964.03-.574-.367-1.059a1.53 1.53 0 0 0-.968-.563q-.106-.02-.21-.022m185.758.505-1.628 1.972 3.657 3.019q.353.29.493.626t.077.679q-.054.33-.322.655-.4.483-.848.443-.463-.053-.985-.484l-3.656-3.018-1.703 2.063 3.865 3.191q1.07.885 2.105.881 1.031-.026 1.959-1.15.55-.665.642-1.336a2.8 2.8 0 0 0-.177-1.354l.9.744 1.628-1.972zm-181.854 1.674-9.693 8.972 1.668 1.802 2.898-2.683-.712 5.044 2.035 2.2.871-5.79 4.616.25-2.07-2.237-3.924-.223 5.979-5.533zm-6.834.185-6.016 4.948 1.571 1.91 6.015-4.95zm174.59 5.886-1.782 1.833 9.466 9.211 1.782-1.832-.896-.872q.678.126 1.316-.02a3.1 3.1 0 0 0 1.556-.896q.674-.69.912-1.617a3.64 3.64 0 0 0-.026-1.939q-.278-1.026-1.212-1.936-.947-.921-1.968-1.158a3.64 3.64 0 0 0-1.94.026 3.56 3.56 0 0 0-1.59.956 3.1 3.1 0 0 0-.854 1.58 3.2 3.2 0 0 0 .016 1.315zm7.814 3.244q.242 0 .494.068.493.125.93.55.436.425.588.926.138.49.025.97-.125.469-.48.832a1.75 1.75 0 0 1-.772.454 1.94 1.94 0 0 1-.958.013q-.516-.124-.966-.562-.448-.436-.575-.938a1.9 1.9 0 0 1-.025-.97q.124-.468.432-.784.355-.363.832-.49.232-.069.475-.07m-173.249 2.333a3.4 3.4 0 0 0-1.019.159q-1.006.314-1.857 1.233-.84.908-1.064 1.946a3.7 3.7 0 0 0 .151 2.08q.399 1.038 1.393 1.959 1.094 1.012 2.243 1.292 1.161.29 2.391-.14l-1.298-1.963q-.556.177-1.089.03-.52-.136-1.017-.596-.435-.403-.56-.865a1.63 1.63 0 0 1 .082-.986q.111-.291.315-.585l4.358 4.037a1 1 0 0 0 .22-.189l.254-.273q.85-.92 1.09-1.899a3.2 3.2 0 0 0-.135-1.948q-.362-.981-1.355-1.901-.995-.92-2.06-1.24a3.7 3.7 0 0 0-1.043-.151m.79 2.123q.118 0 .233.018.458.079.88.47.336.31.446.69.111.378-.006.779a1.8 1.8 0 0 1-.34.63l-2.332-2.158q.199-.146.387-.242a1.7 1.7 0 0 1 .733-.187m165.4.204q-.429 0-.867.118-1.014.255-2.034 1.146t-1.45 1.917a3.5 3.5 0 0 0-.212 2.05q.205 1.035 1.03 1.978.812.932 1.821 1.264a3.7 3.7 0 0 0 2.084.07q1.076-.287 2.096-1.178 1.123-.98 1.523-2.092.412-1.125.115-2.393l-2.09 1.083q.118.57-.086 1.086-.19.503-.7.948-.447.39-.92.466a1.64 1.64 0 0 1-.972-.186 2.8 2.8 0 0 1-.547-.377l4.475-3.905a1 1 0 0 0-.164-.239l-.245-.28q-.824-.945-1.773-1.285a3.2 3.2 0 0 0-1.084-.191M57.002 226.61l-1.889 9.006 4.834-2.128-.8 5.245 8.239-4.098L65.268 233l-3.73 2.168.985-5.04-4.562 2.275 1.158-4.156zm159.395.13q.266 0 .531.11.313.128.591.405l-2.394 2.089a3 3 0 0 1-.199-.41q-.192-.53-.065-.977.125-.448.56-.826.345-.3.733-.37.122-.022.243-.022m-13.63 1.594-1.97 1.465 7.882 10.599 1.97-1.466-2.356-3.168 4.938 1.248 2.405-1.788-5.663-1.486.743-4.562-2.446 1.819-.641 3.875zm-2.965 3.735a1.5 1.5 0 0 0-.88.27q-.509.334-.664.902-.163.552.171 1.063.335.51.916.593.582.084 1.092-.25.523-.344.664-.903a1.27 1.27 0 0 0-.18-1.076q-.335-.51-.907-.58a2 2 0 0 0-.212-.02m2.514 3.187-2.067 1.357 4.275 6.511 2.067-1.356zm-133.734.637a3.8 3.8 0 0 0-1.688.37q-.977.461-1.64 1.505-.655 1.029-.66 2.109t.58 2.055q.584.973 1.656 1.655 1.071.682 2.187.79a3.9 3.9 0 0 0 2.106-.346q.991-.454 1.646-1.482.663-1.043.654-2.133a3.9 3.9 0 0 0-.58-2.054q-.57-.965-1.641-1.647-1.071-.681-2.202-.798a4 4 0 0 0-.418-.024m122.168.082-2.22 1.267 6.546 11.472 2.221-1.268-.62-1.085q.616.308 1.27.344a3.1 3.1 0 0 0 1.743-.429q.837-.478 1.324-1.302a3.63 3.63 0 0 0 .511-1.87q.018-1.063-.629-2.196-.655-1.146-1.57-1.658a3.64 3.64 0 0 0-1.87-.512q-.957 0-1.795.478a3.1 3.1 0 0 0-1.257 1.283 3.2 3.2 0 0 0-.348 1.268zM69.108 238.21a1.76 1.76 0 0 1 .957.292q.415.264.63.682.23.427.194.926-.021.508-.35 1.022-.325.514-.777.75-.427.23-.911.202a1.75 1.75 0 0 1-.885-.282 1.78 1.78 0 0 1-.847-1.602q.022-.509.35-1.022.326-.514.777-.75.423-.22.862-.218m119.527.534-2.228 1.032-.6 16.142 2.32-1.075zm-112.528 1.172-3.722 6.842 2.217 1.206 1.836-3.377q.267-.49.587-.76t.67-.31.677.136q.298.162.435.371.15.218.233.493l2.01-1.392a1.3 1.3 0 0 0-.294-.7 2 2 0 0 0-.633-.537q-.565-.308-1.288-.219a3 3 0 0 0-.972.298l.46-.846zm120.778 1.274q.485-.003.932.268.439.256.74.786.303.53.309 1.052a1.9 1.9 0 0 1-.244.939q-.25.416-.691.667-.383.219-.868.223a1.94 1.94 0 0 1-.924-.253q-.462-.263-.773-.807-.31-.545-.293-1.061a1.9 1.9 0 0 1 .244-.939q.25-.415.633-.634.441-.252.935-.24m-23.717 2.626-2.307.841 4.527 12.409 2.307-.841-1.353-3.71 4.375 2.607 2.816-1.027-5.003-3.042 2.015-4.16-2.863 1.045-1.722 3.53zm-89.681.26-.144.001a4 4 0 0 0-2.059.61q-.9.57-1.422 1.692-.515 1.105-.379 2.177.15 1.08.858 1.968.722.897 1.889 1.44.798.372 1.43.46.638.074 1.142-.047l1.05-2.256q-.371.238-.816.31a3.1 3.1 0 0 1-.893.033 3 3 0 0 1-.871-.257 2.25 2.25 0 0 1-.845-.673 1.9 1.9 0 0 1-.382-.943q-.053-.53.211-1.098.243-.522.682-.821.438-.3.983-.346a2.14 2.14 0 0 1 1.066.197q.384.18.726.488a3 3 0 0 1 .572.696q.246.394.304.832l1.058-2.271a3.5 3.5 0 0 0-.722-.86q-.465-.441-1.265-.813-1.093-.51-2.173-.519m7.698 3.24q-.214 0-.422.02a3.5 3.5 0 0 0-1.906.781q-.814.67-1.258 1.842-.437 1.155-.253 2.203t.922 1.87q.761.812 2.028 1.291 1.395.528 2.564.354 1.185-.168 2.163-1.028l-1.94-1.332q-.45.374-1 .438-.533.07-1.166-.17-.554-.21-.844-.591a1.64 1.64 0 0 1-.296-.944q-.005-.312.073-.66l5.557 2.1a1 1 0 0 0 .133-.257l.132-.349q.442-1.171.295-2.17a3.2 3.2 0 0 0-.858-1.753q-.704-.774-1.97-1.253-1.03-.39-1.954-.392m.6 1.838q.331-.004.701.136.428.162.673.472t.287.724q.035.336-.078.713l-2.972-1.124q.129-.208.268-.37.375-.419.83-.518.142-.032.292-.033m15.078.196-.63 2.635-1.334-.32-.492 2.06 1.334.318-1.319 5.517 2.388.571 1.319-5.517 1.35.323.493-2.058-1.351-.323.63-2.635zm-6.991.854q-.136 0-.268.01-.69.06-1.203.42-.497.364-.7 1.046-.213.714-.04 1.26t.561.962q.41.405.888.76.547.357.84.62.309.27.401.491a.6.6 0 0 1 .025.45.57.57 0 0 1-.304.368q-.227.11-.6-.002a2.5 2.5 0 0 1-.588-.28 5 5 0 0 1-.716-.62 9 9 0 0 1-.8-1.052l-1.506 1.318q.387.54.874 1.038.492.483 1.121.864.64.403 1.435.64 1.347.4 2.256.018.93-.394 1.288-1.595.208-.697.025-1.212a2.4 2.4 0 0 0-.587-.934 7.3 7.3 0 0 0-.926-.806q-.489-.375-.84-.622a2.5 2.5 0 0 1-.492-.482.53.53 0 0 1-.074-.463.43.43 0 0 1 .264-.293q.217-.077.558.025.503.15 1.016.62.519.456.859 1.034l1.35-1.33a6 6 0 0 0-.772-.848 5.5 5.5 0 0 0-.939-.703 5 5 0 0 0-1.158-.504 4.4 4.4 0 0 0-1.248-.198m71.152.072-2.466.676 1.253 4.572q.121.442.043.796a1.17 1.17 0 0 1-.327.6q-.233.239-.641.35-.605.167-.948-.125-.348-.31-.527-.962l-1.254-4.573-2.58.708 1.326 4.834q.367 1.338 1.214 1.931.86.573 2.264.187.832-.228 1.294-.723.456-.511.633-1.21l.31 1.127 2.465-.676zm-57.287 3.252a4.6 4.6 0 0 0-1.286.18 3.5 3.5 0 0 0-1.725 1.126q-.675.81-.889 2.045-.211 1.219.166 2.212a3.7 3.7 0 0 0 1.258 1.663q.9.654 2.234.886 1.469.255 2.585-.135 1.133-.387 1.93-1.418l-2.156-.942q-.371.451-.898.618-.51.169-1.178.053-.584-.101-.941-.421a1.63 1.63 0 0 1-.467-.872 2.8 2.8 0 0 1-.052-.663l5.852 1.018q.053-.111.082-.278l.064-.367q.214-1.235-.119-2.186a3.2 3.2 0 0 0-1.172-1.562q-.836-.626-2.171-.858a6.3 6.3 0 0 0-1.117-.1m42.743.275-2.431.341.165 1.174a3 3 0 0 0-1.045-.742q-.804-.365-1.777-.23a3.84 3.84 0 0 0-1.716.686q-.777.555-1.191 1.5-.397.945-.214 2.254.181 1.29.824 2.09.66.796 1.56 1.132.9.318 1.84.186.972-.137 1.647-.693.495-.415.797-1.016l.17 1.205q.097.705-.104 1.212a1.67 1.67 0 0 1-.587.817 1.93 1.93 0 0 1-.937.388q-.486.068-.895-.045a1.4 1.4 0 0 1-.687-.382 1.7 1.7 0 0 1-.379-.75l-2.448.343q.228 1.01.805 1.717.58.722 1.564 1.028 1 .305 2.426.104 1.19-.167 2.085-.737a3.4 3.4 0 0 0 1.338-1.556q.457-1.005.25-2.48zm-36.035.843-.836 7.744 2.508.271.413-3.821q.06-.556.254-.927.194-.37.501-.542.308-.17.678-.13.338.036.543.177.223.144.403.367l1.33-2.053a1.3 1.3 0 0 0-.54-.535 2 2 0 0 0-.789-.256q-.64-.069-1.274.288a3 3 0 0 0-.785.646l.103-.958zm25.74.278q-.052 0-.106.005-.641.045-1.203.509a3 3 0 0 0-.659.774l-.067-.961-2.517.176.544 7.77 2.517-.176-.269-3.835q-.039-.557.086-.956t.398-.622.645-.249q.337-.024.565.08.245.1.462.29l.945-2.256a1.3 1.3 0 0 0-.624-.432 2 2 0 0 0-.717-.117m-32.08.345q.195-.002.406.034.45.078.75.336.298.259.418.657.097.325.058.715l-3.13-.544a3 3 0 0 1 .192-.413q.29-.483.718-.666.267-.114.589-.12m21.664.104q-1.27.003-2.285.513a3.9 3.9 0 0 0-1.588 1.426q-.573.916-.57 2.152.003 1.22.58 2.132a3.9 3.9 0 0 0 1.596 1.419q1.017.506 2.287.503t2.268-.514a3.9 3.9 0 0 0 1.588-1.426q.591-.915.588-2.135-.004-1.236-.598-2.15a3.9 3.9 0 0 0-1.595-1.418q-1-.506-2.27-.502m16.99.884q.203 0 .413.045.335.073.62.273.3.196.5.527.219.33.284.799.087.62-.122 1.077-.21.458-.598.734a1.9 1.9 0 0 1-.81.319 2 2 0 0 1-.953-.089 1.7 1.7 0 0 1-.76-.543 2.03 2.03 0 0 1-.395-.987q-.085-.604.107-1.059.193-.454.581-.73a2 2 0 0 1 1.134-.366m-16.984 1.233q.49-.002.897.234.425.237.662.676.255.44.257 1.05 0 .609-.252 1.05a1.7 1.7 0 0 1-.658.662q-.406.238-.897.24a1.79 1.79 0 0 1-1.577-.894q-.255-.44-.257-1.05 0-.609.252-1.05.252-.44.659-.679.405-.238.914-.24m25.637.495a2 2 0 0 0-.378.042 1.54 1.54 0 0 0-1.018.678q-.354.54-.224 1.17a1.5 1.5 0 0 0 .672.985q.54.355 1.203.217.697-.144 1.035-.682.338-.536.207-1.166a1.53 1.53 0 0 0-.655-.989 1.45 1.45 0 0 0-.842-.255m-33.715 2.421a1.52 1.52 0 0 0-1.035.392 1.5 1.5 0 0 0-.523 1.071 1.5 1.5 0 0 0 .39 1.126 1.54 1.54 0 0 0 1.105.525q.71.043 1.177-.387a1.53 1.53 0 0 0 .506-1.073 1.53 1.53 0 0 0-.373-1.125q-.413-.482-1.122-.525z" style="font-weight:700;font-size:16.9333px;font-family:Jost;-inkscape-font-specification:&quot;Jost Bold&quot;;text-align:center;letter-spacing:.41275px;text-anchor:middle;stroke-width:22.8399;fill:#E3E3E3;fill-opacity:1"/><path d="M85.686 21.402v32.984h12.91q3.912 0 6.786-.942 2.874-.99 4.429-3.016 1.602-2.026 1.602-5.325 0-2.497-1.13-4.24a8.66 8.66 0 0 0-2.922-2.922 12.5 12.5 0 0 0-2.632-1.274q2.005-.937 3.244-2.448 1.555-1.838 1.555-4.43 0-2.827-1.555-4.664-1.507-1.885-4.146-2.78-2.592-.943-6.032-.943zm31.287 0v32.984h8.105V21.402Zm15.079 0v32.984h8.246v-14.42l11.591 14.42h9.66L147.46 36.858l13.382-15.456h-9.33l-11.214 13.013V21.402Zm32.937 0v32.984h21.91v-6.55h-14.277V40.25h13.335v-6.408h-13.335v-5.89h14.277v-6.55h-14.277zm-71.34 6.173h3.298q2.026 0 3.157.848 1.179.848 1.178 2.545 0 1.13-.518 1.932-.518.754-1.508 1.177-.942.424-2.309.424H93.65zm0 12.487H97.7a8.8 8.8 0 0 1 2.12.235q.99.189 1.744.66t1.178 1.225.424 1.79q0 1.603-.754 2.545-.706.895-1.932 1.32-1.224.376-2.78.377h-4.052z" style="font-weight:700;font-size:51.6718px;line-height:.85;font-family:Jost;-inkscape-font-specification:&quot;Jost Bold&quot;;text-align:center;text-anchor:middle;stroke-width:82.46;fill:#E3E3E3;fill-opacity:1"/><text xml:space="preserve" x="75.5" y="316.49" style="font-style:normal;font-variant:normal;font-weight:700;font-stretch:normal;font-size:3.175px;line-height:normal;font-family:Jost;-inkscape-font-specification:&quot;Jost Bold&quot;;text-align:center;text-decoration-color:#E3E3E3;text-anchor:middle;fill:#E3E3E3;fill-opacity:1;stroke:none;stroke-width:5.55625;-inkscape-stroke:none;stop-color:#E3E3E3"><tspan x="75.5" y="316.49" style="stroke-width:5.55625">IKE</tspan></text><path d="M135.467 0A135.5 135.5 0 0 0 69.67 17.126h131.708A135.5 135.5 0 0 0 135.467 0" style="fill:#E3E3E3;fill-opacity:1;stroke:none;stroke-width:5.96787;-inkscape-stroke:none;stop-color:#E3E3E3"/><path d="M8.316 107.58a130.5 130.5 0 0 0-3.007 27.887c0 23.705 6.348 45.934 17.432 65.082l4-2.31c-10.678-18.462-16.792-39.9-16.792-62.772 0-9.586 1.078-18.918 3.11-27.886zm8.32 0a122.3 122.3 0 0 0-3.208 27.887c0 22.227 5.952 43.068 16.344 61.022l3.75-2.164c-10.013-17.312-15.745-37.412-15.745-58.858 0-9.61 1.16-18.947 3.33-27.886zm233.19 0a118 118 0 0 1 3.33 27.887c0 21.446-5.732 41.546-15.744 58.858l3.749 2.164c10.392-17.954 16.345-38.795 16.345-61.022 0-9.594-1.112-18.93-3.208-27.886zm8.048 0a126 126 0 0 1 3.11 27.887c0 22.873-6.113 44.31-16.79 62.773l3.999 2.309c11.084-19.148 17.432-41.377 17.432-65.082 0-9.573-1.044-18.901-3.007-27.886z" style="color:#E3E3E3;fill:#E3E3E3;-inkscape-stroke:none"/></svg>