<svg xmlns="http://www.w3.org/2000/svg" style="isolation:isolate" viewBox="0 0 1280 1280"><path fill="#8187CA" fill-rule="evenodd" d="M496.222 459.373a280.5 280.5 0 0 0 42.515-69.824 277.6 277.6 0 0 0 16.359-52.657 281 281 0 0 0 5.703-56.466 281 281 0 0 0-5.703-56.466 277.5 277.5 0 0 0-16.359-52.667 280.9 280.9 0 0 0-60.104-89.128 281 281 0 0 0-89.111-60.11 279 279 0 0 0-52.661-16.36A281 281 0 0 0 280.4 0a281 281 0 0 0-56.461 5.695 279 279 0 0 0-52.662 16.36 281 281 0 0 0-89.12 60.11 281.1 281.1 0 0 0-60.104 89.128A279 279 0 0 0 5.694 223.96 281 281 0 0 0 0 280.426a281 281 0 0 0 5.694 56.466 279 279 0 0 0 16.359 52.657 281 281 0 0 0 60.104 89.129 280.9 280.9 0 0 0 89.12 60.109 275.5 275.5 0 0 0 38.508 13.064c19.987 53.132 44.15 105.088 72.638 155.151 40.503 70.917 89.19 136.686 144.647 195.986 109.451 117.232 242.119 212.854 389.934 278.556 145.281 64.391 303.473 98.339 462.996 98.456V979.483c-116.508.129-234.124-25.231-341.269-72.694-109.346-48.232-209.421-120.677-292.153-209.027-39.746-42.55-74.605-89.555-103.163-139.694-17.956-31.342-33.655-64.406-47.193-98.695m-22.715 24.29a280.6 280.6 0 0 1-83.985 55.124 278 278 0 0 1-52.661 16.361 281 281 0 0 1-56.461 5.704 278 278 0 0 1-35.66-2.271c18.078 45.667 39.343 90.321 63.902 133.459 39.304 68.83 86.602 132.714 140.48 190.331 73.187 78.372 157.007 146.859 248.859 202.784l124.88-205.025c-72.805-44.39-139.783-99.199-198.335-161.75-41.324-44.233-77.572-93.123-107.331-145.349-16.367-28.595-30.914-58.492-43.688-89.368m693.017 557.942c10.13 1.294 18.628 3.926 25.601 8.033s12.662 8.857 17.058 14.326c4.397 5.468 7.725 10.813 9.927 16.081a868 868 0 0 1-34.561 16.331c-1.818-3.751-3.924-6.79-6.327-9.122s-4.88-4.148-7.443-5.449-5.107-2.112-7.646-2.433q-3.005-.38-5.506.041-2.502.42-4.008 1.718t-1.856 3.83c-.308 2.249.233 4.294 1.64 6.13 1.405 1.836 3.418 3.572 6.045 5.195 2.625 1.622 5.708 3.293 9.249 4.994 3.556 1.709 7.345 3.551 11.458 5.556 5.553 2.723 10.49 5.721 14.813 9.025 4.323 3.303 7.991 6.98 10.997 11.053a41.5 41.5 0 0 1 6.594 13.39c1.381 4.858 1.899 10.193 1.516 15.997-.542 8.216-2.759 15.356-6.754 21.407-3.992 6.048-9.19 10.888-15.604 14.473-6.413 3.584-13.595 6.053-21.504 7.364s-15.97 1.449-24.111.41c-11.308-1.444-21.572-4.69-30.662-9.647s-16.548-11.116-22.349-18.376c-5.802-7.263-9.653-14.956-11.636-23.016a942 942 0 0 0 35.701-16.88c2.012 5.368 4.599 10.135 7.765 14.291 3.165 4.154 6.831 7.468 10.977 9.926 4.147 2.458 8.488 3.983 12.989 4.568 2.613.339 4.979.314 7.089-.07q3.165-.579 5.154-2.488 1.986-1.909 2.354-5.082c.23-1.973-.257-3.744-1.451-5.315-1.198-1.574-3.683-3.508-7.445-5.846-3.825-2.377-9.413-5.544-17.078-9.84-3.321-1.914-7.091-4.418-11.265-7.517-4.176-3.101-7.993-6.896-11.432-11.373s-5.986-9.688-7.653-15.618c-1.667-5.934-1.777-12.591-.4-19.989 1.791-9.625 5.76-17.262 11.737-22.965 5.986-5.709 13.142-9.587 21.507-11.724 8.364-2.136 17.159-2.584 26.52-1.389m-196.19-42.908a928 928 0 0 0 40.706 13.585l-28.214 91.569c-1.17 3.799-1.553 7.356-1.128 10.679.424 3.321 1.752 6.212 3.991 8.661 2.238 2.447 5.474 4.293 9.694 5.508 4.218 1.215 7.941 1.373 11.138.49 3.198-.882 5.86-2.624 7.986-5.211 2.127-2.588 3.695-5.804 4.723-9.643l24.802-92.549a926 926 0 0 0 41.691 10.15l-21.394 97.754c-2.277 10.405-5.923 18.788-11.064 25.135-5.136 6.341-11.367 10.961-18.7 13.806-7.328 2.844-15.358 4.221-24.028 4.083-8.668-.138-17.576-1.504-26.643-4.115s-17.338-6.191-24.753-10.685-13.484-9.93-18.177-16.236c-4.697-6.31-7.517-13.537-8.495-21.638-.979-8.111.391-17.149 3.997-27.173zm-442.67-324.749L408.67 761.264a974 974 0 0 0 31.149 40.22l114.289-93.404a830 830 0 0 1-26.444-34.132m43.789 54.673-111.221 97.04a984 984 0 0 0 22.684 25.115q6.126 6.557 12.354 13.018l43.063-41.54a1113 1113 0 0 0-8.158 76.226 1144 1144 0 0 0 44.155 39.892c.711-33.836 2.938-67.173 6.61-99.897 29.65-3.502 58.766-8.219 87.254-14.097a1004 1004 0 0 1-36.96-33.521 1028 1028 0 0 1-69.047 8.385l39.319-37.93q-5.43-5.627-10.773-11.338a840 840 0 0 1-19.28-21.353M680.08 834.469l-94.648 113.298a1134 1134 0 0 0 90.209 68.038l20.723-30.527a1094 1094 0 0 1-51.78-37.406l12.842-16.727a1073 1073 0 0 0 47.27 34.296l20.248-29.576a1039 1039 0 0 1-45.688-33.156l10.273-13.382a1022 1022 0 0 0 48.28 34.896l20.722-30.527a990 990 0 0 1-78.451-59.227m184.549 157.808-10.215 21.069a969 969 0 0 0 10.293 4.916c3.128 1.472 5.912 2.214 8.333 2.234s4.517-.586 6.281-1.812c1.765-1.225 3.169-3.004 4.222-5.332 1.578-3.493 1.646-6.538.228-9.132-1.419-2.598-4.45-4.962-9.092-7.145a963 963 0 0 1-10.05-4.798M444.594 609.319a924 924 0 0 0 5.456 9.532c2.539 4.374 3.674 7.992 3.366 10.9-.306 2.905-2.072 5.349-5.319 7.313-2.165 1.309-4.309 1.974-6.436 1.985q-3.191.017-6.136-2.046c-1.961-1.375-3.812-3.543-5.53-6.499a928 928 0 0 1-5.606-9.797zM311.907 378.566a51.8 51.8 0 0 0-3.572-10.088 326 326 0 0 0-12.147 9.665 424 424 0 0 0-6.719 5.725l.037.152a31.54 31.54 0 0 1-3.208 23.008c-3.95 6.96-10.425 12.117-18.065 14.197-7.651 2.076-15.842.892-22.786-3.438-6.934-4.322-12.007-11.404-14.012-19.628-2.004-8.225-.754-16.827 3.416-23.837 4.174-7.014 10.905-11.836 18.652-13.514 6.672-1.446 13.662-.465 19.788 2.685a491 491 0 0 1 6.675-5.502q6.145-4.965 12.496-9.631a43 43 0 0 0-3.957-2.914c-11.748-7.729-26.084-10.788-39.85-8.081-13.782 2.714-25.877 11.011-33.427 23.469-7.539 12.447-9.813 27.91-6.191 42.778 3.627 14.864 12.785 27.627 25.236 35.266 12.475 7.649 27.031 9.452 40.509 5.48 13.448-3.965 24.746-13.348 31.59-25.616 6.857-12.291 8.822-26.649 5.533-40.176zm529.042 662.556-10.679 22.028q7.389 3.584 14.833 7.052c3.309 1.541 6.481 2.685 9.505 3.435s5.782.663 8.259-.253q1.558-.576 2.885-1.872 1.838-1.795 3.236-4.962 1.118-2.533 1.047-4.705a7.5 7.5 0 0 0-.155-1.304q-.567-2.697-2.63-4.905-2.062-2.21-5.096-4.062t-6.718-3.567a1020 1020 0 0 1-14.487-6.885M397.754 635.719q1.166 2.07 2.343 4.133a904 904 0 0 0 5.605 9.682q2.045 3.479 3.486 6.704 1.44 3.224 1.89 6.191.448 2.966-.596 5.49-1.045 2.526-4.092 4.412c-3.35 2.068-6.291 2.787-8.835 2.137-2.541-.649-4.848-2.135-6.905-4.46-2.056-2.325-4.012-5.057-5.854-8.193a927 927 0 0 1-5.759-9.945 984 984 0 0 1-2.405-4.245zM245.319 173.313c-.775-9.632-5.198-18.616-12.351-25.039-7.152-6.423-16.491-9.795-25.982-9.237-9.498.554-18.375 5.006-24.635 12.52-6.254 7.508-9.339 17.427-8.523 27.514.813 10.086 5.453 19.417 12.838 25.854 7.393 6.444 16.869 9.425 26.333 8.44 9.455-.98 18.125-5.833 24.148-13.333 6.024-7.502 8.95-17.087 8.172-26.719m188.269 56.733a1272 1272 0 0 0 4.057 27.542c.711 4.471-.59 9.081-3.626 12.849q-.306.381-.632.75a345 345 0 0 1 2.97 12.619 126 126 0 0 1 1.764 10.066c.158 1.289.298 2.563.411 3.861.088 1.086.146 2.18.168 3.263a40 40 0 0 1-.15 4.678 25 25 0 0 1-.706 4.076 21 21 0 0 1-.982 2.848c-.418.991-.936 1.95-1.547 2.866a17.7 17.7 0 0 1-2.879 3.313 17.7 17.7 0 0 1-3.922 2.654 67 67 0 0 1-10.377 4.224 118 118 0 0 1-10.813 2.839 256 256 0 0 1-9.008 1.735c-2.982.52-5.983 1.012-8.975 1.483-2.942.461-5.875.95-8.807 1.455a184 184 0 0 0-8.219 1.583 95 95 0 0 0-7.769 1.976 51 51 0 0 0-6.616 2.528 115 115 0 0 0-8.42 3.555 166 166 0 0 0-9.661 4.885 176 176 0 0 0-6.919 3.981q-1.669 1.003-3.325 2.027a79.3 79.3 0 0 1 7.187 18.805c7.134 29.326-3.06 60.01-24.697 80.074-8.202 7.607-18.122 13.707-29.447 17.35-11.345 3.649-22.931 4.454-34.128 2.595-29.593-4.901-56.015-28.594-64.371-62.854-5.72-23.451-1.564-46.497 9.462-64.341 11.057-17.895 28.792-30.327 50.178-34.085 26.64-4.681 52.756 5.077 70.567 22.316a272 272 0 0 1 5.515-3.285 222 222 0 0 1 7.015-3.878 495 495 0 0 0-5.304-16.259 329 329 0 0 0-7.677-20.031c-2.5-5.995-5.265-11.884-8.25-17.702a198 198 0 0 0-8.925-15.573 164 164 0 0 0-9.45-13.399 165 165 0 0 0-10.769-12.427 162 162 0 0 0-18.202-16.146c-9.808 13.246-24.768 22.92-42.321 25.054-16.866 2.05-32.96-3.273-45.353-13.96-12.364-10.662-20.86-26.553-22.338-44.829-2.948-36.471 23.426-67.125 57.33-68.609 33.905-1.484 62.501 24.879 65.228 58.739.546 6.787.014 13.409-1.488 19.697a198 198 0 0 1 16.984 13.951 1494 1494 0 0 1 23.107-23.46A882 882 0 0 1 306.584 157a12.36 12.36 0 0 1 2.974-9.315c2.248-2.58 5.466-4.152 8.919-4.376l11.929-.778c3.494-.227 6.941.932 9.505 3.201 2.583 2.252 4.072 5.437 4.144 8.767.297 12.905.213 9.583.51 22.487.113 4.783.181 9.572.24 14.362.025 3.058.043 6.119.019 9.168a208 208 0 0 1-.125 6.058 114 114 0 0 1-.448 6.64 25.3 25.3 0 0 1-.78 4.258 17 17 0 0 1-.51 1.67 15.5 15.5 0 0 1-.87 1.943 14.2 14.2 0 0 1-2.963 3.813 13.83 13.83 0 0 1-7.645 3.464c-3.049.357-6.122-.326-8.686-1.947a13.6 13.6 0 0 1-3.55-3.213 14 14 0 0 1-1.147-1.703 29 29 0 0 1-.794-1.497 28 28 0 0 1-1.245-3.203q-.696-2.272-1.287-4.576l-.047-.19a1438 1438 0 0 0-10.837 11.318 192 192 0 0 1 14.609 20.13 228 228 0 0 1 10.061 17.571 272 272 0 0 1 9.068 19.464 356 356 0 0 1 8.231 21.488 421 421 0 0 1 4.553 13.888 76 76 0 0 1 7.209-2.393 126 126 0 0 1 9.956-2.314 209 209 0 0 1 9.365-1.593c3.057-.465 6.125-.901 9.191-1.322 2.884-.401 5.758-.802 8.652-1.239 2.669-.41 5.33-.867 7.964-1.367a86 86 0 0 0 8.278-1.995 28 28 0 0 0 2.176-.708c-.009-.139-.006-.297-.017-.451a29 29 0 0 0-.101-2.052 90 90 0 0 0-.316-2.936q-.565-4.243-1.477-8.431a349 349 0 0 0-3.216-13.511 17 17 0 0 1-.989-.587c-4.121-2.639-6.858-6.733-7.59-11.361a1290 1290 0 0 1-4.181-28.428c-.265-1.95-.17-3.936.281-5.872.616-2.644 1.883-5.132 3.701-7.271 3.186-3.743 7.839-6.166 12.927-6.78 5.079-.613 10.174.626 14.17 3.394 2.285 1.586 4.131 3.619 5.4 5.944a15.7 15.7 0 0 1 1.793 5.427M841.73 941.058a930 930 0 0 0 53.213 26.71c4.88 2.257 9.365 4.735 13.469 7.455a84 84 0 0 1 4.77 3.412c5.321 4.098 9.616 8.527 12.886 13.336s5.301 9.913 6.069 15.341c.768 5.425.011 11.118-2.333 17.058-3.074 7.79-7.972 13.536-14.797 17.135-4.681 2.468-9.931 3.95-15.708 4.464 2.313 2.3 4.47 4.714 6.427 7.279 4.249 5.569 7.12 11.629 8.591 18.226 1.468 6.591.826 13.608-2.029 21.025-3.571 9.276-8.77 15.79-15.733 19.466-6.949 3.669-15.53 4.917-25.666 3.605-6.772-.878-14.182-2.739-22.165-5.623a161 161 0 0 1-12.28-5.053 1094 1094 0 0 1-65.754-32.875zM455.133 554.964l-132.099 65.777a981 981 0 0 0 25.789 48.37 953 953 0 0 0 9.441 16.169c7.198 12.054 14.743 21.489 22.333 28.283 7.602 6.806 15.359 10.614 23.113 11.506 7.77.894 15.659-1.543 23.741-7.16 6.462-4.491 10.884-9.892 13.34-16.117 2.461-6.23 3.479-12.798 3.104-19.731a71 71 0 0 0-1.183-9.538c5.008 2.804 10.125 4.516 15.326 5.104 7.591.857 14.798-1.127 21.651-5.796 5.227-3.56 9.018-7.799 11.418-12.657 2.401-4.861 3.593-10.153 3.62-15.886.026-5.733-.988-11.719-3.013-18.005-2.026-6.287-4.921-12.581-8.683-18.955a793 793 0 0 1-6.016-10.369 809 809 0 0 1-21.882-40.995"/></svg>