<svg xmlns="http://www.w3.org/2000/svg" style="isolation:isolate" viewBox="0 0 768 194.25"><path fill="#3e5062" d="M0 0h768v194.25H0Z" style="stroke:none;stroke-width:.75"/><path d="M17.88 19.515v155.22h389.733V19.515Zm664.73 25.311q-10.03 0-18.41 3.304t-13.464 9.771-5.084 15.964q0 7.295 2.679 12.662t6.732 9.084 8.518 6.056 7.899 3.715q7.832 3.027 11.678 4.817t5.152 3.166q1.305 1.376 1.305 3.303 0 2.065-1.099 3.441-1.1 1.376-3.022 1.995-1.923.62-4.397.62-4.26 0-8.45-1.79-4.19-1.788-7.761-5.299-3.572-3.509-6.32-8.326l-20.333 14.864q3.298 7.294 9.754 13.213 6.458 5.917 15.32 9.289 8.86 3.372 19.165 3.372a50.8 50.8 0 0 0 14.425-2.064q7.005-2.064 12.57-6.056 5.565-3.99 8.862-10.116t3.298-14.106q0-5.643-1.649-10.254a25.9 25.9 0 0 0-4.877-8.326q-3.228-3.717-7.763-6.537-4.533-2.822-10.304-4.886a446 446 0 0 0-7.968-2.753q-3.71-1.238-6.526-2.477-2.817-1.239-4.465-2.822-1.649-1.583-1.649-3.785 0-1.65.893-2.614.893-.963 2.541-1.445 1.65-.482 3.71-.482 2.61 0 5.358.963 2.749.964 5.428 2.96t4.877 5.436l22.394-12.387q-2.61-4.955-7.626-9.909-5.014-4.954-12.777-8.257t-18.615-3.304M441.22 47.58v96.339h44.651q12.777 0 21.776-2.615t13.739-8.396q4.74-5.78 4.74-15.415 0-7.707-3.642-13.143-3.64-5.436-9.548-8.877a43.4 43.4 0 0 0-5.7-2.76c3.361-1.748 6.186-3.917 8.448-6.529q4.946-5.712 4.946-13.832 0-6.193-2.817-10.804-2.815-4.611-7.9-7.707-5.083-3.097-11.952-4.68-6.87-1.581-14.837-1.581zm99.331 0v64.684q0 10.321 3.367 17.41 3.366 7.087 9.273 11.422t13.532 6.332q7.626 1.995 16.143 1.995 8.518 0 16.144-1.995 7.624-1.995 13.532-6.332 5.908-4.335 9.273-11.422 3.366-7.089 3.366-17.41V47.58h-30.225v61.932q0 3.854-1.304 6.812-1.305 2.96-3.985 4.61-2.68 1.652-6.8 1.653-4.123 0-6.802-1.653-2.679-1.65-3.984-4.61-1.305-2.959-1.305-6.812V47.58Zm-490.15 1.84H91.9q7.891 0 14.695 1.568 6.802 1.568 11.837 4.634 5.034 3.066 7.824 7.632t2.79 10.7q0 8.041-4.9 13.698c-2.24 2.587-5.037 4.735-8.365 6.467a43 43 0 0 1 5.644 2.734q5.85 3.407 9.456 8.79 3.606 5.385 3.606 13.017 0 9.54-4.693 15.266-4.695 5.724-13.607 8.314t-21.565 2.59H50.4zm99.053 0h30.614v95.41h-30.614zm49.662 0h31.295v35.313l29.253-35.313h34.832l-37.145 44.706 39.186 50.705h-36.193l-29.933-38.676v38.676h-31.295zm106.265 0h68.711v23.852h-40.138v10.904h37.417v23.171h-37.417v13.63h40.138v23.854h-68.711Zm166.064 20.867h7.557q5.22 0 7.625 1.722 2.404 1.718 2.404 5.435 0 2.477-1.099 4.267-1.098 1.788-3.297 2.753-2.198.963-5.633.962h-7.557ZM80.335 71.91v14.994h7.483q3.401 0 5.579-.955 2.177-.954 3.265-2.725t1.089-4.226q0-3.68-2.382-5.384-2.38-1.704-7.55-1.704Zm391.11 33.473h10.304q2.61 0 4.878.276 2.267.275 4.053 1.031 1.785.758 2.816 2.203t1.03 3.785q0 3.854-1.785 5.642-1.786 1.79-4.672 2.34-2.885.551-6.32.551h-10.304Zm-391.11 1.284v15.674h10.204q3.402 0 6.26-.544 2.856-.546 4.625-2.317t1.77-5.59q0-2.316-1.021-3.747t-2.79-2.18-4.014-1.023a40 40 0 0 0-4.83-.273z" style="fill:#81ca9f;fill-opacity:1;stroke:none;stroke-width:.749998;stroke-miterlimit:4;stroke-dasharray:none"/></svg>