<svg xmlns="http://www.w3.org/2000/svg" style="isolation:isolate" viewBox="0 0 1024 722"><defs><clipPath id="a"><path d="M0 0h1024v722H0z"/></clipPath></defs><g clip-path="url(#a)"><path fill="#020202" fill-rule="evenodd" d="M0 213.244C132.376 81.483 314.839 0 516.182 0 713.318 0 892.354 78.113 1024 205.049L507.903 721.146zm69.798 69.419C184.303 168.773 342.084 98.35 516.182 98.35c169.892 0 324.243 67.06 438.007 176.132L507.903 720.768z"/><path fill="#1C1C1C000" d="M1008.724 220.325C881.088 97.395 707.587 21.761 516.561 21.761c-195.235 0-372.162 79.002-500.531 206.756l52.264 52.263C182.641 167.998 339.64 98.35 512.777 98.35c169.891 0 324.243 67.06 438.007 176.132z"/><path fill="#AEAEAE" fill-rule="evenodd" d="m953.054 275.617 37.609-37.609C867.265 119.312 699.616 46.298 515.047 46.298c-188.776 0-359.853 76.381-483.986 199.899l475.707 475.706L68.663 283.798C183.168 169.909 340.948 99.485 515.047 99.485c169.892 0 324.243 67.06 438.007 176.132"/><path fill="#1C1C1C000" d="M370.682 192.321h282.623v242.727H370.682z"/><path fill="none" d="M69.798 282.663C184.303 168.773 342.084 98.35 516.182 98.35c169.892 0 324.243 67.06 438.007 176.132L507.903 720.768z"/><path fill="#FEFEFE" fill-rule="evenodd" d="M387.067 206.291v214.786H636.92V206.291z"/><path fill="#020202" fill-rule="evenodd" d="M387.067 206.291v214.786H636.92V206.291zM570.72 333.409q6.343.001 10.88 1.932 4.537 1.93 7.467 4.825 2.931 2.896 4.457 5.792l-13.088 7.239q-1.285-2.011-2.851-3.177t-3.171-1.73-3.132-.563q-1.204 0-2.168.282t-1.486.845-.522 1.527q0 1.288.964 2.213t2.61 1.649 3.814 1.448 4.657 1.608q3.372 1.207 6.022 2.856t4.537 3.82a15.1 15.1 0 0 1 2.851 4.867q.963 2.694.963 5.992 0 4.665-1.928 8.245-1.926 3.58-5.179 5.913-3.251 2.332-7.346 3.539-4.095 1.206-8.431 1.206-6.023 0-11.201-1.971-5.18-1.97-8.954-5.429-3.773-3.459-5.7-7.722l11.883-8.688q1.606 2.816 3.694 4.867t4.536 3.097 4.939 1.046q1.445 0 2.569-.362 1.125-.362 1.767-1.167.641-.804.641-2.011 0-1.126-.762-1.93-.763-.805-3.011-1.85-2.249-1.046-6.825-2.816-2.007-.803-4.617-2.171t-4.978-3.539q-2.369-2.172-3.935-5.309t-1.565-7.401q0-5.55 2.971-9.33t7.869-5.71 10.759-1.932m-83.026 1.61h17.665v36.196q0 2.252.763 3.981t2.328 2.695q1.566.965 3.976.966 2.408 0 3.974-.966 1.565-.965 2.329-2.694.762-1.73.762-3.982v-36.196h17.665v37.804q0 6.033-1.967 10.176t-5.42 6.676-7.908 3.7-9.435 1.166-9.436-1.166-7.908-3.7-5.42-6.676-1.968-10.175zm-40.389 13.271v8.848h4.417q2.007 0 3.292-.562 1.285-.564 1.927-1.609.643-1.046.642-2.494 0-2.172-1.404-3.176-1.406-1.006-4.457-1.006zm0 20.511v9.251h6.022q2.007 0 3.694-.322t2.73-1.367q1.045-1.046 1.044-3.298 0-1.368-.602-2.212t-1.646-1.287-2.368-.603q-1.325-.162-2.852-.162zm27.11-133.626v55.763h17.893v-55.763zm29.026 0v55.763h18.29v-22.604l17.494 22.604h21.154l-22.902-29.634 21.709-26.13h-20.358l-17.097 20.64v-20.64zm62.106 0v55.763h40.158v-13.941h-23.459v-7.966h21.869v-13.543h-21.869v-6.372h23.459v-13.941zm-131.529 13.144h4.375q3.021 0 4.413.996t1.392 3.147q0 1.434-.637 2.469-.636 1.036-1.908 1.593-1.272.558-3.26.558h-4.375zm0 20.314h5.965q1.51-.001 2.823.159 1.312.159 2.346.598t1.63 1.275.597 2.19q-.001 2.231-1.035 3.266-1.033 1.035-2.703 1.354-1.67.318-3.658.318h-5.965zm-4.377 66.386h24.49q4.656 0 8.672.924 4.014.925 6.985 2.735t4.617 4.505 1.646 6.314q0 4.746-2.891 8.084c-1.321 1.527-2.972 2.795-4.937 3.816 1.157.464 2.271.996 3.332 1.613q3.453 2.012 5.58 5.189t2.128 7.681q0 5.631-2.77 9.009t-8.03 4.907-12.726 1.528h-26.096zm-13.117-99.844v55.763h25.845q7.395 0 12.604-1.514t7.953-4.86q2.742-3.345 2.742-8.922 0-4.461-2.107-7.607t-5.527-5.137a25 25 0 0 0-3.299-1.599c1.945-1.012 3.58-2.267 4.89-3.779q2.863-3.306 2.863-8.006 0-3.585-1.631-6.254-1.63-2.669-4.572-4.46-2.943-1.792-6.919-2.708t-8.588-.917zm-19.007-17.478h227.78v90.719h-227.78z"/><path fill="#F9F9F9" d="m76.735 265.998 25.626-23.313-7.129-7.836-10.07 9.161 1.479-8.293q.562-3.16.13-5.918-.468-2.797-2.535-5.07-1.604-1.763-3.885-2.696-2.242-.968-4.907-.907-2.662-.013-5.494 1.203-2.829 1.141-5.532 3.601-3.997 3.636-5.239 7.702-1.239 3.991-.254 7.75t3.658 6.697l8.424-7.663q-.998-1.098-1.426-2.355-.388-1.294-.107-2.48.245-1.226 1.225-2.117.744-.677 1.467-.906.727-.303 1.401-.271.673.032 1.258.359.584.328 1.047.837.963 1.058 1.348 2.427t.411 3.206q.029 1.764.026 4.201zm25.671-47.307q-1.397-1.731-2.207-3.324-.801-1.668-1.03-3.048-.222-1.455.121-2.549t1.249-1.825q.907-.732 2.048-.836 1.142-.105 2.476.452 1.342.483 2.762 1.651 1.428 1.094 2.825 2.826t2.199 3.398q.809 1.594 1.03 3.049.23 1.38-.113 2.474-.343 1.093-1.25 1.825-.906.732-2.048.836t-2.483-.378q-1.334-.557-2.762-1.651-1.42-1.168-2.817-2.9m-8.656 6.987q3.992 4.946 8.294 6.988 4.303 2.041 8.586 1.443 4.249-.638 8.041-3.699 3.999-3.227 5.479-7.213 1.488-4.06.318-8.63t-5.162-9.516-8.212-7.054-8.47-1.469q-4.241.564-8.239 3.791-3.793 3.061-5.281 7.121-1.521 4.019-.434 8.655 1.087 4.637 5.08 9.583m39.716-8.158 28.196-20.128-6.155-8.622-11.08 7.909 2.447-8.06q.931-3.072.827-5.862-.134-2.832-1.919-5.333-1.385-1.94-3.54-3.135-2.112-1.227-4.766-1.48-2.641-.327-5.597.546-2.944.8-5.919 2.924-4.398 3.139-6.111 7.03-1.7 3.817-1.166 7.666.535 3.849 2.843 7.082l9.269-6.616q-.861-1.208-1.138-2.507-.234-1.33.185-2.475.389-1.189 1.467-1.958.819-.585 1.564-.726.757-.216 1.422-.104.665.111 1.207.505t.942.955q.831 1.164 1.052 2.568t.03 3.233q-.179 1.754-.469 4.174zm33.171-44.322q4.166-2.629 7.091-5.539 2.94-2.983 3.899-6.03.93-3.092-.964-6.094-1.611-2.553-4.317-3.665-2.705-1.111-6.218-.523-3.512.587-7.544 3.131-3.808 2.403-5.726 5.617-1.873 3.186-1.87 6.566t1.897 6.382l9.005-5.681q-.876-1.389-.472-2.834.403-1.445 1.926-2.406.986-.622 1.738-.72.769-.172 1.365.078t.964.833q.424.672.416 1.553-.007.882-.458 1.855-.406.945-1.267 1.864-.816.891-1.981 1.626zm12.275 14.49q4.479-2.826 6.734-6.003 2.3-3.204 2.511-6.344.228-3.213-1.524-5.99-1.527-2.42-3.766-3.387-2.222-1.041-5.079-.804-2.812.209-6.08 1.581-3.251 1.3-6.88 3.59l2.94 4.659q1.837-1.159 3.244-1.609 1.424-.522 2.48-.437 1.028.041 1.765.515.71.429 1.134 1.101.706 1.12.637 2.103-.097.938-.778 1.744-.665.733-1.696 1.383-.985.622-2.225.84-1.195.191-2.416-.354-1.176-.574-2.166-2.142l-9.676 6.106q1.413 2.24 3.666 3.825 2.224 1.54 5.001 2.168 2.776.629 5.862.06 3.131-.598 6.312-2.605m16.959-54.134 1.057 50.935 9.026-5.021-1.52-50.678zm28.231 26.759 31.194-15.07-4.609-9.539-12.258 5.922 3.775-7.53q1.437-2.871 1.806-5.638.347-2.814-.99-5.581-1.037-2.146-2.958-3.689-1.874-1.565-4.447-2.264-2.548-.769-5.61-.408-3.036.29-6.327 1.88-4.865 2.351-7.212 5.896-2.321 3.475-2.445 7.358-.124 3.884 1.604 7.462l10.255-4.954q-.646-1.336-.699-2.663-.005-1.351.602-2.409.584-1.105 1.776-1.681.906-.438 1.665-.451.783-.085 1.419.137.637.222 1.104.702.467.481.767 1.101.622 1.288.603 2.709t-.518 3.191q-.473 1.699-1.168 4.035zm31.04-21.764 34.715-14.192-3.709-9.071-7.011 2.866-.132 2.057-13.386 5.472 2.904-10.114 4.69 11.473-1.25 1.141 3.528 8.63 11.277-4.611-14.031-34.322-8.826 3.608z"/><path fill="#1A1A1A" d="m301.697 87.478 11.503 35.25 11.33-3.697-11.502-35.251zm47.257 9.758-6.205 7.462q1.919 2.412 4.89 4.013t6.568 2.005q3.662.443 7.515-.527 2.774-.699 5.199-2.129 2.426-1.431 4.105-3.438 1.731-2.02 2.395-4.591.65-2.622-.1-5.601-.531-2.106-1.574-3.646-1.056-1.591-2.638-2.667-1.531-1.09-3.485-1.69-1.967-.652-4.318-.879-2.301-.24-4.189-.365-1.902-.176-3.149-.573-1.208-.46-1.48-1.539-.22-.873.396-1.465.667-.605 1.848-.902.976-.246 2.094-.146 1.118.101 2.288.626 1.208.46 2.354 1.537l7.208-6.732q-1.442-1.603-3.808-2.973-2.315-1.384-5.554-1.879-3.187-.508-7.245.514-3.749.944-6.572 2.966t-4.116 4.915q-1.292 2.893-.399 6.438.685 2.722 2.166 4.48 1.532 1.744 3.371 2.756 1.89.999 3.754 1.458 1.915.446 3.329.636 3.212.393 4.819.698 1.606.306 2.198.703.643.384.824 1.103.298 1.182-.485 1.98-.795.746-2.13 1.083-1.593.401-3.353.134-1.71-.279-3.369-1.227-1.672-.999-3.152-2.538m38.696.5 19.252-3.678-1.571-8.22-19.251 3.677zm6.619-17.012 6.393 9.187-.213 3.115 5.162 6.133 13.007-2.486-28.007-35.096-13.096 42.949 13.007-2.485 2.573-7.987-1.382-2.433zm40.386-23.284-4.241 12.62-7.316-11.124-13.396 1.734 16.195 20.711 1.857 14.341 11.82-1.53-1.871-14.446 10.348-24.041z"/><path fill="#F9F9F9" d="m479.918 72.884 7.568-.324q4.128-.177 7.309-1.427 3.231-1.304 5.043-3.556 1.81-2.304 1.677-5.427-.136-3.175-2.132-5.21t-5.323-2.953q-3.274-.921-7.401-.744l-16.142.692 1.588 37.046 17.2-.737q4.921-.211 8.318-1.364 3.45-1.155 5.154-3.455 1.757-2.302 1.599-6.007-.127-2.964-1.645-4.966-1.467-2.058-3.799-3.284t-5.109-1.689q-2.727-.52-5.426-.404l-8.626.37.272 6.35 7.039-.301q1.005-.044 1.857.026.904.067 1.606.355.699.235 1.094.802.446.511.485 1.411.063 1.481-.595 2.199-.659.717-1.761.977-1.102.259-2.425.316l-3.969.17-.84-19.582 2.911-.124q2.011-.087 2.94.563.98.594 1.041 2.023.041.953-.353 1.659t-1.224 1.113q-.831.406-2.154.463l-5.981.256zm30.838-20.244-.111 37.08 11.919.036.111-37.08zm21.123.02-1.891 37.031 12.167.622 1.892-37.032zm23.542 1.202-15.612 16.971 13.985 20.074 14.072.719-14.231-20.458 15.328-16.614zm23.87 39.161 18.585 2.06 1.022-9.213-18.585-2.06zm3.064-27.64 18.585 2.06 1.022-9.214-18.585-2.06zm-1.459 13.162 17.532 1.943.993-8.95-17.532-1.944zm-5.522-23.263-4.085 36.854 11.056 1.226 4.086-36.854z"/><path fill="#1A1A1A" d="m648.229 66.081-7.987 10.652-3.456-12.857-13.264-2.556 8.88 24.746-2.736 14.2 11.703 2.255 2.756-14.304 17.368-19.581zm21.57 23.828q.692-2.666 2.171-4.362 1.493-1.747 3.567-2.358 2.087-.663 4.6-.011 2.666.691 4.117 2.271 1.515 1.542 1.92 3.781.417 2.188-.274 4.854-.678 2.615-2.171 4.363-1.493 1.747-3.58 2.409-2.074.612-4.586-.04-2.513-.651-4.028-2.193-1.502-1.594-1.958-3.846t.222-4.868m-11.947-3.097q-1.117 4.307-.612 8.268.57 3.924 2.558 7.23t5.27 5.635q3.32 2.393 7.729 3.537 4.41 1.143 8.423.651 4.051-.427 7.395-2.35t5.698-5.09q2.417-3.203 3.534-7.511t.534-8.179-2.649-7.09q-2.066-3.217-5.361-5.494t-7.602-3.394q-4.204-1.09-8.191-.701-3.986.389-7.355 2.197t-5.811 4.896-3.56 7.395m51.812-5.311-7.837 23.631q-1.251 3.77-.912 6.785.407 2.981 2.035 5.307 1.645 2.276 4.177 3.897 2.566 1.688 5.683 2.722 3.117 1.033 6.132 1.196 3.049.23 5.728-.611 2.696-.892 4.753-3.056 2.124-2.198 3.375-5.968l7.837-23.631-11.061-3.669-7.504 22.625q-.7 2.112-2.257 3.103-1.489.957-3.751.206-2.263-.75-2.936-2.424-.605-1.708.095-3.819l7.504-22.626zm51.629 43.033-9.46 2.171q.063 3.081 1.454 6.155t4.006 5.578q2.644 2.574 6.295 4.139 2.629 1.126 5.426 1.46 2.796.334 5.348-.243 2.602-.557 4.688-2.198 2.108-1.691 3.318-4.515.855-1.996.96-3.853.125-1.906-.48-3.721-.557-1.795-1.746-3.457-1.169-1.711-2.901-3.318-1.683-1.585-3.109-2.83-1.405-1.294-2.156-2.365-.682-1.099-.244-2.122.355-.827 1.204-.925.897-.076 2.017.404.925.396 1.753 1.154t1.439 1.885q.682 1.099.939 2.65l9.815-.981q-.174-2.149-1.225-4.674-1.001-2.504-3.276-4.862-2.226-2.337-6.072-3.985-3.554-1.523-7.025-1.627t-6.253 1.412-4.222 4.876q-1.106 2.58-.994 4.875.16 2.317 1.008 4.236.897 1.941 2.101 3.436 1.252 1.516 2.26 2.525 2.317 2.26 3.409 3.478 1.092 1.217 1.321 1.891.278.696-.013 1.378-.48 1.119-1.586 1.279-1.085.112-2.351-.431-1.51-.647-2.748-1.926-1.189-1.259-1.933-3.019-.724-1.808-.967-3.93m30.463 23.866 17.537 8.751 3.737-7.489-17.537-8.751zm15.58-9.512-.488 11.182-2.059 2.347.385 8.007 11.85 5.912-.985-44.891-36.46 26.207 11.85 5.913 6.889-4.791.377-2.772zm46.232 5.977-11.026 7.463.929-13.282-11.704-6.745.318 26.289-7.22 12.53 10.326 5.951 7.274-12.621 22.806-12.841z"/><path fill="#F9F9F9" d="m880.192 184.594 6.215 4.331q3.389 2.363 6.676 3.298 3.361.922 6.167.23 2.837-.734 4.624-3.298 1.817-2.608 1.465-5.436-.353-2.829-2.442-5.576-2.045-2.717-5.434-5.08l-13.255-9.238-21.203 30.42 14.124 9.844q4.041 2.817 7.442 3.96 3.443 1.173 6.193.378 2.793-.765 4.913-3.807 1.697-2.433 1.704-4.946.082-2.526-1.029-4.915-1.112-2.389-3.038-4.442-1.853-2.066-4.069-3.611l-7.084-4.937-3.634 5.215 5.779 4.028q.826.576 1.461 1.147.678.602 1.061 1.257.414.611.385 1.301.044.677-.471 1.415-.848 1.217-1.806 1.388-.959.172-1.993-.291t-2.12-1.219l-3.259-2.272 11.207-16.079 2.39 1.666q1.651 1.151 1.996 2.231.419 1.067-.399 2.24-.545.782-1.286 1.105-.742.322-1.649.142t-1.994-.938l-4.91-3.422zm37.167 2.666-15.472 19.505q-2.468 3.113-3.184 6.061-.641 2.94.09 5.683.764 2.702 2.586 5.094 1.83 2.466 4.403 4.506t5.349 3.229q2.785 1.263 5.59 1.392 2.838.087 5.513-1.239 2.749-1.335 5.218-4.448l15.472-19.506-9.131-7.242-14.813 18.676q-1.382 1.743-3.184 2.139-1.728.388-3.595-1.093-1.868-1.482-1.925-3.285.017-1.812 1.4-3.555l14.813-18.675zm21.613 47.309-9.657-.966q-.925 2.94-.589 6.298t2.014 6.566q1.683 3.283 4.643 5.932 2.131 1.908 4.674 3.118t5.146 1.478q2.643.303 5.145-.585 2.537-.929 4.586-3.218 1.448-1.618 2.14-3.345.728-1.766.735-3.679.046-1.878-.55-3.834-.561-1.994-1.689-4.07-1.088-2.041-2.042-3.676-.918-1.675-1.287-2.93-.295-1.259.447-2.088.6-.671 1.436-.492.874.214 1.782 1.027.75.671 1.292 1.654t.762 2.246q.295 1.259.044 2.811l9.613 2.206q.522-2.092.333-4.82-.149-2.693-1.551-5.654-1.362-2.925-4.481-5.716-2.881-2.579-6.136-3.787t-6.377-.66-5.558 3.272q-1.873 2.092-2.501 4.302-.588 2.246-.397 4.336.23 2.126.893 3.927.702 1.837 1.335 3.115 1.473 2.882 2.118 4.385.646 1.502.648 2.214.042.748-.453 1.301-.812.908-1.911.706-1.064-.241-2.09-1.16-1.224-1.095-1.988-2.703-.725-1.573-.868-3.478-.108-1.945.339-4.033"/></g></svg>