<?xml version="1.0" encoding="UTF-8" standalone="no"?><!-- Generator: Gravit.io --><svg xmlns="http://www.w3.org/2000/svg" xmlns:xlink="http://www.w3.org/1999/xlink" style="isolation:isolate" viewBox="0 0 1200 249.39" width="1200pt" height="249.39pt"><g><rect x="0" y="0" width="1200" height="249.39" transform="matrix(1,0,0,1,0,0)" fill="rgb(227,227,227)"/><path d=" M 816.732 141.554 L 816.732 159.093 L 871.666 159.093 L 871.666 141.554 L 816.732 141.554 Z " fill="rgb(98,62,98)"/><path d=" M 878.924 116.658 L 859.369 116.658 L 859.369 187.215 L 878.924 187.215 L 878.924 116.658 Z " fill="rgb(98,62,98)"/><path d=" M 831.549 116.658 L 811.995 116.658 L 811.995 187.215 L 831.549 187.215 L 831.549 116.658 Z " fill="rgb(98,62,98)"/><path d=" M 906.844 171.289 L 906.844 187.215 L 942.425 187.215 L 942.425 171.289 L 906.844 171.289 Z " fill="rgb(98,62,98)"/><path d=" M 906.844 116.658 L 906.844 132.583 L 942.425 132.583 L 942.425 116.658 L 906.844 116.658 Z " fill="rgb(98,62,98)"/><path d=" M 906.844 142.865 L 906.844 158.287 L 940.409 158.287 L 940.409 142.865 L 906.844 142.865 Z " fill="rgb(98,62,98)"/><path d=" M 912.186 116.658 L 893.438 116.658 L 893.438 187.215 L 912.186 187.215 L 912.186 116.658 Z " fill="rgb(98,62,98)"/><path d=" M 995.243 156.17 L 974.982 156.17 L 993.428 187.215 L 1016.309 187.215 L 995.243 156.17 Z " fill="rgb(98,62,98)"/><path d=" M 975.386 116.658 L 955.831 116.658 L 955.831 187.215 L 975.386 187.215 L 975.386 116.658 Z " fill="rgb(98,62,98)"/><path d=" M 968.33 116.658 L 968.33 133.188 L 982.038 133.188 L 982.038 133.188 Q 985.062 133.188 987.229 134.095 L 987.229 134.095 L 987.229 134.095 Q 989.396 135.003 990.556 136.766 L 990.556 136.766 L 990.556 136.766 Q 991.715 138.53 991.715 140.95 L 991.715 140.95 L 991.715 140.95 Q 991.715 143.671 990.556 145.385 L 990.556 145.385 L 990.556 145.385 Q 989.396 147.098 987.229 148.005 L 987.229 148.005 L 987.229 148.005 Q 985.062 148.912 982.038 148.912 L 982.038 148.912 L 968.33 148.912 L 968.33 163.931 L 983.651 163.931 L 983.651 163.931 Q 993.227 163.931 999.577 160.907 L 999.577 160.907 L 999.577 160.907 Q 1005.927 157.883 1009.001 152.491 L 1009.001 152.491 L 1009.001 152.491 Q 1012.076 147.098 1012.076 140.345 L 1012.076 140.345 L 1012.076 140.345 Q 1012.076 133.289 1009.001 127.997 L 1009.001 127.997 L 1009.001 127.997 Q 1005.927 122.705 999.577 119.681 L 999.577 119.681 L 999.577 119.681 Q 993.227 116.658 983.651 116.658 L 983.651 116.658 L 968.33 116.658 Z " fill="rgb(98,62,98)"/><path d=" M 1037.174 171.289 L 1037.174 187.215 L 1072.755 187.215 L 1072.755 171.289 L 1037.174 171.289 Z " fill="rgb(98,62,98)"/><path d=" M 1037.174 116.658 L 1037.174 132.583 L 1072.755 132.583 L 1072.755 116.658 L 1037.174 116.658 Z " fill="rgb(98,62,98)"/><path d=" M 1037.174 142.865 L 1037.174 158.287 L 1070.739 158.287 L 1070.739 142.865 L 1037.174 142.865 Z " fill="rgb(98,62,98)"/><path d=" M 1042.516 116.658 L 1023.768 116.658 L 1023.768 187.215 L 1042.516 187.215 L 1042.516 116.658 Z " fill="rgb(98,62,98)"/><path d=" M 820.814 91.787 L 820.512 100.532 L 842.828 100.532 L 842.406 91.787 L 820.814 91.787 Z " fill="rgb(98,62,98)"/><path d=" M 825.94 94.984 L 831.489 82.378 L 837.038 95.044 L 836.374 98.06 L 841.199 107.227 L 854.529 107.227 L 831.489 62.173 L 808.449 107.227 L 821.779 107.227 L 826.664 97.637 L 825.94 94.984 Z " fill="rgb(98,62,98)"/><path d=" M 882.273 88.651 L 870.15 88.651 L 881.187 107.227 L 894.878 107.227 L 882.273 88.651 Z " fill="rgb(98,62,98)"/><path d=" M 870.391 65.008 L 858.69 65.008 L 858.69 107.227 L 870.391 107.227 L 870.391 65.008 Z " fill="rgb(98,62,98)"/><path d=" M 866.169 65.008 L 866.169 74.899 L 874.372 74.899 L 874.372 74.899 Q 876.181 74.899 877.478 75.442 L 877.478 75.442 L 877.478 75.442 Q 878.775 75.985 879.468 77.04 L 879.468 77.04 L 879.468 77.04 Q 880.162 78.096 880.162 79.543 L 880.162 79.543 L 880.162 79.543 Q 880.162 81.172 879.468 82.197 L 879.468 82.197 L 879.468 82.197 Q 878.775 83.223 877.478 83.765 L 877.478 83.765 L 877.478 83.765 Q 876.181 84.308 874.372 84.308 L 874.372 84.308 L 866.169 84.308 L 866.169 93.295 L 875.337 93.295 L 875.337 93.295 Q 881.066 93.295 884.866 91.485 L 884.866 91.485 L 884.866 91.485 Q 888.666 89.676 890.505 86.449 L 890.505 86.449 L 890.505 86.449 Q 892.345 83.223 892.345 79.182 L 892.345 79.182 L 892.345 79.182 Q 892.345 74.96 890.505 71.793 L 890.505 71.793 L 890.505 71.793 Q 888.666 68.627 884.866 66.817 L 884.866 66.817 L 884.866 66.817 Q 881.066 65.008 875.337 65.008 L 875.337 65.008 L 866.169 65.008 Z " fill="rgb(98,62,98)"/><path d=" M 922.924 88.651 L 910.801 88.651 L 921.838 107.227 L 935.529 107.227 L 922.924 88.651 Z " fill="rgb(98,62,98)"/><path d=" M 911.042 65.008 L 899.341 65.008 L 899.341 107.227 L 911.042 107.227 L 911.042 65.008 Z " fill="rgb(98,62,98)"/><path d=" M 906.82 65.008 L 906.82 74.899 L 915.023 74.899 L 915.023 74.899 Q 916.832 74.899 918.129 75.442 L 918.129 75.442 L 918.129 75.442 Q 919.426 75.985 920.119 77.04 L 920.119 77.04 L 920.119 77.04 Q 920.813 78.096 920.813 79.543 L 920.813 79.543 L 920.813 79.543 Q 920.813 81.172 920.119 82.197 L 920.119 82.197 L 920.119 82.197 Q 919.426 83.223 918.129 83.765 L 918.129 83.765 L 918.129 83.765 Q 916.832 84.308 915.023 84.308 L 915.023 84.308 L 906.82 84.308 L 906.82 93.295 L 915.988 93.295 L 915.988 93.295 Q 921.718 93.295 925.517 91.485 L 925.517 91.485 L 925.517 91.485 Q 929.317 89.676 931.157 86.449 L 931.157 86.449 L 931.157 86.449 Q 932.996 83.223 932.996 79.182 L 932.996 79.182 L 932.996 79.182 Q 932.996 74.96 931.157 71.793 L 931.157 71.793 L 931.157 71.793 Q 929.317 68.627 925.517 66.817 L 925.517 66.817 L 925.517 66.817 Q 921.718 65.008 915.988 65.008 L 915.988 65.008 L 906.82 65.008 Z " fill="rgb(98,62,98)"/><path d=" M 951.995 65.008 L 939.993 65.008 L 939.993 107.227 L 951.995 107.227 L 951.995 65.008 Z " fill="rgb(98,62,98)"/><path d=" M 988.424 65.008 L 979.196 87.867 L 970.029 65.008 L 956.156 65.008 L 979.196 110.062 L 1002.236 65.008 L 988.424 65.008 Z " fill="rgb(98,62,98)"/><path d=" M 1014.419 97.698 L 1014.419 107.227 L 1035.71 107.227 L 1035.71 97.698 L 1014.419 97.698 Z " fill="rgb(98,62,98)"/><path d=" M 1014.419 65.008 L 1014.419 74.537 L 1035.71 74.537 L 1035.71 65.008 L 1014.419 65.008 Z " fill="rgb(98,62,98)"/><path d=" M 1014.419 80.689 L 1014.419 89.917 L 1034.503 89.917 L 1034.503 80.689 L 1014.419 80.689 Z " fill="rgb(98,62,98)"/><path d=" M 1017.616 65.008 L 1006.397 65.008 L 1006.397 107.227 L 1017.616 107.227 L 1017.616 65.008 Z " fill="rgb(98,62,98)"/><path d=" M 1049.34 91.787 L 1049.34 91.787 L 1041.319 97.577 L 1041.319 97.577 Q 1042.706 100.713 1045.45 103.247 L 1045.45 103.247 L 1045.45 103.247 Q 1048.194 105.78 1051.904 107.288 L 1051.904 107.288 L 1051.904 107.288 Q 1055.613 108.795 1059.895 108.795 L 1059.895 108.795 L 1059.895 108.795 Q 1063.032 108.795 1065.987 107.921 L 1065.987 107.921 L 1065.987 107.921 Q 1068.942 107.046 1071.234 105.357 L 1071.234 105.357 L 1071.234 105.357 Q 1073.526 103.669 1074.913 101.045 L 1074.913 101.045 L 1074.913 101.045 Q 1076.3 98.421 1076.3 94.984 L 1076.3 94.984 L 1076.3 94.984 Q 1076.3 92.511 1075.516 90.46 L 1075.516 90.46 L 1075.516 90.46 Q 1074.732 88.409 1073.285 86.781 L 1073.285 86.781 L 1073.285 86.781 Q 1071.837 85.153 1069.847 83.976 L 1069.847 83.976 L 1069.847 83.976 Q 1067.857 82.8 1065.504 82.016 L 1065.504 82.016 L 1065.504 82.016 Q 1063.454 81.293 1061.795 80.659 L 1061.795 80.659 L 1061.795 80.659 Q 1060.136 80.026 1058.93 79.393 L 1058.93 79.393 L 1058.93 79.393 Q 1057.724 78.759 1057.03 77.975 L 1057.03 77.975 L 1057.03 77.975 Q 1056.337 77.191 1056.337 76.226 L 1056.337 76.226 L 1056.337 76.226 Q 1056.337 75.321 1056.819 74.749 L 1056.819 74.749 L 1056.819 74.749 Q 1057.302 74.176 1058.116 73.874 L 1058.116 73.874 L 1058.116 73.874 Q 1058.93 73.572 1060.136 73.572 L 1060.136 73.572 L 1060.136 73.572 Q 1061.524 73.572 1062.82 74.085 L 1062.82 74.085 L 1062.82 74.085 Q 1064.117 74.598 1065.293 75.593 L 1065.293 75.593 L 1065.293 75.593 Q 1066.469 76.588 1067.374 78.156 L 1067.374 78.156 L 1076.18 73.211 L 1076.18 73.211 Q 1075.034 71.039 1072.923 68.868 L 1072.923 68.868 L 1072.923 68.868 Q 1070.812 66.697 1067.615 65.309 L 1067.615 65.309 L 1067.615 65.309 Q 1064.419 63.922 1059.895 63.922 L 1059.895 63.922 L 1059.895 63.922 Q 1055.613 63.922 1052.085 65.34 L 1052.085 65.34 L 1052.085 65.34 Q 1048.556 66.757 1046.445 69.562 L 1046.445 69.562 L 1046.445 69.562 Q 1044.334 72.366 1044.334 76.287 L 1044.334 76.287 L 1044.334 76.287 Q 1044.334 79.483 1045.541 81.745 L 1045.541 81.745 L 1045.541 81.745 Q 1046.747 84.007 1048.496 85.575 L 1048.496 85.575 L 1048.496 85.575 Q 1050.245 87.143 1052.205 88.108 L 1052.205 88.108 L 1052.205 88.108 Q 1054.165 89.073 1055.673 89.736 L 1055.673 89.736 L 1055.673 89.736 Q 1058.93 91.003 1060.74 91.817 L 1060.74 91.817 L 1060.74 91.817 Q 1062.549 92.631 1063.212 93.476 L 1063.212 93.476 L 1063.212 93.476 Q 1063.876 94.32 1063.876 95.466 L 1063.876 95.466 L 1063.876 95.466 Q 1063.876 96.612 1063.303 97.366 L 1063.303 97.366 L 1063.303 97.366 Q 1062.73 98.12 1061.735 98.512 L 1061.735 98.512 L 1061.735 98.512 Q 1060.74 98.904 1059.413 98.904 L 1059.413 98.904 L 1059.413 98.904 Q 1057.422 98.904 1055.583 98.06 L 1055.583 98.06 L 1055.583 98.06 Q 1053.743 97.215 1052.145 95.617 L 1052.145 95.617 L 1052.145 95.617 Q 1050.547 94.019 1049.34 91.787 Z " fill="rgb(98,62,98)"/><path d=" M 24.312 28.286 L 24.312 221.102 L 786.639 221.102 L 786.639 28.286 L 24.312 28.286 Z  M 42.06 47.657 L 428.914 47.657 L 428.914 201.731 L 42.06 201.731 L 42.06 47.657 Z  M 701.879 72.781 Q 712.651 72.782 720.356 76.061 Q 728.062 79.339 733.039 84.257 Q 738.017 89.175 740.609 94.092 L 718.379 106.388 Q 716.197 102.973 713.539 100.992 Q 710.879 99.011 708.152 98.054 Q 705.424 97.098 702.833 97.098 Q 700.788 97.098 699.151 97.577 Q 697.514 98.055 696.628 99.011 Q 695.741 99.967 695.741 101.606 Q 695.741 103.792 697.378 105.363 Q 699.015 106.934 701.81 108.164 Q 704.606 109.393 708.288 110.623 Q 711.969 111.852 716.197 113.355 Q 721.925 115.404 726.425 118.205 Q 730.925 121.005 734.131 124.694 C 736.248 127.121 737.891 129.925 738.972 132.959 Q 740.609 137.535 740.609 143.136 Q 740.609 151.059 737.335 157.138 Q 734.062 163.219 728.538 167.18 Q 723.016 171.142 716.061 173.191 Q 709.106 175.24 701.742 175.24 Q 691.514 175.239 682.718 171.892 Q 673.922 168.546 667.513 162.672 Q 661.103 156.797 657.831 149.557 L 678.013 134.802 Q 680.741 139.585 684.287 143.068 Q 687.831 146.552 691.991 148.327 Q 696.151 150.104 700.378 150.104 Q 702.833 150.104 704.742 149.489 Q 706.652 148.874 707.742 147.508 Q 708.833 146.142 708.833 144.093 Q 708.833 142.18 707.537 140.814 Q 706.242 139.447 702.424 137.672 Q 698.605 135.896 690.832 132.89 Q 687.424 131.525 682.991 129.203 Q 678.559 126.88 674.536 123.191 Q 670.513 119.503 667.853 114.174 Q 665.195 108.848 665.195 101.606 Q 665.195 92.18 670.241 85.76 Q 675.286 79.339 683.605 76.061 Q 691.924 72.782 701.879 72.781 M 462.274 75.515 L 503.867 75.515 Q 511.776 75.515 518.595 77.085 Q 525.413 78.656 530.46 81.73 Q 535.506 84.803 538.3 89.379 Q 541.095 93.956 541.096 100.104 Q 541.096 108.164 536.186 113.834 C 533.942 116.427 531.138 118.58 527.802 120.315 C 529.766 121.103 531.659 122.006 533.46 123.054 Q 539.324 126.471 542.937 131.866 Q 546.552 137.261 546.551 144.912 Q 546.551 154.476 541.846 160.213 Q 537.142 165.95 528.209 168.547 Q 519.277 171.142 506.594 171.142 L 462.274 171.142 L 462.274 75.515 Z  M 560.87 75.515 L 590.872 75.515 L 590.872 136.989 Q 590.872 140.814 592.167 143.751 Q 593.463 146.688 596.121 148.327 Q 598.781 149.967 602.873 149.968 Q 606.964 149.968 609.623 148.327 Q 612.282 146.688 613.579 143.752 Q 614.873 140.814 614.873 136.989 L 614.873 75.515 L 644.876 75.515 L 644.876 139.721 Q 644.876 149.966 641.534 157.002 Q 638.193 164.037 632.329 168.341 Q 626.465 172.644 618.897 174.625 Q 611.328 176.605 602.873 176.606 Q 594.418 176.606 586.848 174.625 Q 579.281 172.644 573.417 168.341 Q 567.553 164.037 564.212 157.002 Q 560.87 149.967 560.87 139.721 L 560.87 75.515 Z  M 74.341 77.341 L 74.341 172.047 L 118.235 172.047 Q 130.795 172.047 139.641 169.476 Q 148.488 166.904 153.148 161.223 Q 157.806 155.54 157.806 146.07 Q 157.806 138.493 154.227 133.15 Q 150.648 127.806 144.841 124.424 C 143.057 123.385 141.183 122.49 139.238 121.71 C 142.541 119.991 145.318 117.859 147.542 115.291 Q 152.404 109.677 152.405 101.694 Q 152.405 95.606 149.636 91.073 Q 146.866 86.54 141.869 83.497 Q 136.872 80.453 130.12 78.898 Q 123.367 77.341 115.533 77.341 L 74.341 77.341 Z  M 172.662 77.341 L 172.662 172.047 L 203.05 172.047 L 203.05 77.341 L 172.662 77.341 Z  M 221.958 77.341 L 221.958 172.047 L 253.021 172.047 L 253.021 133.657 L 282.733 172.047 L 318.659 172.047 L 279.763 121.717 L 316.633 77.34 L 282.058 77.34 L 253.021 112.393 L 253.021 77.34 L 221.958 77.341 Z  M 327.438 77.341 L 327.438 172.047 L 395.641 172.047 L 395.641 148.37 L 355.799 148.37 L 355.799 134.841 L 392.94 134.841 L 392.94 111.84 L 355.799 111.84 L 355.799 101.018 L 395.641 101.018 L 395.641 77.341 L 327.438 77.341 Z  M 492.275 98.054 L 492.275 113.082 L 499.776 113.082 Q 503.185 113.082 505.368 112.127 Q 507.55 111.169 508.641 109.394 Q 509.732 107.617 509.731 105.158 Q 509.731 101.47 507.345 99.764 Q 504.958 98.055 499.776 98.055 L 492.275 98.054 Z  M 104.053 99.664 L 111.482 99.664 Q 116.614 99.664 118.977 101.356 Q 121.341 103.047 121.341 106.7 Q 121.341 109.136 120.26 110.894 Q 119.18 112.653 117.019 113.6 Q 114.859 114.547 111.482 114.547 L 104.053 114.547 L 104.053 99.664 Z  M 492.275 132.89 L 492.275 148.601 L 502.503 148.601 Q 505.911 148.601 508.776 148.055 Q 511.64 147.508 513.413 145.732 Q 515.187 143.956 515.185 140.131 Q 515.185 137.808 514.163 136.374 Q 513.14 134.939 511.368 134.188 Q 509.594 133.437 507.345 133.164 Q 505.095 132.89 502.503 132.89 L 492.275 132.89 Z  M 104.053 134.165 L 114.183 134.165 Q 116.749 134.164 118.977 134.435 Q 121.205 134.706 122.962 135.451 Q 124.718 136.195 125.731 137.615 Q 126.744 139.035 126.743 141.335 Q 126.743 145.124 124.987 146.882 Q 123.232 148.641 120.396 149.183 Q 117.559 149.723 114.183 149.723 L 104.053 149.723 L 104.053 134.165 Z " fill="rgb(98,62,98)"/><path d=" M 1135.895 92.277 C 1127.974 92.277 1121.553 85.856 1121.553 77.935 C 1121.553 70.014 1127.974 63.593 1135.895 63.593 C 1143.816 63.593 1150.237 70.014 1150.237 77.935 C 1150.237 85.856 1143.816 92.277 1135.895 92.277 Z  M 1135.895 37.778 C 1113.717 37.778 1095.738 55.757 1095.738 77.935 C 1095.738 108.053 1135.895 152.513 1135.895 152.513 C 1135.895 152.513 1176.052 108.053 1176.052 77.935 C 1176.052 55.757 1158.073 37.778 1135.895 37.778 Z " fill="rgb(98,62,98)"/><path d=" M 1109.105 184.82 C 1109.105 175.482 1113.893 167.254 1121.145 162.458 C 1125.377 159.66 1130.447 158.03 1135.895 158.03 C 1150.681 158.03 1162.685 170.034 1162.685 184.82 C 1162.685 199.606 1150.681 211.611 1135.895 211.611 C 1121.109 211.611 1109.105 199.606 1109.105 184.82 Z  M 1143.964 187.669 C 1143.515 188.222 1143.27 188.913 1143.27 189.625 C 1143.27 190.451 1143.599 191.244 1144.184 191.828 C 1144.768 192.412 1145.56 192.741 1146.387 192.742 C 1147.213 192.741 1148.006 192.412 1148.59 191.828 C 1149.174 191.244 1149.503 190.451 1149.504 189.625 C 1149.503 188.798 1149.174 188.006 1148.59 187.422 C 1148.006 186.837 1147.213 186.508 1146.387 186.508 Q 1146.379 186.508 1146.371 186.508 C 1146.232 186.235 1146.094 185.962 1145.959 185.687 C 1145.721 185.203 1145.491 184.714 1145.271 184.222 C 1145.635 184.142 1146.009 184.104 1146.387 184.104 C 1147.851 184.104 1149.255 184.686 1150.291 185.721 C 1151.326 186.756 1151.908 188.16 1151.908 189.625 C 1151.908 191.089 1151.326 192.494 1150.291 193.529 C 1149.255 194.564 1147.851 195.146 1146.387 195.146 C 1144.923 195.146 1143.518 194.564 1142.483 193.529 C 1141.448 192.493 1140.866 191.089 1140.866 189.625 C 1140.866 188.161 1141.448 186.756 1142.483 185.721 C 1142.604 185.6 1142.73 185.485 1142.863 185.38 C 1143.087 185.879 1143.32 186.375 1143.562 186.866 C 1143.695 187.134 1143.829 187.402 1143.964 187.669 M 1120.562 191.406 C 1120.562 190.414 1120.956 189.462 1121.657 188.761 C 1122.359 188.059 1123.31 187.665 1124.302 187.666 C 1125.294 187.665 1126.245 188.059 1126.947 188.761 C 1127.648 189.462 1128.042 190.414 1128.042 191.406 C 1128.042 192.398 1127.648 193.349 1126.947 194.051 C 1126.245 194.752 1125.294 195.146 1124.302 195.146 C 1123.31 195.146 1122.359 194.752 1121.657 194.051 C 1120.956 193.349 1120.562 192.398 1120.562 191.406 M 1137.423 172.113 C 1137.955 172.072 1138.487 172.043 1139.02 172.026 C 1139.35 172.016 1139.68 172.019 1140.009 172.035 C 1140.123 172.042 1140.235 172.05 1140.349 172.06 C 1140.427 172.067 1140.506 172.078 1140.584 172.091 C 1140.602 172.092 1140.62 172.096 1140.636 172.098 C 1140.65 172.176 1140.661 172.254 1140.668 172.335 Q 1140.713 172.775 1140.711 173.221 C 1140.709 173.502 1140.702 173.783 1140.689 174.064 C 1140.675 174.368 1140.657 174.671 1140.639 174.974 C 1140.62 175.296 1140.602 175.619 1140.588 175.941 C 1140.571 176.271 1140.563 176.601 1140.563 176.931 C 1140.561 177.286 1140.575 177.642 1140.604 177.996 C 1140.626 178.26 1140.661 178.522 1140.71 178.782 C 1140.181 178.835 1139.654 178.902 1139.127 178.98 C 1138.303 179.101 1137.483 179.255 1136.671 179.443 C 1135.918 179.615 1135.173 179.822 1134.44 180.064 C 1133.753 180.29 1133.078 180.552 1132.418 180.848 C 1131.614 181.207 1130.837 181.625 1130.094 182.098 L 1129.026 180.842 L 1129.047 180.839 Q 1129.298 180.804 1129.549 180.759 C 1129.669 180.736 1129.788 180.705 1129.905 180.668 C 1129.962 180.648 1130.019 180.627 1130.074 180.604 C 1130.142 180.576 1130.207 180.543 1130.27 180.506 C 1130.418 180.42 1130.549 180.309 1130.659 180.178 C 1130.865 179.933 1130.979 179.624 1130.981 179.304 C 1130.982 179.003 1130.887 178.71 1130.708 178.468 C 1130.605 178.33 1130.478 178.21 1130.334 178.114 C 1130.271 178.071 1130.204 178.033 1130.135 178 C 1130.078 177.973 1130.021 177.948 1129.96 177.927 C 1129.814 177.87 1129.663 177.827 1129.508 177.795 C 1129.271 177.747 1129.032 177.706 1128.792 177.672 C 1128.573 177.642 1128.354 177.615 1128.135 177.592 C 1127.804 177.556 1127.47 177.526 1127.137 177.498 C 1126.616 177.455 1126.094 177.416 1125.572 177.384 C 1124.754 177.334 1123.939 177.288 1123.119 177.248 C 1122.756 177.231 1122.398 177.362 1122.135 177.615 C 1121.869 177.866 1121.72 178.217 1121.72 178.582 L 1121.72 179.829 C 1121.72 180.191 1121.866 180.536 1122.124 180.787 C 1122.382 181.038 1122.733 181.174 1123.093 181.165 C 1123.967 181.139 1124.842 181.108 1125.716 181.072 L 1127.955 183.705 C 1127.38 184.211 1126.837 184.752 1126.331 185.326 C 1125.694 185.11 1125.012 184.994 1124.302 184.994 C 1120.763 184.994 1117.89 187.867 1117.89 191.406 C 1117.89 194.945 1120.763 197.817 1124.302 197.817 C 1127.841 197.817 1130.714 194.945 1130.714 191.406 C 1130.714 189.559 1129.931 187.893 1128.678 186.723 C 1129.254 186.106 1129.882 185.54 1130.553 185.028 C 1131.471 184.338 1132.462 183.754 1133.51 183.286 C 1134.086 183.028 1134.675 182.799 1135.275 182.602 C 1135.932 182.387 1136.596 182.2 1137.27 182.046 C 1138.012 181.875 1138.762 181.733 1139.516 181.623 C 1140.119 181.534 1140.724 181.46 1141.331 181.401 C 1141.412 181.668 1141.498 181.934 1141.589 182.198 C 1141.661 182.409 1141.736 182.62 1141.814 182.83 C 1139.63 184.301 1138.194 186.796 1138.194 189.625 C 1138.194 194.146 1141.865 197.817 1146.387 197.817 C 1150.908 197.817 1154.58 194.146 1154.58 189.625 C 1154.58 185.103 1150.908 181.432 1146.387 181.432 C 1145.647 181.432 1144.931 181.53 1144.25 181.715 C 1144.205 181.587 1144.16 181.459 1144.116 181.331 C 1144.025 181.068 1143.939 180.803 1143.859 180.536 C 1143.751 180.175 1143.653 179.81 1143.567 179.443 C 1143.494 179.133 1143.432 178.821 1143.384 178.506 C 1143.327 178.266 1143.288 178.022 1143.266 177.776 C 1143.243 177.498 1143.233 177.22 1143.234 176.94 C 1143.234 176.648 1143.241 176.358 1143.256 176.068 C 1143.27 175.758 1143.286 175.448 1143.306 175.138 C 1143.325 174.823 1143.343 174.506 1143.357 174.19 C 1143.371 173.872 1143.38 173.553 1143.382 173.234 C 1143.384 172.845 1143.366 172.456 1143.327 172.069 C 1143.288 171.679 1143.212 171.294 1143.101 170.919 C 1143.054 170.757 1142.984 170.602 1142.892 170.461 C 1142.805 170.326 1142.7 170.204 1142.581 170.096 C 1142.49 170.014 1142.391 169.94 1142.287 169.877 C 1142.189 169.816 1142.086 169.763 1141.98 169.716 C 1141.833 169.653 1141.68 169.6 1141.525 169.56 C 1141.347 169.513 1141.167 169.476 1140.985 169.449 C 1140.858 169.43 1140.73 169.414 1140.602 169.401 C 1140.45 169.387 1140.297 169.376 1140.144 169.367 C 1139.742 169.348 1139.339 169.344 1138.937 169.357 C 1138.428 169.371 1137.92 169.398 1137.412 169.435 C 1137.388 169.408 1137.363 169.382 1137.337 169.357 C 1136.959 168.979 1136.447 168.767 1135.913 168.767 L 1132.639 168.767 C 1132.105 168.767 1131.592 168.979 1131.214 169.357 C 1130.837 169.734 1130.625 170.246 1130.625 170.78 C 1130.625 171.314 1130.837 171.826 1131.214 172.205 C 1131.592 172.582 1132.105 172.794 1132.639 172.794 L 1135.913 172.794 C 1136.447 172.794 1136.959 172.582 1137.337 172.205 C 1137.367 172.175 1137.395 172.145 1137.423 172.113" fill-rule="evenodd" fill="rgb(98,62,98)"/></g></svg>