<svg xmlns="http://www.w3.org/2000/svg" style="isolation:isolate" viewBox="0 0 1024 186"><defs><clipPath id="a"><path d="M0 0h1024v186H0z"/></clipPath></defs><g clip-path="url(#a)"><path fill="#3E623E000" d="M0 0h1024v186H0z"/><path fill="#E3E3E3" d="M0 0h1024v177.98H0z"/><path fill="#3E623E000" d="M864.1 126.04v7.07h11.26q6.14 0 10.99-1.69 4.84-1.69 7.67-4.95 2.84-3.26 2.84-7.9 0-3.53-1.62-6.16-1.61-2.63-4.52-4.4-2.92-1.77-6.85-2.67-3.94-.9-8.5-.9h-24.02v55h25.59q7.32 0 12.48-1.5 5.15-1.5 7.87-4.8t2.72-8.8q0-4.4-2.1-7.5-2.08-3.1-5.46-5.06-3.39-1.97-7.44-2.87-4.06-.9-8.07-.9H864.1v9.42h10.47q1.5 0 2.8.16 1.29.16 2.31.59 1.03.43 1.62 1.25.59.83.59 2.17 0 2.2-1.03 3.22-1.02 1.02-2.67 1.33-1.66.32-3.62.32h-5.9V117.4H873q3 0 4.37.98 1.38.98 1.38 3.1 0 1.42-.63 2.44t-1.89 1.57-3.23.55zm61.5-21.6h-17.33v36.92q0 5.9 1.93 9.94t5.31 6.52q3.39 2.47 7.76 3.61t9.25 1.14 9.25-1.14 7.75-3.61q3.39-2.47 5.32-6.52t1.93-9.94v-36.93h-17.32v35.36q0 2.2-.75 3.89t-2.28 2.63q-1.54.94-3.9.94t-3.9-.94q-1.53-.94-2.28-2.63-.75-1.7-.75-3.9v-35.35Zm50.3 34.1-11.65 8.48q1.89 4.16 5.59 7.54t8.77 5.3q5.08 1.93 10.99 1.93 4.25 0 8.26-1.18 4.02-1.18 7.2-3.46 3.2-2.28 5.08-5.77 1.9-3.5 1.9-8.06 0-3.22-.95-5.85t-2.8-4.75-4.44-3.73q-2.6-1.62-5.9-2.8-2.45-.86-4.58-1.56-2.12-.71-3.73-1.42-1.62-.7-2.56-1.61-.95-.9-.95-2.16 0-.94.51-1.5.52-.54 1.46-.82.94-.27 2.13-.27 1.5 0 3.07.55t3.1 1.69q1.54 1.13 2.8 3.1l12.83-7.07q-1.5-2.83-4.37-5.66t-7.32-4.71q-4.45-1.89-10.67-1.89-5.74 0-10.54 1.89-4.8 1.88-7.72 5.58-2.91 3.69-2.91 9.1 0 4.17 1.53 7.24 1.54 3.06 3.86 5.18 2.32 2.13 4.88 3.46 2.56 1.34 4.53 2.12 4.49 1.73 6.69 2.75t2.95 1.8q.75.8.75 1.9 0 1.17-.63 1.96-.63.78-1.73 1.14-1.1.35-2.52.35-2.44 0-4.84-1.02t-4.45-3.03q-2.05-2-3.62-4.75Zm-299.64 0-11.65 8.48q1.9 4.16 5.6 7.54t8.77 5.3q5.08 1.93 10.98 1.93 4.25 0 8.27-1.18 4.01-1.18 7.2-3.46t5.08-5.77q1.89-3.5 1.89-8.06 0-3.22-.95-5.85-.94-2.63-2.8-4.75-1.84-2.12-4.44-3.73-2.6-1.62-5.9-2.8-2.44-.86-4.57-1.56-2.13-.71-3.74-1.42-1.61-.7-2.56-1.61-.94-.9-.94-2.16 0-.94.51-1.5.51-.54 1.46-.82.94-.27 2.12-.27 1.5 0 3.07.55 1.58.55 3.11 1.69 1.54 1.13 2.8 3.1l12.83-7.07q-1.5-2.83-4.37-5.66t-7.32-4.71q-4.45-1.89-10.67-1.89-5.75 0-10.55 1.89-4.8 1.88-7.71 5.58-2.92 3.69-2.92 9.1 0 4.17 1.54 7.24 1.53 3.06 3.86 5.18 2.32 2.13 4.88 3.46 2.56 1.34 4.52 2.12 4.5 1.73 6.7 2.75t2.95 1.8q.75.8.75 1.9 0 1.17-.63 1.96-.63.78-1.74 1.14-1.1.35-2.52.35-2.44 0-4.84-1.02t-4.45-3.03q-2.04-2-3.62-4.75Zm55.2 1.4v12.42h29.12v-12.41h-29.13Zm7.63 4.64 6.77-15.16 6.77 15.16-1.18 4.48 5.82 10.37h19.69l-31.1-58.93-31.1 58.93h19.68l5.99-10.92zm89.04-40.15h-20.08l-8.66 17.76-8.66-17.76h-20.07l19.92 33.55v21.45h17.7v-21.6zm-313.97 0H494.1l-8.66 17.76-8.66-17.76H456.7l19.92 33.55v21.45h17.72v-21.6l19.83-33.4Zm20.32 27.5q0-3.06.82-5.54.83-2.47 2.44-4.24 1.62-1.77 3.9-2.75t5.2-.98q3.07 0 5.35.98t3.86 2.75q1.57 1.77 2.36 4.24.79 2.48.79 5.54 0 3.07-.83 5.54-.83 2.48-2.44 4.24-1.61 1.77-3.9 2.75-2.28.99-5.2.99-2.9 0-5.19-.99-2.28-.98-3.9-2.75-1.61-1.76-2.44-4.24-.82-2.47-.82-5.54m-18.35 0q0 6.6 2.25 12.06 2.24 5.46 6.33 9.47 4.1 4 9.73 6.17 5.63 2.16 12.4 2.16t12.4-2.16 9.72-6.17q4.1-4 6.34-9.47 2.24-5.46 2.24-12.06t-2.28-11.94q-2.29-5.34-6.46-9.2-4.17-3.84-9.76-5.89-5.59-2.04-12.2-2.04-6.46 0-12.05 2.04-5.59 2.05-9.76 5.9t-6.53 9.19q-2.37 5.34-2.37 11.94m86.2-27.5h-17.31v36.93q0 5.9 1.93 9.94t5.31 6.52q3.39 2.47 7.76 3.61t9.25 1.14 9.25-1.14 7.75-3.61q3.39-2.47 5.32-6.52 1.92-4.05 1.92-9.94v-36.93H616.2v35.36q0 2.2-.75 3.89t-2.29 2.63q-1.53.94-3.9.94-2.36 0-3.89-.94t-2.28-2.63q-.75-1.7-.75-3.9v-35.35Zm-348.12 21.6v7.08h11.26q6.14 0 10.98-1.69t7.68-4.95q2.83-3.26 2.83-7.9 0-3.53-1.61-6.16-1.62-2.63-4.53-4.4t-6.85-2.67-8.5-.9h-24.02v55h25.6q7.31 0 12.47-1.5t7.87-4.8q2.72-3.3 2.72-8.8 0-4.4-2.09-7.5-2.08-3.1-5.47-5.06-3.38-1.97-7.44-2.87-4.05-.9-8.07-.9h-12.83v9.42h10.47q1.5 0 2.8.16t2.32.59 1.61 1.25q.6.83.6 2.17 0 2.2-1.03 3.22t-2.68 1.33q-1.65.32-3.62.32h-5.9V117.4h4.33q2.99 0 4.36.98 1.38.98 1.38 3.1 0 1.42-.63 2.44t-1.89 1.57-3.22.55h-8.9Zm62.27-21.6h-17.71v55h17.71zm29.13 0h-18.1v55h18.1zm37.08 0h-20.15l-21.89 26.32 22.28 28.68h20.94L361.2 130.2l21.5-25.77Zm18.27 41.25v13.75h27.79v-13.75h-27.8Zm0-41.25v13.75h27.79v-13.75h-27.8Zm0 20.04v13.35h26.21v-13.35zm4.56-20.04H389v55h16.53v-55Zm-339.15 34.1-11.66 8.49q1.9 4.16 5.6 7.54t8.77 5.3q5.08 1.93 10.98 1.93 4.26 0 8.27-1.18 4.02-1.18 7.2-3.46 3.2-2.28 5.08-5.77 1.9-3.5 1.9-8.06 0-3.22-.95-5.85t-2.8-4.75-4.45-3.73q-2.6-1.62-5.9-2.8-2.44-.86-4.57-1.56-2.12-.71-3.73-1.42-1.62-.7-2.56-1.61-.95-.9-.95-2.16 0-.94.51-1.5.52-.54 1.46-.82.94-.27 2.13-.27 1.5 0 3.06.55 1.58.55 3.11 1.69 1.54 1.13 2.8 3.1l12.83-7.07q-1.5-2.83-4.37-5.66t-7.32-4.71q-4.45-1.89-10.67-1.89-5.74 0-10.55 1.89-4.8 1.88-7.71 5.58-2.91 3.69-2.91 9.1 0 4.17 1.53 7.24 1.54 3.06 3.86 5.18 2.32 2.13 4.88 3.46 2.56 1.34 4.53 2.12 4.48 1.73 6.69 2.75 2.2 1.02 2.95 1.8.75.8.75 1.9 0 1.17-.63 1.96-.63.78-1.73 1.14-1.1.35-2.52.35-2.44 0-4.84-1.02t-4.45-3.03q-2.05-2-3.62-4.75m55.18 1.42v12.41h29.13v-12.41zm7.64 4.63 6.77-15.16 6.77 15.16-1.18 4.48 5.83 10.37h19.68l-31.1-58.93-31.1 58.93h19.69l5.98-10.92zm89.04-40.15h-20.07l-8.66 17.76-8.66-17.76h-20.08l19.92 33.55v21.45h17.71v-21.6zm-195 0H5.5v55h17.71v-55ZM0 0v86.16h341.33V0zm7.95 8.66h173.21V77.5H7.95zm295.43 11.22q4.82 0 8.27 1.47 3.46 1.46 5.68 3.66 2.23 2.2 3.4 4.4l-9.96 5.49q-.98-1.53-2.17-2.41-1.19-.89-2.41-1.31-1.22-.43-2.38-.43-.92 0-1.65.21-.73.22-1.13.64-.4.43-.4 1.16 0 .98.74 1.68.73.7 1.98 1.25t2.9 1.1 3.54 1.22q2.57.92 4.58 2.17 2.02 1.25 3.45 2.9a11.5 11.5 0 0 1 2.17 3.7q.73 2.04.73 4.54 0 3.54-1.46 6.26-1.47 2.72-3.94 4.48-2.47 1.77-5.59 2.7-3.11.9-6.4.9-4.59 0-8.53-1.49-3.94-1.5-6.8-4.12-2.88-2.62-4.34-5.86l9.04-6.6q1.22 2.14 2.8 3.7 1.6 1.56 3.45 2.35 1.87.8 3.76.8 1.1 0 1.95-.28.86-.27 1.35-.88.49-.62.49-1.53 0-.86-.58-1.47-.59-.6-2.3-1.4-1.7-.8-5.19-2.14-1.52-.6-3.5-1.65-1.99-1.03-3.8-2.68-1.8-1.65-2.98-4.03-1.2-2.38-1.2-5.62 0-4.2 2.27-7.08 2.25-2.87 5.98-4.33 3.72-1.47 8.18-1.47M196.1 21.1h18.62q3.54 0 6.6.7 3.05.7 5.3 2.08 2.27 1.38 3.52 3.42t1.25 4.8q0 3.6-2.2 6.13c-1 1.16-2.26 2.12-3.75 2.9.88.34 1.72.75 2.53 1.22q2.63 1.52 4.25 3.93 1.61 2.42 1.61 5.84 0 4.27-2.1 6.83-2.11 2.56-6.1 3.73-4 1.16-9.69 1.16H196.1zm44.15 0h13.43v27.47q0 1.71.58 3.03.58 1.3 1.77 2.04 1.19.73 3.02.73t3.02-.73q1.2-.73 1.78-2.04.57-1.32.57-3.03V21.1h13.44v28.7q0 4.57-1.5 7.72-1.5 3.14-4.12 5.06-2.63 1.93-6.01 2.81-3.4.89-7.18.89t-7.17-.89q-3.4-.88-6.02-2.8-2.62-1.93-4.12-5.07-1.5-3.15-1.5-7.73V21.1Zm-217.85.82v42.32h19.65q5.63 0 9.59-1.15t6.05-3.69q2.08-2.54 2.08-6.77 0-3.38-1.6-5.77t-4.2-3.9c-.8-.47-1.64-.87-2.51-1.21a12.4 12.4 0 0 0 3.72-2.87q2.17-2.51 2.17-6.08 0-2.72-1.24-4.74-1.24-2.03-3.47-3.39-2.24-1.36-5.27-2.05-3.02-.7-6.53-.7zm44.02 0v42.32h13.61V21.92h-13.6Zm22.08 0v42.32h13.9V47.09l13.3 17.15h16.1l-17.42-22.49 16.5-19.83h-15.47l-13 15.66V21.92zm47.22 0v42.32h30.54V53.66h-17.84v-6.05h16.63V37.34h-16.63V32.5h17.84V21.92h-30.53Zm73.81 9.26v6.71h3.36q1.53 0 2.5-.43.98-.42 1.47-1.22t.49-1.89q0-1.65-1.07-2.41t-3.39-.76zm-173.83.71h3.33q2.3 0 3.36.76 1.05.76 1.05 2.39 0 1.09-.48 1.87-.48.79-1.45 1.21-.97.43-2.48.43H35.7V31.9Zm173.83 14.85v7.02h4.58q1.53 0 2.8-.24 1.3-.25 2.09-1.04.79-.8.79-2.5 0-1.04-.46-1.68t-1.25-.98q-.8-.33-1.8-.45-1-.13-2.17-.13zm-173.83.57h4.54q1.15 0 2.15.12t1.78.46q.79.33 1.24.96.45.64.45 1.67 0 1.69-.78 2.47-.79.8-2.06 1.03-1.27.24-2.78.24H35.7zM341.33 0v86.16h341.34V0zm7.95 8.66H522.5V77.5H349.27V8.66Zm295.44 11.22q4.82 0 8.27 1.47 3.45 1.46 5.68 3.66t3.39 4.4l-9.96 5.49q-.97-1.53-2.16-2.41-1.2-.89-2.42-1.31-1.22-.43-2.38-.43-.91 0-1.65.21-.73.22-1.13.64-.4.43-.4 1.16 0 .98.74 1.68.73.7 1.98 1.25 1.26.55 2.9 1.1 1.65.55 3.55 1.22 2.56.92 4.58 2.17 2.01 1.25 3.45 2.9a11.5 11.5 0 0 1 2.16 3.7q.74 2.04.74 4.54 0 3.54-1.47 6.26t-3.94 4.48q-2.47 1.77-5.58 2.7-3.12.9-6.42.9-4.58 0-8.51-1.49-3.94-1.5-6.81-4.12t-4.34-5.86l9.04-6.6q1.22 2.14 2.8 3.7 1.6 1.56 3.46 2.35 1.86.8 3.75.8 1.1 0 1.96-.28.85-.27 1.34-.88.49-.62.49-1.53 0-.86-.58-1.47-.58-.6-2.3-1.4-1.7-.8-5.18-2.14-1.53-.6-3.51-1.65-1.99-1.03-3.79-2.68t-2.99-4.03-1.19-5.62q0-4.2 2.26-7.08 2.26-2.87 5.98-4.33 3.73-1.47 8.19-1.47M537.43 21.1h18.63q3.54 0 6.59.7t5.31 2.08 3.51 3.42 1.25 4.8q0 3.6-2.2 6.13c-1 1.16-2.25 2.12-3.75 2.9.88.34 1.73.75 2.53 1.22q2.63 1.52 4.25 3.93 1.62 2.42 1.62 5.84 0 4.27-2.11 6.83-2.1 2.56-6.1 3.73-4 1.16-9.68 1.16h-19.85zm44.15 0H595v27.47q0 1.71.58 3.03.58 1.3 1.77 2.04 1.2.73 3.02.73 1.84 0 3.03-.73t1.77-2.04q.58-1.32.58-3.03V21.1h13.43v28.7q0 4.57-1.5 7.72-1.5 3.14-4.12 5.06-2.62 1.93-6.01 2.81-3.39.89-7.17.89-3.8 0-7.18-.89-3.39-.88-6.01-2.8-2.63-1.93-4.13-5.07-1.5-3.15-1.5-7.73V21.1Zm-217.85.82v42.32h19.66q5.62 0 9.58-1.15t6.05-3.69 2.09-6.77q0-3.38-1.6-5.77-1.61-2.39-4.21-3.9c-.8-.47-1.64-.87-2.5-1.21a12.4 12.4 0 0 0 3.71-2.87q2.18-2.51 2.18-6.08 0-2.72-1.24-4.74-1.24-2.03-3.48-3.39t-5.26-2.05q-3.02-.7-6.53-.7zm44.03 0v42.32h13.6V21.92zm22.07 0v42.32h13.9V47.09l13.31 17.15h16.09L455.7 41.75l16.51-19.83h-15.48l-13 15.66V21.92h-13.91Zm47.23 0v42.32h30.54V53.66h-17.84v-6.05h16.63V37.34h-16.63V32.5h17.84V21.92zm73.8 9.26v6.71h3.36q1.53 0 2.5-.43.98-.42 1.47-1.22.5-.8.49-1.89 0-1.65-1.07-2.41t-3.39-.76zm-173.82.71h3.32q2.3 0 3.36.76t1.06 2.39q0 1.09-.49 1.87-.48.79-1.45 1.21-.96.43-2.48.43h-3.32V31.9Zm173.82 14.85v7.02h4.58q1.53 0 2.81-.24 1.28-.25 2.08-1.04.8-.8.8-2.5 0-1.04-.47-1.68-.45-.64-1.25-.98-.8-.33-1.8-.45-1-.13-2.17-.13zm-173.82.57h4.53q1.15 0 2.15.12t1.78.46q.79.33 1.24.96.46.64.46 1.67 0 1.69-.79 2.47-.79.8-2.06 1.03-1.27.24-2.78.24h-4.53zM682.67 0v86.16H1024V0zm7.94 8.66h173.22V77.5H690.6V8.66Zm295.44 11.22q4.82 0 8.27 1.47 3.45 1.46 5.68 3.66t3.39 4.4l-9.95 5.49q-.98-1.53-2.17-2.41-1.2-.89-2.41-1.31-1.22-.43-2.38-.43-.92 0-1.65.21-.74.22-1.13.64-.4.43-.4 1.16 0 .98.73 1.68.74.7 1.99 1.25t2.9 1.1 3.54 1.22q2.56.92 4.58 2.17 2.01 1.25 3.45 2.9a11.5 11.5 0 0 1 2.17 3.7q.73 2.04.73 4.54 0 3.54-1.47 6.26-1.46 2.72-3.93 4.48-2.48 1.77-5.6 2.7-3.1.9-6.4.9-4.58 0-8.52-1.49-3.94-1.5-6.8-4.12-2.88-2.62-4.34-5.86l9.03-6.6q1.22 2.14 2.81 3.7t3.45 2.35q1.86.8 3.76.8 1.1 0 1.95-.28.86-.27 1.34-.88.5-.62.5-1.53 0-.86-.59-1.47-.58-.6-2.29-1.4-1.7-.8-5.19-2.14-1.52-.6-3.5-1.65-2-1.03-3.8-2.68t-2.99-4.03-1.19-5.62q0-4.2 2.26-7.08 2.26-2.87 5.99-4.33 3.72-1.47 8.18-1.47M878.77 21.1h18.62q3.54 0 6.6.7 3.05.7 5.3 2.08 2.26 1.38 3.52 3.42 1.25 2.04 1.25 4.8 0 3.6-2.2 6.13c-1 1.16-2.26 2.12-3.75 2.9.88.34 1.72.75 2.53 1.22q2.62 1.52 4.24 3.93 1.62 2.42 1.62 5.84 0 4.27-2.1 6.83-2.11 2.56-6.11 3.73-4 1.16-9.68 1.16h-19.85V21.1Zm44.14 0h13.44v27.47q0 1.71.57 3.03.59 1.3 1.78 2.04 1.19.73 3.02.73t3.02-.73q1.2-.73 1.77-2.04.58-1.32.58-3.03V21.1h13.43v28.7q0 4.57-1.5 7.72-1.49 3.14-4.11 5.06-2.63 1.93-6.02 2.81-3.39.89-7.17.89-3.79 0-7.18-.89-3.38-.88-6.01-2.8-2.63-1.93-4.12-5.07-1.5-3.15-1.5-7.73zm-217.84.82v42.32h19.65q5.62 0 9.58-1.15 3.97-1.15 6.05-3.69 2.09-2.54 2.09-6.77 0-3.38-1.6-5.77t-4.2-3.9c-.8-.47-1.64-.87-2.51-1.21a12.4 12.4 0 0 0 3.71-2.87q2.18-2.51 2.18-6.08 0-2.72-1.24-4.74-1.24-2.03-3.48-3.39-2.23-1.36-5.26-2.05-3.02-.7-6.53-.7zm44.02 0v42.32h13.6V21.92zm22.07 0v42.32h13.91V47.09l13.3 17.15h16.1l-17.43-22.49 16.51-19.83h-15.48l-13 15.66V21.92h-13.9Zm47.23 0v42.32h30.54V53.66h-17.84v-6.05h16.63V37.34h-16.63V32.5h17.84V21.92zm73.8 9.26v6.71h3.37q1.52 0 2.5-.43.98-.42 1.47-1.22.48-.8.48-1.89 0-1.65-1.06-2.41-1.07-.76-3.4-.76h-3.35Zm-173.82.71h3.33q2.3 0 3.35.76 1.06.76 1.06 2.39 0 1.09-.48 1.87-.49.79-1.45 1.21-.97.43-2.48.43h-3.33V31.9ZM892.2 46.74v7.02h4.58q1.52 0 2.8-.24 1.29-.25 2.08-1.04.8-.8.8-2.5 0-1.04-.46-1.68t-1.25-.98q-.8-.33-1.8-.45-1.01-.13-2.17-.13zm-173.83.57h4.54q1.14 0 2.14.12t1.79.46q.78.33 1.24.96.45.64.45 1.67 0 1.69-.79 2.47-.78.8-2.05 1.03-1.27.24-2.78.24h-4.54z"/></g></svg>