<svg xmlns="http://www.w3.org/2000/svg" style="isolation:isolate" viewBox="-1023.42 -1503.62 768 234"><path d="M155.9 0c-31.703 0-61.208 9.49-85.832 25.783C27.863 53.71 0 101.625 0 156c0 86.099 69.857 156 155.9 156 53.956 0 101.538-27.493 129.53-69.225H1024V60.307H278.941C250.405 23.634 205.903 0 155.901 0" style="stroke-width:.352777;fill:#81ca9f;fill-opacity:1;stroke:none" transform="matrix(.75 0 0 .75 -1023.42 -1503.62)"/><path d="M155.902 8.92a146.6 146.6 0 0 0-57.19 11.562 147.2 147.2 0 0 0-46.72 31.541 147.3 147.3 0 0 0-31.52 46.75A146.8 146.8 0 0 0 8.917 156v.01a146.8 146.8 0 0 0 11.557 57.217c7.4 17.47 18.1 33.35 31.52 46.76a147.4 147.4 0 0 0 46.72 31.538 146.7 146.7 0 0 0 57.19 11.565 146.7 146.7 0 0 0 57.179-11.565 147.4 147.4 0 0 0 46.732-31.539c5.614-5.614 10.724-11.682 15.346-18.097-.209.29-.39.598-.601.886H1024V60.307H267.486c.2.233.374.488.573.722-2.629-3.103-5.36-6.121-8.245-9.006a147.3 147.3 0 0 0-46.732-31.54 146.55 146.55 0 0 0-57.18-11.563m-80.98 13.783a156 156 0 0 0-4.854 3.08c-.185.123-.36.261-.545.385a156 156 0 0 1 5.399-3.465m62.031 40.463h19.05c3.11 0 6.095 1.235 8.292 3.434q.221.222.434.453c2.957-.214 5.915-.368 8.873-.453a88 88 0 0 1 7.027.062c.891.052 1.773.115 2.664.197.746.073 1.491.165 2.227.28 1.057.155 2.104.373 3.14.642.912.239 1.794.541 2.654.914.612.27 1.214.581 1.784.934q.916.56 1.709 1.275a10.8 10.8 0 0 1 1.814 2.125c.529.82.943 1.722 1.213 2.666a36 36 0 0 1 1.316 6.7c.228 2.25.331 4.512.32 6.783q-.016 2.783-.144 5.568a325 325 0 0 1-.3 5.518c-.115 1.804-.209 3.61-.292 5.414-.083 1.69-.123 3.381-.123 5.082-.01 1.628.051 3.245.186 4.863.124 1.43.352 2.852.683 4.252.28 1.835.644 3.65 1.069 5.455a105 105 0 0 0 1.699 6.367c.466 1.556.964 3.103 1.492 4.627q.384 1.122.78 2.24a47.3 47.3 0 0 1 12.435-1.65c26.313 0 47.676 21.377 47.676 47.707s-21.363 47.707-47.676 47.707-47.676-21.377-47.676-47.707c0-16.47 8.36-31 21.065-39.566a190 190 0 0 1-1.31-3.68c-.53-1.54-1.025-3.09-1.5-4.64q-5.293.517-10.563 1.288a165 165 0 0 0-13.07 2.47 129 129 0 0 0-11.608 3.236 106 106 0 0 0-10.272 3.982 89 89 0 0 0-17.205 10.143 88 88 0 0 0-10.912 9.87c7.29 6.811 11.846 16.512 11.846 27.268 0 20.606-16.72 37.336-37.312 37.336-20.593 0-37.311-16.73-37.311-37.336s16.718-37.336 37.31-37.336c4.13 0 8.103.672 11.807 1.934a106 106 0 0 1 9.45-9.438l-13.026-15.334q-7.63.316-15.268.541a7.82 7.82 0 0 1-5.638-2.199 7.78 7.78 0 0 1-2.352-5.58v-7.258c0-2.126.87-4.17 2.414-5.633a7.74 7.74 0 0 1 5.733-2.136c4.767.228 9.514.499 14.271.789 3.037.186 6.073.415 9.11.664 1.938.166 3.877.341 5.804.549q1.913.201 3.824.466 2.1.297 4.166.717a16.3 16.3 0 0 1 2.633.766 9.8 9.8 0 0 1 2.176 1.09 8.8 8.8 0 0 1 2.178 2.064 8.12 8.12 0 0 1 1.586 4.863 8 8 0 0 1-1.877 5.092 8.5 8.5 0 0 1-2.26 1.908 9 9 0 0 1-1.139.57c-.331.136-.652.26-.984.374a18 18 0 0 1-2.074.53q-1.461.264-2.922.466c-.04.001-.081.016-.121.016l6.215 7.316a104 104 0 0 1 13.525-7.28 123 123 0 0 1 11.764-4.564 144 144 0 0 1 12.986-3.619 181 181 0 0 1 14.293-2.697c3.063-.45 6.132-.84 9.209-1.15a45 45 0 0 1-.617-4.575 73 73 0 0 1-.239-6.201c0-1.929.052-3.847.145-5.766.083-1.877.187-3.755.3-5.632.104-1.763.209-3.526.292-5.3.072-1.638.112-3.277.123-4.905a48 48 0 0 0-.248-5.165 15 15 0 0 0-.188-1.378c-.093-.01-.197-.028-.3-.041a21 21 0 0 0-1.368-.176 62 62 0 0 0-1.98-.147 71 71 0 0 0-5.752-.05c-3.105.096-6.2.263-9.295.503q-.24.274-.498.532a11.72 11.72 0 0 1-8.291 3.433h-19.05c-3.11 0-6.095-1.235-8.292-3.433a11.735 11.735 0 0 1 0-16.582 11.72 11.72 0 0 1 8.291-3.434m143.352 14.582c.19.303.412.586.601.89h408.588v145.805H286.01c-.092.174-.201.337-.293.51a147 147 0 0 0 5.615-11.726 146.95 146.95 0 0 0 11.557-57.21v-.025a147 147 0 0 0-11.557-57.219c-3.1-7.316-6.812-14.332-11.027-21.025m667.793 24.666q10.207 0 17.507 3.104t12.014 7.757q4.717 4.653 7.172 9.307l-21.059 11.637q-2.068-3.233-4.587-5.108-2.52-1.874-5.104-2.779t-5.037-.906q-1.938 0-3.488.453-1.551.452-2.391 1.357-.84.906-.84 2.457 0 2.07 1.55 3.555 1.55 1.487 4.198 2.65t6.137 2.327 7.494 2.586q5.426 1.938 9.69 4.59 4.263 2.65 7.3 6.14a24.3 24.3 0 0 1 4.586 7.822q1.551 4.33 1.551 9.631 0 7.498-3.102 13.25-3.1 5.754-8.332 9.502-5.233 3.75-11.822 5.69a47.8 47.8 0 0 1-13.566 1.939q-9.689 0-18.022-3.168-8.333-3.167-14.406-8.727-6.073-5.559-9.174-12.41l19.121-13.963q2.584 4.526 5.944 7.823 3.36 3.296 7.3 4.976t7.946 1.682q2.325 0 4.135-.582 1.808-.582 2.841-1.875 1.035-1.293 1.034-3.233 0-1.81-1.227-3.101-1.227-1.293-4.846-2.975-3.617-1.68-10.982-4.523-3.23-1.294-7.428-3.492-4.2-2.198-8.01-5.688-3.811-3.491-6.332-8.533t-2.52-11.893q0-8.92 4.782-14.996 4.78-6.076 12.662-9.18 7.88-3.102 17.31-3.103M721.1 105h39.404q7.492 0 13.953 1.486 6.46 1.488 11.24 4.397t7.43 7.24q2.648 4.33 2.648 10.148 0 7.628-4.65 12.993c-2.127 2.453-4.783 4.49-7.943 6.132a41 41 0 0 1 5.359 2.594q5.554 3.232 8.979 8.338 3.423 5.107 3.423 12.346 0 9.05-4.457 14.48t-12.92 7.885q-8.462 2.457-20.478 2.457H721.1zm93.408 0h28.424v58.176q0 3.62 1.228 6.4t3.746 4.33 6.395 1.551 6.396-1.55q2.52-1.552 3.746-4.33 1.229-2.781 1.229-6.401V105h28.422v60.762q0 9.696-3.164 16.353-3.165 6.659-8.721 10.73-5.556 4.074-12.727 5.948-7.17 1.875-15.181 1.875t-15.18-1.875q-7.17-1.875-12.726-5.947-5.555-4.073-8.721-10.73-3.166-6.659-3.166-16.354zm-460.932 1.729v89.625h41.584q11.9 0 20.281-2.434 8.381-2.433 12.795-7.81 4.414-5.379 4.414-14.34 0-7.17-3.39-12.227t-8.893-8.258a40.4 40.4 0 0 0-5.297-2.574c3.125-1.626 5.752-3.642 7.856-6.068q4.605-5.314 4.605-12.868 0-5.76-2.623-10.05t-7.357-7.17-11.131-4.354q-6.397-1.472-13.818-1.472zm93.149 0v89.625h28.789v-89.625zm46.703 0v89.625h29.427v-36.33l28.149 36.33h34.037l-36.852-47.63 34.932-41.995h-32.756l-27.51 33.171v-33.17zm99.93 0v89.625h64.615v-22.407h-37.746v-12.802h35.187v-21.768h-35.187v-10.242h37.746v-22.406zm156.165 19.603v14.22h7.106q3.23 0 5.297-.906 2.066-.904 3.1-2.583t1.035-4.008q0-3.491-2.262-5.108-2.26-1.615-7.17-1.615zm-367.798 1.523h7.039q4.861 0 7.1 1.6t2.24 5.059q0 2.304-1.024 3.968t-3.072 2.561-5.244.896h-7.04zm-164.77 24.614a30.4 30.4 0 0 0-6.492.69 254 254 0 0 0 4.004 8.53q1.179 2.4 2.394 4.782h.094c4.81 0 9.421 1.92 12.82 5.322a18.15 18.15 0 0 1 5.319 12.828c0 4.812-1.919 9.426-5.319 12.828a18.13 18.13 0 0 1-12.82 5.32 18.13 18.13 0 0 1-12.82-5.32 18.16 18.16 0 0 1-5.317-12.828c0-4.166 1.437-8.184 4.04-11.387v-.002a448 448 0 0 1-2.34-4.677 271 271 0 0 1-4.069-8.653 25 25 0 0 0-2.213 1.985 32.17 32.17 0 0 0-9.41 22.732 32.17 32.17 0 0 0 9.41 22.733 32.13 32.13 0 0 0 22.72 9.418 32.13 32.13 0 0 0 22.718-9.418 32.17 32.17 0 0 0 9.41-22.733 32.17 32.17 0 0 0-9.41-22.732 32.13 32.13 0 0 0-22.719-9.418m532.568 6.83v14.865h9.69q3.23 0 5.943-.516 2.714-.516 4.393-2.197 1.68-1.68 1.68-5.3-.001-2.2-.971-3.557-.968-1.358-2.647-2.069-1.68-.71-3.812-.968a38 38 0 0 0-4.586-.258zm-367.798 1.205h9.597q2.43 0 4.541.256 2.112.255 3.776.959t2.623 2.049.959 3.521q0 3.585-1.662 5.25-1.664 1.664-4.352 2.176-2.686.512-5.885.512h-9.597zM88.438 173.213a21.75 21.75 0 0 0-15.391 6.379 21.78 21.78 0 0 0-6.373 15.4 21.78 21.78 0 0 0 6.373 15.4 21.754 21.754 0 0 0 30.781 0 21.78 21.78 0 0 0 6.375-15.4 21.78 21.78 0 0 0-6.375-15.4 21.75 21.75 0 0 0-15.39-6.38" style="stroke-width:.352777;fill:#3e5062;fill-opacity:1;stroke:none" transform="matrix(.75 0 0 .75 -1023.42 -1503.62)"/></svg>