<svg xmlns="http://www.w3.org/2000/svg" style="isolation:isolate" viewBox="0 0 1024 721.9"><defs><mask id="a"><path fill="#1C1C1C" d="M184.472 747.063c302.631-301.004 719.636-487.129 1179.77-487.129 449.013 0 856.956 177.236 1157.627 465.506l-1179.51 1179.51z"/></mask></defs><path fill="none" d="M184.472 747.063c302.631-301.004 719.636-487.129 1179.77-487.129 449.013 0 856.956 177.236 1157.627 465.506l-1179.51 1179.51z" mask="url(#a)" style="fill:#f9f9f9;fill-opacity:1;stroke:none" transform="scale(.37837)" vector-effect="non-scaling-stroke"/><path fill="#CAC381" fill-rule="evenodd" d="M0 563.591C349.863 215.355 832.102 0 1364.242 0c521.019 0 994.201 206.448 1342.134 541.933L1342.359 1905.95Zm184.472 183.472c302.631-301.004 719.636-487.129 1179.77-487.129 449.013 0 856.956 177.236 1157.627 465.506l-1179.51 1179.51z" style="fill:#1a1a1a;stroke:none" transform="scale(.37837)"/><path fill="#81ca9f" d="M2666.003 582.306C2328.667 257.409 1870.115 57.512 1365.242 57.512c-515.994 0-983.604 208.8-1322.876 546.445l138.13 138.13C482.71 444.009 897.649 259.934 1355.242 259.934c449.013 0 856.956 177.236 1157.627 465.506z" style="fill:#000" transform="scale(.37837)"/><path fill="#aeaeae" fill-rule="evenodd" d="m953.054 275.617 37.609-37.61C867.265 119.313 699.616 46.299 515.047 46.299c-188.776 0-359.853 76.381-483.986 199.899l475.707 475.706L68.663 283.798C183.168 169.908 340.948 99.485 515.047 99.485c169.892 0 324.243 67.06 438.007 176.132M506.768 721.903"/><path fill="#81CA9F" d="M979.692 508.294h746.957v641.513H979.692Z" style="fill:#000" transform="scale(.37837)"/><path fill="none" d="M69.798 282.663C184.303 168.773 342.084 98.35 516.182 98.35c169.892 0 324.243 67.06 438.007 176.132L507.903 720.768z"/><path fill="#1C1C1C" fill-rule="evenodd" d="M1022.997 545.217v567.667h660.347V545.217Z" style="fill:#f9f9f9" transform="scale(.37837)"/><path fill="#CAC381" fill-rule="evenodd" d="M1022.997 545.217v567.667h660.347V545.217Zm485.385 335.966q16.764.001 28.755 5.104 11.99 5.101 19.736 12.754 7.746 7.654 11.779 15.306l-34.592 19.134q-3.396-5.315-7.534-8.397-4.138-3.083-8.382-4.572-4.245-1.488-8.278-1.488-3.182 0-5.729.745-2.548.744-3.926 2.232-1.38 1.488-1.38 4.038 0 3.402 2.547 5.847t6.897 4.358 10.08 3.827 12.309 4.252q8.913 3.189 15.916 7.547t11.991 10.097a40 40 0 0 1 7.534 12.862q2.547 7.121 2.547 15.838 0 12.329-5.095 21.79-5.092 9.462-13.688 15.627-8.594 6.164-19.417 9.353-10.822 3.189-22.282 3.189-15.917-.001-29.604-5.21-13.689-5.207-23.664-14.348-9.973-9.142-15.066-20.409l31.406-22.961q4.246 7.442 9.764 12.862 5.515 5.422 11.989 8.185 6.473 2.765 13.052 2.765 3.819 0 6.791-.958 2.972-.955 4.669-3.082t1.696-5.315q0-2.976-2.016-5.102t-7.957-4.89q-5.943-2.764-18.039-7.441-5.304-2.124-12.202-5.738-6.896-3.614-13.156-9.355-6.261-5.739-10.401-14.031-4.135-8.289-4.135-19.559 0-14.669 7.851-24.659 7.852-9.992 20.797-15.093 12.946-5.103 28.437-5.104m-219.433 4.254h46.688v95.665q0 5.951 2.015 10.521t6.154 7.122 10.507 2.553q6.366 0 10.504-2.553 4.137-2.551 6.155-7.12 2.014-4.572 2.014-10.525v-95.663h46.689v99.915q0 15.944-5.2 26.893-5.199 10.947-14.324 17.644t-20.902 9.78q-11.779 3.081-24.936 3.082t-24.937-3.082q-11.777-3.083-20.902-9.78t-14.324-17.644q-5.201-10.948-5.201-26.892zm-106.746 35.075v23.385h11.673q5.306 0 8.701-1.485 3.397-1.491 5.094-4.254 1.698-2.765 1.697-6.591 0-5.74-3.713-8.395-3.715-2.659-11.779-2.659zm0 54.21v24.449h15.916q5.305 0 9.762-.85 4.458-.851 7.217-3.614 2.76-2.764 2.758-8.717 0-3.615-1.592-5.846-1.591-2.233-4.35-3.402t-6.259-1.594q-3.502-.426-7.536-.426zm71.651-353.167v147.378h47.289V621.555Zm76.713 0v147.378h48.339v-59.741l46.237 59.74h55.907l-60.529-78.321 57.376-69.058h-53.804l-45.187 54.549v-54.549zm164.144 0v147.378h106.135v-36.846h-62.001v-21.053h57.798v-35.793h-57.798v-16.842h62.001v-36.844zm-347.624 34.738h11.561q7.986 0 11.663 2.632 3.679 2.633 3.679 8.317 0 3.792-1.682 6.527-1.681 2.737-5.043 4.21-3.363 1.474-8.617 1.475h-11.561zm0 53.689h15.764q3.992-.001 7.46.42 3.468.422 6.201 1.581 2.734 1.159 4.309 3.369 1.577 2.209 1.576 5.788-.001 5.896-2.733 8.632-2.731 2.737-7.145 3.58-4.414.841-9.668.841h-15.764zm-11.57 175.455h64.726q12.307 0 22.919 2.443 10.61 2.445 18.463 7.228t12.201 11.905q4.35 7.122 4.351 16.688 0 12.543-7.64 21.367c-3.493 4.035-7.856 7.385-13.048 10.085 3.057 1.226 6.002 2.632 8.805 4.263q9.125 5.317 14.748 13.713 5.625 8.396 5.624 20.301 0 14.883-7.321 23.811-7.321 8.927-21.222 12.969-13.9 4.038-33.636 4.038h-68.97zm-34.667-263.882v147.378h68.307q19.545-.001 33.311-4.002t21.019-12.843q7.249-8.842 7.249-23.58 0-11.791-5.57-20.106t-14.606-13.578c-2.776-1.617-5.692-3.01-8.72-4.224 5.141-2.675 9.462-5.993 12.923-9.989q7.567-8.737 7.568-21.159 0-9.475-4.31-16.528-4.309-7.054-12.086-11.789-7.776-4.737-18.284-7.158-10.509-2.422-22.699-2.422zm-50.234-46.194h602.009v239.765h-602.009z" style="fill:#1a1a1a" transform="scale(.37837)"/><g style="fill:#f9f9f9"><path d="m202.807 703.017 67.728-61.613-18.842-20.712-26.615 24.212 3.91-21.916q1.485-8.353.343-15.642-1.236-7.392-6.7-13.399-4.24-4.66-10.268-7.125-5.924-2.56-12.968-2.397-7.035-.036-14.52 3.178-7.477 3.016-14.623 9.517-10.563 9.61-13.846 20.356-3.273 10.548-.67 20.483 2.602 9.934 9.668 17.701l22.265-20.255q-2.638-2.9-3.77-6.223-1.027-3.419-.284-6.555.649-3.24 3.238-5.595 1.967-1.79 3.879-2.393 1.92-.801 3.7-.717t3.325.95 2.77 2.212q2.543 2.796 3.562 6.412t1.086 8.475q.077 4.662.07 11.103zm67.846-125.027q-3.693-4.576-5.832-8.787-2.118-4.407-2.724-8.056-.585-3.846.32-6.736.906-2.89 3.303-4.824 2.397-1.935 5.413-2.21t6.543 1.196q3.547 1.275 7.3 4.363 3.773 2.892 7.466 7.468 3.693 4.575 5.81 8.983 2.14 4.21 2.725 8.056.606 3.649-.3 6.539t-3.302 4.824-5.413 2.21-6.564-1q-3.526-1.47-7.3-4.362-3.752-3.089-7.445-7.665m-22.878 18.464q10.552 13.074 21.923 18.469t22.69 3.815q11.23-1.688 21.254-9.777 10.567-8.53 14.479-19.063 3.933-10.731.841-22.809-3.09-12.077-13.642-25.15-10.552-13.074-21.705-18.645t-22.384-3.882q-11.21 1.491-21.778 10.02-10.022 8.09-13.955 18.82-4.021 10.622-1.148 22.876 2.874 12.253 13.425 25.326m104.968-21.561 74.522-53.195-16.268-22.79-29.284 20.905 6.467-21.302q2.46-8.12 2.186-15.493-.356-7.486-5.073-14.095-3.66-5.128-9.356-8.287-5.58-3.24-12.595-3.91-6.981-.865-14.794 1.444-7.78 2.113-15.642 7.726-11.623 8.296-16.15 18.58-4.496 10.09-3.083 20.261 1.413 10.172 7.513 18.718l24.499-17.487q-2.278-3.19-3.009-6.625-.617-3.515.49-6.542 1.027-3.14 3.875-5.174 2.166-1.546 4.135-1.92 2.002-.568 3.76-.275 1.757.294 3.189 1.336t2.489 2.523q2.196 3.077 2.78 6.787.586 3.711.08 8.545-.474 4.638-1.24 11.033zm87.67-117.139q11.011-6.948 18.74-14.638 7.772-7.884 10.305-15.938 2.458-8.173-2.547-16.106-4.258-6.749-11.409-9.686-7.15-2.938-16.434-1.384-9.283 1.553-19.94 8.276-10.063 6.35-15.132 14.846-4.95 8.42-4.942 17.354t5.014 16.867l23.799-15.016q-2.316-3.67-1.25-7.49 1.068-3.818 5.093-6.358 2.605-1.643 4.593-1.904 2.03-.454 3.607.207 1.576.662 2.547 2.2 1.12 1.777 1.1 4.107t-1.21 4.902q-1.073 2.498-3.348 4.927-2.157 2.353-5.235 4.296zm32.44 38.297q11.84-7.47 17.8-15.866 6.078-8.47 6.636-16.768.602-8.49-4.03-15.832-4.033-6.393-9.95-8.95-5.874-2.75-13.425-2.125-7.433.552-16.07 4.18-8.592 3.435-18.182 9.486l7.769 12.314q4.855-3.063 8.574-4.251 3.764-1.382 6.555-1.156 2.716.107 4.665 1.36 1.875 1.135 2.996 2.91 1.867 2.96 1.685 5.559-.256 2.479-2.058 4.609-1.757 1.936-4.48 3.655-2.605 1.643-5.883 2.221-3.158.503-6.385-.937-3.108-1.516-5.723-5.66l-25.574 16.137q3.735 5.92 9.689 10.109 5.879 4.07 13.217 5.731t15.494.157q8.274-1.579 16.68-6.883m44.822-143.073 2.794 134.618 23.857-13.27-4.017-133.94zm74.613 70.721 82.444-39.828-12.179-25.212-32.398 15.65 9.977-19.9q3.798-7.588 4.774-14.9.915-7.44-2.617-14.75-2.74-5.673-7.82-9.75-4.952-4.138-11.752-5.983-6.735-2.033-14.825-1.08-8.025.768-16.724 4.97-12.858 6.212-19.06 15.582-6.136 9.184-6.463 19.448-.328 10.265 4.24 19.72l27.102-13.094q-1.705-3.53-1.845-7.038-.014-3.57 1.59-6.365 1.542-2.922 4.694-4.444 2.395-1.157 4.4-1.193 2.069-.222 3.751.364 1.683.587 2.918 1.856t2.027 2.908q1.644 3.404 1.593 7.16-.052 3.756-1.368 8.434-1.25 4.492-3.088 10.666zm82.038-57.522 91.75-37.508-9.802-23.974-18.53 7.576-.35 5.436-35.378 14.463 7.675-26.732 12.397 30.324-3.305 3.015 9.324 22.807 29.806-12.185-37.085-90.712-23.326 9.536z" style="font-size:140px;line-height:1.25;fill:#f9f9f9;stroke-width:1.44666" transform="scale(.37837)"/></g><g style="fill:#1a1a1a"><path d="m797.369 231.199 30.4 93.165 29.946-9.771-30.4-93.166zm124.898 25.789-16.4 19.723q5.072 6.375 12.923 10.605 7.85 4.23 17.36 5.3 9.68 1.172 19.861-1.393 7.331-1.847 13.742-5.627 6.41-3.78 10.85-9.085 4.574-5.34 6.328-12.134 1.719-6.93-.264-14.804-1.402-5.566-4.16-9.635-2.792-4.206-6.973-7.05-4.046-2.88-9.21-4.466-5.198-1.723-11.413-2.323-6.08-.634-11.071-.965-5.026-.466-8.322-1.513-3.194-1.217-3.912-4.068-.581-2.308 1.046-3.873 1.763-1.599 4.885-2.385 2.58-.65 5.534-.383 2.955.266 6.047 1.653 3.194 1.216 6.221 4.063l19.051-17.792q-3.81-4.238-10.065-7.86-6.118-3.656-14.677-4.965-8.423-1.343-19.148 1.358-9.91 2.496-17.371 7.84-7.46 5.345-10.877 12.99-3.416 7.647-1.056 17.014 1.812 7.195 5.725 11.84 4.05 4.611 8.91 7.285 4.996 2.64 9.921 3.853 5.062 1.18 8.798 1.682 8.49 1.038 12.736 1.845t5.81 1.857q1.7 1.016 2.178 2.917.787 3.122-1.28 5.23-2.103 1.974-5.632 2.863-4.209 1.06-8.862.355-4.517-.739-8.902-3.243-4.419-2.641-8.33-6.709m102.271 1.324 50.88-9.721-4.151-21.727-50.88 9.72zm17.493-44.962 16.897 24.28-.565 8.233 13.643 16.208 34.379-6.568-74.022-92.758-34.614 113.512 34.379-6.568 6.799-21.11-3.651-6.43zm106.738-61.54-11.21 33.355-19.336-29.4-35.404 4.584 42.803 54.737 4.908 37.903 31.239-4.045-4.944-38.181 27.348-63.538z" style="font-weight:900;font-size:140px;line-height:1.25;font-family:Jost;-inkscape-font-specification:&quot;Jost, Heavy&quot;;fill:#1a1a1a;stroke-width:1.44666" transform="scale(.37837)"/></g><g style="fill:#f9f9f9"><path d="m1268.398 192.63 20.002-.858q10.91-.467 19.316-3.77 8.54-3.449 13.33-9.4 4.784-6.09 4.43-14.342-.36-8.393-5.635-13.772t-14.067-7.804q-8.652-2.432-19.562-1.965l-42.661 1.829 4.196 97.91 45.458-1.948q13.009-.558 21.986-3.605 9.118-3.053 13.622-9.132 4.644-6.084 4.224-15.875-.336-7.833-4.346-13.126-3.877-5.44-10.04-8.678-6.165-3.24-13.504-4.466-7.206-1.373-14.34-1.067l-22.798.977.719 16.785 18.603-.798q2.657-.114 4.907.07 2.39.178 4.245.94 1.848.62 2.893 2.117 1.179 1.351 1.28 3.729.168 3.916-1.572 5.813t-4.654 2.581q-2.913.686-6.41.836l-10.49.45-2.218-51.753 7.693-.33q5.315-.228 7.77 1.489 2.59 1.57 2.752 5.347.108 2.517-.933 4.384-1.041 1.866-3.237 2.941t-5.693 1.225l-15.805.677zm81.503-53.505-.294 98 31.5.094.294-98zm55.826.052-4.998 97.873 32.158 1.642 4.998-97.873zm62.22 3.178-41.262 44.854 36.962 53.054 37.192 1.899-37.612-54.069 40.512-43.91zm63.088 103.5 49.119 5.445 2.7-24.35-49.12-5.446zm8.099-73.052 49.119 5.445 2.7-24.35-49.12-5.446zm-3.857 34.786 46.336 5.137 2.623-23.655-46.336-5.137zm-14.594-61.482-10.799 97.403 29.221 3.24 10.799-97.404z" style="font-size:140px;line-height:1.25;fill:#f9f9f9;stroke-width:1.44666" transform="scale(.37837)"/></g><g style="fill:#1a1a1a"><path d="m1713.234 174.647-21.108 28.155-9.136-33.982-35.055-6.755 23.47 65.402-7.232 37.53 30.93 5.96 7.285-37.805 45.901-51.75zm57.009 62.979q1.828-7.047 5.738-11.53 3.945-4.617 9.426-6.233 5.517-1.751 12.157-.03 7.047 1.828 10.881 6.004 4.006 4.076 5.074 9.994 1.104 5.782-.723 12.829-1.792 6.911-5.737 11.529-3.946 4.617-9.462 6.369-5.481 1.616-12.121-.106t-10.646-5.798q-3.97-4.211-5.174-10.164t.587-12.864m-31.575-8.188q-2.952 11.384-1.617 21.854 1.505 10.37 6.76 19.108 5.254 8.74 13.927 14.893 8.774 6.325 20.428 9.347t22.26 1.722q10.707-1.128 19.546-6.213 8.839-5.084 15.058-13.45 6.39-8.468 9.342-19.851 2.952-11.384 1.411-21.618t-7-18.737q-5.462-8.503-14.17-14.521t-20.091-8.97q-11.113-2.882-21.648-1.854t-19.44 5.807-15.36 12.939-9.406 19.544m136.935-14.036-20.714 62.455q-3.305 9.966-2.408 17.934 1.075 7.878 5.378 14.026 4.348 6.014 11.04 10.298 6.78 4.462 15.018 7.194 8.239 2.733 16.209 3.163 8.058.608 15.138-1.616 7.124-2.357 12.561-8.077 5.614-5.808 8.92-15.774l20.713-62.454-29.234-9.696-19.832 59.797q-1.851 5.58-5.965 8.199-3.936 2.53-9.916.546t-7.757-6.408q-1.6-4.513.25-10.094l19.833-59.797zm136.452 113.735-25.001 5.736q.165 8.144 3.842 16.269t10.59 14.743q6.985 6.801 16.636 10.937 6.949 2.978 14.339 3.86 7.39.883 14.136-.643 6.875-1.471 12.39-5.81 5.57-4.467 8.768-11.93 2.261-5.276 2.537-10.184.33-5.037-1.268-9.835-1.471-4.743-4.615-9.136-3.088-4.523-7.666-8.769-4.448-4.191-8.217-7.482-3.713-3.419-5.699-6.25-1.801-2.904-.643-5.606.937-2.188 3.18-2.445 2.371-.203 5.33 1.066 2.446 1.047 4.634 3.051 2.187 2.004 3.805 4.982 1.801 2.904 2.482 7.004l25.938-2.593q-.46-5.68-3.236-12.353-2.647-6.618-8.658-12.85-5.883-6.176-16.049-10.533-9.394-4.025-18.567-4.3-9.173-.276-16.526 3.731-7.353 4.008-11.158 12.887-2.923 6.82-2.629 12.886.423 6.122 2.666 11.195 2.372 5.13 5.552 9.082 3.31 4.007 5.975 6.672 6.121 5.975 9.007 9.192 2.887 3.217 3.493 5 .736 1.838-.036 3.64-1.268 2.96-4.191 3.382-2.868.294-6.213-1.14-3.99-1.71-7.262-5.091-3.143-3.328-5.11-7.979-1.912-4.779-2.556-10.386m80.513 63.077 46.35 23.128 9.876-19.793-46.35-23.128zm41.177-25.14-1.29 29.553-5.443 6.202 1.02 21.162 31.317 15.626-2.602-118.643-96.362 69.263 31.318 15.627 18.209-12.662.995-7.326zm122.188 15.795-29.141 19.725 2.455-35.104-30.932-17.825.84 69.48-19.082 33.116 27.292 15.728 19.223-33.358 60.276-33.937z" style="font-weight:900;font-size:140px;line-height:1.25;font-family:Jost;-inkscape-font-specification:&quot;Jost, Heavy&quot;;fill:#1a1a1a;stroke-width:1.44666" transform="scale(.37837)"/></g><g style="fill:#f9f9f9"><path d="m2326.3 487.871 16.425 11.448q8.958 6.244 17.646 8.715 8.881 2.437 16.298.61 7.497-1.942 12.22-8.718 4.804-6.892 3.871-14.368-.932-7.476-6.452-14.736-5.405-7.18-14.364-13.425l-35.03-24.416-56.038 80.397 37.328 26.018q10.681 7.445 19.668 10.466 9.1 3.101 16.368 1 7.382-2.023 12.986-10.062 4.483-6.432 4.504-13.073.216-6.675-2.721-12.989t-8.03-11.74q-4.896-5.46-10.754-9.544l-18.72-13.048-9.607 13.782 15.275 10.647q2.182 1.521 3.86 3.032 1.792 1.59 2.805 3.32 1.093 1.615 1.016 3.439.119 1.789-1.242 3.741-2.242 3.216-4.776 3.669t-5.266-.77-5.603-3.223l-8.614-6.004 29.62-42.496 6.317 4.403q4.364 3.042 5.276 5.897 1.107 2.819-1.055 5.92-1.44 2.067-3.4 2.92t-4.358.376-5.27-2.479l-12.978-9.046zm98.23 7.047-40.89 51.552q-6.526 8.226-8.418 16.018-1.694 7.769.238 15.02 2.02 7.14 6.834 13.461 4.837 6.518 11.638 11.912 6.8 5.394 14.138 8.534 7.36 3.336 14.774 3.677 7.5.231 14.57-3.275 7.266-3.528 13.791-11.755l40.89-51.552-24.13-19.14-39.15 49.358q-3.654 4.607-8.417 5.655-4.565 1.024-9.5-2.89-4.937-3.916-5.088-8.682.045-4.788 3.7-9.395l39.15-49.358zm57.122 125.035-25.523-2.552q-2.445 7.77-1.557 16.643t5.324 17.354q4.446 8.676 12.27 15.68 5.633 5.041 12.354 8.238t13.6 3.907q6.985.803 13.597-1.546 6.706-2.454 12.12-8.504 3.83-4.277 5.658-8.84 1.923-4.667 1.94-9.725.122-4.964-1.453-10.131-1.481-5.272-4.462-10.758-2.877-5.393-5.396-9.715-2.427-4.427-3.404-7.744-.779-3.327 1.182-5.518 1.587-1.774 3.795-1.3 2.311.565 4.71 2.713 1.983 1.774 3.415 4.371 1.433 2.598 2.015 5.937.779 3.327.114 7.43l25.407 5.83q1.38-5.53.881-12.74-.394-7.116-4.1-14.942-3.6-7.732-11.841-15.108-7.616-6.816-16.22-10.008t-16.852-1.744-14.69 8.646q-4.95 5.529-6.609 11.371-1.555 5.936-1.05 11.46.608 5.618 2.359 10.38 1.855 4.854 3.53 8.231 3.891 7.617 5.598 11.588t1.713 5.854q.11 1.977-1.198 3.437-2.148 2.4-5.052 1.866-2.812-.637-5.524-3.065-3.234-2.894-5.254-7.145-1.916-4.157-2.294-9.193-.284-5.14.897-10.658" style="font-size:140px;line-height:1.25;fill:#f9f9f9;stroke-width:1.44666" transform="scale(.37837)"/></g></svg>