<svg xmlns="http://www.w3.org/2000/svg" style="isolation:isolate" viewBox="0 0 1024 880.28"><path fill="#3E623E" fill-rule="evenodd" d="M0 0v880.281h1024V0zm752.686 520.982q25.996.002 44.59 7.914 18.593 7.911 30.605 19.779t18.266 23.734l-53.642 29.672q-5.266-8.242-11.682-13.021-6.418-4.782-12.999-7.09t-12.836-2.308q-4.934 0-8.885 1.156-3.95 1.153-6.088 3.46t-2.139 6.262q0 5.275 3.95 9.067t10.694 6.758q6.746 2.967 15.632 5.934 8.884 2.967 19.087 6.594 13.822 4.945 24.681 11.703t18.595 15.658a62 62 0 0 1 11.682 19.945q3.95 11.043 3.95 24.56 0 19.119-7.9 33.789-7.897 14.673-21.227 24.233-13.327 9.559-30.11 14.504-16.782 4.945-34.553 4.945-24.682-.001-45.907-8.079-21.227-8.075-36.695-22.249-15.466-14.177-23.363-31.648l48.702-35.606q6.583 11.54 15.14 19.945 8.553 8.408 18.591 12.692 10.038 4.288 20.24 4.288 5.923 0 10.532-1.485 4.608-1.482 7.239-4.779t2.631-8.242q0-4.615-3.126-7.913t-12.339-7.582q-9.216-4.286-27.974-11.539-8.224-3.294-18.921-8.898-10.694-5.605-20.402-14.507-9.709-8.9-16.128-21.758-6.413-12.854-6.413-30.33 0-22.747 12.175-38.238 12.176-15.495 32.25-23.406 20.075-7.912 44.097-7.914m-340.274 6.596h72.398v148.348q0 9.229 3.126 16.316 3.126 7.088 9.542 11.043 6.419 3.958 16.293 3.959 9.872 0 16.289-3.959 6.416-3.955 9.545-11.041 3.123-7.089 3.123-16.32V527.579h72.401v154.938q0 24.724-8.064 41.703-8.063 16.976-22.213 27.361t-32.413 15.165q-18.265 4.778-38.668 4.78-20.404 0-38.67-4.78-18.262-4.78-32.412-15.165-14.152-10.385-22.213-27.361-8.064-16.977-8.064-41.702zM246.881 581.97v36.263h18.101q8.227 0 13.493-2.304 5.267-2.311 7.899-6.596 2.633-4.287 2.631-10.221 0-8.9-5.758-13.018-5.76-4.123-18.265-4.123zm0 84.063v37.913h24.681q8.226 0 15.138-1.318 6.912-1.32 11.191-5.605t4.277-13.517q0-5.605-2.469-9.065-2.468-3.463-6.745-5.276-4.279-1.813-9.707-2.471-5.43-.661-11.685-.661zm111.108-547.657v228.54h73.332v-228.54zm118.959 0v228.54h74.96v-92.641l71.7 92.64h86.695L616.44 225.462l88.973-107.088h-83.434l-70.071 84.588v-84.588zm254.538 0v228.54h164.585v-57.137h-96.145v-32.647h89.627v-55.504h-89.627v-26.117h96.145v-57.135zm-539.06 53.869h17.927q12.385 0 18.087 4.082 5.704 4.082 5.704 12.896 0 5.88-2.607 10.122-2.607 4.244-7.821 6.529-5.215 2.285-13.363 2.286h-17.927zm0 83.255h24.445q6.191-.001 11.569.652 5.377.654 9.616 2.451t6.681 5.224q2.446 3.426 2.444 8.976-.001 9.143-4.238 13.386-4.235 4.244-11.08 5.551-6.844 1.305-14.992 1.305h-24.445zm-17.942 272.078h100.371q19.084 0 35.54 3.789 16.454 3.791 28.631 11.208 12.178 7.418 18.921 18.461 6.745 11.044 6.747 25.879 0 19.45-11.848 33.134c-5.416 6.256-12.183 11.451-20.233 15.639 4.74 1.901 9.307 4.08 13.653 6.61q14.151 8.245 22.87 21.264 8.723 13.02 8.721 31.482 0 23.079-11.352 36.923t-32.909 20.111q-21.555 6.262-52.16 6.262H174.484zm-53.757-409.202v228.54H226.65q30.308-.001 51.656-6.206 21.347-6.204 32.593-19.915 11.241-13.712 11.241-36.566 0-18.284-8.637-31.178t-22.649-21.056c-4.305-2.507-8.827-4.667-13.522-6.551 7.972-4.147 14.672-9.292 20.039-15.489q11.734-13.548 11.736-32.812 0-14.692-6.683-25.63t-18.742-18.281q-12.058-7.346-28.353-11.1-16.296-3.755-35.2-3.756zM42.829 46.744h933.535v371.804H42.829z"/></svg>