<svg xmlns="http://www.w3.org/2000/svg" style="isolation:isolate" viewBox="0 0 1024 2220"><path fill="#E3E3E3" d="m1009.796 486.755-5.159 17.181 10.524 5.246-851.766 1710.53-61.479-.892-100.685-.891L0 2158.276v-882.854c0-294.439 51.772-724.161 155.593-926.726C258.927 147.079 426.649 17.713 578.654 2.287c183.434-18.614 340.779 78.493 406.161 215.31 35.915 75.153 53.52 174.136 24.981 269.158"/><clipPath id="a"><path fill="#E3E3E3" d="m1009.796 486.755-5.159 17.181 10.524 5.246-851.766 1710.53-61.479-.892-100.685-.891L0 2158.276v-882.854c0-294.439 51.772-724.161 155.593-926.726C258.927 147.079 426.649 17.713 578.654 2.287c183.434-18.614 340.779 78.493 406.161 215.31 35.915 75.153 53.52 174.136 24.981 269.158"/></clipPath><g clip-path="url(#a)"><path fill="#3E5062" d="m-340.898 2071.492 360.323 181.225L1158.477-1.82 798.155-183.045zm366.787-639.064 363.6-722.93 287.925 144.813-363.6 722.93zM692.997 223.012q10.126-20.131 23.495-31.449 13.369-11.317 27.237-15.997 13.869-4.679 25.494-4.901l2.085 53.098q-8.433.867-14.633 3.974-6.203 3.108-10.554 7.306t-6.786 9.04q-1.922 3.821-2.566 7.332-.645 3.507.309 6.061.953 2.556 4.016 4.097 4.085 2.054 8.56.472 4.474-1.583 9.399-5.65t10.683-9.794q5.758-5.724 12.541-12.213 9.212-8.777 18.676-14.554 9.462-5.778 19.367-8.302a53.7 53.7 0 0 1 19.996-1.278q10.09 1.242 20.558 6.507 14.805 7.446 23.089 19.279 8.287 11.83 10.498 25.876 2.212 14.043-.495 28.966-2.707 14.922-9.629 28.684-9.614 19.113-24.136 32.404-14.521 13.293-31.522 19.75-17.003 6.456-33.608 5.766l-8.605-51.582q11.501-.604 21.343-3.957 9.842-3.349 17.07-9.453 7.229-6.104 11.203-14.004 2.307-4.587 2.952-8.734.647-4.146-.881-7.467-1.529-3.322-5.358-5.248-3.574-1.798-7.345-.662t-10.677 6.603q-6.909 5.467-19.832 17.169-5.754 5.086-14.26 11.187-8.506 6.098-19.18 10.148-10.675 4.053-23.132 4.015-12.452-.04-25.985-6.846-17.616-8.86-24.87-24.321-7.256-15.465-5.565-34.092 1.692-18.627 11.048-37.23M472.902 673.34l39.093-77.727q7.433-14.779 16.777-26.046t19.831-17.807q10.487-6.541 21.665-7.463 11.18-.921 22.669 4.856 15.062 7.575 21.045 22.08c2.734 6.631 4.122 13.894 4.23 21.76 3.318-2.931 6.784-5.619 10.436-7.999q11.897-7.747 25.375-9.428 13.48-1.684 27.776 5.507 17.872 8.989 24.171 23.173 6.3 14.184 2.757 33.317-3.546 19.132-15.466 42.833l-41.656 82.823zm92.67-184.251 28.198-56.066 114.881 57.78q7.147 3.595 13.853 3.934 6.706.34 12.268-3.088 5.565-3.429 9.411-11.075t3.279-14.156q-.564-6.51-4.833-11.692-4.273-5.18-11.421-8.775l-114.879-57.779 28.199-56.067 119.984 60.346q19.147 9.63 29.154 22.488 10.007 12.856 12.537 27.858t-.88 31.008q-3.414 16.005-11.36 31.806-7.947 15.8-18.762 28.084-10.815 12.281-24.369 19.193-13.553 6.915-29.84 6.545-16.288-.367-35.434-9.997zm-453.871 910.914 176.982 89.014 41.256-82.027q11.803-23.471 15.313-42.419 3.51-18.949-2.728-32.997-6.24-14.046-23.939-22.947-14.159-7.122-27.508-5.456-13.349 1.667-25.127 9.339c-3.618 2.357-7.052 5.018-10.339 7.92-.107-7.789-1.482-14.982-4.19-21.551q-5.921-14.364-20.839-21.868-11.378-5.722-22.451-4.807t-21.457 7.393-19.638 17.633q-9.255 11.158-16.619 25.796zm92.411-183.736 176.982 89.014 28.561-56.788-176.982-89.014zm46.333-92.122 176.982 89.014 29.195-58.049-71.741-36.082 99.667-19.443 33.766-67.137-130.612 25.384-48.274-110.611-32.497 64.612 38.213 87.209-65.505-32.946zm99.139-197.114 176.982 89.013L590.67 888.59l-44.248-22.255-37.447 74.455-25.282-12.715 34.908-69.407-42.981-21.618-34.909 69.407-20.225-10.172 37.447-74.455-44.245-22.254zm193.637-288.57 28.082 14.124 7.05-14.017q3.204-6.371 3.471-11.347.262-4.979-2.031-8.686-2.294-3.708-6.89-6.018-6.893-3.467-12.324-.611-5.437 2.854-10.307 12.538zm-361.878 727 6.982-13.883q4.824-9.59 10.207-12.416 5.382-2.828 12.208.605 4.553 2.29 6.823 5.961t2.01 8.6q-.262 4.928-3.435 11.239l-6.982 13.883zM608.32 671.202l29.359 14.767 9.613-19.113q3.204-6.37 4.876-12.236 1.669-5.867.018-10.85t-8.802-8.576q-4.34-2.183-7.981-1.619-3.643.562-6.713 3.168-3.07 2.608-5.695 6.555-2.626 3.948-5.062 8.791zm-362.504 726.686 9.521-18.931q2.411-4.795 5.011-8.704t5.643-6.493q3.043-2.582 6.648-3.139 3.606-.559 7.903 1.603 7.08 3.562 8.715 8.496 1.638 4.933-.016 10.742-1.656 5.809-4.829 12.118l-9.521 18.931z"/></g></svg>