<svg xmlns="http://www.w3.org/2000/svg" viewBox="0 0 1024 212.81"><defs><clipPath id="a"><path d="M0 0h1024v212.81H0z"/></clipPath></defs><g clip-path="url(#a)"><path fill="#1C1C1C" d="M0 0h1024v212.81H0z"/><path fill="#8187CA" d="M696.95 120.8v14.96h46.87v-14.97h-46.88Z"/><path fill="#8187CA" d="M750.01 99.55h-16.68v60.2H750v-60.2Zm-40.42 0H692.9v60.2h16.69zm64.25 46.62v13.59h30.36v-13.6h-30.36Zm0-46.62v13.59h30.36v-13.6h-30.36Zm0 22.36v13.16h28.64v-13.16z"/><path fill="#8187CA" d="M778.4 99.55h-16v60.2h16zm70.87 33.71H832l15.74 26.5h19.52l-17.98-26.5Z"/><path fill="#8187CA" d="M832.33 99.55h-16.69v60.2h16.69z"/><path fill="#8187CA" d="M826.3 99.55v14.1H838q2.59 0 4.43.78 1.86.77 2.84 2.28 1 1.5 1 3.57 0 2.32-1 3.78-.99 1.46-2.84 2.24-1.84.77-4.42.77h-11.7v12.82h13.07q8.17 0 13.6-2.58 5.41-2.58 8.03-7.18 2.63-4.6 2.63-10.37 0-6.02-2.63-10.54-2.62-4.51-8.04-7.1-5.42-2.57-13.59-2.57h-13.07Zm58.75 46.62v13.59h30.37v-13.6h-30.37Zm0-46.62v13.59h30.37v-13.6h-30.37Zm0 22.36v13.16h28.65v-13.16z"/><path fill="#8187CA" d="M889.61 99.55h-16v60.2h16zM700.43 78.33l-.26 7.46h19.04l-.36-7.47h-18.42Z"/><path fill="#8187CA" d="m704.8 81.05 4.74-10.75 4.73 10.8-.56 2.58 4.11 7.82h11.38l-19.66-38.45-19.66 38.45h11.37l4.17-8.18zm48.07-5.4h-10.34l9.42 15.85h11.68z"/><path fill="#8187CA" d="M742.73 55.47h-9.98V91.5h9.98z"/><path fill="#8187CA" d="M739.13 55.47v8.44h7q1.54 0 2.65.47 1.1.46 1.7 1.36t.6 2.14q0 1.39-.6 2.26-.6.88-1.7 1.34t-2.65.46h-7v7.67h7.82q4.9 0 8.14-1.54 3.24-1.55 4.8-4.3 1.58-2.75 1.58-6.2 0-3.6-1.57-6.3t-4.81-4.25q-3.25-1.55-8.14-1.55zm48.43 20.18h-10.34l9.41 15.85h11.69z"/><path fill="#8187CA" d="M777.42 55.47h-9.98V91.5h9.98z"/><path fill="#8187CA" d="M773.82 55.47v8.44h7q1.54 0 2.65.47 1.1.46 1.7 1.36.59.9.59 2.14 0 1.39-.6 2.26-.58.88-1.69 1.34-1.1.46-2.65.46h-7v7.67h7.82q4.9 0 8.13-1.54 3.25-1.55 4.82-4.3t1.57-6.2q0-3.6-1.57-6.3t-4.82-4.25q-3.24-1.55-8.13-1.55zm38.55 0h-10.24V91.5h10.24zm31.09 0-7.88 19.51-7.82-19.5h-11.84l19.66 38.44 19.66-38.45zm22.18 27.9v8.13h18.17v-8.13zm0-27.9v8.13h18.17v-8.13zm0 13.39v7.87h17.14v-7.88h-17.14Z"/><path fill="#8187CA" d="M868.37 55.47h-9.58V91.5h9.58zm27.07 22.86-6.85 4.94q1.19 2.67 3.53 4.83 2.34 2.17 5.5 3.45 3.17 1.29 6.82 1.29 2.68 0 5.2-.75 2.52-.74 4.48-2.19 1.96-1.44 3.14-3.68 1.18-2.23 1.18-5.17 0-2.1-.67-3.86-.66-1.75-1.9-3.14t-2.93-2.39q-1.7-1-3.71-1.67-1.75-.62-3.16-1.16-1.42-.54-2.45-1.08T902 66.54q-.6-.67-.6-1.5 0-.77.42-1.25.41-.5 1.1-.75.7-.26 1.73-.26 1.18 0 2.29.44 1.1.44 2.11 1.29 1 .84 1.78 2.18l7.51-4.22q-.98-1.85-2.78-3.7-1.8-1.86-4.53-3.04t-6.59-1.18q-3.65 0-6.66 1.2-3.01 1.22-4.81 3.61-1.8 2.4-1.8 5.74 0 2.73 1.03 4.66 1.02 1.93 2.52 3.26 1.49 1.34 3.16 2.17 1.67.82 2.96 1.39 2.78 1.08 4.32 1.77 1.55.7 2.11 1.42.57.72.57 1.7 0 .97-.49 1.62-.49.64-1.34.97-.85.34-1.98.34-1.7 0-3.27-.72t-2.93-2.09q-1.36-1.36-2.4-3.27ZM20.75 24.14v164.53h650.51V24.14zm15.14 16.53h330.12v131.47H35.89zM598.94 62.1q9.19 0 15.76 2.8 6.58 2.8 10.83 6.99 4.25 4.2 6.46 8.4l-18.97 10.48q-1.87-2.91-4.13-4.6-2.27-1.7-4.6-2.5-2.33-.82-4.54-.82-1.74 0-3.14.4-1.4.41-2.15 1.23-.76.82-.76 2.21 0 1.87 1.4 3.21t3.78 2.39 5.53 2.1q3.14 1.05 6.75 2.33 4.88 1.75 8.72 4.14t6.58 5.54a21.9 21.9 0 0 1 4.13 7.05q1.4 3.9 1.4 8.68 0 6.76-2.8 11.95-2.79 5.19-7.5 8.57-4.72 3.38-10.65 5.13-5.94 1.75-12.22 1.75-8.73 0-16.23-2.86-7.51-2.85-12.98-7.87-5.47-5.01-8.26-11.19l17.22-12.59q2.33 4.08 5.35 7.05 3.03 2.98 6.58 4.5 3.55 1.5 7.16 1.5 2.1 0 3.72-.52 1.63-.52 2.56-1.69.93-1.16.93-2.91 0-1.63-1.1-2.8-1.11-1.16-4.37-2.68t-9.89-4.08q-2.9-1.17-6.7-3.15-3.77-1.98-7.2-5.13-3.44-3.14-5.7-7.7-2.28-4.54-2.28-10.72 0-8.04 4.3-13.52 4.31-5.48 11.41-8.28t15.6-2.8Zm-204.47 2.33h35.5q6.75 0 12.56 1.34 5.82 1.34 10.13 3.96 4.3 2.63 6.69 6.53 2.38 3.9 2.38 9.15 0 6.88-4.19 11.72a23.9 23.9 0 0 1-7.15 5.53 35 35 0 0 1 4.83 2.34q5 2.91 8.09 7.52 3.08 4.6 3.08 11.13 0 8.16-4.01 13.06-4.02 4.9-11.64 7.1-7.62 2.22-18.45 2.22h-37.82zm84.14 0h25.6v52.46q0 3.26 1.1 5.77 1.11 2.5 3.38 3.9t5.76 1.4q3.5 0 5.76-1.4 2.27-1.4 3.38-3.9 1.1-2.5 1.1-5.77V64.44h25.6v54.79q0 8.74-2.85 14.74t-7.85 9.68q-5 3.67-11.47 5.36-6.45 1.7-13.67 1.7-7.21 0-13.67-1.7-6.46-1.69-11.46-5.36t-7.86-9.68q-2.85-6-2.85-14.74zM63.44 66v80.81h37.45q10.72 0 18.27-2.19 7.55-2.2 11.53-7.04 3.97-4.85 3.97-12.93 0-6.47-3.05-11.03-3.06-4.56-8.01-7.45a36.6 36.6 0 0 0-4.78-2.31 23.7 23.7 0 0 0 7.08-5.48q4.15-4.79 4.15-11.6 0-5.2-2.36-9.06-2.36-3.87-6.63-6.47-4.26-2.6-10.02-3.92Q105.27 66 98.59 66zm83.9 0v80.81h25.93V66zm42.06 0v80.81h26.51v-32.76l25.35 32.76h30.66l-33.19-42.95L270.2 66h-29.5l-24.8 29.9V66zm90.01 0v80.81h58.2v-20.2h-34v-11.55h31.7V95.44h-31.7V86.2h34V66zm140.66 17.67V96.5h6.4q2.91 0 4.78-.82 1.86-.82 2.79-2.33.93-1.52.93-3.61 0-3.15-2.04-4.6-2.03-1.47-6.45-1.47h-6.4ZM88.8 85.05h6.34q4.38 0 6.4 1.44 2.01 1.44 2.01 4.56 0 2.08-.92 3.58t-2.76 2.3q-1.85.82-4.73.82H88.8zm331.28 28.35v13.4h8.73q2.91 0 5.36-.46 2.44-.47 3.95-1.98 1.52-1.52 1.51-4.78 0-1.98-.87-3.2-.87-1.23-2.38-1.87-1.52-.64-3.44-.88-1.92-.23-4.13-.23zM88.8 114.49h8.65q2.19 0 4.09.23t3.4.86q1.5.64 2.36 1.85t.86 3.18q0 3.23-1.5 4.73t-3.91 1.96q-2.42.46-5.3.46H88.8V114.5Zm880.5-35.75a12.24 12.24 0 1 1 0-24.47 12.24 12.24 0 0 1 0 24.47m0-46.5a34.27 34.27 0 0 0-34.27 34.26c0 25.7 34.27 63.64 34.27 63.64s34.26-37.93 34.26-63.63a34.27 34.27 0 0 0-34.26-34.27"/><path fill="#8187CA" fill-rule="evenodd" d="M946.44 157.71a22.85 22.85 0 0 1 22.86-22.86 22.87 22.87 0 0 1 0 45.72 22.87 22.87 0 0 1-22.86-22.86m29.74 2.43a2.65 2.65 0 0 0 .19 3.55 2.66 2.66 0 1 0 1.88-4.54h-.01a42 42 0 0 1-.94-1.95 4.72 4.72 0 1 1-2.05.99 38 38 0 0 0 .93 1.95m-19.97 3.2a3.2 3.2 0 1 1 6.39 0 3.2 3.2 0 0 1-6.39 0m14.4-16.47a30 30 0 0 1 2.2-.07 9 9 0 0 1 .49.05h.04l.03.2q.04.38.04.76a19 19 0 0 1-.06 1.5 58 58 0 0 0-.07 1.67 11 11 0 0 0 .13 1.58 28 28 0 0 0-5.36 1.1 17.5 17.5 0 0 0-3.7 1.73l-.91-1.07h.01l.43-.07a3 3 0 0 0 .45-.13 1.3 1.3 0 0 0 .5-.37 1.17 1.17 0 0 0 .04-1.46 1.3 1.3 0 0 0-.64-.46 2.4 2.4 0 0 0-.38-.11 10 10 0 0 0-1.18-.18 34 34 0 0 0-2.18-.17l-2.1-.12a1.13 1.13 0 0 0-1.19 1.14v1.06a1.14 1.14 0 0 0 1.17 1.14l2.24-.08 1.91 2.25c-.49.43-.95.9-1.38 1.39a5.47 5.47 0 1 0 2 1.2 12.7 12.7 0 0 1 5.63-3.53 19.3 19.3 0 0 1 3.62-.83c.51-.08 1.03-.14 1.55-.2a19 19 0 0 0 .4 1.22 6.98 6.98 0 0 0 3.91 12.8 7 7 0 1 0-1.82-13.75l-.12-.32a18 18 0 0 1-.62-2.42 8 8 0 0 1-.11-2.08 42 42 0 0 1 .08-1.6l.03-.81c0-.34-.02-.67-.05-1s-.1-.66-.2-.98a1.47 1.47 0 0 0-.44-.7 2.2 2.2 0 0 0-.9-.46 4.5 4.5 0 0 0-1.18-.16 28 28 0 0 0-2.33.06 1.72 1.72 0 0 0-1.28-.57h-2.8a1.72 1.72 0 1 0 0 3.43h2.8a1.72 1.72 0 0 0 1.3-.58"/></g></svg>