<svg xmlns="http://www.w3.org/2000/svg" style="isolation:isolate" viewBox="-1023.42 -1503.62 2902.68 884.41"><path fill="#1c1c1c" d="M589.236-.002c-119.824 0-231.34 35.87-324.406 97.45C105.313 202.997.006 384.092.006 589.604c0 325.414 264.025 589.608 589.23 589.608 203.928 0 383.765-103.913 489.56-261.639h2791.446V227.932H1054.275C946.421 89.324 778.222-.002 589.236-.002M517.623 238.74h72a44.3 44.3 0 0 1 31.338 12.975 55 55 0 0 1 1.639 1.717 776 776 0 0 1 33.537-1.717 333 333 0 0 1 26.558.234c3.368.196 6.697.432 10.067.746 2.82.274 5.642.626 8.422 1.057 3.996.588 7.951 1.413 11.869 2.432a69 69 0 0 1 10.029 3.449 55 55 0 0 1 6.738 3.527 43.3 43.3 0 0 1 6.463 4.82c2.626 2.391 4.936 5.057 6.856 8.036a37.8 37.8 0 0 1 4.582 10.074c2.468 8.27 4.113 16.737 4.974 25.322a243 243 0 0 1 1.215 25.635 538 538 0 0 1-.549 21.049c-.313 6.937-.704 13.914-1.136 20.851-.431 6.82-.783 13.643-1.096 20.463-.313 6.39-.47 12.777-.47 19.205a206 206 0 0 0 .704 18.385 112 112 0 0 0 2.586 16.07c1.058 6.938 2.43 13.798 4.035 20.618a396 396 0 0 0 6.424 24.066 434 434 0 0 0 5.64 17.484c.965 2.827 1.95 5.646 2.944 8.465 14.98-4.073 30.742-6.232 47.002-6.232 99.45 0 180.192 80.794 180.192 180.308s-80.741 180.307-180.192 180.307c-99.45 0-180.193-80.793-180.193-180.307 0-62.246 31.591-117.17 79.611-149.547a717 717 0 0 1-4.947-13.906c-1.999-5.824-3.873-11.68-5.672-17.539a844 844 0 0 0-39.926 4.879c-16.57 2.43-33.06 5.564-49.394 9.328-14.808 3.37-29.419 7.488-43.873 12.23a401 401 0 0 0-38.82 15.051 336.6 336.6 0 0 0-65.026 38.336c-14.765 11.276-28.58 23.736-41.246 37.307 27.552 25.741 44.771 62.404 44.771 103.059 0 77.88-63.19 141.109-141.021 141.109s-141.018-63.23-141.018-141.11 63.187-141.11 141.018-141.11c15.604 0 30.62 2.54 44.62 7.31a400 400 0 0 1 35.72-35.67l-49.23-57.957a4890 4890 0 0 1-57.706 2.043c-7.913.196-15.63-2.784-21.31-8.31a29.42 29.42 0 0 1-8.891-21.089v-27.437c0-8.036 3.289-15.757 9.125-21.283 5.797-5.567 13.672-8.469 21.664-8.077 18.019.863 35.96 1.884 53.94 2.981 11.477.705 22.954 1.568 34.431 2.508 7.325.628 14.65 1.294 21.936 2.078q7.227.764 14.455 1.762a264 264 0 0 1 15.746 2.707c3.408.705 6.739 1.645 9.951 2.898 1.332.47 2.586 1.021 3.84 1.61a37 37 0 0 1 4.387 2.507 33.1 33.1 0 0 1 8.226 7.8 30.73 30.73 0 0 1 5.992 18.384 30.2 30.2 0 0 1-7.09 19.246 32.2 32.2 0 0 1-8.539 7.21c-1.372.825-2.82 1.53-4.308 2.157-1.254.51-2.47.98-3.723 1.412a68 68 0 0 1-7.834 1.998 268 268 0 0 1-11.047 1.764l-.457.059 23.492 27.656a394 394 0 0 1 51.12-27.518c14.533-6.506 29.339-12.27 44.459-17.248a545 545 0 0 1 49.082-13.68 683 683 0 0 1 54.02-10.189c11.576-1.701 23.18-3.175 34.81-4.35a169 169 0 0 1-2.338-17.289c-.627-7.8-.94-15.64-.9-23.44 0-7.29.195-14.541.548-21.792.314-7.095.706-14.19 1.137-21.285.392-6.664.783-13.327 1.098-20.03.273-6.193.43-12.386.468-18.54q.06-9.819-.94-19.52a58 58 0 0 0-.706-5.213c-.352-.039-.743-.118-1.135-.158a78 78 0 0 0-5.172-.664c-2.506-.236-4.974-.394-7.48-.551a269 269 0 0 0-21.742-.195 755 755 0 0 0-35.135 1.906 40 40 0 0 1-1.881 2.014 44.3 44.3 0 0 1-31.338 12.974h-72a44.3 44.3 0 0 1-31.336-12.974 44.36 44.36 0 0 1-12.967-31.358 44.34 44.34 0 0 1 12.967-31.318 44.3 44.3 0 0 1 31.336-12.975m583.102 58.475h1505.244V848.29H1118.705c38.23-78.127 59.76-165.898 59.76-258.686 0-106.405-28.373-206.172-77.74-292.39m2482.646 89.863q38.575 0 66.164 11.727 27.59 11.726 45.412 29.318 17.824 17.59 27.102 35.18l-79.594 43.976q-7.813-12.217-17.334-19.302t-19.287-10.504q-9.767-3.42-19.045-3.42-7.325-.001-13.184 1.709-5.86 1.71-9.035 5.13-3.173 3.42-3.174 9.286 0 7.817 5.862 13.435 5.859 5.619 15.869 10.018 10.011 4.397 23.195 8.795t28.32 9.771q20.51 7.33 36.624 17.348 16.115 10.015 27.59 23.209 11.475 13.192 17.333 29.56 5.86 16.369 5.86 36.403 0 28.34-11.719 50.082-11.719 21.745-31.496 35.914t-44.68 21.5q-24.903 7.328-51.271 7.328-36.623 0-68.12-11.973-31.495-11.97-54.445-32.98t-34.67-46.906l72.27-52.772q9.767 17.102 22.463 29.563 12.695 12.457 27.588 18.81t30.031 6.354q8.79 0 15.625-2.2t10.742-7.085 3.908-12.215q0-6.84-4.638-11.727-4.64-4.886-18.313-11.24-13.671-6.352-41.506-17.102-12.207-4.885-28.076-13.191-15.871-8.306-30.277-21.5-14.404-13.192-23.926-32.248t-9.521-44.951q0-33.715 18.066-56.68 18.068-22.966 47.856-34.693 29.786-11.727 65.431-11.727m-857.95 9.774h148.933q28.32-.001 52.736 5.617 24.415 5.62 42.484 16.613 18.067 10.995 28.076 27.363 10.01 16.37 10.01 38.356 0 28.83-17.578 49.107c-8.038 9.273-18.08 16.974-30.023 23.182 7.034 2.818 13.81 6.048 20.257 9.799q20.997 12.216 33.938 31.517 12.938 19.3 12.937 46.662 0 34.203-16.845 54.725-16.847 20.521-48.83 29.807-31.984 9.283-77.397 9.283h-158.697zm353.044 0h107.428v219.877q0 13.68 4.638 24.185 4.64 10.505 14.16 16.37 9.523 5.862 24.172 5.862 14.648 0 24.17-5.863t14.162-16.369 4.639-24.185V396.852h107.426V626.5q0 36.647-11.963 61.81-11.963 25.165-32.961 40.555-20.997 15.392-48.098 22.477-27.1 7.083-57.375 7.084-30.276 0-57.377-7.084-27.101-7.085-48.097-22.477-20.997-15.39-32.961-40.554t-11.963-61.811zm-1742.11 6.533v338.734h157.168q44.976.001 76.65-9.193 31.678-9.195 48.362-29.52t16.684-54.197q0-27.099-12.817-46.21-12.814-19.116-33.609-31.214c-6.378-3.71-13.061-6.938-20.02-9.726 11.811-6.144 21.74-13.765 29.692-22.938q17.41-20.082 17.41-48.63 0-21.778-9.914-37.989t-27.807-27.098-42.072-16.453-52.229-5.566zm352.06 0v338.734h108.808V403.385zm176.51 0v338.734h111.23V604.814l106.39 137.305h128.637l-139.276-180.012 132.02-158.722h-123.799l-103.973 125.37v-125.37zm377.69 0v338.734h244.215v-84.683h-142.66v-48.391h132.988V526.78H2344.17v-38.713h142.66v-84.683zm590.233 74.088v53.748h26.855q12.209 0 20.022-3.42t11.718-9.774q3.908-6.351 3.909-15.146 0-13.194-8.547-19.3-8.546-6.109-27.102-6.108zm-1390.102 5.757h26.6q18.375 0 26.838 6.05 8.463 6.047 8.464 19.113 0 8.71-3.869 15.002-3.87 6.29-11.607 9.677-7.737 3.389-19.826 3.389h-26.6zm-622.752 93.03c-8.31 0-16.536.855-24.535 2.605a958 958 0 0 0 15.133 32.242 1385 1385 0 0 0 9.049 18.077h.353c18.176 0 35.607 7.252 48.455 20.109a68.6 68.6 0 0 1 20.096 48.486 68.62 68.62 0 0 1-20.096 48.487c-12.848 12.856-30.279 20.107-48.455 20.107s-35.608-7.251-48.457-20.107c-12.848-12.858-20.094-30.3-20.094-48.487a68.24 68.24 0 0 1 15.268-43.037v-.006a1694 1694 0 0 1-8.844-17.681 1025 1025 0 0 1-15.373-32.703c-2.93 2.308-5.702 4.837-8.365 7.5a121.6 121.6 0 0 0-35.568 85.92 121.6 121.6 0 0 0 35.568 85.92 121.44 121.44 0 0 0 85.865 35.591 121.44 121.44 0 0 0 85.865-35.592 121.6 121.6 0 0 0 35.569-85.92c0-32.22-12.809-63.145-35.569-85.92a121.44 121.44 0 0 0-85.865-35.591m2012.854 25.808v56.192h36.623q12.207 0 22.46-1.953 10.256-1.955 16.604-8.307t6.348-20.033q0-8.307-3.662-13.438-3.662-5.13-10.01-7.816-6.349-2.689-14.406-3.666-8.058-.979-17.334-.979zm-1390.102 4.559h36.272q9.187 0 17.166.967t14.267 3.629q6.286 2.662 9.912 7.742 3.627 5.081 3.627 13.308 0 13.55-6.287 19.84-6.286 6.29-16.441 8.227-10.155 1.935-22.244 1.935h-36.272zM334.258 654.662a82.22 82.22 0 0 0-58.17 24.106 82.33 82.33 0 0 0-24.09 58.209 82.32 82.32 0 0 0 24.09 58.207 82.22 82.22 0 0 0 58.17 24.105 82.22 82.22 0 0 0 58.172-24.105 82.32 82.32 0 0 0 24.09-58.207 82.32 82.32 0 0 0-24.09-58.21 82.22 82.22 0 0 0-58.172-24.105" style="stroke-width:1.33333" transform="matrix(.75 0 0 .75 -1023.42 -1503.62)"/></svg>