<svg xmlns="http://www.w3.org/2000/svg" style="isolation:isolate" viewBox="0 0 1024 259"><path fill="#e3e3e3" d="M0 0v345.334h1365.334V0zm31.787 34.693h692.858v275.948H31.787zm1181.74 44.998q19.294.001 33.094 5.873t22.715 14.68 13.557 17.615l-39.813 22.022q-3.908-6.117-8.67-9.664-4.763-3.549-9.648-5.262t-9.526-1.713q-3.662 0-6.595.858-2.931.856-4.518 2.568-1.588 1.713-1.588 4.648 0 3.915 2.932 6.729t7.937 5.016q5.007 2.202 11.602 4.404 6.593 2.202 14.166 4.894 10.258 3.67 18.318 8.686 8.06 5.015 13.801 11.621a46 46 0 0 1 8.67 14.803q2.932 8.196 2.932 18.228 0 14.19-5.864 25.078-5.861 10.89-15.754 17.985-9.891 7.095-22.347 10.765t-25.645 3.67q-18.319-.001-34.072-5.996-15.754-5.993-27.234-16.513-11.479-10.522-17.34-23.489l36.146-26.426q4.886 8.565 11.237 14.803 6.348 6.24 13.798 9.42 7.45 3.182 15.022 3.182 4.396 0 7.816-1.102 3.42-1.1 5.373-3.547t1.953-6.117q0-3.425-2.32-5.873-2.32-2.447-9.158-5.627-6.84-3.181-20.762-8.564-6.104-2.445-14.043-6.604-7.937-4.16-15.142-10.767-7.206-6.606-11.97-16.149-4.76-9.54-4.76-22.51 0-16.883 9.036-28.38 9.037-11.5 23.936-17.372t32.728-5.873m-429.134 4.895h74.494q14.164 0 26.377 2.812 12.212 2.814 21.25 8.319t14.043 13.701q5.006 8.197 5.007 19.207 0 14.436-8.793 24.592c-4.02 4.643-9.042 8.499-15.017 11.607 3.518 1.411 6.908 3.028 10.133 4.906q10.503 6.119 16.974 15.782 6.474 9.663 6.473 23.365 0 17.129-8.426 27.404t-24.424 14.926q-15.998 4.648-38.713 4.648h-79.378zm176.587 0h53.733v110.102q0 6.85 2.32 12.11t7.082 8.196q4.764 2.937 12.092 2.938 7.327 0 12.09-2.938 4.762-2.936 7.084-8.195 2.318-5.261 2.318-12.112v-110.1h53.735V199.58q0 18.35-5.985 30.951-5.984 12.6-16.486 20.307-10.502 7.708-24.057 11.256-13.556 3.546-28.699 3.547-15.143 0-28.7-3.547-13.554-3.548-24.056-11.256-10.503-7.707-16.486-20.307-5.985-12.6-5.985-30.95zM89.602 87.857v169.62h78.615q22.494-.001 38.338-4.606t24.19-14.781q8.343-10.177 8.343-27.139 0-13.57-6.41-23.14t-16.81-15.627c-3.195-1.861-6.551-3.464-10.036-4.862 5.917-3.078 10.89-6.897 14.873-11.496q8.709-10.055 8.71-24.353 0-10.904-4.96-19.022t-13.91-13.568q-8.949-5.452-21.043-8.238-12.095-2.787-26.125-2.788zm176.093 0v169.62h54.426V87.857zm88.29 0v169.62h55.634V188.72l53.215 68.756h64.344l-69.664-90.141 66.035-79.479h-61.924l-52.006 62.78v-62.78zm188.915 0v169.62h122.153V215.07h-71.358v-24.23h66.52v-41.194h-66.52v-19.384h71.358V87.857zm295.225 37.098v26.914h13.434q6.106 0 10.015-1.71 3.909-1.715 5.862-4.895 1.954-3.182 1.953-7.586 0-6.606-4.274-9.662-4.275-3.06-13.556-3.06zm-695.309 2.883h13.305q9.192 0 13.424 3.03 4.234 3.029 4.234 9.571 0 4.364-1.935 7.512-1.935 3.15-5.805 4.846t-9.918 1.697h-13.305zm695.309 59.508v28.138h18.318q6.105 0 11.235-.978 5.13-.98 8.306-4.16t3.174-10.032q0-4.16-1.832-6.728-1.832-2.57-5.006-3.916-3.176-1.345-7.205-1.834-4.03-.49-8.672-.49zm-695.309 2.283h18.143q4.595-.001 8.586.484t7.137 1.819 4.959 3.877q1.815 2.543 1.814 6.662-.001 6.786-3.146 9.935-3.143 3.15-8.223 4.12-5.08.968-11.127.968h-18.143z" style="stroke-width:1.33333" transform="scale(.75)"/></svg>