<svg xmlns="http://www.w3.org/2000/svg" viewBox="0 0 186.07 260.49"><path d="M0 0h186.065v260.491H0Z" style="fill:#1C1C1C;stroke-width:.264999"/><path d="M17.374 13.815V207.49H170.01V13.815Zm12.05 11.359H157.96v56.482H29.424Zm97.034 67.355q3.152 0 5.45 1.1 2.342 1.097 3.873 2.769 1.53 1.672 2.342 3.391l-5.81 3.44a8.8 8.8 0 0 0-1.576-2.055 6 6 0 0 0-1.937-1.385 4.9 4.9 0 0 0-2.252-.525q-1.621 0-2.477.764-.856.717-.856 1.815 0 1.146.81 2.006.857.86 2.388 1.576a56 56 0 0 0 3.783 1.529 19.3 19.3 0 0 1 3.108 1.576q1.44.86 2.522 2.102a9.2 9.2 0 0 1 1.756 2.866q.63 1.623.631 3.725 0 2.532-.99 4.538a9.4 9.4 0 0 1-2.613 3.296q-1.621 1.337-3.738 2.006a13 13 0 0 1-4.28.716q-3.061 0-5.72-1.146a14.8 14.8 0 0 1-4.548-3.2q-1.936-2.006-3.018-4.395l5.315-4.06q.945 1.815 2.117 3.153 1.215 1.337 2.612 2.054 1.442.716 3.018.716 1.667 0 2.747-.86 1.08-.908 1.081-2.436 0-1.29-.63-2.054-.63-.811-2.027-1.528-1.396-.716-3.693-1.624a27 27 0 0 1-2.613-1.194 13.3 13.3 0 0 1-2.747-1.958 10.5 10.5 0 0 1-2.162-2.962q-.855-1.767-.856-4.25 0-2.963 1.442-5.112 1.485-2.149 3.963-3.247 2.522-1.147 5.585-1.147m-77.288.765h11.576q3.287 0 5.765.955 2.521.907 3.963 2.818 1.486 1.862 1.487 4.729 0 2.625-1.487 4.49c-.794 1.025-1.848 1.844-3.134 2.48.909.333 1.762.758 2.548 1.293a8.55 8.55 0 0 1 2.793 2.961q1.08 1.767 1.08 4.299 0 3.344-1.53 5.397-1.486 2.054-4.234 3.057-2.748.955-6.486.955h-12.34Zm31.933 0h7.612v21.875q0 2.532 1.26 4.108 1.263 1.576 3.784 1.576 2.568 0 3.829-1.576 1.26-1.576 1.26-4.108V93.294h7.612v22.449q0 3.152-.99 5.492-.947 2.34-2.703 3.87-1.71 1.48-4.054 2.244-2.296.764-4.954.764t-4.954-.764q-2.297-.765-4.054-2.245-1.71-1.529-2.702-3.869-.945-2.34-.946-5.492zm-24.32 6.257v7.021h3.152q1.305 0 2.207-.43.945-.43 1.441-1.194.495-.813.495-1.958 0-1.72-1.08-2.58t-3.063-.86zm0 12.657v8.263h3.872q1.486 0 2.658-.382 1.17-.43 1.846-1.337.72-.956.72-2.58 0-1.05-.404-1.814a3.35 3.35 0 0 0-1.126-1.242 4.7 4.7 0 0 0-1.667-.669q-.9-.24-2.027-.24zm-27.36 26.78H157.96v56.48H29.424Z" style="fill:#CA81AC;fill-rule:evenodd;stroke-width:.218414"/><path d="m50.447 232.179-1.635 2.223q.373.264.889.49.515.245 1.155.415t1.332.17q.818 0 1.564-.208.747-.188 1.315-.603.569-.395.889-1.074.32-.66.32-1.602v-14.209H53.04v13.493q0 .83-.373 1.169t-.782.339q-.39 0-.781-.189-.391-.17-.658-.414m12.78-7.802q0-1.168.426-2.054.444-.905 1.226-1.413.8-.51 1.866-.51 1.084 0 1.866.51.782.508 1.208 1.413.427.886.427 2.054t-.445 2.073q-.426.886-1.226 1.394-.782.51-1.83.51-1.066 0-1.866-.51-.782-.508-1.226-1.394-.426-.905-.426-2.073m-3.181 0q0 1.526.48 2.808.497 1.281 1.386 2.224.906.942 2.132 1.47 1.226.508 2.7.508 1.458 0 2.684-.509 1.226-.527 2.115-1.47.906-.942 1.386-2.223.497-1.282.497-2.808t-.497-2.789-1.404-2.186-2.132-1.413q-1.209-.51-2.648-.51-1.422 0-2.648.51-1.226.49-2.132 1.413t-1.422 2.186q-.497 1.263-.497 2.789m17.15-6.596v13.192h3.057V217.78zm16.12 0v7.425l-8.582-8.084v13.85h2.879v-7.424l8.6 8.084v-13.85zm14.49 0v8.857q0 1.244.373 2.168.39.923 1.066 1.526.693.584 1.6.886.906.301 1.954.301t1.955-.301q.924-.302 1.6-.886.692-.603 1.065-1.526.391-.924.391-2.168v-8.857h-3.003v8.631q0 1-.497 1.62-.498.623-1.51.623-.996 0-1.494-.622-.497-.622-.497-1.62v-8.632zm15.765 8.556-2.097 1.602q.426.942 1.19 1.733t1.795 1.263q1.049.452 2.257.452.87 0 1.688-.282.835-.264 1.475-.792.657-.528 1.03-1.3.392-.792.392-1.79 0-.83-.25-1.47-.248-.641-.692-1.131-.427-.49-.995-.83-.569-.357-1.227-.621-.87-.32-1.492-.603-.604-.283-.942-.622-.32-.34-.32-.791 0-.434.338-.717.337-.301.977-.301.48 0 .889.207.426.189.764.547.355.339.622.81l2.292-1.357q-.32-.678-.924-1.338t-1.528-1.093q-.907-.433-2.15-.433-1.209 0-2.204.452-.977.434-1.564 1.282-.568.848-.568 2.016 0 .98.337 1.677.338.679.853 1.169.516.47 1.084.772.587.302 1.03.471.907.358 1.458.641t.8.603q.248.302.248.81 0 .603-.426.961-.426.34-1.084.34-.622 0-1.19-.283-.551-.283-1.031-.81-.462-.528-.835-1.244m11.66-8.556.586 8.839h2.168l.569-8.839zm0 12.023q0 .716.462 1.169.48.452 1.208.452.729 0 1.19-.452.48-.453.48-1.169t-.48-1.168q-.461-.452-1.19-.452t-1.208.452q-.462.452-.462 1.168" aria-label="JOIN US!" style="font-weight:700;font-size:96px;font-family:Jost;-inkscape-font-specification:&quot;Jost Bold&quot;;text-align:center;letter-spacing:10px;word-spacing:.1px;white-space:pre;fill:#CA81AC;fill-rule:evenodd;stroke-width:.190619"/><path d="M39.397 36.698v33.434h13.467q3.963 0 6.8-.907 2.837-.955 4.37-3.01 1.53-2.053 1.53-5.397 0-2.58-1.125-4.394a8.54 8.54 0 0 0-2.928-3.009c-.695-.45-1.438-.82-2.22-1.127q1.79-.924 2.94-2.36 1.532-1.959 1.532-4.681 0-2.865-1.531-4.728-1.531-1.911-4.189-2.866-2.612-.955-5.99-.955zm33.554 0v33.434h8.918V36.698Zm17.656 0v33.434h9.098V56.038l10.494 14.094h10.584l-13.197-17.768 12.521-15.666H109.93L99.705 49.494V36.698Zm35.536 0v33.434h21.844v-7.499H134.52v-6.257h12.566v-7.26H134.52v-4.92h13.467v-7.498h-15.899zm-78.008 7.069h2.837q1.847 0 2.747.716.945.717.946 2.245 0 1.003-.45 1.72-.406.715-1.216 1.098-.81.382-2.027.382h-2.837zm0 12.418h3.648q.99 0 1.801.143.855.143 1.486.526.675.381 1.037 1.003.36.621.36 1.576 0 1.48-.63 2.293-.632.765-1.712 1.05-1.036.288-2.342.287h-3.648z" style="font-weight:800;font-size:200px;font-family:Jost;-inkscape-font-specification:&quot;Jost Ultra-Bold&quot;;text-align:center;letter-spacing:10px;word-spacing:.1px;white-space:pre;fill:#CA81AC;stroke:none;stroke-width:.877879"/><path d="m39.037 172.052-5.315 4.06q1.08 2.388 3.018 4.394 1.936 2.006 4.548 3.2 2.658 1.147 5.72 1.147 2.207 0 4.28-.717 2.116-.668 3.737-2.006 1.667-1.337 2.613-3.295.99-2.007.99-4.538 0-2.102-.63-3.726t-1.756-2.865q-1.081-1.242-2.523-2.102-1.44-.908-3.107-1.576-2.207-.812-3.784-1.529-1.531-.716-2.387-1.576-.81-.86-.81-2.006 0-1.099.855-1.815.856-.764 2.477-.764 1.217 0 2.252.525 1.081.478 1.937 1.385.9.86 1.576 2.054l5.81-3.439q-.81-1.72-2.341-3.391t-3.874-2.77q-2.297-1.099-5.45-1.099-3.062 0-5.585 1.146-2.477 1.099-3.963 3.248-1.441 2.15-1.441 5.111 0 2.484.856 4.251.855 1.72 2.161 2.961 1.307 1.195 2.748 1.959 1.486.764 2.612 1.194 2.297.907 3.693 1.624 1.397.716 2.027 1.528.63.764.63 2.054 0 1.529-1.08 2.436-1.081.86-2.748.86-1.576 0-3.017-.717-1.397-.716-2.613-2.053-1.17-1.338-2.116-3.153m23.78-14.472h8.648v26.222h7.611V157.58h8.693v-7.213H62.817zm34.68 9.505q0-2.962 1.082-5.207 1.126-2.292 3.107-3.582 2.027-1.29 4.73-1.29 2.747 0 4.729 1.29 1.981 1.29 3.062 3.582 1.081 2.245 1.081 5.207t-1.126 5.254q-1.08 2.245-3.108 3.534-1.981 1.29-4.639 1.29-2.702 0-4.729-1.29-1.981-1.29-3.107-3.534-1.081-2.293-1.081-5.254m-8.061 0q0 3.869 1.216 7.116 1.26 3.248 3.513 5.637 2.297 2.388 5.404 3.725 3.108 1.29 6.846 1.29 3.694 0 6.801-1.29 3.108-1.337 5.36-3.725 2.297-2.389 3.513-5.637 1.261-3.247 1.261-7.116 0-3.87-1.26-7.07-1.262-3.2-3.559-5.54t-5.405-3.582q-3.062-1.29-6.71-1.29-3.604 0-6.711 1.29-3.108 1.242-5.405 3.582t-3.603 5.54q-1.261 3.2-1.261 7.07m41.03-16.718v33.435h7.612v-33.435zm4.775 6.64h6.17q2.297 0 3.603 1.098t1.306 3.2q0 2.054-1.306 3.153-1.306 1.098-3.603 1.098h-6.17v6.64h6.17q4.008 0 6.71-1.29 2.748-1.338 4.144-3.774 1.397-2.483 1.397-5.827 0-3.439-1.397-5.875-1.396-2.436-4.143-3.725-2.703-1.338-6.711-1.338h-6.17z" aria-label="STOP" style="font-weight:700;font-size:200px;font-family:Jost;-inkscape-font-specification:&quot;Jost Bold&quot;;text-align:center;letter-spacing:10px;word-spacing:.1px;white-space:pre;fill:#CA81AC;stroke:none;stroke-width:.232272"/><path d="M12.754 245.107h-1.27v6.955h1.27zm3.161 4.904q0-.695-.269-1.168-.26-.472-.681-.722-.412-.25-.891-.25t-.858.259-.597.74q-.218.473-.218 1.141 0 .66.218 1.141.219.482.597.74.379.26.858.26t.891-.25q.42-.25.681-.723.269-.481.269-1.168m-1.337 0q0 .321-.126.562-.126.232-.336.366-.21.124-.463.124-.218 0-.428-.124-.202-.125-.337-.357-.134-.24-.134-.57t.134-.562q.135-.241.337-.366.21-.125.428-.125.253 0 .463.134.21.125.336.365.126.232.126.553m3.715-3.593q0 .321.219.526t.521.205q.311 0 .522-.205.218-.205.218-.526 0-.32-.218-.517-.21-.205-.522-.205-.302 0-.521.205-.219.196-.219.517m.127 1.543v4.1h1.227v-4.1zm3.95-2.854v6.955h1.22v-6.955zm2.623 2.854-1.656 1.694 1.85 2.407h1.496l-1.824-2.407 1.656-1.694zm5.767 4.19q.74 0 1.252-.303.522-.303.824-.91l-1.135-.294q-.143.268-.386.401-.236.134-.572.134-.294 0-.496-.134-.202-.142-.303-.41-.1-.267-.1-.642.008-.41.1-.677.101-.277.294-.41.194-.134.48-.134.227 0 .395.107t.26.303.093.464q0 .062-.034.16-.025.09-.067.152l.303-.41H29.28v.749h3.531q.017-.063.017-.152v-.196q0-.66-.244-1.124-.244-.463-.706-.704-.463-.25-1.135-.25-.673 0-1.169.259-.487.259-.748.74-.26.481-.26 1.141 0 .651.268 1.133.27.481.757.749.496.258 1.169.258m3.858-4.19 1.992 4.36 1.253-2.443 1.278 2.442 1.992-4.36h-1.328l-.807 2.105-1.135-2.416-1.11 2.416-.807-2.104zm8.288 2.05q0 .642.286 1.124.286.481.79.749.505.267 1.136.267t1.126-.267q.505-.268.79-.75.295-.48.295-1.123 0-.65-.295-1.132-.285-.482-.79-.749-.496-.267-1.126-.267t-1.135.267-.79.749q-.287.481-.287 1.132m1.304 0q0-.32.126-.553.126-.231.328-.356.201-.125.454-.125.243 0 .445.125.21.125.328.356.126.232.126.553t-.126.553q-.118.223-.328.348-.202.125-.445.125-.253 0-.454-.125-.202-.125-.328-.348-.126-.232-.126-.553m6.817-2.05h-1.253v4.1h1.253zm1.118 1.39.547-1.15q-.101-.16-.295-.25-.193-.089-.403-.089-.32 0-.614.223t-.479.607q-.177.383-.177.873l.303.473q0-.294.076-.5.075-.204.218-.311t.328-.107q.168 0 .278.062.117.062.218.17m3.715.66q0-.303.135-.544.134-.24.37-.383.244-.143.521-.143.21 0 .429.072.218.07.403.205.194.133.311.33v-1.32q-.201-.152-.504-.25-.303-.107-.74-.107-.639 0-1.152.268-.504.267-.798.749-.286.472-.286 1.123 0 .642.286 1.124.294.481.798.749.513.267 1.152.267.437 0 .74-.098.303-.107.504-.276v-1.311q-.117.196-.302.33-.177.134-.395.214-.21.071-.446.071-.277 0-.521-.134-.236-.133-.37-.365-.135-.24-.135-.57m6.742 2.14q.74 0 1.253-.303.521-.303.824-.91l-1.135-.294q-.143.268-.387.401-.235.134-.572.134-.294 0-.496-.134-.201-.142-.302-.41-.101-.267-.101-.642.008-.41.1-.677.102-.277.295-.41.193-.134.48-.134.226 0 .394.107t.26.303q.093.196.093.464 0 .062-.033.16-.025.09-.067.152l.302-.41h-2.388v.749h3.532q.016-.063.016-.152v-.196q0-.66-.243-1.124-.244-.463-.707-.704-.462-.25-1.135-.25-.672 0-1.168.259-.488.259-.749.74-.26.481-.26 1.141 0 .651.269 1.133.269.481.757.749.496.258 1.168.258m4.75-1.578-.53.892q.26.214.563.392.303.17.656.267.361.107.782.107.69 0 1.067-.33.387-.338.387-.998 0-.384-.16-.615-.15-.232-.412-.384-.252-.151-.554-.267-.286-.116-.488-.187-.193-.08-.303-.17-.1-.089-.1-.223 0-.116.083-.187.093-.071.27-.071.26 0 .571.16.311.152.555.393l.454-.874q-.227-.179-.488-.312-.252-.134-.546-.214-.286-.08-.622-.08-.42 0-.748.133-.32.134-.513.392-.185.259-.185.633 0 .393.16.642.16.25.403.402.252.142.53.25.31.097.487.187.185.089.261.187.076.089.076.223 0 .142-.093.231-.092.09-.286.09-.134 0-.32-.054-.184-.062-.428-.205-.235-.151-.53-.41m4.858-2.612v1.114h2.59v-1.114zm.68-1.427v5.528h1.22v-5.528zm6.104 5.617q.74 0 1.252-.303.522-.303.824-.91l-1.135-.294q-.143.268-.386.401-.236.134-.572.134-.294 0-.496-.134-.202-.142-.303-.41-.1-.267-.1-.642.008-.41.1-.677.101-.277.295-.41.193-.134.479-.134.227 0 .395.107t.26.303.093.464q0 .062-.034.16-.025.09-.067.152l.303-.41h-2.388v.749h3.531q.017-.063.017-.152v-.196q0-.66-.244-1.124-.244-.463-.706-.704-.462-.25-1.135-.25t-1.169.259q-.487.259-.748.74-.26.481-.26 1.141 0 .651.269 1.133.269.481.756.749.496.258 1.169.258m5.792-4.19h-1.253v4.1h1.253zm1.118 1.39.546-1.15q-.1-.16-.294-.25-.193-.089-.404-.089-.32 0-.613.223-.295.223-.48.607-.176.383-.176.873l.303.473q0-.294.075-.5.076-.204.219-.311t.328-.107q.168 0 .277.062.118.062.219.17m2.336 2.105q0 .338.227.58.227.24.563.24.353 0 .572-.24.219-.242.219-.58 0-.34-.219-.58t-.572-.24q-.336 0-.563.24t-.227.58m4.102-1.445q0 .642.286 1.124.286.481.79.749.505.267 1.135.267t1.127-.267q.504-.268.79-.75.294-.48.294-1.123 0-.65-.294-1.132-.286-.482-.79-.749-.496-.267-1.127-.267-.63 0-1.135.267-.504.267-.79.749-.286.481-.286 1.132m1.303 0q0-.32.126-.553.126-.231.328-.356t.454-.125q.244 0 .446.125.21.125.328.356.126.232.126.553t-.126.553q-.118.223-.328.348-.202.125-.446.125-.252 0-.454-.125t-.328-.348q-.126-.232-.126-.553m6.818-2.05H99.21v4.1h1.253zm1.118 1.39.546-1.15q-.1-.16-.294-.25-.193-.089-.404-.089-.32 0-.613.223-.295.223-.48.607-.176.383-.176.873l.303.473q0-.294.075-.5.076-.204.219-.311t.328-.107q.168 0 .277.062.118.062.219.17m2.504 3.005q.042.544.278.954.235.42.697.651.471.232 1.186.232.597 0 1.076-.232.48-.223.765-.713.294-.49.294-1.275v-4.012h-1.219v4.012q0 .374-.134.624-.126.258-.345.383-.219.134-.488.134-.243 0-.437-.09-.193-.08-.31-.249-.11-.17-.135-.419zm-.084-2.398q0 .686.26 1.15.27.464.69.704.42.232.891.232.488 0 .858-.24.378-.25.597-.714.218-.472.218-1.132 0-.669-.218-1.133-.219-.463-.597-.704-.37-.25-.858-.25-.47 0-.89.232t-.69.696q-.26.463-.26 1.159m1.337 0q0-.321.126-.544t.336-.339.463-.116q.16 0 .32.063.159.062.285.187.135.125.21.312.084.187.084.437 0 .33-.134.553-.135.222-.345.338-.202.107-.42.107-.253 0-.463-.116-.21-.115-.336-.338-.126-.232-.126-.544m5.775 1.498q0 .338.227.58.227.24.563.24.353 0 .572-.24.218-.242.218-.58 0-.34-.218-.58-.219-.24-.572-.24-.336 0-.563.24t-.227.58m5.657-.999v-2.496h-1.328v2.639q0 .73.328 1.15.336.41 1.059.41.429 0 .715-.187.285-.196.462-.526v.615h1.27v-4.101h-1.27v2.496q0 .24-.084.41t-.236.259q-.143.089-.353.089-.31 0-.437-.196-.126-.205-.126-.562m5.186-5.35v6.955h1.22v-6.955zm2.624 2.854-1.657 1.694 1.85 2.407h1.496l-1.824-2.407 1.656-1.694zm7.448-2.14-3.64 7.578h1.269l3.59-7.578zm4.79-.714h-1.269v6.955h1.27zm3.162 4.904q0-.695-.269-1.168-.26-.472-.681-.722-.412-.25-.891-.25t-.858.259-.597.74q-.218.473-.218 1.141 0 .66.218 1.141.219.482.597.74.379.26.858.26t.891-.25q.42-.25.681-.723.269-.481.269-1.168m-1.337 0q0 .321-.126.562-.126.232-.336.366-.21.124-.463.124-.218 0-.428-.124-.202-.125-.337-.357-.134-.24-.134-.57t.134-.562q.135-.241.337-.366.21-.125.428-.125.253 0 .463.134.21.125.336.365.126.232.126.553m3.715-3.593q0 .321.219.526t.521.205q.311 0 .521-.205.22-.205.22-.526 0-.32-.22-.517-.21-.205-.52-.205-.303 0-.522.205-.219.196-.219.517m.126 1.543v4.1h1.228v-4.1zm3.951-2.854v6.955h1.22v-6.955zm2.623 2.854-1.656 1.694 1.85 2.407h1.496l-1.824-2.407 1.656-1.694zm5.767 4.19q.74 0 1.252-.303.522-.303.824-.91l-1.135-.294q-.143.268-.386.401-.236.134-.572.134-.294 0-.496-.134-.202-.142-.303-.41-.1-.267-.1-.642.007-.41.1-.677.101-.277.294-.41.194-.134.48-.134.227 0 .395.107t.26.303.093.464q0 .062-.034.16-.025.09-.067.152l.303-.41h-2.388v.749h3.531q.017-.063.017-.152v-.196q0-.66-.244-1.124-.244-.463-.706-.704-.463-.25-1.135-.25-.673 0-1.169.259-.487.259-.748.74-.26.481-.26 1.141 0 .651.268 1.133.27.481.757.749.496.258 1.169.258m5.8-7.044h-1.27v6.955h1.27zm3.161 4.904q0-.695-.27-1.168-.26-.472-.68-.722-.412-.25-.891-.25t-.858.259-.597.74q-.218.473-.218 1.141 0 .66.218 1.141.219.482.597.74.379.26.858.26t.891-.25q.42-.25.68-.723.27-.481.27-1.168m-1.337 0q0 .321-.126.562-.126.232-.336.366-.21.124-.463.124-.218 0-.428-.124-.202-.125-.337-.357-.134-.24-.134-.57t.134-.562q.135-.241.337-.366.21-.125.428-.125.253 0 .463.134.21.125.336.365.126.232.126.553m5.12.446v-2.496h-1.329v2.639q0 .73.328 1.15.336.41 1.06.41.428 0 .714-.187.286-.196.462-.526v.615h1.27v-4.101h-1.27v2.496q0 .24-.084.41t-.235.259q-.143.089-.353.089-.311 0-.438-.196-.126-.205-.126-.562m5.404.116-.53.892q.261.214.564.392.303.17.656.267.361.107.782.107.69 0 1.067-.33.387-.338.387-.998 0-.384-.16-.615-.15-.232-.412-.384-.252-.151-.554-.267-.286-.116-.488-.187-.193-.08-.303-.17-.1-.089-.1-.223 0-.116.084-.187.092-.071.269-.071.26 0 .571.16.311.152.555.393l.454-.874q-.227-.179-.487-.312-.253-.134-.547-.214-.286-.08-.622-.08-.42 0-.748.133-.32.134-.513.392-.185.259-.185.633 0 .393.16.642.16.25.403.402.252.142.53.25.31.097.487.187.185.089.261.187.076.089.076.223 0 .142-.093.231-.092.09-.286.09-.134 0-.32-.054-.184-.062-.428-.205-.235-.151-.53-.41" aria-label="bikeworcester.org.uk/bikebus" style="font-weight:700;font-size:37.3333px;font-family:Jost;-inkscape-font-specification:&quot;Jost Bold&quot;;text-align:center;letter-spacing:7.5px;word-spacing:.1px;white-space:pre;fill:#CA81AC;stroke:none;stroke-width:.232272"/><path fill="#CA81AC" fill-rule="evenodd" d="M147.463 226.3c0-4.168 2.015-7.84 5.067-9.98a10.77 10.77 0 0 1 6.207-1.976c6.222 0 11.273 5.357 11.273 11.955 0 6.599-5.051 11.956-11.273 11.956s-11.274-5.357-11.274-11.956m14.67 1.27a1.44 1.44 0 0 0-.293.873c0 .369.139.723.385.983.245.261.579.408.927.408.347 0 .68-.147.927-.408.246-.26.384-.614.384-.983s-.138-.722-.384-.983a1.27 1.27 0 0 0-.927-.408h-.007l-.173-.366q-.15-.324-.29-.654a2 2 0 0 1 .47-.053c.615 0 1.207.26 1.642.722a2.54 2.54 0 0 1 .68 1.742c0 .654-.244 1.28-.68 1.742a2.26 2.26 0 0 1-1.643.722c-.616 0-1.207-.26-1.642-.722a2.54 2.54 0 0 1-.68-1.742c0-.653.244-1.28.68-1.742q.076-.081.16-.152a21 21 0 0 0 .463 1.022zm-9.848 1.668c0-.443.165-.867.46-1.18a1.53 1.53 0 0 1 1.113-.49c.418 0 .818.177 1.113.49s.461.737.461 1.18-.165.867-.46 1.18a1.53 1.53 0 0 1-1.114.489 1.53 1.53 0 0 1-1.113-.489 1.72 1.72 0 0 1-.46-1.18m7.095-8.61q.335-.026.672-.038a4 4 0 0 1 .416.004l.143.011.099.013.022.004q.009.052.013.106.02.197.018.396 0 .187-.009.376l-.02.406a21 21 0 0 0-.033.874q0 .238.017.475.014.177.045.35-.334.036-.666.089-.52.081-1.034.206-.476.116-.939.278-.434.15-.85.35-.51.24-.978.557l-.45-.56.01-.001a5 5 0 0 0 .21-.036 1.2 1.2 0 0 0 .222-.07.64.64 0 0 0 .245-.19.65.65 0 0 0-.294-1.005 1 1 0 0 0-.19-.058q-.15-.032-.301-.055a8 8 0 0 0-.277-.035q-.21-.024-.42-.042-.328-.03-.658-.051a72 72 0 0 0-1.032-.06.54.54 0 0 0-.415.163.6.6 0 0 0-.174.432v.556c0 .161.061.315.17.428a.55.55 0 0 0 .408.168q.552-.017 1.104-.041l.942 1.175q-.363.338-.684.723a2.5 2.5 0 0 0-.853-.148c-1.49 0-2.698 1.282-2.698 2.861s1.208 2.861 2.698 2.861 2.698-1.282 2.698-2.86c0-.825-.33-1.569-.857-2.09q.364-.414.79-.757a6.4 6.4 0 0 1 1.243-.777q.363-.173.743-.306.415-.145.84-.248.468-.115.944-.189.383-.06.764-.099a12 12 0 0 0 .204.638c-.92.657-1.524 1.77-1.524 3.032 0 2.018 1.545 3.656 3.448 3.656s3.447-1.638 3.447-3.656-1.544-3.656-3.447-3.656q-.468.001-.9.127a17 17 0 0 1-.164-.527 9 9 0 0 1-.123-.488 6 6 0 0 1-.077-.418 2.4 2.4 0 0 1-.05-.325 4 4 0 0 1-.013-.373q0-.195.01-.39.008-.207.02-.415a20 20 0 0 0 .033-.85q0-.26-.024-.519a3 3 0 0 0-.095-.513.8.8 0 0 0-.342-.465 1 1 0 0 0-.321-.142 2.5 2.5 0 0 0-.388-.07l-.193-.016a6 6 0 0 0-.508-.005q-.321.01-.642.035l-.031-.035a.82.82 0 0 0-.6-.263h-1.377a.82.82 0 0 0-.6.263.93.93 0 0 0-.248.635c0 .239.09.467.248.636a.82.82 0 0 0 .6.263h1.377a.82.82 0 0 0 .636-.304zM17.373 226.3c0-4.168 2.015-7.84 5.067-9.98a10.77 10.77 0 0 1 6.207-1.976c6.222 0 11.273 5.357 11.273 11.955 0 6.599-5.051 11.956-11.273 11.956s-11.274-5.357-11.274-11.956m14.67 1.27a1.44 1.44 0 0 0-.293.873c0 .369.139.723.385.983.246.261.58.408.927.408s.681-.147.927-.408c.246-.26.384-.614.384-.983s-.138-.722-.384-.983a1.27 1.27 0 0 0-.927-.408h-.007l-.173-.366q-.15-.324-.29-.654a2 2 0 0 1 .47-.053c.616 0 1.207.26 1.643.722s.68 1.089.68 1.742c0 .654-.245 1.28-.68 1.742a2.26 2.26 0 0 1-1.643.722c-.616 0-1.208-.26-1.643-.722a2.54 2.54 0 0 1-.68-1.742c0-.653.245-1.28.68-1.742q.076-.081.16-.152a21 21 0 0 0 .463 1.022m-9.848 1.668c0-.443.165-.867.46-1.18a1.53 1.53 0 0 1 1.114-.49c.417 0 .817.177 1.112.49s.461.737.461 1.18-.165.867-.46 1.18a1.53 1.53 0 0 1-1.113.489 1.53 1.53 0 0 1-1.113-.489 1.72 1.72 0 0 1-.461-1.18m7.095-8.61q.336-.026.672-.038a4 4 0 0 1 .416.004l.143.011.1.013.02.004q.01.052.014.106.02.197.018.396 0 .187-.009.376l-.02.406q-.014.216-.022.432-.01.22-.01.442-.002.238.016.475.014.177.045.35-.334.036-.666.089-.52.081-1.034.206-.476.116-.939.278-.433.15-.85.35-.51.24-.978.557l-.45-.56.01-.001q.105-.016.21-.036a1.2 1.2 0 0 0 .222-.07.642.642 0 0 0-.048-1.194 1 1 0 0 0-.19-.059q-.15-.032-.302-.055a8 8 0 0 0-.277-.035q-.21-.024-.42-.042-.328-.03-.658-.051a72 72 0 0 0-1.032-.06.54.54 0 0 0-.415.163.6.6 0 0 0-.174.432v.556c0 .161.061.315.17.428a.55.55 0 0 0 .408.168 90 90 0 0 0 1.104-.041l.942 1.175q-.363.338-.684.723a2.5 2.5 0 0 0-.853-.148c-1.49 0-2.698 1.282-2.698 2.861s1.208 2.861 2.698 2.861 2.698-1.282 2.698-2.86c0-.825-.33-1.569-.857-2.09q.364-.414.79-.757a6.4 6.4 0 0 1 1.243-.777q.363-.173.743-.306.415-.145.84-.248.468-.115.944-.189.383-.06.764-.099a12 12 0 0 0 .203.638c-.918.657-1.523 1.77-1.523 3.032 0 2.018 1.545 3.656 3.448 3.656s3.447-1.638 3.447-3.656-1.544-3.656-3.447-3.656q-.468.001-.9.127a17 17 0 0 1-.164-.527 8 8 0 0 1-.123-.488 6 6 0 0 1-.077-.418 2.4 2.4 0 0 1-.05-.325 4 4 0 0 1-.013-.373q0-.195.01-.39.008-.207.02-.415.013-.211.022-.422.01-.214.01-.427a5 5 0 0 0-.023-.52 3 3 0 0 0-.095-.513.8.8 0 0 0-.342-.465 1 1 0 0 0-.321-.142 2.5 2.5 0 0 0-.388-.07l-.193-.016a6 6 0 0 0-.508-.005q-.321.01-.642.035l-.031-.035a.82.82 0 0 0-.6-.263h-1.377a.82.82 0 0 0-.6.263.93.93 0 0 0-.248.635c0 .239.09.467.248.636a.82.82 0 0 0 .6.263h1.377a.82.82 0 0 0 .636-.304z" style="isolation:isolate;fill:#CA81AC;fill-rule:nonzero;stroke-width:.0226745"/></svg>