<svg xmlns="http://www.w3.org/2000/svg" viewBox="0 0 270.93 146.39"><path d="M-30.43 75.4v146.4h270.94V75.4zm205.68 11.43 12.82 24.35h1.89l.3-11.77h25.4v13.4h7.44v24.51h-2.5a30 30 0 0 1 5.02 6.78l4.5 8.54-10.03 5.54c.2.22.49.35.68.58a23.6 23.6 0 0 1 4.51 7.64 25.8 25.8 0 0 1 1.47 8.78c0 4.2-.92 8.47-2.93 12.23l-.02.04-.03.04a25.96 25.96 0 0 1-7.7 8.66 31.9 31.9 0 0 1-9.67 4.7 38.56 38.56 0 0 1-24.34-.99 35 35 0 0 1-11.34-6.87c-.11-.1-.2-.24-.3-.34a26 26 0 0 1-3.92 3.5 31.9 31.9 0 0 1-9.67 4.7c-3.41 1-6.95 1.5-10.52 1.5-4.42 0-8.73-.78-12.82-2.2H96.5l-3.72-6.65h-2.44l-3.63 6.64H34.57l-.74-5.89-5.7 7.46-5.7-7.46-.74 5.9h-37.75l11.81-66.83c-.29-.24-.59-.46-.87-.72a18.97 18.97 0 0 1-6.05-14.23 18.95 18.95 0 0 1 6.06-14.23 19.4 19.4 0 0 1 6.79-4.03 23 23 0 0 1 7.54-1.22c2.14 0 4.36.2 6.85 1.18 1.3.5 2.51 1.21 3.7 1.97l1.47-1.4 1.28-1.23h24.13l5.68 5.8v-5.8h76.94v7.34c.65-.86 1.05-1.89 1.84-2.61a19.4 19.4 0 0 1 6.8-4.03 23 23 0 0 1 7.54-1.22c2.14 0 4.35.2 6.85 1.18 1.3.5 3.7 1.97 3.7 1.97l4.89 9.14h1.53zm0 22.42-10.29 19.53h6.51l1.28-2.34h4.96l1.31 2.34h6.51zm-166.03.78c-1.58 0-3.02.23-4.32.68a8.8 8.8 0 0 0-5.47 5 10 10 0 0 0-.76 3.96 10 10 0 0 0 .76 3.96 8.8 8.8 0 0 0 5.47 5c1.3.45 2.74.67 4.32.67 1.34 0 2.42-.17 3.26-.52.85-.33 1.63-.73 2.34-1.22v-5.89c-.38.37-.82.72-1.3 1.07a6.6 6.6 0 0 1-3.88 1.17c-.85 0-1.63-.15-2.35-.46a4.04 4.04 0 0 1-1.69-1.41 4.27 4.27 0 0 1-.62-2.37c0-.94.2-1.72.62-2.34.44-.65 1-1.12 1.7-1.44a6.61 6.61 0 0 1 6.22.7c.48.35.92.7 1.3 1.07v-5.88c-.71-.5-1.5-.92-2.34-1.25a9 9 0 0 0-3.26-.5m136.23 0c-1.58 0-3.02.23-4.32.68a8.8 8.8 0 0 0-5.47 5 10 10 0 0 0-.76 3.96 10 10 0 0 0 .76 3.96 8.8 8.8 0 0 0 5.47 5c1.3.45 2.74.67 4.32.67 1.34 0 2.42-.17 3.25-.52a11 11 0 0 0 2.35-1.22v-5.89c-.38.37-.82.72-1.3 1.07a6.6 6.6 0 0 1-3.88 1.17c-.85 0-1.64-.15-2.35-.46a4.04 4.04 0 0 1-1.69-1.41 4.27 4.27 0 0 1-.63-2.37q0-1.41.63-2.34c.43-.65 1-1.12 1.7-1.44a6.6 6.6 0 0 1 6.22.7c.48.35.92.7 1.3 1.07v-5.88a8.98 8.98 0 0 0-5.6-1.74zm-114.37.52v18.23h5.72v-5.72h.8l3.24 5.72h6.64l-4.36-6.54a5.35 5.35 0 0 0 2.46-2.2c.54-.96.8-2.04.8-3.24a6.3 6.3 0 0 0-.8-3.22 5.35 5.35 0 0 0-2.47-2.22 10 10 0 0 0-4.35-.8h-7.68zm31.1 0v18.23h5.86v-18.23zm20.55 0v5.08h5.2v13.15h5.74v-13.15h5.2v-5.08H82.74zm30.84 0v18.23h5.86v-18.23zm86.53 0v18.23h13.15v-4.81h-7.42v-13.42zm-163.3 4.82h1.44a3 3 0 0 1 1.2.21c.3.12.54.31.7.57.17.25.26.55.26.91a1.6 1.6 0 0 1-.96 1.52q-.48.18-1.2.18H36.8zm138.45 3.47 1.55 3.48h-3.1zm-81.07 18.74L65.04 192.9h18.44l3.63-6.64h14.04l3.72 6.64h18.44zm-86.31 1.1-9.6 54.22h17.34l2.66-21.1 12.46 16.3 12.47-16.3 2.66 21.1h17.33l-9.59-54.22-22.87 27.89zm141.12 1.11c-3.6 0-6.89.59-9.89 1.77a16.8 16.8 0 0 0-7.23 5.24c-1.82 2.3-2.73 5.16-2.73 8.55 0 2.61.47 4.87 1.4 6.8a17.5 17.5 0 0 0 3.62 4.86 23 23 0 0 0 4.57 3.25c1.62.83 3.05 1.5 4.28 1.99 2.8 1.08 4.9 1.94 6.27 2.58a9 9 0 0 1 2.73 1.7c.5.49.74 1.08.74 1.77 0 1.13-.44 1.96-1.33 2.5a6.6 6.6 0 0 1-3.25.74c-1.52 0-3.04-.32-4.57-.96a14 14 0 0 1-4.13-2.8 21.2 21.2 0 0 1-3.4-4.5l-10.91 7.97a21.7 21.7 0 0 0 5.24 7.08 25 25 0 0 0 8.18 4.94 28.5 28.5 0 0 0 10.33 1.85c2.66 0 5.24-.37 7.75-1.11a21.9 21.9 0 0 0 6.71-3.25 15.75 15.75 0 0 0 4.8-5.38 15.9 15.9 0 0 0 1.77-7.6c0-2.01-.3-3.83-.89-5.46a13.5 13.5 0 0 0-2.65-4.5 16.8 16.8 0 0 0-4.14-3.47 27.5 27.5 0 0 0-5.53-2.65 147 147 0 0 0-5.53-1.92 21.3 21.3 0 0 1-4.06-1.84c-.98-.7-1.47-1.55-1.47-2.59 0-.83.34-1.45 1.03-1.84.74-.4 1.67-.59 2.8-.59.94 0 1.9.17 2.88.52q1.47.51 2.88 1.62c.98.69 1.86 1.65 2.65 2.88l12.03-6.64a21.7 21.7 0 0 0-4.13-5.31 21.2 21.2 0 0 0-6.87-4.43c-2.75-1.18-6.07-1.77-9.95-1.77m49.57 0c-3.6 0-6.89.59-9.89 1.77a16.8 16.8 0 0 0-7.23 5.24c-1.81 2.3-2.73 5.16-2.73 8.55 0 2.61.47 4.87 1.4 6.8a17.5 17.5 0 0 0 3.62 4.86c1.48 1.33 3 2.41 4.57 3.25 1.63.83 3.05 1.5 4.28 1.99 2.8 1.08 4.9 1.94 6.27 2.58a9 9 0 0 1 2.73 1.7c.5.49.74 1.08.74 1.77 0 1.13-.44 1.96-1.33 2.5a6.6 6.6 0 0 1-3.24.74c-1.53 0-3.05-.32-4.58-.96a14 14 0 0 1-4.13-2.8 21.2 21.2 0 0 1-3.39-4.5l-10.92 7.97a21.7 21.7 0 0 0 5.24 7.08 25 25 0 0 0 8.19 4.94 28.5 28.5 0 0 0 10.33 1.85q3.975 0 7.74-1.11a21.7 21.7 0 0 0 6.71-3.25 15.75 15.75 0 0 0 4.8-5.38 15.9 15.9 0 0 0 1.77-7.6c0-2.01-.3-3.83-.89-5.46a13.5 13.5 0 0 0-2.65-4.5 16.8 16.8 0 0 0-4.13-3.47 27.5 27.5 0 0 0-5.54-2.65 147 147 0 0 0-5.53-1.92 21.3 21.3 0 0 1-4.06-1.84c-.98-.7-1.47-1.55-1.47-2.59 0-.83.34-1.45 1.03-1.84.74-.4 1.67-.59 2.8-.59.94 0 1.9.17 2.88.52.99.34 1.94.88 2.88 1.62a10.2 10.2 0 0 1 2.66 2.88l12.02-6.64a21.6 21.6 0 0 0-4.13-5.31 21.2 21.2 0 0 0-6.86-4.43q-4.14-1.77-9.96-1.77M94.18 164.72l4.4 9.89h-8.8zm38.27 35.13.07.04-.03-.03h-.04z" style="fill:#CAC381;fill-opacity:1;stroke:none;stroke-width:19.2266;stroke-dasharray:none;stroke-opacity:1;paint-order:markers stroke fill" transform="translate(30.43 -75.4)"/></svg>