<svg xmlns="http://www.w3.org/2000/svg" viewBox="0 0 270.93 146.39"><path d="M-30.43 75.41H240.5V221.8H-30.43z" style="fill:#81ca9f;fill-opacity:1;stroke:none;stroke-width:19.2266;stroke-dasharray:none;stroke-opacity:1;paint-order:markers stroke fill" transform="translate(30.43 -75.4)"/><path d="m175.25 109.25-10.29 19.53h6.51l1.28-2.34h4.96l1.31 2.34h6.51zm-166.03.78c-1.58 0-3.02.23-4.32.68a8.8 8.8 0 0 0-5.47 5 10 10 0 0 0-.76 3.96 10 10 0 0 0 .76 3.96 8.8 8.8 0 0 0 5.47 5c1.3.45 2.74.67 4.32.67 1.34 0 2.42-.17 3.26-.52.85-.33 1.63-.73 2.34-1.22v-5.89c-.38.37-.82.73-1.3 1.07a6.6 6.6 0 0 1-3.88 1.17c-.85 0-1.64-.15-2.35-.46a4.04 4.04 0 0 1-1.69-1.41 4.27 4.27 0 0 1-.62-2.37c0-.94.2-1.72.62-2.34.43-.65 1-1.12 1.7-1.44a6.61 6.61 0 0 1 6.22.7c.48.35.92.7 1.3 1.07v-5.88c-.71-.5-1.5-.92-2.34-1.25a9 9 0 0 0-3.26-.5m136.23 0c-1.58 0-3.02.23-4.32.68a8.8 8.8 0 0 0-5.47 5 10 10 0 0 0-.76 3.96 10 10 0 0 0 .76 3.96 8.8 8.8 0 0 0 5.47 5c1.3.45 2.74.67 4.32.67 1.34 0 2.42-.17 3.25-.52.85-.33 1.64-.73 2.35-1.22v-5.89c-.38.37-.82.73-1.3 1.07a6.6 6.6 0 0 1-3.88 1.17c-.85 0-1.64-.15-2.35-.46a4.04 4.04 0 0 1-1.69-1.41 4.27 4.27 0 0 1-.63-2.37q0-1.41.63-2.34c.43-.65 1-1.12 1.7-1.44a6.6 6.6 0 0 1 6.22.7c.48.35.92.7 1.3 1.07v-5.88a8.98 8.98 0 0 0-5.6-1.74zm-114.37.52v18.23h5.72v-5.72h.8l3.24 5.72h6.64l-4.36-6.54a5.35 5.35 0 0 0 2.46-2.2c.54-.96.8-2.04.8-3.24a6.3 6.3 0 0 0-.8-3.22 5.35 5.35 0 0 0-2.47-2.22 10 10 0 0 0-4.35-.8H36.8zm31.1 0v18.23h5.86v-18.23zm20.55 0v5.08h5.2v13.15h5.74v-13.15h5.2v-5.08zm30.84 0v18.23h5.86v-18.23zm86.53 0v18.23h13.15v-4.81h-7.42v-13.42ZM94.17 137.58 65.04 192.9h18.44l3.63-6.64h14.04l3.72 6.64h18.44zm-86.3 1.1-9.6 54.22h17.34l2.66-21.1 12.46 16.3 12.47-16.3 2.66 21.1h17.33l-9.59-54.22-22.87 27.89zm141.12 1.11c-3.6 0-6.89.59-9.89 1.77a16.8 16.8 0 0 0-7.23 5.24c-1.82 2.3-2.73 5.16-2.73 8.56 0 2.6.47 4.86 1.4 6.78a17.5 17.5 0 0 0 3.62 4.87 23 23 0 0 0 4.57 3.25c1.62.83 3.05 1.5 4.28 1.99 2.8 1.08 4.9 1.94 6.27 2.58a9 9 0 0 1 2.73 1.7c.5.49.74 1.08.74 1.77 0 1.13-.44 1.96-1.33 2.5a6.6 6.6 0 0 1-3.25.74c-1.52 0-3.05-.32-4.57-.96a14 14 0 0 1-4.13-2.8 21.2 21.2 0 0 1-3.4-4.5l-10.91 7.97a21.7 21.7 0 0 0 5.24 7.08 25 25 0 0 0 8.18 4.94 28.5 28.5 0 0 0 10.33 1.85c2.66 0 5.24-.37 7.75-1.1 2.5-.75 4.74-1.83 6.71-3.26a15.75 15.75 0 0 0 4.8-5.38 15.9 15.9 0 0 0 1.77-7.6c0-2.01-.3-3.83-.89-5.46a13.5 13.5 0 0 0-2.65-4.5 16.8 16.8 0 0 0-4.14-3.46 27.5 27.5 0 0 0-5.53-2.66 147 147 0 0 0-5.53-1.92 21.3 21.3 0 0 1-4.06-1.84c-.98-.7-1.47-1.55-1.47-2.58 0-.84.34-1.45 1.03-1.85.74-.4 1.67-.59 2.8-.59.94 0 1.9.17 2.88.52q1.47.51 2.88 1.62c.98.69 1.86 1.65 2.65 2.88l12.03-6.64a21.7 21.7 0 0 0-4.13-5.31 21.2 21.2 0 0 0-6.87-4.43c-2.75-1.18-6.07-1.77-9.95-1.77m49.57 0c-3.6 0-6.89.59-9.89 1.77a16.8 16.8 0 0 0-7.23 5.24c-1.82 2.3-2.73 5.16-2.73 8.56 0 2.6.47 4.86 1.4 6.78a17.5 17.5 0 0 0 3.62 4.87c1.48 1.33 3 2.41 4.57 3.25 1.63.83 3.05 1.5 4.28 1.99 2.8 1.08 4.9 1.94 6.27 2.58a9 9 0 0 1 2.73 1.7c.5.49.74 1.08.74 1.77 0 1.13-.44 1.96-1.33 2.5a6.6 6.6 0 0 1-3.24.74c-1.53 0-3.05-.32-4.58-.96a14 14 0 0 1-4.13-2.8 21.2 21.2 0 0 1-3.4-4.5l-10.91 7.97a21.7 21.7 0 0 0 5.24 7.08 25 25 0 0 0 8.19 4.94 28.5 28.5 0 0 0 10.32 1.85c2.66 0 5.24-.37 7.75-1.1 2.5-.75 4.75-1.83 6.71-3.26a15.75 15.75 0 0 0 4.8-5.38 15.9 15.9 0 0 0 1.77-7.6c0-2.01-.3-3.83-.89-5.46a13.5 13.5 0 0 0-2.65-4.5 16.8 16.8 0 0 0-4.13-3.46 27.5 27.5 0 0 0-5.54-2.66 147 147 0 0 0-5.53-1.92 21.3 21.3 0 0 1-4.06-1.84c-.98-.7-1.47-1.55-1.47-2.58 0-.84.34-1.45 1.03-1.85.74-.4 1.67-.59 2.8-.59.94 0 1.9.17 2.88.52.99.34 1.94.88 2.88 1.62.98.69 1.87 1.65 2.65 2.88l12.03-6.64a21.7 21.7 0 0 0-4.13-5.31 21.2 21.2 0 0 0-6.86-4.43q-4.14-1.77-9.96-1.77m-66.1 60.07.06.02a.1.1 0 0 1-.03-.01h-.02z" style="-inkscape-font-specification:&quot;Jost Heavy&quot;;fill:#81CA9F;fill-opacity:1;stroke-width:2.46061" transform="translate(30.43 -75.4)"/><path d="m175.25 86.83-12.83 24.35h-1.53l-4.9-9.13s-2.4-1.48-3.69-1.98a17.9 17.9 0 0 0-6.85-1.18c-2.52 0-5.08.36-7.55 1.22-2.43.84-4.8 2.2-6.79 4.03-.79.72-1.19 1.75-1.84 2.61v-7.34H52.33v5.8l-5.68-5.8H22.52l-1.28 1.23-1.48 1.4a21 21 0 0 0-3.69-1.97 17.9 17.9 0 0 0-6.85-1.18c-2.52 0-5.08.36-7.54 1.22-2.44.84-4.81 2.2-6.8 4.03a18.95 18.95 0 0 0-6.05 14.23 18.97 18.97 0 0 0 6.06 14.24c.27.25.57.47.86.7l-11.81 66.83h37.75l.74-5.89 5.7 7.46 5.7-7.46.74 5.9h52.14l3.63-6.65h2.44l3.72 6.64h36.99a38.7 38.7 0 0 0 12.82 2.21c3.57 0 7.1-.5 10.52-1.5a31.9 31.9 0 0 0 9.67-4.7 26 26 0 0 0 3.92-3.5l.3.34a34.9 34.9 0 0 0 11.34 6.87 38.56 38.56 0 0 0 24.34.99 31.9 31.9 0 0 0 9.67-4.7 25.96 25.96 0 0 0 7.7-8.66l.03-.04.02-.04a26 26 0 0 0 2.93-12.23c0-2.96-.44-5.94-1.47-8.78a23.6 23.6 0 0 0-4.5-7.64c-.2-.23-.49-.36-.7-.58l10.04-5.54-4.5-8.54a30 30 0 0 0-5.03-6.78h2.5v-24.5h-7.42v-13.4h-25.42l-.29 11.76h-1.89zm0 22.42 10.28 19.53h-6.5l-1.32-2.34h-4.96l-1.28 2.34h-6.5zm-166.03.78a9 9 0 0 1 3.26.5c.85.33 1.63.75 2.34 1.25v5.88c-.38-.36-.82-.72-1.3-1.06a6.6 6.6 0 0 0-3.88-1.17c-.85 0-1.63.15-2.35.46-.7.32-1.25.8-1.69 1.44-.42.62-.62 1.4-.62 2.34s.2 1.73.62 2.37a4 4 0 0 0 1.7 1.4c.7.32 1.49.47 2.34.47a6.6 6.6 0 0 0 3.88-1.17c.48-.35.92-.7 1.3-1.07v5.89c-.71.49-1.5.9-2.34 1.22-.84.35-1.92.52-3.26.52-1.58 0-3.02-.22-4.32-.67a8.8 8.8 0 0 1-5.47-5 10 10 0 0 1-.76-3.96 10 10 0 0 1 .76-3.96 8.8 8.8 0 0 1 5.47-5c1.3-.45 2.74-.68 4.32-.68m136.23 0a8.9 8.9 0 0 1 5.6 1.75v5.88c-.38-.36-.82-.72-1.3-1.06a6.6 6.6 0 0 0-3.88-1.17c-.85 0-1.64.15-2.35.46a4 4 0 0 0-1.69 1.44q-.63.93-.63 2.34c0 1.41.21 1.73.63 2.37.43.62 1 1.1 1.7 1.4.7.32 1.49.47 2.34.47a6.6 6.6 0 0 0 3.88-1.17c.48-.35.92-.7 1.3-1.07v5.89c-.71.49-1.5.9-2.35 1.22-.83.35-1.91.52-3.25.52-1.58 0-3.02-.22-4.32-.67a8.8 8.8 0 0 1-5.47-5 10 10 0 0 1-.76-3.96 10 10 0 0 1 .76-3.96 8.8 8.8 0 0 1 5.47-5c1.3-.45 2.74-.68 4.32-.68m-114.37.52h7.68a10 10 0 0 1 4.35.81 5.35 5.35 0 0 1 2.47 2.22c.54.93.8 2 .8 3.22 0 1.2-.26 2.28-.8 3.23a5.35 5.35 0 0 1-2.46 2.21l4.36 6.54h-6.64l-3.24-5.73h-.8v5.73h-5.72zm31.1 0h5.86v18.23h-5.86zm20.55 0h16.14v5.08h-5.2v13.15h-5.73v-13.15h-5.21zm30.84 0h5.86v18.23h-5.86zm86.53 0h5.73v13.42h7.42v4.81H200.1zm-163.3 4.82v3.39h1.44q.72 0 1.2-.18a1.6 1.6 0 0 0 .96-1.51c0-.37-.09-.67-.26-.92-.16-.26-.4-.45-.7-.57-.32-.14-.72-.2-1.2-.2zm138.45 3.47-1.56 3.48h3.11zm-81.07 18.74 29.13 55.32h-18.44l-3.72-6.64H87.11l-3.63 6.64H65.04Zm-86.31 1.1 22.86 27.89 22.87-27.89 9.6 54.22H45.85l-2.66-21.1-12.47 16.3-12.46-16.3-2.66 21.1H-1.72Zm141.12 1.11c3.88 0 7.2.59 9.95 1.77a21.2 21.2 0 0 1 6.87 4.43 21.7 21.7 0 0 1 4.13 5.3l-12.03 6.65a10.1 10.1 0 0 0-2.65-2.88 10 10 0 0 0-2.88-1.62 8.7 8.7 0 0 0-2.88-.52c-1.13 0-2.06.2-2.8.6-.69.38-1.03 1-1.03 1.83 0 1.04.49 1.9 1.47 2.59 1.03.64 2.39 1.25 4.06 1.84 1.67.54 3.52 1.18 5.53 1.92 2.07.74 3.91 1.62 5.53 2.66 1.63.98 3 2.13 4.14 3.46a13.5 13.5 0 0 1 2.65 4.5c.6 1.63.89 3.45.89 5.46 0 2.85-.6 5.39-1.77 7.6a15.75 15.75 0 0 1-4.8 5.38 21.8 21.8 0 0 1-6.71 3.25c-2.51.74-5.1 1.1-7.75 1.1-3.69 0-7.13-.6-10.33-1.84a25 25 0 0 1-8.18-4.94 21.7 21.7 0 0 1-5.24-7.08l10.92-7.97a21.2 21.2 0 0 0 3.39 4.5 14 14 0 0 0 4.13 2.8c1.53.64 3.05.96 4.57.96a6.6 6.6 0 0 0 3.25-.73 2.73 2.73 0 0 0 1.33-2.51c0-.7-.25-1.28-.74-1.77a9 9 0 0 0-2.73-1.7q-2.07-.96-6.27-2.58a51 51 0 0 1-4.28-2 23 23 0 0 1-4.57-3.24 17.5 17.5 0 0 1-3.62-4.87 15.34 15.34 0 0 1-1.4-6.79q0-5.085 2.73-8.55a16.8 16.8 0 0 1 7.23-5.24c3-1.18 6.3-1.77 9.89-1.77m49.57 0q5.82 0 9.96 1.77a21.2 21.2 0 0 1 6.86 4.43 21.6 21.6 0 0 1 4.13 5.3l-12.03 6.65a10.1 10.1 0 0 0-2.65-2.88 10 10 0 0 0-2.88-1.62 8.7 8.7 0 0 0-2.88-.52c-1.13 0-2.06.2-2.8.6-.69.38-1.03 1-1.03 1.83 0 1.04.5 1.9 1.47 2.59 1.04.64 2.39 1.25 4.06 1.84 1.67.54 3.52 1.18 5.53 1.92a27.5 27.5 0 0 1 5.54 2.66c1.62.98 3 2.13 4.13 3.46a13.5 13.5 0 0 1 2.65 4.5c.6 1.63.89 3.45.89 5.46 0 2.85-.6 5.39-1.77 7.6a15.75 15.75 0 0 1-4.8 5.38 21.8 21.8 0 0 1-6.7 3.25c-2.52.74-5.1 1.1-7.76 1.1-3.68 0-7.13-.6-10.32-1.84a25 25 0 0 1-8.2-4.94 21.7 21.7 0 0 1-5.23-7.08l10.92-7.97a21.2 21.2 0 0 0 3.4 4.5 14 14 0 0 0 4.12 2.8c1.53.64 3.05.96 4.58.96a6.6 6.6 0 0 0 3.24-.73 2.73 2.73 0 0 0 1.33-2.51c0-.7-.24-1.28-.74-1.77a9 9 0 0 0-2.73-1.7q-2.055-.96-6.27-2.58a51 51 0 0 1-4.28-2 23 23 0 0 1-4.57-3.24 17.5 17.5 0 0 1-3.61-4.87 15.34 15.34 0 0 1-1.4-6.79c0-3.39.9-6.24 2.72-8.55a16.8 16.8 0 0 1 7.23-5.24c3-1.18 6.3-1.77 9.89-1.77M94.18 164.72l-4.4 9.89h8.8zm38.27 35.13c.01 0 .03 0 .04.02l.03.02z" style="-inkscape-font-specification:&quot;Jost Heavy&quot;;fill:#1C1C1C;fill-opacity:1;stroke-width:2.46061" transform="translate(30.43 -75.4)"/></svg>