<?xml version="1.0" encoding="UTF-8" standalone="no"?><!-- Generator: Gravit.io --><svg xmlns="http://www.w3.org/2000/svg" xmlns:xlink="http://www.w3.org/1999/xlink" style="isolation:isolate" viewBox="0 0 11244.88 2834.65" width="11244.88pt" height="2834.65pt"><defs><clipPath id="_clipPath_QjHJ92M1gAFcUrxIbon7VrgxF7SoI45p"><rect width="11244.88" height="2834.65"/></clipPath></defs><g clip-path="url(#_clipPath_QjHJ92M1gAFcUrxIbon7VrgxF7SoI45p)"><rect x="0" y="0" width="11245.29" height="2834.65" transform="matrix(1,0,0,1,0,0)" fill="rgb(62,80,98)"/><path d=" M 612.38 583.58 L 4256.14 583.58 L 4256.14 2251.07 L 612.38 2251.07 L 612.38 583.58 Z  M 1858.069 982.55 L 1858.069 1868.75 L 2142.91 1868.75 L 2142.91 982.55 L 1858.069 982.55 L 1858.069 982.55 L 1858.069 982.55 Z  M 2320.15 982.55 L 2320.15 1868.75 L 2611.32 1868.75 L 2611.32 1509.52 L 2889.839 1868.75 L 3226.61 1868.75 L 2862 1397.799 L 3207.62 982.55 L 2883.51 982.55 L 2611.32 1310.556 L 2611.32 982.55 L 2320.15 982.55 L 2320.15 982.55 L 2320.15 982.55 Z  M 3308.88 982.55 L 3308.88 1868.75 L 3574.74 1868.75 L 3948.21 1868.75 L 3948.21 1647.201 L 3574.74 1647.201 L 3574.74 1520.59 L 3922.879 1520.59 L 3922.879 1305.371 L 3574.74 1305.371 L 3574.74 1204.1 L 3948.21 1204.1 L 3948.21 982.55 L 3574.74 982.55 L 3308.88 982.55 L 3308.88 982.55 L 3308.88 982.55 Z  M 1214.94 1191.431 L 1284.56 1191.431 C 1316.63 1191.431 1340.05 1196.71 1354.83 1207.26 C 1369.6 1217.82 1376.99 1234.479 1376.99 1257.259 C 1376.99 1272.459 1373.621 1285.54 1366.871 1296.51 C 1360.121 1307.48 1349.98 1315.93 1336.48 1321.84 C 1322.98 1327.75 1305.66 1330.701 1284.57 1330.701 L 1214.94 1330.701 L 1214.94 1191.431 L 1214.94 1191.431 L 1214.94 1191.431 Z  M 1214.94 1514.25 L 1309.9 1514.25 C 1325.93 1514.25 1340.9 1515.09 1354.84 1516.78 C 1368.76 1518.47 1381.21 1521.639 1392.18 1526.279 C 1403.15 1530.939 1411.8 1537.69 1418.13 1546.55 C 1424.46 1555.41 1427.629 1567.02 1427.629 1581.36 C 1427.629 1604.99 1422.13 1622.3 1411.16 1633.27 C 1400.19 1644.24 1385.83 1651.42 1368.11 1654.79 C 1350.39 1658.16 1330.98 1659.85 1309.89 1659.85 L 1214.94 1659.85 L 1214.94 1514.25 L 1214.94 1514.25 L 1214.94 1514.25 Z  M 936.431 982.54 L 936.431 1868.741 L 1347.87 1868.741 C 1426.37 1868.741 1493.261 1860.719 1548.541 1844.69 C 1603.821 1828.66 1646.009 1802.91 1675.129 1767.46 C 1704.259 1732.02 1718.82 1684.75 1718.82 1625.66 C 1718.82 1578.41 1707.63 1538.12 1685.26 1504.77 C 1662.89 1471.42 1633.56 1444.2 1597.28 1423.11 C 1580.58 1413.403 1563.086 1404.96 1544.871 1397.663 C 1575.789 1381.593 1601.78 1361.659 1622.6 1337.66 C 1652.98 1302.63 1668.18 1260.23 1668.18 1210.43 C 1668.18 1159.79 1652.98 1117.59 1622.6 1083.82 C 1592.21 1050.07 1551.071 1024.75 1499.161 1007.87 C 1447.251 990.99 1388.38 982.54 1322.55 982.54 L 936.431 982.54 L 936.431 982.54 L 936.431 982.54 Z " fill-rule="evenodd" fill="rgb(129,202,159)" vector-effect="non-scaling-stroke" stroke-width="1" stroke="rgb(0,0,0)" stroke-linejoin="miter" stroke-linecap="butt" stroke-miterlimit="2"/><path d=" M 5301.23 944.81 L 5079.201 1388.89 L 4947.431 987.51 L 4624.129 987.51 L 5014.54 1896.42 L 5301.23 1471.86 L 5587.931 1896.42 L 5978.339 987.51 L 5655.04 987.51 L 5523.28 1388.89 L 5301.23 944.81 L 5301.23 944.81 Z  M 9124.241 1085.101 L 9124.241 1280.3 L 9020.54 1280.3 L 9020.54 1469.41 L 9124.241 1469.41 L 9124.241 1841.509 L 9349.94 1841.509 L 9349.94 1469.41 L 9453.65 1469.41 L 9453.65 1280.3 L 9349.94 1280.3 L 9349.94 1085.101 L 9124.241 1085.101 L 9124.241 1085.101 Z  M 6992.561 1265.66 C 6958.411 1265.66 6926.081 1276.041 6895.581 1296.771 C 6873.035 1312.109 6853.73 1331.357 6837.63 1354.465 L 6837.63 1280.31 L 6605.83 1280.31 L 6605.83 1841.509 L 6837.63 1841.509 L 6837.63 1603.6 C 6837.63 1576.77 6841.89 1554.81 6850.44 1537.72 C 6858.97 1520.64 6870.171 1508.031 6883.991 1499.911 C 6897.811 1491.791 6911.641 1487.71 6925.471 1487.71 C 6941.731 1487.71 6955.561 1490.981 6966.951 1497.481 C 6978.331 1503.981 6987.69 1512.12 6995.01 1521.86 L 7091.391 1316.911 C 7084.061 1303.081 7070.84 1291.081 7051.73 1280.911 C 7032.61 1270.751 7012.891 1265.66 6992.561 1265.66 Z  M 10640.44 1265.66 C 10606.29 1265.66 10573.96 1276.041 10543.46 1296.771 C 10520.911 1312.112 10501.602 1331.364 10485.5 1354.478 L 10485.5 1280.31 L 10253.7 1280.31 L 10253.7 1841.509 L 10485.5 1841.509 L 10485.5 1603.575 L 10485.51 1603.6 C 10485.51 1576.77 10489.77 1554.81 10498.32 1537.72 C 10506.85 1520.64 10518.051 1508.031 10531.871 1499.911 C 10545.691 1491.791 10559.521 1487.71 10573.351 1487.71 C 10589.611 1487.71 10603.441 1490.981 10614.831 1497.481 C 10626.201 1503.981 10635.56 1512.12 10642.89 1521.86 L 10739.271 1316.911 C 10731.941 1303.081 10718.72 1291.081 10699.61 1280.911 C 10680.49 1270.751 10660.77 1265.66 10640.44 1265.66 Z  M 6184.08 1266.88 C 6119 1266.88 6060.839 1278.68 6009.609 1302.27 C 5958.359 1325.87 5918.11 1359.62 5888.83 1403.54 C 5859.55 1447.46 5844.91 1499.91 5844.91 1560.92 C 5844.91 1621.11 5859.55 1673.17 5888.83 1717.08 C 5918.11 1761.01 5958.359 1794.76 6009.609 1818.35 C 6060.849 1841.93 6119 1853.731 6184.08 1853.731 C 6249.14 1853.731 6307.279 1841.93 6358.529 1818.35 C 6409.759 1794.75 6450.03 1761 6479.31 1717.08 C 6508.59 1673.17 6523.231 1621.11 6523.231 1560.92 C 6523.231 1499.92 6508.59 1447.47 6479.31 1403.54 C 6450.03 1359.61 6409.759 1325.86 6358.529 1302.27 C 6307.279 1278.68 6249.14 1266.88 6184.08 1266.88 Z  M 7434.311 1268.07 C 7367.611 1268.07 7308.24 1279.871 7256.19 1303.46 C 7204.13 1327.06 7163.27 1360.6 7133.58 1404.12 C 7103.89 1447.64 7089.05 1499.891 7089.05 1560.891 C 7089.05 1621.081 7103.89 1673.14 7133.58 1717.05 C 7163.27 1760.98 7204.13 1794.729 7256.19 1818.319 C 7308.23 1841.899 7367.611 1853.7 7434.311 1853.7 C 7479.031 1853.7 7513.8 1850.031 7538.61 1842.721 C 7563.42 1835.411 7585.58 1826.46 7605.11 1815.88 L 7605.11 1601.161 C 7592.91 1618.251 7578.68 1632.081 7562.41 1642.641 C 7546.15 1653.221 7529.271 1660.951 7511.791 1665.831 C 7494.291 1670.701 7476.61 1673.14 7458.73 1673.14 C 7436.77 1673.14 7416.219 1668.88 7397.109 1660.33 C 7377.999 1651.8 7362.749 1639.19 7351.359 1622.52 C 7339.969 1605.85 7334.291 1585.321 7334.271 1560.891 C 7334.271 1539.751 7339.961 1520.85 7351.351 1504.16 C 7362.741 1487.48 7377.991 1474.06 7397.101 1463.89 C 7416.201 1453.73 7436.751 1448.64 7458.721 1448.64 C 7472.531 1448.64 7488.39 1450.89 7506.3 1455.36 C 7524.19 1459.83 7542.081 1467.15 7559.971 1477.31 C 7577.861 1487.48 7592.91 1501.51 7605.11 1519.4 L 7605.11 1303.46 C 7585.58 1294.521 7563.42 1286.38 7538.61 1279.05 C 7513.79 1271.74 7479.031 1268.07 7434.311 1268.07 Z  M 8021.9 1268.101 C 7950.321 1268.101 7889.32 1279.69 7838.9 1302.88 C 7788.46 1326.07 7749.84 1359.421 7722.99 1402.931 C 7696.14 1446.441 7682.72 1499.1 7682.72 1560.91 C 7682.72 1621.91 7696.75 1674.18 7724.81 1717.68 C 7752.87 1761.2 7793.12 1794.75 7845.59 1818.34 C 7898.04 1841.91 7960.87 1853.71 8034.1 1853.7 C 8112.18 1853.7 8177.85 1838.86 8231.13 1809.17 C 8284.41 1779.48 8326.1 1734.55 8356.19 1674.36 L 8139.021 1640.2 C 8129.261 1658.11 8114.62 1671.73 8095.1 1681.08 C 8075.58 1690.43 8051.191 1695.1 8021.911 1695.1 C 7999.941 1695.1 7981.42 1689.82 7966.39 1679.24 C 7951.34 1668.68 7939.95 1653.43 7932.23 1633.49 C 7929.377 1626.147 7927.116 1618.213 7925.427 1609.71 L 8345.2 1609.71 C 8346.83 1600.77 8347.641 1591.21 8347.641 1581.04 L 8347.641 1549.931 C 8347.641 1488.931 8335.23 1437.491 8310.42 1395.601 C 8285.6 1353.721 8249.01 1322 8200.62 1300.44 C 8152.23 1278.88 8092.65 1268.101 8021.9 1268.101 Z  M 9850.51 1268.101 C 9778.93 1268.101 9717.93 1279.69 9667.51 1302.88 C 9617.07 1326.07 9578.45 1359.421 9551.6 1402.931 C 9524.75 1446.441 9511.33 1499.1 9511.33 1560.91 C 9511.33 1621.91 9525.36 1674.18 9553.419 1717.68 C 9581.479 1761.2 9621.73 1794.75 9674.2 1818.34 C 9726.65 1841.91 9789.48 1853.71 9862.71 1853.7 C 9940.789 1853.7 10006.46 1838.86 10059.74 1809.17 C 10113.02 1779.48 10154.709 1734.55 10184.799 1674.36 L 9967.63 1640.2 C 9957.87 1658.11 9943.23 1671.73 9923.71 1681.08 C 9904.19 1690.43 9879.801 1695.1 9850.521 1695.1 C 9828.551 1695.1 9810.03 1689.82 9795 1679.24 C 9779.95 1668.68 9768.56 1653.43 9760.84 1633.49 C 9757.987 1626.147 9755.726 1618.213 9754.037 1609.71 L 10173.81 1609.71 C 10175.44 1600.77 10176.25 1591.21 10176.25 1581.04 L 10176.25 1549.931 C 10176.25 1488.931 10163.84 1437.491 10139.03 1395.601 C 10114.21 1353.721 10077.62 1322 10029.23 1300.44 C 9980.84 1278.88 9921.26 1268.101 9850.51 1268.101 Z  M 8670.46 1268.109 C 8624.09 1268.109 8584.04 1274.63 8550.29 1287.64 C 8516.54 1300.65 8490.3 1319.561 8471.6 1344.371 C 8452.88 1369.191 8443.54 1399.059 8443.54 1434.029 C 8443.54 1471.459 8450.85 1501.96 8465.49 1525.55 C 8480.13 1549.14 8499.44 1567.64 8523.44 1581.05 C 8547.439 1594.48 8573.251 1605.661 8600.911 1614.601 C 8635.881 1625.171 8661.5 1633.92 8677.77 1640.83 C 8694.04 1647.75 8704.41 1654.06 8708.88 1659.75 C 8713.35 1665.44 8715.601 1671.94 8715.601 1679.25 C 8715.601 1687.39 8712.94 1694.11 8707.66 1699.39 C 8702.38 1704.67 8693.22 1707.311 8680.22 1707.311 C 8673.7 1707.311 8661.7 1705.68 8644.22 1702.43 C 8626.74 1699.18 8603.97 1691.259 8575.91 1678.649 C 8547.84 1666.039 8514.279 1645.9 8475.259 1618.26 L 8398.4 1785.4 C 8432.55 1803.31 8466.719 1818.76 8500.879 1831.78 C 8535.039 1844.78 8570.821 1854.75 8608.241 1861.67 C 8645.641 1868.56 8685.5 1872.029 8727.8 1872.029 C 8800.18 1872.029 8855.49 1857.18 8893.71 1827.5 C 8931.929 1797.82 8951.049 1749.63 8951.049 1682.94 C 8951.049 1647.15 8943.72 1618.689 8929.1 1597.529 C 8914.46 1576.389 8895.35 1559.309 8871.76 1546.299 C 8848.17 1533.289 8822.96 1521.9 8796.12 1512.13 C 8763.59 1499.94 8737.35 1490.99 8717.43 1485.3 C 8697.49 1479.61 8682.85 1473.699 8673.51 1467.609 C 8664.15 1461.509 8659.48 1453.17 8659.48 1442.59 C 8659.48 1436.9 8661.911 1431.61 8666.791 1426.73 C 8671.671 1421.85 8681.43 1419.4 8696.09 1419.4 C 8718.86 1419.4 8747.53 1426.52 8782.09 1440.76 C 8816.65 1455 8847.76 1473.901 8875.419 1497.481 L 8933.98 1335.23 C 8906.33 1322.23 8878.69 1310.84 8851.03 1301.07 C 8823.37 1291.32 8794.901 1283.381 8765.621 1277.271 C 8736.341 1271.171 8704.62 1268.109 8670.46 1268.109 Z  M 8015.791 1414.5 C 8032.051 1414.5 8046.08 1418.171 8057.88 1425.481 C 8069.66 1432.791 8078.819 1443.37 8085.319 1457.2 C 8090.414 1468.04 8093.453 1480.686 8094.56 1495.02 L 7927.282 1495.02 C 7928.514 1488.722 7929.947 1482.813 7931.6 1477.33 C 7938.1 1455.78 7948.27 1439.921 7962.1 1429.751 C 7975.93 1419.591 7993.821 1414.5 8015.791 1414.5 Z  M 9844.4 1414.5 C 9860.66 1414.5 9874.69 1418.171 9886.49 1425.481 C 9898.27 1432.791 9907.431 1443.37 9913.931 1457.2 C 9919.025 1468.04 9922.063 1480.686 9923.169 1495.02 L 9755.892 1495.02 C 9757.124 1488.722 9758.557 1482.813 9760.21 1477.33 C 9766.71 1455.78 9776.88 1439.921 9790.71 1429.751 C 9804.54 1419.591 9822.43 1414.5 9844.4 1414.5 Z  M 6184.09 1456.001 C 6200.34 1456.001 6215.589 1460.07 6229.819 1468.2 C 6244.049 1476.33 6255.651 1488.13 6264.601 1503.58 C 6273.541 1519.03 6278.02 1538.14 6278.02 1560.92 C 6278.02 1583.7 6273.541 1602.81 6264.601 1618.26 C 6255.651 1633.72 6244.049 1645.309 6229.819 1653.029 C 6215.589 1660.749 6200.34 1664.61 6184.09 1664.61 C 6167.8 1664.61 6152.559 1660.749 6138.319 1653.029 C 6124.079 1645.309 6112.49 1633.71 6103.55 1618.26 C 6094.59 1602.8 6090.13 1583.7 6090.13 1560.92 C 6090.13 1538.14 6094.6 1519.03 6103.55 1503.58 C 6112.49 1488.12 6124.079 1476.32 6138.319 1468.2 C 6152.559 1460.08 6167.81 1456.001 6184.09 1456.001 Z " fill="rgb(255,255,255)"/></g></svg>