<?xml version="1.0" encoding="utf-8"?>
<!-- Generator: Adobe Illustrator 28.1.0, SVG Export Plug-In . SVG Version: 6.00 Build 0)  -->
<svg version="1.1" id="Layer_1" xmlns="http://www.w3.org/2000/svg" xmlns:xlink="http://www.w3.org/1999/xlink" x="0px" y="0px"
	 viewBox="0 0 11244.88 2834.65" style="enable-background:new 0 0 11244.88 2834.65;" xml:space="preserve">
<style type="text/css">
	.st0{fill:#3E5062;stroke:#000000;stroke-miterlimit:10;}
	.st1{fill:#81CA9F;stroke:#000000;stroke-miterlimit:10;}
	.st2{fill:#3E5062;}
	.st3{fill:#FFFFFF;}
</style>
<rect class="st0" width="11245.29" height="2834.65"/>
<rect x="612.38" y="583.58" class="st1" width="3643.76" height="1667.49"/>
<g>
	<g>
		<path class="st2" d="M1141.52,1330.7h143.05c21.09,0,38.41-2.95,51.91-8.86s23.64-14.36,30.39-25.33s10.12-24.05,10.12-39.25
			c0-22.78-7.39-39.44-22.16-50c-14.78-10.55-38.2-15.83-70.27-15.83h-69.62v468.42h94.95c21.09,0,40.5-1.69,58.22-5.06
			s32.08-10.55,43.05-21.52s16.47-28.28,16.47-51.91c0-14.34-3.17-25.95-9.5-34.81s-14.98-15.61-25.95-20.27
			c-10.97-4.64-23.42-7.81-37.34-9.5c-13.94-1.69-28.91-2.53-44.94-2.53h-168.37v-151.92h206.34c43.05,0,86.3,4.86,129.77,14.56
			c43.47,9.72,83.34,25.12,119.64,46.22c36.28,21.09,65.61,48.31,87.98,81.66s33.56,73.64,33.56,120.89
			c0,59.09-14.56,106.36-43.69,141.8c-29.12,35.45-71.31,61.2-126.59,77.23s-122.17,24.05-200.67,24.05H936.43v-886.2h386.12
			c65.83,0,124.7,8.45,176.61,25.33s93.05,42.2,123.44,75.95c30.38,33.77,45.58,75.97,45.58,126.61c0,49.8-15.2,92.2-45.58,127.23
			c-30.39,35.03-71.53,61.61-123.44,79.75c-51.91,18.16-110.78,27.22-176.61,27.22h-181.03V1330.7z"/>
		<path class="st2" d="M2142.91,982.55v886.2h-284.84v-886.2H2142.91z"/>
		<path class="st2" d="M2611.32,982.55v886.2h-291.17v-886.2H2611.32z M3207.62,982.55l-345.62,415.25l364.61,470.95h-336.77
			l-358.27-462.09l351.94-424.11H3207.62z"/>
		<path class="st2" d="M3574.74,982.55v886.2h-265.86v-886.2H3574.74z M3501.3,982.55h446.91v221.55H3501.3V982.55z M3501.3,1305.37
			h421.58v215.22H3501.3V1305.37z M3501.3,1647.2h446.91v221.55H3501.3V1647.2z"/>
	</g>
</g>
<g>
	<g>
		<path class="st3" d="M5605.04,987.51h323.3l-390.41,908.91l-286.7-424.56l-286.69,424.56l-390.41-908.91h323.3l131.77,401.38
			l222.03-444.08l222.05,444.08L5605.04,987.51z"/>
		<path class="st3" d="M6008.83,1403.54c29.28-43.92,69.53-77.67,120.78-101.27c51.23-23.59,109.39-35.39,174.47-35.39
			c65.06,0,123.2,11.8,174.45,35.39c51.23,23.59,91.5,57.34,120.78,101.27s43.92,96.38,43.92,157.38
			c0,60.19-14.64,112.25-43.92,156.16c-29.28,43.92-69.55,77.67-120.78,101.27c-51.25,23.58-109.39,35.38-174.45,35.38
			c-65.08,0-123.23-11.8-174.47-35.38c-51.25-23.59-91.5-57.34-120.78-101.27c-29.28-43.91-43.92-95.97-43.92-156.16
			C5964.91,1499.91,5979.55,1447.46,6008.83,1403.54z M6223.55,1618.26c8.94,15.45,20.53,27.05,34.77,34.77s29.48,11.58,45.77,11.58
			c16.25,0,31.5-3.86,45.73-11.58s25.83-19.31,34.78-34.77c8.94-15.45,13.42-34.56,13.42-57.34s-4.48-41.89-13.42-57.34
			c-8.95-15.45-20.55-27.25-34.78-35.38s-29.48-12.2-45.73-12.2c-16.28,0-31.53,4.08-45.77,12.2s-25.83,19.92-34.77,35.38
			c-8.95,15.45-13.42,34.56-13.42,57.34S6214.59,1602.8,6223.55,1618.26z"/>
		<path class="st3" d="M6972.63,1841.51h-231.8v-561.2h231.8V1841.51z M7101.95,1497.48c-11.39-6.5-25.22-9.77-41.48-9.77
			c-13.83,0-27.66,4.08-41.48,12.2s-25.02,20.73-33.55,37.81c-8.55,17.09-12.81,39.05-12.81,65.88l-43.92-103.69
			c0-44.73,9.34-84.59,28.06-119.56c18.7-34.97,43.31-62.83,73.81-83.58c30.5-20.73,62.83-31.11,96.98-31.11
			c20.33,0,40.05,5.09,59.17,15.25c19.11,10.17,32.33,22.17,39.66,36l-96.38,204.95
			C7122.69,1512.12,7113.33,1503.98,7101.95,1497.48z"/>
		<path class="st3" d="M7531.36,1622.52c11.39,16.67,26.64,29.28,45.75,37.81c19.11,8.55,39.66,12.81,61.62,12.81
			c17.88,0,35.56-2.44,53.06-7.31c17.48-4.88,34.36-12.61,50.62-23.19c16.27-10.56,30.5-24.39,42.7-41.48v214.72
			c-19.53,10.58-41.69,19.53-66.5,26.84s-59.58,10.98-104.3,10.98c-66.7,0-126.08-11.8-178.12-35.38
			c-52.06-23.59-92.92-57.34-122.61-101.27c-29.69-43.91-44.53-95.97-44.53-156.16c0-61,14.84-113.25,44.53-156.77
			s70.55-77.06,122.61-100.66c52.05-23.59,111.42-35.39,178.12-35.39c44.72,0,79.48,3.67,104.3,10.98
			c24.81,7.33,46.97,15.47,66.5,24.41v215.94c-12.2-17.89-27.25-31.92-45.14-42.09c-17.89-10.16-35.78-17.48-53.67-21.95
			c-17.91-4.47-33.77-6.72-47.58-6.72c-21.97,0-42.52,5.09-61.62,15.25c-19.11,10.17-34.36,23.59-45.75,40.27
			c-11.39,16.69-17.08,35.59-17.08,56.73C7514.29,1585.32,7519.97,1605.85,7531.36,1622.52z"/>
		<path class="st3" d="M8045.59,1818.34c-52.47-23.59-92.72-57.14-120.78-100.66c-28.06-43.5-42.09-95.77-42.09-156.77
			c0-61.81,13.42-114.47,40.27-157.98s65.47-76.86,115.91-100.05c50.42-23.19,111.42-34.78,183-34.78
			c70.75,0,130.33,10.78,178.72,32.34s84.98,53.28,109.8,95.16c24.81,41.89,37.22,93.33,37.22,154.33c0,10.58,0,20.95,0,31.11
			c0,10.17-0.81,19.73-2.44,28.67h-533.14v-114.69h312.31l-46.36,56.12c4.88-7.31,8.95-15.05,12.2-23.17s4.88-15.05,4.88-20.75
			c0-19.52-3.27-36.19-9.77-50.02s-15.66-24.41-27.44-31.72c-11.8-7.31-25.83-10.98-42.09-10.98c-21.97,0-39.86,5.09-53.69,15.25
			c-13.83,10.17-24,26.03-30.5,47.58c-6.5,21.56-9.75,49.42-9.75,83.58c-0.81,28.47,2.64,52.66,10.38,72.58
			c7.72,19.94,19.11,35.19,34.16,45.75c15.03,10.58,33.55,15.86,55.52,15.86c29.28,0,53.67-4.67,73.19-14.02
			s34.16-22.97,43.92-40.88l217.17,34.16c-30.09,60.19-71.78,105.12-125.06,134.81s-118.95,44.53-197.03,44.53
			C8160.87,1853.71,8098.04,1841.91,8045.59,1818.34z"/>
		<path class="st3" d="M8784.91,1678.65c28.06,12.61,50.83,20.53,68.31,23.78s29.48,4.88,36,4.88c13,0,22.16-2.64,27.44-7.92
			s7.94-12,7.94-20.14c0-7.31-2.25-13.81-6.72-19.5s-14.84-12-31.11-18.92c-16.27-6.91-41.89-15.66-76.86-26.23
			c-27.66-8.94-53.47-20.12-77.47-33.55c-24-13.41-43.31-31.91-57.95-55.5s-21.95-54.09-21.95-91.52c0-34.97,9.34-64.84,28.06-89.66
			c18.7-24.81,44.94-43.72,78.69-56.73s73.8-19.53,120.17-19.53c34.16,0,65.88,3.06,95.16,9.16c29.28,6.11,57.75,14.05,85.41,23.8
			c27.66,9.77,55.3,21.16,82.95,34.16l-58.56,162.25c-27.66-23.58-58.77-42.48-93.33-56.72s-63.23-21.36-86-21.36
			c-14.66,0-24.42,2.45-29.3,7.33s-7.31,10.17-7.31,15.86c0,10.58,4.67,18.92,14.03,25.02c9.34,6.09,23.98,12,43.92,17.69
			c19.92,5.69,46.16,14.64,78.69,26.83c26.84,9.77,52.05,21.16,75.64,34.17s42.7,30.09,57.34,51.23
			c14.62,21.16,21.95,49.62,21.95,85.41c0,66.69-19.12,114.88-57.34,144.56s-93.53,44.53-165.91,44.53
			c-42.3,0-82.16-3.47-119.56-10.36c-37.42-6.92-73.2-16.89-107.36-29.89c-34.16-13.02-68.33-28.47-102.48-46.38l76.86-167.14
			C8723.28,1645.9,8756.84,1666.04,8784.91,1678.65z"/>
		<path class="st3" d="M9623.65,1280.3v189.11h-433.11V1280.3H9623.65z M9519.94,1085.1v756.41h-225.7V1085.1H9519.94z"/>
		<path class="st3" d="M9829.2,1818.34c-52.47-23.59-92.72-57.14-120.78-100.66c-28.06-43.5-42.09-95.77-42.09-156.77
			c0-61.81,13.42-114.47,40.27-157.98s65.47-76.86,115.91-100.05c50.42-23.19,111.42-34.78,183-34.78
			c70.75,0,130.33,10.78,178.72,32.34s84.98,53.28,109.8,95.16c24.81,41.89,37.22,93.33,37.22,154.33c0,10.58,0,20.95,0,31.11
			c0,10.17-0.81,19.73-2.44,28.67h-533.14v-114.69h312.31l-46.36,56.12c4.88-7.31,8.95-15.05,12.2-23.17s4.88-15.05,4.88-20.75
			c0-19.52-3.27-36.19-9.77-50.02s-15.66-24.41-27.44-31.72c-11.8-7.31-25.83-10.98-42.09-10.98c-21.97,0-39.86,5.09-53.69,15.25
			c-13.83,10.17-24,26.03-30.5,47.58c-6.5,21.56-9.75,49.42-9.75,83.58c-0.81,28.47,2.64,52.66,10.38,72.58
			c7.72,19.94,19.11,35.19,34.16,45.75c15.03,10.58,33.55,15.86,55.52,15.86c29.28,0,53.67-4.67,73.19-14.02
			s34.16-22.97,43.92-40.88l217.17,34.16c-30.09,60.19-71.78,105.12-125.06,134.81s-118.95,44.53-197.03,44.53
			C9944.48,1853.71,9881.65,1841.91,9829.2,1818.34z"/>
		<path class="st3" d="M10665.5,1841.51h-231.8v-561.2h231.8V1841.51z M10794.83,1497.48c-11.39-6.5-25.22-9.77-41.48-9.77
			c-13.83,0-27.66,4.08-41.48,12.2s-25.02,20.73-33.55,37.81c-8.55,17.09-12.81,39.05-12.81,65.88l-43.92-103.69
			c0-44.73,9.34-84.59,28.06-119.56c18.7-34.97,43.31-62.83,73.81-83.58c30.5-20.73,62.83-31.11,96.98-31.11
			c20.33,0,40.05,5.09,59.17,15.25c19.11,10.17,32.33,22.17,39.66,36l-96.38,204.95
			C10815.56,1512.12,10806.2,1503.98,10794.83,1497.48z"/>
	</g>
</g>
</svg>
