<?xml version="1.0" encoding="UTF-8" standalone="no"?><!-- Generator: Gravit.io --><svg xmlns="http://www.w3.org/2000/svg" xmlns:xlink="http://www.w3.org/1999/xlink" style="isolation:isolate" viewBox="0 0 2834.65 2834.65" width="2834.65pt" height="2834.65pt"><defs><clipPath id="_clipPath_F52EcBllHyizWGHu5HfiZ136n6nywFTC"><rect width="2834.65" height="2834.65"/></clipPath></defs><g clip-path="url(#_clipPath_F52EcBllHyizWGHu5HfiZ136n6nywFTC)"><rect x="0" y="0" width="2834.65" height="2834.65" transform="matrix(1,0,0,1,0,0)" fill="rgb(62,80,98)"/><path d=" M 251.67 657.04 L 2611.67 657.04 L 2611.67 1737.044 L 251.67 1737.044 L 251.67 657.04 Z  M 1058.481 915.446 L 1058.481 1489.422 L 1242.967 1489.422 L 1242.967 915.446 L 1058.481 915.446 L 1058.481 915.446 L 1058.481 915.446 Z  M 1357.763 915.446 L 1357.763 1489.422 L 1546.349 1489.422 L 1546.349 1256.755 L 1726.741 1489.422 L 1944.861 1489.422 L 1708.71 1184.396 L 1932.562 915.446 L 1722.641 915.446 L 1546.349 1127.89 L 1546.349 915.446 L 1357.763 915.446 L 1357.763 915.446 L 1357.763 915.446 Z  M 1998.146 915.446 L 1998.146 1489.422 L 2170.339 1489.422 L 2412.229 1489.422 L 2412.229 1345.929 L 2170.339 1345.929 L 2170.339 1263.925 L 2395.823 1263.925 L 2395.823 1124.531 L 2170.339 1124.531 L 2170.339 1058.94 L 2412.229 1058.94 L 2412.229 915.446 L 2170.339 915.446 L 1998.146 915.446 L 1998.146 915.446 L 1998.146 915.446 Z  M 641.938 1050.734 L 687.029 1050.734 C 707.8 1050.734 722.969 1054.154 732.542 1060.987 C 742.108 1067.826 746.894 1078.616 746.894 1093.37 C 746.894 1103.215 744.712 1111.687 740.34 1118.792 C 735.969 1125.897 729.4 1131.37 720.657 1135.198 C 711.913 1139.026 700.695 1140.937 687.036 1140.937 L 641.938 1140.937 L 641.938 1050.734 L 641.938 1050.734 L 641.938 1050.734 Z  M 641.938 1259.819 L 703.441 1259.819 C 713.824 1259.819 723.52 1260.363 732.548 1261.457 C 741.564 1262.552 749.628 1264.605 756.733 1267.61 C 763.838 1270.628 769.44 1275 773.54 1280.739 C 777.64 1286.477 779.693 1293.997 779.693 1303.285 C 779.693 1318.59 776.131 1329.801 769.026 1336.906 C 761.921 1344.011 752.62 1348.661 741.143 1350.844 C 729.666 1353.027 717.094 1354.121 703.435 1354.121 L 641.938 1354.121 L 641.938 1259.819 L 641.938 1259.819 L 641.938 1259.819 Z  M 461.552 915.439 L 461.552 1489.416 L 728.034 1489.416 C 778.877 1489.416 822.201 1484.221 858.005 1473.839 C 893.809 1463.456 921.134 1446.779 939.994 1423.818 C 958.861 1400.865 968.292 1370.249 968.292 1331.977 C 968.292 1301.374 961.045 1275.279 946.556 1253.678 C 932.067 1232.078 913.071 1214.449 889.573 1200.789 C 878.756 1194.502 867.426 1189.033 855.628 1184.307 C 875.653 1173.899 892.487 1160.988 905.972 1145.445 C 925.649 1122.756 935.493 1095.294 935.493 1063.04 C 935.493 1030.241 925.649 1002.909 905.972 981.037 C 886.289 959.178 859.644 942.778 826.022 931.845 C 792.401 920.912 754.272 915.439 711.635 915.439 L 461.552 915.439 L 461.552 915.439 L 461.552 915.439 Z " fill-rule="evenodd" fill="rgb(129,202,159)" vector-effect="non-scaling-stroke" stroke-width="1" stroke="rgb(0,0,0)" stroke-linejoin="miter" stroke-linecap="butt" stroke-miterlimit="2"/><path d=" M 501.076 1818.03 L 414.023 1992.144 L 362.359 1834.772 L 235.6 1834.772 L 388.671 2191.135 L 501.076 2024.675 L 613.485 2191.135 L 766.555 1834.772 L 639.797 1834.772 L 588.137 1992.144 L 501.076 1818.03 Z  M 1999.992 1873.035 L 1999.992 1949.568 L 1959.334 1949.568 L 1959.334 2023.714 L 1999.992 2023.714 L 1999.992 2169.606 L 2088.484 2169.606 L 2088.484 2023.714 L 2129.147 2023.714 L 2129.147 1949.568 L 2088.484 1949.568 L 2088.484 1873.035 L 1999.992 1873.035 Z  M 1164.209 1943.828 C 1150.819 1943.828 1138.143 1947.898 1126.185 1956.026 C 1117.345 1962.04 1109.777 1969.587 1103.464 1978.647 L 1103.464 1949.572 L 1012.58 1949.572 L 1012.58 2169.606 L 1103.464 2169.606 L 1103.464 2076.327 C 1103.464 2065.807 1105.134 2057.197 1108.486 2050.497 C 1111.831 2043.8 1116.222 2038.856 1121.641 2035.673 C 1127.059 2032.489 1132.482 2030.889 1137.904 2030.889 C 1144.279 2030.889 1149.702 2032.171 1154.168 2034.72 C 1158.629 2037.268 1162.299 2040.46 1165.169 2044.278 L 1202.958 1963.923 C 1200.084 1958.5 1194.9 1953.795 1187.408 1949.808 C 1179.911 1945.824 1172.18 1943.828 1164.209 1943.828 Z  M 2594.461 1943.828 C 2581.071 1943.828 2568.395 1947.898 2556.437 1956.026 C 2547.596 1962.041 2540.025 1969.589 2533.712 1978.652 L 2533.712 1949.572 L 2442.828 1949.572 L 2442.828 2169.606 L 2533.712 2169.606 L 2533.712 2076.317 L 2533.716 2076.327 C 2533.716 2065.807 2535.386 2057.197 2538.738 2050.497 C 2542.083 2043.8 2546.474 2038.856 2551.893 2035.673 C 2557.312 2032.489 2562.734 2030.889 2568.156 2030.889 C 2574.532 2030.889 2579.954 2032.171 2584.42 2034.72 C 2588.878 2037.268 2592.547 2040.46 2595.421 2044.278 L 2633.21 1963.923 C 2630.336 1958.5 2625.152 1953.795 2617.66 1949.808 C 2610.163 1945.824 2602.431 1943.828 2594.461 1943.828 Z  M 847.221 1944.307 C 821.705 1944.307 798.902 1948.933 778.816 1958.182 C 758.722 1967.435 742.941 1980.668 731.461 1997.888 C 719.981 2015.108 714.241 2035.672 714.241 2059.593 C 714.241 2083.192 719.981 2103.604 731.461 2120.82 C 742.941 2138.044 758.722 2151.277 778.816 2160.526 C 798.906 2169.771 821.705 2174.398 847.221 2174.398 C 872.73 2174.398 895.525 2169.771 915.619 2160.526 C 935.705 2151.273 951.495 2138.04 962.975 2120.82 C 974.455 2103.604 980.195 2083.192 980.195 2059.593 C 980.195 2035.676 974.455 2015.112 962.975 1997.888 C 951.495 1980.664 935.705 1967.431 915.619 1958.182 C 895.525 1948.933 872.73 1944.307 847.221 1944.307 Z  M 1337.409 1944.773 C 1311.258 1944.773 1287.979 1949.4 1267.572 1958.649 C 1247.16 1967.902 1231.14 1981.052 1219.499 1998.115 C 1207.858 2015.179 1202.04 2035.665 1202.04 2059.582 C 1202.04 2083.181 1207.858 2103.592 1219.499 2120.808 C 1231.14 2138.032 1247.16 2151.265 1267.572 2160.514 C 1287.976 2169.759 1311.258 2174.385 1337.409 2174.385 C 1354.943 2174.385 1368.575 2172.947 1378.303 2170.081 C 1388.03 2167.215 1396.718 2163.706 1404.376 2159.557 L 1404.376 2075.371 C 1399.592 2082.071 1394.013 2087.494 1387.634 2091.634 C 1381.259 2095.782 1374.641 2098.813 1367.787 2100.726 C 1360.926 2102.636 1353.993 2103.592 1346.983 2103.592 C 1338.373 2103.592 1330.316 2101.922 1322.823 2098.57 C 1315.331 2095.225 1309.351 2090.281 1304.886 2083.745 C 1300.42 2077.209 1298.193 2069.16 1298.186 2059.582 C 1298.186 2051.293 1300.416 2043.883 1304.882 2037.339 C 1309.348 2030.799 1315.327 2025.537 1322.82 2021.55 C 1330.308 2017.566 1338.366 2015.57 1346.98 2015.57 C 1352.394 2015.57 1358.612 2016.453 1365.635 2018.206 C 1372.649 2019.958 1379.663 2022.828 1386.677 2026.811 C 1393.692 2030.799 1399.592 2036.3 1404.376 2043.314 L 1404.376 1958.649 C 1396.718 1955.144 1388.03 1951.952 1378.303 1949.078 C 1368.571 1946.212 1354.943 1944.773 1337.409 1944.773 Z  M 1567.79 1944.785 C 1539.725 1944.785 1515.808 1949.329 1496.04 1958.422 C 1476.263 1967.514 1461.121 1980.59 1450.594 1997.649 C 1440.066 2014.708 1434.805 2035.355 1434.805 2059.589 C 1434.805 2083.506 1440.305 2104 1451.307 2121.055 C 1462.309 2138.118 1478.09 2151.273 1498.663 2160.522 C 1519.227 2169.763 1543.861 2174.389 1572.573 2174.385 C 1603.186 2174.385 1628.934 2168.567 1649.824 2156.926 C 1670.714 2145.286 1687.059 2127.67 1698.857 2104.071 L 1613.71 2090.677 C 1609.883 2097.699 1604.143 2103.039 1596.49 2106.705 C 1588.836 2110.371 1579.274 2112.202 1567.794 2112.202 C 1559.18 2112.202 1551.918 2110.132 1546.025 2105.984 C 1540.125 2101.843 1535.659 2095.864 1532.632 2088.046 C 1531.513 2085.167 1530.627 2082.057 1529.965 2078.722 L 1694.548 2078.722 C 1695.187 2075.217 1695.505 2071.469 1695.505 2067.482 L 1695.505 2055.284 C 1695.505 2031.368 1690.639 2011.199 1680.912 1994.775 C 1671.181 1978.355 1656.834 1965.918 1637.862 1957.465 C 1618.889 1949.012 1595.529 1944.785 1567.79 1944.785 Z  M 2284.747 1944.785 C 2256.682 1944.785 2232.765 1949.329 2212.997 1958.422 C 2193.22 1967.514 2178.078 1980.59 2167.551 1997.649 C 2157.023 2014.708 2151.762 2035.355 2151.762 2059.589 C 2151.762 2083.506 2157.262 2104 2168.264 2121.055 C 2179.266 2138.118 2195.047 2151.273 2215.619 2160.522 C 2236.184 2169.763 2260.818 2174.389 2289.53 2174.385 C 2320.143 2174.385 2345.891 2168.567 2366.781 2156.926 C 2387.671 2145.286 2404.016 2127.67 2415.814 2104.071 L 2330.667 2090.677 C 2326.84 2097.699 2321.1 2103.039 2313.447 2106.705 C 2305.793 2110.371 2296.231 2112.202 2284.751 2112.202 C 2276.137 2112.202 2268.875 2110.132 2262.982 2105.984 C 2257.082 2101.843 2252.616 2095.864 2249.589 2088.046 C 2248.47 2085.167 2247.584 2082.057 2246.922 2078.722 L 2411.505 2078.722 C 2412.144 2075.217 2412.462 2071.469 2412.462 2067.482 L 2412.462 2055.284 C 2412.462 2031.368 2407.596 2011.199 2397.869 1994.775 C 2388.137 1978.355 2373.791 1965.918 2354.819 1957.465 C 2335.846 1949.012 2312.486 1944.785 2284.747 1944.785 Z  M 1822.075 1944.789 C 1803.895 1944.789 1788.192 1947.345 1774.959 1952.446 C 1761.727 1957.547 1751.439 1964.961 1744.107 1974.689 C 1736.767 1984.42 1733.105 1996.131 1733.105 2009.842 C 1733.105 2024.518 1735.971 2036.476 1741.711 2045.725 C 1747.451 2054.974 1755.022 2062.228 1764.432 2067.486 C 1773.842 2072.751 1783.962 2077.135 1794.806 2080.64 C 1808.518 2084.784 1818.562 2088.215 1824.941 2090.924 C 1831.32 2093.637 1835.387 2096.111 1837.139 2098.342 C 1838.891 2100.573 1839.774 2103.122 1839.774 2105.988 C 1839.774 2109.179 1838.731 2111.814 1836.661 2113.884 C 1834.59 2115.954 1830.999 2116.99 1825.902 2116.99 C 1823.346 2116.99 1818.641 2116.35 1811.787 2115.076 C 1804.934 2113.802 1796.006 2110.696 1785.005 2105.752 C 1773.999 2100.808 1760.84 2092.912 1745.542 2082.075 L 1715.407 2147.607 C 1728.797 2154.629 1742.193 2160.686 1755.587 2165.791 C 1768.98 2170.888 1783.009 2174.797 1797.68 2177.51 C 1812.344 2180.212 1827.972 2181.572 1844.557 2181.572 C 1872.936 2181.572 1894.621 2175.75 1909.607 2164.113 C 1924.592 2152.476 1932.088 2133.582 1932.088 2107.434 C 1932.088 2093.402 1929.214 2082.243 1923.483 2073.947 C 1917.742 2065.658 1910.25 2058.962 1901.001 2053.861 C 1891.751 2048.76 1881.867 2044.294 1871.344 2040.464 C 1858.59 2035.684 1848.302 2032.175 1840.492 2029.944 C 1832.673 2027.713 1826.933 2025.396 1823.271 2023.008 C 1819.601 2020.616 1817.77 2017.347 1817.77 2013.199 C 1817.77 2010.968 1818.723 2008.894 1820.637 2006.98 C 1822.55 2005.067 1826.377 2004.106 1832.124 2004.106 C 1841.052 2004.106 1852.293 2006.898 1865.843 2012.481 C 1879.393 2018.064 1891.591 2025.475 1902.435 2034.72 L 1925.395 1971.105 C 1914.554 1966.008 1903.718 1961.542 1892.873 1957.712 C 1882.028 1953.889 1870.866 1950.776 1859.386 1948.381 C 1847.906 1945.989 1835.469 1944.789 1822.075 1944.789 Z  M 1565.394 2002.185 C 1571.769 2002.185 1577.27 2003.624 1581.896 2006.49 C 1586.515 2009.356 1590.106 2013.504 1592.655 2018.927 C 1594.652 2023.177 1595.844 2028.135 1596.278 2033.755 L 1530.692 2033.755 C 1531.175 2031.286 1531.737 2028.969 1532.385 2026.819 C 1534.934 2018.37 1538.921 2012.152 1544.343 2008.164 C 1549.766 2004.181 1556.78 2002.185 1565.394 2002.185 Z  M 2282.351 2002.185 C 2288.726 2002.185 2294.227 2003.624 2298.853 2006.49 C 2303.472 2009.356 2307.064 2013.504 2309.612 2018.927 C 2311.61 2023.177 2312.801 2028.135 2313.234 2033.755 L 2247.649 2033.755 C 2248.132 2031.286 2248.694 2028.969 2249.342 2026.819 C 2251.89 2018.37 2255.878 2012.152 2261.3 2008.164 C 2266.722 2004.181 2273.737 2002.185 2282.351 2002.185 Z  M 847.225 2018.457 C 853.597 2018.457 859.576 2020.052 865.155 2023.24 C 870.734 2026.427 875.283 2031.054 878.792 2037.111 C 882.297 2043.169 884.053 2050.662 884.053 2059.593 C 884.053 2068.525 882.297 2076.017 878.792 2082.075 C 875.283 2088.136 870.734 2092.68 865.155 2095.707 C 859.576 2098.734 853.597 2100.248 847.225 2100.248 C 840.839 2100.248 834.863 2098.734 829.28 2095.707 C 823.697 2092.68 819.153 2088.132 815.648 2082.075 C 812.135 2076.013 810.386 2068.525 810.386 2059.593 C 810.386 2050.662 812.138 2043.169 815.648 2037.111 C 819.153 2031.05 823.697 2026.423 829.28 2023.24 C 834.863 2020.056 840.843 2018.457 847.225 2018.457 Z " fill="rgb(255,255,255)"/></g></svg>