<?xml version="1.0" encoding="UTF-8" standalone="no"?><!-- Generator: Gravit.io --><svg xmlns="http://www.w3.org/2000/svg" xmlns:xlink="http://www.w3.org/1999/xlink" style="isolation:isolate" viewBox="0 0 595.28 841.89" width="595.28pt" height="841.89pt"><defs><clipPath id="_clipPath_EA1FnMxpinxyymIRvvZkosRs7hMJUC1v"><rect width="595.28" height="841.89"/></clipPath></defs><g clip-path="url(#_clipPath_EA1FnMxpinxyymIRvvZkosRs7hMJUC1v)"><path d=" M 0 4.389 L 595.276 4.389 L 595.276 841.89 L 0 841.89 L 0 4.389 Z " fill="rgb(28,28,28)"/><path d=" M 50.951 54.389 L 544.324 54.389 L 544.324 494.5 L 50.951 494.5 L 50.951 54.389 Z " fill="rgb(0,0,0)"/><path d=" M 91.611 92.167 L 501.526 92.167 L 501.526 279.334 L 91.611 279.334 L 91.611 92.167 Z " fill="rgb(28,28,28)"/><path d=" M 154.137 174.575 L 154.137 185.675 L 173.937 185.675 L 173.937 185.675 Q 184.737 185.675 193.137 182.675 L 193.137 182.675 L 193.137 182.675 Q 201.537 179.675 206.337 173.825 L 206.337 173.825 L 206.337 173.825 Q 211.137 167.975 211.137 159.575 L 211.137 159.575 L 211.137 159.575 Q 211.137 152.825 208.362 147.875 L 208.362 147.875 L 208.362 147.875 Q 205.587 142.925 200.712 139.55 L 200.712 139.55 L 200.712 139.55 Q 195.837 136.175 188.937 134.525 L 188.937 134.525 L 188.937 134.525 Q 182.037 132.875 173.937 132.875 L 173.937 132.875 L 135.387 132.875 L 135.387 237.875 L 176.337 237.875 L 176.337 237.875 Q 188.787 237.875 197.937 234.8 L 197.937 234.8 L 197.937 234.8 Q 207.087 231.725 212.112 225.275 L 212.112 225.275 L 212.112 225.275 Q 217.137 218.825 217.137 208.475 L 217.137 208.475 L 217.137 208.475 Q 217.137 200.375 213.687 194.675 L 213.687 194.675 L 213.687 194.675 Q 210.237 188.975 204.387 185.375 L 204.387 185.375 L 204.387 185.375 Q 198.537 181.775 191.262 180.125 L 191.262 180.125 L 191.262 180.125 Q 183.987 178.475 176.337 178.475 L 176.337 178.475 L 154.137 178.475 L 154.137 192.275 L 173.487 192.275 L 173.487 192.275 Q 177.087 192.275 180.312 192.95 L 180.312 192.95 L 180.312 192.95 Q 183.537 193.625 185.862 195.125 L 185.862 195.125 L 185.862 195.125 Q 188.187 196.625 189.537 198.95 L 189.537 198.95 L 189.537 198.95 Q 190.887 201.275 190.887 204.725 L 190.887 204.725 L 190.887 204.725 Q 190.887 209.675 188.562 212.675 L 188.562 212.675 L 188.562 212.675 Q 186.237 215.675 182.337 216.95 L 182.337 216.95 L 182.337 216.95 Q 178.437 218.225 173.487 218.225 L 173.487 218.225 L 160.587 218.225 L 160.587 152.525 L 171.087 152.525 L 171.087 152.525 Q 177.687 152.525 181.287 155.3 L 181.287 155.3 L 181.287 155.3 Q 184.887 158.075 184.887 163.325 L 184.887 163.325 L 184.887 163.325 Q 184.887 166.775 183.237 169.325 L 183.237 169.325 L 183.237 169.325 Q 181.587 171.875 178.512 173.225 L 178.512 173.225 L 178.512 173.225 Q 175.437 174.575 171.087 174.575 L 171.087 174.575 L 154.137 174.575 L 154.137 174.575 Z  M 260.787 132.875 L 235.137 132.875 L 235.137 237.875 L 260.787 237.875 L 260.787 132.875 L 260.787 132.875 Z  M 309.387 132.875 L 283.137 132.875 L 283.137 237.875 L 309.387 237.875 L 309.387 132.875 L 309.387 132.875 Z  M 374.787 132.875 L 344.937 132.875 L 301.887 182.825 L 346.287 237.875 L 377.037 237.875 L 332.187 182.075 L 374.787 132.875 L 374.787 132.875 Z  M 404.787 217.025 L 404.787 237.875 L 457.737 237.875 L 457.737 217.025 L 404.787 217.025 L 404.787 217.025 Z  M 404.787 132.875 L 404.787 153.725 L 457.737 153.725 L 457.737 132.875 L 404.787 132.875 L 404.787 132.875 Z  M 404.787 172.325 L 404.787 193.025 L 454.737 193.025 L 454.737 172.325 L 404.787 172.325 L 404.787 172.325 Z  M 412.437 132.875 L 388.137 132.875 L 388.137 237.875 L 412.437 237.875 L 412.437 132.875 L 412.437 132.875 Z " fill="rgb(0,0,0)"/><path d=" M 63.061 602.634 L 63.061 602.634 L 49.405 612.354 L 49.405 612.354 Q 52.067 618.372 57.043 623.174 L 57.043 623.174 L 57.043 623.174 Q 62.019 627.977 68.789 630.812 L 68.789 630.812 L 68.789 630.812 Q 75.559 633.647 83.428 633.647 L 83.428 633.647 L 83.428 633.647 Q 89.214 633.647 94.537 631.969 L 94.537 631.969 L 94.537 631.969 Q 99.86 630.291 104.2 627.051 L 104.2 627.051 L 104.2 627.051 Q 108.54 623.811 111.028 619.066 L 111.028 619.066 L 111.028 619.066 Q 113.516 614.322 113.516 608.073 L 113.516 608.073 L 113.516 608.073 Q 113.516 602.981 111.838 598.988 L 111.838 598.988 L 111.838 598.988 Q 110.16 594.996 107.325 591.987 L 107.325 591.987 L 107.325 591.987 Q 104.489 588.978 100.728 586.838 L 100.728 586.838 L 100.728 586.838 Q 96.967 584.697 92.686 583.077 L 92.686 583.077 L 92.686 583.077 Q 88.52 581.688 85.164 580.357 L 85.164 580.357 L 85.164 580.357 Q 81.808 579.026 79.551 577.695 L 79.551 577.695 L 79.551 577.695 Q 77.295 576.365 76.079 574.687 L 76.079 574.687 L 76.079 574.687 Q 74.864 573.009 74.864 570.81 L 74.864 570.81 L 74.864 570.81 Q 74.864 568.958 75.79 567.57 L 75.79 567.57 L 75.79 567.57 Q 76.716 566.181 78.625 565.429 L 78.625 565.429 L 78.625 565.429 Q 80.535 564.677 83.428 564.677 L 83.428 564.677 L 83.428 564.677 Q 86.437 564.677 89.156 565.776 L 89.156 565.776 L 89.156 565.776 Q 91.876 566.875 94.19 569.074 L 94.19 569.074 L 94.19 569.074 Q 96.504 571.273 98.125 574.166 L 98.125 574.166 L 113.053 565.834 L 113.053 565.834 Q 110.97 561.668 107.035 557.618 L 107.035 557.618 L 107.035 557.618 Q 103.101 553.567 97.199 550.906 L 97.199 550.906 L 97.199 550.906 Q 91.297 548.244 83.081 548.244 L 83.081 548.244 L 83.081 548.244 Q 75.327 548.244 68.847 551.021 L 68.847 551.021 L 68.847 551.021 Q 62.366 553.799 58.605 558.948 L 58.605 558.948 L 58.605 558.948 Q 54.844 564.098 54.844 571.389 L 54.844 571.389 L 54.844 571.389 Q 54.844 577.406 57.101 581.514 L 57.101 581.514 L 57.101 581.514 Q 59.358 585.622 62.714 588.573 L 62.714 588.573 L 62.714 588.573 Q 66.069 591.524 69.773 593.376 L 69.773 593.376 L 69.773 593.376 Q 73.476 595.227 76.484 596.385 L 76.484 596.385 L 76.484 596.385 Q 82.386 598.699 85.916 600.377 L 85.916 600.377 L 85.916 600.377 Q 89.445 602.055 91.008 604.022 L 91.008 604.022 L 91.008 604.022 Q 92.57 605.99 92.57 608.998 L 92.57 608.998 L 92.57 608.998 Q 92.57 611.429 91.355 613.222 L 91.355 613.222 L 91.355 613.222 Q 90.14 615.016 87.941 616 L 87.941 616 L 87.941 616 Q 85.742 616.983 82.849 616.983 L 82.849 616.983 L 82.849 616.983 Q 78.799 616.983 75.154 615.247 L 75.154 615.247 L 75.154 615.247 Q 71.508 613.512 68.5 610.271 L 68.5 610.271 L 68.5 610.271 Q 65.491 607.031 63.061 602.634 Z  M 118.492 550.096 L 118.492 567.685 L 140.595 567.685 L 140.595 631.101 L 160.268 631.101 L 160.268 567.685 L 182.486 567.685 L 182.486 550.096 L 118.492 550.096 L 118.492 550.096 Z  M 201.696 590.598 L 201.696 590.598 L 201.696 590.598 Q 201.696 585.16 203.316 580.704 L 203.316 580.704 L 203.316 580.704 Q 204.936 576.249 208.003 573.067 L 208.003 573.067 L 208.003 573.067 Q 211.07 569.884 215.294 568.033 L 215.294 568.033 L 215.294 568.033 Q 219.518 566.181 224.725 566.181 L 224.725 566.181 L 224.725 566.181 Q 229.933 566.181 234.156 568.033 L 234.156 568.033 L 234.156 568.033 Q 238.38 569.884 241.389 573.124 L 241.389 573.124 L 241.389 573.124 Q 244.398 576.365 245.902 580.762 L 245.902 580.762 L 245.902 580.762 Q 247.407 585.16 247.407 590.598 L 247.407 590.598 L 247.407 590.598 Q 247.407 595.922 245.787 600.435 L 245.787 600.435 L 245.787 600.435 Q 244.166 604.948 241.158 608.13 L 241.158 608.13 L 241.158 608.13 Q 238.149 611.313 233.983 613.164 L 233.983 613.164 L 233.983 613.164 Q 229.817 615.016 224.609 615.016 L 224.609 615.016 L 224.609 615.016 Q 219.518 615.016 215.294 613.164 L 215.294 613.164 L 215.294 613.164 Q 211.07 611.313 208.003 608.073 L 208.003 608.073 L 208.003 608.073 Q 204.936 604.832 203.316 600.377 L 203.316 600.377 L 203.316 600.377 Q 201.696 595.922 201.696 590.598 Z  M 181.098 590.598 L 181.098 590.598 L 181.098 590.598 Q 181.098 599.972 184.222 607.841 L 184.222 607.841 L 184.222 607.841 Q 187.347 615.71 193.248 621.496 L 193.248 621.496 L 193.248 621.496 Q 199.15 627.283 207.135 630.465 L 207.135 630.465 L 207.135 630.465 Q 215.12 633.647 224.725 633.647 L 224.725 633.647 L 224.725 633.647 Q 234.214 633.647 242.141 630.465 L 242.141 630.465 L 242.141 630.465 Q 250.068 627.283 255.97 621.496 L 255.97 621.496 L 255.97 621.496 Q 261.872 615.71 265.112 607.841 L 265.112 607.841 L 265.112 607.841 Q 268.352 599.972 268.352 590.598 L 268.352 590.598 L 268.352 590.598 Q 268.352 581.225 264.996 573.472 L 264.996 573.472 L 264.996 573.472 Q 261.64 565.718 255.797 559.99 L 255.797 559.99 L 255.797 559.99 Q 249.953 554.262 242.026 551.253 L 242.026 551.253 L 242.026 551.253 Q 234.099 548.244 224.725 548.244 L 224.725 548.244 L 224.725 548.244 Q 215.467 548.244 207.482 551.253 L 207.482 551.253 L 207.482 551.253 Q 199.498 554.262 193.538 559.932 L 193.538 559.932 L 193.538 559.932 Q 187.578 565.602 184.338 573.414 L 184.338 573.414 L 184.338 573.414 Q 181.098 581.225 181.098 590.598 Z  M 300.176 550.096 L 280.735 550.096 L 280.735 631.101 L 300.176 631.101 L 300.176 550.096 L 300.176 550.096 Z  M 292.886 550.096 L 292.886 566.181 L 308.74 566.181 L 308.74 566.181 Q 312.674 566.181 315.567 567.396 L 315.567 567.396 L 315.567 567.396 Q 318.46 568.611 319.907 570.926 L 319.907 570.926 L 319.907 570.926 Q 321.353 573.24 321.353 576.712 L 321.353 576.712 L 321.353 576.712 Q 321.353 579.952 319.907 582.266 L 319.907 582.266 L 319.907 582.266 Q 318.46 584.581 315.567 585.738 L 315.567 585.738 L 315.567 585.738 Q 312.674 586.895 308.74 586.895 L 308.74 586.895 L 292.886 586.895 L 292.886 603.212 L 308.74 603.212 L 308.74 603.212 Q 319.155 603.212 326.156 599.972 L 326.156 599.972 L 326.156 599.972 Q 333.157 596.732 336.687 590.772 L 336.687 590.772 L 336.687 590.772 Q 340.216 584.812 340.216 576.712 L 340.216 576.712 L 340.216 576.712 Q 340.216 568.38 336.687 562.42 L 336.687 562.42 L 336.687 562.42 Q 333.157 556.46 326.156 553.278 L 326.156 553.278 L 326.156 553.278 Q 319.155 550.096 308.74 550.096 L 308.74 550.096 L 292.886 550.096 L 292.886 550.096 Z  M 361.74 602.634 L 361.74 602.634 L 348.085 612.354 L 348.085 612.354 Q 350.747 618.372 355.723 623.174 L 355.723 623.174 L 355.723 623.174 Q 360.699 627.977 367.469 630.812 L 367.469 630.812 L 367.469 630.812 Q 374.238 633.647 382.108 633.647 L 382.108 633.647 L 382.108 633.647 Q 387.894 633.647 393.217 631.969 L 393.217 631.969 L 393.217 631.969 Q 398.54 630.291 402.88 627.051 L 402.88 627.051 L 402.88 627.051 Q 407.219 623.811 409.707 619.066 L 409.707 619.066 L 409.707 619.066 Q 412.195 614.322 412.195 608.073 L 412.195 608.073 L 412.195 608.073 Q 412.195 602.981 410.517 598.988 L 410.517 598.988 L 410.517 598.988 Q 408.84 594.996 406.004 591.987 L 406.004 591.987 L 406.004 591.987 Q 403.169 588.978 399.408 586.838 L 399.408 586.838 L 399.408 586.838 Q 395.647 584.697 391.365 583.077 L 391.365 583.077 L 391.365 583.077 Q 387.199 581.688 383.843 580.357 L 383.843 580.357 L 383.843 580.357 Q 380.487 579.026 378.231 577.695 L 378.231 577.695 L 378.231 577.695 Q 375.974 576.365 374.759 574.687 L 374.759 574.687 L 374.759 574.687 Q 373.544 573.009 373.544 570.81 L 373.544 570.81 L 373.544 570.81 Q 373.544 568.958 374.47 567.57 L 374.47 567.57 L 374.47 567.57 Q 375.396 566.181 377.305 565.429 L 377.305 565.429 L 377.305 565.429 Q 379.215 564.677 382.108 564.677 L 382.108 564.677 L 382.108 564.677 Q 385.116 564.677 387.836 565.776 L 387.836 565.776 L 387.836 565.776 Q 390.555 566.875 392.87 569.074 L 392.87 569.074 L 392.87 569.074 Q 395.184 571.273 396.804 574.166 L 396.804 574.166 L 411.733 565.834 L 411.733 565.834 Q 409.65 561.668 405.715 557.618 L 405.715 557.618 L 405.715 557.618 Q 401.78 553.567 395.879 550.906 L 395.879 550.906 L 395.879 550.906 Q 389.977 548.244 381.76 548.244 L 381.76 548.244 L 381.76 548.244 Q 374.007 548.244 367.527 551.021 L 367.527 551.021 L 367.527 551.021 Q 361.046 553.799 357.285 558.948 L 357.285 558.948 L 357.285 558.948 Q 353.524 564.098 353.524 571.389 L 353.524 571.389 L 353.524 571.389 Q 353.524 577.406 355.781 581.514 L 355.781 581.514 L 355.781 581.514 Q 358.037 585.622 361.393 588.573 L 361.393 588.573 L 361.393 588.573 Q 364.749 591.524 368.452 593.376 L 368.452 593.376 L 368.452 593.376 Q 372.155 595.227 375.164 596.385 L 375.164 596.385 L 375.164 596.385 Q 381.066 598.699 384.596 600.377 L 384.596 600.377 L 384.596 600.377 Q 388.125 602.055 389.687 604.022 L 389.687 604.022 L 389.687 604.022 Q 391.25 605.99 391.25 608.998 L 391.25 608.998 L 391.25 608.998 Q 391.25 611.429 390.035 613.222 L 390.035 613.222 L 390.035 613.222 Q 388.82 615.016 386.621 616 L 386.621 616 L 386.621 616 Q 384.422 616.983 381.529 616.983 L 381.529 616.983 L 381.529 616.983 Q 377.479 616.983 373.833 615.247 L 373.833 615.247 L 373.833 615.247 Q 370.188 613.512 367.179 610.271 L 367.179 610.271 L 367.179 610.271 Q 364.171 607.031 361.74 602.634 Z " fill="rgb(0,0,0)"/><path d=" M 151.555 369.984 L 151.555 383.405 L 175.496 383.405 L 175.496 383.405 Q 188.555 383.405 198.712 379.778 L 198.712 379.778 L 198.712 379.778 Q 208.869 376.15 214.673 369.077 L 214.673 369.077 L 214.673 369.077 Q 220.477 362.003 220.477 351.847 L 220.477 351.847 L 220.477 351.847 Q 220.477 343.685 217.121 337.7 L 217.121 337.7 L 217.121 337.7 Q 213.766 331.714 207.871 327.633 L 207.871 327.633 L 207.871 327.633 Q 201.977 323.552 193.634 321.557 L 193.634 321.557 L 193.634 321.557 Q 185.291 319.562 175.496 319.562 L 175.496 319.562 L 128.884 319.562 L 128.884 446.523 L 178.398 446.523 L 178.398 446.523 Q 193.452 446.523 204.516 442.805 L 204.516 442.805 L 204.516 442.805 Q 215.58 439.087 221.656 431.288 L 221.656 431.288 L 221.656 431.288 Q 227.732 423.489 227.732 410.974 L 227.732 410.974 L 227.732 410.974 Q 227.732 401.18 223.56 394.288 L 223.56 394.288 L 223.56 394.288 Q 219.389 387.396 212.315 383.043 L 212.315 383.043 L 212.315 383.043 Q 205.242 378.69 196.445 376.695 L 196.445 376.695 L 196.445 376.695 Q 187.648 374.7 178.398 374.7 L 178.398 374.7 L 151.555 374.7 L 151.555 391.386 L 174.952 391.386 L 174.952 391.386 Q 179.305 391.386 183.205 392.202 L 183.205 392.202 L 183.205 392.202 Q 187.104 393.018 189.916 394.832 L 189.916 394.832 L 189.916 394.832 Q 192.727 396.646 194.359 399.457 L 194.359 399.457 L 194.359 399.457 Q 195.992 402.268 195.992 406.44 L 195.992 406.44 L 195.992 406.44 Q 195.992 412.425 193.18 416.052 L 193.18 416.052 L 193.18 416.052 Q 190.369 419.68 185.653 421.222 L 185.653 421.222 L 185.653 421.222 Q 180.938 422.763 174.952 422.763 L 174.952 422.763 L 159.354 422.763 L 159.354 343.322 L 172.05 343.322 L 172.05 343.322 Q 180.031 343.322 184.384 346.677 L 184.384 346.677 L 184.384 346.677 Q 188.737 350.033 188.737 356.381 L 188.737 356.381 L 188.737 356.381 Q 188.737 360.552 186.742 363.636 L 186.742 363.636 L 186.742 363.636 Q 184.746 366.719 181.028 368.351 L 181.028 368.351 L 181.028 368.351 Q 177.31 369.984 172.05 369.984 L 172.05 369.984 L 151.555 369.984 L 151.555 369.984 Z  M 279.06 319.562 L 248.59 319.562 L 248.59 404.807 L 248.59 404.807 Q 248.59 416.778 252.398 425.575 L 252.398 425.575 L 252.398 425.575 Q 256.207 434.371 263.19 440.266 L 263.19 440.266 L 263.19 440.266 Q 270.173 446.16 279.423 448.972 L 279.423 448.972 L 279.423 448.972 Q 288.673 451.783 299.374 451.783 L 299.374 451.783 L 299.374 451.783 Q 310.075 451.783 319.416 448.972 L 319.416 448.972 L 319.416 448.972 Q 328.756 446.16 335.739 440.266 L 335.739 440.266 L 335.739 440.266 Q 342.722 434.371 346.621 425.575 L 346.621 425.575 L 346.621 425.575 Q 350.521 416.778 350.521 404.807 L 350.521 404.807 L 350.521 319.562 L 319.869 319.562 L 319.869 402.631 L 319.869 402.631 Q 319.869 409.16 317.511 414.057 L 317.511 414.057 L 317.511 414.057 Q 315.153 418.954 310.71 421.584 L 310.71 421.584 L 310.71 421.584 Q 306.266 424.214 299.555 424.214 L 299.555 424.214 L 299.555 424.214 Q 292.663 424.214 288.22 421.584 L 288.22 421.584 L 288.22 421.584 Q 283.776 418.954 281.418 414.057 L 281.418 414.057 L 281.418 414.057 Q 279.06 409.16 279.06 402.631 L 279.06 402.631 L 279.06 319.562 L 279.06 319.562 Z  M 390.604 401.905 L 390.604 401.905 L 369.202 417.141 L 369.202 417.141 Q 373.374 426.572 381.173 434.099 L 381.173 434.099 L 381.173 434.099 Q 388.972 441.626 399.582 446.07 L 399.582 446.07 L 399.582 446.07 Q 410.193 450.513 422.526 450.513 L 422.526 450.513 L 422.526 450.513 Q 431.595 450.513 439.938 447.883 L 439.938 447.883 L 439.938 447.883 Q 448.281 445.253 455.082 440.175 L 455.082 440.175 L 455.082 440.175 Q 461.884 435.097 465.783 427.66 L 465.783 427.66 L 465.783 427.66 Q 469.683 420.224 469.683 410.43 L 469.683 410.43 L 469.683 410.43 Q 469.683 402.45 467.053 396.192 L 467.053 396.192 L 467.053 396.192 Q 464.423 389.935 459.979 385.219 L 459.979 385.219 L 459.979 385.219 Q 455.536 380.503 449.641 377.148 L 449.641 377.148 L 449.641 377.148 Q 443.746 373.793 437.036 371.253 L 437.036 371.253 L 437.036 371.253 Q 430.506 369.077 425.246 366.991 L 425.246 366.991 L 425.246 366.991 Q 419.987 364.905 416.45 362.82 L 416.45 362.82 L 416.45 362.82 Q 412.913 360.734 411.009 358.104 L 411.009 358.104 L 411.009 358.104 Q 409.104 355.474 409.104 352.028 L 409.104 352.028 L 409.104 352.028 Q 409.104 349.126 410.555 346.95 L 410.555 346.95 L 410.555 346.95 Q 412.006 344.773 414.999 343.594 L 414.999 343.594 L 414.999 343.594 Q 417.992 342.415 422.526 342.415 L 422.526 342.415 L 422.526 342.415 Q 427.242 342.415 431.504 344.138 L 431.504 344.138 L 431.504 344.138 Q 435.766 345.861 439.394 349.307 L 439.394 349.307 L 439.394 349.307 Q 443.021 352.753 445.56 357.288 L 445.56 357.288 L 468.957 344.229 L 468.957 344.229 Q 465.693 337.7 459.526 331.351 L 459.526 331.351 L 459.526 331.351 Q 453.359 325.003 444.109 320.832 L 444.109 320.832 L 444.109 320.832 Q 434.859 316.66 421.982 316.66 L 421.982 316.66 L 421.982 316.66 Q 409.83 316.66 399.673 321.013 L 399.673 321.013 L 399.673 321.013 Q 389.516 325.366 383.621 333.437 L 383.621 333.437 L 383.621 333.437 Q 377.727 341.508 377.727 352.935 L 377.727 352.935 L 377.727 352.935 Q 377.727 362.366 381.264 368.805 L 381.264 368.805 L 381.264 368.805 Q 384.8 375.244 390.06 379.869 L 390.06 379.869 L 390.06 379.869 Q 395.32 384.494 401.124 387.396 L 401.124 387.396 L 401.124 387.396 Q 406.928 390.298 411.644 392.111 L 411.644 392.111 L 411.644 392.111 Q 420.894 395.739 426.425 398.369 L 426.425 398.369 L 426.425 398.369 Q 431.957 400.999 434.406 404.082 L 434.406 404.082 L 434.406 404.082 Q 436.854 407.165 436.854 411.881 L 436.854 411.881 L 436.854 411.881 Q 436.854 415.69 434.95 418.501 L 434.95 418.501 L 434.95 418.501 Q 433.046 421.312 429.599 422.854 L 429.599 422.854 L 429.599 422.854 Q 426.153 424.396 421.619 424.396 L 421.619 424.396 L 421.619 424.396 Q 415.271 424.396 409.558 421.675 L 409.558 421.675 L 409.558 421.675 Q 403.845 418.954 399.129 413.876 L 399.129 413.876 L 399.129 413.876 Q 394.413 408.798 390.604 401.905 Z " fill="rgb(28,28,28)"/><path d=" M 62.983 702.555 L 62.983 724.373 L 138.915 724.373 L 138.915 702.555 L 62.983 702.555 L 62.983 702.555 Z  M 147.814 665.953 L 123.7 665.953 L 123.7 766.43 L 147.814 766.43 L 147.814 665.953 L 147.814 665.953 Z  M 80.351 665.953 L 56.236 665.953 L 56.236 766.43 L 80.351 766.43 L 80.351 665.953 L 80.351 665.953 Z  M 184.991 746.478 L 184.991 766.43 L 235.661 766.43 L 235.661 746.478 L 184.991 746.478 L 184.991 746.478 Z  M 184.991 665.953 L 184.991 685.905 L 235.661 685.905 L 235.661 665.953 L 184.991 665.953 L 184.991 665.953 Z  M 184.991 703.703 L 184.991 723.512 L 232.79 723.512 L 232.79 703.703 L 184.991 703.703 L 184.991 703.703 Z  M 192.312 665.953 L 169.058 665.953 L 169.058 766.43 L 192.312 766.43 L 192.312 665.953 L 192.312 665.953 Z  M 305.851 720.928 L 280.588 720.928 L 308.722 766.43 L 337.287 766.43 L 305.851 720.928 L 305.851 720.928 Z  M 279.727 665.953 L 255.613 665.953 L 255.613 766.43 L 279.727 766.43 L 279.727 665.953 L 279.727 665.953 Z  M 270.684 665.953 L 270.684 686.622 L 290.349 686.622 L 290.349 686.622 Q 295.229 686.622 298.818 688.201 L 298.818 688.201 L 298.818 688.201 Q 302.406 689.78 304.201 692.651 L 304.201 692.651 L 304.201 692.651 Q 305.995 695.522 305.995 699.684 L 305.995 699.684 L 305.995 699.684 Q 305.995 703.847 304.201 706.79 L 304.201 706.79 L 304.201 706.79 Q 302.406 709.732 298.818 711.239 L 298.818 711.239 L 298.818 711.239 Q 295.229 712.746 290.349 712.746 L 290.349 712.746 L 270.684 712.746 L 270.684 731.837 L 292.072 731.837 L 292.072 731.837 Q 304.99 731.837 313.674 727.603 L 313.674 727.603 L 313.674 727.603 Q 322.358 723.368 326.808 715.904 L 326.808 715.904 L 326.808 715.904 Q 331.258 708.44 331.258 698.823 L 331.258 698.823 L 331.258 698.823 Q 331.258 689.062 326.808 681.67 L 326.808 681.67 L 326.808 681.67 Q 322.358 674.278 313.674 670.115 L 313.674 670.115 L 313.674 670.115 Q 304.99 665.953 292.072 665.953 L 292.072 665.953 L 270.684 665.953 L 270.684 665.953 Z  M 364.415 746.478 L 364.415 766.43 L 415.085 766.43 L 415.085 746.478 L 364.415 746.478 L 364.415 746.478 Z  M 364.415 665.953 L 364.415 685.905 L 415.085 685.905 L 415.085 665.953 L 364.415 665.953 L 364.415 665.953 Z  M 364.415 703.703 L 364.415 723.512 L 412.214 723.512 L 412.214 703.703 L 364.415 703.703 L 364.415 703.703 Z  M 371.736 665.953 L 348.483 665.953 L 348.483 766.43 L 371.736 766.43 L 371.736 665.953 L 371.736 665.953 Z " fill="rgb(0,0,0)"/><path d=" M 490.569 603.994 C 481.68 603.994 474.475 596.788 474.475 587.899 C 474.475 579.01 481.68 571.804 490.569 571.804 C 499.458 571.804 506.664 579.01 506.664 587.899 C 506.664 596.788 499.458 603.994 490.569 603.994 Z  M 490.569 542.834 C 465.68 542.834 445.504 563.01 445.504 587.899 C 445.504 621.698 490.569 671.592 490.569 671.592 C 490.569 671.592 535.635 621.698 535.635 587.899 C 535.635 563.01 515.458 542.834 490.569 542.834 Z " fill="rgb(0,0,0)"/><path d=" M 442.334 723.927 C 442.334 707.114 450.954 692.299 464.013 683.664 C 471.631 678.626 480.76 675.692 490.569 675.692 C 517.191 675.692 538.805 697.305 538.805 723.927 C 538.805 750.549 517.191 772.163 490.569 772.163 C 463.947 772.163 442.334 750.549 442.334 723.927 Z  M 505.098 729.057 C 504.289 730.052 503.848 731.295 503.848 732.577 C 503.849 734.065 504.44 735.492 505.493 736.544 C 506.545 737.597 507.972 738.188 509.46 738.189 C 510.948 738.188 512.374 737.597 513.426 736.544 C 514.479 735.492 515.071 734.065 515.071 732.577 C 515.071 731.089 514.479 729.663 513.426 728.611 C 512.374 727.558 510.948 726.967 509.46 726.966 Q 509.445 726.966 509.431 726.966 C 509.18 726.475 508.933 725.982 508.69 725.487 C 508.261 724.616 507.848 723.737 507.451 722.85 C 508.106 722.707 508.779 722.637 509.46 722.637 C 512.096 722.637 514.624 723.684 516.489 725.548 C 518.353 727.413 519.4 729.941 519.4 732.577 C 519.4 735.213 518.352 737.743 516.489 739.607 C 514.624 741.47 512.096 742.518 509.46 742.518 C 506.823 742.518 504.295 741.47 502.43 739.607 C 500.567 737.742 499.519 735.214 499.519 732.577 C 499.519 729.942 500.567 727.411 502.43 725.548 C 502.648 725.33 502.875 725.124 503.115 724.935 C 503.519 725.834 503.939 726.726 504.374 727.61 C 504.612 728.094 504.854 728.576 505.098 729.057 M 462.962 735.784 C 462.962 733.998 463.671 732.285 464.934 731.022 C 466.197 729.759 467.91 729.05 469.696 729.05 C 471.482 729.05 473.195 729.759 474.458 731.022 C 475.721 732.285 476.431 733.998 476.431 735.784 C 476.431 737.57 475.721 739.283 474.458 740.546 C 473.195 741.809 471.482 742.518 469.696 742.518 C 467.91 742.518 466.197 741.809 464.934 740.546 C 463.672 739.283 462.962 737.57 462.962 735.784 M 493.32 701.048 C 494.278 700.974 495.237 700.922 496.197 700.892 C 496.79 700.873 497.384 700.879 497.976 700.908 C 498.182 700.921 498.384 700.934 498.589 700.953 C 498.73 700.966 498.871 700.985 499.012 701.007 C 499.044 701.011 499.076 701.017 499.105 701.02 C 499.131 701.161 499.15 701.302 499.163 701.447 Q 499.245 702.24 499.24 703.044 C 499.237 703.549 499.224 704.055 499.201 704.56 C 499.176 705.109 499.144 705.654 499.112 706.199 C 499.076 706.779 499.044 707.36 499.019 707.94 C 498.989 708.534 498.974 709.129 498.974 709.723 C 498.97 710.361 498.996 711.003 499.047 711.641 C 499.087 712.115 499.151 712.587 499.239 713.055 C 498.287 713.151 497.337 713.272 496.389 713.411 C 494.904 713.629 493.429 713.908 491.967 714.245 C 490.611 714.555 489.27 714.928 487.949 715.364 C 486.712 715.771 485.498 716.242 484.309 716.775 C 482.861 717.421 481.463 718.174 480.125 719.026 L 478.202 716.763 L 478.239 716.759 Q 478.691 716.696 479.143 716.614 C 479.36 716.573 479.574 716.518 479.785 716.451 C 479.887 716.415 479.989 716.377 480.089 716.335 C 480.211 716.285 480.329 716.226 480.442 716.159 C 480.708 716.005 480.944 715.805 481.141 715.569 C 481.512 715.128 481.718 714.571 481.722 713.995 C 481.724 713.453 481.552 712.926 481.231 712.491 C 481.045 712.241 480.817 712.025 480.558 711.852 C 480.443 711.776 480.323 711.707 480.198 711.647 C 480.096 711.599 479.993 711.554 479.884 711.516 C 479.621 711.413 479.349 711.336 479.07 711.278 C 478.642 711.192 478.212 711.118 477.781 711.057 C 477.387 711.003 476.992 710.955 476.597 710.913 C 476.001 710.849 475.401 710.794 474.801 710.743 C 473.862 710.666 472.922 710.595 471.983 710.538 C 470.511 710.448 469.042 710.365 467.567 710.294 C 466.913 710.262 466.268 710.499 465.794 710.955 C 465.316 711.407 465.047 712.038 465.047 712.696 L 465.047 714.941 C 465.047 715.591 465.31 716.214 465.775 716.666 C 466.24 717.118 466.871 717.362 467.519 717.346 C 469.094 717.299 470.669 717.243 472.243 717.179 L 476.273 721.92 C 475.238 722.83 474.261 723.805 473.349 724.838 C 472.203 724.448 470.974 724.24 469.696 724.24 C 463.325 724.24 458.152 729.413 458.152 735.784 C 458.152 742.156 463.325 747.328 469.696 747.328 C 476.068 747.328 481.241 742.156 481.241 735.784 C 481.241 732.458 479.831 729.459 477.576 727.353 C 478.612 726.243 479.743 725.223 480.952 724.301 C 482.603 723.059 484.389 722.007 486.275 721.165 C 487.312 720.7 488.373 720.289 489.453 719.933 C 490.636 719.545 491.832 719.209 493.044 718.933 C 494.382 718.625 495.732 718.369 497.088 718.17 C 498.174 718.011 499.264 717.878 500.357 717.771 C 500.503 718.251 500.658 718.73 500.821 719.205 C 500.952 719.586 501.087 719.965 501.226 720.343 C 497.295 722.992 494.709 727.485 494.709 732.577 C 494.709 740.719 501.318 747.328 509.46 747.328 C 517.601 747.328 524.21 740.719 524.21 732.577 C 524.21 724.436 517.601 717.827 509.46 717.827 C 508.128 717.827 506.838 718.003 505.612 718.336 C 505.53 718.106 505.45 717.875 505.371 717.644 C 505.207 717.17 505.053 716.694 504.909 716.214 C 504.713 715.563 504.538 714.906 504.383 714.245 C 504.252 713.687 504.14 713.126 504.053 712.558 C 503.951 712.125 503.88 711.686 503.841 711.243 C 503.8 710.743 503.78 710.243 503.784 709.739 C 503.784 709.213 503.797 708.691 503.822 708.168 C 503.848 707.61 503.877 707.052 503.912 706.494 C 503.947 705.926 503.979 705.356 504.005 704.788 C 504.031 704.214 504.047 703.64 504.05 703.066 C 504.054 702.366 504.021 701.666 503.95 700.969 C 503.881 700.267 503.744 699.573 503.543 698.897 C 503.459 698.606 503.333 698.328 503.168 698.073 C 503.011 697.83 502.822 697.612 502.607 697.416 C 502.443 697.268 502.266 697.136 502.078 697.021 C 501.901 696.913 501.716 696.816 501.526 696.733 C 501.26 696.618 500.986 696.524 500.705 696.451 C 500.385 696.367 500.061 696.301 499.734 696.252 C 499.505 696.216 499.275 696.188 499.044 696.165 C 498.77 696.14 498.495 696.12 498.22 696.104 C 497.496 696.069 496.771 696.063 496.046 696.085 C 495.131 696.112 494.216 696.16 493.301 696.226 C 493.257 696.178 493.212 696.131 493.166 696.085 C 492.486 695.405 491.563 695.023 490.601 695.024 L 484.707 695.024 C 483.745 695.023 482.822 695.405 482.142 696.085 C 481.462 696.765 481.081 697.686 481.08 698.647 C 481.08 699.609 481.462 700.532 482.142 701.213 C 482.822 701.892 483.745 702.274 484.707 702.274 L 490.601 702.274 C 491.563 702.274 492.486 701.893 493.166 701.213 C 493.22 701.16 493.271 701.105 493.32 701.048" fill-rule="evenodd" fill="rgb(0,0,0)"/></g></svg>