<?xml version="1.0" encoding="UTF-8" standalone="no"?><!-- Generator: Gravit.io --><svg xmlns="http://www.w3.org/2000/svg" xmlns:xlink="http://www.w3.org/1999/xlink" style="isolation:isolate" viewBox="0 0 1280 1280" width="1280pt" height="1280pt"><path d=" M 496.222 459.373 C 513.699 438.339 528.029 414.821 538.737 389.549 C 545.925 372.583 551.404 354.943 555.096 336.892 C 558.895 318.305 560.809 299.395 560.799 280.426 C 560.809 261.458 558.895 242.538 555.096 223.96 C 551.404 205.9 545.925 188.26 538.737 171.293 C 524.624 137.996 504.221 107.726 478.633 82.165 C 453.074 56.583 422.817 36.169 389.522 22.055 C 372.548 14.876 354.909 9.396 336.861 5.695 C 318.285 1.895 299.367 -0.01 280.4 0 C 261.433 -0.01 242.515 1.895 223.939 5.695 C 205.89 9.396 188.242 14.876 171.277 22.055 C 137.983 36.169 107.716 56.583 82.157 82.165 C 56.578 107.726 36.166 137.996 22.053 171.293 C 14.875 188.26 9.396 205.9 5.694 223.96 C 1.895 242.538 -0.01 261.458 0 280.426 C -0.01 299.395 1.895 318.305 5.694 336.892 C 9.396 354.943 14.875 372.583 22.053 389.549 C 36.166 422.856 56.578 453.116 82.157 478.678 C 107.716 504.269 137.983 524.673 171.277 538.787 C 183.778 544.085 196.651 548.454 209.785 551.851 C 229.772 604.983 253.935 656.939 282.423 707.002 C 322.926 777.919 371.613 843.688 427.07 902.988 L 427.07 902.988 C 536.521 1020.22 669.189 1115.842 817.004 1181.544 L 817.004 1181.544 C 962.285 1245.935 1120.477 1279.883 1280 1280 L 1280 979.483 C 1163.492 979.612 1045.876 954.252 938.731 906.789 L 938.731 906.789 C 829.385 858.557 729.31 786.112 646.578 697.762 L 646.578 697.762 C 606.832 655.212 571.973 608.207 543.415 558.068 C 525.459 526.726 509.76 493.662 496.222 459.373 L 496.222 459.373 Z  M 473.507 483.663 C 449.07 506.933 420.621 525.604 389.522 538.787 C 372.548 545.976 354.909 551.456 336.861 555.148 C 318.285 558.948 299.367 560.862 280.4 560.852 C 268.469 560.858 256.558 560.103 244.74 558.581 L 244.74 558.581 C 262.818 604.248 284.083 648.902 308.642 692.04 L 308.642 692.04 C 347.946 760.87 395.244 824.754 449.122 882.371 L 449.122 882.371 C 522.309 960.743 606.129 1029.23 697.981 1085.155 L 822.861 880.13 C 750.056 835.74 683.078 780.931 624.526 718.38 L 624.526 718.38 C 583.202 674.147 546.954 625.257 517.195 573.031 L 517.195 573.031 C 500.828 544.436 486.281 514.539 473.507 483.663 Z  M 1166.524 1041.605 C 1176.654 1042.899 1185.152 1045.531 1192.125 1049.638 C 1199.098 1053.745 1204.787 1058.495 1209.183 1063.964 C 1213.58 1069.432 1216.908 1074.777 1219.11 1080.045 C 1207.8 1085.699 1196.277 1091.145 1184.549 1096.376 C 1182.731 1092.625 1180.625 1089.586 1178.222 1087.254 C 1175.818 1084.922 1173.342 1083.106 1170.779 1081.805 C 1168.216 1080.503 1165.672 1079.693 1163.133 1079.372 C 1161.129 1079.119 1159.295 1079.132 1157.627 1079.413 C 1155.959 1079.694 1154.623 1080.265 1153.619 1081.131 C 1152.615 1081.997 1151.995 1083.273 1151.763 1084.961 C 1151.455 1087.21 1151.996 1089.255 1153.403 1091.091 C 1154.808 1092.927 1156.821 1094.663 1159.448 1096.286 C 1162.073 1097.908 1165.156 1099.579 1168.697 1101.28 C 1172.253 1102.989 1176.042 1104.831 1180.155 1106.836 C 1185.708 1109.559 1190.645 1112.557 1194.968 1115.861 C 1199.291 1119.164 1202.959 1122.841 1205.965 1126.914 C 1208.972 1130.985 1211.177 1135.444 1212.559 1140.304 C 1213.94 1145.162 1214.458 1150.497 1214.075 1156.301 C 1213.533 1164.517 1211.316 1171.657 1207.321 1177.708 C 1203.329 1183.756 1198.131 1188.596 1191.717 1192.181 C 1185.304 1195.765 1178.122 1198.234 1170.213 1199.545 C 1162.303 1200.855 1154.243 1200.994 1146.102 1199.955 C 1134.794 1198.511 1124.53 1195.265 1115.44 1190.308 C 1106.349 1185.352 1098.892 1179.192 1093.091 1171.932 C 1087.289 1164.669 1083.438 1156.976 1081.455 1148.916 C 1093.56 1143.499 1105.464 1137.868 1117.156 1132.036 C 1119.168 1137.404 1121.755 1142.171 1124.921 1146.327 C 1128.086 1150.481 1131.752 1153.795 1135.898 1156.253 C 1140.045 1158.711 1144.386 1160.236 1148.887 1160.821 C 1151.5 1161.16 1153.866 1161.135 1155.976 1160.751 C 1158.086 1160.366 1159.804 1159.535 1161.13 1158.263 C 1162.455 1156.991 1163.238 1155.296 1163.484 1153.181 C 1163.714 1151.208 1163.227 1149.437 1162.033 1147.866 C 1160.835 1146.292 1158.35 1144.358 1154.588 1142.02 C 1150.763 1139.643 1145.175 1136.476 1137.51 1132.18 C 1134.189 1130.266 1130.419 1127.762 1126.245 1124.663 C 1122.069 1121.562 1118.252 1117.767 1114.813 1113.29 C 1111.375 1108.813 1108.827 1103.602 1107.16 1097.672 C 1105.493 1091.738 1105.383 1085.081 1106.76 1077.683 C 1108.551 1068.058 1112.52 1060.421 1118.497 1054.718 C 1124.483 1049.009 1131.639 1045.131 1140.004 1042.994 C 1148.368 1040.858 1157.163 1040.41 1166.524 1041.605 L 1166.524 1041.605 L 1166.524 1041.605 Z  M 970.334 998.697 C 983.794 1003.538 997.368 1008.068 1011.04 1012.282 L 982.826 1103.851 C 981.656 1107.65 981.273 1111.207 981.698 1114.53 C 982.122 1117.851 983.45 1120.742 985.689 1123.191 C 987.927 1125.638 991.163 1127.484 995.383 1128.699 C 999.601 1129.914 1003.324 1130.072 1006.521 1129.189 C 1009.719 1128.307 1012.381 1126.565 1014.507 1123.978 C 1016.634 1121.39 1018.202 1118.174 1019.23 1114.335 L 1044.032 1021.786 C 1057.85 1025.491 1071.752 1028.876 1085.723 1031.936 L 1064.329 1129.69 C 1062.052 1140.095 1058.406 1148.478 1053.265 1154.825 C 1048.129 1161.166 1041.898 1165.786 1034.565 1168.631 C 1027.237 1171.475 1019.207 1172.852 1010.537 1172.714 C 1001.869 1172.576 992.961 1171.21 983.894 1168.599 C 974.826 1165.988 966.556 1162.408 959.141 1157.914 C 951.726 1153.42 945.657 1147.984 940.964 1141.678 C 936.267 1135.368 933.447 1128.141 932.469 1120.04 C 931.49 1111.929 932.86 1102.891 936.466 1092.867 L 970.334 998.697 L 970.334 998.697 Z  M 527.664 673.948 L 408.67 761.264 C 418.703 774.943 429.091 788.354 439.819 801.484 L 554.108 708.08 C 544.996 696.929 536.176 685.547 527.664 673.948 L 527.664 673.948 L 527.664 673.948 Z  M 571.453 728.621 L 460.232 825.661 C 467.65 834.163 475.212 842.536 482.916 850.776 C 487 855.147 491.118 859.487 495.27 863.794 L 538.333 822.254 C 534.772 847.292 532.042 872.718 530.175 898.48 C 544.543 912.156 559.267 925.459 574.33 938.372 C 575.041 904.536 577.268 871.199 580.94 838.475 C 610.59 834.973 639.706 830.256 668.194 824.378 C 655.601 813.515 643.275 802.335 631.234 790.857 C 608.553 794.399 585.522 797.202 562.187 799.242 L 601.506 761.312 C 597.886 757.561 594.294 753.781 590.733 749.974 C 584.184 742.966 577.756 735.847 571.453 728.621 L 571.453 728.621 L 571.453 728.621 Z  M 680.08 834.469 L 585.432 947.767 C 614.341 971.917 644.453 994.639 675.641 1015.805 L 696.364 985.278 C 678.743 973.317 661.475 960.84 644.584 947.872 L 657.426 931.145 C 672.869 943.003 688.632 954.442 704.696 965.441 L 724.944 935.865 C 709.421 925.233 694.185 914.174 679.256 902.709 L 689.529 889.327 C 705.285 901.428 721.386 913.069 737.809 924.223 L 758.531 893.696 C 731.443 875.292 705.25 855.506 680.08 834.469 L 680.08 834.469 L 680.08 834.469 Z  M 864.629 992.277 L 854.414 1013.346 C 857.836 1015.005 861.267 1016.644 864.707 1018.262 C 867.835 1019.734 870.619 1020.476 873.04 1020.496 C 875.462 1020.517 877.557 1019.91 879.321 1018.684 C 881.086 1017.459 882.49 1015.68 883.543 1013.352 C 885.121 1009.859 885.189 1006.814 883.771 1004.22 C 882.352 1001.622 879.321 999.258 874.679 997.075 C 871.32 995.495 867.97 993.896 864.629 992.277 L 864.629 992.277 Z  M 444.594 609.319 C 445.326 610.615 446.06 611.91 446.798 613.202 C 447.875 615.089 448.958 616.972 450.05 618.851 C 452.589 623.225 453.724 626.843 453.416 629.751 C 453.11 632.656 451.344 635.1 448.097 637.064 C 445.932 638.373 443.788 639.038 441.661 639.049 C 439.535 639.059 437.487 638.379 435.525 637.003 C 433.564 635.628 431.713 633.46 429.995 630.504 C 428.874 628.573 427.76 626.637 426.653 624.698 C 425.895 623.369 425.141 622.039 424.389 620.707 L 444.594 609.319 L 444.594 609.319 Z  M 311.907 378.566 C 311.056 375.066 309.867 371.685 308.335 368.478 C 304.214 371.6 300.164 374.821 296.188 378.143 C 293.93 380.027 291.69 381.935 289.469 383.868 C 289.481 383.919 289.493 383.97 289.506 384.02 C 291.404 391.817 290.252 400.067 286.298 407.028 C 282.348 413.988 275.873 419.145 268.233 421.225 C 260.582 423.301 252.391 422.117 245.447 417.787 C 238.513 413.465 233.44 406.383 231.435 398.159 C 229.431 389.934 230.681 381.332 234.851 374.322 C 239.025 367.308 245.756 362.486 253.503 360.808 C 260.175 359.362 267.165 360.343 273.291 363.493 C 275.502 361.638 277.726 359.804 279.966 357.991 C 284.062 354.681 288.229 351.471 292.462 348.36 C 291.211 347.314 289.881 346.352 288.505 345.446 C 276.757 337.717 262.421 334.658 248.655 337.365 C 234.873 340.079 222.778 348.376 215.228 360.834 C 207.689 373.281 205.415 388.744 209.037 403.612 C 212.664 418.476 221.822 431.239 234.273 438.878 C 246.748 446.527 261.304 448.33 274.782 444.358 C 288.23 440.393 299.528 431.01 306.372 418.742 C 313.229 406.451 315.194 392.093 311.905 378.566 L 311.907 378.566 L 311.907 378.566 Z  M 840.949 1041.122 L 830.27 1063.15 C 835.196 1065.539 840.14 1067.89 845.103 1070.202 C 848.412 1071.743 851.584 1072.887 854.608 1073.637 C 857.633 1074.387 860.39 1074.3 862.867 1073.384 C 863.906 1073 864.867 1072.376 865.752 1071.512 C 866.978 1070.316 868.055 1068.661 868.988 1066.55 C 869.734 1064.862 870.082 1063.293 870.035 1061.845 C 870.021 1061.399 869.969 1060.964 869.88 1060.541 C 869.502 1058.742 868.625 1057.109 867.25 1055.636 C 865.875 1054.162 864.177 1052.81 862.154 1051.574 C 860.13 1050.338 857.892 1049.15 855.436 1048.007 C 850.589 1045.75 845.76 1043.455 840.949 1041.122 L 840.949 1041.122 L 840.949 1041.122 Z  M 397.754 635.719 C 398.531 637.099 399.312 638.476 400.097 639.852 C 401.945 643.091 403.814 646.318 405.702 649.534 C 407.065 651.854 408.228 654.087 409.188 656.238 C 410.148 658.388 410.779 660.45 411.078 662.429 C 411.376 664.407 411.179 666.236 410.482 667.919 C 409.785 669.602 408.422 671.075 406.39 672.331 C 403.04 674.399 400.099 675.118 397.555 674.468 C 395.014 673.819 392.707 672.333 390.65 670.008 C 388.594 667.683 386.638 664.951 384.796 661.815 C 382.856 658.512 380.936 655.197 379.037 651.87 C 378.232 650.457 377.43 649.042 376.632 647.625 L 397.754 635.719 L 397.754 635.719 Z  M 245.319 173.313 C 244.544 163.681 240.121 154.697 232.968 148.274 C 225.816 141.851 216.477 138.479 206.986 139.037 C 197.488 139.591 188.611 144.043 182.351 151.557 C 176.097 159.065 173.012 168.984 173.828 179.071 C 174.641 189.157 179.281 198.488 186.666 204.925 C 194.059 211.369 203.535 214.35 212.999 213.365 C 222.454 212.385 231.124 207.532 237.147 200.032 C 243.171 192.53 246.097 182.945 245.319 173.313 L 245.319 173.313 L 245.319 173.313 Z  M 433.588 230.046 C 434.845 239.268 436.195 248.45 437.645 257.588 C 438.356 262.059 437.055 266.669 434.019 270.437 C 433.815 270.691 433.604 270.941 433.387 271.187 C 434.458 275.383 435.448 279.589 436.357 283.806 C 437.082 287.14 437.67 290.497 438.121 293.872 C 438.279 295.161 438.419 296.435 438.532 297.733 C 438.62 298.819 438.678 299.913 438.7 300.996 C 438.745 302.552 438.689 304.111 438.55 305.674 C 438.429 307.041 438.193 308.404 437.844 309.75 C 437.589 310.715 437.261 311.666 436.862 312.598 C 436.444 313.589 435.926 314.548 435.315 315.464 C 434.503 316.668 433.551 317.781 432.436 318.777 C 431.27 319.821 429.949 320.716 428.514 321.431 C 425.192 323.124 421.722 324.532 418.137 325.655 C 414.581 326.77 410.972 327.719 407.324 328.494 C 404.331 329.126 401.328 329.705 398.316 330.229 C 395.334 330.749 392.333 331.241 389.341 331.712 C 386.399 332.173 383.466 332.662 380.534 333.167 C 377.786 333.632 375.052 334.158 372.315 334.75 C 369.698 335.299 367.106 335.958 364.546 336.726 C 362.282 337.415 360.071 338.259 357.93 339.254 C 355.068 340.325 352.27 341.519 349.51 342.809 C 346.236 344.333 343.014 345.961 339.849 347.694 C 337.512 348.969 335.206 350.296 332.93 351.675 C 331.817 352.343 330.71 353.02 329.605 353.702 C 332.732 359.525 335.163 365.814 336.792 372.507 C 343.926 401.833 333.732 432.517 312.095 452.581 C 303.893 460.188 293.973 466.288 282.648 469.931 C 271.303 473.58 259.717 474.385 248.52 472.526 C 218.927 467.625 192.505 443.932 184.149 409.672 C 178.429 386.221 182.585 363.175 193.611 345.331 C 204.668 327.436 222.403 315.004 243.789 311.246 C 270.429 306.565 296.545 316.323 314.356 333.562 C 316.182 332.445 318.02 331.35 319.871 330.277 C 322.189 328.936 324.533 327.649 326.886 326.399 C 325.214 320.956 323.446 315.536 321.582 310.14 C 319.253 303.402 316.683 296.717 313.905 290.109 C 311.405 284.114 308.64 278.225 305.655 272.407 C 302.924 267.098 299.947 261.901 296.73 256.834 C 293.813 252.224 290.659 247.752 287.28 243.435 C 283.907 239.126 280.313 234.977 276.511 231.008 C 270.865 225.196 264.786 219.783 258.309 214.862 C 248.501 228.108 233.541 237.782 215.988 239.916 C 199.122 241.966 183.028 236.643 170.635 225.956 C 158.271 215.294 149.775 199.403 148.297 181.127 C 145.349 144.656 171.723 114.002 205.627 112.518 C 239.532 111.034 268.128 137.397 270.855 171.257 C 271.401 178.044 270.869 184.666 269.367 190.954 C 275.296 195.296 280.967 199.958 286.351 204.905 C 293.992 196.973 301.696 189.155 309.458 181.445 C 308.387 173.317 307.429 165.167 306.584 157 C 306.252 153.638 307.319 150.261 309.558 147.685 C 311.806 145.105 315.024 143.533 318.477 143.309 L 330.406 142.531 C 333.9 142.304 337.347 143.463 339.911 145.732 C 342.494 147.984 343.983 151.169 344.055 154.499 C 344.352 167.404 344.268 164.082 344.565 176.986 C 344.678 181.769 344.746 186.558 344.805 191.348 C 344.83 194.406 344.848 197.467 344.824 200.516 C 344.812 202.531 344.77 204.551 344.699 206.574 C 344.614 208.79 344.465 211.004 344.251 213.214 C 344.106 214.657 343.858 216.081 343.471 217.472 C 343.332 218.047 343.154 218.593 342.961 219.142 C 342.717 219.807 342.426 220.456 342.091 221.085 C 341.336 222.505 340.334 223.795 339.128 224.898 C 337.024 226.803 334.344 228.023 331.483 228.362 C 328.434 228.719 325.361 228.036 322.797 226.415 C 321.427 225.557 320.226 224.47 319.247 223.202 C 318.822 222.667 318.445 222.093 318.1 221.499 C 317.817 220.997 317.554 220.508 317.306 220.002 C 316.825 218.961 316.409 217.891 316.061 216.799 C 315.597 215.284 315.168 213.759 314.774 212.223 C 314.759 212.16 314.743 212.097 314.727 212.033 C 311.1 215.78 307.488 219.552 303.89 223.351 C 308.243 228.599 312.299 234.055 316.043 239.69 C 316.877 240.945 317.696 242.209 318.499 243.481 C 322.125 249.218 325.482 255.065 328.56 261.052 C 331.849 267.442 334.873 273.934 337.628 280.516 C 340.612 287.611 343.355 294.776 345.859 302.004 C 347.455 306.618 348.983 311.245 350.412 315.892 C 352.772 314.975 355.178 314.177 357.621 313.499 C 360.909 312.595 364.237 311.817 367.577 311.185 C 370.695 310.579 373.813 310.054 376.942 309.592 C 379.999 309.127 383.067 308.691 386.133 308.27 C 389.017 307.869 391.891 307.468 394.785 307.031 C 397.454 306.621 400.115 306.164 402.749 305.664 C 405.552 305.133 408.311 304.467 411.027 303.669 C 411.762 303.462 412.489 303.226 413.203 302.961 C 413.194 302.822 413.197 302.664 413.186 302.51 C 413.177 301.824 413.143 301.14 413.085 300.458 C 413 299.47 412.886 298.504 412.769 297.522 C 412.393 294.694 411.9 291.882 411.292 289.091 C 410.311 284.574 409.24 280.07 408.076 275.58 C 407.739 275.395 407.409 275.199 407.087 274.993 C 402.966 272.354 400.229 268.26 399.497 263.632 C 398 254.193 396.608 244.715 395.316 235.204 C 395.051 233.254 395.146 231.268 395.597 229.332 C 396.213 226.688 397.48 224.2 399.298 222.061 C 402.484 218.318 407.137 215.895 412.225 215.281 C 417.304 214.668 422.399 215.907 426.395 218.675 C 428.68 220.261 430.526 222.294 431.795 224.619 C 432.725 226.321 433.331 228.154 433.588 230.046 L 433.588 230.046 L 433.588 230.046 Z  M 841.73 941.058 C 859.191 950.531 876.938 959.444 894.943 967.768 C 899.823 970.025 904.308 972.503 908.412 975.223 C 910.063 976.321 911.653 977.457 913.182 978.635 C 918.503 982.733 922.798 987.162 926.068 991.971 C 929.337 996.781 931.369 1001.884 932.137 1007.312 C 932.905 1012.737 932.148 1018.43 929.804 1024.37 C 926.73 1032.16 921.832 1037.906 915.007 1041.505 C 910.326 1043.973 905.076 1045.455 899.299 1045.969 C 901.612 1048.269 903.769 1050.683 905.726 1053.248 C 909.975 1058.817 912.846 1064.877 914.317 1071.474 C 915.785 1078.065 915.143 1085.082 912.288 1092.499 C 908.717 1101.775 903.518 1108.289 896.555 1111.965 C 889.606 1115.634 881.025 1116.882 870.889 1115.57 C 864.117 1114.692 856.707 1112.831 848.724 1109.947 C 844.769 1108.516 840.672 1106.833 836.444 1104.894 C 814.147 1094.67 792.218 1083.7 770.69 1072.019 C 794.37 1028.366 818.05 984.712 841.73 941.058 L 841.73 941.058 L 841.73 941.058 Z  M 455.133 554.964 L 323.034 620.741 C 331.169 637.077 339.763 653.21 348.823 669.111 C 351.918 674.533 355.065 679.923 358.264 685.28 C 365.462 697.334 373.007 706.769 380.597 713.563 C 388.199 720.369 395.956 724.177 403.71 725.069 C 411.48 725.963 419.369 723.526 427.451 717.909 C 433.913 713.418 438.335 708.017 440.791 701.792 C 443.252 695.562 444.27 688.994 443.895 682.061 C 443.722 678.872 443.32 675.694 442.712 672.523 C 447.72 675.327 452.837 677.039 458.038 677.627 C 465.629 678.484 472.836 676.5 479.689 671.831 C 484.916 668.271 488.707 664.032 491.107 659.174 C 493.508 654.313 494.7 649.021 494.727 643.288 C 494.753 637.555 493.739 631.569 491.714 625.283 C 489.688 618.996 486.793 612.702 483.031 606.328 C 480.999 602.886 478.994 599.43 477.015 595.959 C 469.341 582.534 462.049 568.859 455.133 554.964 L 455.133 554.964 L 455.133 554.964 Z " fill-rule="evenodd" fill="rgb(0,0,0)"/></svg>