<?xml version="1.0" encoding="UTF-8" standalone="no"?><!-- Generator: Gravit.io --><svg xmlns="http://www.w3.org/2000/svg" xmlns:xlink="http://www.w3.org/1999/xlink" style="isolation:isolate" viewBox="0 0 1024 2220" width="1024pt" height="2220pt"><path d=" M 1009.796 486.755 L 1004.637 503.936 L 1015.161 509.182 L 163.395 2219.712 L 101.916 2218.82 L 1.231 2217.929 L 0 2158.276 L 0 1275.422 C 0 980.983 51.772 551.261 155.593 348.696 C 258.927 147.079 426.649 17.713 578.654 2.287 C 762.088 -16.327 919.433 80.78 984.815 217.597 C 1020.73 292.75 1038.335 391.733 1009.796 486.755 Z " fill="rgb(255,255,255)"/><clipPath id="_clipPath_HxLtZW1jXUfbbY8OGH4xpAv47DqVFsWh"><path d=" M 1009.796 486.755 L 1004.637 503.936 L 1015.161 509.182 L 163.395 2219.712 L 101.916 2218.82 L 1.231 2217.929 L 0 2158.276 L 0 1275.422 C 0 980.983 51.772 551.261 155.593 348.696 C 258.927 147.079 426.649 17.713 578.654 2.287 C 762.088 -16.327 919.433 80.78 984.815 217.597 C 1020.73 292.75 1038.335 391.733 1009.796 486.755 Z " fill="rgb(255,255,255)"/></clipPath><g clip-path="url(#_clipPath_HxLtZW1jXUfbbY8OGH4xpAv47DqVFsWh)"><path d=" M -340.898 2071.492 L 19.425 2252.717 L 1158.477 -1.82 L 798.155 -183.045 L -340.898 2071.492 Z  M 25.889 1432.428 L 389.489 709.498 L 677.414 854.311 L 313.814 1577.241 L 25.889 1432.428 Z  M 692.997 223.012 Q 703.123 202.881 716.492 191.563 Q 729.861 180.246 743.729 175.566 Q 757.598 170.887 769.223 170.665 L 771.308 223.763 Q 762.875 224.63 756.675 227.737 Q 750.472 230.845 746.121 235.043 Q 741.77 239.241 739.335 244.083 Q 737.413 247.904 736.769 251.415 Q 736.124 254.922 737.078 257.476 Q 738.031 260.032 741.094 261.573 Q 745.179 263.627 749.654 262.045 Q 754.128 260.462 759.053 256.395 Q 763.978 252.327 769.736 246.601 Q 775.494 240.877 782.277 234.388 Q 791.489 225.611 800.953 219.834 Q 810.415 214.056 820.32 211.532 C 826.846 209.856 833.63 209.423 840.316 210.254 Q 850.406 211.496 860.874 216.761 Q 875.679 224.207 883.963 236.04 Q 892.25 247.87 894.461 261.916 Q 896.673 275.959 893.966 290.882 Q 891.259 305.804 884.337 319.566 Q 874.723 338.679 860.201 351.97 Q 845.68 365.263 828.679 371.72 Q 811.676 378.176 795.071 377.486 L 786.466 325.904 Q 797.967 325.3 807.809 321.947 Q 817.651 318.598 824.879 312.494 Q 832.108 306.39 836.082 298.49 Q 838.389 293.903 839.034 289.756 Q 839.681 285.61 838.153 282.289 Q 836.624 278.967 832.795 277.041 Q 829.221 275.243 825.45 276.379 Q 821.679 277.516 814.773 282.982 Q 807.864 288.449 794.941 300.151 Q 789.187 305.237 780.681 311.338 Q 772.175 317.436 761.501 321.486 Q 750.826 325.539 738.369 325.501 Q 725.917 325.461 712.384 318.655 Q 694.768 309.795 687.514 294.334 Q 680.258 278.869 681.949 260.242 Q 683.641 241.615 692.997 223.012 M 472.902 673.34 L 511.995 595.613 Q 519.428 580.834 528.772 569.567 Q 538.116 558.301 548.603 551.76 Q 559.09 545.219 570.268 544.297 Q 581.448 543.376 592.937 549.153 Q 607.999 556.728 613.982 571.233 C 616.716 577.864 618.104 585.127 618.212 592.993 C 621.53 590.062 624.996 587.374 628.648 584.994 Q 640.545 577.247 654.023 575.566 Q 667.503 573.882 681.799 581.073 Q 699.671 590.062 705.97 604.246 Q 712.27 618.43 708.727 637.563 Q 705.181 656.695 693.261 680.396 L 651.605 763.219 L 472.902 673.34 Z  M 565.572 489.089 L 593.77 433.023 L 708.651 490.803 Q 715.798 494.398 722.504 494.737 Q 729.21 495.077 734.772 491.649 Q 740.337 488.22 744.183 480.574 Q 748.028 472.929 747.462 466.418 Q 746.898 459.908 742.629 454.726 Q 738.356 449.546 731.208 445.951 L 616.329 388.172 L 644.528 332.105 L 764.512 392.451 Q 783.659 402.081 793.666 414.939 Q 803.673 427.795 806.203 442.797 Q 808.734 457.8 805.323 473.805 Q 801.909 489.81 793.963 505.611 Q 786.016 521.411 775.201 533.695 Q 764.386 545.976 750.832 552.888 Q 737.279 559.803 720.992 559.433 Q 704.704 559.066 685.558 549.436 L 565.572 489.089 Z  M 111.701 1400.003 L 288.683 1489.017 L 329.939 1406.99 Q 341.742 1383.519 345.252 1364.571 Q 348.762 1345.622 342.524 1331.574 Q 336.284 1317.528 318.585 1308.627 Q 304.426 1301.505 291.077 1303.171 Q 277.728 1304.838 265.95 1312.51 C 262.332 1314.867 258.898 1317.528 255.611 1320.43 C 255.504 1312.641 254.129 1305.448 251.421 1298.879 Q 245.5 1284.515 230.582 1277.011 Q 219.204 1271.289 208.131 1272.204 Q 197.058 1273.119 186.674 1279.597 Q 176.29 1286.074 167.036 1297.23 Q 157.781 1308.388 150.417 1323.026 L 111.701 1400.003 Z  M 204.112 1216.267 L 381.094 1305.281 L 409.655 1248.493 L 232.673 1159.479 L 204.112 1216.267 Z  M 250.445 1124.145 L 427.427 1213.159 L 456.622 1155.11 L 384.881 1119.028 L 484.548 1099.585 L 518.314 1032.448 L 387.702 1057.832 L 339.428 947.221 L 306.931 1011.833 L 345.144 1099.042 L 279.639 1066.096 L 250.445 1124.145 Z  M 349.584 927.031 L 526.566 1016.044 L 590.67 888.59 L 546.422 866.335 L 508.975 940.79 L 483.693 928.075 L 518.601 858.668 L 475.62 837.05 L 440.711 906.457 L 420.486 896.285 L 457.933 821.83 L 413.688 799.576 L 349.584 927.031 Z  M 543.221 638.461 L 571.303 652.585 L 578.353 638.568 Q 581.557 632.197 581.824 627.221 Q 582.086 622.242 579.793 618.535 Q 577.499 614.827 572.903 612.517 Q 566.01 609.05 560.579 611.906 Q 555.142 614.76 550.272 624.444 L 543.221 638.461 Z  M 181.343 1365.461 L 188.325 1351.578 Q 193.149 1341.988 198.532 1339.162 Q 203.914 1336.334 210.74 1339.767 Q 215.293 1342.057 217.563 1345.728 Q 219.834 1349.4 219.573 1354.328 Q 219.311 1359.256 216.138 1365.567 L 209.156 1379.45 L 181.343 1365.461 Z  M 608.32 671.202 L 637.679 685.969 L 647.292 666.856 Q 650.496 660.486 652.168 654.62 Q 653.837 648.753 652.186 643.77 Q 650.534 638.788 643.384 635.194 Q 639.044 633.011 635.403 633.575 Q 631.76 634.137 628.69 636.743 Q 625.62 639.351 622.995 643.298 Q 620.369 647.246 617.933 652.089 L 608.32 671.202 Z  M 245.816 1397.888 L 255.337 1378.957 Q 257.748 1374.162 260.348 1370.253 Q 262.948 1366.343 265.991 1363.76 Q 269.034 1361.178 272.639 1360.621 Q 276.245 1360.062 280.542 1362.224 Q 287.622 1365.786 289.257 1370.72 Q 290.895 1375.653 289.241 1381.462 Q 287.585 1387.271 284.412 1393.58 L 274.891 1412.511 L 245.816 1397.888 Z " fill="rgb(0,0,0)"/></g></svg>