<?xml version="1.0" encoding="UTF-8" standalone="no"?>
<!-- Generator: Gravit.io -->

<svg
   style="isolation:isolate"
   viewBox="-1023.42 -1503.62 768 234.00002"
   width="1024"
   height="312"
   version="1.1"
   id="svg32"
   xmlns="http://www.w3.org/2000/svg"
   xmlns:svg="http://www.w3.org/2000/svg">
  <defs
     id="defs36" />
  <path
     id="path2"
     style="stroke-width:0.352777;fill:#81ca9f;fill-opacity:1;stroke:none"
     d="M 155.90039 0 C 124.19697 0 94.691892 9.4901372 70.068359 25.783203 C 27.862761 53.710135 0 101.62494 0 156 C 0 242.09893 69.856501 312 155.90039 312 C 209.85609 312 257.43794 284.5066 285.42969 242.77539 L 1024 242.77539 L 1024 60.306641 L 278.94141 60.306641 C 250.40485 23.633617 205.90254 0 155.90039 0 z "
     transform="matrix(0.75000003,0,0,0.75000003,-1023.42,-1503.62)" />
  <path
     id="path6"
     style="stroke-width:0.352777;fill:#3e5062;fill-opacity:1;stroke:none"
     d="M 155.90234 8.9199219 C 136.25969 8.9021885 116.81321 12.836289 98.712891 20.482422 C 81.254985 27.888022 65.393505 38.595971 51.992188 52.023438 C 38.573228 65.433168 27.873323 81.304238 20.472656 98.773438 C 12.83159 116.8765 8.897349 136.34467 8.9160156 156 L 8.9160156 156.00977 C 8.8980156 175.66523 12.83159 195.12376 20.472656 213.22656 C 27.873323 230.69616 38.573228 246.5762 51.992188 259.98633 C 65.393505 273.40499 81.254985 284.11992 98.712891 291.52539 C 116.81321 299.17152 136.25969 303.10318 155.90234 303.08984 C 175.54536 303.09864 194.99089 299.17152 213.08203 291.52539 C 230.5403 284.11992 246.41315 273.40499 259.81445 259.98633 C 265.42849 254.3723 270.53757 248.30405 275.16016 241.88867 C 274.95128 242.17852 274.76958 242.48705 274.55859 242.77539 L 1024 242.77539 L 1024 60.306641 L 267.48633 60.306641 C 267.68659 60.540124 267.85983 60.794606 268.05859 61.029297 C 265.43035 57.925928 262.69868 54.907571 259.81445 52.023438 C 246.41315 38.595971 230.5403 27.888022 213.08203 20.482422 C 194.99089 12.836289 175.54536 8.9025885 155.90234 8.9199219 z M 74.921875 22.703125 C 73.284779 23.701738 71.665128 24.726643 70.068359 25.783203 C 69.882699 25.906052 69.708539 26.044347 69.523438 26.167969 C 71.300221 24.981361 73.094749 23.817653 74.921875 22.703125 z M 136.95312 63.166016 L 156.00391 63.166016 C 159.11329 63.166016 162.09783 64.400809 164.29492 66.599609 C 164.44344 66.747743 164.58705 66.899001 164.72852 67.052734 C 167.6862 66.839401 170.64387 66.684943 173.60156 66.599609 C 175.944 66.527476 178.29669 66.547443 180.62891 66.662109 C 181.52003 66.713976 182.4015 66.776708 183.29297 66.859375 C 184.03909 66.931642 184.78398 67.024005 185.51953 67.138672 C 186.5768 67.294272 187.62369 67.511783 188.66016 67.78125 C 189.57244 68.019783 190.45437 68.322115 191.31445 68.695312 C 191.92616 68.964912 192.52756 69.276106 193.09766 69.628906 C 193.70902 70.002106 194.27817 70.427364 194.80664 70.904297 C 195.50125 71.53683 196.11309 72.241164 196.62109 73.029297 C 197.14956 73.848764 197.56445 74.751315 197.83398 75.695312 C 198.48697 77.883579 198.9225 80.123065 199.15039 82.394531 C 199.3783 84.644931 199.48137 86.906534 199.4707 89.177734 C 199.46012 91.034001 199.40951 92.889427 199.32617 94.746094 C 199.24328 96.58156 199.13966 98.428209 199.02539 100.26367 C 198.91144 102.06807 198.81729 103.8732 198.73438 105.67773 C 198.65144 107.36827 198.61133 109.05897 198.61133 110.75977 C 198.6011 112.38777 198.66212 114.00478 198.79688 115.62305 C 198.92139 117.05385 199.14887 118.47487 199.48047 119.875 C 199.76023 121.71047 200.12409 123.52568 200.54883 125.33008 C 201.04625 127.46661 201.61586 129.5918 202.24805 131.69727 C 202.71442 133.253 203.21177 134.79955 203.74023 136.32422 C 203.99529 137.07209 204.25672 137.81872 204.51953 138.56445 C 208.483 137.48672 212.65294 136.91406 216.95508 136.91406 C 243.26805 136.91406 264.63086 158.29123 264.63086 184.62109 C 264.63086 210.95069 243.26805 232.32812 216.95508 232.32812 C 190.64209 232.32812 169.2793 210.95069 169.2793 184.62109 C 169.2793 168.15176 177.63847 153.62122 190.34375 145.05469 C 189.89502 143.83229 189.45723 142.60793 189.0332 141.375 C 188.50439 139.83407 188.00911 138.28449 187.5332 136.73438 C 184.00438 137.08089 180.48542 137.5085 176.9707 138.02344 C 172.58638 138.66664 168.22227 139.49632 163.90039 140.49219 C 159.98243 141.38405 156.11744 142.47372 152.29297 143.72852 C 148.80012 144.87958 145.36935 146.20707 142.02148 147.71094 C 135.91702 150.43827 130.15393 153.83992 124.81641 157.85352 C 120.90974 160.83698 117.25568 164.13408 113.9043 167.72461 C 121.1941 174.53541 125.75 184.23565 125.75 194.99219 C 125.75 215.59805 109.03054 232.32813 88.4375 232.32812 C 67.844808 232.32813 51.126953 215.59805 51.126953 194.99219 C 51.126953 174.38619 67.844808 157.65625 88.4375 157.65625 C 92.56606 157.65625 96.539623 158.32798 100.24414 159.58984 C 103.19406 156.24731 106.34867 153.09448 109.69336 150.15234 L 96.667969 134.81836 C 91.582329 135.02929 86.491684 135.20844 81.400391 135.35938 C 79.306657 135.41122 77.264559 134.62242 75.761719 133.16016 C 74.258892 131.69789 73.410156 129.68554 73.410156 127.58008 L 73.410156 120.32227 C 73.410156 118.19613 74.280112 116.15172 75.824219 114.68945 C 77.358099 113.21652 79.442094 112.44873 81.556641 112.55273 C 86.32408 112.781 91.070912 113.05153 95.828125 113.3418 C 98.864832 113.52846 101.90078 113.75719 104.9375 114.00586 C 106.87566 114.17199 108.81461 114.34722 110.74219 114.55469 C 112.01712 114.68949 113.29146 114.84548 114.56641 115.02148 C 115.96553 115.21868 117.35412 115.45828 118.73242 115.73828 C 119.63412 115.92495 120.51539 116.17231 121.36523 116.50391 C 121.71766 116.62844 122.04925 116.77409 122.38086 116.92969 C 122.78514 117.12649 123.16812 117.34495 123.54102 117.59375 C 124.38062 118.15388 125.11762 118.84927 125.71875 119.6582 C 126.75522 121.0686 127.31535 122.76882 127.30469 124.52148 C 127.29445 126.37775 126.63 128.18208 125.42773 129.61328 C 124.79556 130.37035 124.02805 131.02375 123.16797 131.52148 C 122.80496 131.73948 122.42299 131.92606 122.0293 132.0918 C 121.69768 132.22686 121.37652 132.35018 121.04492 132.46484 C 120.36088 132.68258 119.67556 132.85934 118.9707 132.99414 C 117.99669 133.17054 117.0232 133.32614 116.04883 133.46094 C 116.00856 133.46227 115.968 133.47656 115.92773 133.47656 L 122.14258 140.79297 C 126.46199 138.03884 130.98344 135.60661 135.66797 133.51367 C 139.51325 131.79207 143.43115 130.26615 147.43164 128.94922 C 151.70167 127.53882 156.034 126.33621 160.41797 125.33008 C 165.14413 124.24114 169.9121 123.33801 174.71094 122.63281 C 177.7741 122.18268 180.84299 121.79322 183.91992 121.48242 C 183.63558 119.96936 183.43007 118.44487 183.30273 116.9082 C 183.13688 114.84447 183.05379 112.77076 183.06445 110.70703 C 183.06445 108.7781 183.11552 106.85981 183.20898 104.94141 C 183.29189 103.06421 183.39577 101.18579 183.50977 99.308594 C 183.61347 97.545527 183.71758 95.783232 183.80078 94.009766 C 183.87305 92.371099 183.91316 90.731916 183.92383 89.103516 C 183.93441 87.371649 183.85182 85.650786 183.67578 83.939453 C 183.63415 83.472653 183.57121 83.016947 183.48828 82.560547 C 183.39515 82.551214 183.29123 82.532865 183.1875 82.519531 C 182.73135 82.447531 182.27645 82.385083 181.82031 82.34375 C 181.15709 82.281083 180.50307 82.238599 179.83984 82.197266 C 177.9225 82.103932 176.00524 82.083818 174.08789 82.146484 C 170.98309 82.242751 167.88825 82.409724 164.79297 82.650391 C 164.63386 82.833057 164.46743 83.009107 164.29492 83.181641 C 162.09783 85.380174 159.11329 86.615234 156.00391 86.615234 L 136.95312 86.615234 C 133.84376 86.615234 130.8592 85.380174 128.66211 83.181641 C 126.46466 80.983107 125.23047 77.997919 125.23047 74.886719 C 125.23047 71.785786 126.46466 68.798143 128.66211 66.599609 C 130.8592 64.400809 133.84376 63.166016 136.95312 63.166016 z M 280.30469 77.748047 C 280.49568 78.051229 280.71746 78.334086 280.90625 78.638672 L 689.49414 78.638672 L 689.49414 224.44336 L 286.00977 224.44336 C 285.9183 224.61689 285.80894 224.78 285.7168 224.95312 C 287.7505 221.13088 289.63779 217.22593 291.33203 213.22656 C 298.9732 195.12376 302.89801 175.66424 302.88867 156.01758 L 302.88867 156.00391 L 302.88867 155.99219 C 302.8975 136.33686 298.9732 116.8765 291.33203 98.773438 C 288.23235 91.456577 284.52045 84.44106 280.30469 77.748047 z M 948.09766 102.41406 C 954.90203 102.41406 960.73902 103.44913 965.60547 105.51758 C 970.47191 107.58602 974.47542 110.17255 977.61914 113.27539 C 980.7631 116.37797 983.1546 119.47928 984.79102 122.58203 L 963.73242 134.21875 C 962.35424 132.06399 960.82399 130.36111 959.14453 129.11133 C 957.46484 127.86182 955.76351 126.93559 954.04102 126.33203 C 952.31829 125.72883 950.64032 125.42578 949.00391 125.42578 C 947.7118 125.42578 946.54903 125.57722 945.51562 125.87891 C 944.482 126.18042 943.68497 126.63277 943.125 127.23633 C 942.56526 127.83953 942.28516 128.65905 942.28516 129.69336 C 942.28516 131.07229 942.80229 132.25694 943.83594 133.24805 C 944.86934 134.23907 946.26743 135.12253 948.0332 135.89844 C 949.79897 136.67408 951.84441 137.44896 954.16992 138.22461 C 956.49543 139.00025 958.99401 139.86255 961.66406 140.81055 C 965.28168 142.10335 968.5113 143.63346 971.35352 145.40039 C 974.19596 147.16715 976.63029 149.2139 978.6543 151.54102 C 980.6783 153.86795 982.2066 156.4759 983.24023 159.36328 C 984.27388 162.25039 984.79102 165.46045 984.79102 168.99414 C 984.79102 173.99298 983.75673 178.40894 981.68945 182.24414 C 979.62241 186.07952 976.84569 189.2468 973.35742 191.74609 C 969.86892 194.24565 965.92772 196.14275 961.53516 197.43555 C 957.14237 198.72835 952.61977 199.375 947.96875 199.375 C 941.50892 199.375 935.50281 198.31876 929.94727 196.20703 C 924.39173 194.09556 919.58902 191.18651 915.54102 187.48047 C 911.49278 183.77442 908.43447 179.63805 906.36719 175.07031 L 925.48828 161.10742 C 927.21102 164.12387 929.19221 166.73182 931.43164 168.92969 C 933.67107 171.1272 936.1054 172.78554 938.73242 173.90625 C 941.35944 175.02661 944.00768 175.58789 946.67773 175.58789 C 948.22808 175.58789 949.6067 175.39368 950.8125 175.00586 C 952.01829 174.61786 952.9652 173.99264 953.6543 173.13086 C 954.34339 172.2689 954.6875 171.19124 954.6875 169.89844 C 954.6875 168.69195 954.27914 167.65881 953.46094 166.79688 C 952.64272 165.93519 951.02706 164.94289 948.61523 163.82227 C 946.20364 162.70182 942.5423 161.19492 937.63281 159.29883 C 935.47945 158.43714 933.00425 157.27189 930.20508 155.80664 C 927.40567 154.34149 924.73625 152.44634 922.19531 150.11914 C 919.65461 147.79221 917.54298 144.94718 915.86328 141.58594 C 914.18383 138.22469 913.34375 134.26118 913.34375 129.69336 C 913.34375 123.74652 914.93824 118.74811 918.125 114.69727 C 921.312 110.64642 925.53307 107.58602 930.78711 105.51758 C 936.04114 103.44913 941.81022 102.41406 948.09766 102.41406 z M 721.09961 105 L 760.50391 105 C 765.49948 105 770.15033 105.49522 774.45703 106.48633 C 778.76351 107.47762 782.51027 108.9437 785.69727 110.88281 C 788.88402 112.82219 791.36118 115.23594 793.12695 118.12305 C 794.89249 121.01042 795.77539 124.39335 795.77539 128.27148 C 795.77539 133.35673 794.22568 137.68705 791.125 141.26367 C 788.99833 143.71685 786.34155 145.75415 783.18164 147.39648 C 785.04268 148.14204 786.83527 148.99785 788.54102 149.99023 C 792.24448 152.14499 795.23683 154.92388 797.51953 158.32812 C 799.80177 161.73248 800.94336 165.84734 800.94336 170.67383 C 800.94336 176.70672 799.45766 181.5343 796.48633 185.1543 C 793.51476 188.77403 789.20802 191.40146 783.56641 193.03906 C 777.92479 194.67666 771.09806 195.49609 763.08789 195.49609 L 721.09961 195.49609 L 721.09961 105 z M 814.50781 105 L 842.93164 105 L 842.93164 163.17578 C 842.93164 165.58903 843.34194 167.72311 844.16016 169.57617 C 844.97836 171.42915 846.22679 172.87185 847.90625 173.90625 C 849.58595 174.94029 851.71681 175.45703 854.30078 175.45703 C 856.88452 175.45703 859.01757 174.94029 860.69727 173.90625 C 862.37672 172.87185 863.62491 171.42915 864.44336 169.57617 C 865.26156 167.72311 865.67187 165.58903 865.67188 163.17578 L 865.67188 105 L 894.09375 105 L 894.09375 165.76172 C 894.09375 172.22572 893.04001 177.67657 890.92969 182.11523 C 888.81961 186.5539 885.91268 190.13095 882.20898 192.8457 C 878.50529 195.56064 874.2628 197.54319 869.48242 198.79297 C 864.70229 200.04257 859.6409 200.66797 854.30078 200.66797 C 848.96043 200.66797 843.90124 200.04257 839.12109 198.79297 C 834.34073 197.54319 830.09823 195.56064 826.39453 192.8457 C 822.69106 190.13095 819.78414 186.5539 817.67383 182.11523 C 815.56351 177.67657 814.50781 172.22572 814.50781 165.76172 L 814.50781 105 z M 353.57617 106.72852 L 353.57617 196.35352 L 395.16016 196.35352 C 403.09319 196.35352 409.85412 195.54179 415.44141 193.91992 C 421.0287 192.29814 425.29346 189.69435 428.23633 186.10938 C 431.1792 182.52449 432.65039 177.74446 432.65039 171.76953 C 432.65039 166.98971 431.52037 162.91435 429.25977 159.54297 C 426.9994 156.17132 424.03513 153.41902 420.36719 151.28516 C 418.67949 150.30336 416.91152 149.44882 415.07031 148.71094 C 418.19487 147.0854 420.82208 145.06928 422.92578 142.64258 C 425.99659 139.10018 427.53125 134.81112 427.53125 129.77539 C 427.53125 125.93432 426.6568 122.58399 424.9082 119.72461 C 423.15936 116.86523 420.70696 114.47522 417.55078 112.55469 C 414.39483 110.63415 410.685 109.18286 406.41992 108.20117 C 402.15484 107.21957 397.54891 106.72852 392.60156 106.72852 L 353.57617 106.72852 z M 446.72461 106.72852 L 446.72461 196.35352 L 475.51367 196.35352 L 475.51367 106.72852 L 446.72461 106.72852 z M 493.42773 106.72852 L 493.42773 196.35352 L 522.85547 196.35352 L 522.85547 160.02344 L 551.00391 196.35352 L 585.04102 196.35352 L 548.18945 148.72461 L 583.12109 106.72852 L 550.36523 106.72852 L 522.85547 139.90039 L 522.85547 106.72852 L 493.42773 106.72852 z M 593.35742 106.72852 L 593.35742 196.35352 L 620.22656 196.35352 L 657.97266 196.35352 L 657.97266 173.94727 L 620.22656 173.94727 L 620.22656 161.14453 L 655.41406 161.14453 L 655.41406 139.37695 L 620.22656 139.37695 L 620.22656 129.13477 L 657.97266 129.13477 L 657.97266 106.72852 L 620.22656 106.72852 L 593.35742 106.72852 z M 749.52344 126.33203 L 749.52344 140.55273 L 756.62891 140.55273 C 758.78226 140.55273 760.54759 140.24968 761.92578 139.64648 C 763.30373 139.0432 764.3363 138.18286 765.02539 137.0625 C 765.71448 135.94206 766.06055 134.60598 766.06055 133.05469 C 766.06055 130.72749 765.30613 129.0246 763.79883 127.94727 C 762.29152 126.86984 759.90197 126.33203 756.62891 126.33203 L 749.52344 126.33203 z M 381.72461 127.85547 L 388.76367 127.85547 C 392.005 127.85547 394.37056 128.38832 395.86328 129.45508 C 397.35624 130.5221 398.10352 132.20905 398.10352 134.51367 C 398.10352 136.05012 397.76258 137.37282 397.08008 138.48242 C 396.39756 139.59202 395.37259 140.44555 394.00781 141.04297 C 392.64303 141.64057 390.8961 141.93945 388.76367 141.93945 L 381.72461 141.93945 L 381.72461 127.85547 z M 216.95508 152.46875 C 214.75621 152.46875 212.57921 152.695 210.46289 153.1582 C 211.74418 156.02727 213.08038 158.87105 214.4668 161.68945 C 215.25349 163.28919 216.05135 164.88257 216.86133 166.4707 C 216.89239 166.4711 216.92401 166.4707 216.95508 166.4707 C 221.76414 166.4707 226.37603 168.3911 229.77539 171.79297 C 233.17511 175.19444 235.09375 179.80883 235.09375 184.62109 C 235.09375 189.43296 233.17511 194.04735 229.77539 197.44922 C 226.37603 200.85069 221.76414 202.76953 216.95508 202.76953 C 212.14601 202.76953 207.53449 200.85069 204.13477 197.44922 C 200.73541 194.04735 198.81836 189.43296 198.81836 184.62109 C 198.81836 180.45549 200.25464 176.43715 202.85742 173.23438 L 202.85742 173.23242 C 202.06861 171.67816 201.28875 170.11922 200.51758 168.55469 C 199.11316 165.69549 197.75378 162.81341 196.44922 159.90234 C 195.67417 160.51301 194.94082 161.18219 194.23633 161.88672 C 188.21477 167.91245 184.82617 176.09421 184.82617 184.61914 C 184.82617 193.14407 188.21477 201.32623 194.23633 207.35156 C 200.25825 213.37703 208.43585 216.76953 216.95508 216.76953 C 225.47465 216.76953 233.65226 213.37703 239.67383 207.35156 C 245.69573 201.32623 249.08398 193.14407 249.08398 184.61914 C 249.08398 176.09421 245.69573 167.91245 239.67383 161.88672 C 233.65226 155.86125 225.47465 152.46875 216.95508 152.46875 z M 749.52344 159.29883 L 749.52344 174.16406 L 759.21289 174.16406 C 761.36624 174.16406 763.34767 173.99297 765.15625 173.64844 C 766.96506 173.30364 768.42911 172.57153 769.54883 171.45117 C 770.66854 170.33073 771.22852 168.56363 771.22852 166.15039 C 771.22852 164.68524 770.90387 163.49882 770.25781 162.59375 C 769.61199 161.68877 768.73104 160.99926 767.61133 160.52539 C 766.49161 160.05126 765.22005 159.72909 763.79883 159.55664 C 762.3776 159.38429 760.84931 159.29883 759.21289 159.29883 L 749.52344 159.29883 z M 381.72461 160.50391 L 391.32227 160.50391 C 392.94292 160.50391 394.45593 160.58928 395.86328 160.75977 C 397.27086 160.93052 398.52977 161.24933 399.63867 161.71875 C 400.74757 162.18835 401.62201 162.87149 402.26172 163.76758 C 402.90143 164.66384 403.2207 165.83795 403.2207 167.28906 C 403.2207 169.67902 402.66749 171.42946 401.55859 172.53906 C 400.4497 173.64866 398.9982 174.37333 397.20703 174.71484 C 395.41563 175.05609 393.45469 175.22656 391.32227 175.22656 L 381.72461 175.22656 L 381.72461 160.50391 z M 88.4375 173.21289 C 82.664647 173.21289 77.130635 175.50553 73.046875 179.5918 C 68.963475 183.67806 66.673828 189.21552 66.673828 194.99219 C 66.673828 200.76859 68.963475 206.30671 73.046875 210.39258 C 77.130635 214.47884 82.664647 216.77148 88.4375 216.77148 C 94.2107 216.77148 99.744735 214.47884 103.82812 210.39258 C 107.91187 206.30671 110.20312 200.76859 110.20312 194.99219 C 110.20312 189.21552 107.91187 183.67806 103.82812 179.5918 C 99.744735 175.50553 94.2107 173.21289 88.4375 173.21289 z "
     transform="matrix(0.75000003,0,0,0.75000003,-1023.42,-1503.62)" />
</svg>
