<?xml version="1.0" encoding="UTF-8" standalone="no"?>
<!-- Generator: Gravit.io -->

<svg
   style="isolation:isolate"
   viewBox="-1023.42 -1503.62 2902.68 884.41"
   width="2902.68pt"
   height="884.41pt"
   version="1.1"
   id="svg404"
   xmlns="http://www.w3.org/2000/svg"
   xmlns:svg="http://www.w3.org/2000/svg">
  <defs
     id="defs408" />
  <path
     id="path374"
     fill="#000000"
     style="stroke-width:1.33333;"
     d="M 589.23633 -0.001953125 C 469.41233 -0.001953125 357.89541 35.867266 264.83008 97.447266 C 105.31274 202.99793 0.005859375 384.09347 0.005859375 589.60547 C 0.005859375 915.0188 264.03099 1179.2129 589.23633 1179.2129 C 793.16434 1179.2129 973.00141 1075.2997 1078.7969 917.57422 L 3870.2422 917.57422 L 3870.2422 227.93164 L 1054.2754 227.93164 C 946.42071 89.323563 778.22202 -0.001953125 589.23633 -0.001953125 z M 517.62305 238.74023 L 589.62305 238.74023 C 601.37505 238.74023 612.65694 243.40418 620.96094 251.71484 C 621.52227 252.27484 622.06494 252.85031 622.59961 253.43164 C 633.77828 252.62497 644.95805 252.03618 656.13672 251.71484 C 664.99005 251.44018 673.88065 251.51855 682.69531 251.94922 C 686.06331 252.14522 689.39239 252.38065 692.76172 252.69531 C 695.58172 252.96865 698.40359 253.32129 701.18359 253.75195 C 705.17959 254.33995 709.1354 255.16493 713.05273 256.18359 C 716.50073 257.08493 719.83136 258.22215 723.08203 259.63281 C 725.39403 260.65148 727.66565 261.82682 729.82031 263.16016 C 732.13098 264.57082 734.28587 266.1778 736.2832 267.98047 C 738.90854 270.37114 741.21867 273.03697 743.13867 276.01562 C 745.13601 279.11298 746.70204 282.52184 747.7207 286.08984 C 750.1887 294.36051 751.83398 302.82678 752.69531 311.41211 C 753.55665 319.91744 753.94882 328.46286 753.91016 337.04688 C 753.87016 344.06286 753.67599 351.07837 753.36133 358.0957 C 753.04799 365.03304 752.65661 372.00993 752.22461 378.94727 C 751.79394 385.76727 751.44224 392.59016 751.12891 399.41016 C 750.81557 405.79949 750.6582 412.18723 750.6582 418.61523 C 750.61954 424.76857 750.85395 430.884 751.36328 437 C 751.83395 442.408 752.69589 447.77831 753.94922 453.07031 C 755.00655 460.00765 756.37904 466.8675 757.98438 473.6875 C 759.86437 481.76217 762.01887 489.79657 764.4082 497.75391 C 766.17087 503.63391 768.05149 509.47561 770.04883 515.23828 C 771.01283 518.06495 771.99885 520.88446 772.99219 523.70312 C 787.97219 519.62981 803.73414 517.4707 819.99414 517.4707 C 919.44481 517.4707 1000.1855 598.26463 1000.1855 697.7793 C 1000.1855 797.29263 919.44481 878.08594 819.99414 878.08594 C 720.54347 878.08594 639.80078 797.29263 639.80078 697.7793 C 639.80078 635.53263 671.39211 580.60976 719.41211 548.23242 C 717.71611 543.61242 716.06751 538.98617 714.46484 534.32617 C 712.46618 528.50217 710.59164 522.64578 708.79297 516.78711 C 695.45564 518.09644 682.15119 519.71935 668.86719 521.66602 C 652.29652 524.09668 635.80732 527.23014 619.47266 530.99414 C 604.66466 534.36481 590.05428 538.48194 575.59961 543.22461 C 562.39828 547.57528 549.43263 552.59139 536.7793 558.27539 C 513.7073 568.58339 491.92724 581.44199 471.75391 596.61133 C 456.98857 607.88733 443.17448 620.3473 430.50781 633.91797 C 458.05981 659.6593 475.2793 696.3219 475.2793 736.97656 C 475.2793 814.85656 412.08981 878.08594 334.25781 878.08594 C 256.42715 878.08594 193.24023 814.85656 193.24023 736.97656 C 193.24023 659.09523 256.42715 595.86523 334.25781 595.86523 C 349.86181 595.86523 364.87757 598.40645 378.87891 603.17578 C 390.02824 590.54245 401.95632 578.62586 414.59766 567.50586 L 365.36719 509.54883 C 346.14585 510.34616 326.90478 511.02113 307.66211 511.5918 C 299.74878 511.7878 292.03156 508.80792 286.35156 503.28125 C 280.67156 497.75458 277.46094 490.15069 277.46094 482.19336 L 277.46094 454.75586 C 277.46094 446.71986 280.74994 438.99932 286.58594 433.47266 C 292.38327 427.90599 300.258 425.00448 308.25 425.39648 C 326.26867 426.25915 344.20945 427.27962 362.18945 428.37695 C 373.66679 429.08229 385.14376 429.94477 396.62109 430.88477 C 403.94643 431.51277 411.27131 432.17889 418.55664 432.96289 C 423.37531 433.47222 428.19305 434.05928 433.01172 434.72461 C 438.29972 435.46994 443.54848 436.37297 448.75781 437.43164 C 452.16581 438.13697 455.49698 439.07674 458.70898 440.33008 C 460.04098 440.80074 461.29549 441.35145 462.54883 441.93945 C 464.07683 442.68345 465.52621 443.50727 466.93555 444.44727 C 470.10888 446.5646 472.89011 449.18876 475.16211 452.24609 C 479.07944 457.57676 481.19296 464.00686 481.1543 470.63086 C 481.11563 477.64686 478.60845 484.46762 474.06445 489.87695 C 471.67512 492.73829 468.77606 495.20656 465.52539 497.08789 C 464.15339 497.91189 462.7048 498.61747 461.2168 499.24414 C 459.96346 499.75481 458.74747 500.22425 457.49414 500.65625 C 454.90881 501.47892 452.32416 502.14496 449.66016 502.6543 C 445.97882 503.32096 442.29595 503.90864 438.61328 504.41797 C 438.46128 504.43664 438.30825 504.4579 438.15625 504.47656 L 461.64844 532.13281 C 477.97377 521.72348 495.06224 512.5259 512.76758 504.61523 C 527.30091 498.10857 542.10656 492.34452 557.22656 487.36719 C 573.36523 482.03652 589.73926 477.49017 606.30859 473.6875 C 624.17126 469.5715 642.19079 466.16338 660.32812 463.49805 C 671.90548 461.79671 683.50934 460.3231 695.13867 459.14844 C 694.06401 453.42977 693.28211 447.66736 692.80078 441.85938 C 692.17411 434.05937 691.86039 426.21992 691.90039 418.41992 C 691.90039 411.12926 692.09589 403.87762 692.44922 396.62695 C 692.76255 389.53229 693.15527 382.43646 693.58594 375.3418 C 693.97794 368.6778 694.36893 362.01517 694.68359 355.3125 C 694.95693 349.11917 695.11368 342.92615 695.15234 336.77148 C 695.19234 330.22615 694.87822 323.71995 694.21289 317.25195 C 694.05556 315.48795 693.81919 313.7644 693.50586 312.03906 C 693.15386 312.0004 692.76309 311.92086 692.37109 311.88086 C 690.64709 311.60753 688.92322 311.3728 687.19922 311.2168 C 684.69255 310.9808 682.22542 310.82335 679.71875 310.66602 C 672.47208 310.31402 665.22323 310.23604 657.97656 310.4707 C 646.2419 310.8347 634.54046 311.46762 622.8418 312.37695 C 622.24046 313.06762 621.61294 313.73863 620.96094 314.39062 C 612.65694 322.69997 601.37505 327.36523 589.62305 327.36523 L 517.62305 327.36523 C 505.87105 327.36523 494.59111 322.69997 486.28711 314.39062 C 477.98178 306.0813 473.32031 294.79187 473.32031 283.0332 C 473.32031 271.3132 477.98178 260.02418 486.28711 251.71484 C 494.59111 243.40418 505.87105 238.74023 517.62305 238.74023 z M 1100.7246 297.21484 L 2605.9688 297.21484 L 2605.9688 848.29102 L 1118.7051 848.29102 C 1156.9347 770.16384 1178.4648 682.39282 1178.4648 589.60547 C 1178.4648 483.20019 1150.092 383.43303 1100.7246 297.21484 z M 3583.3711 387.07812 C 3609.0884 387.07812 3631.1423 390.98691 3649.5352 398.80469 C 3667.928 406.62247 3683.0655 416.39594 3694.9473 428.12305 C 3706.8299 439.84927 3715.8639 451.57562 3722.0488 463.30273 L 3642.4551 507.2793 C 3637.2462 499.1353 3631.4686 492.70012 3625.1211 487.97656 C 3618.7726 483.2539 3612.3442 479.75355 3605.834 477.47266 C 3599.3229 475.19266 3592.974 474.05273 3586.7891 474.05273 C 3581.9055 474.05273 3577.5112 474.62127 3573.6055 475.76172 C 3569.6988 476.90127 3566.6868 478.61169 3564.5703 480.89258 C 3562.4548 483.17258 3561.3965 486.2684 3561.3965 490.17773 C 3561.3965 495.38929 3563.3511 499.8675 3567.2578 503.61328 C 3571.1636 507.35906 3576.4532 510.69841 3583.127 513.63086 C 3589.8007 516.56241 3597.5329 519.49423 3606.3223 522.42578 C 3615.1116 525.35734 3624.551 528.61415 3634.6426 532.19727 C 3648.3155 537.08349 3660.5234 542.8667 3671.2656 549.54492 C 3682.0087 556.22226 3691.2057 563.95835 3698.8555 572.75391 C 3706.5052 581.54857 3712.2828 591.40156 3716.1895 602.31445 C 3720.0961 613.22645 3722.0488 625.36124 3722.0488 638.7168 C 3722.0488 657.61013 3718.1434 674.30372 3710.3301 688.79883 C 3702.5176 703.29483 3692.018 715.26667 3678.834 724.71289 C 3665.6491 734.16 3650.7561 741.32667 3634.1543 746.21289 C 3617.5516 751.09911 3600.4615 753.54102 3582.8828 753.54102 C 3558.4677 753.54102 3535.761 749.54969 3514.7637 741.56836 C 3493.7663 733.58791 3475.6179 722.595 3460.3184 708.58789 C 3445.0179 694.58078 3433.4618 678.94564 3425.6484 661.68164 L 3497.918 608.91016 C 3504.4291 620.31105 3511.9169 630.16599 3520.3809 638.47266 C 3528.8449 646.77843 3538.0398 653.04765 3547.9688 657.2832 C 3557.8974 661.51787 3567.9084 663.63672 3578 663.63672 C 3583.8596 663.63672 3589.0677 662.90328 3593.625 661.4375 C 3598.1823 659.97083 3601.7627 657.60845 3604.3672 654.35156 C 3606.9716 651.09378 3608.2754 647.02294 3608.2754 642.13672 C 3608.2754 637.57672 3606.7292 633.66793 3603.6367 630.41016 C 3600.5443 627.15327 3594.4398 623.40548 3585.3242 619.16992 C 3576.2096 614.93526 3562.3739 609.23458 3543.8184 602.06836 C 3535.6797 598.81147 3526.3217 594.41473 3515.7422 588.87695 C 3505.1617 583.33918 3495.0684 576.17251 3485.4648 567.37695 C 3475.8622 558.58229 3467.8875 547.83291 3461.5391 535.12891 C 3455.1915 522.42491 3452.0176 507.44173 3452.0176 490.17773 C 3452.0176 467.70129 3458.0395 448.80827 3470.084 433.49805 C 3482.1293 418.18782 3498.0817 406.62247 3517.9395 398.80469 C 3537.7972 390.98691 3559.6075 387.07812 3583.3711 387.07812 z M 2725.4219 396.85156 L 2874.3535 396.85156 C 2893.2344 396.85156 2910.8125 398.72297 2927.0898 402.46875 C 2943.3663 406.21542 2957.5289 411.75314 2969.5742 419.08203 C 2981.6187 426.41181 2990.9766 435.53331 2997.6504 446.44531 C 3004.3233 457.3582 3007.6602 470.143 3007.6602 484.80078 C 3007.6602 504.02034 3001.8011 520.38998 2990.082 533.9082 C 2982.0436 543.18073 2972.0028 550.88245 2960.0586 557.08984 C 2967.0932 559.90788 2973.8688 563.13754 2980.3164 566.88867 C 2994.3137 575.03267 3005.6264 585.53958 3014.2539 598.40625 C 3022.8797 611.27292 3027.1914 626.82658 3027.1914 645.06836 C 3027.1914 667.87014 3021.5759 686.11119 3010.3457 699.79297 C 2999.1146 713.47386 2982.8383 723.41028 2961.5156 729.59961 C 2940.193 735.78894 2914.3938 738.88281 2884.1191 738.88281 L 2725.4219 738.88281 L 2725.4219 396.85156 z M 3078.4648 396.85156 L 3185.8926 396.85156 L 3185.8926 616.72852 C 3185.8926 625.8494 3187.4389 633.91051 3190.5312 640.91406 C 3193.6238 647.91762 3198.3439 653.37387 3204.6914 657.2832 C 3211.0399 661.19165 3219.0971 663.14648 3228.8633 663.14648 C 3238.6286 663.14648 3246.6848 661.19165 3253.0332 657.2832 C 3259.3808 653.37387 3264.102 647.91762 3267.1953 640.91406 C 3270.2878 633.91051 3271.834 625.8494 3271.834 616.72852 L 3271.834 396.85156 L 3379.2598 396.85156 L 3379.2598 626.5 C 3379.2598 650.93111 3375.2729 671.53455 3367.2969 688.31055 C 3359.3218 705.08655 3348.3342 718.60479 3334.3359 728.86523 C 3320.3377 739.12657 3304.3058 746.61824 3286.2383 751.3418 C 3268.1716 756.06446 3249.0464 758.42578 3228.8633 758.42578 C 3208.6793 758.42578 3189.553 756.06446 3171.4863 751.3418 C 3153.4188 746.61824 3137.3869 739.12657 3123.3887 728.86523 C 3109.3913 718.60479 3098.4037 705.08655 3090.4277 688.31055 C 3082.4517 671.53455 3078.4648 650.93111 3078.4648 626.5 L 3078.4648 396.85156 z M 1336.3555 403.38477 L 1336.3555 742.11914 L 1493.5234 742.11914 C 1523.5065 742.11914 1549.0565 739.05556 1570.1738 732.92578 C 1591.2912 726.796 1607.4125 716.95558 1618.5352 703.40625 C 1629.6578 689.85692 1635.2187 671.79121 1635.2188 649.20898 C 1635.2188 631.14321 1630.9463 615.74027 1622.4023 602.99805 C 1613.8592 590.25494 1602.6561 579.85005 1588.793 571.78516 C 1582.4146 568.07451 1575.732 564.8474 1568.7734 562.05859 C 1580.5842 555.91458 1590.5131 548.29387 1598.4648 539.12109 C 1610.0711 525.73265 1615.875 509.52312 1615.875 490.49023 C 1615.875 475.9729 1612.5698 463.30906 1605.9609 452.50195 C 1599.3512 441.69484 1590.0832 432.66296 1578.1543 425.4043 C 1566.2263 418.14563 1552.202 412.66139 1536.082 408.95117 C 1519.962 405.24095 1502.5522 403.38477 1483.8535 403.38477 L 1336.3555 403.38477 z M 1688.4141 403.38477 L 1688.4141 742.11914 L 1797.2227 742.11914 L 1797.2227 403.38477 L 1688.4141 403.38477 z M 1864.9258 403.38477 L 1864.9258 742.11914 L 1976.1543 742.11914 L 1976.1543 604.81445 L 2082.5449 742.11914 L 2211.1816 742.11914 L 2071.9062 562.10742 L 2203.9258 403.38477 L 2080.127 403.38477 L 1976.1543 528.75586 L 1976.1543 403.38477 L 1864.9258 403.38477 z M 2242.6152 403.38477 L 2242.6152 742.11914 L 2344.1699 742.11914 L 2486.8301 742.11914 L 2486.8301 657.43555 L 2344.1699 657.43555 L 2344.1699 609.04492 L 2477.1582 609.04492 L 2477.1582 526.78125 L 2344.1699 526.78125 L 2344.1699 488.06836 L 2486.8301 488.06836 L 2486.8301 403.38477 L 2344.1699 403.38477 L 2242.6152 403.38477 z M 2832.8477 477.47266 L 2832.8477 531.2207 L 2859.7031 531.2207 C 2867.8418 531.2207 2874.5157 530.08078 2879.7246 527.80078 C 2884.9326 525.52078 2888.8389 522.26201 2891.4434 518.02734 C 2894.0478 513.79268 2895.3516 508.74397 2895.3516 502.88086 C 2895.3516 494.0853 2892.5016 487.65208 2886.8047 483.58008 C 2881.1078 479.50808 2872.0738 477.47266 2859.7031 477.47266 L 2832.8477 477.47266 z M 1442.7461 483.23047 L 1469.3457 483.23047 C 1481.5964 483.23047 1490.5418 485.2473 1496.1836 489.2793 C 1501.8263 493.31219 1504.6484 499.68236 1504.6484 508.39258 C 1504.6484 514.19969 1503.3589 519.20075 1500.7793 523.39453 C 1498.1997 527.58831 1494.3301 530.81449 1489.1719 533.07227 C 1484.0137 535.33093 1477.4053 536.46094 1469.3457 536.46094 L 1442.7461 536.46094 L 1442.7461 483.23047 z M 819.99414 576.25977 C 811.68347 576.25977 803.45765 577.11457 795.45898 578.86523 C 800.30165 589.70923 805.3518 600.45542 810.5918 611.10742 C 813.56513 617.15409 816.57931 623.18093 819.64062 629.18359 C 819.75797 629.18493 819.87681 629.18359 819.99414 629.18359 C 838.17014 629.18359 855.60122 636.43564 868.44922 649.29297 C 881.29855 662.14897 888.54492 679.5913 888.54492 697.7793 C 888.54492 715.96596 881.29855 733.4083 868.44922 746.26562 C 855.60122 759.12163 838.17014 766.37305 819.99414 766.37305 C 801.81814 766.37305 784.38644 759.12162 771.53711 746.26562 C 758.68911 733.40831 751.44336 715.96596 751.44336 697.7793 C 751.44336 682.0353 756.8736 666.84752 766.71094 654.74219 L 766.71094 654.73633 C 763.7296 648.86166 760.78185 642.96802 757.86719 637.05469 C 752.55919 626.24802 747.42481 615.35423 742.49414 604.35156 C 739.56481 606.65956 736.79157 609.1889 734.12891 611.85156 C 711.37024 634.62623 698.56055 665.55148 698.56055 697.77148 C 698.56055 729.99148 711.37024 760.91807 734.12891 783.69141 C 756.88891 806.46474 787.79547 819.2832 819.99414 819.2832 C 852.19414 819.2832 883.10071 806.46474 905.85938 783.69141 C 928.61937 760.91807 941.42773 729.99148 941.42773 697.77148 C 941.42773 665.55148 928.61937 634.62623 905.85938 611.85156 C 883.10071 589.07823 852.19414 576.25977 819.99414 576.25977 z M 2832.8477 602.06836 L 2832.8477 658.25977 L 2869.4707 658.25977 C 2877.6094 658.25977 2885.0961 657.60886 2891.9316 656.30664 C 2898.7681 655.00353 2904.3032 652.23467 2908.5352 648 C 2912.7672 643.76533 2914.8828 637.08769 2914.8828 627.9668 C 2914.8828 622.42902 2913.6625 617.94974 2911.2207 614.5293 C 2908.7798 611.10885 2905.4429 608.504 2901.2109 606.71289 C 2896.9789 604.92089 2892.1762 603.69843 2886.8047 603.04688 C 2881.4331 602.39531 2875.6556 602.06836 2869.4707 602.06836 L 2832.8477 602.06836 z M 1442.7461 606.62695 L 1479.0176 606.62695 C 1485.1429 606.62695 1490.8645 606.94931 1496.1836 607.59375 C 1501.5036 608.23908 1506.2601 609.44843 1510.4512 611.22266 C 1514.6423 612.99777 1517.9455 615.57818 1520.3633 618.96484 C 1522.7811 622.3524 1523.9902 626.78899 1523.9902 632.27344 C 1523.9902 641.30633 1521.8942 647.9195 1517.7031 652.11328 C 1513.512 656.30706 1508.0315 659.04918 1501.2617 660.33984 C 1494.4911 661.62962 1487.0771 662.27539 1479.0176 662.27539 L 1442.7461 662.27539 L 1442.7461 606.62695 z M 334.25781 654.66211 C 312.43915 654.66211 291.52256 663.32358 276.08789 678.76758 C 260.65456 694.21158 251.99805 715.14323 251.99805 736.97656 C 251.99805 758.80856 260.65456 779.74093 276.08789 795.18359 C 291.52256 810.62759 312.43915 819.28906 334.25781 819.28906 C 356.07781 819.28906 376.99635 810.62759 392.42969 795.18359 C 407.86435 779.74093 416.51953 758.80856 416.51953 736.97656 C 416.51953 715.14323 407.86435 694.21158 392.42969 678.76758 C 376.99635 663.32358 356.07781 654.66211 334.25781 654.66211 z "
     transform="matrix(0.75,0,0,0.75,-1023.42,-1503.62)" />
</svg>
