<?xml version="1.0" encoding="UTF-8" standalone="no"?>
<!-- Created with Inkscape (http://www.inkscape.org/) -->

<svg
   width="210mm"
   height="297mm"
   viewBox="0 0 210 297"
   version="1.1"
   id="svg1"
   inkscape:version="1.3.2 (091e20e, 2023-11-25)"
   sodipodi:docname="join-us-master.svg"
   xmlns:inkscape="http://www.inkscape.org/namespaces/inkscape"
   xmlns:sodipodi="http://sodipodi.sourceforge.net/DTD/sodipodi-0.dtd"
   xmlns="http://www.w3.org/2000/svg"
   xmlns:svg="http://www.w3.org/2000/svg">
  <sodipodi:namedview
     id="namedview1"
     pagecolor="#ffffff"
     bordercolor="#000000"
     borderopacity="0.25"
     inkscape:showpageshadow="2"
     inkscape:pageopacity="0.0"
     inkscape:pagecheckerboard="0"
     inkscape:deskcolor="#d1d1d1"
     inkscape:document-units="mm"
     inkscape:zoom="0.4204826"
     inkscape:cx="359.11117"
     inkscape:cy="560.07074"
     inkscape:window-width="1408"
     inkscape:window-height="706"
     inkscape:window-x="83"
     inkscape:window-y="91"
     inkscape:window-maximized="0"
     inkscape:current-layer="layer1" />
  <defs
     id="defs1">
    <rect
       x="35.673295"
       y="1036.9038"
       width="977.4483"
       height="61.833712"
       id="rect7" />
    <rect
       x="107.01989"
       y="97.507007"
       width="570.77272"
       height="240.20019"
       id="rect42" />
    <linearGradient
       id="swatch6"
       inkscape:swatch="solid">
      <stop
         style="stop-color:#000000;stop-opacity:1;"
         offset="0"
         id="stop6" />
    </linearGradient>
    <rect
       x="111.77632"
       y="99.885226"
       width="561.25984"
       height="230.68731"
       id="rect6" />
    <rect
       x="109.3981"
       y="104.64167"
       width="568.3945"
       height="225.93087"
       id="rect5" />
    <rect
       x="26.160416"
       y="1041.6602"
       width="827.62045"
       height="64.211931"
       id="rect3" />
    <rect
       x="38.051515"
       y="913.23635"
       width="713.4659"
       height="111.77632"
       id="rect2" />
    <rect
       x="107.01989"
       y="97.507004"
       width="751.51741"
       height="530.34301"
       id="rect42-5" />
    <rect
       x="107.01989"
       y="97.507004"
       width="570.77271"
       height="240.2002"
       id="rect42-5-4" />
  </defs>
  <g
     inkscape:label="Layer 1"
     inkscape:groupmode="layer"
     id="layer1">
    <rect
       style="fill:#000000;fill-rule:evenodd;stroke-width:0.200153"
       id="rect1"
       width="179.33263"
       height="138.43221"
       x="15.333687"
       y="14.472457" />
    <rect
       style="fill:#ffffff;fill-rule:evenodd;stroke-width:0.258724"
       id="rect4"
       width="151.01694"
       height="62.574654"
       x="29.491531"
       y="27.057203" />
    <path
       d="m 41.208854,39.823926 v 37.041666 h 15.82229 c 3.104442,0 5.767712,-0.335346 7.99021,-1.005623 2.222498,-0.705555 3.933577,-1.816704 5.13302,-3.333647 1.199443,-1.516942 1.799374,-3.510038 1.799374,-5.97948 0,-1.904998 -0.440974,-3.527882 -1.322917,-4.868436 -0.846666,-1.375832 -1.993196,-2.486981 -3.439583,-3.333647 -0.816658,-0.497962 -1.689718,-0.908506 -2.607593,-1.249019 1.400512,-0.682077 2.552172,-1.553275 3.454053,-2.614311 1.199443,-1.446387 1.799373,-3.174899 1.799373,-5.18573 0,-2.116664 -0.59993,-3.862608 -1.799373,-5.23844 -1.199444,-1.41111 -2.83976,-2.469445 -4.921147,-3.175 -2.046109,-0.705555 -4.391983,-1.058333 -7.037813,-1.058333 z m 39.422917,0 V 76.865592 H 91.109167 V 39.823926 Z m 20.743439,0 v 37.041666 h 10.68927 v -15.61455 l 12.32948,15.61455 h 12.43541 L 121.32489,57.180489 136.03562,39.823926 H 124.07666 L 112.06448,54.000321 V 39.823926 Z m 41.75145,0 v 37.041666 h 6.98459 2.85771 15.82229 v -8.30802 h -15.82229 v -6.932393 h 14.76395 v -8.04292 h -14.76395 v -5.45083 h 15.82229 v -8.307503 h -15.82229 -2.85771 z m -91.651766,7.831563 h 3.333647 c 1.446387,0 2.522155,0.264584 3.22771,0.79375 0.740832,0.529166 1.11156,1.358299 1.11156,2.487187 0,0.740832 -0.176389,1.375627 -0.529167,1.904793 -0.317499,0.529166 -0.793854,0.934758 -1.428853,1.21698 -0.635,0.282222 -1.428751,0.42323 -2.38125,0.42323 h -3.333647 z m 0,13.758333 h 4.286043 c 0.776111,0 1.481668,0.05281 2.116667,0.158647 0.670277,0.105833 1.252258,0.299655 1.746147,0.581877 0.529166,0.282222 0.935275,0.652949 1.217497,1.11156 0.282221,0.45861 0.42323,1.040592 0.42323,1.746146 0,1.09361 -0.247152,1.940175 -0.741041,2.539897 -0.493888,0.564444 -1.164064,0.952604 -2.010729,1.16427 -0.811389,0.211667 -1.728716,0.317293 -2.751771,0.317293 h -4.286043 z"
       style="font-weight:800;font-size:200px;font-family:Jost;-inkscape-font-specification:'Jost Ultra-Bold';text-align:center;letter-spacing:10px;word-spacing:0.1px;white-space:pre;stroke:#ffffff;stroke-width:1.00157"
       id="path1" />
    <text
       xml:space="preserve"
       transform="matrix(0.26458333,0,0,0.26458333,-21.835514,127.49613)"
       id="text42-0"
       style="font-weight:bold;font-size:200px;font-family:Jost;-inkscape-font-specification:'Jost Bold';text-align:center;letter-spacing:10px;word-spacing:0.1px;white-space:pre;shape-inside:url(#rect42-5);shape-padding:4.75644;fill:#000000;fill-opacity:1;fill-rule:nonzero;stroke:none;stroke-width:1.00157;stroke-dasharray:none"><tspan
         x="241.27838"
         y="275.36056"
         id="tspan2"><tspan
           dx="0 0 0 0 -0.10001526"
           id="tspan1">JOIN </tspan></tspan><tspan
         x="305.87826"
         y="525.36056"
         id="tspan6">US!</tspan></text>
    <text
       xml:space="preserve"
       transform="matrix(0.26458333,0,0,0.26458333,0.24980803,67.969515)"
       id="text42-0-7"
       style="font-weight:bold;font-size:200px;font-family:Jost;-inkscape-font-specification:'Jost Bold';text-align:center;letter-spacing:10px;word-spacing:0.1px;white-space:pre;shape-inside:url(#rect42-5-4);fill:#ffffff;fill-opacity:1;fill-rule:nonzero;stroke:none;stroke-width:1.00157;stroke-dasharray:none"><tspan
         x="183.40627"
         y="270.6047"
         id="tspan7">BUS</tspan></text>
    <text
       xml:space="preserve"
       transform="matrix(0.26458333,0,0,0.26458333,-33.914754,3.1461865)"
       id="text3"
       style="font-style:normal;font-variant:normal;font-weight:bold;font-stretch:normal;font-size:37.3333px;font-family:Jost;-inkscape-font-specification:'Jost Bold';text-align:center;letter-spacing:7.5px;word-spacing:0.1px;white-space:pre;shape-inside:url(#rect7);fill-rule:nonzero;stroke:#000000;stroke-width:1.00157"><tspan
         x="157.8196"
         y="1069.2157"
         id="tspan8">bikeworcester.org.uk/bikebus</tspan></text>
    <path
       d="m 161.39091,249.9168 c 0,-5.79922 2.97346,-10.90942 7.47764,-13.88789 2.62785,-1.73771 5.77669,-2.74981 9.16006,-2.74981 9.18262,0 16.6377,7.45508 16.6377,16.6377 0,9.18258 -7.45508,16.6377 -16.6377,16.6377 -9.18262,0 -16.6377,-7.45512 -16.6377,-16.6377 z m 21.64897,1.76928 c -0.27777,0.3416 -0.43112,0.77012 -0.43112,1.21439 v 0 0 0 0 c 0,0.51324 0.20462,1.00545 0.5674,1.36822 0.36278,0.36279 0.85499,0.56741 1.36822,0.56741 0.51324,0 1.00544,-0.20462 1.36823,-0.56741 0.36281,-0.36277 0.5674,-0.85498 0.5674,-1.36822 0,-0.51322 -0.20459,-1.00544 -0.5674,-1.36822 -0.36279,-0.36278 -0.85499,-0.56741 -1.36823,-0.56741 -0.004,0 -0.006,0 -0.01,1.9e-4 -0.0864,-0.1694 -0.17154,-0.33948 -0.25548,-0.51008 -0.14794,-0.30056 -0.29057,-0.6038 -0.42734,-0.90978 0.22584,-0.0495 0.45811,-0.0735 0.6928,-0.0735 0.90919,0 1.78188,0.36171 2.42452,1.00434 0.64263,0.64263 1.00431,1.51533 1.00431,2.42452 0,0.90919 -0.36168,1.78189 -1.00431,2.42452 -0.64264,0.64263 -1.51533,1.00431 -2.42452,1.00431 -0.9092,0 -1.78189,-0.36168 -2.42453,-1.00431 -0.64263,-0.64263 -1.0043,-1.51533 -1.0043,-2.42452 v 0 0 0 0 0 0 c 0,-0.90919 0.36167,-1.78189 1.0043,-2.42452 0.0752,-0.0753 0.15349,-0.14649 0.23618,-0.21161 0.13924,0.31043 0.28421,0.61787 0.43411,0.9228 0.0823,0.16686 0.16553,0.33315 0.24973,0.49895 z m -14.53362,2.32048 c 0,-0.61608 0.24443,-1.20676 0.68024,-1.64251 0.43579,-0.43585 1.02643,-0.68027 1.64251,-0.68027 0.61608,0 1.20671,0.24442 1.64252,0.68027 0.43579,0.43575 0.68025,1.02643 0.68025,1.64251 0,0.61608 -0.24446,1.20671 -0.68025,1.64252 -0.43581,0.43579 -1.02644,0.68022 -1.64252,0.68022 -0.61608,0 -1.20672,-0.24443 -1.64251,-0.68022 -0.43581,-0.43581 -0.68024,-1.02644 -0.68024,-1.64252 z m 10.47128,-11.98145 c 0.33036,-0.0256 0.66073,-0.0435 0.99209,-0.0539 0.20463,-0.006 0.40925,-0.005 0.6139,0.005 0.0709,0.005 0.14045,0.009 0.21126,0.0156 0.0486,0.005 0.0974,0.0113 0.146,0.0188 0.0113,8e-4 0.0221,0.004 0.032,0.005 0.009,0.0486 0.0154,0.0974 0.02,0.14709 0.0188,0.1825 0.0276,0.36613 0.0265,0.55083 -7.9e-4,0.17366 -0.005,0.34843 -0.0133,0.52318 -0.009,0.18913 -0.02,0.37718 -0.031,0.5652 -0.0126,0.20021 -0.0232,0.40041 -0.032,0.60061 -0.01,0.20463 -0.0154,0.40925 -0.0154,0.61497 -8.1e-4,0.2201 0.008,0.44133 0.0254,0.66142 0.0136,0.16392 0.0357,0.32651 0.0659,0.48792 -0.32837,0.0332 -0.65605,0.0746 -0.98292,0.1226 -0.51213,0.0752 -1.02092,0.17144 -1.52531,0.28758 -0.46787,0.10728 -0.93022,0.23559 -1.3859,0.38605 -0.42696,0.14045 -0.84505,0.30306 -1.2554,0.48666 -0.49991,0.22324 -0.98237,0.48278 -1.44339,0.77654 v 0 l -0.66335,-0.78044 c 0.004,-5.5e-4 0.009,-8e-4 0.0129,-0.001 0.10401,-0.0144 0.20795,-0.0309 0.31193,-0.0497 0.0752,-0.0145 0.14821,-0.0332 0.22119,-0.0564 0.0354,-0.0126 0.0697,-0.0255 0.10514,-0.0398 0.042,-0.0177 0.0829,-0.0375 0.12172,-0.0608 0.0918,-0.0531 0.17365,-0.12273 0.24112,-0.20352 0.12833,-0.15266 0.1991,-0.34511 0.2002,-0.54309 7.9e-4,-0.18692 -0.0587,-0.36832 -0.1692,-0.51877 -0.0642,-0.0863 -0.14269,-0.16037 -0.23229,-0.2201 -0.0398,-0.0265 -0.0808,-0.0497 -0.12385,-0.0708 -0.0354,-0.0166 -0.0709,-0.032 -0.10841,-0.0453 -0.0907,-0.0354 -0.18474,-0.0619 -0.28096,-0.0819 -0.1471,-0.0299 -0.29532,-0.0553 -0.44463,-0.0764 -0.13606,-0.0188 -0.27212,-0.0354 -0.40814,-0.0497 -0.20574,-0.0221 -0.4126,-0.041 -0.61944,-0.0587 -0.32407,-0.0266 -0.64814,-0.0509 -0.97222,-0.0708 -0.50769,-0.031 -1.01426,-0.0598 -1.52307,-0.084 -0.22566,-0.0113 -0.44796,0.0708 -0.61167,0.22785 -0.16478,0.15599 -0.25772,0.37387 -0.25772,0.60062 v 0.77424 c 0,0.22455 0.0907,0.43911 0.2511,0.5951 0.16036,0.15593 0.37828,0.24001 0.60168,0.23448 0.54336,-0.0161 1.08669,-0.0352 1.62939,-0.0577 v 0 l 1.3901,1.63541 c -0.35694,0.31377 -0.69375,0.6501 -1.00857,1.00657 v 0 0 c -0.39533,-0.1346 -0.81927,-0.20631 -1.25987,-0.20631 -2.19768,0 -3.98188,1.78422 -3.98188,3.9819 v 0 0 c 0,2.19767 1.7842,3.98187 3.98188,3.98187 2.19766,0 3.98189,-1.7842 3.98189,-3.98187 0,-1.14722 -0.48619,-2.18175 -1.26417,-2.90812 0.35765,-0.38296 0.74772,-0.73456 1.1646,-1.05275 0.56965,-0.42804 1.18463,-0.79085 1.8361,-1.08175 0.35725,-0.1604 0.72338,-0.30194 1.09614,-0.42475 0.40811,-0.13382 0.82071,-0.24995 1.23879,-0.34506 0.46124,-0.10615 0.92691,-0.19468 1.39477,-0.26325 0.37511,-0.055 0.75074,-0.10075 1.12737,-0.13769 v 0 c 0.0507,0.16531 0.10363,0.33058 0.16011,0.49495 0.0452,0.13146 0.0918,0.26206 0.1397,0.39241 -1.35591,0.91364 -2.24788,2.46345 -2.24788,4.21993 v 0 0 0 0 0 0 c 0,2.80813 2.27982,5.08795 5.08796,5.08795 2.80813,0 5.08797,-2.27982 5.08797,-5.08795 0,-2.80813 -2.27984,-5.08798 -5.08797,-5.08798 -0.45917,0 -0.9042,0.0609 -1.32719,0.17586 -0.028,-0.0795 -0.0559,-0.15909 -0.083,-0.23887 -0.0564,-0.16261 -0.10954,-0.32743 -0.1593,-0.49335 -0.0675,-0.22451 -0.12829,-0.45127 -0.18139,-0.67913 -0.0454,-0.19243 -0.084,-0.38601 -0.11393,-0.58178 -0.0354,-0.14933 -0.0598,-0.30086 -0.073,-0.45349 -0.0145,-0.17255 -0.0211,-0.3451 -0.02,-0.51875 0,-0.18139 0.005,-0.36167 0.0133,-0.542 0.009,-0.19243 0.0188,-0.38491 0.031,-0.57735 0.0126,-0.19578 0.0232,-0.39267 0.032,-0.58843 0.009,-0.19799 0.0143,-0.39598 0.0155,-0.59399 8e-4,-0.24222 -0.0101,-0.48332 -0.0343,-0.72337 -0.0244,-0.24222 -0.0708,-0.48113 -0.14047,-0.71452 -0.0288,-0.10062 -0.073,-0.19689 -0.12939,-0.28426 -0.0543,-0.084 -0.11946,-0.15926 -0.19358,-0.22676 -0.0564,-0.0509 -0.11719,-0.0962 -0.1825,-0.13603 -0.0608,-0.0376 -0.12499,-0.0709 -0.19026,-0.0996 -0.0918,-0.0398 -0.1858,-0.0718 -0.28313,-0.0974 -0.11067,-0.0288 -0.22234,-0.052 -0.33516,-0.0686 -0.0785,-0.0126 -0.15815,-0.0222 -0.23779,-0.0299 -0.0951,-0.009 -0.18917,-0.0156 -0.28428,-0.0211 -0.24885,-0.0126 -0.49994,-0.0144 -0.74993,-0.006 -0.31564,0.009 -0.63129,0.0257 -0.94696,0.0484 -0.0151,-0.0164 -0.0305,-0.0325 -0.0464,-0.0484 -0.23446,-0.23451 -0.55302,-0.36611 -0.88485,-0.36611 h -2.03295 c -0.33185,0 -0.6504,0.1316 -0.88489,0.36611 -0.23449,0.2345 -0.36609,0.55306 -0.36609,0.88376 0,0.33181 0.1316,0.65037 0.36609,0.88485 0.23449,0.23448 0.55304,0.36613 0.88489,0.36613 h 2.03295 c 0.33183,0 0.65039,-0.13165 0.88485,-0.36613 0.0183,-0.0185 0.0362,-0.0373 0.0531,-0.0568 z"
       fill-rule="evenodd"
       fill="#000000"
       id="path1-0"
       style="isolation:isolate;stroke-width:0.0324955" />
    <path
       d="m 15.333687,249.9168 c 0,-5.79922 2.97346,-10.90942 7.47764,-13.88789 2.627845,-1.73771 5.776688,-2.74981 9.160052,-2.74981 9.182624,0 16.637704,7.45508 16.637704,16.6377 0,9.18258 -7.45508,16.6377 -16.637704,16.6377 -9.182612,0 -16.637692,-7.45512 -16.637692,-16.6377 z m 21.648963,1.76928 c -0.27777,0.3416 -0.43112,0.77012 -0.43112,1.21439 v 0 0 0 0 c 0,0.51324 0.204625,1.00545 0.567399,1.36822 0.362786,0.36279 0.854992,0.56741 1.368226,0.56741 0.513233,0 1.005439,-0.20462 1.368225,-0.56741 0.362811,-0.36277 0.567399,-0.85498 0.567399,-1.36822 0,-0.51322 -0.204588,-1.00544 -0.567399,-1.36822 -0.362786,-0.36278 -0.854992,-0.56741 -1.368225,-0.56741 -0.0038,0 -0.0063,0 -0.01005,1.9e-4 -0.08642,-0.1694 -0.171539,-0.33948 -0.255487,-0.51008 -0.147935,-0.30056 -0.29057,-0.6038 -0.427339,-0.90978 0.225842,-0.0495 0.458115,-0.0735 0.692799,-0.0735 0.909195,0 1.781886,0.36171 2.424527,1.00434 0.642629,0.64263 1.004309,1.51533 1.004309,2.42452 0,0.90919 -0.36168,1.78189 -1.004309,2.42452 -0.642641,0.64263 -1.515332,1.00431 -2.424527,1.00431 -0.909194,0 -1.781885,-0.36168 -2.424526,-1.00431 -0.642629,-0.64263 -1.004297,-1.51533 -1.004297,-2.42452 v 0 0 0 0 0 0 c 0,-0.90919 0.361668,-1.78189 1.004297,-2.42452 0.07524,-0.0753 0.153487,-0.14649 0.236179,-0.21161 0.139243,0.31043 0.284214,0.61787 0.43411,0.9228 0.08228,0.16686 0.165534,0.33315 0.249733,0.49895 z m -14.533619,2.32048 c 0,-0.61608 0.244432,-1.20676 0.680237,-1.64251 0.435793,-0.43585 1.02643,-0.68027 1.642517,-0.68027 0.616074,0 1.206711,0.24442 1.642517,0.68027 0.435792,0.43575 0.68025,1.02643 0.68025,1.64251 0,0.61608 -0.244458,1.20671 -0.68025,1.64252 -0.435806,0.43579 -1.026443,0.68022 -1.642517,0.68022 -0.616087,0 -1.206724,-0.24443 -1.642517,-0.68022 -0.435805,-0.43581 -0.680237,-1.02644 -0.680237,-1.64252 z m 10.471286,-11.98145 c 0.330353,-0.0256 0.66073,-0.0435 0.992087,-0.0539 0.204626,-0.006 0.409251,-0.005 0.613901,0.005 0.07085,0.005 0.140449,0.009 0.211258,0.0156 0.04861,0.005 0.09735,0.0113 0.146001,0.0188 0.01131,8e-4 0.02211,0.004 0.03203,0.005 0.0088,0.0486 0.01545,0.0974 0.01997,0.14709 0.01884,0.1825 0.02764,0.36613 0.02651,0.55083 -7.91e-4,0.17366 -0.005,0.34843 -0.01332,0.52318 -0.0088,0.18913 -0.01997,0.37718 -0.03103,0.5652 -0.01256,0.20021 -0.02324,0.40041 -0.03203,0.60061 -0.01005,0.20463 -0.01545,0.40925 -0.01545,0.61497 -8.04e-4,0.2201 0.0075,0.44133 0.02537,0.66142 0.01357,0.16392 0.03567,0.32651 0.06595,0.48792 -0.328368,0.0332 -0.656045,0.0746 -0.982918,0.1226 -0.512128,0.0752 -1.020915,0.17144 -1.525306,0.28758 -0.467874,0.10728 -0.930222,0.23559 -1.3859,0.38605 -0.426962,0.14045 -0.845055,0.30306 -1.255399,0.48666 -0.499918,0.22324 -0.982377,0.48278 -1.443393,0.77654 v 0 l -0.663355,-0.78044 c 0.0038,-5.5e-4 0.0088,-8e-4 0.01294,-0.001 0.104009,-0.0144 0.207942,-0.0309 0.311925,-0.0497 0.07524,-0.0145 0.148212,-0.0332 0.221194,-0.0564 0.03542,-0.0126 0.06971,-0.0255 0.105139,-0.0398 0.04196,-0.0177 0.08291,-0.0375 0.12172,-0.0608 0.09182,-0.0531 0.173648,-0.12273 0.241116,-0.20352 0.128327,-0.15266 0.199098,-0.34511 0.200203,-0.54309 7.92e-4,-0.18692 -0.05866,-0.36832 -0.169202,-0.51877 -0.06419,-0.0863 -0.142685,-0.16037 -0.232285,-0.2201 -0.03982,-0.0265 -0.08077,-0.0497 -0.123856,-0.0708 -0.03542,-0.0166 -0.07085,-0.032 -0.108405,-0.0453 -0.09069,-0.0354 -0.18474,-0.0619 -0.28096,-0.0819 -0.147107,-0.0299 -0.295319,-0.0553 -0.444636,-0.0764 -0.136053,-0.0188 -0.272118,-0.0354 -0.408133,-0.0497 -0.205743,-0.0221 -0.412604,-0.041 -0.619441,-0.0587 -0.324071,-0.0266 -0.648143,-0.0509 -0.972227,-0.0708 -0.507682,-0.031 -1.014258,-0.0598 -1.52307,-0.084 -0.225653,-0.0113 -0.447952,0.0708 -0.611665,0.22785 -0.164781,0.15599 -0.257723,0.37387 -0.257723,0.60062 v 0.77424 c 0,0.22455 0.09069,0.43911 0.251103,0.5951 0.160359,0.15593 0.378274,0.24001 0.601679,0.23448 0.543356,-0.0161 1.086687,-0.0352 1.62939,-0.0577 v 0 l 1.390095,1.63541 c -0.356933,0.31377 -0.693742,0.6501 -1.008568,1.00657 v 0 0 c -0.395332,-0.1346 -0.819267,-0.20631 -1.259871,-0.20631 -2.19768,0 -3.981877,1.78422 -3.981877,3.9819 v 0 0 c 0,2.19767 1.784197,3.98187 3.981877,3.98187 2.197668,0 3.98189,-1.7842 3.98189,-3.98187 0,-1.14722 -0.48619,-2.18175 -1.264168,-2.90812 0.357649,-0.38296 0.747718,-0.73456 1.164606,-1.05275 0.569647,-0.42804 1.184628,-0.79085 1.8361,-1.08175 0.357247,-0.1604 0.723374,-0.30194 1.096133,-0.42475 0.408108,-0.13382 0.820712,-0.24995 1.238793,-0.34506 0.461243,-0.10615 0.926906,-0.19468 1.394768,-0.26325 0.375109,-0.055 0.750745,-0.10075 1.127374,-0.13769 v 0 c 0.05075,0.16531 0.103631,0.33058 0.160108,0.49495 0.04522,0.13146 0.09182,0.26206 0.139695,0.39241 -1.355903,0.91364 -2.247876,2.46345 -2.247876,4.21993 v 0 0 0 0 0 0 c 0,2.80813 2.27982,5.08795 5.087959,5.08795 2.808127,0 5.087971,-2.27982 5.087971,-5.08795 0,-2.80813 -2.279844,-5.08798 -5.087971,-5.08798 -0.45917,0 -0.904195,0.0609 -1.327188,0.17586 -0.02801,-0.0795 -0.0559,-0.15909 -0.08303,-0.23887 -0.0564,-0.16261 -0.109535,-0.32743 -0.159304,-0.49335 -0.06745,-0.22451 -0.128289,-0.45127 -0.181386,-0.67913 -0.04535,-0.19243 -0.08404,-0.38601 -0.113932,-0.58178 -0.03542,-0.14933 -0.05979,-0.30086 -0.07298,-0.45349 -0.01445,-0.17255 -0.0211,-0.3451 -0.01997,-0.51875 0,-0.18139 0.005,-0.36167 0.01331,-0.542 0.0088,-0.19243 0.01884,-0.38491 0.03103,-0.57735 0.01256,-0.19578 0.02324,-0.39267 0.03203,-0.58843 0.0088,-0.19799 0.01432,-0.39598 0.01545,-0.59399 8.04e-4,-0.24222 -0.01005,-0.48332 -0.03429,-0.72337 -0.02437,-0.24222 -0.07085,-0.48113 -0.140474,-0.71452 -0.02877,-0.10062 -0.07298,-0.19689 -0.129395,-0.28426 -0.05427,-0.084 -0.119459,-0.15926 -0.193572,-0.22676 -0.0564,-0.0509 -0.117197,-0.0962 -0.182504,-0.13603 -0.0608,-0.0376 -0.124986,-0.0709 -0.190255,-0.0996 -0.09182,-0.0398 -0.185808,-0.0718 -0.283134,-0.0974 -0.110666,-0.0288 -0.222337,-0.052 -0.335163,-0.0686 -0.07851,-0.0126 -0.158149,-0.0222 -0.237788,-0.0299 -0.09509,-0.009 -0.189175,-0.0156 -0.284277,-0.0211 -0.248854,-0.0126 -0.499944,-0.0144 -0.749928,-0.006 -0.315643,0.009 -0.631299,0.0257 -0.946967,0.0484 -0.01507,-0.0164 -0.03052,-0.0325 -0.04635,-0.0484 -0.234459,-0.23451 -0.553016,-0.36611 -0.884851,-0.36611 h -2.03295 c -0.331847,0 -0.650392,0.1316 -0.884888,0.36611 -0.234484,0.2345 -0.36609,0.55306 -0.36609,0.88376 0,0.33181 0.131606,0.65037 0.36609,0.88485 0.234496,0.23448 0.553041,0.36613 0.884888,0.36613 h 2.03295 c 0.331835,0 0.650392,-0.13165 0.884851,-0.36613 0.01834,-0.0185 0.03618,-0.0373 0.05313,-0.0568 z"
       fill-rule="evenodd"
       fill="#000000"
       id="path1-0-9"
       style="isolation:isolate;stroke-width:0.0324955" />
  </g>
</svg>
