<?xml version="1.0" encoding="UTF-8" standalone="no"?>
<!-- Created with Inkscape (http://www.inkscape.org/) -->

<svg
   width="1024"
   height="1024"
   viewBox="0 0 270.93333 270.93333"
   version="1.1"
   id="svg1"
   inkscape:version="1.2.2 (b0a8486541, 2022-12-01)"
   sodipodi:docname="join-us-circular.svg"
   inkscape:export-filename="../../../../Desktop/join-us.png"
   inkscape:export-xdpi="96"
   inkscape:export-ydpi="96"
   xml:space="preserve"
   xmlns:inkscape="http://www.inkscape.org/namespaces/inkscape"
   xmlns:sodipodi="http://sodipodi.sourceforge.net/DTD/sodipodi-0.dtd"
   xmlns="http://www.w3.org/2000/svg"
   xmlns:svg="http://www.w3.org/2000/svg"><sodipodi:namedview
     id="namedview1"
     pagecolor="#ffffff"
     bordercolor="#000000"
     borderopacity="0.25"
     inkscape:showpageshadow="2"
     inkscape:pageopacity="0.0"
     inkscape:pagecheckerboard="0"
     inkscape:deskcolor="#d1d1d1"
     inkscape:document-units="mm"
     inkscape:zoom="0.7674467"
     inkscape:cx="439.11844"
     inkscape:cy="665.19278"
     inkscape:window-width="2256"
     inkscape:window-height="1468"
     inkscape:window-x="0"
     inkscape:window-y="1050"
     inkscape:window-maximized="1"
     inkscape:current-layer="svg1"
     showgrid="false"
     showguides="false" /><defs
     id="defs1"><rect
       x="35.673294"
       y="1036.9038"
       width="977.4483"
       height="61.833714"
       id="rect7" /><rect
       x="107.01989"
       y="97.507004"
       width="570.77271"
       height="240.2002"
       id="rect42" /><linearGradient
       id="swatch6"
       inkscape:swatch="solid"><stop
         style="stop-color:#000000;stop-opacity:1;"
         offset="0"
         id="stop6" /></linearGradient><rect
       x="111.77632"
       y="99.885223"
       width="561.25983"
       height="230.68732"
       id="rect6" /><rect
       x="109.3981"
       y="104.64167"
       width="568.39447"
       height="225.93086"
       id="rect5" /><rect
       x="26.160416"
       y="1041.6602"
       width="827.62042"
       height="64.211929"
       id="rect3" /><rect
       x="38.051514"
       y="913.23633"
       width="713.46588"
       height="111.77632"
       id="rect2" /><rect
       x="107.01989"
       y="97.507004"
       width="751.5174"
       height="530.34302"
       id="rect42-5" /><rect
       x="107.01989"
       y="97.507004"
       width="570.77271"
       height="240.2002"
       id="rect42-5-4" /></defs><circle
     style="fill:#ffffff;stroke:none;stroke-width:4.91649;-inkscape-stroke:none;stop-color:#000000;fill-opacity:1"
     id="path597"
     cx="135.46666"
     cy="135.46666"
     r="135.46666" /><path
     id="rect6042"
     style="stroke-width:5.33032;stop-color:#000000;fill:#000000;fill-opacity:1"
     d="M 23.930322 58.624845 A 135.46666 135.46666 0 0 0 2.968811 107.58051 L 268.02963 107.58051 A 135.46666 135.46666 0 0 0 247.01748 58.624845 L 23.930322 58.624845 z M 167.46626 66.424369 C 169.56904 66.424369 171.38664 66.770087 172.91864 67.460999 C 174.4807 68.15191 175.772 69.023408 176.79334 70.074792 C 177.81469 71.126178 178.59616 72.192139 179.13687 73.273564 L 173.3243 76.51781 C 172.8737 75.76682 172.34741 75.121172 171.74662 74.580461 C 171.17586 74.009706 170.53022 73.573958 169.80927 73.273564 C 169.11836 72.943129 168.36724 72.777987 167.55618 72.777987 C 166.47474 72.777987 165.64854 73.018239 165.07778 73.498873 C 164.50703 73.949466 164.22202 74.520002 164.22202 75.210913 C 164.22202 75.931863 164.49209 76.563107 165.03282 77.103821 C 165.60356 77.644534 166.39996 78.140475 167.42131 78.591069 C 168.47268 79.041663 169.73415 79.522167 171.20609 80.032841 C 172.31756 80.453396 173.3542 80.94882 174.31546 81.519572 C 175.27673 82.060283 176.11787 82.721366 176.83882 83.502397 C 177.58981 84.283427 178.17577 85.184245 178.59633 86.205591 C 179.01688 87.226937 179.22679 88.398879 179.22679 89.720622 C 179.22679 91.312719 178.8965 92.739317 178.23563 94.000981 C 177.60479 95.232603 176.7333 96.269242 175.62184 97.110352 C 174.54041 97.95146 173.29386 98.582182 171.88201 99.002743 C 170.5002 99.453329 169.07359 99.67867 167.60166 99.67867 C 165.55897 99.67867 163.65136 99.318035 161.87901 98.597083 C 160.13672 97.846091 158.61957 96.839808 157.32786 95.578145 C 156.03618 94.316483 155.02987 92.934641 154.30893 91.432662 L 159.62592 87.602405 C 160.25674 88.74391 160.96259 89.735275 161.74362 90.576383 C 162.55468 91.417494 163.42618 92.063656 164.35741 92.51425 C 165.31868 92.964843 166.32496 93.190177 167.37635 93.190177 C 168.48782 93.190177 169.40355 92.919571 170.1245 92.378857 C 170.84544 91.808106 171.20609 91.04259 171.20609 90.081323 C 171.20609 89.270254 170.99568 88.624091 170.57512 88.143457 C 170.15457 87.632784 169.47908 87.151761 168.54785 86.701168 C 167.61662 86.250573 166.38449 85.739713 164.85247 85.168962 C 164.10147 84.898605 163.2305 84.523566 162.23919 84.042932 C 161.27793 83.5623 160.36168 82.946489 159.49052 82.1955 C 158.61938 81.414468 157.89862 80.483298 157.32786 79.401872 C 156.75713 78.290407 156.47159 76.953321 156.47159 75.391264 C 156.47159 73.528809 156.95261 71.921633 157.91388 70.569853 C 158.90517 69.218071 160.22683 68.196867 161.87901 67.505957 C 163.56123 66.785008 165.42359 66.424369 167.46626 66.424369 z M 94.650037 67.145772 L 106.23021 67.145772 C 108.4231 67.145772 110.34565 67.446218 111.99781 68.047009 C 113.68003 68.617762 115.00168 69.50366 115.96295 70.705245 C 116.95426 71.876789 117.4502 73.363577 117.4502 75.165955 C 117.4502 76.818131 116.95426 78.230328 115.96295 79.401872 C 115.17264 80.365072 114.13793 81.14511 112.86029 81.742814 C 113.75894 82.056244 114.59836 82.461931 115.37745 82.961344 C 116.54899 83.682295 117.48018 84.613467 118.17108 85.754972 C 118.89205 86.866437 119.25215 88.218438 119.25215 89.810539 C 119.25215 91.91331 118.74181 93.611032 117.72046 94.902734 C 116.72915 96.194437 115.31748 97.155449 113.48506 97.786279 C 111.65264 98.387073 109.48986 98.687516 106.99657 98.687516 L 94.650037 98.687516 L 94.650037 67.145772 z M 124.34383 67.145772 L 131.95939 67.145772 L 131.95939 87.782756 C 131.95939 89.374853 132.38021 90.666664 133.22133 91.657971 C 134.06242 92.649278 135.32389 93.145219 137.00611 93.145219 C 138.71837 93.145219 139.99474 92.649278 140.83585 91.657971 C 141.67696 90.666664 142.09779 89.374853 142.09779 87.782756 L 142.09779 67.145772 L 149.71283 67.145772 L 149.71283 88.323808 C 149.71283 90.306422 149.38255 92.033464 148.72167 93.505404 C 148.09084 94.977344 147.1895 96.194043 146.01796 97.15531 C 144.87645 98.086537 143.52445 98.792374 141.96239 99.27301 C 140.43039 99.753637 138.77845 99.994413 137.00611 99.994413 C 135.23376 99.994413 133.58131 99.753637 132.0493 99.27301 C 130.5173 98.792374 129.1658 98.086537 127.99425 97.15531 C 126.85276 96.194043 125.95141 94.977344 125.29054 93.505404 C 124.65971 92.033464 124.34383 90.306422 124.34383 88.323808 L 124.34383 67.145772 z M 102.26508 73.048254 L 102.26508 79.672139 L 105.41941 79.672139 C 106.29054 79.672139 107.02623 79.537353 107.62702 79.266996 C 108.25786 78.996641 108.73887 78.620567 109.06931 78.139933 C 109.39974 77.629261 109.56437 77.013451 109.56437 76.292501 C 109.56437 75.211076 109.18933 74.400287 108.43834 73.859574 C 107.71739 73.318861 106.7111 73.048254 105.41941 73.048254 L 102.26508 73.048254 z M 102.26508 84.989644 L 102.26508 92.784517 L 106.14029 92.784517 C 107.1316 92.784517 108.018 92.664133 108.79904 92.423816 C 109.58006 92.153459 110.19537 91.733147 110.64596 91.162394 C 111.12659 90.561603 111.36685 89.750814 111.36685 88.729468 C 111.36685 88.068595 111.23206 87.497543 110.9617 87.016911 C 110.69135 86.536276 110.3158 86.145803 109.83516 85.845406 C 109.35453 85.54501 108.7989 85.334596 108.16807 85.214437 C 107.5673 85.06424 106.89128 84.989644 106.14029 84.989644 L 102.26508 84.989644 z " /><g
     aria-label="JOIN
US"
     id="text3565"
     style="font-weight:900;font-size:77.2703px;line-height:0.85;font-family:Jost;-inkscape-font-specification:'Jost Heavy';stroke-width:135.223;stop-color:#000000;fill:#000000;fill-opacity:1"><path
       d="m 46.003775,172.55277 -9.349706,11.66782 q 2.163568,1.15905 5.022569,2.16357 2.781731,1.08178 6.104354,1.77721 3.322623,0.69544 6.877057,0.69544 4.172596,0 8.036112,-0.84998 3.863515,-0.7727 6.877056,-2.54992 3.013542,-1.77721 4.790759,-4.79076 1.777217,-2.93627 1.777217,-7.2634 V 115.45002 H 57.207969 v 53.70286 q 0,3.24535 -1.545406,4.48168 -1.545406,1.31359 -3.322623,1.31359 -1.468136,0 -3.168082,-0.7727 -1.777217,-0.7727 -3.168083,-1.62268 z"
       style="text-align:center;text-anchor:middle;fill:#000000;fill-opacity:1"
       id="path8058" /><path
       d="m 101.52546,142.49462 q 0,-4.01805 1.46814,-6.95432 1.46813,-3.01354 4.17259,-4.63622 2.70446,-1.69995 6.49071,-1.69995 4.01806,0 6.64525,1.69995 2.70446,1.62268 4.09532,4.63622 1.39087,2.93627 1.39087,6.95432 0,3.94079 -1.46814,6.95433 -1.46813,3.01354 -4.1726,4.71349 -2.70446,1.62268 -6.4907,1.62268 -3.78625,0 -6.49071,-1.62268 -2.70446,-1.69995 -4.17259,-4.71349 -1.46814,-3.01354 -1.46814,-6.95433 z m -18.003978,0 q 0,6.49071 2.163568,11.89963 2.240839,5.33165 6.258894,9.27244 4.018056,3.94078 9.504246,6.02708 5.56346,2.16357 12.20871,2.16357 6.64525,0 12.13144,-2.16357 5.56346,-2.0863 9.58151,-6.02708 4.01806,-3.94079 6.18163,-9.27244 2.24084,-5.40892 2.24084,-11.89963 0,-6.4907 -2.24084,-11.74508 -2.24084,-5.25438 -6.33617,-9.04063 -4.09532,-3.78624 -9.58151,-5.79527 -5.4862,-2.00903 -11.9769,-2.00903 -6.33617,0 -11.82236,2.00903 -5.486188,2.00903 -9.581514,5.79527 -4.095326,3.78625 -6.413435,9.04063 -2.318109,5.25438 -2.318109,11.74508 z"
       style="text-align:center;text-anchor:middle;fill:#000000;fill-opacity:1"
       id="path8060" /><path
       d="m 151.1746,115.45002 v 54.08921 h 17.38582 v -54.08921 z"
       style="text-align:center;text-anchor:middle;fill:#000000;fill-opacity:1"
       id="path8062" /><path
       d="m 212.64006,115.45002 v 24.49468 l -35.15798,-27.19914 v 56.79367 h 16.22676 v -24.49469 l 35.15799,27.19915 v -56.79367 z"
       style="text-align:center;text-anchor:middle;fill:#000000;fill-opacity:1"
       id="path8064" /><path
       d="m 86.724887,181.12978 v 36.31704 q 0,5.79527 1.854487,9.81333 1.931758,3.94078 5.254381,6.41343 3.322623,2.39538 7.572485,3.47717 4.32714,1.15905 9.1179,1.15905 4.79076,0 9.04063,-1.15905 4.32713,-1.08179 7.64976,-3.47717 3.32262,-2.47265 5.17711,-6.41343 1.93175,-4.01806 1.93175,-9.81333 v -36.31704 h -16.99946 v 34.77163 q 0,3.24536 -1.69995,5.33165 -1.62268,2.00903 -5.09984,2.00903 -3.47716,0 -5.17711,-2.00903 -1.62268,-2.08629 -1.62268,-5.33165 v -34.77163 z"
       style="text-align:center;text-anchor:middle;fill:#000000;fill-opacity:1"
       id="path8066" /><path
       d="m 151.03155,214.66509 -11.436,8.34519 q 1.85449,4.09533 5.48619,7.41795 3.6317,3.32262 8.577,5.17711 5.02257,1.93176 10.81785,1.93176 4.17259,0 8.11338,-1.15906 3.94078,-1.15905 7.0316,-3.39989 3.16808,-2.24084 5.02256,-5.64073 1.85449,-3.47717 1.85449,-7.95884 0,-3.16809 -0.92724,-5.71801 -0.92725,-2.62719 -2.78173,-4.71348 -1.77722,-2.0863 -4.32714,-3.63171 -2.54992,-1.62267 -5.79527,-2.78173 -3.16808,-1.15905 -5.79527,-2.00903 -2.62719,-0.92724 -4.24987,-1.93175 -1.54541,-1.08179 -1.54541,-2.70446 0,-1.3136 1.08179,-1.93176 1.15905,-0.61816 2.93627,-0.61816 1.46813,0 3.01354,0.54089 1.54541,0.54089 3.01354,1.69994 1.54541,1.08179 2.78173,3.01355 l 12.59506,-6.95433 q -1.46813,-2.78173 -4.32713,-5.56346 -2.78174,-2.78173 -7.18614,-4.63622 -4.32714,-1.85449 -10.43149,-1.85449 -5.64074,0 -10.35422,1.85449 -4.71349,1.85449 -7.57249,5.48619 -2.859,3.6317 -2.859,8.96336 0,4.09532 1.46813,7.10886 1.54541,3.01354 3.78625,5.09984 2.3181,2.0863 4.79075,3.3999 2.54992,1.31359 4.48168,2.08629 4.40441,1.69995 6.56798,2.70446 2.16357,1.00452 2.859,1.77722 0.7727,0.7727 0.7727,1.85449 0,1.77722 -1.39086,2.62719 -1.39087,0.7727 -3.3999,0.7727 -2.39538,0 -4.79076,-1.00451 -2.3181,-1.00452 -4.32713,-2.93627 -2.00903,-2.00903 -3.55444,-4.71349 z"
       style="text-align:center;text-anchor:middle;fill:#000000;fill-opacity:1"
       id="path8068" /></g><path
     id="path8071"
     style="font-weight:bold;font-size:16.9333px;font-family:Jost;-inkscape-font-specification:'Jost Bold';text-align:center;letter-spacing:0.41275px;text-anchor:middle;stroke-width:22.8399;fill:#000000;fill-opacity:1"
     d="M 40.00376 199.16924 L 29.303121 206.9114 L 30.801737 208.98311 L 31.814596 208.25034 C 31.653891 208.68103 31.584951 209.11393 31.608407 209.54897 C 31.640947 210.15244 31.845662 210.71488 32.222839 211.2362 C 32.60002 211.75753 33.079111 212.14948 33.659444 212.41236 C 34.246395 212.68438 34.884697 212.78701 35.574573 212.71983 C 36.280211 212.65517 36.984923 212.3679 37.689172 211.85839 C 38.402567 211.34225 38.895676 210.76234 39.168669 210.11896 C 39.448278 209.48472 39.550913 208.84641 39.476143 208.20383 C 39.407991 207.57038 39.185147 206.99296 38.807967 206.47163 C 38.430787 205.95031 37.960728 205.57975 37.397717 205.36007 C 36.991758 205.20168 36.559077 205.13231 36.099605 205.15027 L 41.502893 201.24095 L 40.00376 199.16924 z M 236.05949 202.95092 C 235.69877 203.06819 235.3478 203.22042 235.00684 203.40722 C 234.67244 203.58483 234.34937 203.80477 234.03739 204.06765 C 233.73197 204.32133 233.44826 204.6321 233.18628 204.99989 C 232.85882 205.45963 232.63612 205.91816 232.51862 206.375 C 232.40767 206.82264 232.41061 207.24689 232.52689 207.64831 C 232.64946 208.04052 232.90397 208.37421 233.29015 208.64928 C 233.69473 208.93745 234.08803 209.08605 234.46993 209.09473 C 234.85182 209.1034 235.21561 209.02989 235.56185 208.87459 C 235.90545 208.70354 236.2405 208.50567 236.56696 208.28083 C 236.91042 208.01266 237.19685 207.81466 237.42633 207.68706 C 237.66237 207.55027 237.86053 207.4766 238.02061 207.46589 C 238.17151 207.44862 238.31574 207.48909 238.45366 207.58733 C 238.60078 207.69212 238.68439 207.82791 238.70429 207.99454 C 238.72423 208.16118 238.6591 208.35047 238.50844 208.56195 C 238.40365 208.70906 238.25139 208.86404 238.05214 209.02703 C 237.84369 209.18347 237.57114 209.34266 237.2341 209.50452 C 236.89441 209.65064 236.47631 209.78966 235.98043 209.92155 L 236.74059 211.7726 C 237.16429 211.64475 237.58595 211.48119 238.00563 211.28116 C 238.4161 211.07458 238.80919 210.81395 239.1854 210.49981 C 239.57736 210.18303 239.93419 209.79952 240.2551 209.34898 C 240.7987 208.58581 241.04731 207.876 241.00183 207.21991 C 240.95369 206.54808 240.58981 205.96978 239.90939 205.48513 C 239.51401 205.20351 239.13446 205.06523 238.77096 205.06965 C 238.414 205.06499 238.05594 205.14927 237.6966 205.32287 C 237.34382 205.48738 236.98945 205.69246 236.63413 205.93833 C 236.29193 206.16581 236.0055 206.36382 235.77476 206.5321 C 235.54137 206.68464 235.33638 206.78812 235.15929 206.84215 C 234.98875 206.88702 234.83419 206.86032 234.69627 206.76206 C 234.57674 206.67692 234.51313 206.56172 234.50507 206.41737 C 234.50373 206.26384 234.57183 206.0906 234.70919 205.89751 C 234.91221 205.61247 235.21758 205.35915 235.62541 205.13683 C 236.02404 204.90796 236.44244 204.74813 236.88063 204.65831 L 236.05949 202.95092 z M 35.238676 206.28508 C 35.490923 206.29068 35.724781 206.34082 35.939925 206.43598 C 36.2334 206.57199 36.466027 206.75887 36.638074 206.99667 C 36.83659 207.27105 36.949866 207.57206 36.978105 207.89997 C 37.015491 208.22126 36.960428 208.54013 36.81274 208.85599 C 36.6742 209.16523 36.440233 209.4389 36.110974 209.67712 C 35.781715 209.91534 35.444319 210.05526 35.098116 210.09674 C 34.76106 210.1316 34.441106 210.08403 34.138485 209.95463 C 33.84501 209.81861 33.599061 209.61354 33.400545 209.33916 C 33.228498 209.10136 33.123738 208.82174 33.086353 208.50045 C 33.055586 208.18831 33.105842 207.87316 33.237764 207.55477 C 33.378834 207.22977 33.618695 206.94488 33.9571 206.70004 C 34.295505 206.45521 34.63662 206.3201 34.980294 206.29438 C 35.068499 206.2863 35.154594 206.28322 35.238676 206.28508 z M 44.82052 208.39245 C 44.522995 208.38631 44.246626 208.48859 43.99163 208.69837 C 43.677789 208.95657 43.513708 209.28137 43.49967 209.67299 C 43.485637 210.06461 43.607867 210.41748 43.866056 210.73132 C 44.131421 211.05388 44.454146 211.2416 44.833956 211.2946 C 45.220938 211.35633 45.571214 211.25774 45.885055 210.99952 C 46.198896 210.74133 46.358776 210.42021 46.364095 210.03576 C 46.385302 209.65286 46.263072 209.29998 45.997709 208.97743 C 45.739516 208.66359 45.416792 208.47586 45.02981 208.41415 C 44.958885 208.40124 44.88918 208.39386 44.82052 208.39245 z M 230.57921 208.89733 L 228.9514 210.8693 L 232.60802 213.88772 C 232.84308 214.08176 233.00748 214.29043 233.10102 214.51404 C 233.19456 214.73764 233.21977 214.96398 233.1775 215.19255 C 233.14237 215.41242 233.03521 215.63068 232.85555 215.84832 C 232.58964 216.17044 232.30687 216.3182 232.00754 216.29067 C 231.69952 216.25594 231.37133 216.09443 231.02311 215.80698 L 227.367 212.78856 L 225.66375 214.852 L 229.52914 218.04302 C 230.243 218.63233 230.94447 218.92585 231.63392 218.9241 C 232.32186 218.90644 232.97492 218.52347 233.59298 217.77482 C 233.9595 217.33083 234.17326 216.88538 234.2348 216.43847 C 234.2876 215.98437 234.22871 215.53276 234.05755 215.08403 L 234.95827 215.82817 L 236.58608 213.8562 L 230.57921 208.89733 z M 48.725191 210.57113 L 39.032243 219.54319 L 40.699841 221.34463 L 43.597856 218.66211 L 42.885754 223.70573 L 44.921289 225.90559 L 45.792037 220.11576 L 50.407776 220.36588 L 48.337101 218.1288 L 44.414343 217.90608 L 50.39279 212.37257 L 48.725191 210.57113 z M 41.890983 210.75561 L 35.87533 215.70415 L 37.446293 217.61359 L 43.46143 212.66454 L 41.890983 210.75561 z M 216.48188 216.64207 L 214.69852 218.47452 L 224.16461 227.68636 L 225.94745 225.85391 L 225.05086 224.98162 C 225.50308 225.0661 225.94174 225.0599 226.36654 224.96198 C 226.95545 224.82623 227.47428 224.52757 227.92304 224.06643 C 228.3718 223.60528 228.67587 223.06634 228.83513 222.44947 C 229.00225 221.82451 228.99349 221.17813 228.80877 220.51005 C 228.62383 219.82602 228.21991 219.18048 227.59696 218.57426 C 226.96591 217.96016 226.30985 217.57406 225.62912 217.41567 C 224.95627 217.2492 224.30988 217.25796 223.68971 217.44202 C 223.07739 217.618 222.54683 217.93689 222.09807 218.39804 C 221.64931 218.85918 221.36508 219.38592 221.24541 219.9783 C 221.1591 220.40556 221.16471 220.84379 221.26143 221.29347 L 216.48188 216.64207 z M 224.29484 219.8858 C 224.45649 219.88564 224.62111 219.90833 224.78938 219.95402 C 225.11782 220.03736 225.42779 220.22094 225.71904 220.50437 C 226.01014 220.78772 226.20629 221.09607 226.3066 221.4299 C 226.39885 221.75595 226.40737 222.07951 226.33192 222.39986 C 226.24835 222.71234 226.08856 222.98966 225.85236 223.23237 C 225.64767 223.44272 225.38989 223.59405 225.0798 223.68609 C 224.77758 223.77003 224.45855 223.77429 224.12224 223.69901 C 223.77782 223.61587 223.45574 223.42858 223.1564 223.13728 C 222.85706 222.84598 222.66511 222.5335 222.58073 222.19936 C 222.48826 221.85734 222.48025 221.53378 222.55592 221.22939 C 222.63948 220.91691 222.78324 220.65581 222.98794 220.44546 C 223.22413 220.20275 223.50175 220.03922 223.81993 219.95505 C 223.97497 219.90903 224.13318 219.88597 224.29484 219.8858 z M 51.04598 222.21899 C 50.702529 222.22016 50.362926 222.27295 50.027437 222.37764 C 49.35646 222.58709 48.737313 222.99827 48.16967 223.61116 C 47.609697 224.21576 47.254846 224.86458 47.105652 225.55729 C 46.956458 226.25 47.006817 226.94286 47.257064 227.63623 C 47.523264 228.329 47.987678 228.98213 48.65026 229.5958 C 49.379101 230.27084 50.126989 230.70139 50.893018 230.88772 C 51.667328 231.08171 52.464306 231.03523 53.284086 230.74819 L 51.986491 228.785 C 51.615567 228.90307 51.252401 228.91317 50.897152 228.81497 C 50.550185 228.72442 50.210934 228.52546 49.879643 228.21863 C 49.589763 227.95015 49.403182 227.6619 49.31947 227.35356 C 49.243429 227.03694 49.270895 226.70861 49.401636 226.36809 C 49.476018 226.17436 49.58103 225.97923 49.717379 225.78312 L 54.075252 229.81956 C 54.145513 229.7769 54.218685 229.71425 54.295394 229.63146 L 54.548608 229.35809 C 55.116252 228.74521 55.479766 228.11212 55.638464 227.45898 C 55.797163 226.80585 55.752001 226.1563 55.503589 225.51078 C 55.262848 224.85698 54.811215 224.22327 54.148633 223.60961 C 53.486051 222.99593 52.799403 222.5828 52.088293 222.37041 C 51.73688 222.26805 51.389431 222.21783 51.04598 222.21899 z M 51.836629 224.34186 C 51.914995 224.34136 51.992268 224.34742 52.068656 224.36047 C 52.374212 224.41267 52.667626 224.56888 52.949223 224.82969 C 53.172845 225.0368 53.321595 225.26677 53.39519 225.51957 C 53.468786 225.77237 53.466651 226.03226 53.388989 226.29885 C 53.32597 226.51519 53.211879 226.72541 53.048442 226.92982 L 50.717318 224.77078 C 50.849311 224.67436 50.978508 224.59322 51.104374 224.52893 C 51.357262 224.4054 51.601532 224.34338 51.836629 224.34186 z M 217.23584 224.54598 C 216.9503 224.54647 216.66105 224.58568 216.36871 224.66381 C 215.69307 224.83388 215.01518 225.2162 214.33472 225.80999 C 213.65427 226.40378 213.17075 227.0426 212.88416 227.72719 C 212.60608 228.40435 212.53567 229.08779 212.67281 229.77719 C 212.80993 230.46659 213.15295 231.12594 213.7022 231.75536 C 214.24403 232.37628 214.85132 232.79758 215.52431 233.01937 C 216.1973 233.24116 216.8919 233.26446 217.60791 233.08913 C 218.32499 232.89788 219.02396 232.50521 219.70442 231.91143 C 220.45292 231.25826 220.96031 230.56101 221.22681 229.81905 C 221.5018 229.06967 221.54005 228.27202 221.34153 227.42643 L 219.25173 228.50853 C 219.32981 228.88989 219.30129 229.25194 219.16595 229.59477 C 219.03912 229.93018 218.80544 230.24614 218.46522 230.54303 C 218.16752 230.80281 217.86085 230.95809 217.54538 231.00864 C 217.22248 231.05071 216.8986 230.98873 216.57386 230.8226 C 216.38922 230.72816 216.20704 230.60263 216.02661 230.4464 L 220.50179 226.54121 C 220.46685 226.46683 220.41221 226.38701 220.33797 226.30195 C 220.25633 226.20839 220.17467 226.11491 220.09303 226.02135 C 219.54377 225.39193 218.95263 224.96372 218.32001 224.73667 C 217.96416 224.60896 217.60295 224.54535 217.23584 224.54598 z M 57.002205 226.61097 L 55.113432 235.61663 L 59.947245 233.48859 L 59.146261 238.73375 L 67.385551 234.63632 L 65.268368 233.00025 L 61.538363 235.16807 L 62.522799 230.12859 L 57.96132 232.40287 L 59.118872 228.24705 L 57.002205 226.61097 z M 216.39661 226.74017 C 216.5743 226.74091 216.75177 226.77768 216.92836 226.85024 C 217.13671 226.9358 217.33316 227.07184 217.51902 227.2559 L 215.12537 229.34466 C 215.04347 229.20316 214.97701 229.06634 214.92642 228.93435 C 214.7984 228.5816 214.7765 228.25596 214.86079 227.95766 C 214.94508 227.65936 215.13176 227.38423 215.42096 227.13187 C 215.65061 226.93147 215.89507 226.80773 216.15425 226.76135 C 216.23524 226.74685 216.31584 226.73983 216.39661 226.74017 z M 202.76747 228.33542 L 200.79705 229.80044 L 208.67925 240.39876 L 210.64967 238.93322 L 208.29323 235.76545 L 213.23143 237.01344 L 215.63593 235.22492 L 209.97271 233.7387 L 210.71582 229.17671 L 208.26997 230.99572 L 207.62867 234.87145 L 202.76747 228.33542 z M 199.80227 232.06956 C 199.49927 232.06342 199.20592 232.15354 198.92222 232.33982 C 198.5825 232.56286 198.36105 232.86345 198.25818 233.24158 C 198.14912 233.61027 198.2062 233.96483 198.42923 234.30456 C 198.65226 234.64429 198.9576 234.84183 199.34545 234.89781 C 199.73331 234.95381 200.09713 234.87024 200.43686 234.64718 C 200.78603 234.41795 201.00748 234.11736 201.1009 233.74542 C 201.20377 233.3673 201.14359 233.00873 200.92055 232.669 C 200.69752 232.32927 200.39529 232.13573 200.01363 232.08919 C 199.94268 232.07753 199.8722 232.07097 199.80227 232.06956 z M 202.31582 235.25696 L 200.24928 236.61398 L 204.52395 243.12521 L 206.59101 241.76871 L 202.31582 235.25696 z M 68.58186 235.89413 C 67.985401 235.88971 67.423095 236.0126 66.894108 236.2631 C 66.243047 236.5714 65.696257 237.07366 65.253898 237.76895 C 64.8176 238.45472 64.597377 239.15751 64.59399 239.87786 C 64.59059 240.59822 64.784101 241.2832 65.1738 241.93252 C 65.563485 242.58184 66.115167 243.13375 66.829513 243.58823 C 67.543858 244.04271 68.273233 244.30554 69.016976 244.37733 C 69.770244 244.45517 70.472247 244.33992 71.123307 244.03162 C 71.783893 243.72938 72.332387 243.23583 72.768685 242.55005 C 73.211044 241.85476 73.429046 241.14379 73.422909 240.41737 C 73.426309 239.69701 73.233314 239.01203 72.843616 238.36271 C 72.463455 237.71945 71.916201 237.17078 71.201855 236.7163 C 70.48751 236.26182 69.753707 235.99575 69.000439 235.9179 C 68.859202 235.9033 68.719505 235.89515 68.58186 235.89413 z M 190.75011 235.97578 L 188.52958 237.2434 L 195.07595 248.71453 L 197.297 247.44743 L 196.6774 246.36171 C 197.08824 246.56772 197.51111 246.68293 197.94606 246.70639 C 198.54953 246.73892 199.13075 246.59587 199.68962 246.27696 C 200.24849 245.95802 200.68981 245.52393 201.01357 244.97523 C 201.34714 244.42094 201.51777 243.79764 201.52517 243.10454 C 201.53677 242.39604 201.3271 241.66429 200.89626 240.90933 C 200.45983 240.14457 199.93663 239.59163 199.32633 239.25103 C 198.72584 238.90484 198.10204 238.7342 197.45513 238.73943 C 196.81804 238.73907 196.21979 238.89851 195.66093 239.21744 C 195.10206 239.53637 194.6831 239.96393 194.40415 240.50005 C 194.20302 240.88662 194.08741 241.30945 194.05586 241.76819 L 190.75011 235.97578 z M 69.107926 238.20975 C 69.127465 238.20985 69.147248 238.21054 69.166838 238.2113 C 69.480264 238.22337 69.779752 238.32042 70.065491 238.50224 C 70.341704 238.67797 70.551671 238.90507 70.695426 239.18385 C 70.848706 239.46868 70.913421 239.77741 70.889213 240.10989 C 70.874533 240.44842 70.758033 240.78917 70.53988 241.13205 C 70.321731 241.47494 70.062572 241.72461 69.76215 241.88136 C 69.477313 242.03464 69.173529 242.10208 68.850578 242.08393 C 68.537151 242.07186 68.242091 241.97805 67.965877 241.80229 C 67.680139 241.6205 67.465227 241.39016 67.321472 241.11138 C 67.177717 240.83261 67.110277 240.52882 67.118901 240.19981 C 67.133581 239.86127 67.250081 239.52054 67.468233 239.17765 C 67.686382 238.83477 67.945542 238.58509 68.245964 238.42834 C 68.527609 238.28139 68.814851 238.20831 69.107926 238.20975 z M 188.635 238.74357 L 186.40723 239.77606 L 185.80675 255.91771 L 188.12702 254.84284 L 188.635 238.74357 z M 76.106982 239.91559 L 72.385246 246.75806 L 74.601648 247.96368 L 76.438228 244.58714 C 76.616222 244.25988 76.811964 244.00652 77.025273 243.82698 C 77.23858 243.64743 77.462203 243.54371 77.695516 243.5164 C 77.928829 243.48907 78.154304 243.53466 78.372477 243.65334 C 78.570816 243.76122 78.715395 243.88485 78.806559 244.02438 C 78.90764 244.16931 78.985341 244.33365 79.03962 244.51737 L 81.05035 243.12469 C 81.028437 242.88146 80.930466 242.64822 80.756311 242.425 C 80.582158 242.20177 80.371198 242.02241 80.123275 241.88756 C 79.74643 241.6826 79.316918 241.60983 78.834981 241.66897 C 78.50365 241.70962 78.17975 241.80896 77.863464 241.96714 L 78.323385 241.1212 L 76.106982 239.91559 z M 196.88462 241.19045 C 197.20807 241.18778 197.51873 241.27677 197.81687 241.45761 C 198.10942 241.62861 198.35648 241.89065 198.55791 242.24361 C 198.75933 242.59658 198.86189 242.94761 198.8659 243.29626 C 198.86456 243.63511 198.78343 243.94775 198.62198 244.2347 C 198.4552 244.51185 198.22469 244.7345 197.93055 244.90236 C 197.67563 245.04784 197.38635 245.12196 197.06291 245.12457 C 196.74926 245.12191 196.44129 245.03758 196.13893 244.87187 C 195.83099 244.69668 195.5734 244.42746 195.36637 244.06469 C 195.15934 243.70192 195.06145 243.34822 195.07285 243.00377 C 195.07885 242.64952 195.1605 242.33687 195.31728 242.06533 C 195.48406 241.78818 195.69488 241.57674 195.9498 241.43126 C 196.24394 241.2634 196.55558 241.18326 196.88462 241.19045 z M 173.16824 243.81613 L 170.86141 244.65742 L 175.38774 257.06596 L 177.69458 256.22467 L 176.34169 252.51534 L 180.71713 255.1219 L 183.53298 254.09457 L 178.52967 251.05289 L 180.54505 246.89294 L 177.68166 247.93784 L 175.9598 251.46889 L 173.16824 243.81613 z M 83.486894 244.07606 C 83.438901 244.0756 83.391184 244.07607 83.343233 244.07709 C 82.586249 244.09822 81.899944 244.30156 81.284444 244.68739 C 80.683944 245.06778 80.20964 245.63169 79.861792 246.37876 C 79.518708 247.1156 79.392365 247.84124 79.483004 248.55589 C 79.583878 249.27529 79.870268 249.93132 80.341349 250.52424 C 80.822665 251.12193 81.45183 251.60181 82.229606 251.96395 C 82.761768 252.21173 83.238657 252.36542 83.659493 252.42439 C 84.085094 252.47312 84.465909 252.45743 84.802059 252.37736 L 85.852641 250.12065 C 85.604536 250.27909 85.332258 250.38255 85.035636 250.43123 C 84.749249 250.48469 84.451634 250.49558 84.142668 250.46378 C 83.8487 250.42652 83.558469 250.34088 83.27192 250.20747 C 82.934201 250.05022 82.652317 249.82582 82.42701 249.53412 C 82.211937 249.24719 82.084456 248.93283 82.044604 248.59051 C 82.009518 248.23795 82.08017 247.87207 82.256478 247.49342 C 82.41849 247.14547 82.645692 246.87184 82.93809 246.67177 C 83.230488 246.47169 83.558185 246.35637 83.920976 246.32605 C 84.293999 246.30052 84.649342 246.36623 84.987061 246.52345 C 85.242908 246.64258 85.484637 246.805 85.712598 247.01076 C 85.940558 247.21652 86.131503 247.4485 86.285173 247.70684 C 86.449076 247.96995 86.55007 248.24749 86.588513 248.53935 L 87.646847 246.26766 C 87.482239 245.97932 87.241448 245.69291 86.925444 245.40879 C 86.614204 245.11445 86.192567 244.84319 85.660404 244.59541 C 84.93124 244.2559 84.20678 244.08291 83.486894 244.07606 z M 91.184615 247.31617 C 91.042369 247.31571 90.901973 247.32255 90.763452 247.33581 C 90.035236 247.4105 89.399501 247.67069 88.856592 248.11715 C 88.313684 248.56361 87.894707 249.1775 87.599304 249.9589 C 87.307893 250.72975 87.223234 251.46443 87.345573 252.16239 C 87.467913 252.86034 87.775305 253.4832 88.267997 254.03152 C 88.775241 254.57327 89.451538 255.00407 90.296297 255.32343 C 91.225532 255.67472 92.08011 255.79241 92.859965 255.6769 C 93.650379 255.56537 94.371031 255.22287 95.022624 254.64854 L 93.082174 253.31735 C 92.782905 253.56627 92.449889 253.71191 92.083785 253.75454 C 91.72824 253.80114 91.339311 253.7447 90.916931 253.58504 C 90.54735 253.44533 90.266087 253.24806 90.072538 252.99386 C 89.882981 252.7291 89.784422 252.41442 89.777466 252.04973 C 89.773511 251.84232 89.797803 251.62221 89.85033 251.38931 L 95.40658 253.48995 C 95.45564 253.42402 95.499983 253.3382 95.539905 253.2326 C 95.583818 253.11645 95.62777 253.00046 95.67168 252.88431 C 95.967082 252.1029 96.065397 251.37979 95.966752 250.71493 C 95.868108 250.05007 95.58243 249.46517 95.10944 248.96051 C 94.640443 248.44529 93.98326 248.02775 93.138501 247.70839 C 92.452135 247.44892 91.801016 247.31815 91.184615 247.31617 z M 91.785612 249.15378 C 92.005841 249.15147 92.239517 249.19688 92.486344 249.29021 C 92.771451 249.398 92.995885 249.55546 93.159172 249.76202 C 93.322458 249.96856 93.418161 250.20978 93.446493 250.486 C 93.46948 250.71011 93.442955 250.94781 93.368461 251.19862 L 90.396033 250.07517 C 90.482155 249.93599 90.571174 249.81273 90.663717 249.70569 C 90.91418 249.42625 91.190893 249.25344 91.49364 249.18686 C 91.588249 249.16604 91.685508 249.15484 91.785612 249.15378 z M 106.86273 249.34964 L 106.23279 251.98462 L 104.89902 251.66578 L 104.40655 253.72456 L 105.74083 254.04341 L 104.42205 259.56038 L 106.81002 260.13141 L 108.1288 254.61443 L 109.47911 254.93689 L 109.97158 252.87862 L 108.62076 252.55564 L 109.2507 249.92066 L 106.86273 249.34964 z M 99.87194 250.20437 C 99.781277 250.20427 99.691919 250.20784 99.603739 250.2147 C 99.144273 250.2545 98.743532 250.39416 98.401229 250.6338 C 98.069744 250.87664 97.83638 251.22533 97.701013 251.67973 C 97.559201 252.15577 97.545904 252.57595 97.661222 252.94012 C 97.776539 253.30428 97.963469 253.62494 98.222428 253.90233 C 98.49543 254.17212 98.791362 254.42527 99.109713 254.66146 C 99.474562 254.89972 99.754486 255.10674 99.949455 255.28261 C 100.15524 255.4617 100.28906 255.625 100.35098 255.77302 C 100.41611 255.91021 100.42412 256.06032 100.37579 256.2226 C 100.32419 256.39571 100.22314 256.51832 100.07193 256.59106 C 99.920693 256.6638 99.720285 256.66306 99.471448 256.58899 C 99.298344 256.53739 99.102567 256.44417 98.883887 256.30839 C 98.66843 256.16175 98.429834 255.95484 98.167651 255.68827 C 97.91951 255.4141 97.652897 255.06373 97.3677 254.63717 L 95.861849 255.95544 C 96.119886 256.315 96.411191 256.66069 96.736214 256.9931 C 97.064461 257.31469 97.438132 257.60276 97.857076 257.85713 C 98.283616 258.12555 98.762 258.33896 99.292131 258.49688 C 100.1901 258.76439 100.94222 258.77021 101.54832 258.51497 C 102.16847 258.2521 102.59759 257.72083 102.8361 256.92024 C 102.97469 256.45502 102.98321 256.05096 102.86142 255.70842 C 102.75048 255.36912 102.55498 255.05743 102.27438 254.7736 C 102.0046 254.49298 101.69592 254.22464 101.34834 253.96796 C 101.02239 253.71773 100.74247 253.5102 100.50859 253.34629 C 100.28877 253.17479 100.12454 253.01424 100.01612 252.86415 C 99.91852 252.71729 99.893876 252.5629 99.94222 252.40061 C 99.98412 252.25997 100.0718 252.16245 100.20577 252.10813 C 100.35056 252.05699 100.53668 252.0652 100.76388 252.13293 C 101.09926 252.23284 101.43806 252.43957 101.78035 252.75356 C 102.12586 253.05674 102.41196 253.40151 102.6387 253.78709 L 103.989 252.45746 C 103.76135 252.15406 103.504 251.87113 103.21696 251.60893 C 102.94074 251.34996 102.62765 251.1158 102.27799 250.90562 C 101.93916 250.69866 101.5532 250.53069 101.12044 250.40177 C 100.68092 250.27084 100.26481 250.20476 99.87194 250.20437 z M 171.02367 250.27568 L 168.55767 250.95212 L 169.81134 255.52445 C 169.89195 255.8184 169.90638 256.08357 169.85423 256.32027 C 169.8021 256.55698 169.69323 256.75659 169.52712 256.9192 C 169.37189 257.07883 169.15798 257.19596 168.88582 257.2706 C 168.483 257.38107 168.16706 257.33924 167.93807 257.14451 C 167.7061 256.9389 167.5304 256.61829 167.41097 256.18281 L 166.1573 251.61048 L 163.5771 252.31793 L 164.9026 257.15175 C 165.14742 258.04447 165.55208 258.68817 166.11699 259.08341 C 166.68981 259.46478 167.44466 259.52725 168.38094 259.27048 C 168.93616 259.11821 169.36745 258.87714 169.67491 258.54701 C 169.97938 258.20598 170.19031 257.80278 170.30847 257.33726 L 170.61749 258.46381 L 173.08349 257.78788 L 171.02367 250.27568 z M 113.73724 253.52768 C 113.28043 253.53004 112.85167 253.59025 112.45102 253.70751 C 111.74987 253.91792 111.17473 254.2934 110.72554 254.83406 C 110.27636 255.37472 109.98029 256.05638 109.83722 256.87941 C 109.69609 257.69132 109.75108 258.42871 110.00259 259.09116 C 110.25409 259.75362 110.67382 260.30779 111.26091 260.75359 C 111.86104 261.1902 112.60563 261.4857 113.4954 261.64036 C 114.47414 261.81049 115.33556 261.76519 116.07974 261.50497 C 116.83504 261.24669 117.47851 260.77419 118.01037 260.08748 L 115.85391 259.14542 C 115.60684 259.44622 115.30731 259.6522 114.95577 259.76296 C 114.61535 259.87566 114.22295 259.89348 113.77807 259.81618 C 113.3888 259.74852 113.07497 259.60773 112.83704 259.3945 C 112.60104 259.17015 112.44535 258.87959 112.36989 258.52272 C 112.32695 258.31967 112.30982 258.09898 112.31769 257.86023 L 118.16953 258.87774 C 118.20533 258.80375 118.23288 258.71146 118.25221 258.60024 L 118.31578 258.23282 C 118.45884 257.40978 118.41944 256.68132 118.19744 256.0469 C 117.97543 255.41249 117.58493 254.89187 117.02542 254.48524 C 116.46784 254.06749 115.74374 253.78156 114.85397 253.6269 C 114.4647 253.55923 114.09254 253.52584 113.73724 253.52768 z M 156.48037 253.80311 L 154.04899 254.14418 L 154.21384 255.31775 C 153.91051 254.99005 153.56238 254.74244 153.16895 254.57568 C 152.63311 254.33172 152.0407 254.2552 151.39231 254.34623 C 150.76628 254.43413 150.19429 254.66285 149.67614 255.03198 C 149.15798 255.40112 148.76111 255.90112 148.48499 256.53266 C 148.22005 257.16263 148.14863 257.91378 148.27105 258.78575 C 148.39191 259.64655 148.6666 260.34341 149.09478 260.87607 C 149.53413 261.40717 150.05458 261.78442 150.65592 262.00778 C 151.25569 262.21996 151.86853 262.28171 152.49457 262.19382 C 153.14296 262.10278 153.69199 261.87225 154.1415 261.50135 C 154.47254 261.22472 154.73783 260.88549 154.93886 260.48488 L 155.10836 261.69049 C 155.1743 262.16001 155.13994 262.56365 155.00501 262.90178 C 154.88284 263.24952 154.68717 263.52199 154.41848 263.7193 C 154.15137 263.9278 153.8388 264.05717 153.48107 264.10739 C 153.15687 264.15293 152.85834 264.13765 152.58552 264.06192 C 152.31427 263.99738 152.08558 263.86992 151.89926 263.67951 C 151.7241 263.48751 151.59795 263.23748 151.52047 262.92917 L 149.07204 263.27282 C 149.22368 263.94691 149.49194 264.51922 149.87716 264.98951 C 150.26394 265.47099 150.78522 265.81405 151.44089 266.01839 C 152.10772 266.22115 152.91634 266.25567 153.86658 266.12226 C 154.6603 266.01082 155.35532 265.76495 155.95172 265.38483 C 156.5497 265.01589 156.99586 264.49759 157.28962 263.82937 C 157.59457 263.15958 157.67786 262.33268 157.53974 261.34891 L 156.48037 253.80311 z M 120.44536 254.64596 L 119.60872 262.39019 L 122.11709 262.66149 L 122.52999 258.84001 C 122.56999 258.46964 122.65478 258.16068 122.78372 257.91346 C 122.91263 257.66624 123.07962 257.48544 123.28498 257.37137 C 123.49033 257.25731 123.71657 257.21394 123.96349 257.24063 C 124.18796 257.2649 124.36868 257.32407 124.5061 257.4184 C 124.65474 257.51394 124.78905 257.63606 124.90917 257.7853 L 126.23829 255.73219 C 126.12544 255.51561 125.94583 255.33696 125.69982 255.19683 C 125.45381 255.05669 125.19079 254.97135 124.91021 254.94103 C 124.48371 254.89496 124.05901 254.99128 123.63586 255.22938 C 123.34495 255.3931 123.08317 255.60817 122.8509 255.87482 L 122.95425 254.91726 L 120.44536 254.64596 z M 146.18488 254.92397 C 146.14991 254.92465 146.11465 254.92616 146.07946 254.92863 C 145.65152 254.95856 145.25035 255.12849 144.87591 255.43764 C 144.61848 255.65016 144.39856 255.90878 144.21704 256.21227 L 144.14986 255.25057 L 141.63322 255.42679 L 142.17685 263.19737 L 144.69401 263.02115 L 144.42529 259.18625 C 144.39929 258.81462 144.42788 258.49582 144.51108 258.22972 C 144.5943 257.96361 144.727 257.75659 144.90898 257.60805 C 145.09096 257.45952 145.30615 257.37631 145.55391 257.35897 C 145.77913 257.34317 145.96733 257.36995 146.11925 257.43855 C 146.28242 257.50634 146.43664 257.60277 146.58123 257.72845 L 147.5264 255.47278 C 147.37707 255.27954 147.16904 255.13577 146.90214 255.04128 C 146.66861 254.95861 146.42961 254.91922 146.18488 254.92397 z M 114.1057 255.26866 C 114.23438 255.26686 114.36955 255.2781 114.51136 255.30276 C 114.81165 255.35496 115.06142 255.46705 115.26066 255.63918 C 115.4599 255.81131 115.59944 256.03055 115.67924 256.2965 C 115.74398 256.51223 115.76255 256.75091 115.7366 257.01119 L 112.60605 256.46703 C 112.66441 256.31422 112.72861 256.17611 112.79932 256.05362 C 112.99272 255.73204 113.23178 255.51039 113.51659 255.38803 C 113.69459 255.31155 113.89123 255.27165 114.1057 255.26866 z M 135.76949 255.37253 C 134.92283 255.37453 134.16087 255.54586 133.48436 255.88619 C 132.80784 256.22648 132.27869 256.70194 131.89634 257.31246 C 131.51399 257.92298 131.32385 258.64018 131.32583 259.46427 C 131.32783 260.27706 131.52143 260.98776 131.90668 261.59644 C 132.29196 262.20511 132.82378 262.67792 133.50193 263.01495 C 134.18007 263.35199 134.94246 263.51981 135.78913 263.51777 C 136.63579 263.51577 137.39146 263.34441 138.05669 263.0041 C 138.7332 262.66381 139.26287 262.18835 139.64522 261.57783 C 140.03887 260.96728 140.23474 260.25587 140.23278 259.44308 C 140.23078 258.61899 140.03145 257.9025 139.63489 257.29386 C 139.2496 256.68518 138.71778 256.21237 138.03964 255.87534 C 137.37278 255.53828 136.61616 255.37049 135.76949 255.37253 z M 152.75967 256.25723 C 152.895 256.25693 153.03243 256.27194 153.17205 256.30219 C 153.39544 256.35065 153.60199 256.44159 153.79165 256.57452 C 153.99249 256.70592 154.15933 256.8815 154.29291 257.10214 C 154.43766 257.3212 154.53215 257.58752 154.57609 257.90054 C 154.63416 258.31417 154.59324 258.6734 154.45362 258.97799 C 154.31399 259.28258 154.1148 259.52723 153.85573 259.7118 C 153.60626 259.88362 153.3361 259.98983 153.04544 260.03064 C 152.71007 260.07771 152.39241 260.04834 152.09253 259.94227 C 151.79264 259.83618 151.53929 259.65509 151.33236 259.39915 C 151.12387 259.13203 150.9925 258.80289 150.93756 258.41162 C 150.88102 258.00916 150.91656 257.6563 151.04504 257.35328 C 151.1735 257.05026 151.36733 256.80663 151.6264 256.62206 C 151.88548 256.4375 152.18297 256.32137 152.51834 256.27428 C 152.59799 256.2631 152.67847 256.2574 152.75967 256.25723 z M 135.77466 257.48971 C 136.10203 257.48904 136.40096 257.56705 136.67228 257.72432 C 136.95488 257.88168 137.1755 258.10712 137.33425 258.40025 C 137.50429 258.69335 137.59011 259.0434 137.59108 259.4498 C 137.59175 259.8562 137.50773 260.20595 137.33942 260.49986 C 137.18206 260.78246 136.96239 261.00311 136.68055 261.16184 C 136.41 261.32053 136.11134 261.40031 135.78396 261.4011 C 135.4453 261.40177 135.14008 261.32373 134.86877 261.16649 C 134.59746 261.00909 134.37681 260.78943 134.2068 260.50761 C 134.03676 260.21451 133.95146 259.86446 133.95048 259.45806 C 133.94981 259.05167 134.03331 258.70191 134.20163 258.408 C 134.37025 258.11408 134.58996 257.88766 134.8605 257.72897 C 135.13106 257.57027 135.43599 257.49052 135.77466 257.48971 z M 161.41185 257.98529 C 161.29037 257.98587 161.16467 257.99953 161.0341 258.02663 C 160.59197 258.11838 160.25258 258.34425 160.01607 258.70462 C 159.77957 259.065 159.70464 259.45558 159.7918 259.87561 C 159.87896 260.29564 160.10322 260.62354 160.46359 260.86005 C 160.82396 261.09655 161.225 261.16884 161.66713 261.07709 C 162.13138 260.98075 162.47624 260.75355 162.7017 260.39548 C 162.92715 260.0374 162.99609 259.64865 162.90892 259.22862 C 162.82176 258.8086 162.6035 258.47885 162.25418 258.24005 C 162.00311 258.06841 161.7223 257.98379 161.41185 257.98529 z M 127.6966 260.40633 C 127.299 260.40833 126.95385 260.53894 126.66152 260.79803 C 126.33895 261.08395 126.16487 261.44109 126.13907 261.86929 C 126.11327 262.29749 126.2433 262.67274 126.52923 262.99532 C 126.81515 263.3179 127.18334 263.49268 127.63407 263.51983 C 128.10735 263.54837 128.49995 263.4194 128.81126 263.13278 C 129.12257 262.84618 129.29086 262.48869 129.31665 262.06049 C 129.34245 261.63229 129.2182 261.25739 128.94355 260.93549 C 128.6689 260.61359 128.29493 260.43845 127.82166 260.40994 C 127.7794 260.4074 127.73773 260.40612 127.6966 260.40633 z " /><path
     id="path6336"
     style="font-weight:bold;font-size:51.6718px;line-height:0.85;font-family:Jost;-inkscape-font-specification:'Jost Bold';text-align:center;text-anchor:middle;stroke-width:82.46;fill:#000000;fill-opacity:1"
     d="m 85.685742,21.402238 v 32.983663 h 12.910627 c 2.607301,0 4.869211,-0.313747 6.785421,-0.942013 1.9162,-0.659679 3.39257,-1.665179 4.4292,-3.015951 1.06806,-1.350773 1.60222,-3.125635 1.60222,-5.324567 0,-1.664905 -0.37705,-3.078417 -1.13097,-4.24071 -0.72251,-1.193706 -1.69612,-2.167312 -2.92123,-2.921231 -0.81476,-0.522279 -1.69257,-0.94694 -2.63237,-1.27471 1.33626,-0.625061 2.41797,-1.440759 3.2445,-2.448104 1.03665,-1.225119 1.55511,-2.701475 1.55511,-4.429207 0,-1.884798 -0.51846,-3.439708 -1.55511,-4.664828 -1.00522,-1.256532 -2.38731,-2.183005 -4.14646,-2.779858 -1.72772,-0.628266 -3.73825,-0.942484 -6.031423,-0.942484 z m 31.287668,0 v 32.983663 h 8.10442 V 21.402238 Z m 15.07833,0 v 32.983663 h 8.24581 V 39.965415 l 11.59161,14.420486 h 9.65953 L 147.45996,36.857572 160.84182,21.402238 h -9.32965 L 140.29755,34.414652 V 21.402238 Z m 32.93702,0 v 32.983663 h 7.63318 14.27723 v -6.549326 h -14.27723 v -7.586529 h 13.33521 v -6.408425 h -13.33521 v -5.890058 h 14.27723 v -6.549325 h -14.27723 z m -71.339964,6.172803 h 3.298696 c 1.350772,0 2.402932,0.282324 3.156848,0.847765 0.78534,0.565438 1.17811,1.413829 1.17811,2.544708 0,0.753919 -0.17282,1.398067 -0.51837,1.932094 -0.34554,0.502613 -0.848293,0.894914 -1.507972,1.177634 -0.628266,0.28272 -1.39763,0.424119 -2.308616,0.424119 h -3.298696 z m 0,12.486508 h 4.052212 c 0.785333,0 1.492325,0.07855 2.120591,0.235621 0.659681,0.125653 1.240981,0.345606 1.743601,0.659739 0.50261,0.314133 0.89491,0.722617 1.17763,1.22523 0.28272,0.502613 0.42412,1.099157 0.42412,1.79025 0,1.068052 -0.25091,1.916442 -0.75352,2.544708 -0.4712,0.596854 -1.11535,1.036759 -1.93209,1.319478 -0.816748,0.251307 -1.743692,0.376995 -2.780332,0.376995 h -4.052212 z" /><text
     xml:space="preserve"
     style="font-style:normal;font-variant:normal;font-weight:bold;font-stretch:normal;font-size:3.175px;line-height:normal;font-family:Jost;-inkscape-font-specification:'Jost Bold';text-align:center;text-decoration-color:#000000;text-anchor:middle;fill:#000000;fill-opacity:1;stroke:none;stroke-width:5.55625;-inkscape-stroke:none;stop-color:#000000"
     x="75.501991"
     y="316.48779"
     id="text5615"><tspan
       sodipodi:role="line"
       id="tspan5613"
       style="stroke-width:5.55625"
       x="75.501991"
       y="316.48779">IKE</tspan></text><path
     id="rect5833"
     style="fill:#000000;fill-opacity:1;stroke:none;stroke-width:5.96787;-inkscape-stroke:none;stop-color:#000000"
     d="M 135.46667 0 A 135.46666 135.46666 0 0 0 69.670166 17.12557 L 201.37789 17.12557 A 135.46666 135.46666 0 0 0 135.46667 0 z " /><path
     id="path8947"
     style="color:#000000;fill:#000000;-inkscape-stroke:none"
     d="M 8.3162882 107.58051 C 6.3527908 116.56603 5.3087199 125.89425 5.3087199 135.46667 C 5.3087199 159.17218 11.657392 181.40052 22.741248 200.549 L 26.740487 198.23958 C 16.062588 179.7767 9.9492635 158.33945 9.9492635 135.46667 C 9.9492635 125.88111 11.026965 116.5489 13.059668 107.58051 L 8.3162882 107.58051 z M 16.63516 107.58051 C 14.539455 116.53787 13.427604 125.87271 13.427604 135.46667 C 13.427604 157.69366 19.379913 178.53531 29.772343 196.4893 L 33.521468 194.32457 C 23.509415 177.01318 17.777209 156.9129 17.777209 135.46667 C 17.777209 125.85685 18.936214 116.52037 21.106722 107.58051 L 16.63516 107.58051 z M 249.82661 107.58051 C 251.99712 116.52037 253.15612 125.85685 253.15612 135.46667 C 253.15612 156.9129 247.42392 177.01318 237.41187 194.32457 L 241.16099 196.4893 C 251.55342 178.53531 257.50573 157.69366 257.50573 135.46667 C 257.50573 125.87271 256.39388 116.53787 254.29817 107.58051 L 249.82661 107.58051 z M 257.87367 107.58051 C 259.90638 116.54893 260.98459 125.88107 260.98459 135.46667 C 260.98459 158.33961 254.87148 179.77713 244.19336 198.2401 L 248.1926 200.549 C 259.27654 181.40052 265.62513 159.17218 265.62513 135.46667 C 265.62513 125.89425 264.58108 116.56603 262.61756 107.58051 L 257.87367 107.58051 z " /></svg>
