<?xml version="1.0" encoding="UTF-8" standalone="no"?>
<!-- Created with Inkscape (http://www.inkscape.org/) -->

<svg
   width="1024"
   height="1024"
   viewBox="0 0 270.93333 270.93333"
   version="1.1"
   id="svg1"
   inkscape:version="1.2.2 (b0a8486541, 2022-12-01)"
   sodipodi:docname="join-us.svg"
   inkscape:export-filename="../../../../Desktop/join-us.png"
   inkscape:export-xdpi="96"
   inkscape:export-ydpi="96"
   xmlns:inkscape="http://www.inkscape.org/namespaces/inkscape"
   xmlns:sodipodi="http://sodipodi.sourceforge.net/DTD/sodipodi-0.dtd"
   xmlns:xlink="http://www.w3.org/1999/xlink"
   xmlns="http://www.w3.org/2000/svg"
   xmlns:svg="http://www.w3.org/2000/svg">
  <sodipodi:namedview
     id="namedview1"
     pagecolor="#ffffff"
     bordercolor="#000000"
     borderopacity="0.25"
     inkscape:showpageshadow="2"
     inkscape:pageopacity="0.0"
     inkscape:pagecheckerboard="0"
     inkscape:deskcolor="#d1d1d1"
     inkscape:document-units="mm"
     inkscape:zoom="0.54266677"
     inkscape:cx="270.88447"
     inkscape:cy="642.1989"
     inkscape:window-width="2256"
     inkscape:window-height="1468"
     inkscape:window-x="0"
     inkscape:window-y="1050"
     inkscape:window-maximized="1"
     inkscape:current-layer="svg1"
     showgrid="false"
     showguides="false" />
  <defs
     id="defs1">
    <rect
       x="35.673294"
       y="1036.9038"
       width="977.4483"
       height="61.833714"
       id="rect7" />
    <rect
       x="107.01989"
       y="97.507004"
       width="570.77271"
       height="240.2002"
       id="rect42" />
    <linearGradient
       id="swatch6"
       inkscape:swatch="solid">
      <stop
         style="stop-color:#000000;stop-opacity:1;"
         offset="0"
         id="stop6" />
    </linearGradient>
    <rect
       x="111.77632"
       y="99.885223"
       width="561.25983"
       height="230.68732"
       id="rect6" />
    <rect
       x="109.3981"
       y="104.64167"
       width="568.39447"
       height="225.93086"
       id="rect5" />
    <rect
       x="26.160416"
       y="1041.6602"
       width="827.62042"
       height="64.211929"
       id="rect3" />
    <rect
       x="38.051514"
       y="913.23633"
       width="713.46588"
       height="111.77632"
       id="rect2" />
    <rect
       x="107.01989"
       y="97.507004"
       width="751.5174"
       height="530.34302"
       id="rect42-5" />
    <rect
       x="107.01989"
       y="97.507004"
       width="570.77271"
       height="240.2002"
       id="rect42-5-4" />
  </defs>
  <circle
     style="fill:#e6e6e6;stroke:none;stroke-width:4.91649;-inkscape-stroke:none;stop-color:#000000"
     id="path597"
     cx="135.46666"
     cy="135.46666"
     r="135.46666" />
  <path
     id="circle5621"
     style="fill:#cf737f;fill-opacity:0.00646831;stroke-width:4.54112;stop-color:#000000"
     d="M 135.46666,10.342738 A 125.12392,125.12392 0 0 0 10.342738,135.46666 125.12392,125.12392 0 0 0 135.46666,260.59058 125.12392,125.12392 0 0 0 260.59058,135.46666 125.12392,125.12392 0 0 0 135.46666,10.342738 Z" />
  <path
     id="rect6042"
     style="stroke-width:5.33032;stop-color:#000000"
     d="M 23.930322 58.624845 A 135.46666 135.46666 0 0 0 2.968811 107.58051 L 268.02963 107.58051 A 135.46666 135.46666 0 0 0 247.01748 58.624845 L 23.930322 58.624845 z M 167.46626 66.424369 C 169.56904 66.424369 171.38664 66.770087 172.91864 67.460999 C 174.4807 68.15191 175.772 69.023408 176.79334 70.074792 C 177.81469 71.126178 178.59616 72.192139 179.13687 73.273564 L 173.3243 76.51781 C 172.8737 75.76682 172.34741 75.121172 171.74662 74.580461 C 171.17586 74.009706 170.53022 73.573958 169.80927 73.273564 C 169.11836 72.943129 168.36724 72.777987 167.55618 72.777987 C 166.47474 72.777987 165.64854 73.018239 165.07778 73.498873 C 164.50703 73.949466 164.22202 74.520002 164.22202 75.210913 C 164.22202 75.931863 164.49209 76.563107 165.03282 77.103821 C 165.60356 77.644534 166.39996 78.140475 167.42131 78.591069 C 168.47268 79.041663 169.73415 79.522167 171.20609 80.032841 C 172.31756 80.453396 173.3542 80.94882 174.31546 81.519572 C 175.27673 82.060283 176.11787 82.721366 176.83882 83.502397 C 177.58981 84.283427 178.17577 85.184245 178.59633 86.205591 C 179.01688 87.226937 179.22679 88.398879 179.22679 89.720622 C 179.22679 91.312719 178.8965 92.739317 178.23563 94.000981 C 177.60479 95.232603 176.7333 96.269242 175.62184 97.110352 C 174.54041 97.95146 173.29386 98.582182 171.88201 99.002743 C 170.5002 99.453329 169.07359 99.67867 167.60166 99.67867 C 165.55897 99.67867 163.65136 99.318035 161.87901 98.597083 C 160.13672 97.846091 158.61957 96.839808 157.32786 95.578145 C 156.03618 94.316483 155.02987 92.934641 154.30893 91.432662 L 159.62592 87.602405 C 160.25674 88.74391 160.96259 89.735275 161.74362 90.576383 C 162.55468 91.417494 163.42618 92.063656 164.35741 92.51425 C 165.31868 92.964843 166.32496 93.190177 167.37635 93.190177 C 168.48782 93.190177 169.40355 92.919571 170.1245 92.378857 C 170.84544 91.808106 171.20609 91.04259 171.20609 90.081323 C 171.20609 89.270254 170.99568 88.624091 170.57512 88.143457 C 170.15457 87.632784 169.47908 87.151761 168.54785 86.701168 C 167.61662 86.250573 166.38449 85.739713 164.85247 85.168962 C 164.10147 84.898605 163.2305 84.523566 162.23919 84.042932 C 161.27793 83.5623 160.36168 82.946489 159.49052 82.1955 C 158.61938 81.414468 157.89862 80.483298 157.32786 79.401872 C 156.75713 78.290407 156.47159 76.953321 156.47159 75.391264 C 156.47159 73.528809 156.95261 71.921633 157.91388 70.569853 C 158.90517 69.218071 160.22683 68.196867 161.87901 67.505957 C 163.56123 66.785008 165.42359 66.424369 167.46626 66.424369 z M 94.650037 67.145772 L 106.23021 67.145772 C 108.4231 67.145772 110.34565 67.446218 111.99781 68.047009 C 113.68003 68.617762 115.00168 69.50366 115.96295 70.705245 C 116.95426 71.876789 117.4502 73.363577 117.4502 75.165955 C 117.4502 76.818131 116.95426 78.230328 115.96295 79.401872 C 115.17264 80.365072 114.13793 81.14511 112.86029 81.742814 C 113.75894 82.056244 114.59836 82.461931 115.37745 82.961344 C 116.54899 83.682295 117.48018 84.613467 118.17108 85.754972 C 118.89205 86.866437 119.25215 88.218438 119.25215 89.810539 C 119.25215 91.91331 118.74181 93.611032 117.72046 94.902734 C 116.72915 96.194437 115.31748 97.155449 113.48506 97.786279 C 111.65264 98.387073 109.48986 98.687516 106.99657 98.687516 L 94.650037 98.687516 L 94.650037 67.145772 z M 124.34383 67.145772 L 131.95939 67.145772 L 131.95939 87.782756 C 131.95939 89.374853 132.38021 90.666664 133.22133 91.657971 C 134.06242 92.649278 135.32389 93.145219 137.00611 93.145219 C 138.71837 93.145219 139.99474 92.649278 140.83585 91.657971 C 141.67696 90.666664 142.09779 89.374853 142.09779 87.782756 L 142.09779 67.145772 L 149.71283 67.145772 L 149.71283 88.323808 C 149.71283 90.306422 149.38255 92.033464 148.72167 93.505404 C 148.09084 94.977344 147.1895 96.194043 146.01796 97.15531 C 144.87645 98.086537 143.52445 98.792374 141.96239 99.27301 C 140.43039 99.753637 138.77845 99.994413 137.00611 99.994413 C 135.23376 99.994413 133.58131 99.753637 132.0493 99.27301 C 130.5173 98.792374 129.1658 98.086537 127.99425 97.15531 C 126.85276 96.194043 125.95141 94.977344 125.29054 93.505404 C 124.65971 92.033464 124.34383 90.306422 124.34383 88.323808 L 124.34383 67.145772 z M 102.26508 73.048254 L 102.26508 79.672139 L 105.41941 79.672139 C 106.29054 79.672139 107.02623 79.537353 107.62702 79.266996 C 108.25786 78.996641 108.73887 78.620567 109.06931 78.139933 C 109.39974 77.629261 109.56437 77.013451 109.56437 76.292501 C 109.56437 75.211076 109.18933 74.400287 108.43834 73.859574 C 107.71739 73.318861 106.7111 73.048254 105.41941 73.048254 L 102.26508 73.048254 z M 102.26508 84.989644 L 102.26508 92.784517 L 106.14029 92.784517 C 107.1316 92.784517 108.018 92.664133 108.79904 92.423816 C 109.58006 92.153459 110.19537 91.733147 110.64596 91.162394 C 111.12659 90.561603 111.36685 89.750814 111.36685 88.729468 C 111.36685 88.068595 111.23206 87.497543 110.9617 87.016911 C 110.69135 86.536276 110.3158 86.145803 109.83516 85.845406 C 109.35453 85.54501 108.7989 85.334596 108.16807 85.214437 C 107.5673 85.06424 106.89128 84.989644 106.14029 84.989644 L 102.26508 84.989644 z " />
  <text
     xml:space="preserve"
     style="font-weight:900;font-size:77.2703px;line-height:0.85;font-family:Jost;-inkscape-font-specification:'Jost Heavy';text-decoration-color:#000000;fill:#000000;fill-opacity:1;stroke:none;stroke-width:135.223;-inkscape-stroke:none;stop-color:#000000"
     x="137.12843"
     y="169.53923"
     id="text3565"><tspan
       sodipodi:role="line"
       id="tspan3563"
       style="font-style:normal;font-variant:normal;font-weight:bold;font-stretch:normal;font-family:Jost;-inkscape-font-specification:'Jost Bold';text-align:center;text-anchor:middle;fill:#000000;fill-opacity:1;stroke-width:135.223"
       x="137.12843"
       y="169.53923"
       dx="0 3.1028204 3.1028209 1.7237891">JOIN</tspan><tspan
       sodipodi:role="line"
       style="font-style:normal;font-variant:normal;font-weight:bold;font-stretch:normal;font-family:Jost;-inkscape-font-specification:'Jost Bold';text-align:center;text-anchor:middle;fill:#000000;fill-opacity:1;stroke-width:135.223"
       x="137.12843"
       y="235.21899"
       id="tspan5603"
       dx="-7.5846744 0.34476009">US</tspan></text>
  <text
     xml:space="preserve"
     style="font-weight:900;font-size:16.9333px;line-height:normal;font-family:Jost;-inkscape-font-specification:'Jost Heavy';text-decoration-color:#000000;fill:#000000;fill-opacity:1;stroke:none;stroke-width:22.8399;-inkscape-stroke:none;stop-color:#000000"
     id="text3826"><textPath
       xlink:href="#circle5621"
       startOffset="50%"
       id="textPath5623"
       style="font-style:normal;font-variant:normal;font-weight:bold;font-stretch:normal;font-size:16.9333px;font-family:Jost;-inkscape-font-specification:'Jost Bold';text-align:center;text-anchor:middle;fill:#000000;fill-opacity:1;stroke-width:22.8399">bikeworcester.org.uk/bikebus</textPath></text>
  <path
     id="path6336"
     style="font-weight:bold;font-size:51.6718px;line-height:0.85;font-family:Jost;-inkscape-font-specification:'Jost Bold';text-align:center;text-anchor:middle;stroke-width:82.46"
     d="m 85.685742,21.402238 v 32.983663 h 12.910627 c 2.607301,0 4.869211,-0.313747 6.785421,-0.942013 1.9162,-0.659679 3.39257,-1.665179 4.4292,-3.015951 1.06806,-1.350773 1.60222,-3.125635 1.60222,-5.324567 0,-1.664905 -0.37705,-3.078417 -1.13097,-4.24071 -0.72251,-1.193706 -1.69612,-2.167312 -2.92123,-2.921231 -0.81476,-0.522279 -1.69257,-0.94694 -2.63237,-1.27471 1.33626,-0.625061 2.41797,-1.440759 3.2445,-2.448104 1.03665,-1.225119 1.55511,-2.701475 1.55511,-4.429207 0,-1.884798 -0.51846,-3.439708 -1.55511,-4.664828 -1.00522,-1.256532 -2.38731,-2.183005 -4.14646,-2.779858 -1.72772,-0.628266 -3.73825,-0.942484 -6.031423,-0.942484 z m 31.287668,0 v 32.983663 h 8.10442 V 21.402238 Z m 15.07833,0 v 32.983663 h 8.24581 V 39.965415 l 11.59161,14.420486 h 9.65953 L 147.45996,36.857572 160.84182,21.402238 h -9.32965 L 140.29755,34.414652 V 21.402238 Z m 32.93702,0 v 32.983663 h 7.63318 14.27723 v -6.549326 h -14.27723 v -7.586529 h 13.33521 v -6.408425 h -13.33521 v -5.890058 h 14.27723 v -6.549325 h -14.27723 z m -71.339964,6.172803 h 3.298696 c 1.350772,0 2.402932,0.282324 3.156848,0.847765 0.78534,0.565438 1.17811,1.413829 1.17811,2.544708 0,0.753919 -0.17282,1.398067 -0.51837,1.932094 -0.34554,0.502613 -0.848293,0.894914 -1.507972,1.177634 -0.628266,0.28272 -1.39763,0.424119 -2.308616,0.424119 h -3.298696 z m 0,12.486508 h 4.052212 c 0.785333,0 1.492325,0.07855 2.120591,0.235621 0.659681,0.125653 1.240981,0.345606 1.743601,0.659739 0.50261,0.314133 0.89491,0.722617 1.17763,1.22523 0.28272,0.502613 0.42412,1.099157 0.42412,1.79025 0,1.068052 -0.25091,1.916442 -0.75352,2.544708 -0.4712,0.596854 -1.11535,1.036759 -1.93209,1.319478 -0.816748,0.251307 -1.743692,0.376995 -2.780332,0.376995 h -4.052212 z" />
  <text
     xml:space="preserve"
     style="font-style:normal;font-variant:normal;font-weight:bold;font-stretch:normal;font-size:3.175px;line-height:normal;font-family:Jost;-inkscape-font-specification:'Jost Bold';text-align:center;text-decoration-color:#000000;text-anchor:middle;fill:#000000;fill-opacity:1;stroke:none;stroke-width:5.55625;-inkscape-stroke:none;stop-color:#000000"
     x="75.501991"
     y="316.48779"
     id="text5615"><tspan
       sodipodi:role="line"
       id="tspan5613"
       style="stroke-width:5.55625"
       x="75.501991"
       y="316.48779">IKE</tspan></text>
  <path
     id="rect5833"
     style="fill:#000000;fill-opacity:1;stroke:none;stroke-width:5.96787;-inkscape-stroke:none;stop-color:#000000"
     d="M 135.46667 0 A 135.46666 135.46666 0 0 0 69.670166 17.12557 L 201.37789 17.12557 A 135.46666 135.46666 0 0 0 135.46667 0 z " />
</svg>
