<?xml version="1.0" encoding="UTF-8" standalone="no"?>
<!-- Created with Inkscape (http://www.inkscape.org/) -->

<svg
   width="210mm"
   height="297mm"
   viewBox="0 0 210 297"
   version="1.1"
   id="svg1"
   inkscape:version="1.3.2 (091e20e, 2023-11-25)"
   sodipodi:docname="join-us.svg"
   xmlns:inkscape="http://www.inkscape.org/namespaces/inkscape"
   xmlns:sodipodi="http://sodipodi.sourceforge.net/DTD/sodipodi-0.dtd"
   xmlns="http://www.w3.org/2000/svg"
   xmlns:svg="http://www.w3.org/2000/svg">
  <sodipodi:namedview
     id="namedview1"
     pagecolor="#ffffff"
     bordercolor="#000000"
     borderopacity="0.25"
     inkscape:showpageshadow="2"
     inkscape:pageopacity="0.0"
     inkscape:pagecheckerboard="0"
     inkscape:deskcolor="#d1d1d1"
     inkscape:document-units="mm"
     inkscape:zoom="0.38372335"
     inkscape:cx="484.72422"
     inkscape:cy="598.08714"
     inkscape:window-width="1408"
     inkscape:window-height="706"
     inkscape:window-x="83"
     inkscape:window-y="91"
     inkscape:window-maximized="0"
     inkscape:current-layer="svg1" />
  <defs
     id="defs1">
    <rect
       x="35.673295"
       y="1036.9038"
       width="977.4483"
       height="61.833712"
       id="rect7" />
    <rect
       x="107.01989"
       y="97.507007"
       width="570.77272"
       height="240.20019"
       id="rect42" />
    <linearGradient
       id="swatch6"
       inkscape:swatch="solid">
      <stop
         style="stop-color:#000000;stop-opacity:1;"
         offset="0"
         id="stop6" />
    </linearGradient>
    <rect
       x="111.77632"
       y="99.885226"
       width="561.25984"
       height="230.68731"
       id="rect6" />
    <rect
       x="109.3981"
       y="104.64167"
       width="568.3945"
       height="225.93087"
       id="rect5" />
    <rect
       x="26.160416"
       y="1041.6602"
       width="827.62045"
       height="64.211931"
       id="rect3" />
    <rect
       x="38.051515"
       y="913.23635"
       width="713.4659"
       height="111.77632"
       id="rect2" />
    <rect
       x="107.01989"
       y="97.507004"
       width="751.51741"
       height="530.34301"
       id="rect42-5" />
    <rect
       x="107.01989"
       y="97.507004"
       width="570.77271"
       height="240.2002"
       id="rect42-5-4" />
  </defs>
  <path
     id="rect8"
     style="fill:#ffffff;fill-rule:evenodd;stroke-width:0.00888043"
     d="M 0,0 H 210.07916 V 297.12708 H 0 Z" />
  <path
     id="rect1"
     style="fill:#000000;fill-rule:evenodd;stroke-width:0.200153;stroke:none"
     d="M 15.333431,14.472502 V 152.90488 H 194.66615 V 14.472502 Z M 29.49174,27.057263 H 180.50836 V 89.631738 H 29.49174 Z m 114.00493,74.621287 c 2.46944,0 4.60406,0.40559 6.40322,1.21698 1.83445,0.81139 3.35119,1.83486 4.55063,3.06958 1.19944,1.23472 2.11677,2.48688 2.75177,3.75687 l -6.82646,3.81011 c -0.52916,-0.88195 -1.14652,-1.64032 -1.85208,-2.27532 -0.67028,-0.67027 -1.42865,-1.18201 -2.27531,-1.53479 -0.81139,-0.38805 -1.69334,-0.58187 -2.64584,-0.58187 -1.26999,0 -2.24014,0.28201 -2.91041,0.84646 -0.67028,0.52916 -1.00511,1.19934 -1.00511,2.01073 0,0.84666 0.3174,1.5876 0.9524,2.2226 0.67027,0.635 1.60503,1.21698 2.80448,1.74615 1.23472,0.52916 2.71659,1.09371 4.4452,1.69343 1.30528,0.49389 2.52206,1.07587 3.65094,1.74615 1.12889,0.635 2.11698,1.41132 2.96365,2.32854 0.88194,0.91722 1.56955,1.97556 2.06344,3.175 0.49389,1.19944 0.74104,2.57518 0.74104,4.1274 0,1.86972 -0.38816,3.54542 -1.16427,5.02708 -0.74084,1.44639 -1.76379,2.66368 -3.06907,3.65146 -1.26999,0.98778 -2.73392,1.7282 -4.39198,2.22208 -1.62277,0.52917 -3.29847,0.79375 -5.02708,0.79375 -2.39889,0 -4.63913,-0.42302 -6.72052,-1.26969 -2.04611,-0.88194 -3.82795,-2.06385 -5.34489,-3.54552 -1.51695,-1.48166 -2.69834,-3.10454 -3.54501,-4.86843 l 6.24407,-4.49792 c 0.74083,1.34056 1.56996,2.50503 2.48718,3.49281 0.9525,0.98778 1.97546,1.74615 3.06907,2.27531 1.12889,0.52917 2.3108,0.79375 3.54552,0.79375 1.30527,0 2.38104,-0.31739 3.22771,-0.95239 0.84666,-0.67028 1.2702,-1.57017 1.2702,-2.69906 0,-0.9525 -0.24715,-1.71087 -0.74104,-2.27532 -0.49388,-0.59972 -1.28764,-1.16427 -2.38125,-1.69343 -1.09361,-0.52917 -2.5401,-1.12858 -4.33927,-1.79886 -0.88194,-0.3175 -1.90489,-0.75847 -3.06906,-1.32292 -1.12889,-0.56444 -2.20465,-1.28794 -3.22771,-2.16989 -1.02305,-0.91722 -1.87014,-2.01094 -2.54041,-3.28094 -0.67028,-1.30527 -1.00511,-2.87483 -1.00511,-4.70927 0,-2.18722 0.56455,-4.07469 1.69344,-5.66219 1.16416,-1.58749 2.71629,-2.78684 4.65656,-3.59823 1.97555,-0.84666 4.16247,-1.2702 6.56136,-1.2702 z m -90.804796,0.84697 h 13.599687 c 2.575275,0 4.832954,0.35278 6.77323,1.05834 1.975553,0.67028 3.527675,1.71066 4.656563,3.12177 1.164166,1.37583 1.746147,3.12229 1.746147,5.23896 0,1.94027 -0.581981,3.59802 -1.746147,4.97385 -0.932678,1.13671 -2.170822,2.04439 -3.681429,2.74764 1.067311,0.36956 2.069535,0.84063 2.993616,1.43299 1.375832,0.84666 2.469548,1.94038 3.280937,3.28093 0.846665,1.30528 1.269689,2.89278 1.269689,4.7625 0,2.46945 -0.599413,4.46254 -1.798856,5.97948 -1.164166,1.51695 -2.822431,2.64605 -4.974374,3.38688 -2.151942,0.70555 -4.691637,1.05833 -7.619689,1.05833 H 52.691874 Z m 37.518124,0 h 8.942606 v 24.23573 c 0,1.86973 0.493787,3.38647 1.481566,4.55063 0.98777,1.16417 2.46965,1.74615 4.4452,1.74615 2.01084,0 3.51014,-0.58198 4.49792,-1.74615 0.98778,-1.16416 1.48156,-2.6809 1.48156,-4.55063 v -24.23573 h 8.94313 v 24.87084 c 0,2.32833 -0.38816,4.35681 -1.16427,6.08541 -0.74084,1.72861 -1.79917,3.15716 -3.175,4.28605 -1.34056,1.09361 -2.92806,1.92274 -4.7625,2.48718 -1.79917,0.56445 -3.73945,0.84646 -5.82084,0.84646 -2.08138,0 -4.02166,-0.28201 -5.820829,-0.84646 -1.799165,-0.56444 -3.386668,-1.39357 -4.7625,-2.48718 -1.340554,-1.12889 -2.39889,-2.55744 -3.175,-4.28605 -0.740833,-1.7286 -1.111043,-3.75708 -1.111043,-6.08541 z m -28.575,6.93188 v 7.77885 h 3.704166 c 1.023055,0 1.887052,-0.15895 2.592607,-0.47645 0.740832,-0.3175 1.305381,-0.75847 1.693437,-1.32292 0.388055,-0.59972 0.581876,-1.32271 0.581876,-2.16938 0,-1.26999 -0.423024,-2.2227 -1.26969,-2.8577 -0.846666,-0.635 -2.046009,-0.9524 -3.59823,-0.9524 z m 0,14.02292 v 9.15448 h 4.550626 c 1.164166,0 2.205069,-0.14101 3.12229,-0.42323 0.917222,-0.3175 1.640211,-0.81129 2.169377,-1.48157 0.564444,-0.70555 0.84646,-1.65826 0.84646,-2.8577 0,-0.77611 -0.15844,-1.44629 -0.47594,-2.01073 -0.3175,-0.56445 -0.758473,-1.02285 -1.322917,-1.37563 -0.564444,-0.35278 -1.217187,-0.59993 -1.95802,-0.74104 -0.705555,-0.17639 -1.499306,-0.26458 -2.38125,-0.26458 z" />
  <path
     d="m 41.208854,39.823926 v 37.041666 h 15.82229 c 3.104442,0 5.767712,-0.335346 7.99021,-1.005623 2.222498,-0.705555 3.933577,-1.816704 5.13302,-3.333647 1.199443,-1.516942 1.799374,-3.510038 1.799374,-5.97948 0,-1.904998 -0.440974,-3.527882 -1.322917,-4.868436 -0.846666,-1.375832 -1.993196,-2.486981 -3.439583,-3.333647 -0.816658,-0.497962 -1.689718,-0.908506 -2.607593,-1.249019 1.400512,-0.682077 2.552172,-1.553275 3.454053,-2.614311 1.199443,-1.446387 1.799373,-3.174899 1.799373,-5.18573 0,-2.116664 -0.59993,-3.862608 -1.799373,-5.23844 -1.199444,-1.41111 -2.83976,-2.469445 -4.921147,-3.175 -2.046109,-0.705555 -4.391983,-1.058333 -7.037813,-1.058333 z m 39.422917,0 V 76.865592 H 91.109167 V 39.823926 Z m 20.743439,0 v 37.041666 h 10.68927 v -15.61455 l 12.32948,15.61455 h 12.43541 L 121.32489,57.180489 136.03562,39.823926 H 124.07666 L 112.06448,54.000321 V 39.823926 Z m 41.75145,0 v 37.041666 h 6.98459 2.85771 15.82229 v -8.30802 h -15.82229 v -6.932393 h 14.76395 v -8.04292 h -14.76395 v -5.45083 h 15.82229 v -8.307503 h -15.82229 -2.85771 z m -91.651766,7.831563 h 3.333647 c 1.446387,0 2.522155,0.264584 3.22771,0.79375 0.740832,0.529166 1.11156,1.358299 1.11156,2.487187 0,0.740832 -0.176389,1.375627 -0.529167,1.904793 -0.317499,0.529166 -0.793854,0.934758 -1.428853,1.21698 -0.635,0.282222 -1.428751,0.42323 -2.38125,0.42323 h -3.333647 z m 0,13.758333 h 4.286043 c 0.776111,0 1.481668,0.05281 2.116667,0.158647 0.670277,0.105833 1.252258,0.299655 1.746147,0.581877 0.529166,0.282222 0.935275,0.652949 1.217497,1.11156 0.282221,0.45861 0.42323,1.040592 0.42323,1.746146 0,1.09361 -0.247152,1.940175 -0.741041,2.539897 -0.493888,0.564444 -1.164064,0.952604 -2.010729,1.16427 -0.811389,0.211667 -1.728716,0.317293 -2.751771,0.317293 h -4.286043 z"
     style="font-weight:800;font-size:200px;font-family:Jost;-inkscape-font-specification:'Jost Ultra-Bold';text-align:center;letter-spacing:10px;word-spacing:0.1px;white-space:pre;stroke:none;stroke-width:1.00157;fill:#000000"
     id="path1" />
  <path
     d="m 38.192723,208.23658 -4.868333,6.24417 q 1.11125,0.74083 2.645833,1.37583 1.534584,0.68792 3.439584,1.16417 1.905,0.47625 3.96875,0.47625 2.434166,0 4.656666,-0.58209 2.2225,-0.52916 3.915833,-1.69333 1.693334,-1.11125 2.645834,-3.01625 0.9525,-1.85208 0.9525,-4.49792 v -39.89916 h -9.630833 v 37.88833 q 0,2.32833 -1.11125,3.28083 -1.11125,0.9525 -2.328334,0.9525 -1.164166,0 -2.328333,-0.52916 -1.164167,-0.47625 -1.957917,-1.16417 z m 35.189581,-21.9075 q 0,-3.28083 1.27,-5.76792 1.322916,-2.54 3.651249,-3.96875 2.38125,-1.42875 5.55625,-1.42875 3.227917,0 5.55625,1.42875 2.328334,1.42875 3.598334,3.96875 1.27,2.48709 1.27,5.76792 0,3.28083 -1.322917,5.82083 -1.27,2.48709 -3.65125,3.91584 -2.328333,1.42875 -5.450417,1.42875 -3.175,0 -5.55625,-1.42875 -2.328333,-1.42875 -3.651249,-3.91584 -1.27,-2.54 -1.27,-5.82083 z m -9.472084,0 q 0,4.28625 1.42875,7.88458 1.481667,3.59834 4.1275,6.24417 2.69875,2.64583 6.35,4.1275 3.65125,1.42875 8.043333,1.42875 4.339167,0 7.990417,-1.42875 3.65125,-1.48167 6.297083,-4.1275 2.698747,-2.64583 4.127497,-6.24417 1.48167,-3.59833 1.48167,-7.88458 0,-4.28625 -1.48167,-7.83167 -1.48166,-3.54541 -4.180413,-6.13833 -2.69875,-2.59292 -6.35,-3.96875 -3.598334,-1.42875 -7.884584,-1.42875 -4.233333,0 -7.884583,1.42875 -3.65125,1.37583 -6.35,3.96875 -2.69875,2.59292 -4.233333,6.13833 -1.481667,3.54542 -1.481667,7.83167 z m 48.20704,-18.52083 v 37.04166 h 9.10166 v -37.04166 z m 45.1379,0 v 20.84916 l -25.55875,-22.70125 v 38.89375 h 8.5725 v -20.84916 l 25.61167,22.70125 v -38.89375 z"
     id="path9"
     style="font-weight:bold;font-size:200px;line-height:1.1;font-family:Jost;-inkscape-font-specification:'Jost Bold';text-align:center;letter-spacing:10px;word-spacing:0.1px;white-space:pre;shape-padding:4.75644;stroke-width:0.264999;fill:#000000;stroke:none" />
  <path
     d="m 62.746025,226.01658 v 24.87083 q 0,3.4925 1.11125,6.08542 1.164166,2.59292 3.175,4.28625 2.063749,1.64042 4.762499,2.48708 2.69875,0.84667 5.820834,0.84667 3.122083,0 5.820833,-0.84667 2.751667,-0.84666 4.7625,-2.48708 2.06375,-1.69333 3.175,-4.28625 1.164167,-2.59292 1.164167,-6.08542 v -24.87083 h -8.942917 v 24.23583 q 0,2.80459 -1.481667,4.55084 -1.481666,1.74625 -4.497916,1.74625 -2.963334,0 -4.445,-1.74625 -1.481667,-1.74625 -1.481667,-4.55084 v -24.23583 z m 44.079595,24.02417 -6.24417,4.49791 q 1.27,2.64584 3.54542,4.86834 2.27541,2.2225 5.34458,3.54541 3.12208,1.27 6.72042,1.27 2.59291,0 5.02708,-0.79375 2.48708,-0.74083 4.39208,-2.2225 1.95792,-1.48166 3.06917,-3.65125 1.16417,-2.2225 1.16417,-5.02708 0,-2.32833 -0.74084,-4.1275 -0.74083,-1.79917 -2.06375,-3.175 -1.27,-1.37583 -2.96333,-2.32833 -1.69333,-1.00542 -3.65125,-1.74625 -2.59292,-0.89959 -4.445,-1.69334 -1.79917,-0.79375 -2.80458,-1.74625 -0.9525,-0.9525 -0.9525,-2.2225 0,-1.21708 1.00541,-2.01083 1.00542,-0.84667 2.91042,-0.84667 1.42875,0 2.64583,0.58209 1.27,0.52916 2.27542,1.53458 1.05833,0.9525 1.85208,2.27542 l 6.82625,-3.81 q -0.9525,-1.905 -2.75166,-3.75709 -1.79917,-1.85208 -4.55084,-3.06916 -2.69875,-1.21709 -6.40291,-1.21709 -3.59834,0 -6.56167,1.27 -2.91042,1.21709 -4.65667,3.59834 -1.69333,2.38125 -1.69333,5.66208 0,2.75167 1.00542,4.70958 1.00541,1.905 2.54,3.28084 1.53458,1.32291 3.22791,2.16958 1.74625,0.84667 3.06917,1.32292 2.69875,1.00541 4.33917,1.79916 1.64041,0.79375 2.38125,1.69334 0.74083,0.84666 0.74083,2.27541 0,1.69334 -1.27,2.69875 -1.27,0.9525 -3.22792,0.9525 -1.85208,0 -3.54541,-0.79375 -1.64042,-0.79375 -3.06917,-2.27541 -1.37583,-1.48167 -2.48708,-3.4925 z m 31.85583,-24.02417 1.74625,24.81792 h 6.45583 l 1.69334,-24.81792 z m 0,33.76083 q 0,2.01084 1.37583,3.28084 1.42875,1.27 3.59834,1.27 2.16958,0 3.54541,-1.27 1.42875,-1.27 1.42875,-3.28084 0,-2.01083 -1.42875,-3.28083 -1.37583,-1.27 -3.54541,-1.27 -2.16959,0 -3.59834,1.27 -1.37583,1.27 -1.37583,3.28083 z"
     id="path10"
     style="font-weight:bold;font-size:200px;line-height:1.1;font-family:Jost;-inkscape-font-specification:'Jost Bold';text-align:center;letter-spacing:10px;word-spacing:0.1px;white-space:pre;shape-padding:4.75644;stroke-width:0.264999;fill:#000000;stroke:none" />
  <path
     d="m 165.62226,1040.0957 h -5.63733 v 29.12 h 5.63733 z m 14.03732,20.5333 q 0,-2.912 -1.19466,-4.8906 -1.15733,-1.9787 -3.024,-3.024 -1.82933,-1.0454 -3.95733,-1.0454 -2.128,0 -3.808,1.0827 -1.67999,1.0827 -2.65066,3.0987 -0.97067,1.9786 -0.97067,4.7786 0,2.7627 0.97067,4.7787 0.97067,2.016 2.65066,3.0987 1.68,1.0826 3.808,1.0826 2.128,0 3.95733,-1.0453 1.86667,-1.0453 3.024,-3.024 1.19466,-2.016 1.19466,-4.8907 z m -5.93599,0 q 0,1.344 -0.56,2.352 -0.56,0.9707 -1.49333,1.5307 -0.93334,0.5227 -2.05333,0.5227 -0.97067,0 -1.904,-0.5227 -0.896,-0.5227 -1.49333,-1.4933 -0.59734,-1.008 -0.59734,-2.3894 0,-1.3813 0.59734,-2.352 0.59733,-1.008 1.49333,-1.5306 0.93333,-0.5227 1.904,-0.5227 1.11999,0 2.05333,0.56 0.93333,0.5227 1.49333,1.5307 0.56,0.9706 0.56,2.3146 z m 16.49735,-15.0453 q 0,1.344 0.97066,2.2027 0.97067,0.8586 2.31467,0.8586 1.38133,0 2.31466,-0.8586 0.97067,-0.8587 0.97067,-2.2027 0,-1.344 -0.97067,-2.1653 -0.93333,-0.8587 -2.31466,-0.8587 -1.344,0 -2.31467,0.8587 -0.97066,0.8213 -0.97066,2.1653 z m 0.56,6.4587 v 17.1733 h 5.45066 v -17.1733 z m 17.54262,-11.9467 v 29.12 h 5.41333 v -29.12 z m 11.64799,11.9467 -7.35466,7.0933 8.21332,10.08 h 6.64533 l -8.10133,-10.08 7.35466,-7.0933 z m 25.60666,17.5466 q 3.28533,0 5.56266,-1.2693 2.31466,-1.2693 3.65866,-3.808 l -5.03999,-1.232 q -0.63467,1.12 -1.71734,1.68 -1.04533,0.56 -2.53866,0.56 -1.30667,0 -2.20267,-0.56 -0.89599,-0.5973 -1.34399,-1.7173 -0.448,-1.12 -0.448,-2.688 0.0373,-1.7174 0.448,-2.8374 0.448,-1.1573 1.30666,-1.7173 0.85867,-0.56 2.128,-0.56 1.008,0 1.75466,0.448 0.74667,0.448 1.15734,1.2693 0.41066,0.8214 0.41066,1.9414 0,0.2613 -0.14933,0.672 -0.112,0.3733 -0.29867,0.6346 l 1.344,-1.7173 h -10.60265 v 3.136 h 15.67998 q 0.0747,-0.2613 0.0747,-0.6347 0,-0.4106 0,-0.8213 0,-2.7627 -1.08267,-4.704 -1.08266,-1.9413 -3.13599,-2.9493 -2.05334,-1.0454 -5.04,-1.0454 -2.98666,0 -5.18933,1.0827 -2.16533,1.0827 -3.32266,3.0987 -1.15734,2.016 -1.15734,4.7786 0,2.7254 1.19467,4.7414 1.19467,2.016 3.36,3.136 2.20266,1.0826 5.18933,1.0826 z m 17.13201,-17.5466 8.848,18.256 5.56266,-10.2294 5.67466,10.2294 8.84799,-18.256 h -5.89866 l -3.584,8.8106 -5.03999,-10.1173 -4.928,10.1173 -3.58399,-8.8106 z m 36.80666,8.5866 q 0,2.688 1.26933,4.704 1.26933,2.016 3.50933,3.136 2.24,1.12 5.04,1.12 2.79999,0 5.00266,-1.12 2.24,-1.12 3.50933,-3.136 1.30666,-2.016 1.30666,-4.704 0,-2.7253 -1.30666,-4.7413 -1.26933,-2.016 -3.50933,-3.136 -2.20267,-1.12 -5.00266,-1.12 -2.8,0 -5.04,1.12 -2.24,1.12 -3.50933,3.136 -1.26933,2.016 -1.26933,4.7413 z m 5.78666,0 q 0,-1.344 0.56,-2.3146 0.56,-0.9707 1.456,-1.4934 0.896,-0.5226 2.016,-0.5226 1.08266,0 1.97866,0.5226 0.93333,0.5227 1.456,1.4934 0.56,0.9706 0.56,2.3146 0,1.344 -0.56,2.3147 -0.52267,0.9333 -1.456,1.456 -0.896,0.5227 -1.97866,0.5227 -1.12,0 -2.016,-0.5227 -0.896,-0.5227 -1.456,-1.456 -0.56,-0.9707 -0.56,-2.3147 z m 30.27333,-8.5866 h -5.56266 v 17.1733 h 5.56266 z m 4.96533,5.824 2.42667,-4.816 q -0.448,-0.672 -1.30667,-1.0454 -0.85867,-0.3733 -1.792,-0.3733 -1.41866,0 -2.72533,0.9333 -1.30666,0.9334 -2.128,2.5387 -0.784,1.6053 -0.784,3.6587 l 1.344,1.9786 q 0,-1.232 0.336,-2.0906 0.336,-0.8587 0.97067,-1.3067 0.63466,-0.448 1.456,-0.448 0.74666,0 1.232,0.2613 0.52266,0.2614 0.97066,0.7094 z m 16.49734,2.7626 q 0,-1.2693 0.59733,-2.2773 0.59733,-1.008 1.64266,-1.6053 1.08267,-0.5974 2.31467,-0.5974 0.93333,0 1.904,0.2987 0.97066,0.2987 1.792,0.8587 0.85866,0.56 1.38133,1.3813 v -5.5253 q -0.896,-0.6347 -2.24,-1.0454 -1.344,-0.448 -3.28533,-0.448 -2.83733,0 -5.11466,1.12 -2.24,1.12 -3.54667,3.136 -1.26933,1.9787 -1.26933,4.704 0,2.688 1.26933,4.704 1.30667,2.016 3.54667,3.136 2.27733,1.12 5.11466,1.12 1.94133,0 3.28533,-0.4106 1.344,-0.448 2.24,-1.1574 v -5.488 q -0.52267,0.8214 -1.344,1.3814 -0.784,0.56 -1.75467,0.896 -0.93333,0.2986 -1.97866,0.2986 -1.232,0 -2.31467,-0.56 -1.04533,-0.56 -1.64266,-1.5306 -0.59733,-1.008 -0.59733,-2.3894 z m 29.93729,8.96 q 3.28533,0 5.56266,-1.2693 2.31466,-1.2693 3.65866,-3.808 l -5.03999,-1.232 q -0.63467,1.12 -1.71734,1.68 -1.04533,0.56 -2.53866,0.56 -1.30667,0 -2.20266,-0.56 -0.896,-0.5973 -1.344,-1.7173 -0.448,-1.12 -0.448,-2.688 0.0373,-1.7174 0.448,-2.8374 0.448,-1.1573 1.30666,-1.7173 0.85867,-0.56 2.128,-0.56 1.008,0 1.75467,0.448 0.74666,0.448 1.15733,1.2693 0.41066,0.8214 0.41066,1.9414 0,0.2613 -0.14933,0.672 -0.112,0.3733 -0.29867,0.6346 l 1.344,-1.7173 h -10.60265 v 3.136 h 15.67998 q 0.0747,-0.2613 0.0747,-0.6347 0,-0.4106 0,-0.8213 0,-2.7627 -1.08267,-4.704 -1.08266,-1.9413 -3.13599,-2.9493 -2.05334,-1.0454 -5.04,-1.0454 -2.98666,0 -5.18933,1.0827 -2.16533,1.0827 -3.32266,3.0987 -1.15733,2.016 -1.15733,4.7786 0,2.7254 1.19466,4.7414 1.19467,2.016 3.36,3.136 2.20266,1.0826 5.18933,1.0826 z m 21.0893,-6.608 -2.35199,3.7334 q 1.15733,0.896 2.50133,1.6426 1.344,0.7094 2.912,1.12 1.60533,0.448 3.47199,0.448 3.06133,0 4.74133,-1.3813 1.71733,-1.4187 1.71733,-4.1813 0,-1.6054 -0.70933,-2.576 -0.672,-0.9707 -1.82933,-1.6054 -1.12,-0.6346 -2.464,-1.12 -1.26933,-0.4853 -2.16533,-0.784 -0.85867,-0.336 -1.344,-0.7093 -0.448,-0.3733 -0.448,-0.9333 0,-0.4854 0.37333,-0.784 0.41067,-0.2987 1.19467,-0.2987 1.15733,0 2.53866,0.672 1.38134,0.6347 2.464,1.6427 l 2.016,-3.6587 q -1.008,-0.7467 -2.16533,-1.3067 -1.12,-0.56 -2.42667,-0.896 -1.26933,-0.336 -2.76266,-0.336 -1.86667,0 -3.32266,0.56 -1.41867,0.56 -2.27734,1.6427 -0.82133,1.0827 -0.82133,2.6507 0,1.6426 0.70933,2.688 0.70934,1.0453 1.792,1.68 1.12,0.5973 2.352,1.0453 1.38133,0.4107 2.16533,0.784 0.82134,0.3733 1.15734,0.784 0.33599,0.3733 0.33599,0.9333 0,0.5974 -0.41066,0.9707 -0.41067,0.3733 -1.26933,0.3733 -0.59734,0 -1.41867,-0.224 -0.82133,-0.2613 -1.904,-0.8586 -1.04533,-0.6347 -2.352,-1.7174 z m 21.57463,-10.9386 v 4.6666 h 11.49866 v -4.6666 z m 3.024,-5.9734 v 23.1467 h 5.41333 v -23.1467 z m 27.10003,23.52 q 3.28533,0 5.56266,-1.2693 2.31467,-1.2693 3.65867,-3.808 l -5.04,-1.232 q -0.63467,1.12 -1.71733,1.68 -1.04533,0.56 -2.53867,0.56 -1.30666,0 -2.20266,-0.56 -0.896,-0.5973 -1.344,-1.7173 -0.448,-1.12 -0.448,-2.688 0.0373,-1.7174 0.448,-2.8374 0.448,-1.1573 1.30667,-1.7173 0.85866,-0.56 2.12799,-0.56 1.008,0 1.75467,0.448 0.74667,0.448 1.15733,1.2693 0.41067,0.8214 0.41067,1.9414 0,0.2613 -0.14934,0.672 -0.112,0.3733 -0.29866,0.6346 l 1.344,-1.7173 h -10.60266 v 3.136 h 15.67999 q 0.0747,-0.2613 0.0747,-0.6347 0,-0.4106 0,-0.8213 0,-2.7627 -1.08266,-4.704 -1.08267,-1.9413 -3.136,-2.9493 -2.05333,-1.0454 -5.04,-1.0454 -2.98666,0 -5.18932,1.0827 -2.16534,1.0827 -3.32267,3.0987 -1.15733,2.016 -1.15733,4.7786 0,2.7254 1.19466,4.7414 1.19467,2.016 3.36,3.136 2.20267,1.0826 5.18933,1.0826 z m 25.71864,-17.5466 h -5.56266 v 17.1733 h 5.56266 z m 4.96533,5.824 2.42666,-4.816 q -0.448,-0.672 -1.30666,-1.0454 -0.85867,-0.3733 -1.792,-0.3733 -1.41867,0 -2.72533,0.9333 -1.30667,0.9334 -2.128,2.5387 -0.784,1.6053 -0.784,3.6587 l 1.344,1.9786 q 0,-1.232 0.336,-2.0906 0.336,-0.8587 0.97066,-1.3067 0.63467,-0.448 1.456,-0.448 0.74667,0 1.232,0.2613 0.52267,0.2614 0.97067,0.7094 z m 10.37465,8.8106 q 0,1.4187 1.00799,2.4267 1.008,1.008 2.50134,1.008 1.56799,0 2.53866,-1.008 0.97067,-1.008 0.97067,-2.4267 0,-1.4186 -0.97067,-2.4266 -0.97067,-1.008 -2.53866,-1.008 -1.49334,0 -2.50134,1.008 -1.00799,1.008 -1.00799,2.4266 z m 18.21469,-6.048 q 0,2.688 1.26933,4.704 1.26934,2.016 3.50934,3.136 2.23999,1.12 5.03999,1.12 2.8,0 5.00266,-1.12 2.24,-1.12 3.50933,-3.136 1.30667,-2.016 1.30667,-4.704 0,-2.7253 -1.30667,-4.7413 -1.26933,-2.016 -3.50933,-3.136 -2.20266,-1.12 -5.00266,-1.12 -2.8,0 -5.03999,1.12 -2.24,1.12 -3.50934,3.136 -1.26933,2.016 -1.26933,4.7413 z m 5.78666,0 q 0,-1.344 0.56,-2.3146 0.56,-0.9707 1.456,-1.4934 0.896,-0.5226 2.016,-0.5226 1.08267,0 1.97867,0.5226 0.93333,0.5227 1.45599,1.4934 0.56,0.9706 0.56,2.3146 0,1.344 -0.56,2.3147 -0.52266,0.9333 -1.45599,1.456 -0.896,0.5227 -1.97867,0.5227 -1.12,0 -2.016,-0.5227 -0.896,-0.5227 -1.456,-1.456 -0.56,-0.9707 -0.56,-2.3147 z m 30.27335,-8.5866 h -5.56266 v 17.1733 h 5.56266 z m 4.96533,5.824 2.42667,-4.816 q -0.448,-0.672 -1.30667,-1.0454 -0.85866,-0.3733 -1.792,-0.3733 -1.41866,0 -2.72533,0.9333 -1.30666,0.9334 -2.128,2.5387 -0.784,1.6053 -0.784,3.6587 l 1.344,1.9786 q 0,-1.232 0.336,-2.0906 0.336,-0.8587 0.97067,-1.3067 0.63466,-0.448 1.456,-0.448 0.74666,0 1.232,0.2613 0.52266,0.2614 0.97066,0.7094 z m 11.12131,12.5813 q 0.18667,2.2773 1.232,3.9947 1.04533,1.7546 3.09866,2.7253 2.09067,0.9706 5.264,0.9706 2.65066,0 4.77866,-0.9706 2.128,-0.9334 3.39733,-2.9867 1.30667,-2.0533 1.30667,-5.3386 v -16.8 h -5.41333 v 16.8 q 0,1.568 -0.59733,2.6133 -0.56,1.0827 -1.53067,1.6053 -0.97066,0.56 -2.16533,0.56 -1.08267,0 -1.94133,-0.3733 -0.85867,-0.336 -1.38133,-1.0453 -0.48534,-0.7094 -0.59734,-1.7547 z m -0.37333,-10.0427 q 0,2.8747 1.15733,4.816 1.19467,1.9414 3.06133,2.9494 1.86667,0.9706 3.95733,0.9706 2.16533,0 3.808,-1.008 1.68,-1.0453 2.65066,-2.9866 0.97067,-1.9787 0.97067,-4.7414 0,-2.8 -0.97067,-4.7413 -0.97066,-1.9413 -2.65066,-2.9493 -1.64267,-1.0454 -3.808,-1.0454 -2.09066,0 -3.95733,0.9707 -1.86666,0.9707 -3.06133,2.912 -1.15733,1.9413 -1.15733,4.8533 z m 5.93599,0 q 0,-1.344 0.56,-2.2773 0.56,-0.9333 1.49333,-1.4187 0.93334,-0.4853 2.05334,-0.4853 0.70933,0 1.41866,0.2613 0.70933,0.2614 1.26933,0.784 0.59734,0.5227 0.93334,1.3067 0.37333,0.784 0.37333,1.8293 0,1.3814 -0.59733,2.3147 -0.59734,0.9333 -1.53067,1.4187 -0.896,0.448 -1.86666,0.448 -1.12,0 -2.05334,-0.4854 -0.93333,-0.4853 -1.49333,-1.4186 -0.56,-0.9707 -0.56,-2.2774 z m 25.64402,6.272 q 0,1.4187 1.008,2.4267 1.008,1.008 2.50133,1.008 1.568,0 2.53866,-1.008 0.97067,-1.008 0.97067,-2.4267 0,-1.4186 -0.97067,-2.4266 -0.97066,-1.008 -2.53866,-1.008 -1.49333,0 -2.50133,1.008 -1.008,1.008 -1.008,2.4266 z m 25.12133,-4.1813 v -10.4533 h -5.89867 v 11.0506 q 0,3.0614 1.456,4.816 1.49334,1.7174 4.704,1.7174 1.904,0 3.17333,-0.784 1.26933,-0.8214 2.05333,-2.2027 v 2.576 h 5.63733 v -17.1733 h -5.63733 v 10.4533 q 0,1.008 -0.37333,1.7173 -0.37333,0.7094 -1.04533,1.0827 -0.63467,0.3733 -1.568,0.3733 -1.38133,0 -1.94133,-0.8213 -0.56,-0.8587 -0.56,-2.352 z m 23.03068,-22.4 v 29.12 h 5.41332 v -29.12 z m 11.64799,11.9467 -7.35466,7.0933 8.21332,10.08 h 6.64533 l -8.10133,-10.08 7.35466,-7.0933 z m 33.07334,-8.96 -16.16532,31.7333 h 5.63733 l 15.94132,-31.7333 z m 21.27595,-2.9867 h -5.63733 v 29.12 h 5.63733 z m 14.03732,20.5333 q 0,-2.912 -1.19466,-4.8906 -1.15734,-1.9787 -3.024,-3.024 -1.82933,-1.0454 -3.95733,-1.0454 -2.128,0 -3.808,1.0827 -1.68,1.0827 -2.65066,3.0987 -0.97067,1.9786 -0.97067,4.7786 0,2.7627 0.97067,4.7787 0.97066,2.016 2.65066,3.0987 1.68,1.0826 3.808,1.0826 2.128,0 3.95733,-1.0453 1.86666,-1.0453 3.024,-3.024 1.19466,-2.016 1.19466,-4.8907 z m -5.93599,0 q 0,1.344 -0.56,2.352 -0.56,0.9707 -1.49334,1.5307 -0.93333,0.5227 -2.05333,0.5227 -0.97066,0 -1.904,-0.5227 -0.89599,-0.5227 -1.49333,-1.4933 -0.59733,-1.008 -0.59733,-2.3894 0,-1.3813 0.59733,-2.352 0.59734,-1.008 1.49333,-1.5306 0.93334,-0.5227 1.904,-0.5227 1.12,0 2.05333,0.56 0.93334,0.5227 1.49334,1.5307 0.56,0.9706 0.56,2.3146 z m 16.49734,-15.0453 q 0,1.344 0.97067,2.2027 0.97066,0.8586 2.31466,0.8586 1.38134,0 2.31467,-0.8586 0.97066,-0.8587 0.97066,-2.2027 0,-1.344 -0.97066,-2.1653 -0.93333,-0.8587 -2.31467,-0.8587 -1.344,0 -2.31466,0.8587 -0.97067,0.8213 -0.97067,2.1653 z m 0.56,6.4587 v 17.1733 h 5.45066 v -17.1733 z m 17.54262,-11.9467 v 29.12 h 5.41333 v -29.12 z m 11.64799,11.9467 -7.35466,7.0933 8.21333,10.08 h 6.64533 l -8.10133,-10.08 7.35466,-7.0933 z m 25.60666,17.5466 q 3.28533,0 5.56267,-1.2693 2.31466,-1.2693 3.65866,-3.808 l -5.04,-1.232 q -0.63466,1.12 -1.71733,1.68 -1.04533,0.56 -2.53866,0.56 -1.30667,0 -2.20267,-0.56 -0.896,-0.5973 -1.344,-1.7173 -0.448,-1.12 -0.448,-2.688 0.0373,-1.7174 0.448,-2.8374 0.448,-1.1573 1.30667,-1.7173 0.85866,-0.56 2.128,-0.56 1.008,0 1.75466,0.448 0.74667,0.448 1.15733,1.2693 0.41067,0.8214 0.41067,1.9414 0,0.2613 -0.14933,0.672 -0.112,0.3733 -0.29867,0.6346 l 1.344,-1.7173 H 789.926 v 3.136 h 15.67999 q 0.0747,-0.2613 0.0747,-0.6347 0,-0.4106 0,-0.8213 0,-2.7627 -1.08267,-4.704 -1.08267,-1.9413 -3.136,-2.9493 -2.05333,-1.0454 -5.03999,-1.0454 -2.98667,0 -5.18933,1.0827 -2.16533,1.0827 -3.32267,3.0987 -1.15733,2.016 -1.15733,4.7786 0,2.7254 1.19467,4.7414 1.19466,2.016 3.35999,3.136 2.20267,1.0826 5.18933,1.0826 z m 25.75603,-29.4933 h -5.63732 v 29.12 h 5.63732 z m 14.03733,20.5333 q 0,-2.912 -1.19467,-4.8906 -1.15733,-1.9787 -3.024,-3.024 -1.82933,-1.0454 -3.95733,-1.0454 -2.128,0 -3.80799,1.0827 -1.68,1.0827 -2.65067,3.0987 -0.97066,1.9786 -0.97066,4.7786 0,2.7627 0.97066,4.7787 0.97067,2.016 2.65067,3.0987 1.67999,1.0826 3.80799,1.0826 2.128,0 3.95733,-1.0453 1.86667,-1.0453 3.024,-3.024 1.19467,-2.016 1.19467,-4.8907 z m -5.936,0 q 0,1.344 -0.56,2.352 -0.56,0.9707 -1.49333,1.5307 -0.93333,0.5227 -2.05333,0.5227 -0.97067,0 -1.904,-0.5227 -0.896,-0.5227 -1.49333,-1.4933 -0.59734,-1.008 -0.59734,-2.3894 0,-1.3813 0.59734,-2.352 0.59733,-1.008 1.49333,-1.5306 0.93333,-0.5227 1.904,-0.5227 1.12,0 2.05333,0.56 0.93333,0.5227 1.49333,1.5307 0.56,0.9706 0.56,2.3146 z m 22.73201,1.8667 v -10.4533 h -5.89866 v 11.0506 q 0,3.0614 1.456,4.816 1.49333,1.7174 4.70399,1.7174 1.904,0 3.17333,-0.784 1.26934,-0.8214 2.05333,-2.2027 v 2.576 h 5.63733 v -17.1733 h -5.63733 v 10.4533 q 0,1.008 -0.37333,1.7173 -0.37333,0.7094 -1.04533,1.0827 -0.63467,0.3733 -1.568,0.3733 -1.38133,0 -1.94133,-0.8213 -0.56,-0.8587 -0.56,-2.352 z m 24.00134,0.4853 -2.35199,3.7334 q 1.15733,0.896 2.50133,1.6426 1.344,0.7094 2.912,1.12 1.60533,0.448 3.47199,0.448 3.06133,0 4.74133,-1.3813 1.71733,-1.4187 1.71733,-4.1813 0,-1.6054 -0.70933,-2.576 -0.672,-0.9707 -1.82933,-1.6054 -1.12,-0.6346 -2.464,-1.12 -1.26933,-0.4853 -2.16533,-0.784 -0.85867,-0.336 -1.344,-0.7093 -0.448,-0.3733 -0.448,-0.9333 0,-0.4854 0.37333,-0.784 0.41067,-0.2987 1.19467,-0.2987 1.15733,0 2.53866,0.672 1.38134,0.6347 2.464,1.6427 l 2.016,-3.6587 q -1.008,-0.7467 -2.16533,-1.3067 -1.12,-0.56 -2.42667,-0.896 -1.26933,-0.336 -2.76266,-0.336 -1.86666,0 -3.32266,0.56 -1.41867,0.56 -2.27733,1.6427 -0.82134,1.0827 -0.82134,2.6507 0,1.6426 0.70934,2.688 0.70933,1.0453 1.79199,1.68 1.12,0.5973 2.352,1.0453 1.38133,0.4107 2.16533,0.784 0.82134,0.3733 1.15734,0.784 0.336,0.3733 0.336,0.9333 0,0.5974 -0.41067,0.9707 -0.41067,0.3733 -1.26933,0.3733 -0.59734,0 -1.41867,-0.224 -0.82133,-0.2613 -1.904,-0.8586 -1.04533,-0.6347 -2.352,-1.7174 z"
     id="text3"
     style="font-weight:bold;font-size:37.3333px;font-family:Jost;-inkscape-font-specification:'Jost Bold';text-align:center;letter-spacing:7.5px;word-spacing:0.1px;white-space:pre;stroke:none;stroke-width:1.00157;fill:#000000"
     transform="matrix(0.26458333,0,0,0.26458333,-33.914754,3.1461865)"
     aria-label="bikeworcester.org.uk/bikebus" />
  <path
     d="m 161.39091,249.9168 c 0,-5.79922 2.97346,-10.90942 7.47764,-13.88789 2.62785,-1.73771 5.77669,-2.74981 9.16006,-2.74981 9.18262,0 16.6377,7.45508 16.6377,16.6377 0,9.18258 -7.45508,16.6377 -16.6377,16.6377 -9.18262,0 -16.6377,-7.45512 -16.6377,-16.6377 z m 21.64897,1.76928 c -0.27777,0.3416 -0.43112,0.77012 -0.43112,1.21439 v 0 0 0 0 c 0,0.51324 0.20462,1.00545 0.5674,1.36822 0.36278,0.36279 0.85499,0.56741 1.36822,0.56741 0.51324,0 1.00544,-0.20462 1.36823,-0.56741 0.36281,-0.36277 0.5674,-0.85498 0.5674,-1.36822 0,-0.51322 -0.20459,-1.00544 -0.5674,-1.36822 -0.36279,-0.36278 -0.85499,-0.56741 -1.36823,-0.56741 -0.004,0 -0.006,0 -0.01,1.9e-4 -0.0864,-0.1694 -0.17154,-0.33948 -0.25548,-0.51008 -0.14794,-0.30056 -0.29057,-0.6038 -0.42734,-0.90978 0.22584,-0.0495 0.45811,-0.0735 0.6928,-0.0735 0.90919,0 1.78188,0.36171 2.42452,1.00434 0.64263,0.64263 1.00431,1.51533 1.00431,2.42452 0,0.90919 -0.36168,1.78189 -1.00431,2.42452 -0.64264,0.64263 -1.51533,1.00431 -2.42452,1.00431 -0.9092,0 -1.78189,-0.36168 -2.42453,-1.00431 -0.64263,-0.64263 -1.0043,-1.51533 -1.0043,-2.42452 v 0 0 0 0 0 0 c 0,-0.90919 0.36167,-1.78189 1.0043,-2.42452 0.0752,-0.0753 0.15349,-0.14649 0.23618,-0.21161 0.13924,0.31043 0.28421,0.61787 0.43411,0.9228 0.0823,0.16686 0.16553,0.33315 0.24973,0.49895 z m -14.53362,2.32048 c 0,-0.61608 0.24443,-1.20676 0.68024,-1.64251 0.43579,-0.43585 1.02643,-0.68027 1.64251,-0.68027 0.61608,0 1.20671,0.24442 1.64252,0.68027 0.43579,0.43575 0.68025,1.02643 0.68025,1.64251 0,0.61608 -0.24446,1.20671 -0.68025,1.64252 -0.43581,0.43579 -1.02644,0.68022 -1.64252,0.68022 -0.61608,0 -1.20672,-0.24443 -1.64251,-0.68022 -0.43581,-0.43581 -0.68024,-1.02644 -0.68024,-1.64252 z m 10.47128,-11.98145 c 0.33036,-0.0256 0.66073,-0.0435 0.99209,-0.0539 0.20463,-0.006 0.40925,-0.005 0.6139,0.005 0.0709,0.005 0.14045,0.009 0.21126,0.0156 0.0486,0.005 0.0974,0.0113 0.146,0.0188 0.0113,8e-4 0.0221,0.004 0.032,0.005 0.009,0.0486 0.0154,0.0974 0.02,0.14709 0.0188,0.1825 0.0276,0.36613 0.0265,0.55083 -7.9e-4,0.17366 -0.005,0.34843 -0.0133,0.52318 -0.009,0.18913 -0.02,0.37718 -0.031,0.5652 -0.0126,0.20021 -0.0232,0.40041 -0.032,0.60061 -0.01,0.20463 -0.0154,0.40925 -0.0154,0.61497 -8.1e-4,0.2201 0.008,0.44133 0.0254,0.66142 0.0136,0.16392 0.0357,0.32651 0.0659,0.48792 -0.32837,0.0332 -0.65605,0.0746 -0.98292,0.1226 -0.51213,0.0752 -1.02092,0.17144 -1.52531,0.28758 -0.46787,0.10728 -0.93022,0.23559 -1.3859,0.38605 -0.42696,0.14045 -0.84505,0.30306 -1.2554,0.48666 -0.49991,0.22324 -0.98237,0.48278 -1.44339,0.77654 v 0 l -0.66335,-0.78044 c 0.004,-5.5e-4 0.009,-8e-4 0.0129,-0.001 0.10401,-0.0144 0.20795,-0.0309 0.31193,-0.0497 0.0752,-0.0145 0.14821,-0.0332 0.22119,-0.0564 0.0354,-0.0126 0.0697,-0.0255 0.10514,-0.0398 0.042,-0.0177 0.0829,-0.0375 0.12172,-0.0608 0.0918,-0.0531 0.17365,-0.12273 0.24112,-0.20352 0.12833,-0.15266 0.1991,-0.34511 0.2002,-0.54309 7.9e-4,-0.18692 -0.0587,-0.36832 -0.1692,-0.51877 -0.0642,-0.0863 -0.14269,-0.16037 -0.23229,-0.2201 -0.0398,-0.0265 -0.0808,-0.0497 -0.12385,-0.0708 -0.0354,-0.0166 -0.0709,-0.032 -0.10841,-0.0453 -0.0907,-0.0354 -0.18474,-0.0619 -0.28096,-0.0819 -0.1471,-0.0299 -0.29532,-0.0553 -0.44463,-0.0764 -0.13606,-0.0188 -0.27212,-0.0354 -0.40814,-0.0497 -0.20574,-0.0221 -0.4126,-0.041 -0.61944,-0.0587 -0.32407,-0.0266 -0.64814,-0.0509 -0.97222,-0.0708 -0.50769,-0.031 -1.01426,-0.0598 -1.52307,-0.084 -0.22566,-0.0113 -0.44796,0.0708 -0.61167,0.22785 -0.16478,0.15599 -0.25772,0.37387 -0.25772,0.60062 v 0.77424 c 0,0.22455 0.0907,0.43911 0.2511,0.5951 0.16036,0.15593 0.37828,0.24001 0.60168,0.23448 0.54336,-0.0161 1.08669,-0.0352 1.62939,-0.0577 v 0 l 1.3901,1.63541 c -0.35694,0.31377 -0.69375,0.6501 -1.00857,1.00657 v 0 0 c -0.39533,-0.1346 -0.81927,-0.20631 -1.25987,-0.20631 -2.19768,0 -3.98188,1.78422 -3.98188,3.9819 v 0 0 c 0,2.19767 1.7842,3.98187 3.98188,3.98187 2.19766,0 3.98189,-1.7842 3.98189,-3.98187 0,-1.14722 -0.48619,-2.18175 -1.26417,-2.90812 0.35765,-0.38296 0.74772,-0.73456 1.1646,-1.05275 0.56965,-0.42804 1.18463,-0.79085 1.8361,-1.08175 0.35725,-0.1604 0.72338,-0.30194 1.09614,-0.42475 0.40811,-0.13382 0.82071,-0.24995 1.23879,-0.34506 0.46124,-0.10615 0.92691,-0.19468 1.39477,-0.26325 0.37511,-0.055 0.75074,-0.10075 1.12737,-0.13769 v 0 c 0.0507,0.16531 0.10363,0.33058 0.16011,0.49495 0.0452,0.13146 0.0918,0.26206 0.1397,0.39241 -1.35591,0.91364 -2.24788,2.46345 -2.24788,4.21993 v 0 0 0 0 0 0 c 0,2.80813 2.27982,5.08795 5.08796,5.08795 2.80813,0 5.08797,-2.27982 5.08797,-5.08795 0,-2.80813 -2.27984,-5.08798 -5.08797,-5.08798 -0.45917,0 -0.9042,0.0609 -1.32719,0.17586 -0.028,-0.0795 -0.0559,-0.15909 -0.083,-0.23887 -0.0564,-0.16261 -0.10954,-0.32743 -0.1593,-0.49335 -0.0675,-0.22451 -0.12829,-0.45127 -0.18139,-0.67913 -0.0454,-0.19243 -0.084,-0.38601 -0.11393,-0.58178 -0.0354,-0.14933 -0.0598,-0.30086 -0.073,-0.45349 -0.0145,-0.17255 -0.0211,-0.3451 -0.02,-0.51875 0,-0.18139 0.005,-0.36167 0.0133,-0.542 0.009,-0.19243 0.0188,-0.38491 0.031,-0.57735 0.0126,-0.19578 0.0232,-0.39267 0.032,-0.58843 0.009,-0.19799 0.0143,-0.39598 0.0155,-0.59399 8e-4,-0.24222 -0.0101,-0.48332 -0.0343,-0.72337 -0.0244,-0.24222 -0.0708,-0.48113 -0.14047,-0.71452 -0.0288,-0.10062 -0.073,-0.19689 -0.12939,-0.28426 -0.0543,-0.084 -0.11946,-0.15926 -0.19358,-0.22676 -0.0564,-0.0509 -0.11719,-0.0962 -0.1825,-0.13603 -0.0608,-0.0376 -0.12499,-0.0709 -0.19026,-0.0996 -0.0918,-0.0398 -0.1858,-0.0718 -0.28313,-0.0974 -0.11067,-0.0288 -0.22234,-0.052 -0.33516,-0.0686 -0.0785,-0.0126 -0.15815,-0.0222 -0.23779,-0.0299 -0.0951,-0.009 -0.18917,-0.0156 -0.28428,-0.0211 -0.24885,-0.0126 -0.49994,-0.0144 -0.74993,-0.006 -0.31564,0.009 -0.63129,0.0257 -0.94696,0.0484 -0.0151,-0.0164 -0.0305,-0.0325 -0.0464,-0.0484 -0.23446,-0.23451 -0.55302,-0.36611 -0.88485,-0.36611 h -2.03295 c -0.33185,0 -0.6504,0.1316 -0.88489,0.36611 -0.23449,0.2345 -0.36609,0.55306 -0.36609,0.88376 0,0.33181 0.1316,0.65037 0.36609,0.88485 0.23449,0.23448 0.55304,0.36613 0.88489,0.36613 h 2.03295 c 0.33183,0 0.65039,-0.13165 0.88485,-0.36613 0.0183,-0.0185 0.0362,-0.0373 0.0531,-0.0568 z"
     fill-rule="evenodd"
     fill="#000000"
     id="path1-0"
     style="isolation:isolate;stroke-width:0.0324955;fill:#000000;stroke:none" />
  <path
     d="m 15.333687,249.9168 c 0,-5.79922 2.97346,-10.90942 7.47764,-13.88789 2.627845,-1.73771 5.776688,-2.74981 9.160052,-2.74981 9.182624,0 16.637704,7.45508 16.637704,16.6377 0,9.18258 -7.45508,16.6377 -16.637704,16.6377 -9.182612,0 -16.637692,-7.45512 -16.637692,-16.6377 z m 21.648963,1.76928 c -0.27777,0.3416 -0.43112,0.77012 -0.43112,1.21439 v 0 0 0 0 c 0,0.51324 0.204625,1.00545 0.567399,1.36822 0.362786,0.36279 0.854992,0.56741 1.368226,0.56741 0.513233,0 1.005439,-0.20462 1.368225,-0.56741 0.362811,-0.36277 0.567399,-0.85498 0.567399,-1.36822 0,-0.51322 -0.204588,-1.00544 -0.567399,-1.36822 -0.362786,-0.36278 -0.854992,-0.56741 -1.368225,-0.56741 -0.0038,0 -0.0063,0 -0.01005,1.9e-4 -0.08642,-0.1694 -0.171539,-0.33948 -0.255487,-0.51008 -0.147935,-0.30056 -0.29057,-0.6038 -0.427339,-0.90978 0.225842,-0.0495 0.458115,-0.0735 0.692799,-0.0735 0.909195,0 1.781886,0.36171 2.424527,1.00434 0.642629,0.64263 1.004309,1.51533 1.004309,2.42452 0,0.90919 -0.36168,1.78189 -1.004309,2.42452 -0.642641,0.64263 -1.515332,1.00431 -2.424527,1.00431 -0.909194,0 -1.781885,-0.36168 -2.424526,-1.00431 -0.642629,-0.64263 -1.004297,-1.51533 -1.004297,-2.42452 v 0 0 0 0 0 0 c 0,-0.90919 0.361668,-1.78189 1.004297,-2.42452 0.07524,-0.0753 0.153487,-0.14649 0.236179,-0.21161 0.139243,0.31043 0.284214,0.61787 0.43411,0.9228 0.08228,0.16686 0.165534,0.33315 0.249733,0.49895 z m -14.533619,2.32048 c 0,-0.61608 0.244432,-1.20676 0.680237,-1.64251 0.435793,-0.43585 1.02643,-0.68027 1.642517,-0.68027 0.616074,0 1.206711,0.24442 1.642517,0.68027 0.435792,0.43575 0.68025,1.02643 0.68025,1.64251 0,0.61608 -0.244458,1.20671 -0.68025,1.64252 -0.435806,0.43579 -1.026443,0.68022 -1.642517,0.68022 -0.616087,0 -1.206724,-0.24443 -1.642517,-0.68022 -0.435805,-0.43581 -0.680237,-1.02644 -0.680237,-1.64252 z m 10.471286,-11.98145 c 0.330353,-0.0256 0.66073,-0.0435 0.992087,-0.0539 0.204626,-0.006 0.409251,-0.005 0.613901,0.005 0.07085,0.005 0.140449,0.009 0.211258,0.0156 0.04861,0.005 0.09735,0.0113 0.146001,0.0188 0.01131,8e-4 0.02211,0.004 0.03203,0.005 0.0088,0.0486 0.01545,0.0974 0.01997,0.14709 0.01884,0.1825 0.02764,0.36613 0.02651,0.55083 -7.91e-4,0.17366 -0.005,0.34843 -0.01332,0.52318 -0.0088,0.18913 -0.01997,0.37718 -0.03103,0.5652 -0.01256,0.20021 -0.02324,0.40041 -0.03203,0.60061 -0.01005,0.20463 -0.01545,0.40925 -0.01545,0.61497 -8.04e-4,0.2201 0.0075,0.44133 0.02537,0.66142 0.01357,0.16392 0.03567,0.32651 0.06595,0.48792 -0.328368,0.0332 -0.656045,0.0746 -0.982918,0.1226 -0.512128,0.0752 -1.020915,0.17144 -1.525306,0.28758 -0.467874,0.10728 -0.930222,0.23559 -1.3859,0.38605 -0.426962,0.14045 -0.845055,0.30306 -1.255399,0.48666 -0.499918,0.22324 -0.982377,0.48278 -1.443393,0.77654 v 0 l -0.663355,-0.78044 c 0.0038,-5.5e-4 0.0088,-8e-4 0.01294,-0.001 0.104009,-0.0144 0.207942,-0.0309 0.311925,-0.0497 0.07524,-0.0145 0.148212,-0.0332 0.221194,-0.0564 0.03542,-0.0126 0.06971,-0.0255 0.105139,-0.0398 0.04196,-0.0177 0.08291,-0.0375 0.12172,-0.0608 0.09182,-0.0531 0.173648,-0.12273 0.241116,-0.20352 0.128327,-0.15266 0.199098,-0.34511 0.200203,-0.54309 7.92e-4,-0.18692 -0.05866,-0.36832 -0.169202,-0.51877 -0.06419,-0.0863 -0.142685,-0.16037 -0.232285,-0.2201 -0.03982,-0.0265 -0.08077,-0.0497 -0.123856,-0.0708 -0.03542,-0.0166 -0.07085,-0.032 -0.108405,-0.0453 -0.09069,-0.0354 -0.18474,-0.0619 -0.28096,-0.0819 -0.147107,-0.0299 -0.295319,-0.0553 -0.444636,-0.0764 -0.136053,-0.0188 -0.272118,-0.0354 -0.408133,-0.0497 -0.205743,-0.0221 -0.412604,-0.041 -0.619441,-0.0587 -0.324071,-0.0266 -0.648143,-0.0509 -0.972227,-0.0708 -0.507682,-0.031 -1.014258,-0.0598 -1.52307,-0.084 -0.225653,-0.0113 -0.447952,0.0708 -0.611665,0.22785 -0.164781,0.15599 -0.257723,0.37387 -0.257723,0.60062 v 0.77424 c 0,0.22455 0.09069,0.43911 0.251103,0.5951 0.160359,0.15593 0.378274,0.24001 0.601679,0.23448 0.543356,-0.0161 1.086687,-0.0352 1.62939,-0.0577 v 0 l 1.390095,1.63541 c -0.356933,0.31377 -0.693742,0.6501 -1.008568,1.00657 v 0 0 c -0.395332,-0.1346 -0.819267,-0.20631 -1.259871,-0.20631 -2.19768,0 -3.981877,1.78422 -3.981877,3.9819 v 0 0 c 0,2.19767 1.784197,3.98187 3.981877,3.98187 2.197668,0 3.98189,-1.7842 3.98189,-3.98187 0,-1.14722 -0.48619,-2.18175 -1.264168,-2.90812 0.357649,-0.38296 0.747718,-0.73456 1.164606,-1.05275 0.569647,-0.42804 1.184628,-0.79085 1.8361,-1.08175 0.357247,-0.1604 0.723374,-0.30194 1.096133,-0.42475 0.408108,-0.13382 0.820712,-0.24995 1.238793,-0.34506 0.461243,-0.10615 0.926906,-0.19468 1.394768,-0.26325 0.375109,-0.055 0.750745,-0.10075 1.127374,-0.13769 v 0 c 0.05075,0.16531 0.103631,0.33058 0.160108,0.49495 0.04522,0.13146 0.09182,0.26206 0.139695,0.39241 -1.355903,0.91364 -2.247876,2.46345 -2.247876,4.21993 v 0 0 0 0 0 0 c 0,2.80813 2.27982,5.08795 5.087959,5.08795 2.808127,0 5.087971,-2.27982 5.087971,-5.08795 0,-2.80813 -2.279844,-5.08798 -5.087971,-5.08798 -0.45917,0 -0.904195,0.0609 -1.327188,0.17586 -0.02801,-0.0795 -0.0559,-0.15909 -0.08303,-0.23887 -0.0564,-0.16261 -0.109535,-0.32743 -0.159304,-0.49335 -0.06745,-0.22451 -0.128289,-0.45127 -0.181386,-0.67913 -0.04535,-0.19243 -0.08404,-0.38601 -0.113932,-0.58178 -0.03542,-0.14933 -0.05979,-0.30086 -0.07298,-0.45349 -0.01445,-0.17255 -0.0211,-0.3451 -0.01997,-0.51875 0,-0.18139 0.005,-0.36167 0.01331,-0.542 0.0088,-0.19243 0.01884,-0.38491 0.03103,-0.57735 0.01256,-0.19578 0.02324,-0.39267 0.03203,-0.58843 0.0088,-0.19799 0.01432,-0.39598 0.01545,-0.59399 8.04e-4,-0.24222 -0.01005,-0.48332 -0.03429,-0.72337 -0.02437,-0.24222 -0.07085,-0.48113 -0.140474,-0.71452 -0.02877,-0.10062 -0.07298,-0.19689 -0.129395,-0.28426 -0.05427,-0.084 -0.119459,-0.15926 -0.193572,-0.22676 -0.0564,-0.0509 -0.117197,-0.0962 -0.182504,-0.13603 -0.0608,-0.0376 -0.124986,-0.0709 -0.190255,-0.0996 -0.09182,-0.0398 -0.185808,-0.0718 -0.283134,-0.0974 -0.110666,-0.0288 -0.222337,-0.052 -0.335163,-0.0686 -0.07851,-0.0126 -0.158149,-0.0222 -0.237788,-0.0299 -0.09509,-0.009 -0.189175,-0.0156 -0.284277,-0.0211 -0.248854,-0.0126 -0.499944,-0.0144 -0.749928,-0.006 -0.315643,0.009 -0.631299,0.0257 -0.946967,0.0484 -0.01507,-0.0164 -0.03052,-0.0325 -0.04635,-0.0484 -0.234459,-0.23451 -0.553016,-0.36611 -0.884851,-0.36611 h -2.03295 c -0.331847,0 -0.650392,0.1316 -0.884888,0.36611 -0.234484,0.2345 -0.36609,0.55306 -0.36609,0.88376 0,0.33181 0.131606,0.65037 0.36609,0.88485 0.234496,0.23448 0.553041,0.36613 0.884888,0.36613 h 2.03295 c 0.331835,0 0.650392,-0.13165 0.884851,-0.36613 0.01834,-0.0185 0.03618,-0.0373 0.05313,-0.0568 z"
     fill-rule="evenodd"
     fill="#000000"
     id="path1-0-9"
     style="isolation:isolate;stroke-width:0.0324955;fill:#000000;stroke:none" />
</svg>
