<?xml version="1.0" encoding="UTF-8" standalone="no"?>
<!-- Generator: Gravit.io -->

<svg
   style="isolation:isolate"
   viewBox="0 0 1024 721.90297"
   width="1024pt"
   height="721.90295pt"
   version="1.1"
   id="svg3674"
   xmlns="http://www.w3.org/2000/svg"
   xmlns:svg="http://www.w3.org/2000/svg">
  <defs
     id="defs3678">
    <mask
       id="_mask_rakMl2N8SD4QbhdAafz25Obivj2xjbef">
      <path
         d="m 184.472,747.063 c 302.631,-301.004 719.636,-487.129 1179.77,-487.129 449.013,0 856.956,177.236 1157.627,465.506 l -1179.51,1179.51 z"
         fill="#ffffff"
         stroke="none"
         id="path3645" />
    </mask>
  </defs>
  <g
     id="g1927"
     transform="scale(0.37836576)">
    <path
       d="m 184.472,747.063 c 302.631,-301.004 719.636,-487.129 1179.77,-487.129 449.013,0 856.956,177.236 1157.627,465.506 l -1179.51,1179.51 z"
       fill="none"
       mask="url(#_mask_rakMl2N8SD4QbhdAafz25Obivj2xjbef)"
       vector-effect="non-scaling-stroke"
       stroke-width="12"
       stroke="rgb(0,0,0)"
       stroke-linejoin="miter"
       stroke-linecap="square"
       stroke-miterlimit="3"
       id="path3650"
       style="fill:#f9f9f9;fill-opacity:1;stroke:none" />
    <path
       d="M 0,563.591 C 349.863,215.355 832.102,0 1364.242,0 1885.261,0 2358.443,206.448 2706.376,541.933 L 1342.359,1905.95 Z m 184.472,183.472 c 302.631,-301.004 719.636,-487.129 1179.77,-487.129 449.013,0 856.956,177.236 1157.627,465.506 l -1179.51,1179.51 z"
       fill-rule="evenodd"
       fill="#000000"
       id="path3652"
       style="fill:#1a1a1a;stroke:none" />
    <path
       d="M 2666.003,582.306 C 2328.667,257.409 1870.115,57.512 1365.242,57.512 c -515.994,0 -983.604,208.8 -1322.876,546.445 l 138.13,138.13 C 482.71,444.009 897.649,259.934 1355.242,259.934 c 449.013,0 856.956,177.236 1157.627,465.506 z"
       fill="#81ca9f"
       id="path3654"
       style="fill:#000000" />
    <path
       d="m 2518.869,728.44 99.399,-99.399 C 2292.135,315.335 1849.046,122.363 1361.242,122.363 862.317,122.363 410.169,324.235 82.093,650.684 L 1339.359,1907.95 181.472,750.063 c 302.631,-301.004 719.636,-487.129 1179.77,-487.129 449.013,0 856.956,177.236 1157.627,465.506 z m -1179.51,1179.51 z"
       fill-rule="evenodd"
       fill="#aeaeae"
       id="path3656" />
    <path
       d="m 979.692,508.294 h 746.957 v 641.513 H 979.692 Z"
       fill="rgb(129,202,159)"
       id="path3643"
       style="fill:#000000" />
    <path
       d="m 184.472,747.063 c 302.631,-301.004 719.636,-487.129 1179.77,-487.129 449.013,0 856.956,177.236 1157.627,465.506 l -1179.51,1179.51 z"
       fill="none"
       id="path3648" />
    <path
       d="m 1022.997,545.217 v 567.667 h 660.347 V 545.217 Z"
       fill-rule="evenodd"
       fill="#ffffff"
       id="path3658"
       style="fill:#f9f9f9" />
    <path
       d="m 1022.997,545.217 v 567.667 h 660.347 V 545.217 Z m 485.385,335.966 q 16.764,10e-4 28.755,5.104 11.99,5.101 19.736,12.754 7.746,7.654 11.779,15.306 l -34.592,19.134 q -3.396,-5.315 -7.534,-8.397 -4.138,-3.083 -8.382,-4.572 -4.245,-1.488 -8.278,-1.488 -3.182,0 -5.729,0.745 -2.548,0.744 -3.926,2.232 -1.38,1.488 -1.38,4.038 0,3.402 2.547,5.847 2.548,2.445 6.897,4.358 4.35,1.913 10.08,3.827 5.729,1.913 12.309,4.252 8.913,3.189 15.916,7.547 7.003,4.357 11.991,10.097 c 3.296,3.777 5.851,8.14 7.534,12.862 q 2.547,7.121 2.547,15.838 0,12.329 -5.095,21.79 -5.092,9.462 -13.688,15.627 -8.594,6.164 -19.417,9.353 -10.822,3.189 -22.282,3.189 -15.917,-10e-4 -29.604,-5.21 -13.689,-5.207 -23.664,-14.348 -9.973,-9.142 -15.066,-20.409 l 31.406,-22.961 q 4.246,7.442 9.764,12.862 5.515,5.422 11.989,8.185 6.473,2.765 13.052,2.765 3.819,0 6.791,-0.958 2.972,-0.955 4.669,-3.082 1.696,-2.126 1.696,-5.315 0,-2.976 -2.016,-5.102 -2.015,-2.127 -7.957,-4.89 -5.943,-2.764 -18.039,-7.441 -5.304,-2.124 -12.202,-5.738 -6.896,-3.614 -13.156,-9.355 -6.261,-5.739 -10.401,-14.031 -4.135,-8.289 -4.135,-19.559 0,-14.669 7.851,-24.659 7.852,-9.992 20.797,-15.093 12.946,-5.103 28.437,-5.104 z m -219.433,4.254 h 46.688 v 95.665 q 0,5.951 2.015,10.521 2.016,4.571 6.154,7.122 4.139,2.552 10.507,2.553 6.366,0 10.504,-2.553 4.137,-2.551 6.155,-7.12 2.014,-4.572 2.014,-10.525 v -95.663 h 46.689 v 99.915 q 0,15.944 -5.2,26.893 -5.199,10.947 -14.324,17.644 -9.125,6.697 -20.902,9.78 -11.779,3.081 -24.936,3.082 -13.158,0 -24.937,-3.082 -11.777,-3.083 -20.902,-9.78 -9.126,-6.697 -14.324,-17.644 -5.201,-10.948 -5.201,-26.892 z m -106.746,35.075 v 23.385 h 11.673 q 5.306,0 8.701,-1.485 3.397,-1.491 5.094,-4.254 1.698,-2.765 1.697,-6.591 0,-5.74 -3.713,-8.395 -3.715,-2.659 -11.779,-2.659 z m 0,54.21 v 24.449 h 15.916 q 5.305,0 9.762,-0.85 4.458,-0.851 7.217,-3.614 2.76,-2.764 2.758,-8.717 0,-3.615 -1.592,-5.846 -1.591,-2.233 -4.35,-3.402 -2.759,-1.169 -6.259,-1.594 -3.502,-0.426 -7.536,-0.426 z m 71.651,-353.167 v 147.378 h 47.289 V 621.555 Z m 76.713,0 v 147.378 h 48.339 v -59.741 l 46.237,59.74 h 55.907 l -60.529,-78.321 57.376,-69.058 h -53.804 l -45.187,54.549 v -54.549 z m 164.144,0 v 147.378 h 106.135 v -36.846 h -62.001 v -21.053 h 57.798 v -35.793 h -57.798 v -16.842 h 62.001 v -36.844 z m -347.624,34.738 h 11.561 q 7.986,0 11.663,2.632 3.679,2.633 3.679,8.317 0,3.792 -1.682,6.527 -1.681,2.737 -5.043,4.21 -3.363,1.474 -8.617,1.475 h -11.561 z m 0,53.689 h 15.764 q 3.992,-10e-4 7.46,0.42 3.468,0.422 6.201,1.581 2.734,1.159 4.309,3.369 1.577,2.209 1.576,5.788 -10e-4,5.896 -2.733,8.632 -2.731,2.737 -7.145,3.58 -4.414,0.841 -9.668,0.841 h -15.764 z m -11.57,175.455 h 64.726 q 12.307,0 22.919,2.443 10.61,2.445 18.463,7.228 7.853,4.783 12.201,11.905 4.35,7.122 4.351,16.688 0,12.543 -7.64,21.367 c -3.493,4.035 -7.856,7.385 -13.048,10.085 3.057,1.226 6.002,2.632 8.805,4.263 q 9.125,5.317 14.748,13.713 5.625,8.396 5.624,20.301 0,14.883 -7.321,23.811 -7.321,8.927 -21.222,12.969 -13.9,4.038 -33.636,4.038 h -68.97 z M 1100.85,621.555 v 147.378 h 68.307 q 19.545,-10e-4 33.311,-4.002 13.766,-4.001 21.019,-12.843 7.249,-8.842 7.249,-23.58 0,-11.791 -5.57,-20.106 -5.57,-8.315 -14.606,-13.578 c -2.776,-1.617 -5.692,-3.01 -8.72,-4.224 5.141,-2.675 9.462,-5.993 12.923,-9.989 q 7.567,-8.737 7.568,-21.159 0,-9.475 -4.31,-16.528 -4.309,-7.054 -12.086,-11.789 -7.776,-4.737 -18.284,-7.158 -10.509,-2.422 -22.699,-2.422 z m -50.234,-46.194 h 602.009 v 239.765 h -602.009 z"
       fill-rule="evenodd"
       fill="#000000"
       id="path3660"
       style="fill:#1a1a1a" />
    <g
       id="g1100"
       style="fill:#f9f9f9">
      <path
         d="m 202.80692,703.01708 67.72777,-61.61316 -18.84194,-20.71186 -26.61474,24.2119 3.91012,-21.91568 q 1.4851,-8.35375 0.34308,-15.64245 -1.23621,-7.39225 -6.70038,-13.39868 -4.23944,-4.66017 -10.26743,-7.12547 -5.92443,-2.55951 -12.96861,-2.397 -7.03482,-0.0352 -14.52057,3.17866 -7.4764,3.01614 -14.62198,9.51661 -10.56305,9.60939 -13.84605,20.35579 -3.27364,10.54865 -0.67102,20.48312 2.60261,9.93449 9.66835,17.70143 l 22.26524,-20.25508 q -2.63787,-2.89966 -3.7691,-6.22363 -1.02767,-3.41816 -0.28478,-6.55443 0.64869,-3.23981 3.23768,-5.59505 1.96762,-1.78998 3.87915,-2.39336 1.92088,-0.80114 3.7008,-0.71699 1.77992,0.0841 3.32468,0.95002 1.54475,0.86587 2.76948,2.21214 2.54366,2.7961 3.56198,6.41204 1.01833,3.61595 1.08591,8.47531 0.077,4.66159 0.0695,11.10311 z"
         style="font-size:140px;line-height:1.25;fill:#f9f9f9;stroke-width:1.44666"
         id="path39390" />
      <path
         d="m 270.65316,577.98938 q -3.69302,-4.57559 -5.83208,-8.78619 -2.11805,-4.40748 -2.72415,-8.05624 -0.58511,-3.84563 0.32071,-6.73566 0.90582,-2.89004 3.30255,-4.82447 2.39674,-1.93444 5.41286,-2.20986 3.01611,-0.27541 6.54266,1.19614 3.54757,1.27467 7.29975,4.36321 3.7732,2.89168 7.46622,7.46727 3.69302,4.57559 5.81107,8.98307 2.13906,4.2106 2.72415,8.05623 0.60612,3.64876 -0.2997,6.53879 -0.90582,2.89003 -3.30255,4.82447 -2.39674,1.93444 -5.41285,2.20986 -3.01611,0.27541 -6.56368,-0.99927 -3.52655,-1.47154 -7.29975,-4.36321 -3.75219,-3.08854 -7.44521,-7.66414 z m -22.87793,18.4651 q 10.55148,13.07311 21.9225,18.46823 11.37101,5.39512 22.69001,3.81567 11.23106,-1.68839 21.25378,-9.77786 10.56743,-8.52912 14.47938,-19.06287 3.93296,-10.73062 0.84159,-22.80835 -3.09139,-12.07771 -13.64287,-25.15082 -10.55149,-13.07311 -21.70462,-18.64408 -11.15312,-5.57098 -22.38419,-3.88259 -11.21006,1.49152 -21.77749,10.02063 -10.02272,8.08947 -13.95567,18.82009 -4.0209,10.62168 -1.1474,22.87526 2.87349,12.25358 13.42498,25.32669 z"
         style="font-size:140px;line-height:1.25;fill:#f9f9f9;stroke-width:1.44666"
         id="path39392" />
      <path
         d="m 352.7428,574.89228 74.52213,-53.1948 -16.26752,-22.78963 -29.28469,20.90375 6.46772,-21.30151 q 2.46002,-8.12029 2.18567,-15.4928 -0.35569,-7.48646 -5.07327,-14.09545 -3.6602,-5.12767 -9.35535,-8.28674 -5.58119,-3.24041 -12.59536,-3.90987 -6.98156,-0.86475 -14.79413,1.4438 -7.77995,2.11327 -15.64238,7.72556 -11.62272,8.29643 -16.15031,18.58061 -4.49496,10.08889 -3.08226,20.261 1.41271,10.17211 7.51303,18.71822 l 24.49887,-17.48758 q -2.27746,-3.19055 -3.00874,-6.62474 -0.61734,-3.51552 0.49029,-6.54226 1.02629,-3.14069 3.87499,-5.17413 2.16502,-1.54542 4.13437,-1.91912 2.00196,-0.56898 3.75953,-0.27549 1.75758,0.2935 3.18942,1.33553 1.43184,1.04203 2.48923,2.52336 2.19612,3.07659 2.78084,6.78741 0.58473,3.7108 0.0787,8.54422 -0.47342,4.63813 -1.24033,11.03383 z"
         style="font-size:140px;line-height:1.25;fill:#f9f9f9;stroke-width:1.44666"
         id="path39394" />
      <path
         d="m 440.41282,457.75258 q 11.01141,-6.94761 18.74,-14.63805 7.77228,-7.88356 10.30528,-15.93769 2.45829,-8.17254 -2.54698,-16.10549 -4.25819,-6.74894 -11.40881,-9.68647 -7.15062,-2.93753 -16.43389,-1.38427 -9.28329,1.55328 -19.9395,8.27676 -10.0642,6.34995 -15.13297,14.84527 -4.95038,8.4206 -4.94196,17.35431 0.008,8.9337 5.01366,16.86667 l 23.79887,-15.01579 q -2.31587,-3.67047 -1.24882,-7.48892 1.06705,-3.81846 5.09272,-6.35845 2.60485,-1.64351 4.59232,-1.90427 2.03116,-0.45386 3.60702,0.20723 1.57588,0.66108 2.54705,2.20032 1.12057,1.77603 1.10083,4.10601 -0.0197,2.32998 -1.21083,4.90239 -1.07268,2.49772 -3.34769,4.92636 -2.15663,2.35393 -5.23508,4.29627 z m 32.44051,38.29755 q 11.84023,-7.47053 17.79984,-15.86576 6.07801,-8.46994 6.63623,-16.76794 0.60192,-8.49111 -4.02981,-15.83205 -4.03409,-6.39372 -9.95135,-8.95067 -5.87356,-2.75006 -13.42451,-2.12426 -7.43254,0.55109 -16.06886,4.17922 -8.59261,3.43503 -18.1832,9.48616 l 7.76935,12.31384 q 4.8545,-3.06292 8.57431,-4.25115 3.76349,-1.38134 6.55439,-1.15579 2.7162,0.10713 4.66559,1.36024 1.8747,1.13468 2.99528,2.91072 1.86762,2.96006 1.68579,5.55785 -0.25656,2.47939 -2.05797,4.60921 -1.75772,1.93671 -4.48097,3.65494 -2.60485,1.64351 -5.88205,2.22141 -3.15879,0.50319 -6.38524,-0.93738 -3.10804,-1.51529 -5.72273,-5.65936 l -25.5749,16.13635 q 3.73527,5.92012 9.68917,10.10932 5.87919,4.0708 13.21729,5.73129 7.33809,1.66048 15.49374,0.15654 8.27405,-1.57865 16.68061,-6.88273 z"
         style="font-size:140px;line-height:1.25;fill:#f9f9f9;stroke-width:1.44666"
         id="path39396" />
      <path
         d="m 517.67525,352.97658 2.79377,134.6187 23.85719,-13.2712 -4.01722,-133.93813 z"
         style="font-size:140px;line-height:1.25;fill:#f9f9f9;stroke-width:1.44666"
         id="path39398" />
      <path
         d="m 592.28833,423.69752 82.44416,-39.82706 -12.17953,-25.21227 -32.39778,15.65069 9.97667,-19.90106 q 3.79773,-7.58736 4.77402,-14.9001 0.91538,-7.43879 -2.61668,-14.75035 -2.74039,-5.67276 -7.81932,-9.74939 -4.95287,-4.13753 -11.75282,-5.98344 -6.7348,-2.03288 -14.82523,-1.07868 -8.02526,0.76725 -16.72351,4.96919 -12.85826,6.21156 -19.05969,15.58201 -6.13627,9.1835 -6.46401,19.448 -0.32775,10.26452 4.23958,19.71913 l 27.1032,-13.09299 q -1.70513,-3.52973 -1.84516,-7.03812 -0.014,-3.56928 1.58952,-6.36514 1.5426,-2.92191 4.69414,-4.44435 2.39516,-1.15706 4.39935,-1.19236 2.06934,-0.22226 3.75197,0.36422 1.68264,0.58647 2.91765,1.85562 1.23502,1.26914 2.02669,2.90794 1.64424,3.40366 1.59304,7.15991 -0.0512,3.75624 -1.36726,8.43449 -1.25091,4.49128 -3.08829,10.66519 z"
         style="font-size:140px;line-height:1.25;fill:#f9f9f9;stroke-width:1.44666"
         id="path39400" />
      <path
         d="m 674.3262,366.17641 91.74904,-37.50848 -9.80094,-23.97397 -18.53123,7.57586 -0.34879,5.43624 -35.3778,14.46302 7.67487,-26.7322 12.39687,30.32385 -3.30491,3.01482 9.32414,22.80767 29.80548,-12.18496 -37.08465,-90.71234 -23.32603,9.53605 z"
         style="font-size:140px;line-height:1.25;fill:#f9f9f9;stroke-width:1.44666"
         id="path39402" />
    </g>
    <g
       id="g1077"
       style="fill:#1a1a1a">
      <path
         d="m 797.36851,231.19872 30.40064,93.16545 29.94604,-9.77163 -30.40065,-93.16546 z"
         style="font-weight:900;font-size:140px;line-height:1.25;font-family:Jost;-inkscape-font-specification:'Jost, Heavy';fill:#1a1a1a;stroke-width:1.44666"
         id="path39404" />
      <path
         d="m 922.2671,256.98829 -16.39918,19.72306 q 5.07063,6.37454 12.92176,10.60496 7.85114,4.23043 17.36046,5.30009 9.67926,1.17122 19.86122,-1.39351 7.331,-1.8466 13.74179,-5.62701 6.41077,-3.7804 10.84946,-9.08528 4.57444,-5.33907 6.32802,-12.1332 1.71939,-6.92988 -0.264,-14.80393 -1.40205,-5.56613 -4.15964,-9.63584 -2.79179,-4.20545 -6.97332,-7.05025 -4.04577,-2.87898 -9.20975,-4.46569 -5.19818,-1.72247 -11.41303,-2.32261 -6.07907,-0.63434 -11.07105,-0.96502 -5.02617,-0.46643 -8.32168,-1.51318 -3.19394,-1.2167 -3.91205,-4.06765 -0.58134,-2.30791 1.04572,-3.87274 1.76281,-1.59902 4.88528,-2.38553 2.57942,-0.64974 5.53399,-0.38335 2.95456,0.2664 6.04694,1.65306 3.19393,1.21669 6.22099,4.06354 l 19.0511,-17.79235 q -3.81049,-4.23761 -10.06466,-7.85968 -6.1184,-3.65627 -14.6774,-4.9653 -8.42324,-1.34323 -19.14823,1.35828 -9.91044,2.49633 -17.37104,7.84054 -7.46061,5.3442 -10.87648,12.99016 -3.41587,7.64595 -1.05632,17.01335 1.8124,7.19525 5.7255,11.84013 4.04884,4.61069 8.90916,7.2845 4.99609,2.63961 9.92173,3.85324 5.0614,1.17943 8.79735,1.68211 8.4906,1.03752 12.73642,1.84489 4.2458,0.80737 5.80961,1.8572 1.69956,1.01563 2.1783,2.91626 0.78652,3.12247 -1.28099,5.23136 -2.10171,1.97313 -5.63145,2.86223 -4.20854,1.06008 -8.86164,0.3553 -4.51733,-0.73898 -8.90199,-3.24386 -4.41884,-2.64064 -8.3309,-6.70828 z"
         style="font-weight:900;font-size:140px;line-height:1.25;font-family:Jost;-inkscape-font-specification:'Jost, Heavy';fill:#1a1a1a;stroke-width:1.44666"
         id="path39406" />
      <path
         d="m 1024.5388,258.31158 50.8797,-9.72054 -4.1509,-21.72704 -50.8798,9.72054 z m 17.4935,-44.96149 16.8965,24.28061 -0.5653,8.23232 13.6439,16.20759 34.3782,-6.56793 -74.0214,-92.75734 -34.61375,113.512 34.37815,-6.56793 6.7993,-21.11094 -3.6513,-6.42902 z"
         style="font-weight:900;font-size:140px;line-height:1.25;font-family:Jost;-inkscape-font-specification:'Jost, Heavy';fill:#1a1a1a;stroke-width:1.44666"
         id="path39408" />
      <path
         d="m 1148.7693,151.80954 -11.2096,33.35556 -19.3354,-29.40057 -35.4045,4.58419 42.8031,54.73687 4.9078,37.90359 31.2392,-4.04487 -4.9437,-38.18128 27.3476,-63.53767 z"
         style="font-weight:900;font-size:140px;line-height:1.25;font-family:Jost;-inkscape-font-specification:'Jost, Heavy';fill:#1a1a1a;stroke-width:1.44666"
         id="path39410" />
    </g>
    <g
       id="g1091"
       style="fill:#f9f9f9">
      <path
         d="m 1268.3982,192.6297 20.0017,-0.85721 q 10.9099,-0.46757 19.3162,-3.77054 8.5402,-3.44882 13.3297,-9.39936 4.7837,-6.09041 4.43,-14.34284 -0.3597,-8.39229 -5.6348,-13.77135 -5.2752,-5.37907 -14.0671,-7.80484 -8.6521,-2.43177 -19.562,-1.9642 l -42.6609,1.82831 4.1962,97.91013 45.4582,-1.94821 q 13.0081,-0.55749 21.9859,-3.60469 9.1176,-3.05319 13.6214,-9.13161 4.6438,-6.08442 4.2242,-15.87542 -0.3357,-7.83281 -4.346,-13.12596 -3.8765,-5.439 -10.0408,-8.67804 -6.1644,-3.23902 -13.5036,-4.4659 -7.2054,-1.37274 -14.3388,-1.06702 l -22.7992,0.9771 0.7194,16.78459 18.6029,-0.79727 q 2.6576,-0.1139 4.9075,0.0699 2.3898,0.17784 4.2442,0.93914 1.8482,0.62143 2.8932,2.11806 1.179,1.35075 1.2809,3.72857 0.1678,3.91641 -1.5726,5.81267 -1.7403,1.89626 -4.6537,2.58162 -2.9133,0.68538 -6.4101,0.83524 l -10.4904,0.44959 -2.2179,-51.7525 7.6929,-0.32969 q 5.3152,-0.2278 7.7709,1.48863 2.5896,1.57055 2.7514,5.34709 0.1079,2.51769 -0.9331,4.38397 -1.0411,1.8663 -3.237,2.94131 -2.196,1.07501 -5.6928,1.22487 l -15.8055,0.67738 z"
         style="font-size:140px;line-height:1.25;fill:#f9f9f9;stroke-width:1.44666"
         id="path39412" />
      <path
         d="m 1349.9011,139.12545 -0.2936,97.99956 31.4999,0.0944 0.2936,-97.99957 z"
         style="font-size:140px;line-height:1.25;fill:#f9f9f9;stroke-width:1.44666"
         id="path39414" />
      <path
         d="m 1405.7272,139.17722 -4.998,97.87247 32.1581,1.64219 4.9979,-97.87247 z m 62.2189,3.17728 -41.2612,44.85406 36.9623,53.05411 37.1915,1.89922 -37.6115,-54.06852 40.5122,-43.91105 z"
         style="font-size:140px;line-height:1.25;fill:#f9f9f9;stroke-width:1.44666"
         id="path39416" />
      <path
         d="m 1531.0348,245.85498 49.1191,5.4455 2.6996,-24.3508 -49.1191,-5.44552 z m 8.0989,-73.05244 49.119,5.44551 2.6996,-24.35081 -49.119,-5.44552 z m -3.8567,34.78687 46.3362,5.13698 2.6225,-23.65507 -46.3361,-5.13698 z m -14.5941,-61.48249 -10.7985,97.40325 29.2209,3.23954 10.7985,-97.40325 z"
         style="font-size:140px;line-height:1.25;fill:#f9f9f9;stroke-width:1.44666"
         id="path39418" />
    </g>
    <g
       id="g1085"
       style="fill:#1a1a1a">
      <path
         d="m 1713.2341,174.64721 -21.1085,28.15466 -9.1352,-33.98231 -35.0552,-6.75476 23.4693,65.40197 -7.2315,37.52962 30.9309,5.9601 7.2845,-37.80457 45.9007,-51.74993 z"
         style="font-weight:900;font-size:140px;line-height:1.25;font-family:Jost;-inkscape-font-specification:'Jost, Heavy';fill:#1a1a1a;stroke-width:1.44666"
         id="path39420" />
      <path
         d="m 1770.2434,237.62585 q 1.8273,-7.04693 5.7375,-11.52894 3.9453,-4.61754 9.4264,-6.23349 5.5162,-1.75147 12.1566,-0.0296 7.0469,1.8273 10.8815,6.00348 4.0051,4.0758 5.074,9.99354 1.1039,5.78222 -0.7234,12.82915 -1.7921,6.91142 -5.7375,11.52895 -3.9453,4.61754 -9.4615,6.36901 -5.4811,1.61595 -12.1215,-0.10594 -6.6404,-1.72189 -10.6455,-5.79769 -3.9701,-4.21132 -5.1744,-10.16419 -1.2044,-5.95288 0.5878,-12.8643 z m -31.5757,-8.18776 q -2.9519,11.38351 -1.6172,21.85371 1.5053,10.36983 6.7601,19.10856 5.2548,8.73873 13.9278,14.8927 8.7733,6.32463 20.4279,9.34672 11.6546,3.0221 22.2602,1.72258 10.7061,-1.12886 19.5453,-6.21297 8.839,-5.08411 15.0583,-13.45092 6.3899,-8.46718 9.3416,-19.8507 2.9519,-11.38351 1.4114,-21.61781 -1.5405,-10.23431 -7.001,-18.73715 -5.4606,-8.50283 -14.1688,-14.52128 -8.7081,-6.01845 -20.0915,-8.97026 -11.1126,-2.88154 -21.648,-1.85306 -10.5355,1.02849 -19.4398,5.80642 -8.9043,4.77793 -15.3594,12.93894 -6.4551,8.161 -9.4069,19.54452 z"
         style="font-weight:900;font-size:140px;line-height:1.25;font-family:Jost;-inkscape-font-specification:'Jost, Heavy';fill:#1a1a1a;stroke-width:1.44666"
         id="path39422" />
      <path
         d="m 1875.6029,215.40225 -20.7138,62.45458 q -3.3055,9.96616 -2.408,17.93376 1.0744,7.87879 5.3779,14.02612 4.3478,6.01445 11.0393,10.29876 6.7803,4.46127 15.0189,7.19374 8.2388,2.73247 16.2083,3.1632 8.0584,0.60768 15.1387,-1.61656 7.1242,-2.35712 12.561,-8.07638 5.6138,-5.80807 8.9192,-15.77422 l 20.7139,-62.45459 -29.234,-9.69586 -19.8325,59.79694 q -1.851,5.58106 -5.9644,8.19928 -3.9364,2.52943 -9.916,0.54618 -5.9797,-1.98324 -7.7573,-6.40777 -1.6005,-4.51333 0.2504,-10.09437 l 19.8325,-59.79694 z"
         style="font-weight:900;font-size:140px;line-height:1.25;font-family:Jost;-inkscape-font-specification:'Jost, Heavy';fill:#1a1a1a;stroke-width:1.44666"
         id="path39424" />
      <path
         d="m 2012.0546,329.13719 -25.0007,5.736 q 0.1656,8.14362 3.8424,16.26878 3.6768,8.12517 10.5889,14.74287 6.9856,6.80152 16.6367,10.93747 6.9489,2.97788 14.3388,3.8601 7.3899,0.88223 14.1364,-0.6437 6.8752,-1.47077 12.39,-5.80926 5.5699,-4.46716 8.7683,-11.93068 2.2611,-5.27594 2.5367,-10.18418 0.3307,-5.03693 -1.2686,-9.83482 -1.4707,-4.74277 -4.6144,-9.13621 -3.0883,-4.52213 -7.6658,-8.76849 -4.4488,-4.1912 -8.2173,-7.48166 -3.7134,-3.41914 -5.6989,-6.25007 -1.8016,-2.90446 -0.6435,-5.60677 0.9375,-2.18758 3.1802,-2.44499 2.3715,-0.20226 5.3311,1.06609 2.445,1.04778 4.6326,3.05147 2.1875,2.00368 3.8053,4.98168 1.8016,2.90446 2.4818,7.00383 l 25.9383,-2.59253 q -0.4597,-5.6803 -3.2357,-12.35324 -2.6473,-6.61779 -8.6586,-12.84947 -5.8827,-6.17653 -16.0485,-10.53306 -9.3937,-4.02566 -18.5668,-4.3012 -9.1731,-0.27555 -16.5261,3.73207 -7.3532,4.00764 -11.1582,12.88665 -2.9228,6.82012 -2.6285,12.88647 0.4229,6.1215 2.6658,11.19513 2.3714,5.12879 5.5518,9.08104 3.309,4.0074 5.9746,6.67286 6.1216,5.97432 9.0078,9.19126 2.8862,3.21695 3.4928,5.00008 0.7354,1.83827 -0.036,3.63981 -1.2684,2.95967 -4.1913,3.38254 -2.8677,0.29419 -6.2134,-1.13961 -3.9891,-1.70952 -7.2613,-5.09191 -3.1436,-3.32723 -5.1107,-7.97807 -1.9118,-4.77951 -2.5554,-10.38628 z"
         style="font-weight:900;font-size:140px;line-height:1.25;font-family:Jost;-inkscape-font-specification:'Jost, Heavy';fill:#1a1a1a;stroke-width:1.44666"
         id="path39426" />
      <path
         d="m 2092.568,392.21427 46.3504,23.12736 9.8761,-19.79291 -46.3505,-23.12734 z m 41.1765,-25.14062 -1.2904,29.55296 -5.4419,6.20288 1.0193,21.16131 31.3179,15.62659 -2.6025,-118.64366 -96.3621,69.26364 31.3179,15.62659 18.209,-12.66227 0.9957,-7.32617 z"
         style="font-weight:900;font-size:140px;line-height:1.25;font-family:Jost;-inkscape-font-specification:'Jost, Heavy';fill:#1a1a1a;stroke-width:1.44666"
         id="path39428" />
      <path
         d="m 2255.9328,382.86902 -29.1409,19.72451 2.4549,-35.10303 -30.9315,-17.82512 0.8406,69.48035 -19.0834,33.11486 27.2925,15.72804 19.2232,-33.35746 60.276,-33.93704 z"
         style="font-weight:900;font-size:140px;line-height:1.25;font-family:Jost;-inkscape-font-specification:'Jost, Heavy';fill:#1a1a1a;stroke-width:1.44666"
         id="path39430" />
    </g>
    <g
       id="g1105"
       style="fill:#f9f9f9">
      <path
         d="m 2326.3006,487.87102 16.4241,11.44773 q 8.9585,6.24423 17.6458,8.71561 8.882,2.43657 16.299,0.60953 7.4969,-1.9419 12.2202,-8.71827 4.8032,-6.89121 3.8707,-14.3673 -0.9326,-7.47609 -6.4524,-14.73651 -5.405,-7.18038 -14.3636,-13.4246 l -35.0303,-24.41651 -56.0379,80.39748 37.3274,26.01759 q 10.6814,7.44504 19.6679,10.46634 9.1014,3.10135 16.3687,0.99934 7.3821,-2.02195 12.9858,-10.0617 4.4831,-6.4318 4.5042,-13.07255 0.2159,-6.67554 -2.7214,-12.98921 -2.9373,-6.31367 -8.0291,-11.73987 -4.8969,-5.46101 -10.7544,-9.54376 l -18.7212,-13.04883 -9.6065,13.78243 15.2756,10.6472 q 2.1822,1.52102 3.8597,3.03159 1.7924,1.59063 2.8052,3.32046 1.0928,1.61497 1.0162,3.43874 0.1183,1.78897 -1.2426,3.74147 -2.2416,3.21591 -4.7753,3.6683 -2.5339,0.45239 -5.266,-0.76933 -2.7321,-1.22173 -5.6035,-3.22308 l -8.614,-6.00405 29.62,-42.49581 6.317,4.40297 q 4.3644,3.04206 5.2763,5.89608 1.1066,2.81921 -1.0548,5.92026 -1.441,2.06736 -3.4005,2.92002 -1.9595,0.85267 -4.3576,0.37578 -2.398,-0.4769 -5.2694,-2.47825 l -12.9784,-9.04612 z"
         style="font-size:140px;line-height:1.25;fill:#f9f9f9;stroke-width:1.44666"
         id="path39432" />
      <path
         d="m 2424.5298,494.91756 -40.8906,51.55196 q -6.525,8.22638 -8.4167,16.01803 -1.6948,7.76896 0.2376,15.01993 2.0194,7.14129 6.834,13.46194 4.8374,6.51733 11.6378,11.9114 6.8006,5.39407 14.1383,8.53385 7.3602,3.33648 14.7737,3.6773 7.5006,0.23112 14.57,-3.27479 7.2663,-3.52859 13.7913,-11.75497 l 40.8906,-51.55196 -24.1307,-19.14024 -39.1505,49.35825 q -3.654,4.60678 -8.4161,5.65425 -4.5655,1.02478 -9.5013,-2.89026 -4.9358,-3.91505 -5.0869,-8.6809 0.045,-4.7885 3.6997,-9.39528 l 39.1505,-49.35826 z"
         style="font-size:140px;line-height:1.25;fill:#f9f9f9;stroke-width:1.44666"
         id="path39434" />
      <path
         d="m 2481.6518,619.95295 -25.5229,-2.55243 q -2.445,7.7697 -1.5569,16.64371 0.888,8.87402 5.3235,17.35329 4.4463,8.67696 12.2701,15.67969 5.6332,5.04196 12.3539,8.23904 6.7207,3.19709 13.6012,3.90667 6.9846,0.80295 13.5966,-1.54614 6.7052,-2.45341 12.1206,-8.50382 3.8282,-4.27701 5.6575,-8.83991 1.9229,-4.66723 1.9402,-9.72467 0.1217,-4.96407 -1.4534,-10.13162 -1.4817,-5.27186 -4.4625,-10.75814 -2.8764,-5.39292 -5.3962,-9.71498 -2.4263,-4.42637 -3.4032,-7.74327 -0.7792,-3.32783 1.1816,-5.51849 1.5873,-1.77339 3.7947,-1.30076 2.3117,0.566 4.711,2.71351 1.9821,1.77402 3.4148,4.37163 1.4328,2.59762 2.0142,5.9364 0.7792,3.32783 0.1146,7.42968 l 25.407,5.83069 q 1.3792,-5.52946 0.8808,-12.73955 -0.3941,-7.11673 -4.0993,-14.94242 -3.6009,-7.73232 -11.842,-15.10852 -7.6152,-6.81598 -16.2194,-10.00791 -8.6043,-3.19193 -16.8524,-1.74369 -8.2481,1.44824 -14.6906,8.64614 -4.9486,5.52882 -6.608,11.37122 -1.5551,5.93577 -1.0509,11.46005 0.6086,5.61766 2.3595,10.37888 1.8552,4.8546 3.5294,8.23201 3.892,7.61705 5.599,11.58753 1.7072,3.97048 1.7123,5.85398 0.11,1.97686 -1.1977,3.43731 -2.1475,2.3993 -5.0522,1.86613 -2.8115,-0.63747 -5.5238,-3.06508 -3.2337,-2.89447 -5.2538,-7.14504 -1.9157,-4.15722 -2.2937,-9.19277 -0.2847,-5.13985 0.8969,-10.65836 z"
         style="font-size:140px;line-height:1.25;fill:#f9f9f9;stroke-width:1.44666"
         id="path39436" />
    </g>
  </g>
</svg>
