<?xml version="1.0" encoding="UTF-8" standalone="no"?><!-- Generator: Gravit.io --><svg xmlns="http://www.w3.org/2000/svg" xmlns:xlink="http://www.w3.org/1999/xlink" style="isolation:isolate" viewBox="0 0 1024 722" width="1024pt" height="722pt"><defs><clipPath id="_clipPath_fuO7puBRRp2j1Kwppdbelyjv4FY7GmP6"><rect width="1024" height="722"/></clipPath></defs><g clip-path="url(#_clipPath_fuO7puBRRp2j1Kwppdbelyjv4FY7GmP6)"><path d=" M 0 213.244 C 132.376 81.483 314.839 0 516.182 0 C 713.318 0 892.354 78.113 1024 205.049 L 507.903 721.146 L 0 213.244 Z  M 69.798 282.663 C 184.303 168.773 342.084 98.35 516.182 98.35 C 686.074 98.35 840.425 165.41 954.189 274.482 L 507.903 720.768 L 69.798 282.663 Z " fill-rule="evenodd" fill="rgb(2,2,2)"/><path d=" M 1008.724 220.325 C 881.088 97.395 707.587 21.761 516.561 21.761 C 321.326 21.761 144.399 100.763 16.03 228.517 L 68.294 280.78 C 182.641 167.998 339.64 98.35 512.777 98.35 C 682.668 98.35 837.02 165.41 950.784 274.482 L 1008.724 220.325 Z " fill="rgb(0,0,0)"/><path d=" M 953.054 275.617 L 990.663 238.008 C 867.265 119.312 699.616 46.298 515.047 46.298 C 326.271 46.298 155.194 122.679 31.061 246.197 L 506.768 721.903 L 68.663 283.798 C 183.168 169.909 340.948 99.485 515.047 99.485 C 684.939 99.485 839.29 166.545 953.054 275.617 L 953.054 275.617 Z " fill-rule="evenodd" fill="rgb(174,174,174)"/><path d=" M 370.682 192.321 L 653.305 192.321 L 653.305 435.048 L 370.682 435.048 L 370.682 192.321 Z " fill="rgb(0,0,0)"/><path d=" M 69.798 282.663 C 184.303 168.773 342.084 98.35 516.182 98.35 C 686.074 98.35 840.425 165.41 954.189 274.482 L 507.903 720.768 L 69.798 282.663 Z " fill="none"/><path d=" M 387.067 206.291 L 387.067 421.077 L 636.92 421.077 L 636.92 206.291 L 387.067 206.291 Z " fill-rule="evenodd" fill="rgb(254,254,254)"/><path d=" M 387.067 206.291 L 387.067 421.077 L 636.92 421.077 L 636.92 206.291 L 387.067 206.291 Z  M 570.72 333.409 Q 577.063 333.41 581.6 335.341 Q 586.137 337.271 589.067 340.166 Q 591.998 343.062 593.524 345.958 L 580.436 353.197 Q 579.151 351.186 577.585 350.02 Q 576.019 348.854 574.414 348.29 Q 572.808 347.727 571.282 347.727 Q 570.078 347.727 569.114 348.009 Q 568.15 348.291 567.628 348.854 Q 567.106 349.417 567.106 350.381 Q 567.106 351.669 568.07 352.594 Q 569.034 353.519 570.68 354.243 Q 572.326 354.966 574.494 355.691 Q 576.661 356.414 579.151 357.299 Q 582.523 358.506 585.173 360.155 Q 587.823 361.804 589.71 363.975 C 590.957 365.404 591.924 367.055 592.561 368.842 Q 593.524 371.536 593.524 374.834 Q 593.524 379.499 591.596 383.079 Q 589.67 386.659 586.417 388.992 Q 583.166 391.324 579.071 392.531 Q 574.976 393.737 570.64 393.737 Q 564.617 393.737 559.439 391.766 Q 554.259 389.796 550.485 386.337 Q 546.712 382.878 544.785 378.615 L 556.668 369.927 Q 558.274 372.743 560.362 374.794 Q 562.449 376.845 564.898 377.891 Q 567.347 378.937 569.837 378.937 Q 571.282 378.937 572.406 378.575 Q 573.531 378.213 574.173 377.408 Q 574.814 376.604 574.814 375.397 Q 574.814 374.271 574.052 373.467 Q 573.289 372.662 571.041 371.617 Q 568.792 370.571 564.216 368.801 Q 562.209 367.998 559.599 366.63 Q 556.99 365.263 554.621 363.091 Q 552.252 360.919 550.686 357.782 Q 549.121 354.646 549.121 350.381 Q 549.121 344.831 552.092 341.051 Q 555.063 337.271 559.961 335.341 Q 564.859 333.41 570.72 333.409 L 570.72 333.409 Z  M 487.694 335.019 L 505.359 335.019 L 505.359 371.215 Q 505.359 373.467 506.122 375.196 Q 506.885 376.926 508.45 377.891 Q 510.016 378.856 512.426 378.857 Q 514.834 378.857 516.4 377.891 Q 517.965 376.926 518.729 375.197 Q 519.491 373.467 519.491 371.215 L 519.491 335.019 L 537.156 335.019 L 537.156 372.823 Q 537.156 378.856 535.189 382.999 Q 533.222 387.141 529.769 389.675 Q 526.317 392.209 521.861 393.375 Q 517.404 394.541 512.426 394.541 Q 507.447 394.541 502.99 393.375 Q 498.534 392.209 495.082 389.675 Q 491.629 387.141 489.662 382.999 Q 487.694 378.856 487.694 372.824 L 487.694 335.019 Z  M 447.305 348.29 L 447.305 357.138 L 451.722 357.138 Q 453.729 357.138 455.014 356.576 Q 456.299 356.012 456.941 354.967 Q 457.584 353.921 457.583 352.473 Q 457.583 350.301 456.179 349.297 Q 454.773 348.291 451.722 348.291 L 447.305 348.29 Z  M 447.305 368.801 L 447.305 378.052 L 453.327 378.052 Q 455.334 378.052 457.021 377.73 Q 458.708 377.408 459.751 376.363 Q 460.796 375.317 460.795 373.065 Q 460.795 371.697 460.193 370.853 Q 459.591 370.008 458.547 369.566 Q 457.503 369.123 456.179 368.963 Q 454.854 368.801 453.327 368.801 L 447.305 368.801 Z  M 474.415 235.175 L 474.415 290.938 L 492.308 290.938 L 492.308 235.175 L 474.415 235.175 Z  M 503.441 235.175 L 503.441 290.938 L 521.731 290.938 L 521.731 268.334 L 539.225 290.938 L 560.379 290.938 L 537.477 261.304 L 559.186 235.174 L 538.828 235.174 L 521.731 255.814 L 521.731 235.174 L 503.441 235.175 Z  M 565.547 235.175 L 565.547 290.938 L 605.705 290.938 L 605.705 276.997 L 582.246 276.997 L 582.246 269.031 L 604.115 269.031 L 604.115 255.488 L 582.246 255.488 L 582.246 249.116 L 605.705 249.116 L 605.705 235.175 L 565.547 235.175 Z  M 434.018 248.319 L 438.393 248.319 Q 441.414 248.319 442.806 249.315 Q 444.198 250.311 444.198 252.462 Q 444.198 253.896 443.561 254.931 Q 442.925 255.967 441.653 256.524 Q 440.381 257.082 438.393 257.082 L 434.018 257.082 L 434.018 248.319 Z  M 434.018 268.633 L 439.983 268.633 Q 441.493 268.632 442.806 268.792 Q 444.118 268.951 445.152 269.39 Q 446.186 269.829 446.782 270.665 Q 447.379 271.501 447.379 272.855 Q 447.378 275.086 446.344 276.121 Q 445.311 277.156 443.641 277.475 Q 441.971 277.793 439.983 277.793 L 434.018 277.793 L 434.018 268.633 Z  M 429.641 335.019 L 454.131 335.019 Q 458.787 335.019 462.803 335.943 Q 466.817 336.868 469.788 338.678 Q 472.76 340.488 474.405 343.183 Q 476.051 345.877 476.051 349.497 Q 476.051 354.243 473.16 357.581 C 471.839 359.108 470.188 360.376 468.223 361.397 C 469.38 361.861 470.494 362.393 471.555 363.01 Q 475.008 365.022 477.135 368.199 Q 479.263 371.375 479.263 375.88 Q 479.263 381.511 476.493 384.889 Q 473.723 388.267 468.463 389.796 Q 463.204 391.324 455.737 391.324 L 429.641 391.324 L 429.641 335.019 Z  M 416.524 235.175 L 416.524 290.938 L 442.369 290.938 Q 449.764 290.938 454.973 289.424 Q 460.181 287.91 462.926 284.564 Q 465.668 281.219 465.668 275.642 Q 465.668 271.181 463.561 268.035 Q 461.453 264.889 458.034 262.898 C 456.984 262.286 455.881 261.759 454.735 261.299 C 456.68 260.287 458.315 259.032 459.625 257.52 Q 462.488 254.214 462.488 249.514 Q 462.488 245.929 460.857 243.26 Q 459.227 240.591 456.285 238.8 Q 453.342 237.008 449.366 236.092 Q 445.39 235.175 440.778 235.175 L 416.524 235.175 Z  M 397.517 217.697 L 625.297 217.697 L 625.297 308.416 L 397.517 308.416 L 397.517 217.697 Z " fill-rule="evenodd" fill="rgb(2,2,2)"/><path d=" M 76.735 265.998 L 102.361 242.685 L 95.232 234.849 L 85.162 244.01 L 86.641 235.717 Q 87.203 232.557 86.771 229.799 Q 86.303 227.002 84.236 224.729 Q 82.632 222.966 80.351 222.033 Q 78.109 221.065 75.444 221.126 Q 72.782 221.113 69.95 222.329 Q 67.121 223.47 64.418 225.93 Q 60.421 229.566 59.179 233.632 Q 57.94 237.623 58.925 241.382 Q 59.91 245.141 62.583 248.079 L 71.007 240.416 Q 70.009 239.318 69.581 238.061 Q 69.193 236.767 69.474 235.581 Q 69.719 234.355 70.699 233.464 Q 71.443 232.787 72.166 232.558 Q 72.893 232.255 73.567 232.287 Q 74.24 232.319 74.825 232.646 Q 75.409 232.974 75.872 233.483 Q 76.835 234.541 77.22 235.91 Q 77.605 237.278 77.631 239.116 Q 77.66 240.88 77.657 243.317 L 76.735 265.998 Z " fill="rgb(249,249,249)"/><path d=" M 102.406 218.691 Q 101.009 216.96 100.199 215.367 Q 99.398 213.699 99.169 212.319 Q 98.947 210.864 99.29 209.77 Q 99.633 208.677 100.539 207.945 Q 101.446 207.213 102.587 207.109 Q 103.729 207.004 105.063 207.561 Q 106.405 208.044 107.825 209.212 Q 109.253 210.306 110.65 212.038 Q 112.047 213.769 112.849 215.436 Q 113.658 217.03 113.879 218.485 Q 114.109 219.865 113.766 220.959 Q 113.423 222.052 112.516 222.784 Q 111.61 223.516 110.468 223.62 Q 109.327 223.724 107.985 223.242 Q 106.651 222.685 105.223 221.591 Q 103.803 220.423 102.406 218.691 L 102.406 218.691 Z  M 93.75 225.678 Q 97.742 230.624 102.044 232.666 Q 106.347 234.707 110.63 234.109 Q 114.879 233.471 118.671 230.41 Q 122.67 227.183 124.15 223.197 Q 125.638 219.137 124.468 214.567 Q 123.298 209.997 119.306 205.051 Q 115.314 200.105 111.094 197.997 Q 106.874 195.889 102.624 196.528 Q 98.383 197.092 94.385 200.319 Q 90.592 203.38 89.104 207.44 Q 87.583 211.459 88.67 216.095 Q 89.757 220.732 93.75 225.678 L 93.75 225.678 Z " fill="rgb(249,249,249)"/><path d=" M 133.466 217.52 L 161.662 197.392 L 155.507 188.77 L 144.427 196.679 L 146.874 188.619 Q 147.805 185.547 147.701 182.757 Q 147.567 179.925 145.782 177.424 Q 144.397 175.484 142.242 174.289 Q 140.13 173.062 137.476 172.809 Q 134.835 172.482 131.879 173.355 Q 128.935 174.155 125.96 176.279 Q 121.562 179.418 119.849 183.309 Q 118.149 187.126 118.683 190.975 Q 119.218 194.824 121.526 198.057 L 130.795 191.441 Q 129.934 190.233 129.657 188.934 Q 129.423 187.604 129.842 186.459 Q 130.231 185.27 131.309 184.501 Q 132.128 183.916 132.873 183.775 Q 133.63 183.559 134.295 183.671 Q 134.96 183.782 135.502 184.176 Q 136.044 184.57 136.444 185.131 Q 137.275 186.295 137.496 187.699 Q 137.717 189.103 137.526 190.932 Q 137.347 192.686 137.057 195.106 L 133.466 217.52 Z " fill="rgb(249,249,249)"/><path d=" M 166.637 173.198 Q 170.803 170.569 173.728 167.659 Q 176.668 164.676 177.627 161.629 Q 178.557 158.537 176.663 155.535 Q 175.052 152.982 172.346 151.87 Q 169.641 150.759 166.128 151.347 Q 162.616 151.934 158.584 154.478 Q 154.776 156.881 152.858 160.095 Q 150.985 163.281 150.988 166.661 Q 150.991 170.042 152.885 173.043 L 161.89 167.362 Q 161.014 165.973 161.418 164.528 Q 161.821 163.083 163.344 162.122 Q 164.33 161.5 165.082 161.402 Q 165.851 161.23 166.447 161.48 Q 167.043 161.73 167.411 162.313 Q 167.835 162.985 167.827 163.866 Q 167.82 164.748 167.369 165.721 Q 166.963 166.666 166.102 167.585 Q 165.286 168.476 164.121 169.211 L 166.637 173.198 Z  M 178.912 187.688 Q 183.391 184.862 185.646 181.685 Q 187.946 178.481 188.157 175.341 Q 188.385 172.128 186.633 169.351 Q 185.106 166.931 182.867 165.964 Q 180.645 164.923 177.788 165.16 Q 174.976 165.369 171.708 166.741 Q 168.457 168.041 164.828 170.331 L 167.768 174.99 Q 169.605 173.831 171.012 173.381 Q 172.436 172.859 173.492 172.944 Q 174.52 172.985 175.257 173.459 Q 175.967 173.888 176.391 174.56 Q 177.097 175.68 177.028 176.663 Q 176.931 177.601 176.25 178.407 Q 175.585 179.14 174.554 179.79 Q 173.569 180.412 172.329 180.63 Q 171.134 180.821 169.913 180.276 Q 168.737 179.702 167.747 178.134 L 158.071 184.24 Q 159.484 186.48 161.737 188.065 Q 163.961 189.605 166.738 190.233 Q 169.514 190.862 172.6 190.293 Q 175.731 189.695 178.912 187.688 L 178.912 187.688 Z " fill="rgb(249,249,249)"/><path d=" M 195.871 133.554 L 196.928 184.489 L 205.954 179.468 L 204.434 128.79 L 195.871 133.554 Z " fill="rgb(249,249,249)"/><path d=" M 224.102 160.313 L 255.296 145.243 L 250.687 135.704 L 238.429 141.626 L 242.204 134.096 Q 243.641 131.225 244.01 128.458 Q 244.357 125.644 243.02 122.877 Q 241.983 120.731 240.062 119.188 Q 238.188 117.623 235.615 116.924 Q 233.067 116.155 230.005 116.516 Q 226.969 116.806 223.678 118.396 Q 218.813 120.747 216.466 124.292 Q 214.145 127.767 214.021 131.65 Q 213.897 135.534 215.625 139.112 L 225.88 134.158 Q 225.234 132.822 225.181 131.495 Q 225.176 130.144 225.783 129.086 Q 226.367 127.981 227.559 127.405 Q 228.465 126.967 229.224 126.954 Q 230.007 126.869 230.643 127.091 Q 231.28 127.313 231.747 127.793 Q 232.214 128.274 232.514 128.894 Q 233.136 130.182 233.117 131.603 Q 233.097 133.024 232.599 134.794 Q 232.126 136.493 231.431 138.829 L 224.102 160.313 Z " fill="rgb(249,249,249)"/><path d=" M 255.142 138.549 L 289.857 124.357 L 286.148 115.286 L 279.137 118.152 L 279.005 120.209 L 265.619 125.681 L 268.523 115.567 L 273.213 127.04 L 271.963 128.181 L 275.491 136.811 L 286.768 132.2 L 272.737 97.878 L 263.911 101.486 L 255.142 138.549 Z " fill="rgb(249,249,249)"/><path d=" M 301.697 87.478 L 313.2 122.728 L 324.53 119.031 L 313.028 83.78 L 301.697 87.478 Z " fill="rgb(26,26,26)"/><path d=" M 348.954 97.236 L 342.749 104.698 Q 344.668 107.11 347.639 108.711 Q 350.609 110.311 354.207 110.716 Q 357.869 111.159 361.722 110.189 Q 364.496 109.49 366.921 108.06 Q 369.347 106.629 371.026 104.622 Q 372.757 102.602 373.421 100.031 Q 374.071 97.409 373.321 94.43 Q 372.79 92.324 371.747 90.784 Q 370.691 89.193 369.109 88.117 Q 367.578 87.027 365.624 86.427 Q 363.657 85.775 361.306 85.548 Q 359.005 85.308 357.117 85.183 Q 355.215 85.007 353.968 84.61 Q 352.76 84.15 352.488 83.071 Q 352.268 82.198 352.884 81.606 Q 353.551 81.001 354.732 80.704 Q 355.708 80.458 356.826 80.558 Q 357.944 80.659 359.114 81.184 Q 360.322 81.644 361.468 82.721 L 368.676 75.989 Q 367.234 74.386 364.868 73.016 Q 362.553 71.632 359.314 71.137 Q 356.127 70.629 352.069 71.651 Q 348.32 72.595 345.497 74.617 Q 342.674 76.639 341.381 79.532 Q 340.089 82.425 340.982 85.97 Q 341.667 88.692 343.148 90.45 Q 344.68 92.194 346.519 93.206 Q 348.409 94.205 350.273 94.664 Q 352.188 95.11 353.602 95.3 Q 356.814 95.693 358.421 95.998 Q 360.027 96.304 360.619 96.701 Q 361.262 97.085 361.443 97.804 Q 361.741 98.986 360.958 99.784 Q 360.163 100.53 358.828 100.867 Q 357.235 101.268 355.475 101.001 Q 353.765 100.722 352.106 99.774 Q 350.434 98.775 348.954 97.236 L 348.954 97.236 Z " fill="rgb(26,26,26)"/><path d=" M 387.65 97.736 L 406.902 94.058 L 405.331 85.838 L 386.08 89.515 L 387.65 97.736 Z  M 394.269 80.724 L 400.662 89.911 L 400.449 93.026 L 405.611 99.159 L 418.618 96.673 L 390.611 61.577 L 377.515 104.526 L 390.522 102.041 L 393.095 94.054 L 391.713 91.621 L 394.269 80.724 Z " fill="rgb(26,26,26)"/><path d=" M 434.655 57.44 L 430.414 70.06 L 423.098 58.936 L 409.702 60.67 L 425.897 81.381 L 427.754 95.722 L 439.574 94.192 L 437.703 79.746 L 448.051 55.705 L 434.655 57.44 Z " fill="rgb(26,26,26)"/><path d=" M 479.918 72.884 L 487.486 72.56 Q 491.614 72.383 494.795 71.133 Q 498.026 69.829 499.838 67.577 Q 501.648 65.273 501.515 62.15 Q 501.379 58.975 499.383 56.94 Q 497.387 54.904 494.06 53.987 Q 490.786 53.066 486.659 53.243 L 470.517 53.935 L 472.105 90.981 L 489.305 90.244 Q 494.226 90.033 497.623 88.88 Q 501.073 87.725 502.777 85.425 Q 504.534 83.123 504.376 79.418 Q 504.249 76.454 502.731 74.452 Q 501.264 72.394 498.932 71.168 Q 496.6 69.943 493.823 69.479 Q 491.096 68.959 488.397 69.075 L 479.771 69.445 L 480.043 75.795 L 487.082 75.494 Q 488.087 75.45 488.939 75.52 Q 489.843 75.587 490.545 75.875 Q 491.244 76.11 491.639 76.677 Q 492.085 77.188 492.124 78.088 Q 492.187 79.569 491.529 80.287 Q 490.87 81.004 489.768 81.264 Q 488.666 81.523 487.343 81.58 L 483.374 81.75 L 482.534 62.168 L 485.445 62.044 Q 487.456 61.957 488.385 62.607 Q 489.365 63.201 489.426 64.63 Q 489.467 65.583 489.073 66.289 Q 488.679 66.995 487.849 67.402 Q 487.018 67.808 485.695 67.865 L 479.714 68.121 L 479.918 72.884 Z " fill="rgb(249,249,249)"/><path d=" M 510.756 52.64 L 510.645 89.72 L 522.564 89.756 L 522.675 52.676 L 510.756 52.64 Z " fill="rgb(249,249,249)"/><path d=" M 531.879 52.66 L 529.988 89.691 L 542.155 90.313 L 544.047 53.281 L 531.879 52.66 Z  M 555.421 53.862 L 539.809 70.833 L 553.794 90.907 L 567.866 91.626 L 553.635 71.168 L 568.963 54.554 L 555.421 53.862 Z " fill="rgb(249,249,249)"/><path d=" M 579.291 93.023 L 597.876 95.083 L 598.898 85.87 L 580.313 83.81 L 579.291 93.023 Z  M 582.355 65.383 L 600.94 67.443 L 601.962 58.229 L 583.377 56.169 L 582.355 65.383 Z  M 580.896 78.545 L 598.428 80.488 L 599.421 71.538 L 581.889 69.594 L 580.896 78.545 Z  M 575.374 55.282 L 571.289 92.136 L 582.345 93.362 L 586.431 56.508 L 575.374 55.282 Z " fill="rgb(249,249,249)"/><path d=" M 648.229 66.081 L 640.242 76.733 L 636.786 63.876 L 623.522 61.32 L 632.402 86.066 L 629.666 100.266 L 641.369 102.521 L 644.125 88.217 L 661.493 68.636 L 648.229 66.081 Z " fill="rgb(26,26,26)"/><path d=" M 669.799 89.909 Q 670.491 87.243 671.97 85.547 Q 673.463 83.8 675.537 83.189 Q 677.624 82.526 680.137 83.178 Q 682.803 83.869 684.254 85.449 Q 685.769 86.991 686.174 89.23 Q 686.591 91.418 685.9 94.084 Q 685.222 96.699 683.729 98.447 Q 682.236 100.194 680.149 100.856 Q 678.075 101.468 675.563 100.816 Q 673.05 100.165 671.535 98.623 Q 670.033 97.029 669.577 94.777 Q 669.121 92.525 669.799 89.909 L 669.799 89.909 Z  M 657.852 86.812 Q 656.735 91.119 657.24 95.08 Q 657.81 99.004 659.798 102.31 Q 661.786 105.617 665.068 107.945 Q 668.388 110.338 672.797 111.482 Q 677.207 112.625 681.22 112.133 Q 685.271 111.706 688.615 109.783 Q 691.959 107.859 694.313 104.693 Q 696.73 101.49 697.847 97.182 Q 698.964 92.875 698.381 89.003 Q 697.798 85.131 695.732 81.913 Q 693.666 78.696 690.371 76.419 Q 687.076 74.142 682.769 73.025 Q 678.565 71.935 674.578 72.324 Q 670.592 72.713 667.223 74.521 Q 663.854 76.329 661.412 79.417 Q 658.969 82.504 657.852 86.812 L 657.852 86.812 Z " fill="rgb(26,26,26)"/><path d=" M 709.664 81.501 L 701.827 105.132 Q 700.576 108.902 700.915 111.917 Q 701.322 114.898 702.95 117.224 Q 704.595 119.5 707.127 121.121 Q 709.693 122.809 712.81 123.843 Q 715.927 124.876 718.942 125.039 Q 721.991 125.269 724.67 124.428 Q 727.366 123.536 729.423 121.372 Q 731.547 119.174 732.798 115.404 L 740.635 91.773 L 729.574 88.104 L 722.07 110.729 Q 721.37 112.841 719.813 113.832 Q 718.324 114.789 716.062 114.038 Q 713.799 113.288 713.126 111.614 Q 712.521 109.906 713.221 107.795 L 720.725 85.169 L 709.664 81.501 Z " fill="rgb(26,26,26)"/><path d=" M 761.293 124.534 L 751.833 126.705 Q 751.896 129.786 753.287 132.86 Q 754.678 135.934 757.293 138.438 Q 759.937 141.012 763.588 142.577 Q 766.217 143.703 769.014 144.037 Q 771.81 144.371 774.362 143.794 Q 776.964 143.237 779.05 141.596 Q 781.158 139.905 782.368 137.081 Q 783.223 135.085 783.328 133.228 Q 783.453 131.322 782.848 129.507 Q 782.291 127.712 781.102 126.05 Q 779.933 124.339 778.201 122.732 Q 776.518 121.147 775.092 119.902 Q 773.687 118.608 772.936 117.537 Q 772.254 116.438 772.692 115.415 Q 773.047 114.588 773.896 114.49 Q 774.793 114.414 775.913 114.894 Q 776.838 115.29 777.666 116.048 Q 778.493 116.806 779.105 117.933 Q 779.787 119.032 780.044 120.583 L 789.859 119.602 Q 789.685 117.453 788.634 114.928 Q 787.633 112.424 785.358 110.066 Q 783.132 107.729 779.286 106.081 Q 775.732 104.558 772.261 104.454 Q 768.79 104.349 766.008 105.866 Q 763.226 107.382 761.786 110.742 Q 760.68 113.322 760.792 115.617 Q 760.952 117.934 761.8 119.853 Q 762.697 121.794 763.901 123.289 Q 765.153 124.805 766.161 125.814 Q 768.478 128.074 769.57 129.292 Q 770.662 130.509 770.891 131.183 Q 771.169 131.879 770.878 132.561 Q 770.398 133.68 769.292 133.84 Q 768.207 133.952 766.941 133.409 Q 765.431 132.762 764.193 131.483 Q 763.004 130.224 762.26 128.464 Q 761.536 126.656 761.293 124.534 L 761.293 124.534 Z " fill="rgb(26,26,26)"/><path d=" M 791.756 148.4 L 809.293 157.151 L 813.03 149.662 L 795.493 140.911 L 791.756 148.4 Z  M 807.336 138.888 L 806.848 150.07 L 804.789 152.417 L 805.174 160.424 L 817.024 166.336 L 816.039 121.445 L 779.579 147.652 L 791.429 153.565 L 798.318 148.774 L 798.695 146.002 L 807.336 138.888 Z " fill="rgb(26,26,26)"/><path d=" M 853.568 144.865 L 842.542 152.328 L 843.471 139.046 L 831.767 132.301 L 832.085 158.59 L 824.865 171.12 L 835.191 177.071 L 842.465 164.45 L 865.271 151.609 L 853.568 144.865 Z " fill="rgb(26,26,26)"/><path d=" M 880.192 184.594 L 886.407 188.925 Q 889.796 191.288 893.083 192.223 Q 896.444 193.145 899.25 192.453 Q 902.087 191.719 903.874 189.155 Q 905.691 186.547 905.339 183.719 Q 904.986 180.89 902.897 178.143 Q 900.852 175.426 897.463 173.063 L 884.208 163.825 L 863.005 194.245 L 877.129 204.089 Q 881.17 206.906 884.571 208.049 Q 888.014 209.222 890.764 208.427 Q 893.557 207.662 895.677 204.62 Q 897.374 202.187 897.381 199.674 Q 897.463 197.148 896.352 194.759 Q 895.24 192.37 893.314 190.317 Q 891.461 188.251 889.245 186.706 L 882.161 181.769 L 878.527 186.984 L 884.306 191.012 Q 885.132 191.588 885.767 192.159 Q 886.445 192.761 886.828 193.416 Q 887.242 194.027 887.213 194.717 Q 887.257 195.394 886.742 196.132 Q 885.894 197.349 884.936 197.52 Q 883.977 197.692 882.943 197.229 Q 881.909 196.767 880.823 196.01 L 877.564 193.738 L 888.771 177.659 L 891.161 179.325 Q 892.812 180.476 893.157 181.556 Q 893.576 182.623 892.758 183.796 Q 892.213 184.578 891.472 184.901 Q 890.73 185.223 889.823 185.043 Q 888.916 184.863 887.829 184.105 L 882.919 180.683 L 880.192 184.594 Z " fill="rgb(249,249,249)"/><path d=" M 917.359 187.26 L 901.887 206.765 Q 899.419 209.878 898.703 212.826 Q 898.062 215.766 898.793 218.509 Q 899.557 221.211 901.379 223.603 Q 903.209 226.069 905.782 228.109 Q 908.355 230.15 911.131 231.338 Q 913.916 232.601 916.721 232.73 Q 919.559 232.817 922.234 231.491 Q 924.983 230.156 927.452 227.043 L 942.924 207.537 L 933.793 200.295 L 918.98 218.971 Q 917.598 220.714 915.796 221.11 Q 914.068 221.498 912.201 220.017 Q 910.333 218.535 910.276 216.732 Q 910.293 214.92 911.676 213.177 L 926.489 194.502 L 917.359 187.26 Z " fill="rgb(249,249,249)"/><path d=" M 938.972 234.569 L 929.315 233.603 Q 928.39 236.543 928.726 239.901 Q 929.062 243.258 930.74 246.467 Q 932.423 249.75 935.383 252.399 Q 937.514 254.307 940.057 255.517 Q 942.6 256.726 945.203 256.995 Q 947.846 257.298 950.348 256.41 Q 952.885 255.481 954.934 253.192 Q 956.382 251.574 957.074 249.847 Q 957.802 248.081 957.809 246.168 Q 957.855 244.29 957.259 242.334 Q 956.698 240.34 955.57 238.264 Q 954.482 236.223 953.528 234.588 Q 952.61 232.913 952.241 231.658 Q 951.946 230.399 952.688 229.57 Q 953.288 228.899 954.124 229.078 Q 954.998 229.292 955.906 230.105 Q 956.656 230.776 957.198 231.759 Q 957.74 232.742 957.96 234.005 Q 958.255 235.264 958.004 236.816 L 967.617 239.022 Q 968.139 236.93 967.95 234.202 Q 967.801 231.509 966.399 228.548 Q 965.037 225.623 961.918 222.832 Q 959.037 220.253 955.782 219.045 Q 952.526 217.838 949.405 218.385 Q 946.284 218.933 943.847 221.657 Q 941.974 223.749 941.346 225.959 Q 940.758 228.205 940.949 230.295 Q 941.179 232.421 941.842 234.222 Q 942.544 236.059 943.177 237.337 Q 944.65 240.219 945.295 241.722 Q 945.941 243.224 945.943 243.936 Q 945.985 244.684 945.49 245.237 Q 944.678 246.145 943.579 245.943 Q 942.515 245.702 941.489 244.783 Q 940.265 243.688 939.501 242.08 Q 938.776 240.507 938.633 238.602 Q 938.525 236.657 938.972 234.569 L 938.972 234.569 Z " fill="rgb(249,249,249)"/></g></svg>