<?xml version="1.0" encoding="UTF-8" standalone="no"?>
<!-- Generator: Gravit.io -->

<svg
   style="isolation:isolate"
   viewBox="0 0 595.28 841.89"
   width="595.28pt"
   height="841.89pt"
   version="1.1"
   id="svg9"
   sodipodi:docname="stop-sign-dark-mono.svg"
   inkscape:version="1.3.2 (091e20e, 2023-11-25)"
   xmlns:inkscape="http://www.inkscape.org/namespaces/inkscape"
   xmlns:sodipodi="http://sodipodi.sourceforge.net/DTD/sodipodi-0.dtd"
   xmlns="http://www.w3.org/2000/svg"
   xmlns:svg="http://www.w3.org/2000/svg">
  <sodipodi:namedview
     id="namedview9"
     pagecolor="#ffffff"
     bordercolor="#000000"
     borderopacity="0.25"
     inkscape:showpageshadow="2"
     inkscape:pageopacity="0.0"
     inkscape:pagecheckerboard="0"
     inkscape:deskcolor="#d1d1d1"
     inkscape:document-units="pt"
     showgrid="false"
     inkscape:zoom="0.36792217"
     inkscape:cx="398.18204"
     inkscape:cy="561.26001"
     inkscape:window-width="1424"
     inkscape:window-height="626"
     inkscape:window-x="0"
     inkscape:window-y="25"
     inkscape:window-maximized="0"
     inkscape:current-layer="svg9" />
  <defs
     id="defs1">
    <clipPath
       clipPathUnits="userSpaceOnUse"
       id="clipPath10">
      <g
         id="g11">
        <rect
           width="595.28003"
           height="841.89001"
           id="rect10"
           x="0"
           y="0" />
      </g>
    </clipPath>
    <clipPath
       clipPathUnits="userSpaceOnUse"
       id="clipPath11">
      <g
         id="g12">
        <rect
           width="595.28003"
           height="841.89001"
           id="rect11"
           x="0"
           y="0" />
      </g>
    </clipPath>
    <clipPath
       clipPathUnits="userSpaceOnUse"
       id="clipPath12">
      <g
         id="g13">
        <rect
           width="595.28003"
           height="841.89001"
           id="rect12"
           x="0"
           y="0" />
      </g>
    </clipPath>
    <clipPath
       clipPathUnits="userSpaceOnUse"
       id="clipPath13">
      <g
         id="g14">
        <rect
           width="595.28003"
           height="841.89001"
           id="rect13"
           x="0"
           y="0" />
      </g>
    </clipPath>
    <clipPath
       clipPathUnits="userSpaceOnUse"
       id="clipPath14">
      <g
         id="g15">
        <rect
           width="595.28003"
           height="841.89001"
           id="rect14"
           x="0"
           y="0" />
      </g>
    </clipPath>
    <clipPath
       clipPathUnits="userSpaceOnUse"
       id="clipPath15">
      <g
         id="g16">
        <rect
           width="595.28003"
           height="841.89001"
           id="rect15"
           x="0"
           y="0" />
      </g>
    </clipPath>
    <clipPath
       clipPathUnits="userSpaceOnUse"
       id="clipPath16">
      <g
         id="g17">
        <rect
           width="595.28003"
           height="841.89001"
           id="rect16"
           x="0"
           y="0" />
      </g>
    </clipPath>
    <clipPath
       clipPathUnits="userSpaceOnUse"
       id="clipPath17">
      <g
         id="g18">
        <rect
           width="595.28003"
           height="841.89001"
           id="rect17"
           x="0"
           y="0" />
      </g>
    </clipPath>
    <clipPath
       clipPathUnits="userSpaceOnUse"
       id="clipPath18">
      <g
         id="g19">
        <rect
           width="595.28003"
           height="841.89001"
           id="rect18"
           x="0"
           y="0" />
      </g>
    </clipPath>
  </defs>
  <path
     id="path2"
     clip-path="url(#clipPath17)"
     d="M 50.95166 54.389648 L 50.95166 494.50049 L 544.32422 494.50049 L 544.32422 54.389648 L 50.95166 54.389648 z M 91.611328 92.166504 L 501.52588 92.166504 L 501.52588 279.33398 L 91.611328 279.33398 L 91.611328 92.166504 z M 421.98193 316.65967 C 430.56659 316.65967 437.94174 318.05022 444.1084 320.83154 C 450.27505 323.61221 455.41455 327.11859 459.52588 331.35059 C 463.6372 335.58324 466.78056 339.87684 468.95654 344.22949 L 445.56006 357.28857 C 443.86739 354.26525 441.81253 351.60397 439.39453 349.30664 C 436.97587 347.00931 434.34475 345.28734 431.50342 344.13867 C 428.66209 342.99001 425.66939 342.41455 422.52539 342.41455 C 419.50273 342.41455 416.99435 342.80775 414.99902 343.59375 C 413.0037 344.37975 411.52202 345.49838 410.55469 346.94971 C 409.58736 348.40037 409.10449 350.09366 409.10449 352.02832 C 409.10449 354.32565 409.73879 356.35116 411.00879 358.10449 C 412.27812 359.85782 414.0927 361.42917 416.45068 362.81982 C 418.80868 364.20982 421.73961 365.60103 425.24561 366.9917 C 428.75226 368.38236 432.68281 369.80226 437.03613 371.25293 C 441.50946 372.94626 445.71113 374.9108 449.64111 377.14746 C 453.57111 379.38413 457.01652 382.07475 459.97852 385.21875 C 462.94117 388.36275 465.30038 392.02058 467.05371 396.19189 C 468.80704 400.36389 469.68311 405.11018 469.68311 410.43018 C 469.68311 416.95949 468.38369 422.70234 465.78369 427.65967 C 463.18436 432.61765 459.61621 436.78997 455.08154 440.17529 C 450.54756 443.56062 445.49997 446.12997 439.93799 447.8833 C 434.37599 449.63663 428.57137 450.5127 422.52539 450.5127 C 414.30341 450.5127 406.65554 449.03182 399.58154 446.06982 C 392.50823 443.10717 386.37218 439.11712 381.17285 434.09912 C 375.97353 429.08114 371.98348 423.42794 369.20215 417.14063 L 390.60352 401.90479 C 393.14284 406.5001 395.98491 410.49016 399.12891 413.87549 C 402.27289 417.26081 405.74994 419.86032 409.55859 421.67432 C 413.36726 423.4883 417.38667 424.396 421.61865 424.396 C 424.64132 424.396 427.30179 423.8815 429.59912 422.85352 C 431.89712 421.82552 433.68086 420.37546 434.9502 418.50146 C 436.21952 416.62748 436.85449 414.4197 436.85449 411.88037 C 436.85449 408.73637 436.03727 406.13687 434.40527 404.08154 C 432.77262 402.02622 430.1128 400.12198 426.4248 398.36865 C 422.73749 396.61532 417.81119 394.5295 411.64453 392.11084 C 408.50053 390.90217 404.99335 389.33017 401.12402 387.39551 C 397.2547 385.46084 393.56672 382.95247 390.06006 379.86914 C 386.5534 376.78581 383.621 373.09783 381.26367 368.80518 C 378.90567 364.51251 377.72754 359.22238 377.72754 352.93506 C 377.72754 345.31708 379.69128 338.81718 383.62061 333.43652 C 387.55059 328.05587 392.90105 323.91518 399.67236 321.01318 C 406.44369 318.1112 413.88062 316.65967 421.98193 316.65967 z M 128.88428 319.56152 L 175.49561 319.56152 C 182.02559 319.56152 188.07132 320.22664 193.6333 321.55664 C 199.1953 322.88664 203.94226 324.91216 207.87158 327.63281 C 211.80158 330.35348 214.88394 333.71003 217.12061 337.70068 C 219.35793 341.69068 220.47656 346.40536 220.47656 351.84668 C 220.47656 358.61733 218.54218 364.36164 214.67285 369.07764 C 211.49201 372.95393 207.27431 376.00828 202.13232 378.33252 C 205.77236 379.56666 209.18173 381.11545 212.31445 383.04346 C 217.03045 385.94544 220.77939 389.69294 223.56006 394.2876 C 226.34139 398.88225 227.73193 404.44432 227.73193 410.97363 C 227.73193 419.31695 225.70642 426.08876 221.65576 431.28809 C 217.60511 436.4874 211.89161 440.32602 204.51563 442.80469 C 197.13963 445.28335 188.43344 446.52246 178.39746 446.52246 L 128.88428 446.52246 L 128.88428 319.56152 z M 248.58984 319.56152 L 279.06006 319.56152 L 279.06006 402.63135 C 279.06006 406.984 279.84646 410.79247 281.41846 414.05713 C 282.99046 417.32179 285.25706 419.83016 288.21973 421.5835 C 291.18171 423.33682 294.96003 424.21436 299.55469 424.21436 C 304.02867 424.21436 307.74682 423.33682 310.70947 421.5835 C 313.67147 419.83016 315.93874 417.32179 317.51074 414.05713 C 319.08274 410.79247 319.86914 406.984 319.86914 402.63135 L 319.86914 319.56152 L 350.521 319.56152 L 350.521 404.80664 C 350.521 412.78729 349.22158 419.71053 346.62158 425.5752 C 344.02225 431.43918 340.39458 436.33613 335.73926 440.26611 C 331.08393 444.19544 325.64316 447.09701 319.4165 448.97168 C 313.18919 450.84568 306.50849 451.78271 299.37451 451.78271 C 292.24053 451.78271 285.58999 450.84568 279.42334 448.97168 C 273.25669 447.09701 267.84527 444.19544 263.18994 440.26611 C 258.53462 436.33613 254.93776 431.43918 252.39844 425.5752 C 249.85977 419.71053 248.58984 412.78729 248.58984 404.80664 L 248.58984 319.56152 z M 159.35449 343.32129 L 159.35449 369.98438 L 172.05029 369.98438 C 175.55696 369.98438 178.54966 369.43974 181.02832 368.35107 C 183.50698 367.26309 185.41201 365.69107 186.74268 363.63574 C 188.07266 361.57974 188.73633 359.16103 188.73633 356.38037 C 188.73633 352.14839 187.28626 348.91457 184.38428 346.67725 C 181.48228 344.44058 177.37095 343.32129 172.05029 343.32129 L 159.35449 343.32129 z M 159.35449 391.38574 L 159.35449 422.7627 L 174.95215 422.7627 C 178.9428 422.7627 182.50951 422.24901 185.65283 421.22168 C 188.79683 420.19368 191.30668 418.4709 193.18066 416.05225 C 195.05533 413.63425 195.9917 410.42994 195.9917 406.43994 C 195.9917 403.65861 195.44706 401.33103 194.3584 399.45703 C 193.2704 397.58303 191.78953 396.04185 189.91553 394.83252 C 188.04086 393.62319 185.80441 392.74566 183.20508 392.20166 C 180.60508 391.65766 177.85415 391.38574 174.95215 391.38574 L 159.35449 391.38574 z " />
  <path
     d="m 154.137,174.575 v 11.1 h 19.8 v 0 q 10.8,0 19.2,-3 v 0 0 q 8.4,-3 13.2,-8.85 v 0 0 q 4.8,-5.85 4.8,-14.25 v 0 0 q 0,-6.75 -2.775,-11.7 v 0 0 q -2.775,-4.95 -7.65,-8.325 v 0 0 q -4.875,-3.375 -11.775,-5.025 v 0 0 q -6.9,-1.65 -15,-1.65 v 0 h -38.55 v 105 h 40.95 v 0 q 12.45,0 21.6,-3.075 v 0 0 q 9.15,-3.075 14.175,-9.525 v 0 0 q 5.025,-6.45 5.025,-16.8 v 0 0 q 0,-8.1 -3.45,-13.8 v 0 0 q -3.45,-5.7 -9.3,-9.3 v 0 0 q -5.85,-3.6 -13.125,-5.25 v 0 0 q -7.275,-1.65 -14.925,-1.65 v 0 h -22.2 v 13.8 h 19.35 v 0 q 3.6,0 6.825,0.675 v 0 0 q 3.225,0.675 5.55,2.175 v 0 0 q 2.325,1.5 3.675,3.825 v 0 0 q 1.35,2.325 1.35,5.775 v 0 0 q 0,4.95 -2.325,7.95 v 0 0 q -2.325,3 -6.225,4.275 v 0 0 q -3.9,1.275 -8.85,1.275 v 0 h -12.9 v -65.7 h 10.5 v 0 q 6.6,0 10.2,2.775 v 0 0 q 3.6,2.775 3.6,8.025 v 0 0 q 0,3.45 -1.65,6 v 0 0 q -1.65,2.55 -4.725,3.9 v 0 0 q -3.075,1.35 -7.425,1.35 v 0 z m 106.65,-41.7 h -25.65 v 105 h 25.65 z m 48.6,0 h -26.25 v 105 h 26.25 z m 65.4,0 h -29.85 l -43.05,49.95 44.4,55.05 h 30.75 l -44.85,-55.8 z m 30,84.15 v 20.85 h 52.95 v -20.85 z m 0,-84.15 v 20.85 h 52.95 v -20.85 z m 0,39.45 v 20.7 h 49.95 v -20.7 z m 7.65,-39.45 h -24.3 v 105 h 24.3 z"
     fill="#000000"
     id="path4"
     clip-path="url(#clipPath15)" />
  <path
     d="m 63.061,602.634 v 0 l -13.656,9.72 v 0 q 2.662,6.018 7.638,10.82 v 0 0 q 4.976,4.803 11.746,7.638 v 0 0 q 6.77,2.835 14.639,2.835 v 0 0 q 5.786,0 11.109,-1.678 v 0 0 q 5.323,-1.678 9.663,-4.918 v 0 0 q 4.34,-3.24 6.828,-7.985 v 0 0 q 2.488,-4.744 2.488,-10.993 v 0 0 q 0,-5.092 -1.678,-9.085 v 0 0 q -1.678,-3.992 -4.513,-7.001 v 0 0 q -2.836,-3.009 -6.597,-5.149 v 0 0 q -3.761,-2.141 -8.042,-3.761 v 0 0 q -4.166,-1.389 -7.522,-2.72 v 0 0 q -3.356,-1.331 -5.613,-2.662 v 0 0 q -2.256,-1.33 -3.472,-3.008 v 0 0 q -1.215,-1.678 -1.215,-3.877 v 0 0 q 0,-1.852 0.926,-3.24 v 0 0 q 0.926,-1.389 2.835,-2.141 v 0 0 q 1.91,-0.752 4.803,-0.752 v 0 0 q 3.009,0 5.728,1.099 v 0 0 q 2.72,1.099 5.034,3.298 v 0 0 q 2.314,2.199 3.935,5.092 v 0 l 14.928,-8.332 v 0 q -2.083,-4.166 -6.018,-8.216 v 0 0 q -3.934,-4.051 -9.836,-6.712 v 0 0 q -5.902,-2.662 -14.118,-2.662 v 0 0 q -7.754,0 -14.234,2.777 v 0 0 q -6.481,2.778 -10.242,7.927 v 0 0 q -3.761,5.15 -3.761,12.441 v 0 0 q 0,6.017 2.257,10.125 v 0 0 q 2.257,4.108 5.613,7.059 v 0 0 q 3.355,2.951 7.059,4.803 v 0 0 q 3.703,1.851 6.711,3.009 v 0 0 q 5.902,2.314 9.432,3.992 v 0 0 q 3.529,1.678 5.092,3.645 v 0 0 q 1.562,1.968 1.562,4.976 v 0 0 q 0,2.431 -1.215,4.224 v 0 0 Q 90.14,615.016 87.941,616 v 0 0 q -2.199,0.983 -5.092,0.983 v 0 0 q -4.05,0 -7.695,-1.736 v 0 0 q -3.646,-1.735 -6.654,-4.976 v 0 0 q -3.009,-3.24 -5.439,-7.637 z m 55.431,-52.538 v 17.589 h 22.103 v 63.416 h 19.673 v -63.416 h 22.218 v -17.589 z m 83.204,40.502 v 0 0 q 0,-5.438 1.62,-9.894 v 0 0 q 1.62,-4.455 4.687,-7.637 v 0 0 q 3.067,-3.183 7.291,-5.034 v 0 0 q 4.224,-1.852 9.431,-1.852 v 0 0 q 5.208,0 9.431,1.852 v 0 0 q 4.224,1.851 7.233,5.091 v 0 0 q 3.009,3.241 4.513,7.638 v 0 0 q 1.505,4.398 1.505,9.836 v 0 0 q 0,5.324 -1.62,9.837 v 0 0 q -1.621,4.513 -4.629,7.695 v 0 0 q -3.009,3.183 -7.175,5.034 v 0 0 q -4.166,1.852 -9.374,1.852 v 0 0 q -5.091,0 -9.315,-1.852 v 0 0 q -4.224,-1.851 -7.291,-5.091 v 0 0 q -3.067,-3.241 -4.687,-7.696 v 0 0 q -1.62,-4.455 -1.62,-9.779 z m -20.598,0 v 0 0 q 0,9.374 3.124,17.243 v 0 0 q 3.125,7.869 9.026,13.655 v 0 0 q 5.902,5.787 13.887,8.969 v 0 0 q 7.985,3.182 17.59,3.182 v 0 0 q 9.489,0 17.416,-3.182 v 0 0 q 7.927,-3.182 13.829,-8.969 v 0 0 q 5.902,-5.786 9.142,-13.655 v 0 0 q 3.24,-7.869 3.24,-17.243 v 0 0 q 0,-9.373 -3.356,-17.126 v 0 0 q -3.356,-7.754 -9.199,-13.482 v 0 0 q -5.844,-5.728 -13.771,-8.737 v 0 0 q -7.927,-3.009 -17.301,-3.009 v 0 0 q -9.258,0 -17.243,3.009 v 0 0 q -7.984,3.009 -13.944,8.679 v 0 0 q -5.96,5.67 -9.2,13.482 v 0 0 q -3.24,7.811 -3.24,17.184 z m 119.078,-40.502 h -19.441 v 81.005 h 19.441 z m -7.29,0 v 16.085 h 15.854 v 0 q 3.934,0 6.827,1.215 v 0 0 q 2.893,1.215 4.34,3.53 v 0 0 q 1.446,2.314 1.446,5.786 v 0 0 q 0,3.24 -1.446,5.554 v 0 0 q -1.447,2.315 -4.34,3.472 v 0 0 q -2.893,1.157 -6.827,1.157 v 0 h -15.854 v 16.317 h 15.854 v 0 q 10.415,0 17.416,-3.24 v 0 0 q 7.001,-3.24 10.531,-9.2 v 0 0 q 3.529,-5.96 3.529,-14.06 v 0 0 q 0,-8.332 -3.529,-14.292 v 0 0 q -3.53,-5.96 -10.531,-9.142 v 0 0 q -7.001,-3.182 -17.416,-3.182 v 0 z m 68.854,52.538 v 0 l -13.655,9.72 v 0 q 2.662,6.018 7.638,10.82 v 0 0 q 4.976,4.803 11.746,7.638 v 0 0 q 6.769,2.835 14.639,2.835 v 0 0 q 5.786,0 11.109,-1.678 v 0 0 q 5.323,-1.678 9.663,-4.918 v 0 0 q 4.339,-3.24 6.827,-7.985 v 0 0 q 2.488,-4.744 2.488,-10.993 v 0 0 q 0,-5.092 -1.678,-9.085 v 0 0 q -1.677,-3.992 -4.513,-7.001 v 0 0 q -2.835,-3.009 -6.596,-5.149 v 0 0 q -3.761,-2.141 -8.043,-3.761 v 0 0 q -4.166,-1.389 -7.522,-2.72 v 0 0 q -3.356,-1.331 -5.612,-2.662 v 0 0 q -2.257,-1.33 -3.472,-3.008 v 0 0 q -1.215,-1.678 -1.215,-3.877 v 0 0 q 0,-1.852 0.926,-3.24 v 0 0 q 0.926,-1.389 2.835,-2.141 v 0 0 q 1.91,-0.752 4.803,-0.752 v 0 0 q 3.008,0 5.728,1.099 v 0 0 q 2.719,1.099 5.034,3.298 v 0 0 q 2.314,2.199 3.934,5.092 v 0 l 14.929,-8.332 v 0 q -2.083,-4.166 -6.018,-8.216 v 0 0 q -3.935,-4.051 -9.836,-6.712 v 0 0 q -5.902,-2.662 -14.119,-2.662 v 0 0 q -7.753,0 -14.233,2.777 v 0 0 q -6.481,2.778 -10.242,7.927 v 0 0 q -3.761,5.15 -3.761,12.441 v 0 0 q 0,6.017 2.257,10.125 v 0 0 q 2.256,4.108 5.612,7.059 v 0 0 q 3.356,2.951 7.059,4.803 v 0 0 q 3.703,1.851 6.712,3.009 v 0 0 q 5.902,2.314 9.432,3.992 v 0 0 q 3.529,1.678 5.091,3.645 v 0 0 q 1.563,1.968 1.563,4.976 v 0 0 q 0,2.431 -1.215,4.224 v 0 0 q -1.215,1.794 -3.414,2.778 v 0 0 q -2.199,0.983 -5.092,0.983 v 0 0 q -4.05,0 -7.696,-1.736 v 0 0 q -3.645,-1.735 -6.654,-4.976 v 0 0 q -3.008,-3.24 -5.439,-7.637 z"
     fill="#000000"
     id="path5"
     clip-path="url(#clipPath14)" />
  <path
     d="m 62.983,702.555 v 21.818 h 75.932 v -21.818 z m 84.831,-36.602 H 123.7 V 766.43 h 24.114 z m -67.463,0 H 56.236 V 766.43 h 24.115 z m 104.64,80.525 v 19.952 h 50.67 v -19.952 z m 0,-80.525 v 19.952 h 50.67 v -19.952 z m 0,37.75 v 19.809 h 47.799 v -19.809 z m 7.321,-37.75 H 169.058 V 766.43 h 23.254 z m 113.539,54.975 h -25.263 l 28.134,45.502 h 28.565 z M 279.727,665.953 H 255.613 V 766.43 h 24.114 z m -9.043,0 v 20.669 h 19.665 v 0 q 4.88,0 8.469,1.579 v 0 0 q 3.588,1.579 5.383,4.45 v 0 0 q 1.794,2.871 1.794,7.033 v 0 0 q 0,4.163 -1.794,7.106 v 0 0 q -1.795,2.942 -5.383,4.449 v 0 0 q -3.589,1.507 -8.469,1.507 v 0 h -19.665 v 19.091 h 21.388 v 0 q 12.918,0 21.602,-4.234 v 0 0 q 8.684,-4.235 13.134,-11.699 v 0 0 q 4.45,-7.464 4.45,-17.081 v 0 0 q 0,-9.761 -4.45,-17.153 v 0 0 q -4.45,-7.392 -13.134,-11.555 v 0 0 q -8.684,-4.162 -21.602,-4.162 v 0 z m 93.731,80.525 v 19.952 h 50.67 v -19.952 z m 0,-80.525 v 19.952 h 50.67 v -19.952 z m 0,37.75 v 19.809 h 47.799 v -19.809 z m 7.321,-37.75 H 348.483 V 766.43 h 23.253 z"
     fill="#000000"
     id="path7"
     clip-path="url(#clipPath12)" />
  <path
     d="m 490.569,603.994 c -8.889,0 -16.094,-7.206 -16.094,-16.095 0,-8.889 7.205,-16.095 16.094,-16.095 8.889,0 16.095,7.206 16.095,16.095 0,8.889 -7.206,16.095 -16.095,16.095 z m 0,-61.16 c -24.889,0 -45.065,20.176 -45.065,45.065 0,33.799 45.065,83.693 45.065,83.693 0,0 45.066,-49.894 45.066,-83.693 0,-24.889 -20.177,-45.065 -45.066,-45.065 z"
     fill="#000000"
     id="path8"
     clip-path="url(#clipPath11)" />
  <path
     d="m 442.334,723.927 c 0,-16.813 8.62,-31.628 21.679,-40.263 7.618,-5.038 16.747,-7.972 26.556,-7.972 26.622,0 48.236,21.613 48.236,48.235 0,26.622 -21.614,48.236 -48.236,48.236 -26.622,0 -48.235,-21.614 -48.235,-48.236 z m 62.764,5.13 c -0.809,0.995 -1.25,2.238 -1.25,3.52 10e-4,1.488 0.592,2.915 1.645,3.967 1.052,1.053 2.479,1.644 3.967,1.645 1.488,-10e-4 2.914,-0.592 3.966,-1.645 1.053,-1.052 1.645,-2.479 1.645,-3.967 0,-1.488 -0.592,-2.914 -1.645,-3.966 -1.052,-1.053 -2.478,-1.644 -3.966,-1.645 q -0.015,0 -0.029,0 c -0.251,-0.491 -0.498,-0.984 -0.741,-1.479 -0.429,-0.871 -0.842,-1.75 -1.239,-2.637 0.655,-0.143 1.328,-0.213 2.009,-0.213 2.636,0 5.164,1.047 7.029,2.911 1.864,1.865 2.911,4.393 2.911,7.029 0,2.636 -1.048,5.166 -2.911,7.03 -1.865,1.863 -4.393,2.911 -7.029,2.911 -2.637,0 -5.165,-1.048 -7.03,-2.911 -1.863,-1.865 -2.911,-4.393 -2.911,-7.03 0,-2.635 1.048,-5.166 2.911,-7.029 0.218,-0.218 0.445,-0.424 0.685,-0.613 0.404,0.899 0.824,1.791 1.259,2.675 0.238,0.484 0.48,0.966 0.724,1.447 m -42.136,6.727 c 0,-1.786 0.709,-3.499 1.972,-4.762 1.263,-1.263 2.976,-1.972 4.762,-1.972 1.786,0 3.499,0.709 4.762,1.972 1.263,1.263 1.973,2.976 1.973,4.762 0,1.786 -0.71,3.499 -1.973,4.762 -1.263,1.263 -2.976,1.972 -4.762,1.972 -1.786,0 -3.499,-0.709 -4.762,-1.972 -1.262,-1.263 -1.972,-2.976 -1.972,-4.762 m 30.358,-34.736 c 0.958,-0.074 1.917,-0.126 2.877,-0.156 0.593,-0.019 1.187,-0.013 1.779,0.016 0.206,0.013 0.408,0.026 0.613,0.045 0.141,0.013 0.282,0.032 0.423,0.054 0.032,0.004 0.064,0.01 0.093,0.013 0.026,0.141 0.045,0.282 0.058,0.427 q 0.082,0.793 0.077,1.597 c -0.003,0.505 -0.016,1.011 -0.039,1.516 -0.025,0.549 -0.057,1.094 -0.089,1.639 -0.036,0.58 -0.068,1.161 -0.093,1.741 -0.03,0.594 -0.045,1.189 -0.045,1.783 -0.004,0.638 0.022,1.28 0.073,1.918 0.04,0.474 0.104,0.946 0.192,1.414 -0.952,0.096 -1.902,0.217 -2.85,0.356 -1.485,0.218 -2.96,0.497 -4.422,0.834 -1.356,0.31 -2.697,0.683 -4.018,1.119 -1.237,0.407 -2.451,0.878 -3.64,1.411 -1.448,0.646 -2.846,1.399 -4.184,2.251 l -1.923,-2.263 0.037,-0.004 q 0.452,-0.063 0.904,-0.145 c 0.217,-0.041 0.431,-0.096 0.642,-0.163 0.102,-0.036 0.204,-0.074 0.304,-0.116 0.122,-0.05 0.24,-0.109 0.353,-0.176 0.266,-0.154 0.502,-0.354 0.699,-0.59 0.371,-0.441 0.577,-0.998 0.581,-1.574 0.002,-0.542 -0.17,-1.069 -0.491,-1.504 -0.186,-0.25 -0.414,-0.466 -0.673,-0.639 -0.115,-0.076 -0.235,-0.145 -0.36,-0.205 -0.102,-0.048 -0.205,-0.093 -0.314,-0.131 -0.263,-0.103 -0.535,-0.18 -0.814,-0.238 -0.428,-0.086 -0.858,-0.16 -1.289,-0.221 -0.394,-0.054 -0.789,-0.102 -1.184,-0.144 -0.596,-0.064 -1.196,-0.119 -1.796,-0.17 -0.939,-0.077 -1.879,-0.148 -2.818,-0.205 -1.472,-0.09 -2.941,-0.173 -4.416,-0.244 -0.654,-0.032 -1.299,0.205 -1.773,0.661 -0.478,0.452 -0.747,1.083 -0.747,1.741 v 2.245 c 0,0.65 0.263,1.273 0.728,1.725 0.465,0.452 1.096,0.696 1.744,0.68 1.575,-0.047 3.15,-0.103 4.724,-0.167 l 4.03,4.741 c -1.035,0.91 -2.012,1.885 -2.924,2.918 -1.146,-0.39 -2.375,-0.598 -3.653,-0.598 -6.371,0 -11.544,5.173 -11.544,11.544 0,6.372 5.173,11.544 11.544,11.544 6.372,0 11.545,-5.172 11.545,-11.544 0,-3.326 -1.41,-6.325 -3.665,-8.431 1.036,-1.11 2.167,-2.13 3.376,-3.052 1.651,-1.242 3.437,-2.294 5.323,-3.136 1.037,-0.465 2.098,-0.876 3.178,-1.232 1.183,-0.388 2.379,-0.724 3.591,-1 1.338,-0.308 2.688,-0.564 4.044,-0.763 1.086,-0.159 2.176,-0.292 3.269,-0.399 0.146,0.48 0.301,0.959 0.464,1.434 0.131,0.381 0.266,0.76 0.405,1.138 -3.931,2.649 -6.517,7.142 -6.517,12.234 0,8.142 6.609,14.751 14.751,14.751 8.141,0 14.75,-6.609 14.75,-14.751 0,-8.141 -6.609,-14.75 -14.75,-14.75 -1.332,0 -2.622,0.176 -3.848,0.509 -0.082,-0.23 -0.162,-0.461 -0.241,-0.692 -0.164,-0.474 -0.318,-0.95 -0.462,-1.43 -0.196,-0.651 -0.371,-1.308 -0.526,-1.969 -0.131,-0.558 -0.243,-1.119 -0.33,-1.687 -0.102,-0.433 -0.173,-0.872 -0.212,-1.315 -0.041,-0.5 -0.061,-1 -0.057,-1.504 0,-0.526 0.013,-1.048 0.038,-1.571 0.026,-0.558 0.055,-1.116 0.09,-1.674 0.035,-0.568 0.067,-1.138 0.093,-1.706 0.026,-0.574 0.042,-1.148 0.045,-1.722 0.004,-0.7 -0.029,-1.4 -0.1,-2.097 -0.069,-0.702 -0.206,-1.396 -0.407,-2.072 -0.084,-0.291 -0.21,-0.569 -0.375,-0.824 -0.157,-0.243 -0.346,-0.461 -0.561,-0.657 -0.164,-0.148 -0.341,-0.28 -0.529,-0.395 -0.177,-0.108 -0.362,-0.205 -0.552,-0.288 -0.266,-0.115 -0.54,-0.209 -0.821,-0.282 -0.32,-0.084 -0.644,-0.15 -0.971,-0.199 -0.229,-0.036 -0.459,-0.064 -0.69,-0.087 -0.274,-0.025 -0.549,-0.045 -0.824,-0.061 -0.724,-0.035 -1.449,-0.041 -2.174,-0.019 -0.915,0.027 -1.83,0.075 -2.745,0.141 -0.044,-0.048 -0.089,-0.095 -0.135,-0.141 -0.68,-0.68 -1.603,-1.062 -2.565,-1.061 h -5.894 c -0.962,-10e-4 -1.885,0.381 -2.565,1.061 -0.68,0.68 -1.061,1.601 -1.062,2.562 0,0.962 0.382,1.885 1.062,2.566 0.68,0.679 1.603,1.061 2.565,1.061 h 5.894 c 0.962,0 1.885,-0.381 2.565,-1.061 0.054,-0.053 0.105,-0.108 0.154,-0.165"
     fill-rule="evenodd"
     fill="#000000"
     id="path9"
     clip-path="url(#clipPath10)" />
</svg>
