<?xml version="1.0" encoding="UTF-8" standalone="no"?><!-- Generator: Gravit.io --><svg xmlns="http://www.w3.org/2000/svg" xmlns:xlink="http://www.w3.org/1999/xlink" style="isolation:isolate" viewBox="0 0 1024 1448" width="1024pt" height="1448pt"><defs><clipPath id="_clipPath_gYUpn0SYFV94a03wINcIE60STLKFiPZ0"><rect width="1024" height="1448"/></clipPath></defs><g clip-path="url(#_clipPath_gYUpn0SYFV94a03wINcIE60STLKFiPZ0)"><rect x="0" y="0" width="1024" height="1448.218" transform="matrix(1,0,0,1,0,0)" fill="rgb(28,28,28)"/><clipPath id="_clipPath_Y8rvd4aBnafDDVfaWIcK6Gyb9WrdJJ1W"><rect x="0" y="0" width="1024" height="1448.218" transform="matrix(1,0,0,1,0,0)" fill="rgb(28,28,28)"/></clipPath><g clip-path="url(#_clipPath_Y8rvd4aBnafDDVfaWIcK6Gyb9WrdJJ1W)"><g><path d=" M 87.648 93.562 L 87.648 850.638 L 936.346 850.638 L 936.346 93.562 L 87.648 93.562 Z  M 157.589 158.546 L 862.724 158.546 L 862.724 480.51 L 157.589 480.51 L 157.589 158.546 Z  M 725.893 544.718 C 740.661 544.718 753.347 547.109 763.954 551.895 C 774.563 556.677 783.404 562.71 790.476 569.99 C 797.548 577.27 802.956 584.656 806.699 592.142 L 766.452 614.608 C 763.54 609.406 760.006 604.829 755.847 600.878 C 751.686 596.924 747.16 593.962 742.271 591.988 C 737.384 590.011 732.235 589.022 726.827 589.022 C 721.629 589.022 717.313 589.698 713.881 591.05 C 710.449 592.402 707.9 594.325 706.236 596.823 C 704.571 599.317 703.74 602.231 703.74 605.558 C 703.74 609.511 704.833 612.995 707.017 616.01 C 709.2 619.027 712.322 621.73 716.379 624.123 C 720.435 626.514 725.477 628.906 731.508 631.299 C 737.539 633.69 744.301 636.133 751.789 638.629 C 759.483 641.541 766.712 644.921 773.472 648.768 C 780.232 652.616 786.16 657.245 791.255 662.653 C 796.351 668.062 800.409 674.354 803.426 681.529 C 806.441 688.706 807.948 696.87 807.948 706.021 C 807.948 717.252 805.714 727.132 801.241 735.66 C 796.769 744.189 790.631 751.366 782.832 757.189 C 775.032 763.013 766.349 767.432 756.781 770.448 C 747.213 773.465 737.227 774.972 726.827 774.972 C 712.684 774.972 699.529 772.424 687.361 767.329 C 675.192 762.232 664.637 755.369 655.693 746.737 C 646.75 738.105 639.885 728.38 635.101 717.565 L 671.917 691.357 C 676.284 699.261 681.173 706.124 686.581 711.947 C 691.99 717.772 697.971 722.243 704.523 725.363 C 711.073 728.484 717.989 730.046 725.269 730.046 C 730.467 730.046 735.044 729.161 738.996 727.393 C 742.949 725.625 746.018 723.129 748.201 719.905 C 750.385 716.681 751.476 712.885 751.476 708.516 C 751.476 703.107 750.07 698.636 747.263 695.101 C 744.456 691.565 739.88 688.289 733.536 685.274 C 727.192 682.257 718.718 678.67 708.111 674.509 C 702.703 672.429 696.669 669.725 690.013 666.398 C 683.358 663.07 677.014 658.754 670.981 653.45 C 664.948 648.147 659.904 641.803 655.85 634.418 C 651.794 627.035 649.767 617.933 649.767 607.118 C 649.767 594.014 653.144 582.833 659.904 573.578 C 666.665 564.322 675.868 557.198 687.515 552.206 C 699.165 547.214 711.958 544.718 725.893 544.718 Z  M 221.706 549.71 L 301.888 549.71 C 313.121 549.71 323.52 550.854 333.087 553.142 C 342.655 555.43 350.821 558.913 357.581 563.594 C 364.342 568.273 369.643 574.048 373.491 580.913 C 377.339 587.776 379.264 595.885 379.264 605.247 C 379.264 616.893 375.936 626.775 369.28 634.888 C 363.808 641.555 356.553 646.809 347.707 650.808 C 353.969 652.931 359.835 655.594 365.222 658.91 C 373.335 663.902 379.784 670.349 384.568 678.254 C 389.352 686.156 391.744 695.724 391.744 706.957 C 391.744 721.309 388.259 732.958 381.292 741.901 C 374.324 750.844 364.496 757.448 351.808 761.713 C 339.12 765.975 324.142 768.107 306.878 768.107 L 221.706 768.107 L 221.706 549.71 Z  M 427.624 549.71 L 480.039 549.71 L 480.039 692.605 C 480.039 700.093 481.391 706.644 484.095 712.26 C 486.799 717.877 490.699 722.191 495.796 725.208 C 500.891 728.224 507.39 729.732 515.294 729.732 C 522.99 729.732 529.386 728.224 534.481 725.208 C 539.577 722.191 543.478 717.877 546.182 712.26 C 548.886 706.644 550.238 700.093 550.238 692.605 L 550.238 549.71 L 602.966 549.71 L 602.966 696.349 C 602.966 710.076 600.731 721.986 596.259 732.074 C 591.786 742.161 585.547 750.585 577.538 757.345 C 569.53 764.104 560.171 769.096 549.459 772.321 C 538.747 775.545 527.255 777.157 514.985 777.157 C 502.713 777.157 491.272 775.545 480.663 772.321 C 470.056 769.096 460.747 764.104 452.739 757.345 C 444.732 750.585 438.544 742.161 434.175 732.074 C 429.809 721.986 427.624 710.076 427.624 696.349 L 427.624 549.71 Z  M 274.121 590.58 L 274.121 636.446 L 295.96 636.446 C 301.993 636.446 307.142 635.51 311.404 633.637 C 315.669 631.765 318.946 629.061 321.235 625.526 C 323.523 621.99 324.663 617.828 324.663 613.044 C 324.663 605.765 322.169 600.203 317.177 596.353 C 312.185 592.507 305.113 590.58 295.96 590.58 L 274.121 590.58 Z  M 274.121 673.262 L 274.121 727.236 L 300.952 727.236 C 307.818 727.236 313.954 726.352 319.36 724.586 C 324.768 722.817 329.086 719.853 332.31 715.692 C 335.533 711.533 337.145 706.021 337.145 699.158 C 337.145 694.374 336.208 690.369 334.334 687.145 C 332.463 683.922 329.917 681.271 326.693 679.191 C 323.468 677.11 319.62 675.601 315.149 674.665 C 310.677 673.73 305.944 673.262 300.952 673.262 L 274.121 673.262 Z " fill="rgb(0,0,0)"/><path d=" M 265.146 300.304 L 265.146 319.398 L 299.206 319.398 L 299.206 319.398 Q 317.784 319.398 332.234 314.237 L 332.234 314.237 L 332.234 314.237 Q 346.684 309.077 354.941 299.014 L 354.941 299.014 L 354.941 299.014 Q 363.198 288.95 363.198 274.501 L 363.198 274.501 L 363.198 274.501 Q 363.198 262.889 358.424 254.374 L 358.424 254.374 L 358.424 254.374 Q 353.651 245.859 345.265 240.054 L 345.265 240.054 L 345.265 240.054 Q 336.879 234.248 325.009 231.41 L 325.009 231.41 L 325.009 231.41 Q 313.14 228.571 299.206 228.571 L 299.206 228.571 L 232.893 228.571 L 232.893 409.192 L 303.335 409.192 L 303.335 409.192 Q 324.751 409.192 340.491 403.903 L 340.491 403.903 L 340.491 403.903 Q 356.231 398.613 364.875 387.518 L 364.875 387.518 L 364.875 387.518 Q 373.519 376.423 373.519 358.618 L 373.519 358.618 L 373.519 358.618 Q 373.519 344.685 367.584 334.88 L 367.584 334.88 L 367.584 334.88 Q 361.649 325.075 351.586 318.882 L 351.586 318.882 L 351.586 318.882 Q 341.523 312.689 329.009 309.851 L 329.009 309.851 L 329.009 309.851 Q 316.494 307.012 303.335 307.012 L 303.335 307.012 L 265.146 307.012 L 265.146 330.751 L 298.432 330.751 L 298.432 330.751 Q 304.625 330.751 310.173 331.912 L 310.173 331.912 L 310.173 331.912 Q 315.72 333.074 319.72 335.654 L 319.72 335.654 L 319.72 335.654 Q 323.719 338.234 326.041 342.234 L 326.041 342.234 L 326.041 342.234 Q 328.364 346.233 328.364 352.168 L 328.364 352.168 L 328.364 352.168 Q 328.364 360.683 324.364 365.843 L 324.364 365.843 L 324.364 365.843 Q 320.365 371.004 313.656 373.197 L 313.656 373.197 L 313.656 373.197 Q 306.947 375.39 298.432 375.39 L 298.432 375.39 L 276.242 375.39 L 276.242 262.373 L 294.304 262.373 L 294.304 262.373 Q 305.657 262.373 311.85 267.147 L 311.85 267.147 L 311.85 267.147 Q 318.042 271.92 318.042 280.951 L 318.042 280.951 L 318.042 280.951 Q 318.042 286.886 315.204 291.273 L 315.204 291.273 L 315.204 291.273 Q 312.366 295.659 307.076 297.981 L 307.076 297.981 L 307.076 297.981 Q 301.787 300.304 294.304 300.304 L 294.304 300.304 L 265.146 300.304 Z  M 448.606 228.571 L 404.482 228.571 L 404.482 409.192 L 448.606 409.192 L 448.606 228.571 Z  M 532.207 228.571 L 487.052 228.571 L 487.052 409.192 L 532.207 409.192 L 532.207 228.571 Z  M 644.708 228.571 L 593.36 228.571 L 519.306 314.495 L 595.683 409.192 L 648.579 409.192 L 571.428 313.205 L 644.708 228.571 Z  M 696.314 373.326 L 696.314 409.192 L 787.399 409.192 L 787.399 373.326 L 696.314 373.326 Z  M 696.314 228.571 L 696.314 264.438 L 787.399 264.438 L 787.399 228.571 L 696.314 228.571 Z  M 696.314 296.433 L 696.314 332.041 L 782.238 332.041 L 782.238 296.433 L 696.314 296.433 Z  M 709.474 228.571 L 667.673 228.571 L 667.673 409.192 L 709.474 409.192 L 709.474 228.571 Z " fill="rgb(0,0,0)"/><path d=" M 108.477 1036.65 L 108.477 1036.65 L 84.986 1053.371 L 84.986 1053.371 Q 89.566 1063.723 98.125 1071.983 L 98.125 1071.983 L 98.125 1071.983 Q 106.685 1080.245 118.331 1085.122 L 118.331 1085.122 L 118.331 1085.122 Q 129.977 1089.999 143.513 1089.999 L 143.513 1089.999 L 143.513 1089.999 Q 153.466 1089.999 162.622 1087.112 L 162.622 1087.112 L 162.622 1087.112 Q 171.779 1084.226 179.245 1078.652 L 179.245 1078.652 L 179.245 1078.652 Q 186.71 1073.079 190.99 1064.917 L 190.99 1064.917 L 190.99 1064.917 Q 195.27 1056.756 195.27 1046.007 L 195.27 1046.007 L 195.27 1046.007 Q 195.27 1037.247 192.384 1030.378 L 192.384 1030.378 L 192.384 1030.378 Q 189.497 1023.511 184.62 1018.335 L 184.62 1018.335 L 184.62 1018.335 Q 179.742 1013.159 173.272 1009.478 L 173.272 1009.478 L 173.272 1009.478 Q 166.803 1005.795 159.438 1003.008 L 159.438 1003.008 L 159.438 1003.008 Q 152.272 1000.619 146.499 998.329 L 146.499 998.329 L 146.499 998.329 Q 140.726 996.04 136.844 993.75 L 136.844 993.75 L 136.844 993.75 Q 132.963 991.462 130.871 988.576 L 130.871 988.576 L 130.871 988.576 Q 128.781 985.689 128.781 981.907 L 128.781 981.907 L 128.781 981.907 Q 128.781 978.721 130.374 976.333 L 130.374 976.333 L 130.374 976.333 Q 131.967 973.944 135.251 972.65 L 135.251 972.65 L 135.251 972.65 Q 138.536 971.357 143.513 971.357 L 143.513 971.357 L 143.513 971.357 Q 148.689 971.357 153.366 973.247 L 153.366 973.247 L 153.366 973.247 Q 158.045 975.138 162.026 978.92 L 162.026 978.92 L 162.026 978.92 Q 166.006 982.703 168.795 987.68 L 168.795 987.68 L 194.474 973.347 L 194.474 973.347 Q 190.89 966.181 184.121 959.214 L 184.121 959.214 L 184.121 959.214 Q 177.354 952.245 167.202 947.668 L 167.202 947.668 L 167.202 947.668 Q 157.049 943.089 142.916 943.089 L 142.916 943.089 L 142.916 943.089 Q 129.577 943.089 118.431 947.866 L 118.431 947.866 L 118.431 947.866 Q 107.282 952.644 100.812 961.502 L 100.812 961.502 L 100.812 961.502 Q 94.343 970.361 94.343 982.903 L 94.343 982.903 L 94.343 982.903 Q 94.343 993.253 98.225 1000.32 L 98.225 1000.32 L 98.225 1000.32 Q 102.108 1007.386 107.881 1012.463 L 107.881 1012.463 L 107.881 1012.463 Q 113.652 1017.539 120.023 1020.725 L 120.023 1020.725 L 120.023 1020.725 Q 126.393 1023.909 131.568 1025.901 L 131.568 1025.901 L 131.568 1025.901 Q 141.72 1029.881 147.793 1032.768 L 147.793 1032.768 L 147.793 1032.768 Q 153.863 1035.654 156.552 1039.038 L 156.552 1039.038 L 156.552 1039.038 Q 159.239 1042.423 159.239 1047.598 L 159.239 1047.598 L 159.239 1047.598 Q 159.239 1051.779 157.149 1054.864 L 157.149 1054.864 L 157.149 1054.864 Q 155.059 1057.95 151.276 1059.643 L 151.276 1059.643 L 151.276 1059.643 Q 147.493 1061.333 142.517 1061.333 L 142.517 1061.333 L 142.517 1061.333 Q 135.55 1061.333 129.28 1058.347 L 129.28 1058.347 L 129.28 1058.347 Q 123.008 1055.363 117.834 1049.788 L 117.834 1049.788 L 117.834 1049.788 Q 112.658 1044.214 108.477 1036.65 Z  M 203.83 946.275 L 203.83 976.531 L 241.851 976.531 L 241.851 1085.619 L 275.693 1085.619 L 275.693 976.531 L 313.912 976.531 L 313.912 946.275 L 203.83 946.275 Z  M 346.957 1015.946 L 346.957 1015.946 L 346.957 1015.946 Q 346.957 1006.592 349.744 998.926 L 349.744 998.926 L 349.744 998.926 Q 352.531 991.263 357.807 985.789 L 357.807 985.789 L 357.807 985.789 Q 363.082 980.314 370.349 977.13 L 370.349 977.13 L 370.349 977.13 Q 377.615 973.944 386.572 973.944 L 386.572 973.944 L 386.572 973.944 Q 395.53 973.944 402.795 977.13 L 402.795 977.13 L 402.795 977.13 Q 410.061 980.314 415.237 985.887 L 415.237 985.887 L 415.237 985.887 Q 420.413 991.462 423 999.026 L 423 999.026 L 423 999.026 Q 425.589 1006.592 425.589 1015.946 L 425.589 1015.946 L 425.589 1015.946 Q 425.589 1025.104 422.803 1032.868 L 422.803 1032.868 L 422.803 1032.868 Q 420.014 1040.631 414.84 1046.105 L 414.84 1046.105 L 414.84 1046.105 Q 409.664 1051.58 402.497 1054.764 L 402.497 1054.764 L 402.497 1054.764 Q 395.331 1057.95 386.372 1057.95 L 386.372 1057.95 L 386.372 1057.95 Q 377.615 1057.95 370.349 1054.764 L 370.349 1054.764 L 370.349 1054.764 Q 363.082 1051.58 357.807 1046.007 L 357.807 1046.007 L 357.807 1046.007 Q 352.531 1040.431 349.744 1032.768 L 349.744 1032.768 L 349.744 1032.768 Q 346.957 1025.104 346.957 1015.946 L 346.957 1015.946 Z  M 311.525 1015.946 L 311.525 1015.946 L 311.525 1015.946 Q 311.525 1032.071 316.898 1045.607 L 316.898 1045.607 L 316.898 1045.607 Q 322.274 1059.144 332.425 1069.097 L 332.425 1069.097 L 332.425 1069.097 Q 342.578 1079.052 356.313 1084.525 L 356.313 1084.525 L 356.313 1084.525 Q 370.049 1089.999 386.572 1089.999 L 386.572 1089.999 L 386.572 1089.999 Q 402.895 1089.999 416.531 1084.525 L 416.531 1084.525 L 416.531 1084.525 Q 430.167 1079.052 440.319 1069.097 L 440.319 1069.097 L 440.319 1069.097 Q 450.472 1059.144 456.045 1045.607 L 456.045 1045.607 L 456.045 1045.607 Q 461.619 1032.071 461.619 1015.946 L 461.619 1015.946 L 461.619 1015.946 Q 461.619 999.823 455.846 986.486 L 455.846 986.486 L 455.846 986.486 Q 450.073 973.147 440.022 963.294 L 440.022 963.294 L 440.022 963.294 Q 429.969 953.441 416.333 948.265 L 416.333 948.265 L 416.333 948.265 Q 402.697 943.089 386.572 943.089 L 386.572 943.089 L 386.572 943.089 Q 370.646 943.089 356.91 948.265 L 356.91 948.265 L 356.91 948.265 Q 343.176 953.441 332.924 963.194 L 332.924 963.194 L 332.924 963.194 Q 322.671 972.948 317.098 986.386 L 317.098 986.386 L 317.098 986.386 Q 311.525 999.823 311.525 1015.946 L 311.525 1015.946 Z  M 516.362 946.275 L 482.92 946.275 L 482.92 1085.619 L 516.362 1085.619 L 516.362 946.275 Z  M 503.822 946.275 L 503.822 973.944 L 531.094 973.944 L 531.094 973.944 Q 537.861 973.944 542.838 976.034 L 542.838 976.034 L 542.838 976.034 Q 547.815 978.124 550.304 982.106 L 550.304 982.106 L 550.304 982.106 Q 552.791 986.087 552.791 992.059 L 552.791 992.059 L 552.791 992.059 Q 552.791 997.633 550.304 1001.613 L 550.304 1001.613 L 550.304 1001.613 Q 547.815 1005.596 542.838 1007.586 L 542.838 1007.586 L 542.838 1007.586 Q 537.861 1009.576 531.094 1009.576 L 531.094 1009.576 L 503.822 1009.576 L 503.822 1037.645 L 531.094 1037.645 L 531.094 1037.645 Q 549.01 1037.645 561.053 1032.071 L 561.053 1032.071 L 561.053 1032.071 Q 573.096 1026.498 579.169 1016.245 L 579.169 1016.245 L 579.169 1016.245 Q 585.239 1005.993 585.239 992.059 L 585.239 992.059 L 585.239 992.059 Q 585.239 977.727 579.169 967.474 L 579.169 967.474 L 579.169 967.474 Q 573.096 957.222 561.053 951.748 L 561.053 951.748 L 561.053 951.748 Q 549.01 946.275 531.094 946.275 L 531.094 946.275 L 503.822 946.275 Z  M 622.265 1036.65 L 622.265 1036.65 L 598.775 1053.371 L 598.775 1053.371 Q 603.355 1063.723 611.914 1071.983 L 611.914 1071.983 L 611.914 1071.983 Q 620.474 1080.245 632.12 1085.122 L 632.12 1085.122 L 632.12 1085.122 Q 643.764 1089.999 657.302 1089.999 L 657.302 1089.999 L 657.302 1089.999 Q 667.255 1089.999 676.411 1087.112 L 676.411 1087.112 L 676.411 1087.112 Q 685.568 1084.226 693.034 1078.652 L 693.034 1078.652 L 693.034 1078.652 Q 700.498 1073.079 704.778 1064.917 L 704.778 1064.917 L 704.778 1064.917 Q 709.057 1056.756 709.057 1046.007 L 709.057 1046.007 L 709.057 1046.007 Q 709.057 1037.247 706.171 1030.378 L 706.171 1030.378 L 706.171 1030.378 Q 703.286 1023.511 698.408 1018.335 L 698.408 1018.335 L 698.408 1018.335 Q 693.531 1013.159 687.061 1009.478 L 687.061 1009.478 L 687.061 1009.478 Q 680.592 1005.795 673.226 1003.008 L 673.226 1003.008 L 673.226 1003.008 Q 666.059 1000.619 660.286 998.329 L 660.286 998.329 L 660.286 998.329 Q 654.513 996.04 650.633 993.75 L 650.633 993.75 L 650.633 993.75 Q 646.75 991.462 644.66 988.576 L 644.66 988.576 L 644.66 988.576 Q 642.57 985.689 642.57 981.907 L 642.57 981.907 L 642.57 981.907 Q 642.57 978.721 644.163 976.333 L 644.163 976.333 L 644.163 976.333 Q 645.756 973.944 649.04 972.65 L 649.04 972.65 L 649.04 972.65 Q 652.325 971.357 657.302 971.357 L 657.302 971.357 L 657.302 971.357 Q 662.476 971.357 667.155 973.247 L 667.155 973.247 L 667.155 973.247 Q 671.832 975.138 675.815 978.92 L 675.815 978.92 L 675.815 978.92 Q 679.795 982.703 682.582 987.68 L 682.582 987.68 L 708.263 973.347 L 708.263 973.347 Q 704.679 966.181 697.91 959.214 L 697.91 959.214 L 697.91 959.214 Q 691.142 952.245 680.991 947.668 L 680.991 947.668 L 680.991 947.668 Q 670.838 943.089 656.703 943.089 L 656.703 943.089 L 656.703 943.089 Q 643.366 943.089 632.22 947.866 L 632.22 947.866 L 632.22 947.866 Q 621.071 952.644 614.601 961.502 L 614.601 961.502 L 614.601 961.502 Q 608.132 970.361 608.132 982.903 L 608.132 982.903 L 608.132 982.903 Q 608.132 993.253 612.014 1000.32 L 612.014 1000.32 L 612.014 1000.32 Q 615.895 1007.386 621.668 1012.463 L 621.668 1012.463 L 621.668 1012.463 Q 627.441 1017.539 633.811 1020.725 L 633.811 1020.725 L 633.811 1020.725 Q 640.181 1023.909 645.357 1025.901 L 645.357 1025.901 L 645.357 1025.901 Q 655.509 1029.881 661.582 1032.768 L 661.582 1032.768 L 661.582 1032.768 Q 667.652 1035.654 670.339 1039.038 L 670.339 1039.038 L 670.339 1039.038 Q 673.028 1042.423 673.028 1047.598 L 673.028 1047.598 L 673.028 1047.598 Q 673.028 1051.779 670.938 1054.864 L 670.938 1054.864 L 670.938 1054.864 Q 668.848 1057.95 665.065 1059.643 L 665.065 1059.643 L 665.065 1059.643 Q 661.282 1061.333 656.306 1061.333 L 656.306 1061.333 L 656.306 1061.333 Q 649.339 1061.333 643.067 1058.347 L 643.067 1058.347 L 643.067 1058.347 Q 636.797 1055.363 631.621 1049.788 L 631.621 1049.788 L 631.621 1049.788 Q 626.447 1044.214 622.265 1036.65 L 622.265 1036.65 Z " fill="rgb(0,0,0)"/><path d=" M 108.343 1208.534 L 108.343 1246.066 L 238.961 1246.066 L 238.961 1208.534 L 108.343 1208.534 Z  M 254.269 1145.572 L 212.789 1145.572 L 212.789 1318.412 L 254.269 1318.412 L 254.269 1145.572 Z  M 138.22 1145.572 L 96.737 1145.572 L 96.737 1318.412 L 138.22 1318.412 L 138.22 1145.572 Z  M 318.221 1284.091 L 318.221 1318.412 L 405.384 1318.412 L 405.384 1284.091 L 318.221 1284.091 Z  M 318.221 1145.572 L 318.221 1179.893 L 405.384 1179.893 L 405.384 1145.572 L 318.221 1145.572 Z  M 318.221 1210.509 L 318.221 1244.585 L 400.445 1244.585 L 400.445 1210.509 L 318.221 1210.509 Z  M 330.815 1145.572 L 290.813 1145.572 L 290.813 1318.412 L 330.815 1318.412 L 330.815 1145.572 Z  M 526.125 1240.14 L 482.667 1240.14 L 531.063 1318.412 L 580.201 1318.412 L 526.125 1240.14 Z  M 481.186 1145.572 L 439.705 1145.572 L 439.705 1318.412 L 481.186 1318.412 L 481.186 1145.572 Z  M 465.63 1145.572 L 465.63 1181.126 L 499.458 1181.126 L 499.458 1181.126 Q 507.853 1181.126 514.026 1183.843 L 514.026 1183.843 L 514.026 1183.843 Q 520.198 1186.559 523.286 1191.497 L 523.286 1191.497 L 523.286 1191.497 Q 526.372 1196.436 526.372 1203.596 L 526.372 1203.596 L 526.372 1203.596 Q 526.372 1210.757 523.286 1215.819 L 523.286 1215.819 L 523.286 1215.819 Q 520.198 1220.88 514.026 1223.473 L 514.026 1223.473 L 514.026 1223.473 Q 507.853 1226.065 499.458 1226.065 L 499.458 1226.065 L 465.63 1226.065 L 465.63 1258.905 L 502.422 1258.905 L 502.422 1258.905 Q 524.643 1258.905 539.582 1251.622 L 539.582 1251.622 L 539.582 1251.622 Q 554.52 1244.337 562.175 1231.497 L 562.175 1231.497 L 562.175 1231.497 Q 569.83 1218.658 569.83 1202.115 L 569.83 1202.115 L 569.83 1202.115 Q 569.83 1185.324 562.175 1172.608 L 562.175 1172.608 L 562.175 1172.608 Q 554.52 1159.892 539.582 1152.731 L 539.582 1152.731 L 539.582 1152.731 Q 524.643 1145.572 502.422 1145.572 L 502.422 1145.572 L 465.63 1145.572 Z  M 626.866 1284.091 L 626.866 1318.412 L 714.029 1318.412 L 714.029 1284.091 L 626.866 1284.091 Z  M 626.866 1145.572 L 626.866 1179.893 L 714.029 1179.893 L 714.029 1145.572 L 626.866 1145.572 Z  M 626.866 1210.509 L 626.866 1244.585 L 709.09 1244.585 L 709.09 1210.509 L 626.866 1210.509 Z  M 639.46 1145.572 L 599.46 1145.572 L 599.46 1318.412 L 639.46 1318.412 L 639.46 1145.572 Z " fill="rgb(0,0,0)"/><path d=" M 843.876 1038.99 C 828.585 1038.99 816.191 1026.594 816.191 1011.303 C 816.191 996.012 828.585 983.617 843.876 983.617 C 859.167 983.617 871.563 996.012 871.563 1011.303 C 871.563 1026.594 859.167 1038.99 843.876 1038.99 L 843.876 1038.99 Z  M 843.876 933.782 C 801.062 933.782 766.355 968.489 766.355 1011.303 C 766.355 1069.444 843.876 1155.272 843.876 1155.272 C 843.876 1155.272 921.399 1069.444 921.399 1011.303 C 921.399 968.489 886.69 933.782 843.876 933.782 L 843.876 933.782 Z " fill="rgb(0,0,0)"/><path d=" M 760.902 1245.298 C 760.902 1216.377 775.731 1190.892 798.195 1176.038 C 811.299 1167.372 827.003 1162.325 843.876 1162.325 C 889.671 1162.325 926.852 1199.503 926.852 1245.298 C 926.852 1291.094 889.671 1328.274 843.876 1328.274 C 798.081 1328.274 760.902 1291.094 760.902 1245.298 L 760.902 1245.298 Z  M 868.869 1254.123 C 867.477 1255.835 866.719 1257.973 866.719 1260.178 C 866.72 1262.738 867.737 1265.193 869.549 1267.002 C 871.358 1268.814 873.813 1269.83 876.373 1269.832 C 878.932 1269.83 881.385 1268.814 883.195 1267.002 C 885.006 1265.193 886.025 1262.738 886.025 1260.178 C 886.025 1257.618 885.006 1255.165 883.195 1253.356 C 881.385 1251.544 878.932 1250.528 876.373 1250.526 Q 876.347 1250.526 876.323 1250.526 C 875.891 1249.681 875.466 1248.833 875.048 1247.982 C 874.31 1246.484 873.6 1244.972 872.917 1243.446 C 874.043 1243.2 875.201 1243.079 876.373 1243.079 C 880.907 1243.079 885.256 1244.88 888.464 1248.087 C 891.67 1251.295 893.471 1255.644 893.471 1260.178 C 893.471 1264.713 891.669 1269.065 888.464 1272.271 C 885.256 1275.476 880.907 1277.279 876.373 1277.279 C 871.836 1277.279 867.488 1275.476 864.28 1272.271 C 861.075 1269.063 859.272 1264.714 859.272 1260.178 C 859.272 1255.645 861.075 1251.292 864.28 1248.087 C 864.655 1247.712 865.045 1247.358 865.458 1247.032 C 866.153 1248.579 866.875 1250.113 867.624 1251.634 C 868.033 1252.466 868.449 1253.296 868.869 1254.123 Z  M 796.387 1265.695 C 796.387 1262.623 797.606 1259.676 799.779 1257.503 C 801.952 1255.331 804.898 1254.111 807.971 1254.111 C 811.043 1254.111 813.99 1255.331 816.162 1257.503 C 818.335 1259.676 819.556 1262.623 819.556 1265.695 C 819.556 1268.767 818.335 1271.714 816.162 1273.886 C 813.99 1276.059 811.043 1277.279 807.971 1277.279 C 804.898 1277.279 801.952 1276.059 799.779 1273.886 C 797.608 1271.714 796.387 1268.767 796.387 1265.695 Z  M 848.609 1205.942 C 850.256 1205.815 851.906 1205.725 853.558 1205.674 C 854.578 1205.641 855.599 1205.651 856.618 1205.701 C 856.972 1205.724 857.32 1205.746 857.672 1205.779 C 857.915 1205.801 858.157 1205.834 858.4 1205.871 C 858.455 1205.878 858.51 1205.889 858.56 1205.894 C 858.605 1206.136 858.637 1206.379 858.66 1206.628 Q 858.801 1207.992 858.792 1209.376 C 858.787 1210.244 858.765 1211.115 858.725 1211.983 C 858.682 1212.928 858.627 1213.865 858.572 1214.803 C 858.51 1215.8 858.455 1216.8 858.412 1217.798 C 858.36 1218.819 858.335 1219.843 858.335 1220.865 C 858.328 1221.962 858.372 1223.067 858.46 1224.164 C 858.529 1224.979 858.639 1225.791 858.79 1226.596 C 857.153 1226.762 855.519 1226.97 853.888 1227.209 C 851.333 1227.584 848.796 1228.064 846.281 1228.643 C 843.949 1229.177 841.642 1229.818 839.369 1230.568 C 837.241 1231.268 835.153 1232.079 833.108 1232.996 C 830.617 1234.107 828.212 1235.402 825.91 1236.868 L 822.603 1232.975 L 822.666 1232.968 Q 823.444 1232.86 824.221 1232.719 C 824.595 1232.648 824.963 1232.553 825.326 1232.438 C 825.501 1232.376 825.677 1232.311 825.849 1232.239 C 826.058 1232.153 826.261 1232.051 826.456 1231.936 C 826.913 1231.671 827.319 1231.327 827.658 1230.921 C 828.296 1230.162 828.651 1229.204 828.658 1228.213 C 828.661 1227.281 828.365 1226.375 827.813 1225.626 C 827.493 1225.196 827.101 1224.825 826.655 1224.527 C 826.458 1224.396 826.251 1224.278 826.036 1224.174 C 825.861 1224.092 825.683 1224.014 825.496 1223.949 C 825.044 1223.772 824.576 1223.639 824.096 1223.54 C 823.359 1223.392 822.62 1223.264 821.878 1223.159 C 821.201 1223.067 820.521 1222.984 819.842 1222.912 C 818.816 1222.802 817.784 1222.707 816.752 1222.619 C 815.137 1222.487 813.52 1222.365 811.905 1222.267 C 809.373 1222.112 806.846 1221.969 804.308 1221.847 C 803.183 1221.792 802.074 1222.2 801.258 1222.984 C 800.436 1223.762 799.973 1224.847 799.973 1225.979 L 799.973 1229.841 C 799.973 1230.959 800.426 1232.031 801.226 1232.808 C 802.026 1233.586 803.111 1234.005 804.226 1233.978 C 806.935 1233.897 809.644 1233.801 812.352 1233.691 L 819.284 1241.846 C 817.504 1243.411 815.823 1245.089 814.254 1246.866 C 812.283 1246.195 810.169 1245.837 807.971 1245.837 C 797.011 1245.837 788.113 1254.735 788.113 1265.695 C 788.113 1276.656 797.011 1285.553 807.971 1285.553 C 818.932 1285.553 827.83 1276.656 827.83 1265.695 C 827.83 1259.973 825.405 1254.815 821.526 1251.192 C 823.308 1249.282 825.253 1247.528 827.333 1245.942 C 830.173 1243.805 833.245 1241.996 836.49 1240.547 C 838.274 1239.747 840.099 1239.04 841.957 1238.428 C 843.992 1237.761 846.049 1237.183 848.134 1236.708 C 850.435 1236.178 852.758 1235.738 855.09 1235.395 C 856.958 1235.122 858.833 1234.893 860.714 1234.709 C 860.965 1235.535 861.231 1236.359 861.512 1237.176 C 861.737 1237.831 861.969 1238.483 862.208 1239.133 C 855.446 1243.69 850.998 1251.419 850.998 1260.178 C 850.998 1274.184 862.367 1285.553 876.373 1285.553 C 890.377 1285.553 901.745 1274.184 901.745 1260.178 C 901.745 1246.174 890.377 1234.805 876.373 1234.805 C 874.081 1234.805 871.862 1235.108 869.753 1235.681 C 869.612 1235.285 869.475 1234.888 869.339 1234.49 C 869.057 1233.675 868.792 1232.856 868.544 1232.031 C 868.207 1230.911 867.906 1229.781 867.639 1228.643 C 867.414 1227.684 867.221 1226.719 867.071 1225.741 C 866.896 1224.997 866.774 1224.241 866.707 1223.479 C 866.636 1222.619 866.602 1221.759 866.609 1220.892 C 866.609 1219.987 866.631 1219.089 866.674 1218.19 C 866.719 1217.23 866.769 1216.27 866.829 1215.31 C 866.889 1214.333 866.944 1213.353 866.989 1212.376 C 867.034 1211.388 867.061 1210.401 867.066 1209.413 C 867.073 1208.209 867.016 1207.005 866.894 1205.806 C 866.776 1204.599 866.54 1203.405 866.194 1202.242 C 866.05 1201.741 865.833 1201.263 865.549 1200.824 C 865.279 1200.406 864.954 1200.031 864.584 1199.694 C 864.302 1199.44 863.997 1199.213 863.674 1199.015 C 863.37 1198.829 863.051 1198.662 862.724 1198.519 C 862.267 1198.322 861.796 1198.16 861.312 1198.034 C 860.762 1197.89 860.204 1197.776 859.642 1197.692 C 859.248 1197.63 858.852 1197.582 858.455 1197.542 C 857.984 1197.499 857.511 1197.465 857.037 1197.437 C 855.792 1197.377 854.545 1197.367 853.298 1197.405 C 851.724 1197.451 850.15 1197.534 848.576 1197.647 C 848.5 1197.565 848.423 1197.484 848.344 1197.405 C 847.174 1196.235 845.586 1195.578 843.931 1195.58 L 833.792 1195.58 C 832.138 1195.578 830.55 1196.235 829.38 1197.405 C 828.21 1198.574 827.555 1200.159 827.553 1201.812 C 827.553 1203.467 828.21 1205.054 829.38 1206.226 C 830.55 1207.394 832.138 1208.051 833.792 1208.051 L 843.931 1208.051 C 845.586 1208.051 847.174 1207.396 848.344 1206.226 C 848.437 1206.135 848.524 1206.04 848.609 1205.942 Z " fill-rule="evenodd" fill="rgb(0,0,0)"/></g></g></g></svg>