<?xml version="1.0" encoding="UTF-8" standalone="no"?>
<!-- Created with Inkscape (http://www.inkscape.org/) -->

<svg
   width="186.06514mm"
   height="260.49121mm"
   viewBox="0 0 186.06514 260.49121"
   version="1.1"
   id="svg1"
   sodipodi:docname="stop-sign.svg"
   inkscape:version="1.3.2 (091e20e, 2023-11-25)"
   xmlns:inkscape="http://www.inkscape.org/namespaces/inkscape"
   xmlns:sodipodi="http://sodipodi.sourceforge.net/DTD/sodipodi-0.dtd"
   xmlns="http://www.w3.org/2000/svg"
   xmlns:svg="http://www.w3.org/2000/svg">
  <sodipodi:namedview
     id="namedview1"
     pagecolor="#ffffff"
     bordercolor="#000000"
     borderopacity="0.25"
     inkscape:showpageshadow="2"
     inkscape:pageopacity="0.0"
     inkscape:pagecheckerboard="0"
     inkscape:deskcolor="#d1d1d1"
     inkscape:document-units="mm"
     inkscape:zoom="0.47941477"
     inkscape:cx="410.91767"
     inkscape:cy="453.67814"
     inkscape:window-width="1440"
     inkscape:window-height="756"
     inkscape:window-x="0"
     inkscape:window-y="25"
     inkscape:window-maximized="0"
     inkscape:current-layer="svg1" />
  <defs
     id="defs1" />
  <path
     id="rect3"
     style="fill:#ffffff;stroke-width:0.264999"
     d="M 4.4780808e-8,1.0901897e-8 H 186.06514 V 260.49121 H 4.4780808e-8 Z" />
  <path
     id="rect1"
     style="fill:#000000;fill-rule:evenodd;stroke-width:0.218414"
     d="M 17.37366,13.81485 V 207.49092 H 170.01034 V 13.81485 Z M 29.42357,25.173848 H 157.95991 V 81.655672 H 29.42357 Z m 97.03439,67.355579 c 2.10183,0 3.91846,0.366261 5.44979,1.098641 1.56137,0.732379 2.85226,1.655366 3.87315,2.769857 1.02089,1.11449 1.80151,2.245194 2.34198,3.391528 l -5.80998,3.439077 c -0.4504,-0.79607 -0.97561,-1.48098 -1.57613,-2.05415 -0.5705,-0.60501 -1.21621,-1.06651 -1.93684,-1.384927 -0.6906,-0.350277 -1.44135,-0.525557 -2.25206,-0.525557 -1.08094,0 -1.90635,0.254817 -2.47685,0.764294 -0.57049,0.47764 -0.85576,1.08251 -0.85576,1.81489 0,0.76422 0.26982,1.43292 0.81029,2.00609 0.5705,0.57317 1.36656,1.0985 2.38745,1.57614 1.05092,0.47764 2.31195,0.98727 3.78323,1.5286 1.11097,0.4458 2.14698,0.97112 3.10782,1.57613 0.96084,0.57317 1.80118,1.27377 2.52181,2.10168 0.75066,0.82791 1.33612,1.78333 1.75648,2.86597 0.42037,1.08265 0.63097,2.32428 0.63097,3.72536 0,1.68766 -0.33058,3.20032 -0.99115,4.53771 -0.63055,1.30554 -1.50128,2.40433 -2.61225,3.29592 -1.08094,0.89159 -2.32704,1.56028 -3.73827,2.00608 -1.3812,0.47764 -2.80752,0.71623 -4.27881,0.71623 -2.04178,0 -3.94852,-0.38196 -5.72006,-1.14618 -1.74152,-0.79606 -3.25743,-1.86293 -4.54856,-3.20032 -1.29113,-1.33739 -2.29728,-2.80192 -3.0179,-4.39405 l 5.31492,-4.06022 c 0.63055,1.21002 1.33598,2.26119 2.11666,3.15278 0.81071,0.8916 1.68143,1.57599 2.61225,2.05363 0.96083,0.47763 1.96698,0.71623 3.0179,0.71623 1.11097,0 2.02649,-0.28621 2.74712,-0.85938 0.72063,-0.60501 1.08107,-1.41706 1.08107,-2.43603 0,-0.85975 -0.21009,-1.54465 -0.63045,-2.05413 -0.42037,-0.54133 -1.09594,-1.05044 -2.02675,-1.52808 -0.93081,-0.47763 -2.16198,-1.01918 -3.69332,-1.62419 -0.75065,-0.28658 -1.62138,-0.68476 -2.61224,-1.19424 -0.96084,-0.50948 -1.87688,-1.16195 -2.74764,-1.95802 -0.87076,-0.82791 -1.59112,-1.81524 -2.16162,-2.96158 -0.5705,-1.17818 -0.85576,-2.5951 -0.85576,-4.25093 0,-1.97425 0.48041,-3.677889 1.44125,-5.110806 0.99087,-1.432917 2.31163,-2.515484 3.96307,-3.247864 1.68147,-0.764222 3.54341,-1.146183 5.58519,-1.146183 z m -77.287791,0.764294 h 11.57552 c 2.191912,0 4.113583,0.318129 5.765023,0.954981 1.681467,0.605009 3.002228,1.544212 3.963066,2.817916 0.990864,1.241861 1.486731,2.818355 1.486731,4.728922 0,1.75135 -0.495867,3.2478 -1.486731,4.48967 -0.793877,1.02607 -1.847837,1.84517 -3.133659,2.47996 0.908662,0.3336 1.761466,0.75866 2.548165,1.29346 1.171021,0.76422 2.101992,1.75156 2.792594,2.96157 0.720629,1.17818 1.081071,2.61079 1.081071,4.29845 0,2.22898 -0.510282,4.02837 -1.531173,5.3976 -0.990864,1.36924 -2.402252,2.38797 -4.23385,3.05666 -1.831597,0.63686 -3.993735,0.9555 -6.485909,0.9555 H 49.170169 Z m 31.932934,0 h 7.611939 v 21.875709 c 0,1.68766 0.420171,3.05695 1.260905,4.10776 0.840733,1.0508 2.101764,1.57613 3.783231,1.57613 1.711493,0 2.987974,-0.52533 3.828707,-1.57613 0.840733,-1.05081 1.260905,-2.4201 1.260905,-4.10776 V 93.293721 h 7.61142 v 22.448799 c 0,2.10161 -0.33006,3.9324 -0.99064,5.49269 -0.63055,1.56028 -1.53113,2.85005 -2.70216,3.86901 -1.14099,0.98712 -2.49265,1.73534 -4.054012,2.24483 -1.531336,0.50948 -3.182675,0.76429 -4.95422,0.76429 -1.771545,0 -3.422884,-0.25481 -4.954219,-0.76429 -1.531336,-0.50949 -2.882478,-1.25771 -4.0535,-2.24483 -1.140995,-1.01896 -2.041584,-2.30873 -2.70216,-3.86901 -0.63055,-1.56029 -0.946196,-3.39108 -0.946196,-5.49269 z m -24.320996,6.256982 v 7.021317 h 3.152779 c 0.87076,0 1.606577,-0.14337 2.207101,-0.42995 0.63055,-0.28659 1.110967,-0.68477 1.441255,-1.19425 0.330288,-0.54133 0.49506,-1.19381 0.49506,-1.95804 0,-1.14633 -0.360442,-2.00653 -1.08107,-2.5797 -0.720629,-0.573167 -1.741193,-0.859377 -3.062346,-0.859377 z m 0,12.657147 v 8.26358 h 3.873149 c 0.990864,0 1.877038,-0.12767 2.657719,-0.38241 0.780681,-0.28658 1.396006,-0.73237 1.846398,-1.33738 0.48042,-0.63685 0.72037,-1.49652 0.72037,-2.57917 0,-0.70054 -0.134908,-1.3054 -0.405143,-1.81488 -0.270236,-0.50948 -0.645611,-0.92336 -1.12603,-1.24178 -0.480419,-0.31843 -1.036015,-0.54133 -1.666565,-0.6687 -0.600524,-0.15921 -1.276095,-0.23926 -2.026749,-0.23926 z M 29.42357,138.9871 h 128.53634 v 56.48182 H 29.42357 Z" />
  <path
     d="m 50.447042,232.17877 -1.634825,2.22369 q 0.373167,0.26383 0.888492,0.48997 0.515325,0.24498 1.155039,0.41458 0.639714,0.1696 1.332738,0.1696 0.817412,0 1.563745,-0.20729 0.746333,-0.18845 1.314968,-0.60303 0.568635,-0.39574 0.888492,-1.07416 0.319857,-0.65956 0.319857,-1.6018 v -14.20898 h -3.23411 v 13.49288 q 0,0.82916 -0.373167,1.16838 -0.373166,0.33921 -0.781872,0.33921 -0.390937,0 -0.781873,-0.18845 -0.390936,-0.1696 -0.657484,-0.4146 z m 12.779471,-7.80174 q 0,-1.16838 0.426476,-2.05408 0.444246,-0.90455 1.226118,-1.41336 0.799643,-0.50881 1.865833,-0.50881 1.08396,0 1.865833,0.50881 0.781872,0.50881 1.208348,1.41336 0.426476,0.8857 0.426476,2.05408 0,1.16838 -0.444246,2.07293 -0.426476,0.88571 -1.226118,1.39452 -0.781873,0.50881 -1.830293,0.50881 -1.06619,0 -1.865833,-0.50881 -0.781872,-0.50881 -1.226118,-1.39452 -0.426476,-0.90455 -0.426476,-2.07293 z m -3.180801,0 q 0,1.52643 0.479786,2.80788 0.497555,1.28144 1.386047,2.22368 0.906262,0.94224 2.13238,1.4699 1.226119,0.50881 2.701015,0.50881 1.457126,0 2.683245,-0.50881 1.226118,-0.52766 2.11461,-1.4699 0.906262,-0.94224 1.386047,-2.22368 0.497556,-1.28145 0.497556,-2.80788 0,-1.52643 -0.497556,-2.78903 -0.497555,-1.2626 -1.403817,-2.186 -0.906261,-0.92339 -2.13238,-1.41336 -1.208348,-0.50881 -2.647705,-0.50881 -1.421587,0 -2.647705,0.50881 -1.226119,0.48997 -2.13238,1.41336 -0.906262,0.9234 -1.421587,2.186 -0.497556,1.2626 -0.497556,2.78903 z m 17.150837,-6.59568 v 13.19136 h 3.056412 v -13.19136 z m 16.120196,0 v 7.42485 l -8.58283,-8.08442 v 13.85093 h 2.878713 v -7.42485 l 8.6006,8.08442 v -13.85093 z m 14.489075,0 v 8.85706 q 0,1.24376 0.37317,2.16715 0.39093,0.9234 1.06619,1.52643 0.69302,0.58419 1.59928,0.88571 0.90627,0.30151 1.95469,0.30151 1.04842,0 1.95468,-0.30151 0.92403,-0.30152 1.59928,-0.88571 0.69303,-0.60303 1.06619,-1.52643 0.39094,-0.92339 0.39094,-2.16715 v -8.85706 h -3.0031 v 8.63092 q 0,0.99878 -0.49756,1.62065 -0.49755,0.62188 -1.51043,0.62188 -0.99512,0 -1.49267,-0.62188 -0.49756,-0.62187 -0.49756,-1.62065 v -8.63092 z m 15.76481,8.55554 -2.09684,1.60181 q 0.42648,0.94224 1.19058,1.73372 0.7641,0.79148 1.79475,1.2626 1.04842,0.45228 2.25677,0.45228 0.87072,0 1.68814,-0.28267 0.83518,-0.26383 1.47489,-0.79149 0.65749,-0.52765 1.03065,-1.30029 0.39094,-0.79148 0.39094,-1.79024 0,-0.82918 -0.24878,-1.4699 -0.24878,-0.64072 -0.69302,-1.13069 -0.42648,-0.48996 -0.99511,-0.82917 -0.56864,-0.35805 -1.22612,-0.62188 -0.87072,-0.32036 -1.49267,-0.60303 -0.60417,-0.28267 -0.9418,-0.62188 -0.31986,-0.3392 -0.31986,-0.79148 0,-0.43343 0.33763,-0.71611 0.33763,-0.30152 0.97734,-0.30152 0.47979,0 0.88849,0.20729 0.42648,0.18845 0.76411,0.5465 0.35539,0.33922 0.62194,0.81033 l 2.29231,-1.35683 q -0.31986,-0.67841 -0.92403,-1.33797 -0.60418,-0.65956 -1.52821,-1.093 -0.90626,-0.43343 -2.15015,-0.43343 -1.20835,0 -2.20346,0.45228 -0.97734,0.43343 -1.56374,1.28145 -0.56864,0.84801 -0.56864,2.01639 0,0.97993 0.33763,1.67719 0.33763,0.67841 0.85295,1.16838 0.51533,0.47112 1.08396,0.77263 0.58641,0.30152 1.03065,0.47112 0.90626,0.35805 1.45713,0.64073 0.55086,0.28267 0.79964,0.60303 0.24878,0.30152 0.24878,0.81033 0,0.60303 -0.42648,0.96108 -0.42647,0.33921 -1.08396,0.33921 -0.62194,0 -1.19058,-0.28268 -0.55086,-0.28267 -1.03065,-0.81032 -0.46201,-0.52766 -0.83518,-1.24377 z m 11.65997,-8.55554 0.58641,8.83821 h 2.16792 l 0.56863,-8.83821 z m 0,12.02298 q 0,0.71611 0.46202,1.16838 0.47978,0.45228 1.20835,0.45228 0.72856,0 1.19058,-0.45228 0.47978,-0.45227 0.47978,-1.16838 0,-0.7161 -0.47978,-1.16837 -0.46202,-0.45228 -1.19058,-0.45228 -0.72857,0 -1.20835,0.45228 -0.46202,0.45227 -0.46202,1.16837 z"
     id="text1"
     style="font-weight:bold;font-size:96px;font-family:Jost;-inkscape-font-specification:'Jost Bold';text-align:center;letter-spacing:10px;word-spacing:0.1px;white-space:pre;fill:#000000;fill-rule:evenodd;stroke-width:0.190619"
     aria-label="JOIN US!" />
  <path
     d="m 39.396769,36.697576 v 33.434759 h 13.466936 c 2.642305,0 4.909113,-0.302692 6.800763,-0.907702 1.89165,-0.636852 3.348013,-1.639803 4.368903,-3.009035 1.020891,-1.369231 1.531514,-3.16825 1.531514,-5.397232 0,-1.7195 -0.375329,-3.184357 -1.125984,-4.394375 -0.720628,-1.241861 -1.696482,-2.244813 -2.927556,-3.009036 -0.695088,-0.449473 -1.438181,-0.82004 -2.219419,-1.127396 1.192028,-0.61566 2.172248,-1.402026 2.939873,-2.359744 1.02089,-1.305546 1.531513,-2.865746 1.531513,-4.680773 0,-1.910555 -0.510623,-3.486489 -1.531513,-4.728351 -1.020892,-1.273704 -2.417025,-2.228984 -4.188571,-2.865836 -1.741519,-0.636852 -3.738179,-0.955279 -5.990142,-0.955279 z m 33.554302,0 v 33.434759 h 8.9177 V 36.697576 Z m 17.655508,0 v 33.434759 h 9.098033 V 56.038241 l 10.494078,14.094094 h 10.58424 L 107.58649,52.364056 120.10734,36.697576 H 109.92862 L 99.704612,49.493554 V 36.697576 Z m 35.536201,0 v 33.434759 h 5.94485 2.4323 13.46693 v -7.499032 h -13.46693 v -6.257356 h 12.56614 v -7.259746 h -12.56614 v -4.920059 h 13.46693 v -7.498566 h -13.46693 -2.4323 z m -78.008205,7.06897 h 2.83739 c 1.231074,0 2.1467,0.23882 2.747224,0.716459 0.630549,0.477639 0.94609,1.226036 0.94609,2.244999 0,0.668694 -0.150132,1.241676 -0.450394,1.719315 -0.270235,0.477639 -0.675679,0.843737 -1.21615,1.098477 -0.540472,0.254741 -1.216063,0.382019 -2.02677,0.382019 h -2.83739 z m 0,12.418625 h 3.64801 c 0.660577,0 1.261102,0.04767 1.801573,0.143198 0.570498,0.09553 1.065843,0.270477 1.486211,0.525217 0.450392,0.254741 0.796047,0.589369 1.036256,1.003323 0.240209,0.413953 0.360227,0.939265 0.360227,1.576116 0,0.987121 -0.21036,1.751252 -0.630727,2.292576 -0.420367,0.509482 -0.990778,0.859845 -1.711406,1.0509 -0.690603,0.191056 -1.471374,0.286397 -2.342134,0.286397 h -3.64801 z"
     style="font-weight:800;font-size:200px;font-family:Jost;-inkscape-font-specification:'Jost Ultra-Bold';text-align:center;letter-spacing:10px;word-spacing:0.1px;white-space:pre;fill:#000000;stroke:none;stroke-width:0.877879"
     id="path1" />
  <path
     d="m 39.036529,172.05209 -5.314641,4.05994 q 1.080944,2.3882 3.017635,4.39428 1.936691,2.00609 4.548972,3.20019 2.657321,1.14633 5.719995,1.14633 2.206928,0 4.278737,-0.71646 2.116849,-0.66869 3.738265,-2.00608 1.666455,-1.33739 2.612281,-3.29572 0.990865,-2.00608 0.990865,-4.53757 0,-2.10161 -0.630551,-3.72559 -0.63055,-1.62397 -1.756533,-2.86583 -1.080944,-1.24187 -2.522203,-2.10162 -1.441259,-0.90751 -3.107714,-1.57621 -2.206927,-0.81198 -3.783304,-1.52844 -1.531337,-0.71646 -2.387084,-1.57621 -0.810708,-0.85975 -0.810708,-2.00609 0,-1.09857 0.855747,-1.81503 0.855747,-0.76422 2.477163,-0.76422 1.216062,0 2.251967,0.5254 1.080944,0.47764 1.936691,1.38516 0.900787,0.85975 1.576377,2.05384 l 5.810073,-3.439 q -0.810708,-1.7195 -2.342045,-3.39124 -1.531337,-1.67174 -3.873382,-2.77031 -2.297006,-1.09857 -5.44976,-1.09857 -3.062674,0 -5.584877,1.14634 -2.477163,1.09857 -3.963461,3.24794 -1.441259,2.14938 -1.441259,5.11075 0,2.48372 0.855748,4.25099 0.855747,1.7195 2.161888,2.96136 1.30614,1.1941 2.747399,1.95832 1.486298,0.76423 2.612281,1.1941 2.297006,0.90752 3.693225,1.62398 1.39622,0.71645 2.02677,1.52844 0.630551,0.76422 0.630551,2.05385 0,1.52845 -1.080944,2.43596 -1.080944,0.85975 -2.747399,0.85975 -1.576377,0 -3.017635,-0.71646 -1.39622,-0.71646 -2.612282,-2.05385 -1.171022,-1.33739 -2.116848,-3.15242 z m 23.780767,-14.47247 h 8.647552 v 26.2224 h 7.611647 v -26.2224 h 8.692591 v -7.21235 h -24.95179 z m 34.680358,9.50502 q 0,-2.96136 1.080944,-5.20627 1.125983,-2.29266 3.107712,-3.58229 2.02677,-1.28963 4.72913,-1.28963 2.7474,0 4.72913,1.28963 1.98173,1.28963 3.06268,3.58229 1.08094,2.24491 1.08094,5.20627 0,2.96137 -1.12598,5.25404 -1.08095,2.2449 -3.10772,3.53453 -1.98173,1.28963 -4.63905,1.28963 -2.70236,0 -4.72913,-1.28963 -1.981729,-1.28963 -3.107712,-3.53453 -1.080944,-2.29267 -1.080944,-5.25404 z m -8.062041,0 q 0,3.86888 1.216062,7.11683 1.261102,3.24795 3.513068,5.63615 2.297006,2.38819 5.40472,3.72558 3.107717,1.28963 6.845977,1.28963 3.69323,0 6.80094,-1.28963 3.10771,-1.33739 5.35968,-3.72558 2.29701,-2.3882 3.51307,-5.63615 1.2611,-3.24795 1.2611,-7.11683 0,-3.86887 -1.2611,-7.06906 -1.2611,-3.20018 -3.55811,-5.54062 -2.297,-2.34043 -5.40472,-3.58229 -3.06267,-1.28963 -6.71086,-1.28963 -3.60315,0 -6.710859,1.28963 -3.107714,1.24186 -5.40472,3.58229 -2.297006,2.34044 -3.603146,5.54062 -1.261102,3.20019 -1.261102,7.06906 z M 130.4664,150.36727 v 33.43475 h 7.61165 v -33.43475 z m 4.77417,6.63918 h 6.17039 q 2.29701,0 3.60315,1.09857 1.30614,1.09857 1.30614,3.20019 0,2.05385 -1.30614,3.15242 -1.30614,1.09857 -3.60315,1.09857 h -6.17039 v 6.63919 h 6.17039 q 4.0085,0 6.71086,-1.28963 2.7474,-1.33739 4.14362,-3.77335 1.39622,-2.48373 1.39622,-5.8272 0,-3.43901 -1.39622,-5.87497 -1.39622,-2.43596 -4.14362,-3.72558 -2.70236,-1.33739 -6.71086,-1.33739 h -6.17039 z"
     id="text42-0"
     style="font-weight:bold;font-size:200px;font-family:Jost;-inkscape-font-specification:'Jost Bold';text-align:center;letter-spacing:10px;word-spacing:0.1px;white-space:pre;fill:#000000;stroke:none;stroke-width:0.232272"
     aria-label="STOP" />
  <path
     d="M 12.753868,245.10748 H 11.48436 v 6.95443 h 1.269508 z m 3.161158,4.90376 q 0,-0.69545 -0.269034,-1.16798 -0.260626,-0.47255 -0.680994,-0.72219 -0.411959,-0.24966 -0.891178,-0.24966 -0.479218,0 -0.857549,0.25857 -0.378328,0.25857 -0.59692,0.74003 -0.218591,0.47253 -0.218591,1.14123 0,0.65978 0.218591,1.14124 0.218592,0.48146 0.59692,0.74003 0.378331,0.25855 0.857549,0.25855 0.479219,0 0.891178,-0.24964 0.420368,-0.24964 0.680994,-0.72219 0.269034,-0.48146 0.269034,-1.16799 z m -1.336765,0 q 0,0.32097 -0.12611,0.5617 -0.126111,0.23182 -0.336293,0.36556 -0.210185,0.12483 -0.462403,0.12483 -0.218592,0 -0.428775,-0.12483 -0.201776,-0.12483 -0.336293,-0.35663 -0.134519,-0.24073 -0.134519,-0.57063 0,-0.32989 0.134519,-0.56171 0.134517,-0.24073 0.336293,-0.36554 0.210183,-0.12483 0.428775,-0.12483 0.252218,0 0.462403,0.13374 0.210182,0.12483 0.336293,0.36556 0.12611,0.2318 0.12611,0.55278 z m 3.715148,-3.59312 q 0,0.32098 0.218589,0.52605 0.218592,0.20505 0.521256,0.20505 0.311071,0 0.521254,-0.20505 0.218591,-0.20507 0.218591,-0.52605 0,-0.32097 -0.218591,-0.51711 -0.210183,-0.20508 -0.521254,-0.20508 -0.302664,0 -0.521256,0.20508 -0.218589,0.19614 -0.218589,0.51711 z m 0.12611,1.54247 v 4.10132 h 1.22747 v -4.10132 z m 3.950539,-2.85311 v 6.95443 h 1.219064 v -6.95443 z m 2.623089,2.85311 -1.656245,1.69402 1.849612,2.4073 h 1.496506 l -1.824392,-2.4073 1.656245,-1.69402 z m 5.766534,4.19047 q 0.739845,0 1.252693,-0.30313 0.521253,-0.30314 0.823918,-0.90943 l -1.134989,-0.29422 q -0.142926,0.26747 -0.38674,0.40121 -0.235404,0.13374 -0.571697,0.13374 -0.294258,0 -0.496034,-0.13374 -0.201774,-0.14264 -0.302662,-0.41012 -0.100888,-0.26748 -0.100888,-0.64195 0.0084,-0.41015 0.100888,-0.67763 0.100888,-0.27638 0.294255,-0.41012 0.19337,-0.13374 0.479219,-0.13374 0.226998,0 0.395143,0.10699 0.168148,0.10699 0.260629,0.30313 0.09248,0.19617 0.09248,0.46365 0,0.0624 -0.03363,0.16049 -0.02522,0.0892 -0.06726,0.15155 l 0.302665,-0.41012 H 29.27999 v 0.74893 h 3.53108 q 0.01682,-0.0624 0.01682,-0.15157 0,-0.0981 0,-0.19615 0,-0.65978 -0.243814,-1.12341 -0.243811,-0.46362 -0.706214,-0.70435 -0.462406,-0.24966 -1.134992,-0.24966 -0.672585,0 -1.168619,0.25857 -0.487625,0.25857 -0.748252,0.74003 -0.260629,0.48146 -0.260629,1.14123 0,0.65088 0.269035,1.13234 0.269036,0.48146 0.756661,0.74893 0.496032,0.25855 1.16862,0.25855 z m 3.858072,-4.19047 1.99254,4.35989 1.252692,-2.44298 1.277915,2.44298 1.992537,-4.35989 h -1.328358 l -0.807105,2.10414 -1.134989,-2.41621 -1.109769,2.41621 -0.807103,-2.10414 z m 8.288736,2.05065 q 0,0.64194 0.285849,1.1234 0.285849,0.48146 0.79029,0.74894 0.50444,0.26748 1.134991,0.26748 0.630548,0 1.126582,-0.26748 0.504441,-0.26748 0.79029,-0.74894 0.294255,-0.48146 0.294255,-1.1234 0,-0.65086 -0.294255,-1.13232 -0.285849,-0.48146 -0.79029,-0.74894 -0.496034,-0.26748 -1.126582,-0.26748 -0.630551,0 -1.134991,0.26748 -0.504441,0.26748 -0.79029,0.74894 -0.285849,0.48146 -0.285849,1.13232 z m 1.303137,0 q 0,-0.32098 0.12611,-0.55278 0.12611,-0.23182 0.327886,-0.35665 0.201777,-0.12481 0.453997,-0.12481 0.243811,0 0.445587,0.12481 0.210183,0.12483 0.327887,0.35665 0.12611,0.2318 0.12611,0.55278 0,0.32097 -0.12611,0.55279 -0.117704,0.22289 -0.327887,0.34772 -0.201776,0.12483 -0.445587,0.12483 -0.25222,0 -0.453997,-0.12483 -0.201776,-0.12483 -0.327886,-0.34772 -0.12611,-0.23182 -0.12611,-0.55279 z m 6.817453,-2.05065 h -1.252693 v 4.10132 h 1.252693 z m 1.118175,1.39088 0.546478,-1.15015 q -0.100888,-0.16049 -0.294257,-0.24966 -0.19337,-0.0892 -0.403553,-0.0892 -0.319477,0 -0.613735,0.22289 -0.294255,0.22292 -0.479218,0.6063 -0.176555,0.38337 -0.176555,0.87377 l 0.302665,0.47252 q 0,-0.29422 0.07567,-0.49927 0.07567,-0.20508 0.218591,-0.31207 0.142924,-0.10699 0.327887,-0.10699 0.168145,0 0.277442,0.0624 0.117701,0.0624 0.218589,0.16942 z m 3.715146,0.65977 q 0,-0.30314 0.134517,-0.54387 0.134517,-0.24073 0.369922,-0.38338 0.243813,-0.14267 0.521256,-0.14267 0.210182,0 0.428774,0.0713 0.218589,0.0713 0.403552,0.20507 0.193368,0.13374 0.311071,0.32989 v -1.31955 q -0.201776,-0.15158 -0.50444,-0.24967 -0.302665,-0.10699 -0.739846,-0.10699 -0.638957,0 -1.151804,0.26748 -0.50444,0.26748 -0.798698,0.74894 -0.285849,0.47255 -0.285849,1.12341 0,0.64194 0.285849,1.1234 0.294258,0.48146 0.798698,0.74894 0.512847,0.26748 1.151804,0.26748 0.437181,0 0.739846,-0.0981 0.302664,-0.10699 0.50444,-0.27641 v -1.31064 q -0.117703,0.19617 -0.302664,0.3299 -0.176554,0.13374 -0.395146,0.21399 -0.210183,0.0713 -0.445587,0.0713 -0.277443,0 -0.521256,-0.13374 -0.235405,-0.13374 -0.369922,-0.36554 -0.134517,-0.24073 -0.134517,-0.57063 z m 6.741778,2.13982 q 0.739845,0 1.252693,-0.30313 0.521253,-0.30314 0.823918,-0.90943 L 63.5438,250.64428 q -0.142926,0.26747 -0.38674,0.40121 -0.235404,0.13374 -0.571697,0.13374 -0.294258,0 -0.496032,-0.13374 -0.201776,-0.14264 -0.302664,-0.41012 -0.100888,-0.26748 -0.100888,-0.64195 0.0084,-0.41015 0.100888,-0.67763 0.100888,-0.27638 0.294255,-0.41012 0.19337,-0.13374 0.479219,-0.13374 0.226998,0 0.395145,0.10699 0.168146,0.10699 0.260627,0.30313 0.09248,0.19617 0.09248,0.46365 0,0.0624 -0.03363,0.16049 -0.02522,0.0892 -0.06726,0.15155 l 0.302665,-0.41012 h -2.387682 v 0.74893 h 3.531079 q 0.01682,-0.0624 0.01682,-0.15157 0,-0.0981 0,-0.19615 0,-0.65978 -0.243814,-1.12341 -0.243811,-0.46362 -0.706214,-0.70435 -0.462406,-0.24966 -1.134992,-0.24966 -0.672585,0 -1.168619,0.25857 -0.487625,0.25857 -0.748252,0.74003 -0.260627,0.48146 -0.260627,1.14123 0,0.65088 0.269033,1.13234 0.269036,0.48146 0.756661,0.74893 0.496032,0.25855 1.16862,0.25855 z m 4.74924,-1.57812 -0.52966,0.89161 q 0.260627,0.21398 0.563291,0.39229 0.302664,0.16941 0.655773,0.26747 0.361514,0.10699 0.78188,0.10699 0.689401,0 1.067732,-0.32988 0.386737,-0.33881 0.386737,-0.99857 0,-0.38341 -0.159739,-0.6152 -0.151332,-0.23183 -0.411959,-0.3834 -0.25222,-0.15156 -0.554885,-0.26748 -0.285848,-0.1159 -0.487625,-0.18724 -0.193369,-0.0802 -0.302664,-0.16939 -0.100888,-0.0891 -0.100888,-0.22289 0,-0.11593 0.08407,-0.18724 0.09248,-0.0713 0.269035,-0.0713 0.260627,0 0.571698,0.16048 0.311073,0.15158 0.554885,0.39231 l 0.453996,-0.87377 q -0.226998,-0.17832 -0.487625,-0.31206 -0.25222,-0.13374 -0.546478,-0.21398 -0.285849,-0.0803 -0.622142,-0.0803 -0.420368,0 -0.748252,0.13374 -0.319479,0.13374 -0.512849,0.39231 -0.184961,0.25857 -0.184961,0.63304 0,0.39228 0.159739,0.64195 0.159741,0.24963 0.403552,0.40121 0.252221,0.14265 0.529663,0.24964 0.311071,0.0981 0.487625,0.18724 0.184963,0.0892 0.260629,0.18723 0.07566,0.0892 0.07566,0.22289 0,0.14267 -0.09248,0.23182 -0.09248,0.0892 -0.285849,0.0892 -0.134519,0 -0.31948,-0.0535 -0.184961,-0.0624 -0.428774,-0.20505 -0.235405,-0.15158 -0.529663,-0.41015 z m 4.858535,-2.61235 v 1.11447 h 2.589459 v -1.11447 z m 0.680994,-1.42657 v 5.52789 h 1.219064 v -5.52789 z m 6.102837,5.61704 q 0.739845,0 1.252692,-0.30313 0.521256,-0.30314 0.82392,-0.90943 l -1.134991,-0.29422 q -0.142925,0.26747 -0.386737,0.40121 -0.235405,0.13374 -0.5717,0.13374 -0.294255,0 -0.496032,-0.13374 -0.201776,-0.14264 -0.302664,-0.41012 -0.100888,-0.26748 -0.100888,-0.64195 0.0084,-0.41015 0.100888,-0.67763 0.100888,-0.27638 0.294258,-0.41012 0.193367,-0.13374 0.479216,-0.13374 0.226998,0 0.395146,0.10699 0.168147,0.10699 0.260627,0.30313 0.09248,0.19617 0.09248,0.46365 0,0.0624 -0.03363,0.16049 -0.02522,0.0892 -0.06726,0.15155 l 0.302664,-0.41012 H 77.51409 v 0.74893 h 3.531081 q 0.01682,-0.0624 0.01682,-0.15157 0,-0.0981 0,-0.19615 0,-0.65978 -0.243811,-1.12341 -0.243814,-0.46362 -0.706217,-0.70435 -0.462403,-0.24966 -1.134991,-0.24966 -0.672586,0 -1.168617,0.25857 -0.487628,0.25857 -0.748255,0.74003 -0.260626,0.48146 -0.260626,1.14123 0,0.65088 0.269033,1.13234 0.269036,0.48146 0.756661,0.74893 0.496034,0.25855 1.16862,0.25855 z m 5.791751,-4.19047 h -1.252692 v 4.10132 h 1.252692 z m 1.118176,1.39088 0.546476,-1.15015 q -0.100888,-0.16049 -0.294256,-0.24966 -0.193369,-0.0892 -0.403552,-0.0892 -0.31948,0 -0.613735,0.22289 -0.294258,0.22292 -0.479219,0.6063 -0.176554,0.38337 -0.176554,0.87377 l 0.302664,0.47252 q 0,-0.29422 0.07567,-0.49927 0.07567,-0.20508 0.21859,-0.31207 0.142925,-0.10699 0.327886,-0.10699 0.168148,0 0.277442,0.0624 0.117704,0.0624 0.218592,0.16942 z m 2.336337,2.10415 q 0,0.33881 0.226996,0.57954 0.226998,0.24073 0.563293,0.24073 0.353106,0 0.571698,-0.24073 0.218591,-0.24073 0.218591,-0.57954 0,-0.33879 -0.218591,-0.57952 -0.218592,-0.24073 -0.571698,-0.24073 -0.336295,0 -0.563293,0.24073 -0.226996,0.24073 -0.226996,0.57952 z m 4.101887,-1.44438 q 0,0.64194 0.285849,1.1234 0.285851,0.48146 0.790292,0.74894 0.504438,0.26748 1.134988,0.26748 0.630551,0 1.126583,-0.26748 0.50444,-0.26748 0.790289,-0.74894 0.294258,-0.48146 0.294258,-1.1234 0,-0.65086 -0.294258,-1.13232 -0.285849,-0.48146 -0.790289,-0.74894 -0.496032,-0.26748 -1.126583,-0.26748 -0.63055,0 -1.134988,0.26748 -0.504441,0.26748 -0.790292,0.74894 -0.285849,0.48146 -0.285849,1.13232 z m 1.303136,0 q 0,-0.32098 0.126111,-0.55278 0.12611,-0.23182 0.327886,-0.35665 0.201776,-0.12481 0.453996,-0.12481 0.243814,0 0.44559,0.12481 0.210183,0.12483 0.327884,0.35665 0.126111,0.2318 0.126111,0.55278 0,0.32097 -0.126111,0.55279 -0.117701,0.22289 -0.327884,0.34772 -0.201776,0.12483 -0.44559,0.12483 -0.25222,0 -0.453996,-0.12483 -0.201776,-0.12483 -0.327886,-0.34772 -0.126111,-0.23182 -0.126111,-0.55279 z m 6.817459,-2.05065 h -1.252694 v 4.10132 h 1.252694 z m 1.11817,1.39088 0.54648,-1.15015 q -0.10089,-0.16049 -0.29426,-0.24966 -0.19336,-0.0892 -0.40355,-0.0892 -0.31948,0 -0.61373,0.22289 -0.29426,0.22292 -0.47922,0.6063 -0.17656,0.38337 -0.17656,0.87377 l 0.30267,0.47252 q 0,-0.29422 0.0757,-0.49927 0.0757,-0.20508 0.2186,-0.31207 0.14292,-0.10699 0.32788,-0.10699 0.16815,0 0.27745,0.0624 0.1177,0.0624 0.21858,0.16942 z m 2.50449,3.00467 q 0.042,0.54386 0.27744,0.95401 0.2354,0.41903 0.69781,0.65085 0.47081,0.2318 1.18543,0.2318 0.59692,0 1.07614,-0.2318 0.47922,-0.22291 0.76507,-0.71328 0.29426,-0.49037 0.29426,-1.27496 v -4.01217 h -1.21907 v 4.01217 q 0,0.37447 -0.13452,0.62411 -0.12611,0.25857 -0.3447,0.38337 -0.21859,0.13374 -0.48762,0.13374 -0.24382,0 -0.43718,-0.0891 -0.19337,-0.0802 -0.31107,-0.24964 -0.1093,-0.16942 -0.13452,-0.41905 z m -0.0841,-2.3984 q 0,0.68654 0.26063,1.15016 0.26904,0.46364 0.6894,0.70437 0.42037,0.2318 0.89118,0.2318 0.48762,0 0.85755,-0.24073 0.37833,-0.24964 0.59692,-0.71326 0.21859,-0.47255 0.21859,-1.13234 0,-0.66869 -0.21859,-1.13232 -0.21859,-0.46362 -0.59692,-0.70435 -0.36993,-0.24966 -0.85755,-0.24966 -0.47081,0 -0.89118,0.23182 -0.42036,0.23183 -0.6894,0.69545 -0.26063,0.46362 -0.26063,1.15906 z m 1.33677,0 q 0,-0.32097 0.12611,-0.54386 0.12611,-0.22289 0.33629,-0.33882 0.21019,-0.1159 0.46241,-0.1159 0.15974,0 0.31947,0.0624 0.15974,0.0624 0.28585,0.18723 0.13452,0.12483 0.21019,0.31207 0.0841,0.18723 0.0841,0.43687 0,0.32991 -0.13452,0.5528 -0.13451,0.22289 -0.3447,0.33881 -0.20177,0.10699 -0.42036,0.10699 -0.25222,0 -0.46241,-0.11592 -0.21018,-0.1159 -0.33629,-0.33879 -0.12611,-0.23182 -0.12611,-0.54389 z m 5.77495,1.49788 q 0,0.33881 0.22699,0.57954 0.227,0.24073 0.5633,0.24073 0.3531,0 0.57169,-0.24073 0.2186,-0.24073 0.2186,-0.57954 0,-0.33879 -0.2186,-0.57952 -0.21859,-0.24073 -0.57169,-0.24073 -0.3363,0 -0.5633,0.24073 -0.22699,0.24073 -0.22699,0.57952 z m 5.65724,-0.99858 v -2.49645 h -1.32836 v 2.6391 q 0,0.73112 0.32788,1.15015 0.3363,0.41015 1.05933,0.41015 0.42877,0 0.71462,-0.18723 0.28585,-0.19617 0.4624,-0.52605 v 0.6152 h 1.26951 v -4.10132 h -1.26951 v 2.49645 q 0,0.24073 -0.0841,0.41013 -0.0841,0.16941 -0.2354,0.25857 -0.14293,0.0891 -0.35311,0.0891 -0.31107,0 -0.43718,-0.19614 -0.12611,-0.20508 -0.12611,-0.56171 z m 5.18643,-5.34956 v 6.95443 h 1.21906 v -6.95443 z m 2.62309,2.85311 -1.65625,1.69402 1.84961,2.4073 h 1.49651 l -1.82439,-2.4073 1.65624,-1.69402 z m 7.448,-2.13983 -3.64037,7.57854 h 1.2695 l 3.58994,-7.57854 z m 4.79128,-0.71328 h -1.26951 v 6.95443 h 1.26951 z m 3.16115,4.90376 q 0,-0.69545 -0.26903,-1.16798 -0.26063,-0.47255 -0.681,-0.72219 -0.41195,-0.24966 -0.89117,-0.24966 -0.47922,0 -0.85755,0.25857 -0.37833,0.25857 -0.59692,0.74003 -0.21859,0.47253 -0.21859,1.14123 0,0.65978 0.21859,1.14124 0.21859,0.48146 0.59692,0.74003 0.37833,0.25855 0.85755,0.25855 0.47922,0 0.89117,-0.24964 0.42037,-0.24964 0.681,-0.72219 0.26903,-0.48146 0.26903,-1.16799 z m -1.33676,0 q 0,0.32097 -0.12611,0.5617 -0.12611,0.23182 -0.3363,0.36556 -0.21018,0.12483 -0.4624,0.12483 -0.21859,0 -0.42878,-0.12483 -0.20177,-0.12483 -0.33629,-0.35663 -0.13451,-0.24073 -0.13451,-0.57063 0,-0.32989 0.13451,-0.56171 0.13452,-0.24073 0.33629,-0.36554 0.21019,-0.12483 0.42878,-0.12483 0.25222,0 0.4624,0.13374 0.21019,0.12483 0.3363,0.36556 0.12611,0.2318 0.12611,0.55278 z m 3.71514,-3.59312 q 0,0.32098 0.2186,0.52605 0.21858,0.20505 0.52125,0.20505 0.31107,0 0.52125,-0.20505 0.21859,-0.20507 0.21859,-0.52605 0,-0.32097 -0.21859,-0.51711 -0.21018,-0.20508 -0.52125,-0.20508 -0.30267,0 -0.52125,0.20508 -0.2186,0.19614 -0.2186,0.51711 z m 0.12611,1.54247 v 4.10132 h 1.22747 v -4.10132 z m 3.95054,-2.85311 v 6.95443 h 1.21907 v -6.95443 z m 2.62309,2.85311 -1.65624,1.69402 1.84961,2.4073 h 1.49651 l -1.8244,-2.4073 1.65625,-1.69402 z m 5.76654,4.19047 q 0.73984,0 1.25269,-0.30313 0.52125,-0.30314 0.82392,-0.90943 l -1.13499,-0.29422 q -0.14293,0.26747 -0.38674,0.40121 -0.2354,0.13374 -0.5717,0.13374 -0.29425,0 -0.49603,-0.13374 -0.20178,-0.14264 -0.30267,-0.41012 -0.10088,-0.26748 -0.10088,-0.64195 0.008,-0.41015 0.10088,-0.67763 0.10089,-0.27638 0.29426,-0.41012 0.19337,-0.13374 0.47922,-0.13374 0.227,0 0.39514,0.10699 0.16815,0.10699 0.26063,0.30313 0.0925,0.19617 0.0925,0.46365 0,0.0624 -0.0336,0.16049 -0.0252,0.0892 -0.0673,0.15155 l 0.30267,-0.41012 h -2.38768 v 0.74893 h 3.53108 q 0.0168,-0.0624 0.0168,-0.15157 0,-0.0981 0,-0.19615 0,-0.65978 -0.24381,-1.12341 -0.24382,-0.46362 -0.70622,-0.70435 -0.4624,-0.24966 -1.13499,-0.24966 -0.67259,0 -1.16862,0.25857 -0.48763,0.25857 -0.74825,0.74003 -0.26063,0.48146 -0.26063,1.14123 0,0.65088 0.26903,1.13234 0.26904,0.48146 0.75666,0.74893 0.49604,0.25855 1.16862,0.25855 z m 5.80017,-7.04358 h -1.26951 v 6.95443 h 1.26951 z m 3.16116,4.90376 q 0,-0.69545 -0.26904,-1.16798 -0.26062,-0.47255 -0.68099,-0.72219 -0.41196,-0.24966 -0.89118,-0.24966 -0.47922,0 -0.85755,0.25857 -0.37833,0.25857 -0.59692,0.74003 -0.21859,0.47253 -0.21859,1.14123 0,0.65978 0.21859,1.14124 0.21859,0.48146 0.59692,0.74003 0.37833,0.25855 0.85755,0.25855 0.47922,0 0.89118,-0.24964 0.42037,-0.24964 0.68099,-0.72219 0.26904,-0.48146 0.26904,-1.16799 z m -1.33677,0 q 0,0.32097 -0.12611,0.5617 -0.12611,0.23182 -0.33629,0.36556 -0.21019,0.12483 -0.46241,0.12483 -0.21859,0 -0.42877,-0.12483 -0.20178,-0.12483 -0.33629,-0.35663 -0.13452,-0.24073 -0.13452,-0.57063 0,-0.32989 0.13452,-0.56171 0.13451,-0.24073 0.33629,-0.36554 0.21018,-0.12483 0.42877,-0.12483 0.25222,0 0.46241,0.13374 0.21018,0.12483 0.33629,0.36556 0.12611,0.2318 0.12611,0.55278 z m 5.11917,0.4458 v -2.49645 h -1.32836 v 2.6391 q 0,0.73112 0.32789,1.15015 0.33629,0.41015 1.05932,0.41015 0.42878,0 0.71463,-0.18723 0.28585,-0.19617 0.4624,-0.52605 v 0.6152 h 1.26951 v -4.10132 h -1.26951 v 2.49645 q 0,0.24073 -0.0841,0.41013 -0.0841,0.16941 -0.23541,0.25857 -0.14292,0.0891 -0.35311,0.0891 -0.31107,0 -0.43718,-0.19614 -0.12611,-0.20508 -0.12611,-0.56171 z m 5.40502,0.1159 -0.52966,0.89161 q 0.26063,0.21398 0.5633,0.39229 0.30266,0.16941 0.65577,0.26747 0.36151,0.10699 0.78188,0.10699 0.6894,0 1.06773,-0.32988 0.38674,-0.33881 0.38674,-0.99857 0,-0.38341 -0.15974,-0.6152 -0.15133,-0.23183 -0.41196,-0.3834 -0.25222,-0.15156 -0.55488,-0.26748 -0.28585,-0.1159 -0.48763,-0.18724 -0.19337,-0.0802 -0.30266,-0.16939 -0.10089,-0.0891 -0.10089,-0.22289 0,-0.11593 0.0841,-0.18724 0.0925,-0.0713 0.26904,-0.0713 0.26062,0 0.57169,0.16048 0.31108,0.15158 0.55489,0.39231 l 0.45399,-0.87377 q -0.22699,-0.17832 -0.48762,-0.31206 -0.25222,-0.13374 -0.54648,-0.21398 -0.28585,-0.0803 -0.62214,-0.0803 -0.42037,0 -0.74825,0.13374 -0.31948,0.13374 -0.51285,0.39231 -0.18496,0.25857 -0.18496,0.63304 0,0.39228 0.15974,0.64195 0.15974,0.24963 0.40355,0.40121 0.25222,0.14265 0.52966,0.24964 0.31107,0.0981 0.48763,0.18724 0.18496,0.0892 0.26063,0.18723 0.0757,0.0892 0.0757,0.22289 0,0.14267 -0.0925,0.23182 -0.0925,0.0892 -0.28585,0.0892 -0.13452,0 -0.31948,-0.0535 -0.18496,-0.0624 -0.42877,-0.20505 -0.23541,-0.15158 -0.52967,-0.41015 z"
     id="text3"
     style="font-weight:bold;font-size:37.3333px;font-family:Jost;-inkscape-font-specification:'Jost Bold';text-align:center;letter-spacing:7.5px;word-spacing:0.1px;white-space:pre;fill:#000000;stroke:none;stroke-width:0.232272"
     aria-label="bikeworcester.org.uk/bikebus" />
  <path
     d="m 147.4633,226.29919 c 0,-4.16714 2.01476,-7.83918 5.06671,-9.97943 1.78058,-1.24866 3.91418,-1.97593 6.20668,-1.97593 6.22197,0 11.27339,5.35701 11.27339,11.95536 0,6.59834 -5.05142,11.95537 -11.27339,11.95537 -6.22196,0 -11.27339,-5.35703 -11.27339,-11.95537 z m 14.66893,1.27136 c -0.18821,0.24546 -0.29212,0.55338 -0.29212,0.87262 v 0 0 0 0 c 0,0.36881 0.13865,0.72249 0.38446,0.98317 0.24582,0.26069 0.57933,0.40772 0.92709,0.40772 0.34775,0 0.68126,-0.14703 0.92708,-0.40772 0.24583,-0.26068 0.38446,-0.61436 0.38446,-0.98317 0,-0.36878 -0.13863,-0.72248 -0.38446,-0.98316 -0.24582,-0.26068 -0.57933,-0.40772 -0.92708,-0.40772 -0.003,0 -0.004,0 -0.007,1.3e-4 -0.0586,-0.12172 -0.11623,-0.24394 -0.17312,-0.36652 -0.10023,-0.21598 -0.19688,-0.43388 -0.28955,-0.65375 0.15302,-0.0356 0.31041,-0.0528 0.46943,-0.0528 0.61605,0 1.20737,0.25991 1.64281,0.72168 0.43543,0.46178 0.6805,1.08888 0.6805,1.7422 0,0.65331 -0.24507,1.28041 -0.6805,1.74218 -0.43544,0.46178 -1.02676,0.72167 -1.64281,0.72167 -0.61606,0 -1.20738,-0.25989 -1.64282,-0.72167 -0.43543,-0.46177 -0.68049,-1.08887 -0.68049,-1.74218 v 0 0 0 0 0 0 c 0,-0.65332 0.24506,-1.28042 0.68049,-1.7422 0.051,-0.0541 0.104,-0.10526 0.16003,-0.15205 0.0943,0.22306 0.19258,0.44398 0.29415,0.66309 0.0557,0.11991 0.11216,0.2394 0.16921,0.35853 z m -9.8477,1.66743 c 0,-0.4427 0.16562,-0.86714 0.46091,-1.18027 0.29529,-0.31318 0.69549,-0.48881 1.11294,-0.48881 0.41744,0 0.81765,0.17563 1.11294,0.48881 0.29528,0.31313 0.46092,0.73757 0.46092,1.18027 0,0.44269 -0.16564,0.86711 -0.46092,1.18026 -0.29529,0.31315 -0.6955,0.48879 -1.11294,0.48879 -0.41745,0 -0.81765,-0.17564 -1.11294,-0.48879 -0.29529,-0.31315 -0.46091,-0.73757 -0.46091,-1.18026 z m 7.09514,-8.60952 c 0.22384,-0.0184 0.4477,-0.0312 0.67222,-0.0387 0.13865,-0.005 0.2773,-0.004 0.41597,0.004 0.048,0.004 0.0952,0.006 0.14314,0.0112 0.0329,0.004 0.066,0.008 0.0989,0.0135 0.008,5.7e-4 0.015,0.003 0.0217,0.004 0.006,0.0349 0.0105,0.07 0.0135,0.10569 0.0128,0.13115 0.0187,0.26309 0.018,0.39581 -5.4e-4,0.12479 -0.003,0.25037 -0.009,0.37595 -0.006,0.1359 -0.0135,0.27103 -0.021,0.40613 -0.009,0.14386 -0.0157,0.28772 -0.0217,0.43159 -0.007,0.14703 -0.0105,0.29407 -0.0105,0.44189 -5.4e-4,0.15816 0.005,0.31713 0.0172,0.47528 0.009,0.11778 0.0242,0.23462 0.0447,0.35061 -0.2225,0.0238 -0.44453,0.0536 -0.66601,0.0881 -0.34701,0.0541 -0.69175,0.12319 -1.03352,0.20665 -0.31702,0.0771 -0.6303,0.16929 -0.93906,0.27741 -0.2893,0.10092 -0.57259,0.21776 -0.85063,0.34969 -0.33874,0.16042 -0.66564,0.34692 -0.97802,0.558 v 0 l -0.44947,-0.5608 c 0.003,-3.9e-4 0.006,-5.8e-4 0.009,-9e-4 0.0705,-0.0104 0.1409,-0.0222 0.21136,-0.0357 0.051,-0.0104 0.10042,-0.0238 0.14987,-0.0405 0.024,-0.009 0.0472,-0.0183 0.0712,-0.0286 0.0284,-0.0127 0.0562,-0.027 0.0825,-0.0437 0.0622,-0.0382 0.11766,-0.0882 0.16337,-0.14625 0.087,-0.10969 0.13491,-0.24798 0.13566,-0.39025 5.3e-4,-0.13431 -0.0397,-0.26465 -0.11465,-0.37276 -0.0435,-0.062 -0.0967,-0.11524 -0.15739,-0.15816 -0.027,-0.019 -0.0547,-0.0357 -0.0839,-0.0509 -0.024,-0.0119 -0.048,-0.023 -0.0735,-0.0326 -0.0615,-0.0255 -0.12517,-0.0445 -0.19037,-0.0588 -0.0997,-0.0215 -0.2001,-0.0397 -0.30128,-0.0549 -0.0922,-0.0135 -0.18438,-0.0255 -0.27654,-0.0358 -0.13941,-0.0159 -0.27957,-0.0294 -0.41972,-0.0421 -0.21959,-0.0191 -0.43917,-0.0366 -0.65876,-0.0509 -0.344,-0.0223 -0.68725,-0.043 -1.03201,-0.0604 -0.1529,-0.008 -0.30352,0.0509 -0.41445,0.16372 -0.11165,0.11209 -0.17463,0.26865 -0.17463,0.43159 v 0.55635 c 0,0.16135 0.0614,0.31553 0.17014,0.42761 0.10866,0.11206 0.25631,0.17247 0.40769,0.1685 0.36817,-0.0116 0.73632,-0.0253 1.10404,-0.0414 v 0 l 0.94191,1.17515 c -0.24185,0.22547 -0.47007,0.46715 -0.68339,0.72329 v 0 0 c -0.26787,-0.0967 -0.55512,-0.14824 -0.85367,-0.14824 -1.4891,0 -2.69804,1.28209 -2.69804,2.86128 v 0 0 c 0,1.57918 1.20894,2.86125 2.69804,2.86125 1.4891,0 2.69806,-1.28207 2.69806,-2.86125 0,-0.82436 -0.32943,-1.56775 -0.85658,-2.0897 0.24234,-0.27518 0.50664,-0.52783 0.78912,-0.75647 0.38598,-0.30758 0.80268,-0.56829 1.2441,-0.77732 0.24207,-0.11525 0.49015,-0.21696 0.74272,-0.30521 0.27653,-0.0962 0.5561,-0.17961 0.83939,-0.24795 0.31252,-0.0763 0.62805,-0.13989 0.94506,-0.18917 0.25417,-0.0395 0.50869,-0.0724 0.76389,-0.0989 v 0 c 0.0344,0.11878 0.0702,0.23754 0.10849,0.35565 0.0306,0.0945 0.0622,0.18832 0.0947,0.28198 -0.91873,0.65652 -1.52312,1.77016 -1.52312,3.03232 v 0 0 0 0 0 0 c 0,2.01784 1.54477,3.65605 3.44751,3.65605 1.90273,0 3.44751,-1.63821 3.44751,-3.65605 0,-2.01784 -1.54478,-3.65608 -3.44751,-3.65608 -0.31113,0 -0.61267,0.0438 -0.89928,0.12637 -0.019,-0.0571 -0.0379,-0.11432 -0.0563,-0.17164 -0.0382,-0.11685 -0.0742,-0.23528 -0.10794,-0.35451 -0.0457,-0.16133 -0.0869,-0.32427 -0.1229,-0.48801 -0.0307,-0.13827 -0.057,-0.27737 -0.0772,-0.41805 -0.024,-0.1073 -0.0405,-0.21618 -0.0494,-0.32586 -0.01,-0.12399 -0.0143,-0.24798 -0.0135,-0.37276 0,-0.13034 0.003,-0.25988 0.009,-0.38946 0.006,-0.13828 0.0128,-0.27659 0.021,-0.41487 0.009,-0.14068 0.0157,-0.28216 0.0217,-0.42283 0.006,-0.14227 0.01,-0.28454 0.0105,-0.42682 5.5e-4,-0.17405 -0.007,-0.3473 -0.0232,-0.51979 -0.0165,-0.17406 -0.048,-0.34573 -0.0952,-0.51344 -0.0195,-0.0723 -0.0495,-0.14147 -0.0877,-0.20426 -0.0368,-0.0604 -0.081,-0.11444 -0.13116,-0.16294 -0.0382,-0.0366 -0.0794,-0.0691 -0.12366,-0.0977 -0.0412,-0.027 -0.0847,-0.0509 -0.12892,-0.0716 -0.0622,-0.0286 -0.1259,-0.0516 -0.19184,-0.07 -0.075,-0.0207 -0.15066,-0.0374 -0.2271,-0.0493 -0.0532,-0.009 -0.10716,-0.016 -0.16113,-0.0215 -0.0644,-0.006 -0.12818,-0.0112 -0.19262,-0.0152 -0.16861,-0.009 -0.33875,-0.0104 -0.50813,-0.005 -0.21388,0.006 -0.42776,0.0185 -0.64165,0.0348 -0.0102,-0.0118 -0.0207,-0.0234 -0.0314,-0.0348 -0.15886,-0.16851 -0.37471,-0.26308 -0.59955,-0.26308 h -1.37749 c -0.22486,0 -0.4407,0.0946 -0.59959,0.26308 -0.15888,0.1685 -0.24805,0.39741 -0.24805,0.63504 0,0.23843 0.0892,0.46733 0.24805,0.63583 0.15889,0.16849 0.37473,0.26309 0.59959,0.26309 h 1.37749 c 0.22484,0 0.44069,-0.0946 0.59955,-0.26309 0.0124,-0.0133 0.0245,-0.0268 0.036,-0.0408 z"
     fill-rule="evenodd"
     fill="#000000"
     id="path1-0"
     style="isolation:isolate;fill:#000000;fill-rule:nonzero;stroke-width:0.0226745" />
  <path
     d="m 17.373457,226.29919 c 0,-4.16714 2.014761,-7.83918 5.066708,-9.97943 1.780579,-1.24866 3.914175,-1.97593 6.206678,-1.97593 6.221973,0 11.273395,5.35701 11.273395,11.95536 0,6.59834 -5.051422,11.95537 -11.273395,11.95537 -6.221964,0 -11.273386,-5.35703 -11.273386,-11.95537 z m 14.668929,1.27136 c -0.188212,0.24546 -0.292119,0.55338 -0.292119,0.87262 v 0 0 0 0 c 0,0.36881 0.138651,0.72249 0.384459,0.98317 0.245817,0.26069 0.579326,0.40772 0.927084,0.40772 0.347757,0 0.681267,-0.14703 0.927084,-0.40772 0.245834,-0.26068 0.384458,-0.61436 0.384458,-0.98317 0,-0.36878 -0.138624,-0.72248 -0.384458,-0.98316 -0.245817,-0.26068 -0.579327,-0.40772 -0.927084,-0.40772 -0.0026,0 -0.0043,0 -0.0068,1.3e-4 -0.05856,-0.12172 -0.116231,-0.24394 -0.173113,-0.36652 -0.100238,-0.21598 -0.196885,-0.43388 -0.289557,-0.65375 0.153026,-0.0356 0.31041,-0.0528 0.469428,-0.0528 0.616053,0 1.207372,0.25991 1.642813,0.72168 0.435434,0.46178 0.680501,1.08888 0.680501,1.7422 0,0.65331 -0.245067,1.28041 -0.680501,1.74218 -0.435441,0.46178 -1.02676,0.72167 -1.642813,0.72167 -0.616053,0 -1.207372,-0.25989 -1.642814,-0.72167 -0.435433,-0.46177 -0.680492,-1.08887 -0.680492,-1.74218 v 0 0 0 0 0 0 c 0,-0.65332 0.245059,-1.28042 0.680492,-1.7422 0.05098,-0.0541 0.104001,-0.10526 0.160031,-0.15205 0.09435,0.22306 0.192578,0.44398 0.294145,0.66309 0.05575,0.11991 0.112162,0.2394 0.169214,0.35853 z m -9.847706,1.66743 c 0,-0.4427 0.165623,-0.86714 0.460916,-1.18027 0.295285,-0.31318 0.69549,-0.48881 1.112939,-0.48881 0.41744,0 0.817644,0.17563 1.112938,0.48881 0.295285,0.31313 0.460925,0.73757 0.460925,1.18027 0,0.44269 -0.16564,0.86711 -0.460925,1.18026 -0.295294,0.31315 -0.695498,0.48879 -1.112938,0.48879 -0.417449,0 -0.817654,-0.17564 -1.112939,-0.48879 -0.295293,-0.31315 -0.460916,-0.73757 -0.460916,-1.18026 z m 7.095146,-8.60952 c 0.223841,-0.0184 0.447698,-0.0312 0.67222,-0.0387 0.13865,-0.005 0.2773,-0.004 0.415967,0.004 0.048,0.004 0.09517,0.006 0.143145,0.0112 0.03294,0.004 0.06596,0.008 0.09893,0.0135 0.0077,5.7e-4 0.01498,0.003 0.0217,0.004 0.006,0.0349 0.01047,0.07 0.01353,0.10569 0.01277,0.13115 0.01872,0.26309 0.01796,0.39581 -5.36e-4,0.12479 -0.0034,0.25037 -0.009,0.37595 -0.006,0.1359 -0.01353,0.27103 -0.02102,0.40613 -0.0085,0.14386 -0.01575,0.28772 -0.0217,0.43159 -0.0068,0.14703 -0.01047,0.29407 -0.01047,0.44189 -5.45e-4,0.15816 0.0051,0.31713 0.01719,0.47528 0.0092,0.11778 0.02417,0.23462 0.04469,0.35061 -0.222496,0.0238 -0.444524,0.0536 -0.666006,0.0881 -0.347009,0.0541 -0.691753,0.12319 -1.033519,0.20665 -0.317023,0.0771 -0.630301,0.16929 -0.939059,0.27741 -0.289302,0.10092 -0.572594,0.21776 -0.850635,0.34969 -0.338736,0.16042 -0.66564,0.34692 -0.978016,0.558 v 0 l -0.449477,-0.5608 c 0.0026,-3.9e-4 0.006,-5.8e-4 0.0088,-9e-4 0.07047,-0.0104 0.140897,-0.0222 0.211354,-0.0357 0.05098,-0.0104 0.100426,-0.0238 0.149877,-0.0405 0.024,-0.009 0.04724,-0.0183 0.07124,-0.0286 0.02843,-0.0127 0.05618,-0.027 0.08248,-0.0437 0.06222,-0.0382 0.117661,-0.0882 0.163376,-0.14625 0.08695,-0.10969 0.134905,-0.24798 0.135654,-0.39025 5.36e-4,-0.13431 -0.03975,-0.26465 -0.114648,-0.37276 -0.04349,-0.062 -0.09668,-0.11524 -0.157392,-0.15816 -0.02698,-0.019 -0.05473,-0.0357 -0.08392,-0.0509 -0.024,-0.0119 -0.048,-0.023 -0.07345,-0.0326 -0.06145,-0.0255 -0.125176,-0.0445 -0.190374,-0.0588 -0.09968,-0.0215 -0.200102,-0.0397 -0.301276,-0.0549 -0.09219,-0.0135 -0.184382,-0.0255 -0.276543,-0.0358 -0.139408,-0.0159 -0.279573,-0.0294 -0.419722,-0.0421 -0.219584,-0.0191 -0.439169,-0.0366 -0.658763,-0.0509 -0.343995,-0.0223 -0.687242,-0.043 -1.032003,-0.0604 -0.152898,-0.008 -0.303524,0.0509 -0.414453,0.16372 -0.111652,0.11209 -0.174628,0.26865 -0.174628,0.43159 v 0.55635 c 0,0.16135 0.06145,0.31553 0.170143,0.42761 0.108656,0.11206 0.256311,0.17247 0.407686,0.1685 0.368168,-0.0116 0.736318,-0.0253 1.104044,-0.0414 v 0 l 0.941902,1.17515 c -0.241851,0.22547 -0.470066,0.46715 -0.683387,0.72329 v 0 0 c -0.267869,-0.0967 -0.55512,-0.14824 -0.853664,-0.14824 -1.489107,0 -2.698045,1.28209 -2.698045,2.86128 v 0 0 c 0,1.57918 1.208938,2.86125 2.698045,2.86125 1.489098,0 2.698053,-1.28207 2.698053,-2.86125 0,-0.82436 -0.329433,-1.56775 -0.856576,-2.0897 0.242336,-0.27518 0.506639,-0.52783 0.789115,-0.75647 0.385982,-0.30758 0.802681,-0.56829 1.244107,-0.77732 0.242063,-0.11525 0.490144,-0.21696 0.742719,-0.30521 0.276526,-0.0962 0.556099,-0.17961 0.839382,-0.24795 0.312529,-0.0763 0.628054,-0.13989 0.945069,-0.18917 0.254166,-0.0395 0.50869,-0.0724 0.763887,-0.0989 v 0 c 0.03439,0.11878 0.07022,0.23754 0.108486,0.35565 0.03064,0.0945 0.06222,0.18832 0.09465,0.28198 -0.918735,0.65652 -1.523118,1.77016 -1.523118,3.03232 v 0 0 0 0 0 0 c 0,2.01784 1.544762,3.65605 3.447504,3.65605 1.902734,0 3.447514,-1.63821 3.447514,-3.65605 0,-2.01784 -1.54478,-3.65608 -3.447514,-3.65608 -0.311124,0 -0.612665,0.0438 -0.899277,0.12637 -0.01898,-0.0571 -0.03787,-0.11432 -0.05626,-0.17164 -0.03822,-0.11685 -0.07422,-0.23528 -0.107941,-0.35451 -0.04571,-0.16133 -0.08693,-0.32427 -0.122904,-0.48801 -0.03073,-0.13827 -0.05694,-0.27737 -0.0772,-0.41805 -0.024,-0.1073 -0.04051,-0.21618 -0.04945,-0.32586 -0.0098,-0.12399 -0.0143,-0.24798 -0.01353,-0.37276 0,-0.13034 0.0034,-0.25988 0.009,-0.38946 0.006,-0.13828 0.01277,-0.27659 0.02102,-0.41487 0.0085,-0.14068 0.01575,-0.28216 0.0217,-0.42283 0.006,-0.14227 0.0097,-0.28454 0.01047,-0.42682 5.45e-4,-0.17405 -0.0068,-0.3473 -0.02324,-0.51979 -0.01651,-0.17406 -0.048,-0.34573 -0.09518,-0.51344 -0.01949,-0.0723 -0.04945,-0.14147 -0.08768,-0.20426 -0.03677,-0.0604 -0.08094,-0.11444 -0.13116,-0.16294 -0.03822,-0.0366 -0.07941,-0.0691 -0.123662,-0.0977 -0.04119,-0.027 -0.08469,-0.0509 -0.128913,-0.0716 -0.06222,-0.0286 -0.1259,-0.0516 -0.191846,-0.07 -0.07499,-0.0207 -0.150651,-0.0374 -0.227101,-0.0493 -0.0532,-0.009 -0.107158,-0.016 -0.16112,-0.0215 -0.06443,-0.006 -0.128181,-0.0112 -0.192621,-0.0152 -0.168618,-0.009 -0.338752,-0.0104 -0.508137,-0.005 -0.213874,0.006 -0.427756,0.0185 -0.641647,0.0348 -0.01021,-0.0118 -0.02068,-0.0234 -0.03141,-0.0348 -0.158864,-0.16851 -0.374713,-0.26308 -0.599557,-0.26308 H 27.2767 c -0.224853,0 -0.440693,0.0946 -0.599583,0.26308 -0.158882,0.1685 -0.248056,0.39741 -0.248056,0.63504 0,0.23843 0.08917,0.46733 0.248056,0.63583 0.15889,0.16849 0.37473,0.26309 0.599583,0.26309 h 1.377489 c 0.224844,0 0.440693,-0.0946 0.599557,-0.26309 0.01243,-0.0133 0.02451,-0.0268 0.036,-0.0408 z"
     fill-rule="evenodd"
     fill="#000000"
     id="path1-0-9"
     style="isolation:isolate;fill:#000000;fill-rule:nonzero;stroke-width:0.0226745" />
</svg>
