<?xml version="1.0" encoding="UTF-8" standalone="no"?><!-- Generator: Gravit.io --><svg xmlns="http://www.w3.org/2000/svg" xmlns:xlink="http://www.w3.org/1999/xlink" style="isolation:isolate" viewBox="0 0 1024 880.281" width="1024pt" height="880.281pt"><path d=" M 0 0 L 0 880.281 L 1024 880.281 L 1024 0 L 0 0 Z  M 752.686 520.982 Q 778.682 520.984 797.276 528.896 Q 815.869 536.807 827.881 548.675 Q 839.893 560.543 846.147 572.409 L 792.505 602.081 Q 787.239 593.839 780.823 589.06 Q 774.405 584.278 767.824 581.97 Q 761.242 579.662 754.988 579.662 Q 750.054 579.662 746.103 580.818 Q 742.153 581.971 740.015 584.278 Q 737.876 586.586 737.876 590.54 Q 737.876 595.815 741.826 599.607 Q 745.777 603.398 752.52 606.365 Q 759.266 609.332 768.152 612.299 Q 777.036 615.266 787.239 618.893 Q 801.061 623.838 811.92 630.596 Q 822.78 637.353 830.515 646.254 C 835.625 652.111 839.588 658.877 842.197 666.199 Q 846.147 677.242 846.147 690.759 Q 846.147 709.878 838.247 724.548 Q 830.35 739.221 817.02 748.781 Q 803.693 758.34 786.91 763.285 Q 770.128 768.23 752.357 768.23 Q 727.675 768.229 706.45 760.151 Q 685.223 752.076 669.755 737.902 Q 654.289 723.725 646.392 706.254 L 695.094 670.648 Q 701.677 682.188 710.234 690.593 Q 718.787 699.001 728.825 703.285 Q 738.863 707.573 749.065 707.573 Q 754.988 707.573 759.597 706.088 Q 764.205 704.606 766.836 701.309 Q 769.467 698.012 769.467 693.067 Q 769.467 688.452 766.341 685.154 Q 763.216 681.857 754.002 677.572 Q 744.786 673.286 726.028 666.033 Q 717.804 662.739 707.107 657.135 Q 696.413 651.53 686.705 642.628 Q 676.996 633.728 670.577 620.87 Q 664.164 608.016 664.164 590.54 Q 664.164 567.793 676.339 552.302 Q 688.515 536.807 708.589 528.896 Q 728.664 520.984 752.686 520.982 L 752.686 520.982 L 752.686 520.982 L 752.686 520.982 Z  M 412.412 527.578 L 484.81 527.578 L 484.81 675.926 Q 484.81 685.155 487.936 692.242 Q 491.062 699.33 497.478 703.285 Q 503.897 707.243 513.771 707.244 Q 523.643 707.244 530.06 703.285 Q 536.476 699.33 539.605 692.244 Q 542.728 685.155 542.728 675.924 L 542.728 527.579 L 615.129 527.579 L 615.129 682.517 Q 615.129 707.241 607.065 724.22 Q 599.002 741.196 584.852 751.581 Q 570.702 761.966 552.439 766.746 Q 534.174 771.524 513.771 771.526 Q 493.367 771.526 475.101 766.746 Q 456.839 761.966 442.689 751.581 Q 428.537 741.196 420.476 724.22 Q 412.412 707.243 412.412 682.518 L 412.412 527.578 L 412.412 527.578 L 412.412 527.578 L 412.412 527.578 Z  M 246.881 581.97 L 246.881 618.233 L 264.982 618.233 Q 273.209 618.233 278.475 615.929 Q 283.742 613.618 286.374 609.333 Q 289.007 605.046 289.005 599.112 Q 289.005 590.212 283.247 586.094 Q 277.487 581.971 264.982 581.971 L 246.881 581.97 L 246.881 581.97 L 246.881 581.97 L 246.881 581.97 L 246.881 581.97 Z  M 246.881 666.033 L 246.881 703.946 L 271.562 703.946 Q 279.788 703.946 286.7 702.628 Q 293.612 701.308 297.891 697.023 Q 302.17 692.738 302.168 683.506 Q 302.168 677.901 299.699 674.441 Q 297.231 670.978 292.954 669.165 Q 288.675 667.352 283.247 666.694 Q 277.817 666.033 271.562 666.033 L 246.881 666.033 L 246.881 666.033 L 246.881 666.033 L 246.881 666.033 L 246.881 666.033 Z  M 357.989 118.376 L 357.989 346.916 L 431.321 346.916 L 431.321 118.376 L 357.989 118.376 L 357.989 118.376 L 357.989 118.376 L 357.989 118.376 L 357.989 118.376 L 357.989 118.376 Z  M 476.948 118.376 L 476.948 346.916 L 551.908 346.916 L 551.908 254.275 L 623.608 346.915 L 710.303 346.915 L 616.44 225.462 L 705.413 118.374 L 621.979 118.374 L 551.908 202.962 L 551.908 118.374 L 476.948 118.376 L 476.948 118.376 L 476.948 118.376 L 476.948 118.376 L 476.948 118.376 L 476.948 118.376 Z  M 731.486 118.376 L 731.486 346.916 L 896.071 346.916 L 896.071 289.779 L 799.926 289.779 L 799.926 257.132 L 889.553 257.132 L 889.553 201.628 L 799.926 201.628 L 799.926 175.511 L 896.071 175.511 L 896.071 118.376 L 731.486 118.376 L 731.486 118.376 L 731.486 118.376 L 731.486 118.376 L 731.486 118.376 Z  M 192.426 172.245 L 210.353 172.245 Q 222.738 172.245 228.44 176.327 Q 234.144 180.409 234.144 189.223 Q 234.144 195.103 231.537 199.345 Q 228.93 203.589 223.716 205.874 Q 218.501 208.159 210.353 208.16 L 192.426 208.16 L 192.426 172.245 L 192.426 172.245 L 192.426 172.245 L 192.426 172.245 L 192.426 172.245 L 192.426 172.245 Z  M 192.426 255.5 L 216.871 255.5 Q 223.062 255.499 228.44 256.152 Q 233.817 256.806 238.056 258.603 Q 242.295 260.401 244.737 263.827 Q 247.183 267.253 247.181 272.803 Q 247.18 281.946 242.943 286.189 Q 238.708 290.433 231.863 291.74 Q 225.019 293.045 216.871 293.045 L 192.426 293.045 L 192.426 255.5 L 192.426 255.5 L 192.426 255.5 L 192.426 255.5 L 192.426 255.5 L 192.426 255.5 Z  M 174.484 527.578 L 274.855 527.578 Q 293.939 527.578 310.395 531.367 Q 326.849 535.158 339.026 542.575 Q 351.204 549.993 357.947 561.036 Q 364.692 572.08 364.694 586.915 Q 364.694 606.365 352.846 620.049 C 347.43 626.305 340.663 631.5 332.613 635.688 C 337.353 637.589 341.92 639.768 346.266 642.298 Q 360.417 650.543 369.136 663.562 Q 377.859 676.582 377.857 695.044 Q 377.857 718.123 366.505 731.967 Q 355.152 745.811 333.596 752.078 Q 312.041 758.34 281.436 758.34 L 174.484 758.34 L 174.484 527.578 L 174.484 527.578 L 174.484 527.578 L 174.484 527.578 Z  M 120.727 118.376 L 120.727 346.916 L 226.65 346.916 Q 256.958 346.915 278.306 340.71 Q 299.653 334.506 310.899 320.795 Q 322.14 307.083 322.14 284.229 Q 322.14 265.945 313.503 253.051 Q 304.866 240.156 290.854 231.995 C 286.549 229.488 282.027 227.328 277.332 225.444 C 285.304 221.297 292.004 216.152 297.371 209.955 Q 309.105 196.407 309.107 177.143 Q 309.107 162.451 302.424 151.513 Q 295.741 140.575 283.682 133.232 Q 271.624 125.886 255.329 122.132 Q 239.033 118.377 220.129 118.376 L 120.727 118.376 L 120.727 118.376 L 120.727 118.376 L 120.727 118.376 L 120.727 118.376 Z  M 42.829 46.744 L 976.364 46.744 L 976.364 418.548 L 42.829 418.548 L 42.829 46.744 L 42.829 46.744 L 42.829 46.744 Z " fill-rule="evenodd" fill="rgb(0,0,0)"/></svg>