<?xml version="1.0" encoding="UTF-8" standalone="no"?>
<!-- Generator: Gravit.io -->

<svg
   style="isolation:isolate"
   viewBox="0 0 1024 259"
   width="1024pt"
   height="259pt"
   version="1.1"
   id="svg111"
   xmlns="http://www.w3.org/2000/svg"
   xmlns:svg="http://www.w3.org/2000/svg">
  <defs
     id="defs115" />
  <path
     id="path103"
     fill="#000000"
     style="stroke-width:1.33333;"
     d="M 0 0 L 0 345.33398 L 1365.334 345.33398 L 1365.334 0 L 0 0 z M 31.787109 34.693359 L 724.64453 34.693359 L 724.64453 310.64062 L 31.787109 310.64062 L 31.787109 34.693359 z M 1213.5273 79.691406 C 1226.3905 79.691406 1237.4211 81.649786 1246.6211 85.564453 C 1255.8211 89.47912 1263.3928 94.372143 1269.3359 100.24414 C 1275.279 106.11614 1279.7984 111.98738 1282.8926 117.85938 L 1243.0801 139.88086 C 1240.4747 135.80264 1237.5853 132.58213 1234.4102 130.2168 C 1231.235 127.85146 1228.0186 126.09641 1224.7617 124.95508 C 1221.5057 123.81286 1218.3306 123.24219 1215.2363 123.24219 C 1212.7946 123.24219 1210.5953 123.52805 1208.6406 124.09961 C 1206.6868 124.67028 1205.1808 125.52664 1204.123 126.66797 C 1203.0644 127.81019 1202.5352 129.35907 1202.5352 131.31641 C 1202.5352 133.92618 1203.513 136.16937 1205.4668 138.04492 C 1207.4206 139.92137 1210.0665 141.59299 1213.4043 143.06055 C 1216.743 144.52899 1220.6094 145.99729 1225.0059 147.46484 C 1229.4014 148.93329 1234.1239 150.5656 1239.1719 152.35938 C 1246.011 154.80649 1252.1169 157.70092 1257.4902 161.04492 C 1262.8636 164.38803 1267.4643 168.26157 1271.291 172.66602 C 1275.1168 177.07046 1278.0063 182.00475 1279.9609 187.46875 C 1281.9147 192.93275 1282.8926 199.00927 1282.8926 205.69727 C 1282.8926 215.15771 1280.9377 223.51672 1277.0293 230.77539 C 1273.1217 238.03406 1267.8701 244.0291 1261.2754 248.75977 C 1254.6807 253.48954 1247.2317 257.07828 1238.9277 259.52539 C 1230.6237 261.97161 1222.0761 263.19531 1213.2832 263.19531 C 1201.0708 263.19531 1189.7132 261.19566 1179.2109 257.19922 C 1168.7087 253.20366 1159.6299 247.69977 1151.9766 240.68555 C 1144.3241 233.67132 1138.5452 225.84171 1134.6367 217.19727 L 1170.7832 190.77148 C 1174.0401 196.48082 1177.7858 201.41511 1182.0195 205.57422 C 1186.2524 209.73422 1190.8521 212.87414 1195.8184 214.99414 C 1200.7846 217.11503 1205.7918 218.17578 1210.8398 218.17578 C 1213.7705 218.17578 1216.3764 217.80844 1218.6562 217.07422 C 1220.9355 216.34 1222.7262 215.15845 1224.0293 213.52734 C 1225.3315 211.89623 1225.9824 209.85727 1225.9824 207.41016 C 1225.9824 205.1266 1225.2088 203.16822 1223.6621 201.53711 C 1222.1154 199.906 1219.063 198.03016 1214.5039 195.91016 C 1209.9448 193.78927 1203.024 190.93415 1193.7422 187.3457 C 1189.672 185.71459 1184.9917 183.51463 1179.6992 180.74219 C 1174.4077 177.96885 1169.3602 174.37905 1164.5566 169.97461 C 1159.7531 165.57105 1155.763 160.18795 1152.5879 153.82617 C 1149.4128 147.46528 1147.8262 139.96174 1147.8262 131.31641 C 1147.8262 120.0613 1150.8384 110.60132 1156.8633 102.93555 C 1162.8882 95.268874 1170.8664 89.47912 1180.7988 85.564453 C 1190.7313 81.649786 1201.6411 79.691406 1213.5273 79.691406 z M 784.39258 84.585938 L 858.88672 84.585938 C 868.33027 84.585938 877.12234 85.52288 885.26367 87.398438 C 893.40501 89.273993 900.48878 92.046575 906.51367 95.716797 C 912.53856 99.387019 917.21886 103.95397 920.55664 109.41797 C 923.89442 114.88286 925.56445 121.28544 925.56445 128.625 C 925.56445 138.249 922.63282 146.44702 916.77148 153.2168 C 912.75016 157.86007 907.72857 161.71601 901.75391 164.82422 C 905.2724 166.23536 908.66166 167.85202 911.88672 169.73047 C 918.8885 173.80869 924.54666 179.06905 928.86133 185.51172 C 933.17688 191.95439 935.33398 199.74273 935.33398 208.87695 C 935.33398 220.29562 932.52598 229.43058 926.9082 236.28125 C 921.29043 243.13192 913.14925 248.10748 902.48438 251.20703 C 891.81859 254.3057 878.9146 255.85547 863.77148 255.85547 L 784.39258 255.85547 L 784.39258 84.585938 z M 960.98047 84.585938 L 1014.7129 84.585938 L 1014.7129 194.6875 C 1014.7129 199.25461 1015.4865 203.29127 1017.0332 206.79883 C 1018.5799 210.30549 1020.9401 213.03681 1024.1152 214.99414 C 1027.2903 216.95147 1031.3217 217.93164 1036.207 217.93164 C 1041.0915 217.93164 1045.1218 216.95147 1048.2969 214.99414 C 1051.472 213.03681 1053.8333 210.30549 1055.3809 206.79883 C 1056.9275 203.29127 1057.6992 199.25461 1057.6992 194.6875 L 1057.6992 84.585938 L 1111.4336 84.585938 L 1111.4336 199.58008 C 1111.4336 211.81386 1109.4386 222.13036 1105.4492 230.53125 C 1101.4599 238.93125 1095.9647 245.70011 1088.9629 250.83789 C 1081.9611 255.97656 1073.9429 259.72842 1064.9062 262.09375 C 1055.869 264.45819 1046.3021 265.64062 1036.207 265.64062 C 1026.1119 265.64062 1016.5451 264.45819 1007.5078 262.09375 C 998.4705 259.72842 990.45206 255.97656 983.45117 250.83789 C 976.44939 245.70011 970.95418 238.93125 966.96484 230.53125 C 962.97551 222.13036 960.98047 211.81386 960.98047 199.58008 L 960.98047 84.585938 z M 89.601562 87.857422 L 89.601562 257.47656 L 168.2168 257.47656 C 183.21324 257.47656 195.99202 255.94043 206.55469 252.87109 C 217.11735 249.80176 225.18059 244.87473 230.74414 238.08984 C 236.30681 231.30495 239.08789 222.25873 239.08789 210.95117 C 239.08789 201.90495 236.95062 194.19188 232.67773 187.81055 C 228.40396 181.4301 222.80141 176.22182 215.86719 172.18359 C 212.67341 170.32301 209.31684 168.71999 205.83203 167.32227 C 211.7491 164.24355 216.72286 160.42484 220.70508 155.82617 C 226.51041 149.12306 229.41406 141.00421 229.41406 131.47266 C 229.41406 124.20332 227.76086 117.86273 224.45508 112.45117 C 221.1493 107.03962 216.51203 102.51748 210.54492 98.882812 C 204.5787 95.248146 197.56506 92.502309 189.50195 90.644531 C 181.43884 88.786753 172.72984 87.857422 163.37695 87.857422 L 89.601562 87.857422 z M 265.69531 87.857422 L 265.69531 257.47656 L 320.12109 257.47656 L 320.12109 87.857422 L 265.69531 87.857422 z M 353.98438 87.857422 L 353.98438 257.47656 L 409.61914 257.47656 L 409.61914 188.7207 L 462.83398 257.47656 L 527.17773 257.47656 L 457.51367 167.33594 L 523.54883 87.857422 L 461.625 87.857422 L 409.61914 150.63672 L 409.61914 87.857422 L 353.98438 87.857422 z M 542.90039 87.857422 L 542.90039 257.47656 L 593.69531 257.47656 L 665.05273 257.47656 L 665.05273 215.07031 L 593.69531 215.07031 L 593.69531 190.83984 L 660.21484 190.83984 L 660.21484 149.64648 L 593.69531 149.64648 L 593.69531 130.26172 L 665.05273 130.26172 L 665.05273 87.857422 L 593.69531 87.857422 L 542.90039 87.857422 z M 838.125 124.95508 L 838.125 151.86914 L 851.55859 151.86914 C 855.6297 151.86914 858.96889 151.29954 861.57422 150.1582 C 864.17955 149.01598 866.13332 147.38367 867.43555 145.26367 C 868.73866 143.14278 869.38867 140.61373 869.38867 137.67773 C 869.38867 133.27329 867.96501 130.05385 865.11523 128.01562 C 862.26546 125.97652 857.74615 124.95508 851.55859 124.95508 L 838.125 124.95508 z M 142.81641 127.83789 L 156.12109 127.83789 C 162.24909 127.83789 166.72359 128.84763 169.54492 130.86719 C 172.36714 132.88674 173.7793 136.07856 173.7793 140.43945 C 173.7793 143.3479 173.13353 145.85162 171.84375 147.95117 C 170.55308 150.05162 168.61862 151.66621 166.03906 152.79688 C 163.45862 153.92754 160.1522 154.49414 156.12109 154.49414 L 142.81641 154.49414 L 142.81641 127.83789 z M 838.125 187.3457 L 838.125 215.48438 L 856.44336 215.48438 C 860.51358 215.48437 864.25818 215.1583 867.67773 214.50586 C 871.09729 213.85341 873.86703 212.4657 875.98438 210.3457 C 878.10082 208.22481 879.1582 204.88156 879.1582 200.31445 C 879.1582 197.54112 878.54751 195.29794 877.32617 193.58594 C 876.10484 191.87305 874.43676 190.5677 872.32031 189.66992 C 870.20298 188.77303 867.80146 188.16216 865.11523 187.83594 C 862.42812 187.50972 859.53669 187.3457 856.44336 187.3457 L 838.125 187.3457 z M 142.81641 189.62891 L 160.95898 189.62891 C 164.02298 189.62891 166.88448 189.78973 169.54492 190.11328 C 172.20626 190.43595 174.58564 191.04275 176.68164 191.93164 C 178.77853 192.81964 180.43174 194.1117 181.64062 195.80859 C 182.8504 197.50459 183.45508 199.72493 183.45508 202.4707 C 183.45508 206.99426 182.40548 210.30669 180.30859 212.40625 C 178.21259 214.50669 175.4726 215.87917 172.08594 216.52539 C 168.69927 217.17161 164.9901 217.49414 160.95898 217.49414 L 142.81641 217.49414 L 142.81641 189.62891 z "
     transform="scale(0.75)" />
</svg>
