<?xml version="1.0" encoding="UTF-8" standalone="no"?>
<!-- Generator: Gravit.io -->

<svg
   style="isolation:isolate"
   viewBox="0 0 767.99998 194.24999"
   width="1024"
   height="259"
   version="1.1"
   id="svg10"
   xmlns="http://www.w3.org/2000/svg"
   xmlns:svg="http://www.w3.org/2000/svg">
  <defs
     id="defs14" />
  <path
     d="M 0,0 H 767.99998 V 194.24999 H 0 Z"
     fill="#3e5062"
     id="path2"
     style="stroke:none;stroke-width:0.75" />
  <path
     id="path4"
     style="fill:#81ca9f;fill-opacity:1;stroke:none;stroke-width:0.749998;stroke-miterlimit:4;stroke-dasharray:none"
     d="M 17.880248,19.515014 V 174.73534 H 407.61253 V 19.515014 Z m 664.728832,25.3114 c -6.68598,0 -12.82275,1.101589 -18.40978,3.303589 -5.58697,2.202 -10.07471,5.45874 -13.46371,9.771242 -3.38901,4.311995 -5.08337,9.633234 -5.08337,15.964233 0,4.862998 0.89246,9.083739 2.67845,12.66174 1.786,3.578501 4.03043,6.606495 6.7324,9.083497 2.70202,2.477497 5.54124,4.496755 8.51771,6.056765 2.97703,1.5595 5.6097,2.79697 7.89919,3.71447 5.22101,2.01851 9.11396,3.62451 11.67845,4.81751 2.5645,1.1925 4.28147,2.24766 5.15149,3.16516 0.87002,0.9175 1.30517,2.01909 1.30517,3.30359 0,1.3765 -0.36613,2.52342 -1.09862,3.44091 -0.73299,0.9175 -1.74032,1.58213 -3.02237,1.99512 -1.28244,0.413 -2.74821,0.61963 -4.39672,0.61963 -2.8395,0 -5.65605,-0.59667 -8.44954,-1.78967 -2.79355,-1.1925 -5.38088,-2.95871 -7.76188,-5.2987 -2.38146,-2.3395 -4.48842,-5.11504 -6.32042,-8.32655 l -20.33241,14.86451 c 2.19853,4.8625 5.44917,9.26665 9.7537,13.21216 4.30498,3.9455 9.4118,7.04143 15.31929,9.28894 5.90754,2.24799 12.29619,3.3728 19.16567,3.3728 4.946,0 9.75403,-0.68833 14.42503,-2.06433 4.671,-1.3765 8.86106,-3.39517 12.57058,-6.05566 3.70952,-2.66101 6.66354,-6.03322 8.86157,-10.11622 2.19847,-4.083 3.2981,-8.78494 3.2981,-14.10644 0,-3.762 -0.55006,-7.18004 -1.64908,-10.25354 -1.09946,-3.0735 -2.7248,-5.849039 -4.87682,-8.326537 -2.15251,-2.477503 -4.74041,-4.656369 -7.76295,-6.536868 -3.02248,-1.881 -6.45705,-3.509117 -10.30404,-4.885617 -2.8395,-1.009001 -5.4959,-1.927175 -7.96837,-2.753178 -2.47303,-0.825497 -4.64788,-1.651416 -6.5259,-2.477413 -1.87752,-0.825503 -3.36583,-1.765789 -4.46485,-2.821292 -1.09901,-1.054997 -1.64902,-2.316791 -1.64902,-3.784787 0,-1.101003 0.29767,-1.972248 0.89314,-2.614747 0.59501,-0.641998 1.44213,-1.123701 2.54115,-1.444703 1.09951,-0.321502 2.33662,-0.482298 3.71008,-0.482298 1.74054,0 3.52653,0.321001 5.35803,0.9635 1.83201,0.641998 3.64124,1.629214 5.42729,2.959718 1.78599,1.330498 3.41128,3.142035 4.87681,5.436033 l 22.39453,-12.387082 c -1.74048,-3.303 -4.28265,-6.605572 -7.62564,-9.908572 -3.34299,-3.302999 -7.60207,-6.055324 -12.77707,-8.257324 -5.175,-2.202 -11.37972,-3.303589 -18.61527,-3.303589 z M 441.22081,47.579589 V 143.9187 h 44.65063 c 8.51801,0 15.77651,-0.87175 21.77601,-2.61475 5.99899,-1.7435 10.5784,-4.54225 13.7384,-8.39575 3.16,-3.8535 4.7395,-8.99192 4.7395,-15.41492 0,-5.138 -1.21337,-9.51894 -3.64087,-13.14294 -2.427,-3.624 -5.60972,-6.582955 -9.54822,-8.876954 -1.81409,-1.056628 -3.72055,-1.965999 -5.6997,-2.759765 3.36074,-1.748368 6.18539,-3.917334 8.44738,-6.529174 3.297,-3.808001 4.94605,-8.419387 4.94605,-13.832887 0,-4.128502 -0.9394,-7.729953 -2.8169,-10.803954 -1.8775,-3.0735 -4.51017,-5.64241 -7.89917,-7.706909 -3.389,-2.0645 -7.37362,-3.624078 -11.95312,-4.679077 -4.5795,-1.055 -9.52504,-1.582031 -14.83704,-1.582031 z m 99.33069,0 v 64.684201 c 0,6.8815 1.12221,12.68453 3.3662,17.41003 2.24401,4.725 5.33506,8.53249 9.27357,11.42249 3.938,2.8905 8.44836,5.00092 13.53185,6.33142 5.08348,1.33 10.46481,1.99511 16.1433,1.99511 5.67849,0 11.05982,-0.66511 16.1433,-1.99511 5.08303,-1.3305 9.59338,-3.44092 13.53189,-6.33142 3.93851,-2.89 7.02956,-6.69749 9.27354,-11.42249 2.24404,-4.7255 3.36623,-10.52853 3.36623,-17.41003 V 47.579589 h -30.2256 v 61.932131 c 0,2.56899 -0.43408,4.83962 -1.30404,6.81262 -0.87053,1.97249 -2.19876,3.50886 -3.98475,4.60986 -1.786,1.101 -4.05304,1.65234 -6.80057,1.65234 -2.74798,0 -5.01564,-0.55134 -6.80164,-1.65234 -1.78599,-1.101 -3.1136,-2.63737 -3.98362,-4.60986 -0.87002,-1.973 -1.30517,-4.24363 -1.30517,-6.81262 V 47.579589 Z M 50.400877,49.419798 h 41.498654 c 5.261001,0 10.159809,0.522749 14.695309,1.567749 4.5355,1.045 8.48068,2.589534 11.83667,4.634033 3.3565,2.044501 5.96497,4.588204 7.82447,7.632201 1.8595,3.044002 2.78942,6.610584 2.78942,10.699588 0,5.361497 -1.6333,9.92835 -4.8988,13.698849 -2.24,2.586752 -5.03774,4.734776 -8.36609,6.466556 1.96021,0.786217 3.84828,1.687916 5.64478,2.734492 3.9005,2.271505 7.05193,5.201164 9.45593,8.790164 2.4035,3.5895 3.60571,7.9281 3.60571,13.0166 0,6.3605 -1.56435,11.449 -4.69336,15.2655 -3.12949,3.8165 -7.66506,6.58796 -13.60656,8.31445 -5.9415,1.72651 -13.12957,2.59058 -21.565063,2.59058 h -44.22107 z m 99.052733,0 h 30.6145 v 95.410762 h -30.6145 z m 49.6626,0 h 31.29455 v 35.313354 l 29.25329,-35.313354 h 34.83216 l -37.14478,44.706665 39.18603,50.704097 h -36.19335 l -29.93335,-38.67517 v 38.67517 h -31.29455 z m 106.26525,0 h 28.57214 40.13855 V 73.272215 H 333.9536 v 10.903927 h 37.41724 V 107.34741 H 333.9536 v 13.62964 h 40.13855 v 23.85351 H 333.9536 305.38146 Z M 471.4453,70.28723 h 7.55639 c 3.4805,0 6.02262,0.574555 7.62561,1.721554 1.603,1.146504 2.40381,2.957439 2.40381,5.434937 0,1.6515 -0.36563,3.07409 -1.09863,4.267091 -0.7325,1.1925 -1.8315,2.110674 -3.297,2.753173 -1.4655,0.642003 -3.34379,0.962403 -5.63379,0.962403 H 471.4453 Z M 80.334228,71.908811 v 14.99414 h 7.483882 c 2.2675,0 4.127361,-0.318713 5.578858,-0.954709 1.451003,-0.636002 2.539136,-1.544208 3.265138,-2.725712 0.725501,-1.180996 1.088747,-2.589339 1.088747,-4.225342 0,-2.453 -0.79434,-4.248399 -2.381839,-5.384396 C 93.782016,72.47679 91.26511,71.908811 87.81811,71.908811 Z M 471.4453,105.38195 h 10.30407 c 1.74,0 3.36643,0.0923 4.87793,0.27576 1.51101,0.1835 2.86186,0.52712 4.05286,1.03162 1.1905,0.505 2.1288,1.23926 2.81579,2.20276 0.68701,0.963 1.03052,2.22479 1.03052,3.78478 0,2.569 -0.59477,4.44958 -1.78527,5.64258 -1.19101,1.1925 -2.74899,1.97309 -4.67249,2.34009 -1.9235,0.367 -4.02984,0.55042 -6.31934,0.55042 H 471.4453 Z m -391.111072,1.28431 v 15.67419 h 10.205195 c 2.267505,0 4.353913,-0.18142 6.258915,-0.54492 1.904996,-0.3635 3.446242,-1.13552 4.625242,-2.31702 1.1795,-1.181 1.7699,-3.04424 1.7699,-5.58874 0,-1.5445 -0.34013,-2.79344 -1.02063,-3.74744 -0.68,-0.9545 -1.60993,-1.68129 -2.789431,-2.18079 -1.179,-0.5 -2.517401,-0.84132 -4.014405,-1.02282 -1.496497,-0.182 -3.106091,-0.27246 -4.829591,-0.27246 z" />
</svg>
