<?xml version="1.0" encoding="UTF-8" standalone="no"?><!-- Generator: Gravit.io --><svg xmlns="http://www.w3.org/2000/svg" xmlns:xlink="http://www.w3.org/1999/xlink" style="isolation:isolate" viewBox="0 0 1024 576" width="1024pt" height="576pt"><rect x="0" y="0" width="1024" height="576" transform="matrix(1,0,0,1,0,0)" fill="rgb(0,0,0)"/><path d=" M 335.078 204.875 C 320.217 204.875 306.387 209.324 294.844 216.961 C 275.061 230.052 262 252.512 262 278 C 262 318.359 294.745 351.125 335.078 351.125 C 360.37 351.125 382.674 338.237 395.795 318.676 L 742 318.676 L 742 233.144 L 392.754 233.144 C 379.378 215.953 358.517 204.875 335.078 204.875 Z  M 326.197 234.485 L 335.126 234.485 C 336.584 234.484 337.982 235.063 339.013 236.094 C 339.082 236.163 339.15 236.234 339.216 236.307 C 340.601 236.206 341.988 236.135 343.376 236.094 C 344.474 236.06 345.572 236.069 346.669 236.123 C 347.087 236.147 347.5 236.176 347.918 236.215 C 348.268 236.249 348.618 236.293 348.963 236.346 C 349.458 236.419 349.949 236.522 350.435 236.648 C 350.86 236.758 351.275 236.901 351.678 237.076 C 351.967 237.202 352.246 237.348 352.514 237.513 C 352.799 237.687 353.068 237.887 353.316 238.111 C 353.641 238.407 353.928 238.738 354.166 239.108 C 354.416 239.494 354.607 239.915 354.734 240.357 C 355.04 241.383 355.244 242.433 355.351 243.498 C 355.457 244.554 355.508 245.615 355.502 246.677 C 355.496 247.547 355.473 248.418 355.434 249.287 C 355.395 250.148 355.346 251.013 355.293 251.873 C 355.239 252.719 355.196 253.566 355.157 254.411 C 355.118 255.204 355.099 255.996 355.099 256.793 C 355.094 257.554 355.123 258.315 355.186 259.073 C 355.244 259.745 355.352 260.411 355.507 261.066 C 355.638 261.927 355.808 262.778 356.007 263.624 C 356.241 264.627 356.507 265.622 356.804 266.608 C 357.022 267.336 357.255 268.059 357.503 268.777 C 357.623 269.127 357.745 269.477 357.868 269.827 C 359.726 269.321 361.681 269.054 363.698 269.054 C 376.032 269.054 386.046 279.074 386.046 291.416 C 386.046 303.758 376.032 313.778 363.698 313.778 C 351.364 313.778 341.35 303.758 341.35 291.416 C 341.35 283.696 345.268 276.884 351.223 272.869 C 351.013 272.296 350.808 271.721 350.61 271.144 C 350.362 270.422 350.129 269.696 349.906 268.969 C 348.251 269.131 346.6 269.333 344.954 269.574 C 342.899 269.875 340.854 270.264 338.828 270.731 C 336.992 271.149 335.18 271.66 333.387 272.248 C 331.751 272.786 330.144 273.409 328.573 274.114 C 325.715 275.392 323.009 276.987 320.508 278.869 C 318.677 280.267 316.963 281.813 315.392 283.496 C 318.809 286.688 320.945 291.235 320.945 296.278 C 320.945 305.937 313.108 313.778 303.455 313.778 C 293.802 313.778 285.966 305.936 285.966 296.277 C 285.966 286.619 293.802 278.777 303.455 278.777 C 305.39 278.777 307.253 279.092 308.989 279.683 C 310.371 278.117 311.851 276.639 313.419 275.259 L 307.313 268.071 C 304.928 268.17 302.543 268.254 300.157 268.325 C 299.175 268.349 298.218 267.979 297.514 267.294 C 296.808 266.607 296.41 265.663 296.411 264.678 L 296.411 261.276 C 296.411 260.279 296.819 259.321 297.543 258.636 C 298.262 257.946 299.238 257.586 300.229 257.634 C 302.464 257.741 304.689 257.868 306.919 258.004 C 308.343 258.091 309.766 258.198 311.19 258.315 C 312.098 258.393 313.007 258.475 313.91 258.573 Q 314.806 258.667 315.703 258.791 C 316.357 258.883 317.008 258.995 317.656 259.127 C 318.078 259.214 318.492 259.331 318.89 259.486 C 319.055 259.545 319.211 259.613 319.366 259.686 C 319.554 259.777 319.736 259.881 319.91 259.997 C 320.303 260.258 320.649 260.586 320.93 260.964 C 321.417 261.625 321.678 262.424 321.674 263.244 C 321.668 264.118 321.357 264.963 320.794 265.631 C 320.496 265.989 320.138 266.292 319.735 266.526 C 319.565 266.628 319.386 266.715 319.201 266.793 C 319.045 266.856 318.895 266.915 318.739 266.968 C 318.421 267.07 318.096 267.153 317.768 267.216 C 317.313 267.298 316.856 267.371 316.398 267.435 L 316.341 267.442 L 319.254 270.872 C 321.281 269.58 323.4 268.439 325.595 267.459 C 327.397 266.652 329.233 265.937 331.108 265.32 C 333.11 264.66 335.141 264.094 337.196 263.623 C 339.411 263.112 341.646 262.691 343.896 262.36 C 345.331 262.149 346.77 261.966 348.213 261.82 C 348.079 261.111 347.982 260.395 347.923 259.676 C 347.845 258.709 347.806 257.736 347.811 256.769 C 347.811 255.865 347.835 254.965 347.879 254.066 C 347.918 253.186 347.967 252.306 348.02 251.426 C 348.069 250.6 348.117 249.774 348.156 248.942 C 348.19 248.174 348.21 247.406 348.214 246.643 Q 348.222 245.425 348.098 244.222 C 348.078 244.005 348.049 243.789 348.01 243.575 C 347.967 243.57 347.918 243.561 347.869 243.556 C 347.657 243.521 347.443 243.494 347.228 243.473 C 346.917 243.444 346.611 243.424 346.3 243.405 C 345.402 243.361 344.503 243.353 343.604 243.381 C 342.15 243.426 340.697 243.505 339.246 243.617 C 339.171 243.703 339.094 243.786 339.013 243.867 C 337.982 244.898 336.584 245.477 335.126 245.476 L 326.197 245.476 C 324.739 245.476 323.341 244.898 322.31 243.867 C 321.28 242.835 320.701 241.436 320.702 239.978 C 320.703 238.521 321.281 237.124 322.31 236.094 C 323.341 235.063 324.739 234.484 326.197 234.485 M 398.515 241.737 L 585.201 241.737 L 585.201 310.083 L 400.745 310.083 C 405.486 300.393 408.157 289.508 408.157 278 C 408.157 264.803 404.638 252.43 398.515 241.737 M 706.421 252.882 Q 711.205 252.882 714.627 254.336 Q 718.049 255.79 720.259 257.972 Q 722.47 260.154 723.621 262.335 L 713.749 267.79 Q 712.78 266.274 711.599 265.396 Q 710.418 264.517 709.207 264.093 Q 707.996 263.669 706.845 263.669 Q 705.937 263.669 705.21 263.881 Q 704.483 264.093 704.09 264.517 Q 703.696 264.941 703.696 265.669 Q 703.696 266.638 704.423 267.335 Q 705.15 268.032 706.391 268.577 Q 707.633 269.123 709.268 269.668 Q 710.903 270.214 712.78 270.88 Q 715.324 271.789 717.322 273.031 Q 719.321 274.274 720.744 275.91 Q 722.167 277.546 722.894 279.576 Q 723.621 281.606 723.621 284.091 Q 723.621 287.606 722.167 290.302 Q 720.714 292.999 718.261 294.756 Q 715.808 296.514 712.72 297.423 Q 709.631 298.332 706.361 298.332 Q 701.819 298.332 697.912 296.847 Q 694.006 295.362 691.16 292.757 Q 688.313 290.151 686.86 286.939 L 695.823 280.394 Q 697.034 282.515 698.609 284.061 Q 700.184 285.606 702.031 286.394 Q 703.878 287.181 705.755 287.182 Q 706.845 287.182 707.693 286.909 Q 708.541 286.636 709.025 286.03 Q 709.51 285.424 709.51 284.515 Q 709.51 283.667 708.935 283.061 Q 708.359 282.455 706.663 281.667 Q 704.968 280.879 701.516 279.546 Q 700.002 278.94 698.034 277.91 Q 696.065 276.879 694.279 275.243 Q 692.492 273.607 691.311 271.244 Q 690.13 268.88 690.13 265.669 Q 690.13 261.487 692.371 258.639 Q 694.612 255.791 698.306 254.336 Q 702 252.882 706.421 252.882 M 600.015 254.094 L 618.487 254.094 Q 621.999 254.094 625.027 254.791 Q 628.055 255.488 630.296 256.851 Q 632.537 258.215 633.778 260.245 Q 635.02 262.275 635.02 265.002 Q 635.02 268.577 632.84 271.092 C 631.843 272.242 630.597 273.197 629.116 273.967 C 629.988 274.317 630.829 274.717 631.628 275.183 Q 634.232 276.698 635.837 279.091 Q 637.442 281.485 637.442 284.879 Q 637.442 289.121 635.353 291.666 Q 633.263 294.211 629.297 295.363 Q 625.33 296.514 619.698 296.514 L 600.015 296.514 L 600.015 254.094 Z  M 643.801 254.094 L 657.125 254.094 L 657.125 281.364 Q 657.125 283.061 657.7 284.363 Q 658.275 285.666 659.456 286.394 Q 660.637 287.121 662.454 287.121 Q 664.271 287.121 665.452 286.394 Q 666.633 285.666 667.208 284.363 Q 667.784 283.06 667.783 281.364 L 667.783 254.094 L 681.107 254.094 L 681.107 282.576 Q 681.107 287.121 679.623 290.242 Q 678.139 293.363 675.535 295.272 Q 672.931 297.18 669.57 298.059 Q 666.209 298.938 662.454 298.938 Q 658.699 298.938 655.338 298.059 Q 651.977 297.18 649.373 295.272 Q 646.769 293.363 645.285 290.242 Q 643.801 287.121 643.801 282.576 L 643.801 254.094 Z  M 427.739 254.904 L 427.739 296.915 L 447.231 296.915 Q 452.809 296.915 456.738 295.775 Q 460.666 294.635 462.736 292.114 Q 464.805 289.593 464.805 285.392 Q 464.805 282.031 463.215 279.661 Q 461.626 277.29 459.047 275.79 C 458.256 275.33 457.427 274.929 456.564 274.584 C 458.029 273.822 459.26 272.876 460.246 271.739 Q 462.406 269.248 462.406 265.707 Q 462.406 263.006 461.176 260.996 Q 459.947 258.985 457.727 257.635 Q 455.508 256.285 452.509 255.595 Q 449.511 254.904 446.032 254.904 L 427.739 254.904 Z  M 471.402 254.904 L 471.402 296.915 L 484.897 296.915 L 484.897 254.904 L 471.402 254.904 Z  M 493.294 254.904 L 493.294 296.915 L 507.089 296.915 L 507.089 279.886 L 520.284 296.915 L 536.238 296.915 L 518.964 274.59 L 535.338 254.904 L 519.984 254.904 L 507.089 270.453 L 507.089 254.904 L 493.294 254.904 Z  M 540.136 254.904 L 540.136 296.915 L 570.424 296.915 L 570.424 286.413 L 552.731 286.413 L 552.731 280.411 L 569.225 280.411 L 569.225 270.208 L 552.731 270.208 L 552.731 265.407 L 570.424 265.407 L 570.424 254.904 L 540.136 254.904 Z  M 613.339 264.093 L 613.339 270.759 L 616.669 270.759 Q 618.184 270.759 619.153 270.335 Q 620.122 269.911 620.606 269.123 Q 621.091 268.335 621.091 267.244 Q 621.091 265.608 620.031 264.85 Q 618.971 264.093 616.669 264.093 L 613.339 264.093 Z  M 440.934 264.807 L 444.233 264.807 Q 446.512 264.807 447.561 265.557 Q 448.611 266.307 448.611 267.928 Q 448.611 269.008 448.131 269.788 Q 447.651 270.568 446.691 270.988 Q 445.732 271.409 444.233 271.409 L 440.934 271.409 L 440.934 264.807 Z  M 363.698 276.345 C 362.667 276.345 361.647 276.451 360.655 276.668 C 361.256 278.012 361.881 279.345 362.532 280.667 C 362.9 281.417 363.274 282.164 363.654 282.909 L 363.698 282.909 C 365.952 282.909 368.114 283.808 369.707 285.403 C 371.302 286.997 372.199 289.16 372.2 291.416 C 372.199 293.672 371.302 295.834 369.707 297.43 C 368.114 299.024 365.952 299.923 363.698 299.923 C 361.443 299.923 359.282 299.024 357.688 297.43 C 356.094 295.835 355.196 293.672 355.196 291.416 C 355.195 289.472 355.864 287.587 357.089 286.078 L 357.089 286.078 C 356.72 285.349 356.354 284.618 355.993 283.885 C 355.333 282.544 354.698 281.192 354.086 279.829 C 353.723 280.115 353.379 280.429 353.048 280.759 C 350.224 283.586 348.638 287.419 348.637 291.415 C 348.638 295.411 350.224 299.244 353.048 302.071 C 355.872 304.897 359.703 306.484 363.698 306.485 C 367.692 306.484 371.523 304.897 374.347 302.071 C 377.171 299.244 378.758 295.411 378.758 291.415 C 378.758 287.419 377.17 283.584 374.347 280.759 C 371.523 277.934 367.692 276.346 363.698 276.345 M 613.339 279.546 L 613.339 286.515 L 617.881 286.515 Q 619.395 286.515 620.666 286.272 Q 621.938 286.03 622.726 285.242 Q 623.513 284.454 623.513 282.758 Q 623.513 281.727 623.059 281.091 Q 622.605 280.455 621.817 280.122 Q 621.03 279.788 620.031 279.667 Q 619.031 279.546 617.881 279.546 L 613.339 279.546 Z  M 440.934 280.111 L 445.432 280.111 Q 446.572 280.111 447.561 280.231 Q 448.551 280.351 449.331 280.681 Q 450.11 281.011 450.56 281.641 Q 451.01 282.271 451.01 283.292 Q 451.01 284.972 450.23 285.752 Q 449.45 286.532 448.191 286.773 Q 446.931 287.013 445.432 287.013 L 440.934 287.013 L 440.934 280.111 Z  M 303.455 286.069 C 300.749 286.068 298.153 287.144 296.241 289.058 C 294.327 290.973 293.252 293.57 293.253 296.278 C 293.252 298.985 294.327 301.582 296.241 303.497 C 298.153 305.411 300.749 306.486 303.455 306.486 C 306.161 306.487 308.757 305.411 310.67 303.497 C 312.583 301.582 313.658 298.985 313.658 296.278 C 313.658 293.57 312.584 290.973 310.67 289.058 C 308.757 287.144 306.161 286.068 303.455 286.069" fill="rgb(129,202,159)"/></svg>