<svg xmlns="http://www.w3.org/2000/svg" viewBox="0 0 270.93 146.39"><path d="M-30.43 75.41h270.92V221.8H-30.43z" style="fill:#000;stroke-width:3.66745;stroke-linecap:round;stroke-linejoin:round;paint-order:stroke fill markers" transform="translate(30.43 -75.4)"/><path d="M-30.43 75.41H66.9V128h-97.33z" style="fill:#81ca9f;fill-opacity:1;stroke:none;stroke-width:6.90692;stroke-dasharray:none;stroke-opacity:1;paint-order:markers stroke fill" transform="translate(117.23 -31.68)"/><path d="m43.46 87.57-3.7 7.01h2.34l.46-.84h1.78l.48.84h2.33zm-59.64.28c-.57 0-1.09.08-1.56.24a3.16 3.16 0 0 0-1.96 1.8c-.18.42-.27.9-.27 1.42 0 .52.09 1 .27 1.42a3.16 3.16 0 0 0 1.96 1.8c.47.16.99.24 1.56.24.48 0 .87-.06 1.17-.19.3-.12.58-.26.84-.44v-2.11c-.14.13-.3.26-.47.38a2.38 2.38 0 0 1-2.24.25 1.45 1.45 0 0 1-.6-.5 1.53 1.53 0 0 1-.23-.85c0-.34.08-.62.23-.84.15-.24.35-.4.6-.52a2.38 2.38 0 0 1 2.24.25c.17.13.33.26.47.39v-2.12a3.23 3.23 0 0 0-2.01-.63zm48.93 0a4.8 4.8 0 0 0-1.55.24 3.16 3.16 0 0 0-1.96 1.8c-.18.42-.27.9-.27 1.42 0 .52.09 1 .27 1.42a3.16 3.16 0 0 0 1.96 1.8c.47.16.99.24 1.55.24.48 0 .87-.06 1.17-.19.3-.12.59-.26.85-.44v-2.11c-.14.13-.3.26-.47.38a2.37 2.37 0 0 1-2.24.25 1.45 1.45 0 0 1-.6-.5 1.53 1.53 0 0 1-.23-.85c0-.34.07-.62.22-.84.16-.24.36-.4.61-.52a2.37 2.37 0 0 1 2.24.25c.17.13.33.26.47.39v-2.12a3.23 3.23 0 0 0-2.01-.63Zm-41.08.18v6.55h2.06v-2.06H-6l1.16 2.06h2.4l-1.58-2.35a2 2 0 0 0 .89-.8c.2-.33.29-.72.29-1.15 0-.44-.1-.83-.3-1.16-.18-.34-.48-.6-.88-.8a3.6 3.6 0 0 0-1.56-.29h-.7zm11.17 0v6.55h2.1v-6.55zm7.38 0v1.83h1.87v4.72h2.06v-4.72h1.87v-1.83zm11.08 0v6.55h2.1v-6.55zm31.09 0v6.55h4.72v-1.73h-2.67v-4.82Zm-38.06 9.71L3.87 117.62h6.62l1.3-2.39h5.05l1.34 2.39h6.62zm-31 .4-3.45 19.48h6.23l.96-7.58 4.47 5.85 4.48-5.85.96 7.58H3.2L-.24 98.14l-8.22 10.01Zm50.7.4c-1.3 0-2.48.2-3.56.63a6.04 6.04 0 0 0-2.6 1.88 4.82 4.82 0 0 0-.97 3.08 5.51 5.51 0 0 0 1.8 4.18c.53.48 1.08.87 1.64 1.17.58.3 1.1.54 1.54.72 1 .38 1.76.7 2.25.92.5.23.82.44.98.61.18.18.27.4.27.64a1 1 0 0 1-.48.9c-.32.18-.7.26-1.17.26a4.2 4.2 0 0 1-1.64-.34 5.02 5.02 0 0 1-1.48-1 7.6 7.6 0 0 1-1.22-1.62l-3.93 2.86a7.8 7.8 0 0 0 1.89 2.54 8.97 8.97 0 0 0 2.94 1.78 10.25 10.25 0 0 0 6.5.26c.9-.26 1.7-.65 2.4-1.16a5.66 5.66 0 0 0 1.72-1.94c.43-.8.64-1.7.64-2.73 0-.72-.1-1.37-.32-1.96a4.83 4.83 0 0 0-.95-1.61c-.4-.48-.9-.9-1.49-1.25a9.88 9.88 0 0 0-1.98-.95c-.73-.27-1.39-.5-1.99-.7a7.64 7.64 0 0 1-1.46-.66c-.35-.24-.53-.55-.53-.92 0-.3.13-.52.37-.67a2.9 2.9 0 0 1 2.04-.02c.36.12.7.32 1.04.58.35.25.67.6.95 1.03l4.32-2.38a7.78 7.78 0 0 0-1.48-1.9 7.61 7.61 0 0 0-2.47-1.6 9.06 9.06 0 0 0-3.58-.63zm17.8 0a9.5 9.5 0 0 0-3.55.63 6.04 6.04 0 0 0-2.6 1.88 4.82 4.82 0 0 0-.98 3.08 5.51 5.51 0 0 0 1.8 4.18c.54.48 1.08.87 1.65 1.17.58.3 1.1.54 1.54.72 1 .38 1.75.7 2.25.92.5.23.82.44.98.61.18.18.26.4.26.64 0 .4-.15.7-.47.9-.32.18-.7.26-1.17.26-.55 0-1.1-.11-1.64-.34a5.02 5.02 0 0 1-1.49-1 7.6 7.6 0 0 1-1.21-1.62l-3.93 2.86a7.8 7.8 0 0 0 1.88 2.54 8.97 8.97 0 0 0 2.95 1.78 10.25 10.25 0 0 0 6.49.26 7.8 7.8 0 0 0 2.41-1.16 5.66 5.66 0 0 0 1.72-1.94c.43-.8.64-1.7.64-2.73 0-.72-.1-1.37-.32-1.96a4.83 4.83 0 0 0-.95-1.61c-.4-.48-.9-.9-1.49-1.25a9.88 9.88 0 0 0-1.98-.95 56 56 0 0 0-2-.7 7.64 7.64 0 0 1-1.45-.66c-.35-.24-.53-.55-.53-.92 0-.3.12-.52.37-.67.27-.14.6-.2 1-.2.34 0 .69.05 1.04.18.36.12.7.32 1.04.58.35.25.67.6.95 1.03l4.32-2.38a7.78 7.78 0 0 0-1.48-1.9 7.61 7.61 0 0 0-2.47-1.6 9.06 9.06 0 0 0-3.58-.63zM28.1 120.1l.02.01h-.01z" style="-inkscape-font-specification:&quot;Jost Heavy&quot;;fill:#fff;fill-opacity:1;stroke-width:.883944" transform="translate(117.23 -31.68)"/><path d="m43.46 79.51-4.6 8.75h-.56l-1.76-3.28s-.86-.53-1.32-.71a8.13 8.13 0 0 0-5.17.01c-.88.3-1.73.79-2.45 1.45-.28.26-.42.63-.66.94v-2.64H-.7v2.08l-2.04-2.08h-8.66l-.47.44-.53.5a6.41 6.41 0 0 0-3.79-1.13c-.9 0-1.82.13-2.7.44a6.8 6.8 0 0 0-4.61 6.56 6.81 6.81 0 0 0 2.18 5.11c.09.1.2.18.3.26l-4.25 24h13.56l.27-2.11 2.05 2.68 2.05-2.68.26 2.12h18.73l1.3-2.39h.88l1.34 2.39h13.29a13.91 13.91 0 0 0 8.38.25c1.25-.37 2.43-.93 3.48-1.69.5-.36.97-.8 1.4-1.26l.11.13a12.58 12.58 0 0 0 4.08 2.47 13.85 13.85 0 0 0 8.74.35 11.3 11.3 0 0 0 3.47-1.69 9.33 9.33 0 0 0 2.77-3.11l.01-.01v-.02a9.35 9.35 0 0 0 1.06-4.4c0-1.06-.16-2.13-.53-3.15-.35-1-.91-1.94-1.62-2.74-.07-.08-.17-.13-.24-.2l3.6-2-1.62-3.07c-.47-.9-1.1-1.7-1.8-2.43h.9v-8.8h-2.67v-4.82h-9.13l-.1 4.23h-.68Zm0 8.05 3.7 7.02h-2.34l-.48-.84h-1.78l-.46.84h-2.34zm-59.64.29a3.23 3.23 0 0 1 2 .62v2.12a4.68 4.68 0 0 0-.46-.39 2.38 2.38 0 0 0-2.24-.25c-.25.11-.45.28-.6.52-.15.22-.23.5-.23.84 0 .33.08.62.23.85.15.22.35.4.6.5.26.12.54.17.85.17a2.38 2.38 0 0 0 1.39-.42c.17-.12.33-.25.47-.38v2.11a4.2 4.2 0 0 1-.84.44 4.56 4.56 0 0 1-2.73-.06 3.16 3.16 0 0 1-1.96-1.8 3.55 3.55 0 0 1-.27-1.41c0-.53.09-1 .27-1.43a3.16 3.16 0 0 1 1.96-1.8 5.1 5.1 0 0 1 1.56-.23zm48.93 0a3.23 3.23 0 0 1 2.02.62v2.12c-.14-.13-.3-.26-.47-.39a2.37 2.37 0 0 0-2.24-.25c-.25.11-.45.28-.6.52-.16.22-.23.5-.23.84 0 .33.07.62.22.85.16.22.36.4.61.5a2.37 2.37 0 0 0 2.24-.25c.17-.12.33-.25.47-.38v2.11c-.26.18-.54.32-.85.44a4.54 4.54 0 0 1-2.72-.06 3.16 3.16 0 0 1-1.96-1.8 3.6 3.6 0 0 1-.27-1.41c0-.53.09-1 .27-1.43a3.16 3.16 0 0 1 1.96-1.8c.47-.15.99-.23 1.55-.23zm-41.08.18h2.76c.64 0 1.16.1 1.56.3.4.19.7.45.89.79.2.33.29.72.29 1.16 0 .43-.1.82-.3 1.16-.18.33-.47.6-.88.8l1.57 2.34h-2.38L-6 92.52h-.28v2.06h-2.06zm11.17 0h2.1v6.55h-2.1zm7.38 0h5.8v1.83h-1.87v4.72H12.1v-4.72h-1.87zm11.08 0h2.1v6.55h-2.1zm31.09 0h2.05v4.82h2.67v1.73h-4.72Zm-58.66 1.73v1.22h.51c.17 0 .32-.02.43-.07a.58.58 0 0 0 .35-.54.55.55 0 0 0-.1-.33.5.5 0 0 0-.25-.2 1.07 1.07 0 0 0-.43-.08zm49.73 1.25-.56 1.25h1.12zm-29.13 6.73 10.47 19.88h-6.62l-1.34-2.39H11.8l-1.3 2.39H3.86Zm-31 .4 8.21 10.01 8.22-10.01 3.44 19.48h-6.22l-.96-7.58-4.48 5.85-4.47-5.85-.96 7.58h-6.23zm50.7.4c1.39 0 2.58.2 3.57.63 1 .43 1.83.96 2.47 1.6a7.78 7.78 0 0 1 1.48 1.9l-4.32 2.38c-.28-.44-.6-.78-.95-1.03a3.58 3.58 0 0 0-1.04-.58c-.35-.13-.7-.19-1.03-.19-.4 0-.74.07-1 .21a.7.7 0 0 0-.38.67c0 .37.18.68.53.92.37.23.86.45 1.46.67.6.2 1.26.42 1.99.69.74.26 1.4.58 1.98.95a5.9 5.9 0 0 1 1.49 1.25c.42.47.74 1.01.95 1.61.21.59.32 1.24.32 1.96 0 1.03-.21 1.94-.64 2.73-.42.78-1 1.42-1.72 1.94-.7.5-1.5.9-2.4 1.16a10.25 10.25 0 0 1-6.5-.26 8.97 8.97 0 0 1-2.94-1.78 7.8 7.8 0 0 1-1.89-2.54l3.93-2.86a7.6 7.6 0 0 0 1.22 1.61c.46.44.95.78 1.48 1.01.55.23 1.1.34 1.64.34.46 0 .85-.08 1.17-.26a1 1 0 0 0 .48-.9.87.87 0 0 0-.27-.64 3.25 3.25 0 0 0-.98-.6 40.1 40.1 0 0 0-2.25-.93c-.44-.18-.96-.42-1.54-.72a8.25 8.25 0 0 1-1.64-1.17 5.51 5.51 0 0 1-1.8-4.19c0-1.21.32-2.24.98-3.07a6.04 6.04 0 0 1 2.6-1.88 9.62 9.62 0 0 1 3.54-.63zm17.8 0c1.4 0 2.6.2 3.58.63 1 .43 1.83.96 2.47 1.6a7.78 7.78 0 0 1 1.48 1.9l-4.32 2.38c-.28-.44-.6-.78-.95-1.03a3.58 3.58 0 0 0-1.04-.58c-.35-.13-.7-.19-1.03-.19-.4 0-.74.07-1 .21a.7.7 0 0 0-.38.67c0 .37.18.68.53.92.37.23.86.45 1.46.67.6.2 1.26.42 1.99.69.74.26 1.4.58 1.98.95a5.9 5.9 0 0 1 1.49 1.25c.42.47.74 1.01.95 1.61.21.59.32 1.24.32 1.96 0 1.03-.21 1.94-.64 2.73-.42.78-1 1.42-1.72 1.94-.7.5-1.51.9-2.41 1.16a10.25 10.25 0 0 1-6.5-.26 8.97 8.97 0 0 1-2.94-1.78 7.8 7.8 0 0 1-1.88-2.54l3.93-2.86a7.6 7.6 0 0 0 1.21 1.61c.46.44.96.78 1.49 1.01.55.23 1.1.34 1.64.34.46 0 .85-.08 1.17-.26.32-.2.47-.5.47-.9a.87.87 0 0 0-.26-.64 3.25 3.25 0 0 0-.98-.6 40.1 40.1 0 0 0-2.25-.93c-.44-.18-.96-.42-1.54-.72a8.25 8.25 0 0 1-1.64-1.17 5.51 5.51 0 0 1-1.8-4.19c0-1.21.32-2.24.98-3.07a6.04 6.04 0 0 1 2.6-1.88 9.62 9.62 0 0 1 3.54-.63zm-37.5 8.95-1.58 3.55h3.17zm13.75 12.62h.02l.01.01z" style="-inkscape-font-specification:&quot;Jost Heavy&quot;;fill:#1c1c1c;fill-opacity:1;stroke-width:.883944" transform="translate(117.23 -31.68)"/></svg>
